<?xml version="1.0" encoding="UTF-8" standalone="no"?>
<svg width="462px" height="135px" viewBox="0 0 462 135" version="1.1" xmlns="http://www.w3.org/2000/svg" xmlns:xlink="http://www.w3.org/1999/xlink">
    <!-- Generator: Sketch 3.7.2 (28276) - http://www.bohemiancoding.com/sketch -->
    <title>Worm</title>
    <desc>Created with Sketch.</desc>
    <defs></defs>
    <g id="Page-1" stroke="none" stroke-width="1" fill="none" fill-rule="evenodd">
        <g id="Worm" transform="translate(1.000000, 1.000000)">
            <path d="M21.4507692,38.0025947 C21.2645482,37.4826783 21.1639229,36.927916 21.1639229,36.3518998 C21.1639229,33.3961271 23.813519,31 27.0819615,31 C30.3504039,31 33,33.3961271 33,36.3518998 C33,39.3076724 30.3504039,41.7037995 27.0819615,41.7037995 C26.3897544,41.7037995 25.7253044,41.5963263 25.1079019,41.3988249 L20.3184701,44.3707127 C20.3184826,44.3737238 20.3184889,44.376736 20.3184889,44.3797494 C20.3184889,45.8576357 18.804434,47.0556993 16.9367526,47.0556993 C16.6545966,47.0556993 16.3805114,47.0283558 16.1184981,46.976835 L0,56.9785156 L13.6253206,44.9251947 C13.5792335,44.7490937 13.5550163,44.5666594 13.5550163,44.3797494 C13.5550163,42.9018631 15.0690712,41.7037995 16.9367526,41.7037995 C17.0436451,41.7037995 17.1493793,41.7077239 17.2537377,41.7154004 L21.4507692,38.0025947 Z" id="Combined-Shape" stroke="#979797"></path>
            <path d="M158.869448,26.6513701 L161.153021,29.8245796 C161.710085,30.3229926 162.277392,29.9973378 162.853964,30.731609 C164.14718,32.378535 165.487005,32.3269354 166.862401,33.2678275 C170.18311,35.5394861 173.711167,35.5151246 177.291229,37.3978631 C182.359093,40.0630309 187.531167,42.5420394 192.366795,45.4110664 C193.972795,46.3639219 195.541683,47.3841218 197.057318,48.5003609 C197.854654,49.0875851 198.753203,49.9589649 199.730208,51.0213906 C200.877059,52.2685115 202.132015,52.778876 203.458268,54.4018849 C206.318211,57.9017545 209.509693,61.9254309 212.663621,64.9627777 C215.176162,67.3824462 217.66487,66.7271972 219.94314,68.7058742 C221.559445,70.109635 223.069835,70.235777 224.407678,71.1304924 C227.480955,73.1858217 229.643692,73.0198971 230.088159,73.1926838 C232.548677,74.1492093 234.167781,74.6077056 235.221723,74.7760682 C237.542168,75.1467487 239.555155,78.6606608 240.641262,79.703075 C241.279486,80.3156238 240.942958,83.110666 241.91181,84.1663765 C242.351507,84.6454931 244.260493,83.9281101 244.816107,83.5902046 C245.706714,83.0485671 245.496287,81.0121197 245.523138,79.9700874 C245.613921,76.4469363 237.372198,67.84843 226.38056,59.3587593 C217.582525,52.5633741 209.52355,46.3006262 201.530033,40.4724088 C196.156684,36.5546034 190.812913,32.8331496 185.294111,29.2782471 C176.953293,23.9055603 168.212675,18.9133042 158.365911,14.1986031 C156.855179,13.4752534 151.598205,12.5381578 146.722081,12.3179239 C142.236667,12.1153367 138.073516,14.5193335 137.445013,16.2542671 C136.500389,18.8618275 136.996975,21.5629766 138.551178,24.3040571 C139.972121,26.8101142 142.277094,28.3495488 145.172953,30.8813558 C148.467832,33.7620193 152.527651,34.693976 156.92063,37.5865719 C159.57393,39.3336603 162.348765,41.1451644 165.150001,42.9698425 C169.429772,45.7576136 173.771166,47.5761359 177.834905,50.2426684 C184.513562,54.625051 190.442266,59.5969071 194.114935,62.3470406 C197.797826,65.1048284 201.405618,67.8511869 204.954849,70.5724736 C212.416176,76.2932648 218.618697,81.9032538 225.716052,87.2756944 C229.855331,90.4089784 233.626393,93.2149488 237.724608,96.1614908 C238.719888,96.8770783 242.047302,99.8329316 243.042393,100.535662 C247.206994,103.47669 250.373774,105.399156 254.574735,108.216061 C257.570496,110.224834 260.58364,111.012991 263.625771,112.685395 C268.029302,115.106226 272.493571,116.284519 277.053774,118.538323 C279.096157,119.547736 287.993486,122.356647 290.417073,123.25221 C294.9705,124.934791 299.641712,126.725199 304.46122,128.347791 C311.778425,130.811286 319.437462,131.887952 327.545105,132.613122 C336.524174,133.416235 346.053467,133.453362 356.278021,132.604853 C361.85971,132.141644 367.615761,132.583823 372.771185,130.394892 C375.457581,129.254281 378.963397,125.632372 378.797552,123.04333 C378.380599,116.534179 368.046368,112.94249 365.886419,112.707392 C356.446749,111.679937 349.237754,112.315656 343.042969,111.697266 C338.550061,111.248764 334.807647,110.833564 331.685133,110.449138 C326.86376,109.855557 323.52032,109.417611 321.174066,109.078797 C315.340172,108.236345 315.671407,108.006777 314.777344,107.521484 C313.928774,107.060885 308.768162,107.474523 299.317383,104.256836 C294.796651,102.717672 288.497729,100.597656 280.875977,97.6865234 C276.246032,95.9181132 271.926889,92.8167074 264.920599,90.4945015 C262.943449,89.8391835 260.36772,89.6890486 258.686224,90.9183296 C254.23766,94.1705131 261.499979,94.4093088 261.601263,94.4222359 C263.714475,94.6919509 267.130598,95.1164279 268.987005,96.1614937 C272.29434,98.0233605 273.560408,102.480285 276.819036,104.426142 C279.756514,106.180227 281.903798,108.197842 285.53125,109.697266 C293.642247,113.049984 302.861109,116.511 310.076172,118.205078 C316.74456,119.770799 321.736264,120.697097 321.736264,120.697097 C321.736264,120.697097 327.044914,121.51258 332.40918,121.952507 C335.703299,122.22266 338.766977,122.141868 341.37793,122.262047 C342.953947,122.334589 345.041031,122.280197 347.227281,122.202789 C350.395084,122.090627 354.733196,119.665262 357.10224,120.03747 C359.471283,120.409679 361.14221,122.797239 358.363958,123.952509 C355.585706,125.107779 350.245388,124.765713 347.46875,125.043327 C342.936788,125.496443 339.371025,125.198754 332.40918,124.043327 C326.177751,123.009125 318.602063,122.931203 312.689348,121.262045 C304.794624,119.033365 298.036772,116.662917 294.69306,115.283564 C290.082373,113.381558 287.127343,112.979814 283.472656,111.467773 C277.600721,109.038399 271.421189,105.549785 264.920593,101.9375 C262.545895,100.617915 257.66452,97.6974417 255.164063,96.1614914 C253.818628,95.3350346 249.731077,91.4781758 248.391837,90.640108 C244.818271,88.4038469 241.265236,86.129683 237.724609,83.8359375 C229.466695,78.4861632 221.608544,72.4202695 213.135443,67.5433296 C207.257698,64.1602228 205.26917,59.6419648 201.678711,56.4628906 C195.127164,50.6620011 188.870595,46.6778261 183.739258,43.4931641 C173.429949,37.0948967 164.090443,34.405296 158.424103,29.9558101 C157.350769,29.1129756 154.409231,28.1711135 153.617865,27.0794624 C153.285981,26.621645 153.686667,24.5473416 155.041693,24.4368843 C156.396718,24.326427 158.869448,26.6513701 158.869448,26.6513701 Z" id="Path-8" stroke="#979797"></path>
            <path d="M128.386868,3.40830768 C145.275533,6.30473441 170.113693,19.0586945 183.175085,27.3447995 C196.236478,35.6309046 224.47196,57.3506589 224.47196,57.3506589 C224.47196,57.3506589 255.108679,82.0928464 261.157507,84.6592527 C267.206335,87.2256589 284.507117,98.5186277 295.014929,102.629956 C305.522742,106.741284 343.276648,112.114331 343.276648,112.114331 C343.276648,112.114331 376.548132,111.811596 385.858679,111.811596 C395.169226,111.811596 414.466101,106.003003 428.740399,97.8437952 C443.014698,89.6845878 452.101959,84.0547882 459.483679,77.5030027 C466.865399,70.9512171 428.740399,111.811597 416.833288,117.629956 C404.926178,123.448314 387.13407,132.641675 368.180945,132.641675 C349.22782,132.641675 331.417273,134.253003 313.216101,130.596753 C295.014929,126.940503 263.847656,113.104004 258.615234,110.074219 C256.627211,108.923072 248.352359,104.170028 239.509766,97.8437958 C220.416599,84.1840244 192.990637,62.5057872 186.536413,56.7510495 C177.093054,48.3311277 145.604511,31.5703605 135.291165,27.3448004 C124.97782,23.1192403 89.9259385,17.5937971 72.3215697,22.4834714 C54.717201,27.3731457 48.5177354,32.9121565 39.7961791,37.7569089 C31.0746228,42.6016613 2.45352977,62.2911146 0.220007248,56.6865964 C-2.01351528,51.0820782 13.1127847,35.7957795 29.5246947,24.3936277 C45.9366048,12.9914758 64.8458604,3.19731249 80.4044542,0.978562572 C95.9630479,-1.24018734 112.211248,0.634168875 128.386868,3.40830768 Z" id="Path-5" stroke="#000000"></path>
            <path d="M244.038574,88.3344727 C244.038574,88.3344727 236.347656,94.0693359 238.435547,95.9394531 C240.523438,97.8095703 244.682617,101.497559 246.069824,100.844727 C247.457031,100.191895 253.125488,95.0834961 251.287598,93.3706055 C249.449707,91.6577148 244.038574,88.3344727 244.038574,88.3344727 Z" id="Path-9" stroke="#979797"></path>
            <path d="M253.095215,95.1689453 C253.095215,95.1689453 252.41748,95.5620118 251.421875,96.7753906 C250.42627,97.9887695 247.206055,102.07373 247.206055,102.07373 C247.206055,102.07373 253.375,107.226074 255.066406,107.226074 C256.757812,107.226074 262.271484,101.499024 261.145508,100.416992 C260.019531,99.3349608 253.095215,95.1689453 253.095215,95.1689453 Z" id="Path-10" stroke="#979797"></path>
            <path d="M226.993667,76.4301758 C226.993667,76.4301758 219.18457,81.3759766 221.272461,83.2460938 C223.360352,85.1162109 225.60646,88.1630859 226.993667,87.5102539 C228.380874,86.8574219 233.660156,81.8320312 231.822266,80.1191406 C229.984375,78.40625 226.993667,76.4301758 226.993667,76.4301758 Z" id="Path-9" stroke="#979797"></path>
            <path d="M233.88916,82 C233.88916,82 233.211426,82.3930664 232.21582,83.6064453 C231.220215,84.8198242 228,88.904785 228,88.904785 C228,88.904785 234.168945,94.0571289 235.860352,94.0571288 C237.551758,94.0571286 243.06543,88.3300783 241.939453,87.2480469 C240.813477,86.1660155 233.88916,82 233.88916,82 Z" id="Path-10" stroke="#979797"></path>
            <path d="M266.777832,103.460938 C266.777832,103.460938 263.890137,101.476074 262.894531,102.689453 C261.898926,103.902832 258.145996,109.222168 258.145996,109.222168 C258.145996,109.222168 262.105105,112.018555 263.796512,112.018554 C264.571167,112.018554 266.019321,110.727838 267.253393,109.224738 C268.71383,107.445926 269.874445,105.36967 269.26416,104.783203 C268.138184,103.701172 266.777832,103.460938 266.777832,103.460938 Z" id="Path-10" stroke="#979797"></path>
            <path d="M273.296387,106.95173 C273.296387,106.95173 271.841406,105.217588 270.8458,106.430967 C270.492658,106.861353 269.906185,107.484788 269.296336,108.186539 C268.186852,109.463216 267,110.999098 267,112.10333 C267,113.814524 269.154394,114.535947 270.8458,114.535947 C271.620456,114.535947 272.062315,113.606429 273.296387,112.10333 C274.756824,110.324517 274.85589,108.752785 274.245605,108.166318 C273.119629,107.084287 273.296387,106.95173 273.296387,106.95173 Z" id="Path-10" stroke="#979797"></path>
            <path d="M222.296021,73.8184212 C222.296021,73.8184212 220.301978,71.3648076 219.306373,72.5781865 C218.310767,73.7915653 214.659497,77.8384406 214.659497,77.8384406 C214.659497,77.8384406 217.614966,81.1348274 219.306372,81.1348273 C220.081028,81.1348272 220.524546,80.5602894 221.758618,79.0571902 C223.219056,77.2783774 224.762457,75.9332077 224.152173,75.3467412 C223.026196,74.2647098 222.296021,73.8184212 222.296021,73.8184212 Z" id="Path-10" stroke="#979797" transform="translate(219.474280, 76.688019) scale(-1, -1) translate(-219.474280, -76.688019) "></path>
            <path d="M215.404253,69.9517302 C215.404253,69.9517302 213.949272,68.2175878 212.953667,69.4309666 C212.600525,69.8613533 212.014051,70.4847885 211.404203,71.1865386 C210.294719,72.4632163 210,72.2661877 210,73.3704195 C210,75.0816134 211.262261,76.6995212 212.953667,76.6995211 C213.728322,76.699521 214.170181,76.6064293 215.404253,75.1033301 C216.864691,73.3245173 216.963757,71.7527847 216.353472,71.1663182 C215.227495,70.0842868 215.404253,69.9517302 215.404253,69.9517302 Z" id="Path-10" stroke="#979797" transform="translate(213.353271, 72.849761) scale(-1, -1) translate(-213.353271, -72.849761) "></path>
        </g>
    </g>
</svg>