<?xml version="1.0" encoding="UTF-8" standalone="no"?>
<svg width="136px" height="41px" viewBox="0 0 136 41" version="1.1" xmlns="http://www.w3.org/2000/svg" xmlns:xlink="http://www.w3.org/1999/xlink">
    <!-- Generator: Sketch 3.8.3 (29802) - http://www.bohemiancoding.com/sketch -->
    <title>Group 2</title>
    <desc>Created with Sketch.</desc>
    <defs></defs>
    <g id="Page-1" stroke="none" stroke-width="1" fill="none" fill-rule="evenodd" opacity="0.570079291">
        <g id="Group-2" transform="translate(-1.000000, 1.000000)">
            <g id="Group-3">
                <path d="M69,39 C106.003078,39 136,32.7319865 136,25 C136,17.2680135 106.003078,11 69,11 C31.9969218,11 2,17.2680135 2,25 C2,32.7319865 31.9969218,39 69,39 Z" id="Oval-3" stroke="#000000"></path>
                <g id="Group" transform="translate(2.000000, 6.000000)" fill="#C1AE82">
                    <path d="M67,29 C104.003078,29 134,22.7319865 134,15 C134,7.2680135 104.003078,1 67,1 C29.9969218,1 0,7.2680135 0,15 C0,22.7319865 29.9969218,29 67,29 Z" id="Oval-3"></path>
                    <path d="M67,30 C104.003078,30 134,23.7319865 134,16 C134,8.2680135 104.003078,2 67,2 C29.9969218,2 0,8.2680135 0,16 C0,23.7319865 29.9969218,30 67,30 Z" id="Oval-3"></path>
                    <path d="M67,31 C104.003078,31 134,24.7319865 134,17 C134,9.2680135 104.003078,3 67,3 C29.9969218,3 0,9.2680135 0,17 C0,24.7319865 29.9969218,31 67,31 Z" id="Oval-3"></path>
                    <path d="M67,32 C104.003078,32 134,25.7319865 134,18 C134,10.2680135 104.003078,4 67,4 C29.9969218,4 0,10.2680135 0,18 C0,25.7319865 29.9969218,32 67,32 Z" id="Oval-3"></path>
                    <path d="M67,33 C104.003078,33 134,26.7319865 134,19 C134,11.2680135 104.003078,5 67,5 C29.9969218,5 0,11.2680135 0,19 C0,26.7319865 29.9969218,33 67,33 Z" id="Oval-3"></path>
                    <path d="M67,28 C104.003078,28 134,21.7319865 134,14 C134,6.2680135 104.003078,0 67,0 C29.9969218,0 0,6.2680135 0,14 C0,21.7319865 29.9969218,28 67,28 Z" id="Oval-3" stroke="#F1D79D"></path>
                </g>
                <path d="M69,28 C106.003078,28 136,21.7319865 136,14 C136,6.2680135 106.003078,0 69,0 C31.9969218,0 2,6.2680135 2,14 C2,21.7319865 31.9969218,28 69,28 Z" id="Oval-3" stroke="#000000"></path>
                <path d="M1.75,25.5 L1.75,13.5" id="Line" stroke="#000000" stroke-width="0.5" stroke-linecap="round"></path>
                <path d="M136.25,25.5 L136.25,13.5" id="Line" stroke="#000000" stroke-width="0.5" stroke-linecap="square"></path>
            </g>
        </g>
    </g>
</svg>