<?xml version="1.0" encoding="UTF-8" standalone="no"?>
<svg width="76px" height="93px" viewBox="0 0 76 93" version="1.1" xmlns="http://www.w3.org/2000/svg" xmlns:xlink="http://www.w3.org/1999/xlink">
    <!-- Generator: Sketch 3.8.3 (29802) - http://www.bohemiancoding.com/sketch -->
    <title>Group 10</title>
    <desc>Created with Sketch.</desc>
    <defs></defs>
    <g id="Page-1" stroke="none" stroke-width="1" fill="none" fill-rule="evenodd">
        <g id="Group-10">
            <path d="M24.6024134,21.3401996 C24.6024134,19.7289663 25.2126919,17.9974985 24.6024134,16.5064999 C24.1298203,15.3518866 22.481837,15.129044 21.671875,14.1804703 C20.7427126,13.0922971 22.9359956,11.1665794 23.987353,11.4124731 C25.5600633,11.780302 27.1132337,12.3508537 28.4985303,13.1818146 C30.3094222,14.2680659 33.23672,18.9875559 36.5207689,16.3770717 C37.8712971,15.3035394 37.6013955,13.0878491 38.3549273,11.5352828 C38.6811848,10.8630664 39.1577407,10.2455439 39.7298113,9.76520591 C41.7502312,8.06876384 44.1658087,6.85843858 46.0832302,5.04622659 C47.9686097,3.26429845 47.2536404,0.691497056 50.167466,1.67962424 C50.7861835,1.88944173 51.492232,2.24588626 51.7392868,2.85109596 C52.0767504,3.67778003 51.8888299,4.64973549 51.7392868,5.53011134 C51.4491363,7.23825758 49.7277182,8.97636106 50.4298035,10.5601594 C51.0263731,11.9059301 55.8207476,11.1652529 54.6044245,11.993429 C52.2853908,13.572424 47.4483095,10.8077788 46.3029471,13.3700737 L45.394686,13.8944047 C44.3407092,16.2522604 63.2399666,24.4818116 51.5181002,21.9718971 C47.7160883,21.1578011 44.1621433,19.3836606 40.3595684,18.5722024 C38.8036232,18.2401683 37.1625382,18.3528129 35.5867884,18.5722024 C33.6759037,18.8382522 45.3453889,20.1684267 42.3318765,23.1919044 C39.2452321,26.288756 34.0860954,23.0654868 31.7803218,26.8945787 C31.2976939,27.6960566 32.0051857,29.180212 31.190246,29.6390435 C29.8430505,30.3975484 28.043683,29.4114777 26.5570854,29.8353919 C25.228293,30.2143067 23.9523068,30.9667179 23.0048731,31.9731623 C22.5834408,32.4208435 22.6249252,33.2243639 22.8167543,33.8086886 C23.2141758,35.0192619 24.1962042,35.9643444 24.6994121,37.1348447 C24.8971928,37.5948977 24.8530712,38.1258395 24.8875309,38.6254744 C24.9159002,39.0368029 25.2052868,39.5999501 24.8875309,39.8623956 C23.2789166,41.1910056 21.3672194,37.2344011 21.2941677,37.175291 C18.2598383,34.7200503 16.2814953,36.1832188 17.2260984,30.8509615 C17.4022484,29.8565997 19.452889,28.6406233 18.5767327,28.1395891 C14.9017713,26.0380451 12.6866822,35.2981343 7.69743967,34.7668981 C6.56731033,34.6465661 6.05806666,32.1953058 6.52684097,31.5150161 C7.22147983,30.5069497 8.67489749,30.2150002 9.40006188,29.2286975 C10.1752741,28.1743243 10.0687943,26.6179183 10.8814975,25.5922081 C11.6940663,24.5666675 21.1662955,21.2343038 22.6455368,21.2343038 L24.6024134,21.3401996 Z" id="Path-964" fill="#417505"></path>
            <path d="M8.83937964,36.1582506 C7.70135448,38.4769849 5.45568237,47.3949759 6.10577816,49.6842263 C6.76059385,51.9900974 9.13912107,53.4823501 10.0349629,55.7055763 C10.6649455,57.2690153 10.1893347,59.0909277 10.5589032,60.7356244 C11.5432155,65.1161262 16.0945351,67.2932045 18.7699954,70.3287497 C19.8778389,71.5856957 20.1919624,73.5573278 21.5778156,74.4983948 C23.5030779,75.8057488 26.2498905,75.4464687 28.1928373,76.7273532 C29.7085232,77.7265668 41.7903381,89.50102 44.9008741,87.7221265 C50.1252892,84.7343203 44.2076863,77.4342009 47.9137144,72.9908512 C61.7027461,56.4584641 42.6031476,83.5305817 52.5637763,61.4636576 C70.7143122,21.2526921 53.454166,71.343173 59.6292543,49.3547729 C60.2244347,47.2354406 63.4279672,45.9808208 64.5159344,44.8659698 C69.4842017,39.7749359 63.5687042,44.5409148 66.4808942,39.7535583 C70.3106515,33.4578107 70.4798382,37.241216 71.8349319,31.0612823 C72.9896993,25.7949409 71.1238349,27.695425 66.0054533,23.9824456 C59.360144,19.1618015 63.4346147,16.6694067 51.01694,14.6430288 C39.107944,12.6996597 39.3873122,17.8329049 27.2015393,23.8765498 C20.1224403,27.3874934 12.6044303,25.8202967 9.7799737,34.2977211 L8.83937964,36.1582506 Z" id="Path-965" fill="#B71616"></path>
            <path d="M45.4336324,88.4972245 C47.5864661,89.3164458 49.6247175,90.5500604 51.8921334,90.9548883 C54.5307816,91.4259968 57.2731048,91.424138 59.932008,91.0857873 C69.6082798,89.8544623 67.7733016,89.6075226 71.0479192,82.8119465 C76.8514907,70.7682162 74.1425147,74.5727003 74.2569616,58.1926556 C74.3029546,51.609976 78.5530658,35.0734719 72.6528079,30.8369892 C65.3701127,25.6078937 56.4433663,42.6987838 55.7640006,43.7489167 C49.5222892,53.3970734 40.0817554,74.6762738 44.8259205,86.5410947 L45.4336324,88.4972245 Z" id="Path-966" fill="#633B3B"></path>
            <path d="M53.1166251,88.8044413 C54.7244229,89.5346861 56.2466474,90.6343166 57.9400185,90.9951758 C59.9106366,91.4151167 61.9586821,91.4134599 63.9444271,91.1118577 C71.170944,90.0142681 69.8005297,89.7941487 72.2461079,83.7366468 C76.5803813,73.0009978 74.5572405,76.3922731 74.6427127,61.791281 C74.6770616,55.9235526 77.8511663,41.1830943 73.4446847,37.4067401 C68.0057594,32.7455817 61.3390096,47.9802136 60.8316398,48.9162906 C56.170151,57.5165517 49.1196901,76.4845974 52.6627684,87.0607686 L53.1166251,88.8044413 Z" id="Path-966" fill="#371F1F"></path>
            <path d="M56.565646,88.9706542 C57.9287683,89.6527603 59.2193399,90.6799016 60.6550129,91.0169725 C62.3257414,91.4092303 64.0621142,91.4076827 65.7456676,91.1259625 C71.8724494,90.1007276 70.7105855,89.8951188 72.7839944,84.2369358 C76.4586759,74.2089957 74.7434176,77.3767134 74.8158826,63.738239 C74.8450043,58.2573195 77.5360722,44.4885726 73.8001712,40.9611609 C69.1889443,36.6072726 63.5367438,50.8376164 63.1065859,51.7119859 C59.1544848,59.7453058 53.1769666,77.4629516 56.1808574,87.3419269 L56.565646,88.9706542 Z" id="Path-966" fill="#271919"></path>
            <g id="Straberry" fill="#000000">
                <path d="M47.0148879,0.910374312 C46.4727584,1.45349535 44.3816876,3.23803591 42.2906168,4.86739902 C40.276993,6.49676214 38.031028,8.97960117 37.3340044,10.2986094 C36.6369808,11.6952064 35.3203807,13.7901018 34.3135688,14.9539326 C32.5322862,17.048828 32.4548391,18.6006024 34.0812276,18.6006024 C34.54591,18.6006024 34.7008041,18.2902475 34.4684629,17.9798927 C33.9263334,17.048828 37.4114515,14.1004567 39.8123106,13.4797469 C40.8965695,13.2469808 42.2906168,12.3159161 42.9101933,11.4624402 C43.6072169,10.3761981 44.4591347,10.0658433 45.3884995,10.3761981 C46.3178643,10.7641417 46.0855231,10.2210207 44.6914759,8.90201245 C42.1357226,6.49676214 41.9808285,5.41052006 44.1493464,5.41052006 C45.0012641,5.41052006 45.5433936,5.10016518 45.3110524,4.7898103 C45.0787112,4.4018667 45.9306289,3.54839079 47.169782,2.85009231 C49.3382999,1.53108407 49.415747,1.53108407 49.8804294,3.16044719 C50.3451118,4.47945542 50.577453,4.63463286 51.1195825,3.78115695 C51.661712,2.92768103 51.8166061,3.00526975 51.8166061,4.0139231 C51.8166061,4.7898103 51.4293708,5.41052006 50.9646883,5.41052006 C50.577453,5.41052006 50.3451118,5.72087494 50.577453,6.10881854 C50.8872413,6.49676214 50.7323471,7.66059294 50.3451118,8.66924629 C49.8804294,9.60031093 49.5706411,9.91066581 49.5706411,9.28995605 C49.4931941,8.43648013 49.2608529,8.43648013 48.5638292,9.13477861 C47.7893586,9.91066581 47.7893586,10.2986094 48.7187234,10.8417304 C49.4931941,11.3072628 48.9510646,11.5400289 46.7825467,11.7727951 C44.9238171,11.9279725 43.684664,12.4710936 43.5297698,13.169392 C43.2199816,14.1004567 43.3748757,14.1004567 43.9170052,13.3245695 C44.3816876,12.5486823 46.1629701,12.3935048 50.8872413,12.7814484 C54.7595947,13.0142146 57.3153479,12.9366259 57.6251362,12.3935048 C57.9349244,11.9279725 57.2379008,11.6176176 56.0761948,11.6176176 C54.9144888,11.6176176 53.3655474,11.229674 52.5910768,10.8417304 C51.2744766,10.143432 51.2744766,9.83307709 52.2812885,7.8933591 C53.5978887,5.41052006 53.6753357,3.54839079 52.5910768,1.45349535 C51.661712,-0.253456485 48.5638292,-0.486222644 47.0148879,0.910374312 L47.0148879,0.910374312 Z M42.8327462,8.20371397 C43.4523228,9.91066581 43.4523228,10.2210207 42.522958,9.67789965 C42.1357226,9.44513349 41.9808285,9.67789965 42.2131697,10.2986094 C42.4455109,11.0744966 41.9033814,11.3848515 40.276993,11.4624402 L37.8761339,11.5400289 L39.4250752,9.83307709 C40.276993,8.97960117 40.9740166,7.97094782 40.9740166,7.58300422 C40.9740166,6.49676214 42.3680638,6.88470574 42.8327462,8.20371397 L42.8327462,8.20371397 Z" id="Fill-1"></path>
                <path d="M47.9442527,3.85874567 C46.9374408,4.47945542 47.0148879,4.63463286 48.1765939,4.63463286 C48.8736175,4.63463286 49.4931941,4.24668926 49.4931941,3.85874567 C49.4931941,2.92768103 49.415747,2.92768103 47.9442527,3.85874567 L47.9442527,3.85874567 Z" id="Fill-2"></path>
                <path d="M48.7187234,6.10881854 C48.7187234,6.57435086 49.0285117,7.1174719 49.4931941,7.35023806 C49.9578765,7.58300422 50.0353235,7.27264934 49.8029823,6.65193958 C49.2608529,5.25534262 48.7187234,5.02257646 48.7187234,6.10881854 L48.7187234,6.10881854 Z" id="Fill-4"></path>
                <path d="M44.84637,6.96229446 C44.84637,7.35023806 45.3884995,7.73818166 46.0855231,7.73818166 C46.7050996,7.73818166 47.0148879,7.35023806 46.7825467,6.96229446 C46.5502055,6.49676214 46.008076,6.18640726 45.5433936,6.18640726 C45.1561583,6.18640726 44.84637,6.49676214 44.84637,6.96229446 L44.84637,6.96229446 Z" id="Fill-5"></path>
                <path d="M21.7671438,10.9969079 C19.9858612,12.7814484 20.6828848,17.1264168 23.0062969,19.1437235 C24.7875794,20.6954979 24.9424736,21.0834415 23.9356617,21.7817399 C23.0062969,22.4800384 23.0062969,22.5576271 23.8582146,22.324861 C25.7169442,21.7817399 25.6394972,20.6179091 23.7033205,17.7471265 C22.3867203,15.7298198 21.999485,14.565989 22.4641674,13.3245695 C23.3160851,11.0744966 24.6326853,11.1520853 24.4003441,13.4797469 C24.24545,14.4108116 24.6326853,15.8849972 25.1748148,16.6608844 C26.1041796,17.9798927 26.3365208,17.9798927 28.1952504,16.7384732 C29.2795094,16.0401747 30.5186625,15.6522311 30.9058978,15.8849972 C31.3705802,16.1177634 31.6803685,16.1177634 31.6803685,15.7298198 C31.6803685,14.7211664 30.5961095,13.4797469 29.3569564,13.0142146 C28.7373799,12.7038597 26.9560973,12.0055612 25.407156,11.3072628 C23.3160851,10.4537868 22.3867203,10.3761981 21.7671438,10.9969079 L21.7671438,10.9969079 Z M27.0335444,13.5573356 C27.5756739,14.1780454 27.730568,14.7211664 27.3433327,14.7211664 C26.9560973,14.7211664 27.1884385,15.10911 27.8080151,15.4970536 C28.814827,16.1953521 28.814827,16.2729408 27.8080151,16.2729408 C26.1816267,16.2729408 25.0973677,15.3418762 25.0199206,13.7125131 C24.8650265,12.08315 25.7169442,12.0055612 27.0335444,13.5573356 L27.0335444,13.5573356 Z" id="Fill-8"></path>
                <path d="M44.7689229,14.7987552 C43.684664,15.4970536 43.8395581,15.5746424 47.169782,15.7298198 C48.331488,15.8074085 49.0285117,16.2729408 48.8736175,16.8936506 C48.7961704,17.5143604 49.0285117,17.7471265 49.4931941,17.4367716 C49.8804294,17.2040055 51.1195825,17.8247152 52.1263944,18.9109573 C53.1332062,19.9971994 54.2949123,20.928264 54.8370417,20.928264 C55.3017241,20.928264 55.6889595,21.3162076 55.6889595,21.7817399 C55.6889595,22.867982 50.0353235,22.0920948 49.6480882,20.928264 C49.4931941,20.5403204 48.7187234,20.1523768 47.9442527,20.1523768 C47.092335,20.1523768 46.1629701,19.5316671 45.6982877,18.8333686 C44.7689229,17.048828 37.1791103,16.7384732 36.5595337,18.3678363 C36.3271925,18.988546 36.5595337,19.9196107 37.0242161,20.385143 C37.7212398,21.0834415 37.8761339,21.0058527 37.4888986,19.9196107 C37.0242161,18.8333686 37.4114515,18.6006024 40.1220989,18.6006024 C41.9033814,18.6006024 43.2974286,18.9109573 43.2974286,19.3764896 C43.2974286,19.7644332 43.8395581,20.1523768 44.4591347,20.1523768 C45.7757348,20.1523768 48.7961704,21.7041512 49.5706411,22.7128046 C49.8029823,23.1007482 51.4293708,23.5662805 53.1332062,23.7990467 C55.9987478,24.1869903 56.308536,24.0318128 56.6183243,22.1696835 C56.9281126,20.6954979 56.6183243,20.0747881 55.5340653,19.7644332 C54.7595947,19.4540783 54.2949123,18.9109573 54.5272535,18.5230137 C55.3791712,17.2815942 59.3289717,17.7471265 61.1877013,19.3764896 C62.6591956,20.6179091 62.7366427,20.8506753 61.5749366,20.385143 C60.4132306,19.9971994 60.2583365,20.1523768 60.7230189,21.0058527 C61.6523837,22.4800384 61.6523837,25.0404662 60.7230189,25.7387647 C60.2583365,26.1267083 60.4906777,26.3594744 61.1877013,26.3594744 C61.8847249,26.3594744 62.6591956,25.8163534 62.9689839,25.1956436 C63.2013251,24.5749339 63.0464309,24.0318128 62.6591956,24.0318128 C62.1945132,24.0318128 61.8847249,23.6438692 61.8847249,23.2559256 C61.8847249,22.0920948 63.8983487,22.324861 64.9051605,23.5662805 C65.6021842,24.3421677 65.5247371,24.8077 64.6728193,25.5835872 C63.2787721,26.6698293 63.4336663,31.0147976 64.8277135,31.0147976 C65.9894195,31.0147976 66.0668666,30.083733 64.9051605,28.9199022 C64.285584,28.2991924 64.3630311,27.6008939 65.1375018,26.4370631 C66.3766548,24.4197564 67.6158079,24.7301113 67.9255962,27.1353616 C68.1579374,28.6095473 68.3902786,28.687136 69.0098551,27.8336601 C69.6294317,26.9801842 69.7068788,27.0577729 69.3196434,28.0664262 C68.854961,29.6957894 69.4745375,31.7906848 70.5587965,31.7906848 C70.9460318,31.7906848 71.0234789,31.4027412 70.7911377,31.0147976 C70.5587965,30.5492653 70.6362436,30.2389104 70.9460318,30.2389104 C71.3332672,30.2389104 72.1077379,31.4027412 72.6498673,32.7217494 C73.424338,34.6614674 73.8115733,34.9718223 74.0439145,33.8855802 C74.508597,32.1786284 71.7205025,27.5233052 67.9255962,23.7990467 C66.2992078,22.1696835 64.9826076,20.6954979 64.9826076,20.4627317 C64.9826076,17.2815942 48.254041,12.626271 44.7689229,14.7987552 L44.7689229,14.7987552 Z M54.9144888,17.2040055 C54.9144888,17.6695378 54.3723593,17.7471265 53.6753357,17.5143604 C52.9783121,17.2815942 52.1263944,17.048828 51.739159,17.048828 C51.3519237,17.048828 51.0421354,16.7384732 51.0421354,16.3505296 C51.0421354,16.0401747 51.8940532,15.8849972 52.9783121,16.1177634 C54.0625711,16.2729408 54.9144888,16.8160619 54.9144888,17.2040055 L54.9144888,17.2040055 Z" id="Fill-9"></path>
                <path d="M28.5824858,19.8420219 C28.5824858,20.4627317 29.1246152,20.928264 29.7441918,20.928264 C30.3637683,20.928264 30.9058978,21.2386189 30.9058978,21.7041512 C30.9058978,22.0920948 31.4480273,22.4800384 32.1450509,22.4800384 C34.1586746,22.4800384 32.9969686,19.9196107 30.7510037,19.2989009 C29.1246152,18.9109573 28.5824858,18.988546 28.5824858,19.8420219 L28.5824858,19.8420219 Z" id="Fill-10"></path>
                <path d="M39.4250752,20.8506753 C39.4250752,21.3162076 40.1220989,21.7041512 40.9740166,21.7041512 C43.762111,21.7041512 42.6778521,23.9542241 39.6574165,24.4197564 C35.0105924,25.1956436 34.0812276,25.8939421 37.1016632,26.204297 C38.5731575,26.3594744 39.8897577,26.1267083 40.0446518,25.6611759 C40.1995459,25.1956436 41.438699,24.8077 42.7552992,24.7301113 C44.1493464,24.7301113 44.7689229,24.4973451 44.3042405,24.264579 C43.762111,24.1094015 43.2974286,23.2559256 43.2974286,22.4024497 C43.2974286,21.6265625 42.9876404,20.928264 42.600405,20.928264 C42.2131697,20.928264 41.3612519,20.6954979 40.6642283,20.4627317 C39.9672047,20.2299655 39.4250752,20.385143 39.4250752,20.8506753 L39.4250752,20.8506753 Z" id="Fill-11"></path>
                <path d="M15.4164842,22.0920948 C15.4164842,22.7128046 14.9518018,23.2559256 14.4871194,23.3335143 C10.8471072,23.4886918 8.83348347,24.1869903 7.59433039,25.5059985 C5.8904949,27.290539 5.73560076,28.4543698 7.12964798,28.9199022 C8.98837761,29.5406119 6.81985971,30.5492653 3.41218873,30.5492653 C-0.537611729,30.626854 -1.23463534,31.6355074 2.25048271,32.2562171 C3.56708286,32.566572 4.57389474,32.8769269 4.57389474,33.0321043 C4.57389474,33.2648705 3.721977,34.7390561 2.63771805,36.446008 C0.314306017,40.0926778 1.24367083,41.1013312 4.34155354,38.3081373 C5.81304783,36.989129 6.20028317,36.2132418 5.50325956,35.9028869 C5.03857715,35.7477095 4.80623595,35.2045885 5.03857715,34.8166449 C5.27091835,34.3511126 5.96794196,34.6614674 6.51007144,35.4373546 C7.36198919,36.6011854 7.36198919,37.1443065 6.43262437,38.928847 C4.72878888,42.1875733 4.34155354,46.687719 5.34836542,50.4895663 C6.74241264,55.7655992 9.99518949,61.9726968 11.6215779,62.4382291 C12.6283898,62.748584 13.0156251,63.4468825 12.7832839,64.2227697 C12.0862603,66.3176651 13.4803075,67.6366733 16.5781903,67.9470282 C18.591814,68.1022057 20.2956495,68.8780929 22.0769321,70.6626334 C23.5484264,72.0592304 24.7101324,72.8351176 24.7101324,72.2919965 C24.7101324,71.7488755 24.322897,71.3609319 23.9356617,71.3609319 C23.4709793,71.3609319 22.7739557,70.507456 22.3867203,69.4212139 C21.6896967,67.5590846 20.2182024,67.0935523 16.1909549,67.3263185 C14.6420136,67.4039072 13.8675429,65.9297215 14.4096724,63.7572374 C14.7194606,62.3606404 14.4096724,61.8951081 12.3960486,61.1968096 C10.8471072,60.6536886 9.99518949,59.8002126 9.99518949,58.7915593 C9.99518949,57.0846075 8.60114227,54.1362361 7.36198919,53.3603489 C6.89730678,53.049994 6.51007144,50.4895663 6.51007144,47.3860175 C6.51007144,42.7306943 6.66496558,42.1099845 7.82667159,42.265162 C8.60114227,42.4203394 9.22071881,42.1875733 9.22071881,41.7996297 C9.22071881,41.3340973 9.53050708,41.1789199 9.91774242,41.4116861 C10.3049778,41.6444522 10.4598719,42.6531056 10.3049778,43.6617589 L9.91774242,45.3687108 L10.6922131,43.6617589 C11.2343426,42.4203394 11.8539191,42.0323958 12.860731,42.4203394 C14.022437,42.8858717 14.0998841,42.808283 13.0930722,41.7220409 C12.4734957,41.0237425 11.6215779,40.5582101 11.1568955,40.5582101 C9.91774242,40.7909763 9.84029535,37.2994839 11.0794484,35.9804757 C11.776472,35.3597659 12.3186015,34.1959351 12.3186015,33.5752254 C12.3186015,32.4889833 12.0088133,32.6441607 10.537319,33.963169 C8.291354,36.1356531 7.12964798,36.1356531 6.43262437,33.963169 C6.04538903,32.7217494 6.3551773,31.9458622 7.51688332,30.9372089 C8.44624813,30.2389104 8.91093054,29.4630232 8.67858934,29.1526683 C7.98156573,28.4543698 10.0726366,24.8077 11.2343426,24.8077 C11.8539191,24.8077 12.0862603,25.2732323 11.776472,26.1267083 C11.4666838,26.9801842 11.5441308,27.2129503 12.1637074,26.8250067 C12.7058369,26.5146518 13.0930722,25.8163534 13.0930722,25.1956436 C13.0930722,24.5749339 13.6352017,24.3421677 14.6420136,24.5749339 C15.5713784,24.8077 16.345849,24.4973451 16.6556373,23.7214579 C16.9654256,22.9455707 18.0496845,22.4800384 19.75352,22.4800384 C21.2250143,22.4800384 22.3867203,22.0920948 22.3867203,21.7041512 C22.3867203,21.2386189 20.837779,20.928264 18.9016023,20.928264 C16.345849,20.928264 15.4164842,21.2386189 15.4164842,22.0920948 L15.4164842,22.0920948 Z M8.67858934,38.928847 C8.44624813,40.1702665 7.98156573,41.1013312 7.59433039,41.1013312 C7.20709505,41.1013312 7.12964798,40.5582101 7.28454212,39.9375004 C7.51688332,39.3167906 7.82667159,38.2305485 8.0590128,37.5322501 C8.67858934,35.5149433 9.14327174,36.6011854 8.67858934,38.928847 L8.67858934,38.928847 Z" id="Fill-12"></path>
                <path d="M57.7800303,23.2559256 C57.470242,24.5749339 57.6251362,24.6525226 58.8642893,23.9542241 C59.716207,23.5662805 60.1808894,22.867982 59.9485482,22.4024497 C59.1740775,21.2386189 58.2447127,21.6265625 57.7800303,23.2559256 L57.7800303,23.2559256 Z" id="Fill-13"></path>
                <path d="M27.0335444,23.2559256 C27.0335444,23.6438692 27.4207797,24.0318128 27.8080151,24.0318128 C28.2726975,24.0318128 28.5824858,23.6438692 28.5824858,23.2559256 C28.5824858,22.7903933 28.2726975,22.4800384 27.8080151,22.4800384 C27.4207797,22.4800384 27.0335444,22.7903933 27.0335444,23.2559256 L27.0335444,23.2559256 Z" id="Fill-14"></path>
                <path d="M34.7782512,23.2559256 C34.7782512,23.6438692 35.1654865,24.0318128 35.6301689,24.0318128 C36.0174043,24.0318128 36.1722984,23.6438692 35.9399572,23.2559256 C35.707616,22.7903933 35.3203807,22.4800384 35.0880395,22.4800384 C34.9331453,22.4800384 34.7782512,22.7903933 34.7782512,23.2559256 L34.7782512,23.2559256 Z" id="Fill-15"></path>
                <path d="M18.7467081,23.7990467 C18.2045787,23.9542241 17.7398963,24.7301113 17.7398963,25.4284098 C17.7398963,26.5922406 17.8947904,26.5922406 18.5143669,25.5835872 C19.0564964,24.6525226 19.4437318,24.6525226 20.2182024,25.4284098 C21.4573555,26.6698293 22.3867203,26.5922406 22.3867203,25.2732323 C22.3867203,24.6525226 22.8514027,23.9542241 23.3935322,23.7990467 C23.8582146,23.5662805 23.3160851,23.4111031 21.999485,23.4111031 C20.7603319,23.4111031 19.2113906,23.5662805 18.7467081,23.7990467 L18.7467081,23.7990467 Z" id="Fill-16"></path>
                <path d="M27.8080151,24.8077 L24.322897,25.3508211 L27.5756739,25.4284098 C29.3569564,25.5059985 31.0607919,25.1956436 31.2931331,24.8077 C31.5254743,24.3421677 31.6803685,24.1094015 31.5254743,24.1869903 C31.3705802,24.1869903 29.7441918,24.4973451 27.8080151,24.8077 L27.8080151,24.8077 Z" id="Fill-17"></path>
                <path d="M47.7893586,24.5749339 C48.254041,24.7301113 49.1834058,24.7301113 49.7255353,24.5749339 C50.1902177,24.3421677 49.8029823,24.1869903 48.7187234,24.1869903 C47.6344644,24.1869903 47.2472291,24.3421677 47.7893586,24.5749339 L47.7893586,24.5749339 Z" id="Fill-18"></path>
                <path d="M31.6803685,25.9715308 C31.2156861,26.5146518 29.5118506,27.1353616 27.9629092,27.290539 L25.0973677,27.5233052 L28.4275916,27.9112488 C30.9058978,28.2216037 32.0676038,27.9888375 32.9195216,27.0577729 C33.6165452,26.2818857 33.7714393,25.5059985 33.384204,25.2732323 C32.9969686,25.0404662 32.2224979,25.3508211 31.6803685,25.9715308 L31.6803685,25.9715308 Z" id="Fill-19"></path>
                <path d="M49.9578765,26.0491195 C48.331488,27.6008939 48.4089351,27.8336601 50.2676647,27.3681278 C51.1195825,27.1353616 52.2812885,27.3681278 52.900865,27.8336601 C53.5978887,28.3767811 54.2174652,28.4543698 54.4498064,28.0664262 C54.6821476,27.6008939 54.0625711,26.747418 52.9783121,26.0491195 C51.2744766,24.9628775 51.0421354,24.9628775 49.9578765,26.0491195 L49.9578765,26.0491195 Z" id="Fill-20"></path>
                <path d="M13.8675429,27.0577729 C13.8675429,27.4457165 14.5645665,27.9112488 15.4939313,28.144015 C16.4232961,28.3767811 16.8879785,28.9199022 16.5781903,29.4630232 C16.268402,30.0061442 16.6556373,30.0061442 17.6624492,29.3078458 C19.676073,28.0664262 19.75352,27.1353616 17.8173433,27.6784826 C17.0428727,27.9112488 16.1135078,27.6784826 15.8811666,27.2129503 C15.184143,26.204297 13.8675429,26.0491195 13.8675429,27.0577729 L13.8675429,27.0577729 Z" id="Fill-21"></path>
                <path d="M43.9170052,26.9025954 C44.3816876,27.0577729 45.3110524,27.0577729 45.8531819,26.9025954 C46.3178643,26.6698293 45.9306289,26.5146518 44.84637,26.5146518 C43.762111,26.5146518 43.3748757,26.6698293 43.9170052,26.9025954 L43.9170052,26.9025954 Z" id="Fill-22"></path>
                <path d="M37.7212398,27.6784826 C38.1859222,27.8336601 39.115287,27.8336601 39.6574165,27.6784826 C40.1220989,27.4457165 39.7348635,27.290539 38.6506046,27.290539 C37.5663456,27.290539 37.1791103,27.4457165 37.7212398,27.6784826 L37.7212398,27.6784826 Z" id="Fill-23"></path>
                <path d="M65.7570783,27.9112488 C65.7570783,28.2991924 66.1443136,28.687136 66.531549,28.687136 C66.9962314,28.687136 67.3060196,28.2991924 67.3060196,27.9112488 C67.3060196,27.4457165 66.9962314,27.1353616 66.531549,27.1353616 C66.1443136,27.1353616 65.7570783,27.4457165 65.7570783,27.9112488 L65.7570783,27.9112488 Z" id="Fill-24"></path>
                <path d="M21.4573555,29.3078458 C19.2888376,30.626854 18.6692611,31.7906848 20.0633083,31.7906848 C20.5279907,31.7906848 20.837779,31.4027412 20.837779,30.9372089 C20.837779,30.5492653 21.1475673,30.3164991 21.5348026,30.626854 C21.999485,30.8596202 22.6965086,30.3164991 23.161191,29.4630232 C24.1680029,27.6008939 24.0905558,27.6008939 21.4573555,29.3078458 L21.4573555,29.3078458 Z" id="Fill-25"></path>
                <path d="M42.1357226,28.6095473 C41.6710402,29.3854345 43.5297698,30.2389104 46.3953113,30.626854 C47.4795703,30.7820314 48.7187234,31.0147976 49.1059587,31.0923863 C49.5706411,31.169975 50.7323471,30.8596202 51.8166061,30.3940878 C53.5978887,29.6182006 53.4429945,29.5406119 50.1127706,29.5406119 C48.0991468,29.4630232 45.6208407,29.1526683 44.5365817,28.687136 C43.4523228,28.2991924 42.3680638,28.2991924 42.1357226,28.6095473 L42.1357226,28.6095473 Z" id="Fill-26"></path>
                <path d="M59.6387599,29.1526683 C60.1034423,29.7733781 61.0328072,30.2389104 61.6523837,30.2389104 C63.2013251,30.2389104 62.2719602,28.9974909 60.3357835,28.4543698 C59.0191834,28.144015 58.8642893,28.2216037 59.6387599,29.1526683 L59.6387599,29.1526683 Z" id="Fill-27"></path>
                <path d="M11.5441308,29.7733781 C11.5441308,30.3940878 11.9313662,31.169975 12.4734957,31.4803299 C13.0156251,31.7906848 13.0930722,31.7130961 12.7832839,31.169975 C12.4734957,30.626854 12.7058369,30.2389104 13.4028605,30.2389104 C14.0998841,30.2389104 14.6420136,29.8509668 14.6420136,29.4630232 C14.6420136,28.9974909 13.9449899,28.687136 13.0930722,28.687136 C12.2411545,28.687136 11.5441308,29.1526683 11.5441308,29.7733781 L11.5441308,29.7733781 Z" id="Fill-28"></path>
                <path d="M25.2522618,29.9285555 C26.6463091,30.5492653 25.5620501,32.566572 24.1680029,32.023451 C23.161191,31.6355074 23.0062969,31.8682735 23.4709793,33.4200479 C23.7033205,34.4287013 24.1680029,36.2132418 24.4003441,37.3770726 C24.8650265,39.2392019 27.3433327,41.0237425 28.1952504,40.1702665 C28.892274,39.5495568 27.5756739,36.446008 26.6463091,36.446008 C25.0199206,36.446008 24.4777912,33.8855802 25.7943913,32.8769269 C26.4914149,32.4113946 27.0335444,31.6355074 27.0335444,31.0923863 C27.0335444,30.626854 27.8854621,30.2389104 28.9697211,30.2389104 C30.9833449,30.2389104 30.9833449,30.3164991 30.5961095,35.049411 L30.2088742,39.9375004 L30.9833449,35.8252982 C32.0676038,30.2389104 31.6803685,29.4630232 27.6531209,29.5406119 C25.7943913,29.5406119 24.7101324,29.7733781 25.2522618,29.9285555 L25.2522618,29.9285555 Z" id="Fill-29"></path>
                <path d="M54.5272535,30.2389104 C53.985124,31.169975 54.6821476,31.169975 56.8506655,30.2389104 C58.3221598,29.6182006 58.3221598,29.5406119 56.6957714,29.5406119 C55.7664065,29.4630232 54.7595947,29.7733781 54.5272535,30.2389104 L54.5272535,30.2389104 Z" id="Fill-30"></path>
                <path d="M39.0378399,33.3424592 C39.0378399,35.049411 39.4250752,36.446008 39.8123106,36.446008 C40.276993,36.446008 40.5093342,35.1269997 40.3544401,33.3424592 C40.1995459,31.6355074 39.8123106,30.2389104 39.5025223,30.2389104 C39.2701811,30.2389104 39.0378399,31.6355074 39.0378399,33.3424592 L39.0378399,33.3424592 Z" id="Fill-31"></path>
                <path d="M61.8847249,32.023451 C61.8847249,33.4976366 60.7230189,33.8079915 59.9485482,32.566572 C59.716207,32.1010397 59.0191834,31.7906848 58.554501,31.7906848 C58.0123715,31.7906848 58.4770539,32.4889833 59.4838658,33.2648705 C60.4906777,34.0407577 61.1102542,35.049411 60.800466,35.5925321 C60.4906777,36.0580644 60.7230189,36.446008 61.3425954,36.446008 C61.962172,36.446008 62.9689839,37.2218952 63.6660075,38.1529598 C64.5953723,39.6271455 65.0600547,39.7823229 65.8345254,38.928847 C66.531549,38.2305485 66.608996,37.9977824 65.9119724,37.9977824 C64.8277135,37.9977824 61.8847249,35.5925321 61.8847249,34.6614674 C61.8847249,34.2735238 62.4268544,34.1183464 63.0464309,34.4287013 C64.0532428,34.8166449 64.1306899,34.5838787 63.3562192,33.109693 C62.1170661,30.7044427 61.8847249,30.5492653 61.8847249,32.023451 L61.8847249,32.023451 Z" id="Fill-32"></path>
                <path d="M66.7638902,31.5579186 C66.2217607,31.7130961 65.7570783,32.2562171 65.7570783,32.7217494 C65.7570783,33.1872818 66.2992078,33.2648705 66.9962314,33.0321043 C68.0030433,32.6441607 68.1579374,32.8769269 67.8481491,34.1183464 C67.6158079,34.9718223 67.7707021,35.5149433 68.1579374,35.2045885 C69.0098551,34.7390561 69.0873022,31.0147976 68.3128315,31.0923863 C67.9255962,31.0923863 67.2285726,31.3251525 66.7638902,31.5579186 L66.7638902,31.5579186 Z" id="Fill-33"></path>
                <path d="M8.44624813,32.566572 C7.82667159,32.9545156 7.51688332,33.4976366 7.74922452,33.7304028 C8.0590128,33.963169 8.67858934,33.6528141 9.22071881,32.9545156 C10.3049778,31.6355074 10.0726366,31.4803299 8.44624813,32.566572 L8.44624813,32.566572 Z" id="Fill-34"></path>
                <path d="M35.4752748,31.9458622 C35.3978277,32.1010397 35.3203807,33.109693 35.2429336,34.2735238 C35.0105924,37.2218952 36.0948513,37.0667177 36.4820867,34.1183464 C36.7144279,32.7993382 36.5595337,31.7906848 36.1722984,31.7906848 C35.8625101,31.7906848 35.4752748,31.8682735 35.4752748,31.9458622 L35.4752748,31.9458622 Z" id="Fill-35"></path>
                <path d="M43.2974286,32.7217494 C43.2974286,33.7304028 43.9170052,34.1183464 45.5433936,34.1183464 C48.0991468,34.1183464 49.4931941,35.5149433 47.9442527,36.446008 C46.7825467,37.1443065 47.7119115,40.5582101 48.9510646,40.0926778 C49.4931941,39.9375004 50.1902177,39.0840245 50.6549001,38.1529598 C51.5842649,36.0580644 52.900865,36.3684193 53.2106533,38.6960809 C53.3655474,39.7823229 53.2106533,40.325444 52.7459709,40.0150891 C52.2812885,39.7047342 52.1263944,40.2478553 52.4361826,41.2565086 C52.823418,42.7306943 52.9783121,42.808283 53.2106533,41.6444522 C53.5978887,39.6271455 54.6821476,40.0150891 55.3017241,42.4203394 C55.6115124,43.6617589 55.9987478,44.20488 56.231089,43.7393476 C56.8506655,41.9548071 53.8302299,36.5235967 51.661712,35.5925321 C50.4225589,35.1269997 49.4931941,34.2735238 49.4931941,33.7304028 C49.4931941,33.1872818 48.4863822,32.8769269 47.0148879,32.9545156 C45.6208407,33.0321043 44.2267935,32.7217494 43.9170052,32.2562171 C43.5297698,31.7130961 43.2974286,31.9458622 43.2974286,32.7217494 L43.2974286,32.7217494 Z M50.2676647,36.989129 C50.2676647,37.3770726 49.9578765,38.0753711 49.5706411,38.6184921 C49.0285117,39.4719681 48.8736175,39.4719681 48.4863822,38.5409034 C48.254041,37.9201937 48.254041,37.1443065 48.4863822,36.9115403 C49.1834058,36.2908305 50.2676647,36.3684193 50.2676647,36.989129 L50.2676647,36.989129 Z" id="Fill-36"></path>
                <path d="M37.2565573,34.8942336 C37.2565573,35.9804757 37.4114515,36.3684193 37.6437927,35.8252982 C37.7986868,35.3597659 37.7986868,34.4287013 37.6437927,33.8855802 C37.4114515,33.4200479 37.2565573,33.8079915 37.2565573,34.8942336 L37.2565573,34.8942336 Z" id="Fill-38"></path>
                <path d="M54.6047005,34.0407577 C54.2949123,34.4287013 54.8370417,34.9718223 55.6889595,35.2821772 C56.8506655,35.6701208 57.1604538,36.2132418 56.8506655,37.2994839 C56.5408772,38.1529598 56.6957714,38.7736696 57.1604538,38.7736696 C57.6251362,38.7736696 58.0123715,38.3081373 58.0123715,37.6874275 C58.0123715,37.0667177 58.3996069,36.446008 58.7868422,36.2908305 C59.2515246,36.1356531 58.554501,35.4373546 57.3153479,34.6614674 C55.9987478,33.8855802 54.8370417,33.6528141 54.6047005,34.0407577 L54.6047005,34.0407577 Z" id="Fill-39"></path>
                <path d="M70.4039024,34.0407577 C70.4039024,34.4287013 70.8685848,35.2821772 71.4107142,35.8252982 C71.9528437,36.3684193 72.8822085,38.4633147 73.3468909,40.4030327 C73.8115733,42.4203394 74.508597,44.6704123 74.8183852,45.4462995 C75.2830676,46.687719 75.2056206,46.7653077 74.1213616,45.9118318 C73.0371027,45.0583559 72.8047615,45.1359446 72.3400791,46.4549528 C72.1077379,47.3860175 71.3332672,48.084316 70.7136906,48.084316 C70.0941141,48.084316 69.6294317,48.7050257 69.7068788,49.4033242 C69.7068788,50.2568001 69.93922,50.4119776 70.1715612,49.7912678 C70.3264553,49.3257355 71.0234789,48.8602032 71.6430554,48.8602032 C72.262632,48.8602032 72.4949732,49.3257355 72.1851849,50.1016227 C71.8753966,51.0326873 72.0302908,51.2654535 72.8047615,51.0326873 C73.424338,50.7999212 73.8115733,49.7912678 73.7341263,48.7826144 C73.5792321,47.1532513 73.6566792,47.0756626 74.3537028,48.2394934 C75.9026442,50.9550986 76.2124324,49.5585016 75.5154088,43.0410492 C74.9732794,38.1529598 74.508597,36.446008 73.6566792,36.446008 C73.1145497,36.446008 72.4175261,35.7477095 72.1851849,34.8942336 C71.7979496,33.3424592 70.4039024,32.7217494 70.4039024,34.0407577 L70.4039024,34.0407577 Z" id="Fill-40"></path>
                <path d="M33.2293098,35.8252982 C33.2293098,36.5235967 32.9969686,37.6098388 32.7646274,38.3081373 C32.4548391,39.1616132 32.6871804,39.5495568 33.5390981,39.5495568 C34.9331453,39.5495568 35.1654865,37.4546613 34.0037805,35.6701208 C33.384204,34.6614674 33.2293098,34.6614674 33.2293098,35.8252982 L33.2293098,35.8252982 Z" id="Fill-41"></path>
                <path d="M45.3110524,36.1356531 C45.0787112,36.8339516 44.84637,37.9977824 44.84637,38.8512583 C44.84637,39.6271455 44.4591347,40.325444 43.9944522,40.325444 C43.5297698,40.325444 43.762111,40.868565 44.3816876,41.5668635 C45.0787112,42.1875733 45.6208407,43.1186379 45.6208407,43.5065815 C45.6208407,43.9721138 46.008076,44.0497025 46.3953113,43.8169364 C46.9374408,43.5065815 46.9374408,42.808283 46.3953113,41.9548071 C46.008076,41.1789199 45.8531819,39.2392019 46.1629701,37.6874275 C46.6276526,34.8166449 46.1629701,33.963169 45.3110524,36.1356531 L45.3110524,36.1356531 Z" id="Fill-42"></path>
                <path d="M17.0428727,37.5322501 C17.5850021,38.6960809 18.2045787,39.3167906 18.3594728,38.7736696 C18.591814,38.2305485 18.1271316,37.2994839 17.3526609,36.6011854 C16.1909549,35.3597659 16.1135078,35.4373546 17.0428727,37.5322501 L17.0428727,37.5322501 Z" id="Fill-43"></path>
                <path d="M12.3186015,37.7650162 C12.3186015,38.928847 12.1637074,39.0064357 11.5441308,37.9977824 C10.9245543,36.989129 10.7696602,37.0667177 10.7696602,38.1529598 C10.7696602,38.928847 11.3117896,39.5495568 11.9313662,39.5495568 C12.5509427,39.5495568 13.0930722,38.8512583 13.0930722,37.9977824 C13.0930722,37.1443065 12.9381781,36.446008 12.7058369,36.446008 C12.4734957,36.446008 12.3186015,37.0667177 12.3186015,37.7650162 L12.3186015,37.7650162 Z" id="Fill-44"></path>
                <path d="M14.4096724,38.3081373 C13.7900958,40.5582101 14.8743548,42.265162 16.345849,41.4116861 C16.6556373,41.1789199 16.9654256,41.4116861 16.9654256,41.9548071 C16.9654256,42.4979281 17.1203197,42.7306943 17.3526609,42.4979281 C17.5850021,42.265162 17.430108,41.2565086 17.0428727,40.2478553 C16.345849,38.5409034 16.268402,38.5409034 16.1135078,39.9375004 C16.0360608,40.7909763 15.7262725,40.2478553 15.4939313,38.7736696 L14.9518018,36.0580644 L14.4096724,38.3081373 Z" id="Fill-45"></path>
                <path d="M67.0736784,36.989129 C68.3128315,37.9201937 67.4609138,41.3340973 66.0668666,40.7909763 C65.5247371,40.5582101 64.8277135,40.7133876 64.5953723,41.1013312 C64.285584,41.5668635 64.9826076,41.8772184 66.0668666,41.8772184 C67.1511255,41.8772184 68.0804903,42.3427507 68.0804903,42.808283 C68.0804903,43.5065815 68.3128315,43.5065815 68.7000669,42.9634604 C69.0098551,42.4979281 69.93922,41.8772184 70.7911377,41.5668635 C71.7979496,41.1013312 72.0302908,40.7909763 71.3332672,40.5582101 C70.7911377,40.325444 69.8617729,40.6357989 69.2421963,41.1013312 C68.3128315,41.8772184 68.0804903,41.7996297 68.0804903,40.4030327 C68.0804903,39.3167906 68.5451727,38.7736696 69.6294317,38.7736696 C70.4813494,38.7736696 71.178373,38.385726 71.178373,37.9977824 C71.178373,37.5322501 70.7136906,37.2218952 70.0941141,37.2218952 C69.4745375,37.2218952 68.3128315,36.989129 67.5383609,36.7563629 C66.608996,36.446008 66.4541019,36.5235967 67.0736784,36.989129 L67.0736784,36.989129 Z" id="Fill-46"></path>
                <path d="M39.4250752,37.9977824 C39.4250752,38.928847 42.2906168,39.7823229 43.2974286,39.1616132 C43.684664,38.928847 44.0718993,38.2305485 43.9944522,37.7650162 C43.9944522,37.0667177 43.8395581,37.0667177 43.6072169,37.7650162 C43.2974286,38.385726 42.600405,38.4633147 41.2838049,37.9977824 C40.1995459,37.5322501 39.4250752,37.5322501 39.4250752,37.9977824 L39.4250752,37.9977824 Z" id="Fill-47"></path>
                <path d="M19.2888376,38.928847 C19.2888376,39.6271455 19.0564964,40.7133876 18.8241552,41.4116861 C18.591814,42.1099845 18.6692611,42.6531056 19.1339435,42.6531056 C20.2182024,42.6531056 20.915226,39.3167906 20.0633083,38.4633147 C19.5211788,37.9201937 19.2888376,38.1529598 19.2888376,38.928847 L19.2888376,38.928847 Z" id="Fill-48"></path>
                <path d="M36.7918749,39.2392019 C36.4046396,40.325444 36.4820867,40.4030327 37.4888986,39.5495568 C38.8054987,38.4633147 38.9603928,37.9977824 37.953581,37.9977824 C37.5663456,37.9977824 37.0242161,38.5409034 36.7918749,39.2392019 L36.7918749,39.2392019 Z" id="Fill-49"></path>
                <path d="M61.5749366,39.2392019 C61.0328072,40.7133876 62.1945132,43.1962266 62.9689839,42.0323958 C63.2013251,41.5668635 63.123878,41.0237425 62.7366427,40.7133876 C62.2719602,40.4806214 62.1170661,39.7823229 62.4268544,39.1616132 C62.6591956,38.5409034 62.6591956,37.9977824 62.4268544,37.9977824 C62.1945132,37.9977824 61.8072778,38.5409034 61.5749366,39.2392019 L61.5749366,39.2392019 Z" id="Fill-50"></path>
                <path d="M21.6122497,40.7133876 C21.6122497,41.3340973 21.9220379,41.8772184 22.3867203,41.8772184 C22.7739557,41.8772184 22.9288498,41.3340973 22.6965086,40.7133876 C22.3867203,40.0926778 22.0769321,39.5495568 21.9220379,39.5495568 C21.7671438,39.5495568 21.6122497,40.0926778 21.6122497,40.7133876 L21.6122497,40.7133876 Z" id="Fill-51"></path>
                <path d="M34.2361217,41.7996297 C33.461651,43.0410492 33.5390981,43.1962266 34.7782512,42.8858717 C35.6301689,42.6531056 36.0174043,42.0323958 35.7850631,41.4116861 C35.2429336,40.0150891 35.3203807,40.0150891 34.2361217,41.7996297 L34.2361217,41.7996297 Z" id="Fill-52"></path>
                <path d="M38.1084751,41.1789199 C37.0242161,42.265162 38.5731575,46.5325416 39.9672047,46.5325416 C40.5093342,46.5325416 40.9740166,46.8428964 40.9740166,47.23084 C40.9740166,47.6187836 41.5935931,47.8515498 42.3680638,47.6963724 C44.3042405,47.3860175 43.8395581,43.7393476 41.5935931,41.8772184 C39.5025223,40.0926778 39.192734,40.0926778 38.1084751,41.1789199 L38.1084751,41.1789199 Z M42.1357226,44.2824687 C42.8327462,46.5325416 41.8259343,47.23084 40.5093342,45.4462995 C39.115287,43.5065815 39.115287,42.6531056 40.5093342,42.6531056 C41.1289107,42.6531056 41.9033814,43.351404 42.1357226,44.2824687 L42.1357226,44.2824687 Z" id="Fill-53"></path>
                <path d="M58.554501,41.4892748 C58.2447127,42.1099845 58.3996069,42.808283 58.7868422,43.0410492 C59.2515246,43.351404 59.5613129,42.808283 59.5613129,41.9548071 C59.5613129,40.0150891 59.0966305,39.8599117 58.554501,41.4892748 L58.554501,41.4892748 Z" id="Fill-54"></path>
                <path d="M29.5118506,41.7996297 C28.6599328,42.265162 28.814827,42.4979281 29.976533,42.808283 C31.138239,43.1186379 31.4480273,42.9634604 31.138239,42.1875733 C30.6735566,40.9461537 30.8284507,40.9461537 29.5118506,41.7996297 L29.5118506,41.7996297 Z" id="Fill-55"></path>
                <path d="M47.5570174,41.8772184 C47.3246762,42.265162 47.4795703,42.6531056 47.8668056,42.6531056 C48.331488,42.6531056 48.7187234,42.265162 48.7187234,41.8772184 C48.7187234,41.4116861 48.5638292,41.1013312 48.4089351,41.1013312 C48.1765939,41.1013312 47.7893586,41.4116861 47.5570174,41.8772184 L47.5570174,41.8772184 Z" id="Fill-56"></path>
                <path d="M50.2676647,42.4203394 C50.2676647,43.4289928 50.6549001,44.20488 51.0421354,44.20488 C52.0489473,44.20488 52.0489473,43.351404 51.0421354,41.8772184 C50.4225589,40.9461537 50.2676647,41.0237425 50.2676647,42.4203394 L50.2676647,42.4203394 Z" id="Fill-57"></path>
                <path d="M71.9528437,43.4289928 C71.9528437,43.8169364 72.3400791,44.20488 72.7273144,44.20488 C73.1919968,44.20488 73.5017851,43.8169364 73.5017851,43.4289928 C73.5017851,42.9634604 73.1919968,42.6531056 72.7273144,42.6531056 C72.3400791,42.6531056 71.9528437,42.9634604 71.9528437,43.4289928 L71.9528437,43.4289928 Z" id="Fill-59"></path>
                <path d="M18.5143669,44.20488 C18.5143669,44.5928236 19.0564964,44.9807672 19.676073,44.9807672 C20.3730966,44.9807672 20.837779,45.6790656 20.837779,46.9204852 C20.837779,48.0067272 21.0701202,48.8602032 21.4573555,48.8602032 C22.3092733,48.8602032 22.1543791,44.6704123 21.2250143,44.0497025 C20.0633083,43.1962266 18.5143669,43.2738153 18.5143669,44.20488 L18.5143669,44.20488 Z" id="Fill-60"></path>
                <path d="M47.7893586,44.3600574 C47.4795703,45.1359446 47.4021232,46.2997754 47.6344644,46.9204852 C47.9442527,47.6187836 47.6344644,48.084316 47.0148879,48.084316 C46.3953113,48.084316 45.8531819,48.627437 45.8531819,49.2481468 C45.8531819,50.7223324 46.2404172,50.7223324 47.6344644,49.2481468 C48.331488,48.5498483 48.7187234,47.0756626 48.5638292,45.6014769 C48.4089351,43.6617589 48.1765939,43.351404 47.7893586,44.3600574 L47.7893586,44.3600574 Z" id="Fill-61"></path>
                <path d="M70.1715612,43.8945251 C69.8617729,44.20488 69.6294317,44.9807672 69.6294317,45.6790656 C69.6294317,46.5325416 69.8617729,46.6101303 70.4813494,45.9894205 C70.9460318,45.5238882 71.2558201,44.748001 71.0234789,44.20488 C70.8685848,43.7393476 70.4813494,43.5841702 70.1715612,43.8945251 L70.1715612,43.8945251 Z" id="Fill-62"></path>
                <path d="M24.0905558,44.9031784 C23.0837439,45.5238882 23.2386381,48.2394934 24.322897,49.0153806 C25.7943913,50.1016227 26.2590737,49.6360904 25.3297089,48.084316 C24.7875794,47.3084288 24.7101324,46.2997754 25.0199206,45.9894205 C25.407156,45.6790656 25.8718384,45.8342431 26.0267325,46.2997754 C26.4139679,47.3860175 27.8080151,47.6963724 27.8080151,46.687719 C27.8080151,45.7566544 25.0199206,44.2824687 24.0905558,44.9031784 L24.0905558,44.9031784 Z" id="Fill-63"></path>
                <path d="M31.4480273,44.748001 C30.2863212,45.8342431 30.9833449,48.9377919 32.4548391,49.4809129 C33.8488864,50.024034 33.9263334,50.1792114 32.8420745,52.2741068 C32.2224979,53.4379376 31.8352626,54.7569459 32.0676038,55.0673007 C32.299945,55.4552443 31.9901567,55.8431879 31.5254743,56.0759541 C30.9833449,56.2311315 30.7510037,56.6966639 31.0607919,57.0070187 C31.3705802,57.3173736 32.6871804,56.6190751 34.0037805,55.3776556 C36.5595337,52.8948166 37.3340044,50.8775099 34.7782512,53.1275827 C32.7646274,54.9121233 32.8420745,54.0586474 34.9331453,50.3343888 C35.7850631,48.7050257 36.9467691,47.6187836 37.3340044,47.8515498 C37.7986868,48.084316 37.4888986,47.4636062 36.6369808,46.3773641 C34.8556982,43.9721138 33.7714393,44.2824687 34.4684629,46.9980739 C34.8556982,48.3946708 34.623357,48.8602032 33.7714393,48.8602032 C32.1450509,48.8602032 31.2931331,47.3860175 32.3773921,46.2997754 C32.8420745,45.8342431 33.2293098,45.1359446 33.2293098,44.8255897 C33.2293098,44.0497025 32.1450509,43.9721138 31.4480273,44.748001 L31.4480273,44.748001 Z" id="Fill-64"></path>
                <path d="M52.5910768,44.9807672 C52.5910768,45.3687108 52.9783121,45.9118318 53.4429945,46.144598 C53.9076769,46.4549528 53.985124,47.6187836 53.7527828,48.9377919 C53.4429945,50.4119776 53.5204416,51.1878647 54.1400181,51.1878647 C54.6047005,51.1878647 54.9144888,50.7223324 54.8370417,50.1792114 C54.7595947,49.7136791 54.7595947,48.3946708 54.9144888,47.3084288 C54.9919359,45.5238882 55.0693829,45.4462995 55.7664065,46.9204852 C56.3859831,48.3170821 56.4634302,48.3170821 56.231089,46.9980739 C56.0761948,45.5238882 52.5910768,43.5841702 52.5910768,44.9807672 L52.5910768,44.9807672 Z" id="Fill-65"></path>
                <path d="M58.2447127,45.5238882 C58.0123715,45.9894205 58.0898186,46.8428964 58.3996069,47.3084288 C58.6319481,47.6963724 58.0898186,48.3946708 57.1604538,48.7050257 C55.8438536,49.2481468 56.231089,49.4033242 59.0191834,49.4033242 C62.1170661,49.4033242 62.4268544,49.2481468 60.9553601,48.5498483 C59.0966305,47.5411949 58.9417363,46.2221867 60.6455718,45.9118318 C61.4200425,45.7566544 61.8847249,46.144598 61.8847249,46.9980739 C61.8847249,47.7739611 62.1170661,48.1619047 62.3494073,47.8515498 C62.5817485,47.6187836 62.5817485,46.7653077 62.3494073,45.9894205 C61.8072778,44.3600574 58.7868422,43.9721138 58.2447127,45.5238882 L58.2447127,45.5238882 Z" id="Fill-66"></path>
                <path d="M8.21390693,46.5325416 C7.90411866,47.6187836 7.67177746,49.170558 7.67177746,50.1016227 C7.67177746,51.8861632 10.4598719,55.6104218 11.3117896,54.8345346 C11.5441308,54.5241797 12.2411545,54.6793571 12.860731,55.2224782 C14.8743548,56.8518413 15.4939313,54.7569459 13.9449899,51.7309858 L12.4734957,48.7826144 L11.9313662,51.1878647 C11.3892367,53.5155263 9.99518949,54.446591 9.99518949,52.4292843 C9.99518949,51.8085745 9.76284829,50.7223324 9.53050708,50.1016227 C9.14327174,49.170558 9.37561295,48.9377919 10.4598719,49.3257355 C11.776472,49.7136791 11.8539191,49.6360904 10.6922131,48.7050257 C9.99518949,48.1619047 9.29816588,46.9980739 9.06582468,46.144598 C8.83348347,44.748001 8.67858934,44.8255897 8.21390693,46.5325416 L8.21390693,46.5325416 Z M14.1773312,53.6707038 C15.2615901,54.3690023 14.2547782,55.3776556 13.1705193,54.6793571 C12.7058369,54.446591 12.3186015,53.4379376 12.3960486,52.506873 C12.3960486,51.3430422 12.5509427,51.1878647 12.860731,51.9637519 C13.0930722,52.5844617 13.7126487,53.3603489 14.1773312,53.6707038 L14.1773312,53.6707038 Z" id="Fill-67"></path>
                <path d="M13.8675429,46.9980739 C13.8675429,47.6963724 14.2547782,48.084316 14.7969077,47.9291385 C16.1909549,47.4636062 16.4232961,45.7566544 15.106696,45.7566544 C14.4096724,45.7566544 13.8675429,46.2997754 13.8675429,46.9980739 L13.8675429,46.9980739 Z" id="Fill-68"></path>
                <path d="M49.6480882,47.3084288 C49.6480882,48.3946708 49.8029823,48.7826144 50.0353235,48.2394934 C50.1902177,47.7739611 50.1902177,46.8428964 50.0353235,46.2997754 C49.8029823,45.8342431 49.6480882,46.2221867 49.6480882,47.3084288 L49.6480882,47.3084288 Z" id="Fill-69"></path>
                <path d="M67.5383609,47.5411949 C67.6158079,48.7050257 67.9255962,49.6360904 68.3128315,49.6360904 C69.0873022,49.6360904 69.0098551,47.9291385 68.1579374,46.6101303 C67.6158079,45.8342431 67.4609138,46.0670092 67.5383609,47.5411949 L67.5383609,47.5411949 Z" id="Fill-70"></path>
                <path d="M18.2045787,47.8515498 C17.9722375,48.627437 17.9722375,50.2568001 18.2045787,51.5758083 C18.3594728,52.8172279 18.591814,54.3690023 18.6692611,54.8345346 C18.7467081,55.3776556 19.5211788,55.8431879 20.3730966,55.7655992 C21.3024614,55.7655992 21.5348026,55.5328331 20.9926731,55.3000669 C20.2182024,54.989712 20.2956495,54.5241797 21.3799085,53.3603489 C22.6965086,51.8861632 22.6965086,51.8861632 20.7603319,52.3516955 C18.9790494,52.8172279 18.7467081,52.6620504 18.7467081,50.4895663 C18.7467081,49.170558 19.0564964,48.3170821 19.4437318,48.5498483 C19.75352,48.7826144 20.0633083,48.3946708 20.0633083,47.7739611 C20.0633083,46.0670092 18.7467081,46.2221867 18.2045787,47.8515498 L18.2045787,47.8515498 Z" id="Fill-71"></path>
                <path d="M51.5068178,47.3860175 C50.8872413,49.4033242 50.2676647,53.5155263 50.6549001,53.5155263 C51.1970296,53.5155263 52.7459709,47.1532513 52.2812885,46.7653077 C52.0489473,46.5325416 51.739159,46.7653077 51.5068178,47.3860175 L51.5068178,47.3860175 Z" id="Fill-72"></path>
                <path d="M38.1859222,49.3257355 C37.7986868,50.8775099 37.4888986,51.110276 36.9467691,50.2568001 C36.4046396,49.5585016 36.3271925,49.7136791 36.7144279,50.7999212 C37.953581,54.1362361 38.031028,55.0673007 37.1791103,55.0673007 C36.7918749,55.0673007 36.5595337,55.6104218 36.7918749,56.2311315 C37.1791103,57.0846075 36.9467691,57.2397849 36.0174043,56.92943 C35.3203807,56.6966639 34.7782512,56.8518413 34.7782512,57.3949623 C34.7782512,57.8604947 35.3978277,58.1708495 36.1722984,58.0156721 C37.0242161,57.8604947 38.1859222,58.2484383 38.8829458,58.7915593 C39.5799694,59.412269 40.1995459,59.4898578 40.5093342,59.0243255 C40.8191225,58.5587931 40.276993,57.8604947 39.4250752,57.3949623 C37.1016632,56.1535428 37.5663456,55.0673007 40.1220989,55.5328331 C41.3612519,55.7655992 42.522958,55.6104218 42.8327462,55.2224782 C43.0650874,54.7569459 42.6778521,54.6017684 41.9033814,54.8345346 C40.1220989,55.3000669 38.031028,53.049994 39.192734,51.8861632 C39.8123106,51.2654535 40.5093342,51.3430422 41.7484873,51.9637519 C42.6778521,52.4292843 43.684664,52.6620504 43.9170052,52.3516955 C44.5365817,51.7309858 41.8259343,50.024034 40.1995459,50.024034 C39.5025223,50.024034 39.115287,49.4033242 39.2701811,48.627437 C39.6574165,46.5325416 38.7280516,47.0756626 38.1859222,49.3257355 L38.1859222,49.3257355 Z" id="Fill-73"></path>
                <path d="M27.6531209,48.627437 C28.1952504,48.8602032 28.892274,48.7826144 29.1246152,48.5498483 C29.4344035,48.3170821 28.9697211,48.084316 28.1178034,48.1619047 C27.2658856,48.1619047 27.0335444,48.3946708 27.6531209,48.627437 L27.6531209,48.627437 Z" id="Fill-74"></path>
                <path d="M64.8277135,48.627437 C65.369843,48.8602032 66.0668666,48.7826144 66.2992078,48.5498483 C66.608996,48.3170821 66.1443136,48.084316 65.2923959,48.1619047 C64.4404781,48.1619047 64.2081369,48.3946708 64.8277135,48.627437 L64.8277135,48.627437 Z" id="Fill-75"></path>
                <path d="M13.8675429,49.6360904 C13.8675429,50.024034 14.2547782,50.4119776 14.6420136,50.4119776 C15.106696,50.4119776 15.4164842,50.024034 15.4164842,49.6360904 C15.4164842,49.170558 15.106696,48.8602032 14.6420136,48.8602032 C14.2547782,48.8602032 13.8675429,49.170558 13.8675429,49.6360904 L13.8675429,49.6360904 Z" id="Fill-76"></path>
                <path d="M29.3569564,50.4119776 C30.3637683,51.0326873 30.2088742,51.3430422 28.7373799,52.4292843 C27.0335444,53.5931151 27.0335444,53.7482925 28.2726975,55.1448895 C28.9697211,55.9983654 29.3569564,56.8518413 29.0471682,57.2397849 C28.7373799,57.5501398 28.0403563,57.1621962 27.4207797,56.386309 C26.6463091,55.3776556 26.3365208,55.3000669 26.0267325,56.0759541 C25.7943913,56.6190751 26.4139679,57.7829059 27.4207797,58.5587931 C29.2020623,60.1105675 29.8216388,60.4209224 32.8420745,60.9640434 C34.3135688,61.2743983 34.3910158,61.2743983 32.8420745,60.6536886 C31.3705802,59.9553901 31.3705802,59.9553901 32.8420745,59.1019142 C33.6939922,58.6363819 34.1586746,58.0156721 33.8488864,57.7829059 C33.5390981,57.4725511 32.7646274,57.7829059 32.0676038,58.4812044 C30.3637683,60.1105675 29.2020623,59.3346803 29.8216388,56.92943 C30.1314271,55.8431879 29.976533,55.0673007 29.4344035,55.0673007 C28.9697211,55.0673007 28.5824858,54.5241797 28.5824858,53.9034699 C28.5824858,53.2827602 29.2795094,52.7396391 30.1314271,52.7396391 C30.9833449,52.7396391 31.6803685,52.4292843 31.6803685,52.1189294 C31.6803685,51.1878647 29.976533,49.6360904 29.0471682,49.6360904 C28.5824858,49.6360904 28.7373799,50.024034 29.3569564,50.4119776 L29.3569564,50.4119776 Z" id="Fill-77"></path>
                <path d="M15.9586137,50.9550986 C15.6488254,51.1878647 15.4164842,51.8085745 15.4164842,52.2741068 C15.4164842,52.7396391 15.8037196,52.6620504 16.345849,52.1189294 C16.8105315,51.6533971 17.0428727,51.0326873 16.8879785,50.7999212 C16.6556373,50.567155 16.1909549,50.6447437 15.9586137,50.9550986 L15.9586137,50.9550986 Z" id="Fill-78"></path>
                <path d="M55.6889595,51.6533971 C55.6889595,52.2741068 55.3791712,52.7396391 54.9144888,52.7396391 C53.5978887,52.7396391 54.0625711,53.9034699 55.9213007,54.989712 C57.470242,55.9983654 57.5476891,55.9983654 56.6183243,54.8345346 C55.9987478,54.1362361 55.7664065,53.2051715 56.0761948,52.7396391 C56.8506655,51.4206309 57.8574774,51.8861632 58.2447127,53.6707038 C58.554501,55.3000669 58.554501,55.2224782 58.7093951,53.4379376 C58.7868422,51.9637519 58.3221598,51.2654535 57.2379008,50.9550986 C56.231089,50.7223324 55.6889595,50.9550986 55.6889595,51.6533971 L55.6889595,51.6533971 Z" id="Fill-79"></path>
                <path d="M60.3357835,51.9637519 C60.3357835,52.3516955 60.7230189,52.7396391 61.1102542,52.7396391 C61.5749366,52.7396391 61.8847249,52.3516955 61.8847249,51.9637519 C61.8847249,51.4982196 61.5749366,51.1878647 61.1102542,51.1878647 C60.7230189,51.1878647 60.3357835,51.4982196 60.3357835,51.9637519 L60.3357835,51.9637519 Z" id="Fill-80"></path>
                <path d="M73.8115733,53.049994 C73.5792321,54.1362361 73.5792321,55.6104218 73.8115733,56.386309 C74.3537028,58.0156721 73.1919968,60.1105675 72.1851849,59.4898578 C71.7979496,59.2570916 71.5656084,57.7829059 71.6430554,56.3087203 C71.7979496,54.2138248 71.6430554,53.6707038 70.7911377,54.0586474 C70.1715612,54.2914135 69.3970905,53.9034699 69.1647493,53.2051715 C68.9324081,52.506873 68.3902786,52.1965181 67.9255962,52.4292843 C67.5383609,52.6620504 68.0030433,53.5155263 68.9324081,54.3690023 C70.016667,55.3000669 70.4813494,56.386309 70.2490082,57.6277285 C69.8617729,59.5674465 71.178373,61.2743983 73.1145497,61.2743983 C73.7341263,61.2743983 74.2762558,60.7312773 74.2762558,60.0329788 C74.2762558,59.412269 74.6634911,59.1019142 75.0507264,59.3346803 C75.5154088,59.6450352 75.8251971,58.7915593 75.8251971,57.3949623 C75.8251971,55.8431879 75.5154088,55.1448895 74.9732794,55.5328331 C74.3537028,55.9207767 74.3537028,55.6104218 74.9732794,54.446591 C76.0575383,52.4292843 76.0575383,51.1878647 75.0507264,51.1878647 C74.6634911,51.1878647 74.1213616,52.0413407 73.8115733,53.049994 L73.8115733,53.049994 Z" id="Fill-81"></path>
                <path d="M47.7893586,53.5155263 C46.7050996,54.6793571 46.7050996,54.989712 47.6344644,55.3776556 C48.8736175,55.8431879 49.1059587,58.1708495 47.9442527,58.1708495 C47.5570174,58.1708495 47.169782,58.4812044 47.169782,58.9467367 C47.169782,60.6536886 48.6412763,59.5674465 49.415747,57.3173736 C50.5000059,54.1362361 50.5000059,54.2138248 48.9510646,54.8345346 C47.7119115,55.3000669 47.7119115,55.2224782 48.6412763,54.0586474 C50.1127706,52.1965181 49.3382999,51.6533971 47.7893586,53.5155263 L47.7893586,53.5155263 Z" id="Fill-82"></path>
                <path d="M63.0464309,52.7396391 C62.8140897,53.1275827 62.9689839,53.5155263 63.3562192,53.5155263 C63.8209016,53.5155263 64.2081369,53.1275827 64.2081369,52.7396391 C64.2081369,52.2741068 64.0532428,51.9637519 63.8983487,51.9637519 C63.6660075,51.9637519 63.2787721,52.2741068 63.0464309,52.7396391 L63.0464309,52.7396391 Z" id="Fill-83"></path>
                <path d="M60.877913,55.8431879 C61.1102542,56.6966639 61.4200425,57.3949623 61.4974896,57.3949623 C61.5749366,57.3949623 61.8847249,56.6966639 62.1170661,55.8431879 C62.3494073,54.9121233 62.1170661,54.2914135 61.4974896,54.2914135 C60.877913,54.2914135 60.6455718,54.9121233 60.877913,55.8431879 L60.877913,55.8431879 Z" id="Fill-85"></path>
                <path d="M64.8277135,54.8345346 C65.2923959,54.989712 65.6021842,55.5328331 65.369843,55.9207767 C65.0600547,56.3087203 65.44729,56.386309 66.0668666,56.1535428 C67.6158079,55.5328331 66.9187843,54.2914135 65.1375018,54.3690023 C64.285584,54.3690023 64.2081369,54.5241797 64.8277135,54.8345346 L64.8277135,54.8345346 Z" id="Fill-86"></path>
                <path d="M44.3816876,57.3949623 C44.3042405,58.7139706 44.5365817,59.7226239 44.9238171,59.7226239 C45.7757348,59.7226239 46.6276526,56.7742526 46.008076,55.8431879 C45.1561583,54.446591 44.4591347,55.0673007 44.3816876,57.3949623 L44.3816876,57.3949623 Z" id="Fill-87"></path>
                <path d="M16.9654256,56.2311315 C16.9654256,57.1621962 20.0633083,59.9553901 20.5279907,59.4898578 C20.837779,59.1795029 20.2956495,58.2484383 19.2888376,57.3949623 C17.430108,55.7655992 16.9654256,55.5328331 16.9654256,56.2311315 L16.9654256,56.2311315 Z" id="Fill-88"></path>
                <path d="M55.3017241,57.1621962 C55.6115124,58.326027 55.4566183,58.9467367 54.8370417,58.9467367 C54.2949123,58.9467367 54.0625711,59.1795029 54.3723593,59.412269 C54.6047005,59.6450352 55.3017241,59.5674465 55.9213007,59.1795029 C57.0055596,58.6363819 57.0055596,58.4036157 55.9213007,57.0070187 C54.7595947,55.4552443 54.7595947,55.4552443 55.3017241,57.1621962 L55.3017241,57.1621962 Z" id="Fill-89"></path>
                <path d="M67.7707021,57.0070187 C67.0736784,59.0243255 67.2285726,59.4898578 68.1579374,57.9380834 C68.6226198,57.1621962 68.854961,56.3087203 68.6226198,56.1535428 C68.4677257,55.9207767 68.0804903,56.3087203 67.7707021,57.0070187 L67.7707021,57.0070187 Z" id="Fill-90"></path>
                <path d="M11.5441308,57.7829059 C11.5441308,58.326027 12.1637074,58.9467367 12.9381781,59.1019142 C13.6352017,59.3346803 14.7969077,60.4209224 15.4164842,61.5847532 C16.268402,63.291705 16.345849,63.8348261 15.4939313,64.3003584 C14.9518018,64.688302 14.7969077,65.1538343 15.184143,65.3866005 C15.5713784,65.6193666 16.268402,65.1538343 16.8105315,64.3779471 C17.5075551,63.2141163 17.5075551,62.6709953 16.5781903,61.8175194 C15.9586137,61.1968096 15.7262725,60.4985111 15.9586137,60.1881562 C16.6556373,59.5674465 14.7969077,57.6277285 13.0930722,57.1621962 C12.1637074,56.92943 11.5441308,57.1621962 11.5441308,57.7829059 L11.5441308,57.7829059 Z" id="Fill-91"></path>
                <path d="M51.3519237,58.326027 C51.661712,59.2570916 51.0421354,60.1105675 49.6480882,60.8864547 L47.5570174,62.0502855 L49.8804294,61.5847532 C52.900865,60.8864547 52.9783121,60.808866 51.8940532,58.7915593 C51.4293708,57.7829059 51.1970296,57.6277285 51.3519237,58.326027 L51.3519237,58.326027 Z" id="Fill-92"></path>
                <path d="M21.8445909,60.1105675 C21.2250143,60.808866 21.1475673,61.351987 21.6122497,61.6623419 C22.0769321,61.8951081 22.3867203,61.8175194 22.3867203,61.4295758 C22.3867203,61.0416322 23.0837439,60.4985111 23.9356617,60.265745 C24.7875794,60.0329788 25.484603,60.1881562 25.484603,60.5760998 C25.484603,60.9640434 25.1748148,61.2743983 24.7875794,61.2743983 C24.4003441,61.2743983 24.24545,61.8951081 24.4777912,62.6709953 C24.7101324,63.6796486 24.322897,64.0675922 23.0062969,64.0675922 C21.999485,64.0675922 20.9926731,63.7572374 20.6828848,63.291705 C20.0633083,62.4382291 17.7398963,64.0675922 17.7398963,65.3866005 C17.7398963,65.9297215 18.0496845,65.9297215 18.6692611,65.3090118 C19.2888376,64.688302 19.8309671,64.6107133 20.6054378,65.231423 C21.3024614,65.9297215 21.9220379,65.8521328 22.7739557,65.1538343 C23.7033205,64.3779471 23.9356617,64.3779471 23.9356617,65.3866005 C23.9356617,66.0073102 23.4709793,66.7831974 23.0062969,66.9383749 C22.3867203,67.2487298 22.4641674,67.4039072 23.3160851,67.4039072 C24.0131088,67.4814959 24.7101324,67.8694395 24.8650265,68.4125605 C25.0973677,69.110859 25.3297089,69.110859 25.7943913,68.4125605 C26.1041796,67.8694395 25.9492855,67.4814959 25.5620501,67.4814959 C25.0973677,67.4814959 24.7101324,66.7831974 24.7101324,65.9297215 C24.7101324,65.0762456 25.0973677,64.3779471 25.5620501,64.3779471 C26.0267325,64.3779471 26.1816267,63.6796486 25.8718384,62.8261727 C25.5620501,61.8951081 25.7169442,61.2743983 26.3365208,61.2743983 C27.0335444,61.2743983 26.9560973,60.9640434 26.2590737,60.1105675 C25.0973677,58.6363819 23.0837439,58.6363819 21.8445909,60.1105675 L21.8445909,60.1105675 Z" id="Fill-93"></path>
                <path d="M34.7782512,61.1192209 C34.7782512,62.4382291 35.0880395,63.7572374 35.5527219,63.9900035 C36.0174043,64.3003584 36.2497455,63.5244712 36.0948513,62.1278742 C35.707616,58.869148 34.7782512,58.0932608 34.7782512,61.1192209 L34.7782512,61.1192209 Z" id="Fill-94"></path>
                <path d="M64.2081369,59.7226239 C64.2081369,60.1105675 64.7502664,60.4985111 65.369843,60.4985111 C65.9894195,60.4985111 66.531549,60.1105675 66.531549,59.7226239 C66.531549,59.2570916 65.9894195,58.9467367 65.369843,58.9467367 C64.7502664,58.9467367 64.2081369,59.2570916 64.2081369,59.7226239 L64.2081369,59.7226239 Z" id="Fill-95"></path>
                <path d="M37.7212398,61.0416322 C38.1859222,61.1968096 39.115287,61.1968096 39.6574165,61.0416322 C40.1220989,60.808866 39.7348635,60.6536886 38.6506046,60.6536886 C37.5663456,60.6536886 37.1791103,60.808866 37.7212398,61.0416322 L37.7212398,61.0416322 Z" id="Fill-96"></path>
                <path d="M41.3612519,61.2743983 C41.1289107,61.7399306 41.438699,61.8175194 42.0582756,61.5847532 C43.4523228,61.0416322 43.684664,60.4985111 42.600405,60.4985111 C42.1357226,60.4985111 41.5935931,60.808866 41.3612519,61.2743983 L41.3612519,61.2743983 Z" id="Fill-97"></path>
                <path d="M61.4200425,61.351987 C61.1877013,61.8175194 61.1877013,62.3606404 61.4200425,62.5934066 C61.6523837,62.9037614 61.962172,62.5934066 61.962172,61.9726968 C62.039619,61.351987 62.3494073,62.2830517 62.5817485,63.9900035 L63.123878,67.0935523 L63.5111133,64.2227697 C63.8983487,61.351987 62.5817485,59.5674465 61.4200425,61.351987 L61.4200425,61.351987 Z" id="Fill-98"></path>
                <path d="M65.44729,61.7399306 C64.7502664,62.3606404 64.285584,63.6796486 64.285584,64.6107133 L64.4404781,66.3176651 L64.7502664,64.6107133 C65.2149488,62.205463 67.1511255,60.7312773 67.7707021,62.3606404 C68.0030433,63.0589389 68.5451727,63.3692938 68.9324081,63.1365276 C69.3196434,62.9037614 69.1647493,62.205463 68.5451727,61.5847532 C67.1511255,60.1881562 66.9187843,60.1881562 65.44729,61.7399306 L65.44729,61.7399306 Z" id="Fill-99"></path>
                <path d="M56.4634302,62.8261727 C55.8438536,63.6796486 54.9144888,64.3779471 54.3723593,64.3779471 C53.8302299,64.3779471 53.3655474,64.7658907 53.3655474,65.231423 C53.3655474,65.6969554 53.9076769,65.8521328 54.6047005,65.6193666 C55.3017241,65.3866005 56.231089,65.1538343 56.8506655,65.1538343 C57.392795,65.1538343 58.0123715,64.3003584 58.1672657,63.2141163 C58.6319481,60.8864547 58.0123715,60.7312773 56.4634302,62.8261727 L56.4634302,62.8261727 Z" id="Fill-101"></path>
                <path d="M30.2088742,62.9037614 C30.1314271,63.6020599 29.4344035,64.0675922 28.4275916,64.0675922 C27.4207797,63.9900035 26.568862,64.5331246 26.4139679,65.3090118 C26.2590737,66.2400764 26.568862,66.4728426 27.730568,66.1624877 C29.7441918,65.6193666 31.138239,63.9124148 30.6735566,62.6709953 C30.3637683,61.9726968 30.2088742,62.0502855 30.2088742,62.9037614 L30.2088742,62.9037614 Z" id="Fill-102"></path>
                <path d="M50.2676647,62.9037614 C50.2676647,63.291705 50.9646883,63.6020599 51.8166061,63.6020599 C52.6685238,63.6020599 53.3655474,63.291705 53.3655474,62.9813502 C53.3655474,62.6709953 52.6685238,62.3606404 51.8166061,62.2830517 C50.9646883,62.205463 50.2676647,62.4382291 50.2676647,62.9037614 L50.2676647,62.9037614 Z" id="Fill-103"></path>
                <path d="M71.178373,62.8261727 C71.178373,63.2141163 71.6430554,63.8348261 72.1851849,64.145181 C72.6498673,64.4555358 73.1145497,65.231423 73.1145497,65.8521328 C73.1145497,66.4728426 73.5792321,67.0935523 74.1213616,67.2487298 C75.74775,67.8694395 75.2056206,63.7572374 73.5792321,62.8261727 C71.7205025,61.8951081 71.178373,61.8175194 71.178373,62.8261727 L71.178373,62.8261727 Z" id="Fill-104"></path>
                <path d="M37.1016632,64.3779471 C37.1016632,65.8521328 37.3340044,66.0073102 38.031028,65.3090118 C38.7280516,64.6107133 38.7280516,64.145181 38.031028,63.4468825 C37.3340044,62.748584 37.1016632,62.9037614 37.1016632,64.3779471 L37.1016632,64.3779471 Z" id="Fill-105"></path>
                <path d="M48.7961704,64.0675922 C48.7961704,64.9210682 49.0285117,65.1538343 49.2608529,64.5331246 C49.4931941,63.9900035 49.415747,63.291705 49.1834058,63.0589389 C48.9510646,62.748584 48.7187234,63.2141163 48.7961704,64.0675922 L48.7961704,64.0675922 Z" id="Fill-106"></path>
                <path d="M66.8413372,64.9210682 C67.1511255,67.0159636 67.0736784,67.3263185 65.9894195,66.9383749 C65.1375018,66.62802 64.9051605,66.7056087 65.2923959,67.3263185 C65.6021842,67.8694395 66.608996,68.1022057 67.7707021,67.7918508 C68.854961,67.4814959 69.6294317,67.6366733 69.6294317,68.1022057 C69.6294317,68.567738 70.6362436,69.5763913 71.9528437,70.2746898 C73.2694439,71.1281657 74.3537028,72.447174 74.508597,73.6110048 C74.6634911,74.6972469 74.8183852,73.9213597 74.7409382,71.9040529 C74.7409382,69.8091575 74.586044,68.4901493 74.4311499,68.9556816 C74.1213616,69.8867462 68.0804903,66.7056087 68.0804903,65.5417779 C68.0804903,65.1538343 68.4677257,65.231423 69.0098551,65.7745441 C69.5519846,66.3176651 70.4813494,66.7056087 71.100926,66.7056087 C72.7273144,66.7056087 71.178373,65.3866005 69.2421963,64.9986569 C68.3902786,64.9210682 67.4609138,64.2227697 67.0736784,63.6020599 C66.7638902,62.9037614 66.6864431,63.5244712 66.8413372,64.9210682 L66.8413372,64.9210682 Z" id="Fill-107"></path>
                <path d="M32.2224979,64.0675922 C31.9127097,64.3779471 31.6803685,65.1538343 31.6803685,65.8521328 C31.6803685,66.7056087 31.9127097,66.7831974 32.5322862,66.1624877 C32.9969686,65.6969554 33.3067569,64.9210682 33.0744157,64.3779471 C32.9195216,63.9124148 32.5322862,63.7572374 32.2224979,64.0675922 L32.2224979,64.0675922 Z" id="Fill-108"></path>
                <path d="M51.4293708,65.9297215 C51.1970296,66.3176651 51.3519237,66.7056087 51.739159,66.7056087 C52.2038414,66.7056087 52.5910768,66.3176651 52.5910768,65.9297215 C52.5910768,65.4641892 52.4361826,65.1538343 52.2812885,65.1538343 C52.0489473,65.1538343 51.661712,65.4641892 51.4293708,65.9297215 L51.4293708,65.9297215 Z" id="Fill-109"></path>
                <path d="M34.7782512,67.7918508 C34.7782512,68.4901493 35.1654865,69.0332703 35.5527219,69.0332703 C36.0174043,69.0332703 36.3271925,68.7229154 36.3271925,68.3349718 C36.3271925,67.8694395 36.0174043,67.3263185 35.5527219,67.0935523 C35.1654865,66.8607862 34.7782512,67.171141 34.7782512,67.7918508 L34.7782512,67.7918508 Z" id="Fill-111"></path>
                <path d="M30.1314271,68.2573831 C31.3705802,69.0332703 30.8284507,69.2660365 28.1952504,69.110859 C26.7237561,69.0332703 26.7237561,69.110859 28.2726975,69.7315688 C29.2020623,70.1195124 30.5186625,71.2057545 31.138239,72.1368191 C31.7578155,73.0678837 32.5322862,73.4558273 32.7646274,73.0678837 C33.384204,72.0592304 36.5595337,72.3695853 36.9467691,73.5334161 C37.1016632,74.0765371 36.7918749,74.3093033 36.0174043,73.9989484 C35.3203807,73.7661822 34.7782512,73.8437709 34.7782512,74.3093033 C34.7782512,74.6972469 35.3203807,75.2403679 35.9399572,75.5507228 C36.7144279,75.7834889 37.2565573,75.3179566 37.5663456,74.0765371 C37.7986868,72.990295 38.3408163,72.1368191 38.8054987,72.1368191 C39.192734,72.1368191 39.3476282,71.8264642 39.115287,71.4385206 C38.8829458,71.1281657 36.869322,70.9729883 34.7008041,71.2057545 L30.6735566,71.5936981 L31.2156861,69.4988026 C31.6029214,67.8694395 31.4480273,67.4814959 30.3637683,67.4814959 C29.2020623,67.4814959 29.1246152,67.6366733 30.1314271,68.2573831 L30.1314271,68.2573831 Z" id="Fill-112"></path>
                <path d="M37.8761339,68.2573831 C36.9467691,68.8780929 37.0242161,69.0332703 38.2633692,68.9556816 C39.115287,68.8780929 40.8965695,68.567738 42.1357226,68.2573831 L44.4591347,67.6366733 L41.7484873,67.5590846 C40.276993,67.5590846 38.4957104,67.8694395 37.8761339,68.2573831 L37.8761339,68.2573831 Z" id="Fill-113"></path>
                <path d="M49.1059587,68.2573831 C49.415747,68.7229154 49.9578765,68.8780929 50.3451118,68.6453267 C51.4293708,67.9470282 51.1970296,67.4814959 49.8029823,67.4814959 C49.1834058,67.4814959 48.8736175,67.8694395 49.1059587,68.2573831 L49.1059587,68.2573831 Z" id="Fill-114"></path>
                <path d="M55.6889595,68.6453267 C55.6889595,69.2660365 55.14683,69.8091575 54.5272535,69.8091575 C53.9076769,69.8091575 53.3655474,70.1195124 53.3655474,70.5850447 C53.3655474,71.9040529 55.0693829,71.4385206 56.5408772,69.6539801 C58.3221598,67.6366733 58.3221598,67.4814959 56.8506655,67.4814959 C56.231089,67.4814959 55.6889595,68.0246169 55.6889595,68.6453267 L55.6889595,68.6453267 Z" id="Fill-115"></path>
                <path d="M61.8847249,68.2573831 C61.8847249,68.6453267 62.1945132,69.0332703 62.5817485,69.0332703 C63.0464309,69.0332703 63.5885604,68.6453267 63.8209016,68.2573831 C64.0532428,67.7918508 63.7434545,67.4814959 63.123878,67.4814959 C62.4268544,67.4814959 61.8847249,67.7918508 61.8847249,68.2573831 L61.8847249,68.2573831 Z" id="Fill-116"></path>
                <path d="M16.1909549,69.8867462 L14.2547782,70.4298673 L16.268402,70.507456 C17.430108,70.5850447 18.7467081,71.1281657 19.2888376,71.7488755 C20.3730966,73.0678837 21.6122497,73.3006499 21.6122497,72.2144078 C21.6122497,70.8178109 18.1271316,69.3436252 16.1909549,69.8867462 L16.1909549,69.8867462 Z" id="Fill-117"></path>
                <path d="M49.4931941,70.5850447 C49.4931941,70.9729883 49.8804294,71.3609319 50.3451118,71.3609319 C50.7323471,71.3609319 50.8872413,70.9729883 50.6549001,70.5850447 C50.4225589,70.1195124 50.0353235,69.8091575 49.8029823,69.8091575 C49.6480882,69.8091575 49.4931941,70.1195124 49.4931941,70.5850447 L49.4931941,70.5850447 Z" id="Fill-118"></path>
                <path d="M60.7230189,70.5850447 C60.9553601,70.9729883 61.3425954,71.3609319 61.5749366,71.3609319 C61.7298308,71.3609319 61.8847249,70.9729883 61.8847249,70.5850447 C61.8847249,70.1195124 61.4974896,69.8091575 61.0328072,69.8091575 C60.6455718,69.8091575 60.4906777,70.1195124 60.7230189,70.5850447 L60.7230189,70.5850447 Z" id="Fill-119"></path>
                <path d="M68.854961,70.5850447 C68.854961,70.9729883 69.5519846,72.0592304 70.4039024,72.9127063 C71.2558201,73.7661822 71.9528437,75.3955453 71.9528437,76.5593761 C71.9528437,77.8007956 72.1851849,79.5077475 72.4175261,80.4388121 C72.7273144,81.5250542 72.5724203,82.2233527 72.0302908,82.2233527 C71.5656084,82.2233527 71.178373,81.7578204 71.178373,81.2146993 C71.178373,80.5939896 70.4039024,79.2749813 69.5519846,78.266328 C67.9255962,76.4817874 67.9255962,76.4817874 68.3902786,78.1111505 C68.7775139,79.2749813 68.5451727,79.9732798 67.5383609,80.5939896 C66.7638902,80.9819332 66.4541019,81.6026429 66.8413372,81.9905865 C67.2285726,82.3009414 67.693255,82.145764 67.8481491,81.6026429 C68.0804903,81.1371106 68.7000669,80.6715783 69.3970905,80.6715783 C70.2490082,80.6715783 70.4039024,81.2146993 70.016667,83.1544173 C69.3196434,86.4131435 69.2421963,86.4907323 66.3766548,88.5856277 C65.0600547,89.5166923 64.2081369,89.9046359 64.4404781,89.4391036 C65.1375018,88.3528615 63.7434545,87.3442082 62.5817485,88.1200954 C61.962172,88.508039 61.962172,88.8183939 62.6591956,89.2063375 C63.123878,89.5166923 61.1877013,89.9822247 58.2447127,90.2149908 C52.823418,90.6029344 51.5068178,90.3701683 52.2812885,89.1287487 C52.5136297,88.7408051 54.4498064,88.5856277 56.6957714,88.8959826 C60.5681248,89.3615149 60.6455718,89.3615149 59.4064187,88.0425067 C58.1672657,86.7234984 57.8574774,86.7234984 52.6685238,87.9649179 C47.3246762,89.2839262 45.6208407,89.1287487 45.6208407,87.5769743 C45.6208407,87.111442 47.0148879,86.8786759 48.7961704,87.0338533 C51.0421354,87.1890307 52.1263944,86.9562646 52.4361826,86.1803774 C52.6685238,85.4044902 52.1263944,85.2493127 49.7255353,85.6372563 C47.169782,86.1027887 46.3953113,85.8700225 44.6140288,84.2406594 C43.1425345,82.9216512 42.522958,82.6112963 42.522958,83.3871835 C42.522958,84.0078932 41.9808285,84.5510143 41.3612519,84.5510143 C40.7416754,84.5510143 40.1995459,84.8613691 40.1995459,85.2493127 C40.1995459,86.4131435 37.2565573,85.3269015 36.7144279,84.0078932 C36.4046396,82.9992399 36.4820867,82.9216512 37.4114515,83.6975383 C38.1859222,84.3182481 38.6506046,84.3958368 39.0378399,83.7751271 C39.5025223,82.9992399 39.3476282,82.8440624 36.7144279,82.688885 C34.0037805,82.4561188 31.6803685,81.3698768 31.6803685,80.206046 C31.6803685,78.9646264 32.9195216,78.7318603 33.6165452,79.8956911 C33.8488864,80.2836347 34.623357,80.6715783 35.3203807,80.6715783 C36.4046396,80.6715783 36.4046396,80.4388121 35.1654865,79.1198039 C33.6939922,77.4904408 31.6803685,77.0249084 31.6803685,78.3439167 C31.6803685,78.7318603 31.0607919,79.1198039 30.3637683,79.1198039 C29.2020623,79.1198039 29.1246152,79.2749813 30.1314271,79.8956911 C30.9058978,80.3612234 30.9833449,80.6715783 30.3637683,80.6715783 C29.8216388,80.6715783 29.3569564,81.0595219 29.3569564,81.5250542 C29.3569564,81.9129978 29.6667447,82.145764 30.05398,81.9129978 C30.4412154,81.6802316 31.138239,81.9905865 31.6803685,82.6112963 C32.2224979,83.232006 33.1518628,83.7751271 33.6939922,83.7751271 C35.0105924,83.7751271 35.0880395,85.0941353 33.8488864,85.5596676 C33.3067569,85.7148451 34.0812276,85.8700225 35.6301689,85.8700225 C37.4888986,85.7924338 39.0378399,86.4131435 40.1995459,87.4993856 C41.3612519,88.508039 42.600405,89.05116 43.4523228,88.7408051 C44.2267935,88.508039 44.84637,88.5856277 44.84637,88.9735713 C44.84637,90.1374021 54.5272535,93.473717 55.6889595,92.6978298 C55.9987478,92.4650637 58.1672657,92.3098862 60.4132306,92.2322975 C65.0600547,92.0771201 68.9324081,90.0598134 70.5587965,86.8786759 C71.100926,85.8700225 72.1851849,84.3958368 72.9596556,83.6199496 C74.3537028,82.145764 74.7409382,79.8956911 73.5792321,79.8956911 C73.1919968,79.8956911 73.0371027,79.1973926 73.2694439,78.3439167 C73.5017851,77.4904408 73.424338,76.1714325 73.1145497,75.473134 C72.7273144,74.6972469 72.5724203,73.6885935 72.6498673,73.2230612 C72.7273144,72.7575289 71.8753966,71.7488755 70.7911377,71.050577 C69.7068788,70.3522785 68.854961,70.1195124 68.854961,70.5850447 L68.854961,70.5850447 Z M43.9944522,86.0251999 C44.6914759,86.4907323 44.7689229,86.8786759 44.1493464,87.1890307 C43.684664,87.4993856 43.2974286,87.4217969 43.2974286,86.9562646 C43.2974286,86.568321 42.6778521,86.0251999 41.9808285,85.8700225 C40.9740166,85.6372563 40.8965695,85.4820789 41.7484873,85.4044902 C42.3680638,85.4044902 43.3748757,85.6372563 43.9944522,86.0251999 L43.9944522,86.0251999 Z" id="Fill-120"></path>
                <path d="M44.5365817,71.7488755 C44.84637,72.3695853 45.5433936,72.9127063 46.1629701,72.9127063 C47.169782,72.9127063 47.169782,72.6799401 46.3953113,71.7488755 C45.8531819,71.1281657 45.1561583,70.5850447 44.7689229,70.5850447 C44.3816876,70.5850447 44.3042405,71.1281657 44.5365817,71.7488755 L44.5365817,71.7488755 Z" id="Fill-121"></path>
                <path d="M58.3996069,71.3609319 C58.1672657,71.7488755 58.3221598,72.1368191 58.7093951,72.1368191 C59.1740775,72.1368191 59.5613129,71.7488755 59.5613129,71.3609319 C59.5613129,70.8953996 59.4064187,70.5850447 59.2515246,70.5850447 C59.0191834,70.5850447 58.6319481,70.8953996 58.3996069,71.3609319 L58.3996069,71.3609319 Z" id="Fill-122"></path>
                <path d="M16.5781903,72.9127063 C16.8105315,73.3006499 17.1977668,73.6885935 17.430108,73.6885935 C17.5850021,73.6885935 17.7398963,73.3006499 17.7398963,72.9127063 C17.7398963,72.447174 17.3526609,72.1368191 16.8879785,72.1368191 C16.5007432,72.1368191 16.345849,72.447174 16.5781903,72.9127063 L16.5781903,72.9127063 Z" id="Fill-123"></path>
                <path d="M27.2658856,72.6799401 C26.6463091,72.9127063 27.1109915,73.6885935 28.4275916,74.8524243 C29.5892976,75.8610776 30.8284507,76.4041987 31.138239,76.0938438 C31.5254743,75.7059002 33.1518628,76.0938438 34.7782512,76.869731 C36.4820867,77.7232069 38.4957104,78.3439167 39.3476282,78.3439167 C40.1995459,78.3439167 41.1289107,78.6542716 41.3612519,79.1198039 C42.0582756,80.206046 44.0718993,80.0508685 44.0718993,78.8870377 C44.0718993,78.4215054 43.684664,77.412852 43.2974286,76.7921423 C42.7552992,75.8610776 42.3680638,75.8610776 41.5935931,76.6369648 C40.1995459,78.0335618 38.031028,77.8007956 35.0880395,75.9386664 C33.6165452,75.0851905 32.1450509,74.5420694 31.7578155,74.8524243 C31.3705802,75.0851905 30.3637683,74.6196581 29.5892976,73.8437709 C28.814827,72.990295 27.8080151,72.5247627 27.2658856,72.6799401 L27.2658856,72.6799401 Z M43.2974286,78.3439167 C43.2974286,78.7318603 42.7552992,78.8870377 42.1357226,78.6542716 C41.5161461,78.3439167 40.9740166,78.0335618 40.9740166,77.8783844 C40.9740166,77.7232069 41.5161461,77.5680295 42.1357226,77.5680295 C42.7552992,77.5680295 43.2974286,77.8783844 43.2974286,78.3439167 L43.2974286,78.3439167 Z" id="Fill-124"></path>
                <path d="M42.9101933,73.7661822 C42.600405,74.2317145 42.522958,74.6972469 42.7552992,74.930013 C42.9101933,75.1627792 43.2974286,74.7748356 43.5297698,74.0765371 C44.0718993,72.7575289 43.6072169,72.5247627 42.9101933,73.7661822 L42.9101933,73.7661822 Z" id="Fill-125"></path>
                <path d="M67.5383609,74.0765371 C67.3060196,74.7748356 67.3060196,75.473134 67.4609138,75.7059002 C67.693255,75.9386664 68.0804903,75.3955453 68.3128315,74.4644807 C68.7775139,72.6799401 68.2353845,72.3695853 67.5383609,74.0765371 L67.5383609,74.0765371 Z" id="Fill-126"></path>
                <path d="M20.0633083,74.4644807 C20.0633083,74.8524243 20.6054378,75.2403679 21.2250143,75.2403679 C21.8445909,75.2403679 22.3867203,74.8524243 22.3867203,74.4644807 C22.3867203,73.9989484 21.8445909,73.6885935 21.2250143,73.6885935 C20.6054378,73.6885935 20.0633083,73.9989484 20.0633083,74.4644807 L20.0633083,74.4644807 Z" id="Fill-127"></path>
                <path d="M39.0378399,74.4644807 C39.2701811,74.8524243 39.8123106,75.2403679 40.276993,75.2403679 C40.6642283,75.2403679 40.9740166,74.8524243 40.9740166,74.4644807 C40.9740166,73.9989484 40.4318871,73.6885935 39.7348635,73.6885935 C39.115287,73.6885935 38.8054987,73.9989484 39.0378399,74.4644807 L39.0378399,74.4644807 Z" id="Fill-128"></path>
                <path d="M44.84637,74.8524243 C44.84637,75.473134 45.4659465,75.7059002 46.3953113,75.473134 C47.2472291,75.2403679 47.9442527,74.930013 47.9442527,74.8524243 C47.9442527,74.7748356 47.2472291,74.4644807 46.3953113,74.2317145 C45.4659465,73.9989484 44.84637,74.2317145 44.84637,74.8524243 L44.84637,74.8524243 Z" id="Fill-129"></path>
                <path d="M48.7187234,74.4644807 C48.7187234,74.8524243 49.1059587,75.2403679 49.5706411,75.2403679 C49.9578765,75.2403679 50.1127706,74.8524243 49.8804294,74.4644807 C49.6480882,73.9989484 49.2608529,73.6885935 49.0285117,73.6885935 C48.8736175,73.6885935 48.7187234,73.9989484 48.7187234,74.4644807 L48.7187234,74.4644807 Z" id="Fill-130"></path>
                <path d="M51.8166061,74.386892 C51.8166061,74.8524243 52.2038414,75.3955453 52.5910768,75.6283115 C53.0557592,75.8610776 53.3655474,75.5507228 53.3655474,74.930013 C53.3655474,74.2317145 53.0557592,73.6885935 52.5910768,73.6885935 C52.2038414,73.6885935 51.8166061,73.9989484 51.8166061,74.386892 L51.8166061,74.386892 Z" id="Fill-131"></path>
                <path d="M63.4336663,74.5420694 C63.4336663,74.930013 63.8209016,75.0851905 64.2081369,74.8524243 C64.6728193,74.6196581 64.9826076,74.2317145 64.9826076,73.9989484 C64.9826076,73.8437709 64.6728193,73.6885935 64.2081369,73.6885935 C63.8209016,73.6885935 63.4336663,74.0765371 63.4336663,74.5420694 L63.4336663,74.5420694 Z" id="Fill-132"></path>
                <path d="M24.1680029,75.0076017 C22.9288498,75.473134 22.8514027,77.5680295 24.0131088,77.5680295 C24.4777912,77.5680295 24.6326853,78.1111505 24.4003441,78.809449 C23.9356617,79.9732798 24.0905558,79.9732798 25.1748148,79.0422152 C25.9492855,78.4215054 26.1041796,77.8783844 25.5620501,77.7232069 C25.0973677,77.5680295 24.7101324,77.1024972 24.7101324,76.6369648 C24.7101324,76.2490212 25.407156,76.1714325 26.2590737,76.4041987 C27.3433327,76.7921423 27.8080151,76.5593761 27.8080151,75.7059002 C27.8080151,74.4644807 26.1041796,74.1541258 24.1680029,75.0076017 L24.1680029,75.0076017 Z" id="Fill-133"></path>
                <path d="M57.2379008,75.2403679 C57.2379008,75.6283115 57.6251362,76.0162551 58.0898186,76.0162551 C58.4770539,76.0162551 58.6319481,75.6283115 58.3996069,75.2403679 C58.1672657,74.7748356 57.7800303,74.4644807 57.5476891,74.4644807 C57.392795,74.4644807 57.2379008,74.7748356 57.2379008,75.2403679 L57.2379008,75.2403679 Z" id="Fill-134"></path>
                <path d="M54.1400181,76.0162551 C54.1400181,76.4041987 54.5272535,76.7921423 54.9144888,76.7921423 C55.3791712,76.7921423 55.6889595,76.4041987 55.6889595,76.0162551 C55.6889595,75.5507228 55.3791712,75.2403679 54.9144888,75.2403679 C54.5272535,75.2403679 54.1400181,75.5507228 54.1400181,76.0162551 L54.1400181,76.0162551 Z" id="Fill-135"></path>
                <path d="M61.8847249,76.4041987 C61.8847249,77.0249084 61.4974896,77.5680295 61.0328072,77.5680295 C60.5681248,77.5680295 60.3357835,78.0335618 60.5681248,78.6542716 C60.800466,79.2749813 60.6455718,79.9732798 60.1034423,80.206046 C59.5613129,80.3612234 59.716207,80.5939896 60.4906777,80.5939896 C61.1877013,80.6715783 61.8847249,81.1371106 62.1170661,81.6026429 C62.2719602,82.145764 62.7366427,82.3009414 63.123878,81.9905865 C63.5111133,81.6802316 63.2787721,81.0595219 62.7366427,80.749167 C62.039619,80.2836347 61.8847249,79.35257 62.2719602,77.6456182 C62.5817485,76.32661 62.5817485,75.2403679 62.3494073,75.2403679 C62.1170661,75.2403679 61.8847249,75.7834889 61.8847249,76.4041987 L61.8847249,76.4041987 Z" id="Fill-136"></path>
                <path d="M69.6294317,76.0162551 C69.6294317,76.4041987 70.016667,76.7921423 70.4039024,76.7921423 C70.8685848,76.7921423 71.178373,76.4041987 71.178373,76.0162551 C71.178373,75.5507228 70.8685848,75.2403679 70.4039024,75.2403679 C70.016667,75.2403679 69.6294317,75.5507228 69.6294317,76.0162551 L69.6294317,76.0162551 Z" id="Fill-137"></path>
                <path d="M47.8668056,76.869731 C46.3178643,77.8007956 46.4727584,79.35257 48.254041,80.3612234 C49.8804294,81.292288 51.8166061,80.9819332 51.8166061,79.8181024 C51.8166061,79.4301588 50.9646883,79.2749813 49.8804294,79.5853362 C48.4089351,79.9732798 47.9442527,79.7405136 47.9442527,78.7318603 C47.9442527,77.8007956 48.4089351,77.4904408 49.4931941,77.8007956 C50.3451118,78.0335618 51.0421354,77.9559731 51.0421354,77.5680295 C51.0421354,76.5593761 49.0285117,76.0938438 47.8668056,76.869731 L47.8668056,76.869731 Z" id="Fill-138"></path>
                <path d="M27.0335444,79.1198039 C27.0335444,79.5077475 27.4207797,79.8956911 27.8854621,79.8956911 C28.2726975,79.8956911 28.4275916,79.5077475 28.1952504,79.1198039 C27.9629092,78.6542716 27.5756739,78.3439167 27.3433327,78.3439167 C27.1884385,78.3439167 27.0335444,78.6542716 27.0335444,79.1198039 L27.0335444,79.1198039 Z" id="Fill-139"></path>
                <path d="M53.3655474,79.1198039 C53.3655474,79.6629249 53.9076769,79.8181024 54.6047005,79.5853362 C55.2242771,79.35257 55.6115124,79.4301588 55.3791712,79.7405136 C54.6821476,80.9043444 56.308536,82.4561188 57.6251362,81.9905865 C58.3221598,81.6802316 58.7093951,81.1371106 58.3996069,80.749167 C58.1672657,80.2836347 57.470242,80.1284572 56.7732184,80.4388121 C56.0761948,80.6715783 55.6889595,80.4388121 55.8438536,79.8181024 C55.9987478,79.2749813 55.4566183,78.6542716 54.7595947,78.4990941 C53.985124,78.3439167 53.3655474,78.6542716 53.3655474,79.1198039 L53.3655474,79.1198039 Z" id="Fill-140"></path>
                <path d="M37.4888986,80.6715783 C37.2565573,81.0595219 37.7212398,81.4474655 38.5731575,81.4474655 C39.3476282,81.4474655 40.1995459,81.9129978 40.4318871,82.3785301 C40.5867813,82.9216512 41.0514637,83.1544173 41.3612519,82.8440624 C41.6710402,82.5337076 41.7484873,81.7578204 41.5161461,81.0595219 C40.9740166,79.7405136 38.2633692,79.4301588 37.4888986,80.6715783 L37.4888986,80.6715783 Z" id="Fill-141"></path>
                <path d="M44.4591347,81.5250542 C44.1493464,81.9905865 44.0718993,82.3785301 44.1493464,82.4561188 C44.3042405,82.5337076 45.2336053,83.0768286 46.2404172,83.6199496 C47.2472291,84.1630707 48.7961704,84.3958368 49.7255353,84.1630707 C52.5910768,83.3095948 54.9144888,81.9905865 54.4498064,81.3698768 C54.2949123,81.0595219 52.9783121,81.4474655 51.5068178,82.3009414 C48.9510646,83.7751271 48.9510646,83.7751271 47.169782,82.2233527 C45.0787112,80.4388121 45.0787112,80.4388121 44.4591347,81.5250542 L44.4591347,81.5250542 Z" id="Fill-142"></path>
                <path d="M58.3996069,84.0078932 C57.3153479,84.8613691 57.2379008,85.2493127 58.0123715,85.7148451 C58.7093951,86.1027887 59.1740775,86.0251999 59.4064187,85.4820789 C59.5613129,84.9389579 60.0259953,84.5510143 60.4906777,84.5510143 C60.9553601,84.5510143 61.1102542,85.0941353 60.800466,85.7148451 C60.5681248,86.3355548 60.7230189,86.8786759 61.1102542,86.8786759 C61.5749366,86.8786759 61.8847249,86.0251999 61.8847249,84.9389579 C61.8847249,82.7664737 60.5681248,82.4561188 58.3996069,84.0078932 L58.3996069,84.0078932 Z" id="Fill-143"></path>
                <path d="M64.2081369,83.6975383 C64.2081369,84.1630707 64.6728193,84.5510143 65.2149488,84.5510143 C65.7570783,84.5510143 65.44729,85.171724 64.5953723,85.8700225 C63.2013251,86.9562646 63.2013251,87.0338533 64.4404781,86.568321 C65.2149488,86.3355548 66.3766548,86.1027887 66.9962314,86.1027887 C67.6158079,86.1027887 68.0804903,85.5596676 68.0804903,84.9389579 C68.0804903,84.3182481 67.7707021,83.7751271 67.3834667,83.7751271 C66.9962314,83.7751271 66.1443136,83.5423609 65.44729,83.3095948 C64.7502664,83.0768286 64.2081369,83.232006 64.2081369,83.6975383 L64.2081369,83.6975383 Z" id="Fill-144"></path>
                <path d="M53.3655474,84.628603 C53.3655474,85.6372563 55.5340653,86.0251999 55.9213007,85.0941353 C56.1536419,84.5510143 55.6889595,84.0854819 54.8370417,84.0854819 C53.985124,84.0854819 53.3655474,84.3182481 53.3655474,84.628603 L53.3655474,84.628603 Z" id="Fill-145"></path>
            </g>
        </g>
    </g>
</svg>