<?xml version="1.0" encoding="UTF-8" standalone="no"?>
<svg width="109px" height="132px" viewBox="0 0 109 132" version="1.1" xmlns="http://www.w3.org/2000/svg" xmlns:xlink="http://www.w3.org/1999/xlink">
    <!-- Generator: Sketch 3.8.3 (29802) - http://www.bohemiancoding.com/sketch -->
    <title>Group 10</title>
    <desc>Created with Sketch.</desc>
    <defs>
        <linearGradient x1="67.1744168%" y1="-14.2859435%" x2="50%" y2="100%" id="linearGradient-1">
            <stop stop-color="#000000" stop-opacity="0" offset="0%"></stop>
            <stop stop-color="#281919" offset="100%"></stop>
        </linearGradient>
        <radialGradient cx="68.9124525%" cy="75.3811306%" fx="68.9124525%" fy="75.3811306%" r="59.0600195%" id="radialGradient-2">
            <stop stop-color="#E89D17" stop-opacity="0.8" offset="0%"></stop>
            <stop stop-color="#CC630A" stop-opacity="0.8" offset="100%"></stop>
        </radialGradient>
    </defs>
    <g id="Page-1" stroke="none" stroke-width="1" fill="none" fill-rule="evenodd">
        <g id="Group-10">
            <path d="M53.1708984,32.9462891 C39.2595595,31.816165 35.9190573,26.8569464 31.6474609,12.7041016 C30.7906631,9.86532067 27.9556621,4.41475976 30.8652344,3.84277344 L32.1474609,1.34472656 C53.1844227,-2.79088274 74.1244484,10.2346911 57.3095703,30.0820312 L53.1708984,32.9462891 Z" id="Path-596" fill="#ACDD74"></path>
            <path d="M31.7890625,35.328125 C7.57758021,35.328125 -4.65083332,69.7243477 2.62011719,90.1591797 C5.33325723,97.7843947 12.9567588,120.983052 27.4453125,121.415039 C30.9313248,121.518977 38.0720201,116.032489 42.8984375,117.853516 C44.3786172,118.411993 58.9364272,127.571486 65.7050781,127.224609 C89.120637,126.024618 81.0102483,122.383786 94.2333984,103.507813 C96.4549478,100.336563 100.822977,99.0041381 102.824219,95.6894531 C110.692612,82.6569199 108.131501,67.6848511 99.2617188,56.3554688 C89.9659992,44.482037 87.5000014,51 74.0000014,48 C63.0707208,45.571271 80.4365868,39.2963316 37.2734375,35.7001953 L31.7890625,35.328125 Z" id="Path-595" fill="#B71616"></path>
            <path d="M102.633789,61.8222656 C82.7868708,59.9006996 102.754146,59.2328583 80.96875,73.5605469 C74.7639767,77.6412651 68.8228958,73.0128454 63.8535156,79.2949219 C58.9848718,85.4496518 54.8383096,96.4304869 51.1699219,103.272461 C49.4864426,106.412347 35.1348355,110.795966 38.5722656,114.392578 C74.3015282,151.776406 109.551339,107.864636 104.992188,66.8271484 L102.633789,61.8222656 Z" id="Path-597" fill-opacity="0.5" fill="#633B3B"></path>
            <path d="M102.836782,65.9572758 C84.4507726,64.1547813 102.948279,63.5283233 82.7664816,76.968184 C77.0184346,80.7960369 71.51467,76.4544213 66.9110802,82.3472233 C62.4008117,88.1205699 58.5594733,98.4209678 55.1611114,104.838973 C53.6015512,107.784294 40.3063495,111.896277 43.4907543,115.270022 C76.5900264,150.337327 109.245139,109.14659 105.021581,70.6520266 L102.836782,65.9572758 Z" id="Path-597" fill="url(#linearGradient-1)"></path>
            <path d="M57.8881909,46 C54.4045863,47.132198 50.1180787,47.008603 47.437377,49.3965939 C44.343493,52.1526509 44.5245222,57.0974413 41.8900755,60.2512513 C40.4384764,61.9890233 36.9610436,61.5507417 35.7174291,63.4270499 C33.7357303,66.4169457 34.1469625,70.3387205 32.9824232,73.6907066 C29.9384045,82.4525481 19.1271893,85.2554679 21.2817978,97.2195067 C21.516754,98.5241638 23.8687289,98.702324 24.3294761,99.9520548 C27.2125953,107.772228 27.2665068,115.304142 38.7168012,117.628952 C46.2926076,119.167106 41.3524121,115.525118 45.7396358,113.96425 C48.1772783,113.096995 51.5842878,114.559028 53.465105,112.856123 C56.4021227,110.196928 55.6146995,105.037358 58.5442761,102.370841 C62.3283923,98.9265177 68.3032652,98.4516292 72.5302212,95.5029485 C76.0738997,93.030915 77.902512,88.7277822 81.5151633,86.346588 C86.2259742,83.2415678 92.537278,82.6718669 97.0644707,79.331775 C98.7873968,78.0606271 108.753183,69.5347654 105.26861,64.1292783 C98.7790372,54.0622486 72.7596428,50.4784018 62.342017,46.6640457 L57.8881909,46 Z" id="Path-750" fill="url(#radialGradient-2)"></path>
            <g id="YSEn5F1B01" transform="translate(0.000000, 1.000000)" fill="#000000">
                <g id="Group" transform="translate(54.600000, 65.100000) scale(1, -1) translate(-54.600000, -65.100000) translate(0.100000, 0.100000)">
                    <path d="M30.6,128.4 C29.4,127.3 29.8,126.1 31.4,126.1 C32.2,126.1 32.6,125.5 32.4,124.8 C32.1,124.2 32.8,123 33.9,122.3 C36.2,120.9 36.4,121.8 34.4,124.4 C33.7,125.5 33.3,126.9 33.6,127.7 C34.1,129.1 31.8,129.7 30.6,128.4 L30.6,128.4 Z" id="Shape"></path>
                    <path d="M39.1,125.9 C39.6,124.1 40.2,121.5 40.4,120.3 C40.7,118.1 47.5,110.2 49,110.1 C49.3,110.1 49.4,111.2 49.2,112.5 C48.9,114 47.9,115.1 46.6,115.3 C45.5,115.5 44.5,116.4 44.3,117.3 C44.2,118.2 43.4,120 42.6,121.2 C41.4,122.8 41.3,123.6 42.2,124.6 C43.2,125.7 43.7,125.6 45.2,124.4 C46.3,123.4 46.9,123.2 46.9,124 C46.9,124.7 48.3,124.4 50.9,123.1 C53.1,122 54.9,120.6 54.9,120 C54.9,119.2 54.4,119.3 53.4,120.1 C52.1,121.2 52,121.1 52.5,119.7 C53.2,117.9 54.5,117.6 55.3,119 C56,120 59.7,119.3 60.5,118 C60.8,117.5 60.2,117.4 59.2,117.8 C57.8,118.3 57.6,118.1 58.6,117.1 C59.2,116.4 61.2,115.8 62.8,115.7 C65.9,115.6 67.3,113.1 64.3,113.1 C63.1,113.1 62.8,112.4 63.1,110.6 C63.4,109.3 63.2,108.4 62.8,108.7 C62.3,109 61.9,108.2 61.8,106.9 C61.8,105.4 61.5,105.1 61.2,106.1 C60.9,106.9 59.9,108.4 59.1,109.4 C57.6,111.1 57.5,111.1 56.2,108.9 C55.2,106.9 55,106.9 54.9,108.5 C54.9,109.7 54.4,110.1 53.4,109.7 C52.4,109.4 51.9,109.8 51.8,110.9 C51.8,112.3 51.6,112.3 51,110.6 C50.2,108.6 51.5,106.7 53,107.7 C53.4,107.9 54,107.7 54.4,107.1 C54.7,106.6 55.7,106.1 56.5,106.1 C57.3,106.1 57.7,106.6 57.4,107.1 C57.1,107.7 57.3,108.1 57.8,108.1 C58.4,108.1 58.9,107.2 58.9,106.1 C58.9,105 59.3,104.1 59.9,104.1 C60.4,104.1 60.6,103.3 60.3,102.4 C59.9,101.3 60.9,101.9 62.7,103.7 C64.6,105.7 66,108.5 66.4,111.2 C67.1,115.3 66.9,115.7 63.8,118.4 C60.1,121.5 54.5,124.2 45.7,127.2 C38.1,129.7 37.9,129.7 39.1,125.9 L39.1,125.9 Z" id="Shape"></path>
                    <path d="M30.5,116.8 C31.3,110.9 34.3,104.8 38.5,100.1 L42.1,96.1 L37.8,96.2 C34.4,96.2 33.9,96.4 35.4,97.1 C37.3,97.9 37.2,98 35,98 C33.1,98.1 32.8,97.7 33.2,96.1 C33.6,94.6 33.2,94.1 31.9,94.1 C30.8,94.1 29.7,93.6 29.4,93.1 C29,92.5 28.3,92.3 27.8,92.6 C27.3,93 26.9,92.5 26.9,91.7 C26.9,90.8 27.7,90.1 28.8,90.1 C30.3,90.1 30.6,89.6 30.1,87.9 C29.7,86.2 29.9,85.9 31.3,86.4 C32.3,86.8 33.4,87.1 33.7,87.1 C34.1,87.1 33.7,87.6 32.9,88.1 C31.6,89 31.6,89.2 32.9,90.1 C33.7,90.6 34.4,91.8 34.4,92.8 C34.4,94 35.3,94.6 37.3,94.8 C41.5,95.1 43.1,95.9 42.3,97.2 C41.9,97.9 42.2,98.2 43,97.9 C43.8,97.6 44.3,96.9 44.2,96.5 C44.1,96 45.9,95.7 48.1,95.8 C50.4,95.9 53.1,95.4 54.3,94.6 C55.4,93.8 56.8,93.1 57.4,93.1 C57.9,93.1 57.6,93.6 56.7,94.2 C55.1,95.1 55,95.4 56.5,97.5 C57.5,99.1 58.6,99.7 59.9,99.4 C61,99.1 61.7,98.5 61.4,98.1 C61.1,97.6 61.4,97.1 62.1,96.9 C62.9,96.6 62.6,95.8 61.2,94.4 C59.2,92.4 59.2,92.3 61,91.8 C62,91.5 62.9,91.8 62.9,92.4 C62.9,93.2 63.2,93.2 64,92.4 C65.8,90.6 64.1,88.9 62,90.3 C60.5,91.2 59.4,91.1 56.6,89.8 C54.7,88.9 52.8,88.1 52.4,88.1 C51.1,88.1 53.2,90.3 55.3,91.1 C57.4,92 57.4,92 55.1,92 C53.8,92.1 52.3,91.6 51.6,91.1 C50.9,90.5 49.5,89.3 48.4,88.5 C47,87.4 46.8,86.8 47.7,86.5 C48.3,86.2 48.7,85.5 48.3,85 C48,84.5 48.3,84.1 48.8,84.1 C49.4,84.1 49.9,84.8 49.9,85.6 C49.9,86.4 50.6,87.1 51.5,87.1 C52.3,87.1 52.7,86.7 52.4,86.1 C52.1,85.6 52.7,85.1 53.8,85.1 C55,85.1 55.9,84.7 55.9,84.1 C55.9,83.6 55.2,83.1 54.2,83.1 C53.3,83.1 52.8,82.8 53.2,82.5 C53.5,82.1 52.9,81.1 51.9,80.2 C50.4,79 50.2,78.2 50.9,77.1 C51.7,75.9 51.9,75.9 51.9,77.6 C51.9,78.7 53.6,80.8 55.5,82.3 L59.1,85 L56.5,85.7 C55.1,86 53.9,86.8 53.9,87.3 C53.9,88.3 55.3,88.1 59.4,86.6 C61.4,85.8 61.4,85.8 59.4,87.5 C58.3,88.5 58,89 58.7,88.6 C59.3,88.3 59.9,88.5 59.9,89.2 C59.9,90 60.5,89.8 61.7,88.8 C62.7,87.8 64,87.1 64.6,87.1 C65.1,87.1 66.7,86.2 68,85 C69.3,83.9 71.1,83.2 72.1,83.4 C73.1,83.7 73.7,83.6 73.4,83.1 C73.1,82.7 75,82.4 77.4,82.6 C79.9,82.7 82.2,82.5 82.4,82.1 C82.8,81.5 81.7,81.4 74.9,81 C72.8,80.8 72.3,80.5 73.1,79.9 C73.8,79.5 75.5,79.3 76.9,79.6 C78.3,79.9 80.4,80.3 81.6,80.5 C82.9,80.8 84.9,79.9 87,78 C88.8,76.4 90.7,75.1 91.2,75.1 C91.7,75.1 90.2,76.9 87.8,79.1 L83.4,83 L86.9,82.4 C91,81.7 95.6,78.5 96.5,75.9 C96.8,74.9 97.8,74.1 98.7,74.1 C100.2,74.1 100.2,73.9 98.9,73.1 C97.6,72.3 97.6,72.1 99,72.1 C100.7,72.1 104.4,64.1 104.1,60.8 C104.1,59.9 104.4,59.1 105,59.1 C106.2,59.1 106.2,54.5 105,50.3 C104.3,48 104.3,47.3 105.1,47.7 C105.9,48.2 106,47.8 105.6,46.7 C105.2,45.7 104.6,43.8 104.3,42.5 C104,41.2 103.2,40.4 102.6,40.8 C102,41.1 101.9,40.9 102.3,40.2 C102.7,39.6 102.3,37.7 101.5,35.9 C100.6,34.2 100.1,32 100.4,31 C101.3,28.4 99.4,27.9 97.4,30.1 C95.8,31.9 95.8,32.1 97.3,32.7 C98.2,33 98.9,33.7 98.9,34.2 C98.9,34.7 97.8,34.4 96.5,33.6 C94.2,32.1 94.2,32.1 94.7,34.6 C95.1,37 96.9,39.2 96.9,37.4 C96.9,36.9 97.8,36.5 99,36.4 C100.6,36.2 100.8,36.5 100,37.5 C98.2,39.7 94.4,38.9 94.1,36.4 C93.9,35.1 93.3,34.1 92.7,34.1 C92.2,34.1 91.9,33.4 92.3,32.6 C92.6,31.8 91.7,29.8 90.3,28.1 C88.9,26.5 87.9,24.6 88.1,23.9 C88.3,23.3 89.8,24.4 91.3,26.4 C93.2,28.8 94.6,29.8 95.7,29.4 C97,28.8 97,28.7 95.3,28.1 C94.3,27.7 93.3,26.9 93.3,26.2 C93.2,25.6 93.1,24.6 93,24 C93,23.5 92.4,23.3 91.7,23.7 C91,24.1 90.9,24 91.3,23.3 C92.3,21.7 90.1,17.9 88.7,18.7 C88,19.1 87.9,19 88.3,18.3 C88.7,17.6 88.5,17.1 87.9,17.1 C87.3,17.1 87.1,16.7 87.4,16.1 C87.7,15.6 87.3,15.1 86.5,15.1 C85.5,15.1 85.1,14.5 85.5,13.3 C85.7,12.4 85.4,12.6 84.8,13.8 L83.6,16 L80.8,12.8 C79.3,11.1 78.3,9.4 78.5,9.1 C78.8,8.9 79.9,9.7 80.9,11.1 C82.5,13.3 82.9,13.4 83.4,11.9 C83.8,11 83.7,9.7 83.3,9 C82.9,8.3 83,8.1 83.6,8.4 C84.2,8.8 83.4,5.5 82.4,7.1 C82,7.7 80.9,8.1 80,7.9 C79,7.7 77.5,8.2 76.6,9 C74,11.1 87.6,13.6 92.6,19.2 C94.7,21.5 95.4,22.9 94.4,22.5 C92.9,21.9 92.8,22.1 93.8,23.9 C95.1,26.3 96.5,26.6 100.1,25.2 C102.2,24.4 102.4,24.6 102.5,27.5 C102.5,29.2 103.3,32.2 104.3,34.1 C107.1,39.6 108.9,46.2 108.9,51.3 C108.9,56.9 106.9,66.1 105.7,66.1 C105.2,66.1 104.9,66.7 105,67.4 C105.1,68 105.1,69.2 105,69.9 C104.8,71.7 96.9,80.1 95.3,80.1 C93.5,80.1 89.9,83.7 89.9,85.5 C89.9,86.3 89.5,87.2 89,87.5 C88.5,87.9 88.3,87.2 88.6,86 C89.2,84 88.9,83.9 83.3,84.5 C80.1,84.8 76.7,85.1 75.8,85.1 C74.9,85.2 73.1,86.3 71.8,87.7 C70.6,89 69,90.1 68.4,90.1 C66.7,90.1 64.3,93.2 63.5,96.4 C63.1,97.9 62.1,99.5 61.1,99.8 C58.4,100.8 55.9,103.3 56.6,104.4 C56.9,105 56.7,105.1 56.1,104.7 C55.5,104.3 54,104.5 52.9,105.1 C51.8,105.7 49.9,105.9 48.8,105.6 C46.9,104.9 46.8,104.8 48.5,103 C50.4,100.9 52.4,100.4 51.3,102.4 C50.7,103.3 50.8,103.3 52.1,102.4 C52.9,101.7 54,101.5 54.4,101.9 C54.9,102.3 54.9,102 54.5,101.4 C54,100.5 54.4,100.1 55.6,100.1 C57.3,100 57.3,100 55.6,99 C54.7,98.4 54.1,97.6 54.4,97 C54.8,96.5 54.5,96.1 54,96.1 C53.4,96.1 52.9,96.6 52.9,97.1 C52.9,97.7 51.4,98.1 49.5,98.1 C44.6,98.1 39.5,99.3 40.9,100.1 C41.6,100.6 41.4,101.2 40.3,102.2 C38.8,103.4 38.6,103.4 39.4,102.2 C39.9,101.3 39.8,101 39.1,101.5 C38.5,101.8 37.8,103.5 37.4,105.1 C37,106.8 36.3,107.9 35.8,107.5 C35.2,107.2 35.1,108 35.5,109.5 C35.9,111.2 35.7,112.1 34.9,112.1 C34.1,112.1 33.8,113 34.1,114.6 C34.4,115.9 34.3,116.8 33.8,116.6 C33,116 31.5,119.6 31,123.1 C31,123.7 30.4,124.1 29.8,124.1 C29.2,124.1 29,123.4 29.3,122.5 C29.6,121.6 30.2,119.1 30.5,116.8 Z" id="Shape"></path>
                    <path d="M79.9,5.6 C78.3,5.1 77.9,5.2 78.4,6 C79.3,7.5 81.4,6.1 79.9,5.6 Z" id="Path"></path>
                    <path d="M42.9,123.8 C42.9,123.6 43.8,122.4 44.9,121.1 C46.2,119.6 46.9,119.3 46.9,120.2 C46.9,121 46,122.2 44.9,122.9 C43.8,123.6 42.9,124 42.9,123.8 L42.9,123.8 Z" id="Shape"></path>
                    <path d="M48.3,120.9 C48.6,118.2 50.8,114.6 51.7,115.6 C52,115.9 52.8,115.6 53.6,115 C54.6,114.1 54.9,114.2 54.9,115.1 C54.9,115.8 55.6,116.1 56.5,115.7 C57.4,115.4 57.7,115.5 57.4,116.2 C57,116.7 55.9,116.9 55,116.6 C52.9,115.9 49.4,119.5 50.5,121.2 C50.9,121.9 50.8,122.2 50.1,121.7 C49.6,121.4 48.9,121.7 48.6,122.3 C48.3,123 48.2,122.4 48.3,120.9 L48.3,120.9 Z" id="Shape"></path>
                    <path d="M59.3,113 C59.3,110.8 60.5,110.5 61.2,112.5 C61.5,113.3 61.2,114.1 60.6,114.4 C59.9,114.7 59.3,114.1 59.3,113 L59.3,113 Z" id="Shape"></path>
                    <path d="M53,112.5 C54.3,110.9 55.9,110.6 55.9,112 C55.9,112.5 55,113.1 53.8,113.4 C52.2,113.8 52,113.7 53,112.5 L53,112.5 Z" id="Shape"></path>
                    <path d="M42.6,112.4 C41.4,111.3 41.8,110.1 43.3,110.1 C44.1,110.1 45,109.4 45.3,108.5 C45.8,107.3 45.5,107 44.4,107.5 C43.5,107.8 43,107.7 43.3,107.2 C44.1,106 48.9,106.1 48.9,107.3 C48.9,107.8 48.5,107.9 47.9,107.6 C47.4,107.3 46.9,107.5 46.9,108.1 C46.9,109.7 43.4,113.2 42.6,112.4 L42.6,112.4 Z" id="Shape"></path>
                    <path d="M21.4,95.1 C21.7,94.6 21.4,94.4 20.6,94.6 C19.9,94.9 18.4,94.3 17.4,93.1 C16.4,92 15.9,91.1 16.2,91.1 C16.6,91.1 14.2,88.4 10.8,85 C3,77.2 0.8,72.2 0.2,61.1 C-0.4,51.3 0.9,43 4.1,36.3 C5.3,33.7 6.3,30.9 6.4,30.1 C6.7,28.1 10.6,20.4 11.8,19.7 C12.3,19.4 12.5,18.3 12.2,17.2 C11.7,15.1 15.2,12.1 18.1,12.1 C19.1,12.1 21.1,10.7 22.6,9.1 C24.1,7.4 25.9,6.3 26.7,6.6 C27.7,7 27.9,6.5 27.4,4.8 C26.9,3.2 27.7,3.8 30.3,6.8 C36.7,14.1 43.3,13.7 54.8,5.2 C61.1,0.5 64.9,-1.3 63.4,1.1 C63,1.7 64.5,2.1 67.1,2.1 C72.2,2.1 73.9,3.4 73.9,7.3 C73.9,9.8 73.6,10 71.1,9.5 C69.6,9.2 67.1,9.5 65.4,10.2 C63.8,10.9 61.9,11.3 61.2,11.2 C60.6,11.1 59.8,11.5 59.4,12.1 C59.1,12.6 57.5,13.1 55.8,13.1 C54.2,13.1 53,13.4 53,13.9 C53.3,15.8 52.7,15.9 50.9,14.4 C48,11.8 48.4,11.1 52.8,11.6 C56.1,11.9 56.8,11.7 57.2,9.9 C57.7,8.2 58.1,8 59.2,8.9 C60.1,9.6 61.5,9.7 63.5,9.2 C65.1,8.7 65.8,8.2 65.2,8.2 C62.9,8 63.8,6.1 66.2,6.1 C68.4,6.1 72.2,4.2 70.4,4 C64,3.3 52.9,6.5 52.9,9 C52.9,9.5 51.5,10.1 49.8,10.5 C47.2,11 46.9,11.3 47.9,12.6 C49.3,14.3 48.4,16.1 46.3,16.1 C45.2,16.1 45,15.5 45.4,14.1 C45.9,12.5 45.7,12.2 44.2,12.8 C43.2,13.1 41.3,14.2 39.9,15 C38.4,16 37.8,16.1 38.2,15.4 C39.2,13.7 37.7,13.7 36,15.4 C34.9,16.4 34.7,16.3 35.2,14.8 C36,12.6 33.4,11.4 31.4,13.1 C30.6,13.8 29.9,14 29.9,13.5 C29.9,13.1 28.8,13.8 27.4,15.1 C26,16.4 24.7,17.2 24.4,16.9 C24,16.6 25.4,15 27.4,13.3 C30.4,10.9 30.7,10.2 29.4,9.7 C27.6,9 25.1,10.2 20,14 C18.1,15.4 16.9,15.9 17.4,15.1 C17.9,14.1 17.5,14.3 16.1,15.5 C14.4,16.9 14.2,17.8 15,19.2 C15.7,20.7 15.6,21.3 14.6,21.7 C13.8,22 12.4,24.1 11.5,26.4 C10.5,28.7 8.6,32.8 7.3,35.5 C5.7,38.5 4.6,42.7 4.3,46.4 C4.1,49.8 3.5,52.8 3.1,53.1 C2,53.8 2.2,58.2 3.3,60 C3.9,61 3.9,61.2 3,60.7 C1.8,59.9 1.6,63.7 2.6,69.3 C3.1,72.2 4.9,72.6 6.2,70.1 C6.7,69.1 6.8,69.4 6.5,70.9 C6.2,72.4 6.6,73.1 7.7,73.2 C8.8,73.2 9,73.4 8.1,73.8 C7.4,74.1 6.2,73.7 5.4,73.1 C4.2,72.1 3.9,72.2 3.9,73.5 C3.9,74.4 4.3,75.1 4.8,75.1 C5.3,75.1 6.7,76.7 7.9,78.6 C10.1,82.2 12.8,82.6 10.9,79 C10.2,77.7 10.2,77.1 10.8,77.1 C11.4,77.1 12.1,78.2 12.5,79.5 C12.8,80.9 13.9,82.7 14.9,83.6 C16,84.6 16.5,86 16.2,86.9 C15.8,88.2 16,88.1 17.1,86.7 C18.3,85.2 18.9,85 20,85.9 C20.8,86.6 22.5,88 23.9,89.2 C26.7,91.5 24.8,90.8 20.7,87.9 C17.9,85.9 16.9,86.7 19.2,89 C20.2,90 20.1,90.1 18.8,89.6 C17.8,89.2 17.2,89.5 17.2,90.4 C17.2,91.3 18,91.6 19.6,91.3 C20.9,91.1 21.9,91.4 21.9,92 C21.9,92.6 22.6,92.8 23.6,92.4 C24.9,91.9 25.1,92.2 24.6,93.5 C24.2,94.4 24.3,95 24.7,94.7 C25.1,94.5 27,94.6 28.9,95.1 C32.1,95.8 31.9,95.9 26.6,96 C23,96.1 21,95.7 21.4,95.1 L21.4,95.1 Z M71.6,6.5 C71.3,6.2 70.4,6.1 69.7,6.4 C68.9,6.7 69.2,7 70.3,7 C71.4,7.1 72,6.8 71.6,6.5 L71.6,6.5 Z" id="Shape"></path>
                    <path d="M47.2,92.6 C45.9,91.2 47,88.9 48.5,89.9 C49.5,90.6 49.8,92.6 48.9,93.4 C48.6,93.7 47.9,93.3 47.2,92.6 L47.2,92.6 Z" id="Shape"></path>
                    <path d="M37.6,91.8 C36.7,91.2 36.1,89.8 36.2,88.9 C36.6,86.8 37.9,85.3 37.9,87 C37.9,87.7 38.5,87.9 39.2,87.6 C39.8,87.2 39.6,87.6 38.6,88.4 C36.8,89.9 36.8,90 38.6,90.9 C39.6,91.5 40.1,92.2 39.8,92.5 C39.5,92.8 38.5,92.5 37.6,91.8 L37.6,91.8 Z" id="Shape"></path>
                    <path d="M41.2,90.5 C41.5,90.2 41.4,88.7 40.9,87.2 L39.9,84.6 L41.5,86.9 C42.4,88.1 43.8,89.1 44.6,89.1 C45.4,89.1 45.7,89.6 45.4,90.1 C45.1,90.7 43.8,91.1 42.7,91.1 C41.5,91.1 40.8,90.8 41.2,90.5 L41.2,90.5 Z" id="Shape"></path>
                    <path d="M26.4,87.1 C26.7,86.6 27.2,86.1 27.5,86.1 C27.7,86.1 27.9,86.6 27.9,87.1 C27.9,87.7 27.4,88.1 26.8,88.1 C26.3,88.1 26.1,87.7 26.4,87.1 L26.4,87.1 Z" id="Shape"></path>
                    <path d="M43.9,86 C43.9,85.5 44.4,85.3 44.9,85.6 C45.5,85.9 45.9,86.4 45.9,86.7 C45.9,86.9 45.5,87.1 44.9,87.1 C44.4,87.1 43.9,86.6 43.9,86 L43.9,86 Z" id="Shape"></path>
                    <path d="M24,85.2 C23.9,84.5 23.3,84.1 22.4,84.5 C21.6,84.8 20.9,84.6 20.9,84.2 C20.9,83.2 24,81.8 24.6,82.5 C24.9,82.7 24.9,83.8 24.6,84.8 C24.3,85.8 24.1,86 24,85.2 L24,85.2 Z" id="Shape"></path>
                    <path d="M28.4,84.1 C28.7,83.6 29.2,83.1 29.5,83.1 C29.7,83.1 29.9,83.6 29.9,84.1 C29.9,84.7 29.4,85.1 28.8,85.1 C28.3,85.1 28.1,84.7 28.4,84.1 L28.4,84.1 Z" id="Shape"></path>
                    <path d="M34.2,82.9 C33.5,81.6 33,74.1 33.8,74.1 C34,74.1 35,75.2 36.1,76.7 C37.2,78.1 38.4,78.9 38.7,78.6 C39.1,78.3 38.8,77.7 38.1,77.2 C36.7,76.4 39.2,72.1 41.2,72.1 C42.1,72.1 42.1,72.3 41.2,72.9 C40.5,73.3 39.8,75.8 39.7,78.4 L39.4,83.2 L37.3,80.6 C35.5,78.4 35.1,78.2 34.6,79.5 C34.2,80.4 34.4,81.1 34.8,81.1 C35.3,81.1 35.9,81.8 36.3,82.6 C37,84.4 35.3,84.6 34.2,82.9 L34.2,82.9 Z" id="Shape"></path>
                    <path d="M45.6,82.3 C45.7,81.5 45.9,80.7 45.9,80.5 C45.9,80.2 46.4,80.3 46.9,80.6 C47.5,80.9 47.9,81.7 47.9,82.2 C47.9,82.8 47.5,83 47,82.7 C46.5,82.3 45.9,82.4 45.6,82.8 C45.4,83.3 45.4,83 45.6,82.3 L45.6,82.3 Z" id="Shape"></path>
                    <path d="M59.4,82.9 C59,81.9 58.3,81.3 57.9,81.6 C57.4,81.9 56.8,81.7 56.4,81.1 C56.1,80.6 56.4,80.1 57.1,80.1 C59.3,80.1 61.2,81.8 60.6,83.2 C60.3,84.3 60,84.2 59.4,82.9 L59.4,82.9 Z" id="Shape"></path>
                    <path d="M62.6,81.5 C63.1,80.1 65.9,78.8 66.7,79.6 C67,79.9 66.7,80.1 66,80.1 C65.3,80.1 64.9,80.7 65.2,81.4 C65.5,82.1 64.9,82.7 63.9,82.7 C62.9,82.7 62.3,82.1 62.6,81.5 L62.6,81.5 Z" id="Shape"></path>
                    <path d="M41.3,80.3 C41.3,79.3 41.9,78.4 42.6,78.4 C44.1,78.4 44.1,78.4 43.3,80.5 C42.5,82.7 41.3,82.5 41.3,80.3 L41.3,80.3 Z" id="Shape"></path>
                    <path d="M67.9,81.3 C67.9,80.9 68.3,80 68.8,79.3 C69.5,78.2 69.7,78.2 70.2,79.4 C70.5,80.3 70.1,81.2 69.3,81.5 C68.5,81.8 67.9,81.7 67.9,81.3 L67.9,81.3 Z" id="Shape"></path>
                    <path d="M89.4,80.1 C89.7,79.6 90.2,79.1 90.5,79.1 C90.7,79.1 90.9,79.6 90.9,80.1 C90.9,80.7 90.4,81.1 89.8,81.1 C89.3,81.1 89.1,80.7 89.4,80.1 L89.4,80.1 Z" id="Shape"></path>
                    <path d="M25.4,79.1 C24.1,78.5 23.9,78.2 24.9,78.2 C26.2,78.1 26.2,78 24.9,77 C23.6,76.2 23.7,76 25.3,76.3 C26.4,76.5 27.3,77.4 27.5,78.4 C27.6,79.3 27.7,80.1 27.6,80 C27.5,80 26.5,79.6 25.4,79.1 L25.4,79.1 Z" id="Shape"></path>
                    <path d="M12.9,77 C12.9,76.5 13.4,76.3 13.9,76.6 C14.5,76.9 14.9,77.4 14.9,77.7 C14.9,77.9 14.5,78.1 13.9,78.1 C13.4,78.1 12.9,77.6 12.9,77 L12.9,77 Z" id="Shape"></path>
                    <path d="M45.4,77.1 C45.7,76.6 46.2,76.1 46.5,76.1 C46.7,76.1 46.9,76.6 46.9,77.1 C46.9,77.7 46.4,78.1 45.8,78.1 C45.3,78.1 45.1,77.7 45.4,77.1 L45.4,77.1 Z" id="Shape"></path>
                    <path d="M76.4,77.1 C75.8,76.2 76.3,76 80.2,75.7 C80.8,75.6 81.7,74.9 82,74.1 C82.6,72.9 82.8,72.9 83.4,74.5 C84.3,76.7 81.9,78.7 80.6,76.8 C79.9,75.9 79.6,75.9 79.2,76.9 C78.6,78.4 77.3,78.5 76.4,77.1 L76.4,77.1 Z" id="Shape"></path>
                    <path d="M92.9,77.1 C92.9,76.6 93.4,76.1 94,76.1 C94.5,76.1 94.7,76.6 94.4,77.1 C94.1,77.7 93.6,78.1 93.3,78.1 C93.1,78.1 92.9,77.7 92.9,77.1 L92.9,77.1 Z" id="Shape"></path>
                    <path d="M18.6,76.4 C18.2,76.1 17.9,75.3 17.9,74.7 C17.9,74.1 18.4,74.2 19.1,74.9 C19.7,75.5 20,76.3 19.8,76.6 C19.5,76.9 18.9,76.8 18.6,76.4 L18.6,76.4 Z" id="Shape"></path>
                    <path d="M49.1,75.1 C49.1,73.7 49.3,73.2 49.6,73.9 C49.8,74.5 49.8,75.7 49.6,76.4 C49.3,77 49.1,76.5 49.1,75.1 L49.1,75.1 Z" id="Shape"></path>
                    <path d="M69,75.5 C69,74.4 69.3,74.1 69.6,74.9 C69.9,75.6 69.8,76.5 69.5,76.8 C69.2,77.2 68.9,76.6 69,75.5 L69,75.5 Z" id="Shape"></path>
                    <path d="M43.4,75.1 C43.7,74.6 44.5,74.1 45,74.1 C45.6,74.1 45.7,74.6 45.4,75.1 C45.1,75.7 44.3,76.1 43.8,76.1 C43.2,76.1 43.1,75.7 43.4,75.1 L43.4,75.1 Z" id="Shape"></path>
                    <path d="M13.3,73.8 C13,72.9 12,72.5 11.1,72.8 C10,73.1 9.8,73 10.5,72.4 C11.1,72 11.9,70.6 12.3,69.3 C12.7,68.1 13.5,67.4 14.1,67.7 C14.8,68.1 14.7,68.6 13.9,69.1 C13.1,69.6 12.9,70.6 13.3,71.7 C14,73.5 14.1,73.5 15.5,71.7 C16.2,70.6 17.1,69.9 17.3,70.2 C17.5,70.4 16.9,71.7 15.8,73 C14.3,74.9 13.8,75 13.3,73.8 L13.3,73.8 Z" id="Shape"></path>
                    <path d="M54.9,74.1 C54.9,73.6 55.6,73.1 56.4,73.1 C57.2,73.1 57.9,73.6 57.9,74.1 C57.9,74.7 57.2,75.1 56.4,75.1 C55.6,75.1 54.9,74.7 54.9,74.1 L54.9,74.1 Z" id="Shape"></path>
                    <path d="M86.5,73.6 C86.9,72.5 86.7,72.3 85.6,72.7 C84.8,73 83.8,72.8 83.4,72.2 C83,71.5 83.6,71.2 85.1,71.5 C86.4,71.8 87.7,72 88.1,72 C89.1,72.1 87.9,75.1 86.8,75.1 C86.4,75.1 86.2,74.4 86.5,73.6 L86.5,73.6 Z" id="Shape"></path>
                    <path d="M19.4,73.1 C18.1,72.5 17.9,72.2 18.9,72.2 C19.7,72.2 21.1,72.6 21.9,73.1 C23.7,74.3 22.1,74.3 19.4,73.1 L19.4,73.1 Z" id="Shape"></path>
                    <path d="M36.2,72.6 C36.2,71.8 36.6,71.4 37.1,71.7 C37.6,72 37.7,72.7 37.4,73.2 C36.5,74.5 36.2,74.3 36.2,72.6 L36.2,72.6 Z" id="Shape"></path>
                    <path d="M77.9,73.2 C77.9,72.7 78.4,71.9 78.9,71.6 C79.5,71.3 79.9,71.4 79.9,72 C79.9,72.5 79.5,73.3 78.9,73.6 C78.4,73.9 77.9,73.8 77.9,73.2 L77.9,73.2 Z" id="Shape"></path>
                    <path d="M91.4,73.1 C91.7,72.6 92.2,72.1 92.5,72.1 C92.7,72.1 92.9,72.6 92.9,73.1 C92.9,73.7 92.4,74.1 91.8,74.1 C91.3,74.1 91.1,73.7 91.4,73.1 L91.4,73.1 Z" id="Shape"></path>
                    <path d="M96.4,69.7 C97.2,67.7 98,65 98.1,63.6 C98.2,62.2 98.7,61.1 99.2,61.1 C99.6,61.1 99.7,60.6 99.4,60 C98.9,59.3 98,59.6 96.8,60.7 C95,62.3 94.9,62.3 95.5,60.8 C95.8,59.9 96.5,59.1 96.9,59.1 C98.1,59.1 98.8,55.3 97.8,54.7 C97.3,54.5 97.4,54.4 98.1,54.5 C98.8,54.6 99.4,55.7 99.5,56.8 C99.6,57.9 99.9,59.4 100.3,60 C100.7,60.7 100.6,61.7 100.1,62.4 C99.6,63.1 98.9,65.2 98.5,67.2 C98.1,69.3 97.2,71.4 96.4,72.1 C95.1,73.2 95.1,72.9 96.4,69.7 L96.4,69.7 Z" id="Shape"></path>
                    <path d="M31.1,70.9 C29.1,68.9 29.7,67.7 31.8,69.5 C33.5,71.1 33.8,71.1 34.2,69.7 C34.6,68.3 34.7,68.3 34.5,69.7 C34.4,71.9 32.7,72.5 31.1,70.9 L31.1,70.9 Z" id="Shape"></path>
                    <path d="M38,69.5 C38,68.4 38.3,68.1 38.6,68.9 C38.9,69.6 38.8,70.5 38.5,70.8 C38.2,71.2 37.9,70.6 38,69.5 L38,69.5 Z" id="Shape"></path>
                    <path d="M43.6,69.4 C44,68.4 44.7,67.3 45.2,67 C45.8,66.6 45.3,65 44,63.3 C41.8,60.1 42.1,57.1 44.6,57.1 C45.5,57.1 45.9,56.5 45.6,55.8 C45.3,55 45.5,53.8 46,53 C46.7,51.9 46.9,51.9 46.9,52.9 C46.9,53.6 47.4,53.9 48,53.6 C48.6,53.2 48.9,53.6 48.7,54.7 C48.5,55.8 47.2,57.1 45.7,57.8 L42.9,59 L44.8,62.3 C46.9,65.9 46.6,71.1 44.3,71.1 C43.4,71.1 43.2,70.5 43.6,69.4 L43.6,69.4 Z" id="Shape"></path>
                    <path d="M90.4,70.1 C90.7,69.6 90.6,69.1 90,69.1 C88.3,69.1 87.5,64.2 88.9,62.6 C89.6,61.8 91.1,61.1 92.3,61.1 C94.3,61.1 94.3,61.2 92,62.4 C88.7,64 88.5,65.3 90.9,68 L92.9,70.4 L93.9,67.7 C94.4,66.3 95,65.1 95.3,65.1 C96.1,65.1 94.6,69.6 93.5,70.3 C91.9,71.4 89.7,71.3 90.4,70.1 L90.4,70.1 Z" id="Shape"></path>
                    <path d="M40.5,67.6 C41.3,63.9 41.5,63.7 42.2,65.5 C42.5,66.3 42.1,67.7 41.3,68.8 C40,70.5 39.9,70.4 40.5,67.6 L40.5,67.6 Z" id="Shape"></path>
                    <path d="M66.2,67.7 C66.6,64.4 67.5,63.5 68.1,65.8 C68.4,66.8 68,68.2 67.2,69 C66,70.1 65.9,69.9 66.2,67.7 L66.2,67.7 Z" id="Shape"></path>
                    <path d="M81.5,68.8 C82.7,68.1 83.5,67.2 83.3,66.6 C82.8,65.2 85.7,61.6 86.6,62.4 C87,62.8 86.7,63.7 86.1,64.3 C84.6,65.8 84.5,68.5 85.9,67.6 C86.5,67.3 86.9,67.6 86.9,68.3 C86.9,69.1 85.5,69.7 83.1,69.8 C79.8,69.9 79.6,69.8 81.5,68.8 L81.5,68.8 Z" id="Shape"></path>
                    <path d="M2.9,67.1 C2.9,66 3.3,65.1 3.8,65.1 C4.4,65.1 4.7,66 4.6,67.1 C4.5,68.2 4.1,69.1 3.7,69.1 C3.3,69.1 2.9,68.2 2.9,67.1 L2.9,67.1 Z" id="Shape"></path>
                    <path d="M21.5,68.2 C21.1,67.5 21,66.7 21.3,66.4 C22.2,65.5 23.2,66.8 22.7,68.2 C22.3,69.3 22.1,69.3 21.5,68.2 L21.5,68.2 Z" id="Shape"></path>
                    <path d="M25.9,68.1 C25.8,67.8 25.6,66.8 25.4,65.8 C24.9,63.1 24.3,62.8 21.9,64.1 L19.7,65.3 L21.5,62.1 C23.4,59 23.4,58.9 21.5,57.5 C19.3,55.9 17.9,56.5 19.7,58.3 C21.5,60.1 21.2,61.1 18.2,62.2 C16.2,62.9 15.8,63.4 16.8,64 C17.6,64.5 17.7,65.1 17.1,65.5 C16.6,65.8 15.8,65.3 15.4,64.4 C15.1,63.4 15.2,62.5 15.8,62.3 C16.3,62.1 16.7,61.4 16.5,60.8 C16.4,60.1 16.4,59.9 16.6,60.3 C16.8,60.7 17.7,60.7 18.5,60.4 C19.8,59.9 19.8,59.6 18.5,58.2 C17.3,56.8 17.3,56.4 18.5,55.3 C19.3,54.6 19.9,54.4 19.9,55 C19.9,55.5 20.6,56.2 21.4,56.5 C22.3,56.8 22.9,56.6 22.8,55.8 C22.3,51.7 23.1,51 24.4,54.5 C25.2,56.7 25.6,58.8 25.4,59.2 C25.1,59.6 25.9,61 27,62.5 C29.3,65.4 31.5,65.1 29.9,62.1 C29.2,60.8 29.2,60 29.9,59.6 C30.4,59.3 30.9,59.7 30.9,60.7 C30.9,61.9 31.5,62.2 33,61.8 L35.1,61.2 L33,63.3 C31.8,64.4 31,65.6 31.4,65.9 C31.7,66.3 32.4,65.9 32.9,65.1 C33.7,63.8 33.9,63.9 33.9,65.3 C33.9,67.4 32.3,68.5 31.4,67 C31,66.5 30.1,66.2 29.3,66.5 C28.5,66.8 27.9,66.5 27.8,65.8 C27.8,65.1 27.4,65.5 26.9,66.6 C26.4,67.7 26,68.4 25.9,68.1 L25.9,68.1 Z M25.7,62.1 C25,61.1 24.3,60.4 24,60.6 C23.6,61 25.8,64.1 26.5,64.1 C26.7,64.1 26.4,63.2 25.7,62.1 L25.7,62.1 Z" id="Shape"></path>
                    <path d="M55.4,67.1 C58.1,65.9 58.9,65.9 58.9,67.1 C58.9,67.7 57.7,68.1 56.2,68 C53.7,68 53.6,67.9 55.4,67.1 L55.4,67.1 Z" id="Shape"></path>
                    <path d="M91.9,66.4 C91.9,64.9 93.7,62.9 94.6,63.2 C95.1,63.4 94.7,64.4 93.7,65.4 C92.7,66.3 91.9,66.8 91.9,66.4 L91.9,66.4 Z" id="Shape"></path>
                    <path d="M100.5,64.8 C100.8,63.8 101.4,63.3 101.7,63.6 C102,63.9 101.7,64.7 101,65.4 C100,66.3 99.9,66.2 100.5,64.8 L100.5,64.8 Z" id="Shape"></path>
                    <path d="M12.4,64 C12,63.4 11.9,62.8 12.2,62.5 C12.4,62.2 12.9,62.7 13.2,63.6 C13.9,65.3 13.3,65.6 12.4,64 L12.4,64 Z" id="Shape"></path>
                    <path d="M61.9,64.1 C63.9,62.8 65.2,62.8 64.4,64.1 C64.1,64.7 63,65.1 62.1,65.1 C60.6,65.1 60.6,64.9 61.9,64.1 L61.9,64.1 Z" id="Shape"></path>
                    <path d="M68.4,63.5 C67.4,62.7 67,62.1 67.6,62.1 C68.2,62.1 69.5,61.8 70.3,61.5 C71.6,61 71.8,61.3 71.2,62.7 C70.6,64.3 70.8,64.4 72,63.4 C73.1,62.5 73.9,62.5 74.6,63.2 C75.4,64 75.9,63.7 76.3,62.3 C76.7,61.2 77.9,60.1 78.9,59.8 C81.6,59.1 81.4,59.9 78.2,62.5 C74.9,65 71.1,65.4 68.4,63.5 L68.4,63.5 Z" id="Shape"></path>
                    <path d="M4.4,63.1 C4.7,62.6 5.2,62.1 5.5,62.1 C5.7,62.1 5.9,62.6 5.9,63.1 C5.9,63.7 5.4,64.1 4.8,64.1 C4.3,64.1 4.1,63.7 4.4,63.1 L4.4,63.1 Z" id="Shape"></path>
                    <path d="M8.5,62.6 C7.6,60 7.8,59.4 9,61.4 C9.6,62.4 9.9,63.5 9.6,63.7 C9.4,64 8.9,63.5 8.5,62.6 L8.5,62.6 Z" id="Shape"></path>
                    <path d="M35.6,61.6 C34.8,59.6 35.2,58.7 36.7,59.2 C37.2,59.4 37.3,60.5 36.9,61.5 C36.3,63.4 36.2,63.4 35.6,61.6 L35.6,61.6 Z" id="Shape"></path>
                    <path d="M39.4,60.1 C37.7,56.7 35.5,56.2 34,58.9 C33.4,59.8 32.9,60.1 32.9,59.4 C32.9,58.8 33.3,58 33.9,57.6 C34.4,57.3 34.6,56.4 34.3,55.6 C33.6,53.9 35.6,50.1 37.2,50.1 C38,50.1 38.1,50.4 37.3,50.9 C36.7,51.3 36,52.6 35.7,53.7 C35.2,55.5 35.5,55.9 37.5,55.6 C38.8,55.5 39.6,55.8 39.3,56.2 C39,56.7 39.5,58.4 40.4,60.1 C41.2,61.7 41.7,63.1 41.5,63.1 C41.2,63.1 40.3,61.8 39.4,60.1 L39.4,60.1 Z" id="Shape"></path>
                    <path d="M54.9,62.7 C54.9,62.5 55.6,62 56.5,61.7 C57.3,61.4 57.7,61.5 57.4,62.1 C56.8,63.1 54.9,63.5 54.9,62.7 L54.9,62.7 Z" id="Shape"></path>
                    <path d="M59.9,62.1 C59.9,61.6 60.6,61.1 61.5,61.1 C62.3,61.1 62.7,61.6 62.4,62.1 C62.1,62.7 61.4,63.1 60.8,63.1 C60.3,63.1 59.9,62.7 59.9,62.1 L59.9,62.1 Z" id="Shape"></path>
                    <path d="M82.4,62.1 C82.1,61.6 82.3,61.1 82.8,61.1 C83.4,61.1 83.9,61.6 83.9,62.1 C83.9,62.7 83.7,63.1 83.5,63.1 C83.2,63.1 82.7,62.7 82.4,62.1 L82.4,62.1 Z" id="Shape"></path>
                    <path d="M11.9,60 C11.9,59.5 12.4,59.3 12.9,59.6 C13.5,59.9 13.9,60.4 13.9,60.7 C13.9,60.9 13.5,61.1 12.9,61.1 C12.4,61.1 11.9,60.6 11.9,60 L11.9,60 Z" id="Shape"></path>
                    <path d="M50.8,59.1 C52.2,58 54.2,57.1 55.3,57.2 C58.7,57.4 59.5,57.1 57.9,56.1 C57.1,55.6 56.9,55.1 57.5,55.1 C58.1,55.1 59.2,55.7 59.8,56.5 C60.7,57.5 60.5,58.2 59.2,59.2 C57.9,60.3 57.5,60.3 57.2,59.4 C56.6,57.6 53.8,57.8 50.9,59.7 L48.4,61.3 L50.8,59.1 L50.8,59.1 Z" id="Shape"></path>
                    <path d="M72.4,60.1 C72.1,59.6 72.4,59.1 73.2,59.1 C74,59.1 76.7,56.9 79.2,54.2 C81.7,51.5 84,49.5 84.3,49.8 C84.6,50.1 84.1,51.1 83.2,51.9 C81.8,53.4 81.9,53.6 84.3,54.4 C85.7,54.9 86.7,55.7 86.4,56.1 C85.7,57.2 82.7,56.2 81.6,54.7 C81.1,54 80.5,54.2 79.8,55.4 C78.5,57.5 74.8,61.1 73.8,61.1 C73.4,61.1 72.7,60.7 72.4,60.1 L72.4,60.1 Z" id="Shape"></path>
                    <path d="M87.6,59.8 C86.7,57.4 88.4,55.8 89.9,57.6 C91,58.9 90.9,59 89.5,58.5 C88.3,58 88,58.3 88.5,59.5 C88.8,60.4 88.9,61.1 88.6,61.1 C88.3,61.1 87.9,60.5 87.6,59.8 L87.6,59.8 Z" id="Shape"></path>
                    <path d="M68.9,59.1 C68.9,58.6 69.4,58.1 70,58.1 C70.5,58.1 70.7,58.6 70.4,59.1 C70.1,59.7 69.6,60.1 69.3,60.1 C69.1,60.1 68.9,59.7 68.9,59.1 L68.9,59.1 Z" id="Shape"></path>
                    <path d="M80.9,58.6 C79.9,57.4 79.9,57.1 81.3,57.1 C82.2,57.1 82.9,57.8 82.9,58.6 C82.9,59.4 82.7,60.1 82.5,60.1 C82.3,60.1 81.6,59.4 80.9,58.6 L80.9,58.6 Z" id="Shape"></path>
                    <path d="M92,57.9 C91,55.2 91.8,53.3 93.1,55.2 C93.7,56.2 93.8,55.9 93.4,54.2 C92.9,52.6 93,52.1 93.8,52.5 C95.2,53.4 95.3,57.1 93.9,57.1 C93.4,57.1 93.2,57.8 93.5,58.6 C93.9,59.4 93.8,60.1 93.5,60.1 C93.1,60.1 92.5,59.1 92,57.9 L92,57.9 Z" id="Shape"></path>
                    <path d="M65.9,58.1 C65.9,57.6 66.4,57.1 66.9,57.1 C67.5,57.1 67.9,57.6 67.9,58.1 C67.9,58.7 67.5,59.1 66.9,59.1 C66.4,59.1 65.9,58.7 65.9,58.1 L65.9,58.1 Z" id="Shape"></path>
                    <path d="M9.9,57.4 C9.9,56.8 10.7,55.7 11.7,55 C13.3,53.7 13.3,53.7 11.9,55.6 C11.1,56.7 10.3,57.8 10.2,58 C10,58.2 9.9,58 9.9,57.4 L9.9,57.4 Z" id="Shape"></path>
                    <path d="M28.9,57.1 C28.9,56.6 29.6,56.4 30.4,56.7 C31.2,57.1 31.9,57.5 31.9,57.7 C31.9,57.9 31.2,58.1 30.4,58.1 C29.6,58.1 28.9,57.7 28.9,57.1 L28.9,57.1 Z" id="Shape"></path>
                    <path d="M4.9,56.1 C4.9,55.6 5.3,55.1 5.8,55.1 C6.4,55.1 7.1,55.6 7.4,56.1 C7.7,56.7 7.3,57.1 6.5,57.1 C5.6,57.1 4.9,56.7 4.9,56.1 L4.9,56.1 Z" id="Shape"></path>
                    <path d="M101.9,56.5 C101.8,56 100.9,54.5 99.8,53.2 C98.1,51.1 97.6,51 96.8,52.2 C96.2,53.1 96.1,52.4 96.5,49.9 C96.8,47.8 96.6,45.4 96.1,44.4 C95.2,42.9 96.6,40.1 98.3,40.1 C99.7,40.1 101.9,43.6 101.8,45.9 C101.8,47.4 101.5,48 101.2,47.3 C101,46.7 100.3,46.3 99.8,46.7 C99.3,47 98.9,46.7 98.9,46.2 C98.9,45.6 99.3,45.1 99.9,45.1 C100.4,45.1 100.6,44.5 100.3,43.8 C99.8,42.3 96.9,41.9 96.9,43.3 C96.9,43.7 97.4,44.1 98,44.1 C98.5,44.1 98.8,44.5 98.5,45 C98.1,45.5 98.6,47.4 99.6,49.3 C102.8,55.8 103,56.3 102.5,56.9 C102.2,57.2 101.9,57 101.9,56.5 L101.9,56.5 Z" id="Shape"></path>
                    <path d="M26,54.8 C25.2,53.8 25.3,53.4 26.4,53.4 C27.2,53.4 27.9,54 27.9,54.8 C27.9,55.5 27.7,56.1 27.5,56.1 C27.3,56.1 26.6,55.5 26,54.8 L26,54.8 Z" id="Shape"></path>
                    <path d="M61.9,55.1 C61,54.5 60.9,54.1 61.6,54.1 C62.2,54.1 63.1,54.6 63.4,55.1 C64.2,56.3 63.8,56.3 61.9,55.1 L61.9,55.1 Z" id="Shape"></path>
                    <path d="M65.4,55.1 C65.7,54.6 66.2,54.1 66.5,54.1 C66.7,54.1 66.9,54.6 66.9,55.1 C66.9,55.7 66.4,56.1 65.8,56.1 C65.3,56.1 65.1,55.7 65.4,55.1 L65.4,55.1 Z" id="Shape"></path>
                    <path d="M68.7,54.4 C69.3,54.1 69.9,53.5 69.9,52.9 C69.9,52.3 69.1,52.2 68.2,52.6 C66.7,53.1 66.6,53 67.7,52 C69.5,50.1 69.2,49.4 66,48.8 C63.6,48.3 63.2,47.8 63.6,46.1 C64,44.5 64.4,44.3 65.6,45.2 C66.7,46.2 66.7,46.6 65.7,47.3 C64.8,47.9 65,48.1 66.4,47.9 C67.7,47.7 68.8,48.5 69.7,50.4 C70.4,51.9 71.5,53.1 72,53.1 C72.6,53.1 72.7,52.6 72.3,52 C71.8,51.2 72.2,51.2 73.7,52 C74.9,52.6 76.1,53.7 76.5,54.4 C77,55.1 76.6,55 75.5,54.2 C74.4,53.3 73.5,53.1 73.1,53.7 C72.7,54.3 71.3,54.7 69.9,54.8 C68.5,54.9 68,54.7 68.7,54.4 L68.7,54.4 Z" id="Shape"></path>
                    <path d="M7.1,53 C7.3,52.3 8.1,51.5 8.8,51.3 C9.6,51 10,51.4 9.7,52.2 C9.5,52.9 8.7,53.7 8,53.9 C7.2,54.2 6.8,53.8 7.1,53 L7.1,53 Z" id="Shape"></path>
                    <path d="M15.6,52 C14.4,47.6 18.5,42.3 21.1,44.9 C21.9,45.7 21.6,45.8 20.2,45.5 C17.6,44.8 15.4,49.3 16.9,52.2 C17.5,53.2 17.6,54.1 17.1,54.1 C16.5,54.1 15.9,53.2 15.6,52 L15.6,52 Z" id="Shape"></path>
                    <path d="M40.9,53.1 C41.7,52.6 42.9,52.1 43.4,52.1 C44,52.1 43.7,52.6 42.9,53.1 C42.1,53.6 41,54.1 40.4,54.1 C39.9,54.1 40.1,53.6 40.9,53.1 L40.9,53.1 Z" id="Shape"></path>
                    <path d="M87.4,53.1 C87.1,52.6 87.2,52.1 87.8,52.1 C88.3,52.1 89.1,52.6 89.4,53.1 C89.7,53.7 89.6,54.1 89,54.1 C88.5,54.1 87.7,53.7 87.4,53.1 L87.4,53.1 Z" id="Shape"></path>
                    <path d="M58.4,52.1 C58.7,51.6 59.2,51.1 59.5,51.1 C59.7,51.1 59.9,51.6 59.9,52.1 C59.9,52.7 59.4,53.1 58.8,53.1 C58.3,53.1 58.1,52.7 58.4,52.1 L58.4,52.1 Z" id="Shape"></path>
                    <path d="M90.9,51.6 C90.9,50.5 90.4,50.1 89.4,50.5 C88.5,50.8 87.9,50.5 87.9,49.6 C87.9,48.7 87.3,48.4 86.2,48.8 C84.8,49.3 84.6,49.1 85.6,48.1 C86.6,47 87.3,47.1 89.3,48.4 C91.7,50 91.8,50 92.1,47.3 L92.5,44.6 L93.3,47.3 C93.9,49.3 93.7,50.5 92.5,51.6 C91,53.1 90.9,53.1 90.9,51.6 L90.9,51.6 Z" id="Shape"></path>
                    <path d="M12.4,51.1 C12.1,50.6 12.2,49.4 12.7,48.5 C13.5,47.1 13.7,47.3 13.7,49.4 C13.7,52.3 13.4,52.7 12.4,51.1 L12.4,51.1 Z" id="Shape"></path>
                    <path d="M39.2,49.4 C38.2,47.4 38.3,47.1 39.4,48.1 C40.4,48.9 40.8,48.9 41.2,47.9 C41.5,47.2 41.8,47.6 41.8,48.8 C41.9,52 40.6,52.3 39.2,49.4 L39.2,49.4 Z" id="Shape"></path>
                    <path d="M51.9,50.7 C51.9,49.9 51.7,48.6 51.4,47.8 C50.9,46.8 51.6,46.5 53.9,46.6 C55.5,46.7 57.2,47.1 57.7,47.5 C58.1,48 57.3,48.1 55.9,47.9 C53.8,47.7 53.4,48 53.6,49.9 C53.8,51.1 53.4,52.1 52.9,52.1 C52.3,52.1 51.9,51.5 51.9,50.7 L51.9,50.7 Z" id="Shape"></path>
                    <path d="M29.4,50.1 C29.1,49.6 29.3,49.1 29.8,49.1 C30.4,49.1 30.9,49.6 30.9,50.1 C30.9,50.7 30.7,51.1 30.5,51.1 C30.2,51.1 29.7,50.7 29.4,50.1 L29.4,50.1 Z" id="Shape"></path>
                    <path d="M22.2,48.8 C22.6,47.8 22.9,46 23,44.8 C23,43.6 23.3,43.1 23.5,43.8 C23.8,44.5 24.8,44.8 25.7,44.5 C27.2,44 27.2,44.1 25.6,45.1 C24.7,45.7 24.1,46.6 24.4,47 C24.6,47.5 24.1,48.5 23.2,49.2 C21.7,50.4 21.6,50.4 22.2,48.8 L22.2,48.8 Z" id="Shape"></path>
                    <path d="M26.8,48.4 C27.4,47.2 28.4,46 29.1,45.8 C30.1,45.4 30,45 28.9,44.2 C27.9,43.5 27.8,43.1 28.6,43.1 C29.3,43.1 30.3,44 30.9,45 C32.3,47.7 32.2,48.1 30.4,47.4 C29.5,47.1 28.2,47.7 27.3,48.7 C25.9,50.5 25.8,50.5 26.8,48.4 L26.8,48.4 Z" id="Shape"></path>
                    <path d="M32.9,49.7 C32.9,49.5 33.6,48.8 34.4,48.1 C35.3,47.4 35.9,47.3 35.9,47.9 C35.9,48.4 35.2,49.1 34.4,49.5 C33.6,49.8 32.9,49.9 32.9,49.7 L32.9,49.7 Z" id="Shape"></path>
                    <path d="M72.3,49 C71.9,48.2 72,48.1 72.7,48.5 C73.3,48.9 74.7,48.3 75.8,47.2 C76.9,46.1 78,45.5 78.3,46 C78.6,46.4 77.5,47.5 75.9,48.4 C73.8,49.7 72.8,49.8 72.3,49 L72.3,49 Z" id="Shape"></path>
                    <path d="M43.9,48.1 C43.9,47.6 44.4,47.1 45,47.1 C45.5,47.1 45.7,47.6 45.4,48.1 C45.1,48.7 44.6,49.1 44.3,49.1 C44.1,49.1 43.9,48.7 43.9,48.1 L43.9,48.1 Z" id="Shape"></path>
                    <path d="M80.9,47.1 C80.9,46.6 81.4,46.1 81.9,46.1 C82.5,46.1 82.9,46.6 82.9,47.1 C82.9,47.7 82.5,48.1 81.9,48.1 C81.4,48.1 80.9,47.7 80.9,47.1 L80.9,47.1 Z" id="Shape"></path>
                    <path d="M9.8,47.1 C9.1,42.3 9.3,41.1 10.7,40 C12.1,38.9 12.2,38.9 11.2,40.1 C10.3,41 10.3,42 11,43.4 C11.8,44.7 11.8,45.6 11,46.4 C10.4,47 9.9,47.3 9.8,47.1 L9.8,47.1 Z" id="Shape"></path>
                    <path d="M69.3,46.3 C66.7,44.6 65.4,38 67.9,39.6 C68.4,39.9 68.5,40.9 68.2,41.8 C67.8,42.7 68.3,43.9 69.4,44.7 C71.3,46.1 71.2,47.5 69.3,46.3 L69.3,46.3 Z" id="Shape"></path>
                    <path d="M72.7,46.4 C73.4,46.1 74.3,46.2 74.6,46.5 C75,46.8 74.4,47.1 73.3,47 C72.2,47 71.9,46.7 72.7,46.4 L72.7,46.4 Z" id="Shape"></path>
                    <path d="M33.4,45.1 C33.8,44.5 34.5,44.3 35,44.6 C36.4,45.5 36.1,46.1 34.3,46.1 C33.5,46.1 33.1,45.6 33.4,45.1 L33.4,45.1 Z" id="Shape"></path>
                    <path d="M37.6,45.4 C36.6,44.5 36.7,42.1 37.7,42.1 C38.1,42.1 38.5,43 38.5,44.1 C38.5,46.4 38.5,46.3 37.6,45.4 L37.6,45.4 Z" id="Shape"></path>
                    <path d="M90.1,44 C90.3,42.7 90,41.7 89.4,41.8 C88.9,41.9 88.4,39.9 88.3,37.5 C88.3,35.1 88.6,33.1 89.1,33.1 C89.9,33.1 90.3,34.6 90,37 C89.8,37.7 90.3,38 90.9,37.6 C91.6,37.2 91.8,37.8 91.5,39.6 C91.1,41.6 91.3,42.1 92.5,41.7 C94.4,41 94.3,41.4 91.9,44.1 L89.9,46.5 L90.1,44 L90.1,44 Z" id="Shape"></path>
                    <path d="M49.5,44.3 C49.1,43.6 49,42.7 49.4,42.2 C49.7,41.7 49.5,41 49,40.7 C48.5,40.3 48.7,38.8 49.6,37 C51.4,33.3 52.5,33.8 50.7,37.5 C49.9,39.4 49.8,40.5 50.6,40.9 C51.2,41.3 51.3,42.5 50.9,43.5 C50.5,44.9 50,45.1 49.5,44.3 L49.5,44.3 Z" id="Shape"></path>
                    <path d="M55.9,44 C55.9,43.4 56.5,43.1 57.3,43.4 C58.1,43.7 59,43.5 59.3,42.8 C59.5,42.1 59.8,42.4 59.8,43.4 C59.9,44.5 59.2,45.1 57.9,45.1 C56.8,45.1 55.9,44.6 55.9,44 L55.9,44 Z" id="Shape"></path>
                    <path d="M80.4,44.1 C80.1,43.6 80.3,43.1 80.8,43.1 C81.4,43.1 81.9,43.6 81.9,44.1 C81.9,44.7 81.7,45.1 81.5,45.1 C81.2,45.1 80.7,44.7 80.4,44.1 L80.4,44.1 Z" id="Shape"></path>
                    <path d="M12.9,42.6 C11.9,41.4 11.9,41.1 13.1,41.1 C13.9,41.1 14.6,41.8 14.6,42.6 C14.6,43.4 14.5,44.1 14.4,44.1 C14.2,44.1 13.6,43.4 12.9,42.6 L12.9,42.6 Z" id="Shape"></path>
                    <path d="M53.3,42.2 C53.3,41.1 53.8,40.5 54.6,40.8 C55.6,41.2 55.7,41.7 54.8,42.7 C53.3,44.5 53.3,44.5 53.3,42.2 L53.3,42.2 Z" id="Shape"></path>
                    <path d="M85.4,43.1 C85.1,42.6 85.3,42.1 85.8,42.1 C86.4,42.1 86.9,42.6 86.9,43.1 C86.9,43.7 86.7,44.1 86.5,44.1 C86.2,44.1 85.7,43.7 85.4,43.1 L85.4,43.1 Z" id="Shape"></path>
                    <path d="M61.4,42.2 C60.5,40.6 62.3,40.2 63.7,41.7 C64.7,42.9 64.7,43.1 63.5,43.1 C62.7,43.1 61.8,42.7 61.4,42.2 L61.4,42.2 Z" id="Shape"></path>
                    <path d="M73.4,42.2 C73.1,41.7 73.3,41 73.9,40.6 C74.4,40.3 74.9,40.7 74.9,41.5 C74.9,43.3 74.3,43.6 73.4,42.2 L73.4,42.2 Z" id="Shape"></path>
                    <path d="M78.9,41.1 C81.5,38.8 83.4,38.6 84.5,40.3 C85,41 84.6,41.2 83.3,40.9 C82.2,40.6 80.8,41 80.1,41.8 C79.4,42.5 78.3,43.1 77.7,43.1 C77.1,43.1 77.6,42.2 78.9,41.1 L78.9,41.1 Z" id="Shape"></path>
                    <path d="M43.9,41.7 C43.9,41.5 44.6,41.1 45.4,40.7 C46.2,40.4 46.9,40.6 46.9,41.1 C46.9,41.7 46.2,42.1 45.4,42.1 C44.6,42.1 43.9,41.9 43.9,41.7 L43.9,41.7 Z" id="Shape"></path>
                    <path d="M17,40.1 C17,39.3 17.4,37.9 17.9,37.1 C19.1,35.3 19.1,36.9 17.9,39.6 C17.3,40.9 17,41.1 17,40.1 L17,40.1 Z" id="Shape"></path>
                    <path d="M64.6,40.4 C64.2,40.1 63.9,39.1 63.9,38.2 C64,36.9 64.2,36.9 65,38.4 C66.1,40.3 65.8,41.7 64.6,40.4 L64.6,40.4 Z" id="Shape"></path>
                    <path d="M38.9,38.6 C38,37.6 38,37.1 38.8,37.1 C39.4,37.1 39.9,37.5 39.9,38 C39.9,38.5 40.9,39.2 42.2,39.4 C44.3,39.8 44.3,39.8 42.3,40 C41.1,40 39.6,39.4 38.9,38.6 L38.9,38.6 Z" id="Shape"></path>
                    <path d="M56.4,39.1 C56,38.5 56.2,37.4 56.8,36.7 C57.7,35.6 57.6,34.9 56.5,33.8 C55.7,33 55.3,32.1 55.6,31.7 C56,31.4 55.7,31.1 55.1,31.1 C54.5,31.1 54.2,30.5 54.5,29.7 C54.8,28.9 54.6,28 54,27.6 C53.4,27.3 52.9,26.3 52.9,25.4 C52.9,23.6 54.4,24.6 54.4,26.4 C54.4,27.1 55.2,27.5 56.2,27.5 C58,27.3 58.5,28.6 56.9,29.6 C56.4,29.9 56.2,30.8 56.5,31.6 C56.9,32.4 57.4,32.9 57.8,32.6 C58.2,32.4 58.5,34 58.5,36.2 C58.4,40 57.6,41.1 56.4,39.1 L56.4,39.1 Z" id="Shape"></path>
                    <path d="M76.1,37.7 C75.4,36.1 75.3,35.1 76,35.1 C77.2,35.1 78.2,37.6 77.7,39.2 C77.5,39.8 76.8,39.2 76.1,37.7 L76.1,37.7 Z" id="Shape"></path>
                    <path d="M30.9,38.3 C30.9,37.2 34.6,35.1 35.3,35.8 C35.6,36.2 35.9,36.9 35.9,37.5 C35.9,38.1 35.5,37.9 34.9,37.1 C34.1,35.9 33.9,35.9 33.3,37.4 C32.7,39.1 30.9,39.8 30.9,38.3 L30.9,38.3 Z" id="Shape"></path>
                    <path d="M81.3,36.6 C81,35.8 80.9,34.6 81.1,33.9 C81.4,33.2 81.8,33.8 82.1,35.4 C82.7,38.3 82.2,39 81.3,36.6 L81.3,36.6 Z" id="Shape"></path>
                    <path d="M13.4,36.1 C13.7,35.6 14.2,35.1 14.5,35.1 C14.7,35.1 14.9,35.6 14.9,36.1 C14.9,36.7 14.4,37.1 13.8,37.1 C13.3,37.1 13.1,36.7 13.4,36.1 L13.4,36.1 Z" id="Shape"></path>
                    <path d="M47.5,35.2 C47.1,34.6 47.3,34.1 48,34.1 C48.7,34.1 48.4,33.4 47.3,32.6 C46.2,31.8 45.9,31.1 46.7,31.1 C47.3,31.1 47.9,30.4 47.9,29.4 C47.9,27.1 48.7,28.1 49.2,31.2 C49.8,34.2 48.6,37 47.5,35.2 L47.5,35.2 Z" id="Shape"></path>
                    <path d="M52.9,35.3 C52.9,34.8 53.6,34.4 54.4,34.4 C55.2,34.4 55.6,34.8 55.3,35.3 C55,35.7 54.4,36.1 53.8,36.1 C53.3,36.1 52.9,35.7 52.9,35.3 L52.9,35.3 Z" id="Shape"></path>
                    <path d="M62.9,34.4 C62.9,33.7 63.4,33.1 64.1,33.1 C64.7,33.1 64.4,32.2 63.4,31.1 C62.4,30 61.8,28.9 62.1,28.6 C63,27.7 65,30.8 65.3,33.4 C65.5,34.8 65.1,35.8 64.2,35.8 C63.5,35.8 62.9,35.2 62.9,34.4 L62.9,34.4 Z" id="Shape"></path>
                    <path d="M84.9,33.5 C84.9,32.7 84.5,32.2 84,32.5 C83.5,32.8 82.8,32.4 82.5,31.6 C82.1,30.3 82.3,30.2 83.9,31.1 C86.6,32.6 86.4,30.9 83.7,29.2 C82.1,28.2 81.4,28.2 81.1,29 C80.9,29.6 79.9,30.1 78.8,30.1 C77.8,30.1 76.9,30.7 76.9,31.4 C76.9,32.2 76.5,32.1 75.9,31.1 C75,29.8 74.8,29.8 73.9,31.1 C73.1,32.4 72.9,32.3 72.9,30.9 C72.9,29.3 75.5,28.5 79,28.9 C79.4,29 80.5,28.1 81.4,27.1 C82.4,26 83.7,25.1 84.3,25.1 C84.9,25.1 84.8,25.5 84,26 C82.9,26.7 83,27.1 84.7,28 C86.2,28.8 86.8,30 86.6,32.1 C86.4,35.1 84.9,36.4 84.9,33.5 L84.9,33.5 Z" id="Shape"></path>
                    <path d="M67,32.5 C67,31.4 67.3,31.1 67.6,31.9 C67.9,32.6 67.8,33.5 67.5,33.8 C67.2,34.2 66.9,33.6 67,32.5 L67,32.5 Z" id="Shape"></path>
                    <path d="M33,28.8 C34,25.3 34.6,24.5 35.7,25.6 C36.1,26 35.8,26.6 35.2,26.8 C34.5,27.1 33.9,28.1 33.9,29.1 C33.9,30.1 34.5,31.1 35.2,31.4 C35.8,31.7 35.4,31.9 34.3,31.8 C32.4,31.7 32.3,31.3 33,28.8 L33,28.8 Z" id="Shape"></path>
                    <path d="M38.3,30.3 C40.6,27.7 40.9,27.6 40.9,29.8 C40.9,30.7 40.6,31.1 40.2,30.8 C39.9,30.4 38.9,30.7 38,31.3 C37,32.1 37.1,31.7 38.3,30.3 L38.3,30.3 Z" id="Shape"></path>
                    <path d="M20.9,28.1 C20.9,27.2 24.8,25.6 25.4,26.3 C25.6,26.5 24.7,27.1 23.3,27.8 C22,28.4 20.9,28.5 20.9,28.1 L20.9,28.1 Z" id="Shape"></path>
                    <path d="M43.5,27.5 C43.1,26.5 43.4,26.1 44.1,26.3 C45.6,26.8 46.4,29.1 45.1,29.1 C44.6,29.1 43.8,28.4 43.5,27.5 L43.5,27.5 Z" id="Shape"></path>
                    <path d="M27.1,25.6 C26.1,24.4 26.1,24.1 27.3,24.1 C28,24.1 28.9,24.8 29.3,25.6 C30,27.5 28.8,27.5 27.1,25.6 L27.1,25.6 Z" id="Shape"></path>
                    <path d="M67.8,25.5 C67.7,25 67.7,23.8 67.8,22.9 C67.9,21.9 67.6,21.1 67,21.1 C66.5,21.1 66.1,20.2 66.2,19.1 C66.4,15.8 67.8,16.8 68.5,20.8 C69.1,23.9 69.3,24.2 69.9,22.6 C70.3,21.5 70.2,19.8 69.7,18.8 C68.7,16.9 69.4,15.1 71.2,15.1 C72,15.1 71.9,15.5 71,16 C69.8,16.8 69.8,17.2 70.8,18.5 C71.5,19.3 71.8,20.9 71.4,22 C70.7,24.2 68,26.8 67.8,25.5 L67.8,25.5 Z" id="Shape"></path>
                    <path d="M29.9,24.1 C29.9,23.6 30.6,23.1 31.4,23.1 C32.2,23.1 32.9,22.6 32.9,21.9 C32.9,21.3 33.2,21.1 33.5,21.4 C34.3,22.2 32.1,25.1 30.8,25.1 C30.3,25.1 29.9,24.7 29.9,24.1 L29.9,24.1 Z" id="Shape"></path>
                    <path d="M43.9,24.1 C45.9,22.8 47.2,22.8 46.4,24.1 C46.1,24.7 45,25.1 44.1,25.1 C42.6,25.1 42.6,24.9 43.9,24.1 L43.9,24.1 Z" id="Shape"></path>
                    <path d="M79.9,23.1 C79.9,22.6 80.4,22.1 80.9,22.1 C81.5,22.1 81.9,22.6 81.9,23.1 C81.9,23.7 81.5,24.1 80.9,24.1 C80.4,24.1 79.9,23.7 79.9,23.1 L79.9,23.1 Z" id="Shape"></path>
                    <path d="M83,23.4 C82.9,22.8 82.6,21.4 82.3,20.4 C81.8,18.7 81.8,18.7 82.9,20.4 C83.5,21.4 83.8,22.7 83.5,23.4 C83.2,24.3 83,24.3 83,23.4 L83,23.4 Z" id="Shape"></path>
                    <path d="M40.9,22 C40.9,21.5 41.4,21.3 41.9,21.6 C42.5,21.9 42.9,22.4 42.9,22.7 C42.9,22.9 42.5,23.1 41.9,23.1 C41.4,23.1 40.9,22.6 40.9,22 L40.9,22 Z" id="Shape"></path>
                    <path d="M59.9,22.1 C59.9,21.6 60.4,21.1 60.9,21.1 C61.5,21.1 61.9,21.6 61.9,22.1 C61.9,22.7 61.5,23.1 60.9,23.1 C60.4,23.1 59.9,22.7 59.9,22.1 L59.9,22.1 Z" id="Shape"></path>
                    <path d="M73.9,21.4 C73.9,20.4 74.3,20 74.7,20.6 C75.1,21.2 75.8,21.9 76.3,22.4 C76.8,22.8 76.5,23.1 75.6,23.1 C74.6,23.1 73.9,22.3 73.9,21.4 L73.9,21.4 Z" id="Shape"></path>
                    <path d="M36.9,20.7 C36.9,19.9 37.4,18.9 37.9,18.6 C38.5,18.3 38.9,18.7 38.9,19.5 C38.9,20.3 38.5,21.3 37.9,21.6 C37.4,21.9 36.9,21.5 36.9,20.7 L36.9,20.7 Z" id="Shape"></path>
                    <path d="M58,20.5 C58,19.4 58.3,19.1 58.6,19.9 C58.9,20.6 58.8,21.5 58.5,21.8 C58.2,22.2 57.9,21.6 58,20.5 L58,20.5 Z" id="Shape"></path>
                    <path d="M79.2,19.3 C78.2,17.9 77.8,17.8 77.1,19 C76.5,19.8 75.9,19.9 75.5,19.3 C74.5,17.6 78.2,16.9 79.8,18.5 C80.6,19.4 81.1,20.3 80.8,20.5 C80.5,20.8 79.8,20.2 79.2,19.3 L79.2,19.3 Z" id="Shape"></path>
                    <path d="M31.8,18.5 C30.1,16.5 31,16 33.8,17.5 C35.7,18.5 35.8,18.9 34.6,19.4 C33.7,19.7 32.5,19.3 31.8,18.5 L31.8,18.5 Z" id="Shape"></path>
                    <path d="M41.4,19 C41,18.4 40.9,17.8 41.2,17.5 C41.4,17.2 41.9,17.7 42.2,18.6 C42.9,20.3 42.3,20.6 41.4,19 L41.4,19 Z" id="Shape"></path>
                    <path d="M46.4,18.1 C46.7,17.6 47.2,17.1 47.5,17.1 C47.7,17.1 47.9,17.6 47.9,18.1 C47.9,18.7 47.4,19.1 46.8,19.1 C46.3,19.1 46.1,18.7 46.4,18.1 L46.4,18.1 Z" id="Shape"></path>
                    <path d="M50.5,17.9 C50.8,17.5 50.5,17.1 49.8,17.1 C49.1,17.1 48.9,16.8 49.2,16.5 C49.6,16.1 50.4,16.3 51.1,16.8 C51.8,17.4 53.3,18.1 54.4,18.4 C55.6,18.7 55.1,18.9 53.2,18.8 C51.5,18.7 50.3,18.3 50.5,17.9 L50.5,17.9 Z" id="Shape"></path>
                    <path d="M107.6,49.9 C107.3,49.1 107,49.4 107,50.5 C106.9,51.6 107.2,52.2 107.5,51.8 C107.8,51.5 107.9,50.6 107.6,49.9 L107.6,49.9 Z" id="Path"></path>
                    <path d="M70.3,86.8 C70.8,84.7 70.7,84.7 69.4,86.5 C68.7,87.5 67.6,88 67.1,87.7 C66.5,87.4 65.9,87.7 65.6,88.4 C65.2,89.4 65.8,89.7 67.4,89.3 C68.7,89.1 70,88 70.3,86.8 L70.3,86.8 Z" id="Path"></path>
                    <path d="M33.9,92.1 C33.9,91.6 33,91.1 31.9,91.1 C30.8,91.1 29.9,91.6 29.9,92.1 C29.9,92.7 30.8,93.1 31.9,93.1 C33,93.1 33.9,92.7 33.9,92.1 L33.9,92.1 Z" id="Path"></path>
                </g>
            </g>
        </g>
    </g>
</svg>