<?xml version="1.0" encoding="UTF-8" standalone="no"?>
<svg width="367px" height="201px" viewBox="0 0 367 201" version="1.1" xmlns="http://www.w3.org/2000/svg" xmlns:xlink="http://www.w3.org/1999/xlink">
    <!-- Generator: Sketch 3.7.2 (28276) - http://www.bohemiancoding.com/sketch -->
    <title>Path 1 Copy 2</title>
    <desc>Created with Sketch.</desc>
    <defs></defs>
    <g id="Page-1" stroke="none" stroke-width="1" fill="none" fill-rule="evenodd">
        <path d="M146.023406,84.3428888 C143.612949,83.9676288 141.155188,83.5826268 138.648282,83.1877426 C38.8139435,67.4619838 -14.0934096,97.4064273 4.76365508,107.141167 C23.6207197,116.875907 73.6949866,88.3426815 135.037694,103.882053 C148.075199,107.184722 162.65465,109.550195 177.941771,111.222497 C221.623885,144.437089 275.39262,174.476559 302.714917,191.074784 C339.224003,213.25396 357.080626,191.75214 302.333181,165.517153 C266.844991,148.511204 246.571579,137.635143 215.909303,114.045705 C261.944029,116.109444 308.265757,114.006634 334.573237,113.675372 C377.28787,113.137511 381.036916,85.4403657 320.706025,92.2035603 C271.472946,97.7226714 247.837485,98.7024433 186.553962,90.3301383 C176.594352,81.9923927 165.461233,72.4548055 152.717114,61.3954004 C76.3861763,-4.84493837 15.6500587,-7.48723567 26.4831303,10.7610138 C37.3162018,29.0092634 94.9018945,31.3470342 138.688849,77.0318512 C141.024461,79.4686964 143.473719,81.9069475 146.023395,84.3428872 Z" id="Path-1-Copy-2" stroke="#979797" fill="#D8D8D8"></path>
    </g>
</svg>