<?xml version="1.0" encoding="UTF-8" standalone="no"?>
<svg width="233px" height="53px" viewBox="0 0 233 53" version="1.1" xmlns="http://www.w3.org/2000/svg" xmlns:xlink="http://www.w3.org/1999/xlink">
    <!-- Generator: Sketch 3.8.3 (29802) - http://www.bohemiancoding.com/sketch -->
    <title>Group</title>
    <desc>Created with Sketch.</desc>
    <defs>
        <path d="M116.5,44.9084967 L233,44.9084967 L233,52.9607843 L116.5,52.9607843 L0,52.9607843 L0,44.9084967 L116.5,44.9084967 Z" id="path-1"></path>
        <mask id="mask-2" maskContentUnits="userSpaceOnUse" maskUnits="objectBoundingBox" x="0" y="0" width="233" height="8.05228758" fill="white">
            <use xlink:href="#path-1"></use>
        </mask>
        <path d="M78,36 L114.214765,36 C114.214765,36 116,38.5970052 116,40 C116,41.2636719 114.214765,44 114.214765,44 L78,44 L78,36 Z" id="path-3"></path>
        <mask id="mask-4" maskContentUnits="userSpaceOnUse" maskUnits="objectBoundingBox" x="0" y="0" width="38" height="8" fill="white">
            <use xlink:href="#path-3"></use>
        </mask>
        <path d="M195,36 L231.214765,36 C231.214765,36 233,38.5970052 233,40 C233,41.2636719 231.214765,44 231.214765,44 L195,44 L195,36 Z" id="path-5"></path>
        <mask id="mask-6" maskContentUnits="userSpaceOnUse" maskUnits="objectBoundingBox" x="0" y="0" width="38" height="8" fill="white">
            <use xlink:href="#path-5"></use>
        </mask>
        <path d="M39,36 L75.2147651,36 C75.2147651,36 77,38.5970052 77,40 C77,41.2636719 75.2147651,44 75.2147651,44 L39,44 L39,36 Z" id="path-7"></path>
        <mask id="mask-8" maskContentUnits="userSpaceOnUse" maskUnits="objectBoundingBox" x="0" y="0" width="38" height="8" fill="white">
            <use xlink:href="#path-7"></use>
        </mask>
        <path d="M156,36 L192.214765,36 C192.214765,36 194,38.5970052 194,40 C194,41.2636719 192.214765,44 192.214765,44 L156,44 L156,36 Z" id="path-9"></path>
        <mask id="mask-10" maskContentUnits="userSpaceOnUse" maskUnits="objectBoundingBox" x="0" y="0" width="38" height="8" fill="white">
            <use xlink:href="#path-9"></use>
        </mask>
        <path d="M117,36 L153.214765,36 C153.214765,36 155,38.5970052 155,40 C155,41.2636719 153.214765,44 153.214765,44 L117,44 L117,36 Z" id="path-11"></path>
        <mask id="mask-12" maskContentUnits="userSpaceOnUse" maskUnits="objectBoundingBox" x="0" y="0" width="38" height="8" fill="white">
            <use xlink:href="#path-11"></use>
        </mask>
        <path d="M165,27 L201.214765,27 C201.214765,27 203,29.5970052 203,31 C203,32.2636719 201.214765,35 201.214765,35 L165,35 L165,27 Z" id="path-13"></path>
        <mask id="mask-14" maskContentUnits="userSpaceOnUse" maskUnits="objectBoundingBox" x="0" y="0" width="38" height="8" fill="white">
            <use xlink:href="#path-13"></use>
        </mask>
        <path d="M48,27 L84.2147651,27 C84.2147651,27 86,29.5970052 86,31 C86,32.2636719 84.2147651,35 84.2147651,35 L48,35 L48,27 Z" id="path-15"></path>
        <mask id="mask-16" maskContentUnits="userSpaceOnUse" maskUnits="objectBoundingBox" x="0" y="0" width="38" height="8" fill="white">
            <use xlink:href="#path-15"></use>
        </mask>
        <path d="M9,27 L45.2147651,27 C45.2147651,27 47,29.5970052 47,31 C47,32.2636719 45.2147651,35 45.2147651,35 L9,35 L9,27 Z" id="path-17"></path>
        <mask id="mask-18" maskContentUnits="userSpaceOnUse" maskUnits="objectBoundingBox" x="0" y="0" width="38" height="8" fill="white">
            <use xlink:href="#path-17"></use>
        </mask>
        <path d="M126,27 L162.214765,27 C162.214765,27 164,29.5970052 164,31 C164,32.2636719 162.214765,35 162.214765,35 L126,35 L126,27 Z" id="path-19"></path>
        <mask id="mask-20" maskContentUnits="userSpaceOnUse" maskUnits="objectBoundingBox" x="0" y="0" width="38" height="8" fill="white">
            <use xlink:href="#path-19"></use>
        </mask>
        <path d="M87,27 L123.214765,27 C123.214765,27 125,29.5970052 125,31 C125,32.2636719 123.214765,35 123.214765,35 L87,35 L87,27 Z" id="path-21"></path>
        <mask id="mask-22" maskContentUnits="userSpaceOnUse" maskUnits="objectBoundingBox" x="0" y="0" width="38" height="8" fill="white">
            <use xlink:href="#path-21"></use>
        </mask>
        <path d="M145,9 L181.214765,9 C181.214765,9 183,11.5970052 183,13 C183,14.2636719 181.214765,17 181.214765,17 L145,17 L145,9 Z" id="path-23"></path>
        <mask id="mask-24" maskContentUnits="userSpaceOnUse" maskUnits="objectBoundingBox" x="0" y="0" width="38" height="8" fill="white">
            <use xlink:href="#path-23"></use>
        </mask>
        <path d="M28,9 L64.2147651,9 C64.2147651,9 66,11.5970052 66,13 C66,14.2636719 64.2147651,17 64.2147651,17 L28,17 L28,9 Z" id="path-25"></path>
        <mask id="mask-26" maskContentUnits="userSpaceOnUse" maskUnits="objectBoundingBox" x="0" y="0" width="38" height="8" fill="white">
            <use xlink:href="#path-25"></use>
        </mask>
        <path d="M106,9 L142.214765,9 C142.214765,9 144,11.5970052 144,13 C144,14.2636719 142.214765,17 142.214765,17 L106,17 L106,9 Z" id="path-27"></path>
        <mask id="mask-28" maskContentUnits="userSpaceOnUse" maskUnits="objectBoundingBox" x="0" y="0" width="38" height="8" fill="white">
            <use xlink:href="#path-27"></use>
        </mask>
        <path d="M67,9 L103.214765,9 C103.214765,9 105,11.5970052 105,13 C105,14.2636719 103.214765,17 103.214765,17 L67,17 L67,9 Z" id="path-29"></path>
        <mask id="mask-30" maskContentUnits="userSpaceOnUse" maskUnits="objectBoundingBox" x="0" y="0" width="38" height="8" fill="white">
            <use xlink:href="#path-29"></use>
        </mask>
        <path d="M128,0 L164.214765,0 C164.214765,0 166,2.59700521 166,4 C166,5.26367188 164.214765,8 164.214765,8 L128,8 L128,0 Z" id="path-31"></path>
        <mask id="mask-32" maskContentUnits="userSpaceOnUse" maskUnits="objectBoundingBox" x="0" y="0" width="38" height="8" fill="white">
            <use xlink:href="#path-31"></use>
        </mask>
        <path d="M89,0 L125.214765,0 C125.214765,0 127,2.59700521 127,4 C127,5.26367188 125.214765,8 125.214765,8 L89,8 L89,0 Z" id="path-33"></path>
        <mask id="mask-34" maskContentUnits="userSpaceOnUse" maskUnits="objectBoundingBox" x="0" y="0" width="38" height="8" fill="white">
            <use xlink:href="#path-33"></use>
        </mask>
        <path d="M50,0 L86.2147651,0 C86.2147651,0 88,2.59700521 88,4 C88,5.26367188 86.2147651,8 86.2147651,8 L50,8 L50,0 Z" id="path-35"></path>
        <mask id="mask-36" maskContentUnits="userSpaceOnUse" maskUnits="objectBoundingBox" x="0" y="0" width="38" height="8" fill="white">
            <use xlink:href="#path-35"></use>
        </mask>
        <path d="M0,36 L36.2147651,36 C36.2147651,36 38,38.5970052 38,40 C38,41.2636719 36.2147651,44 36.2147651,44 L0,44 L0,36 Z" id="path-37"></path>
        <mask id="mask-38" maskContentUnits="userSpaceOnUse" maskUnits="objectBoundingBox" x="0" y="0" width="38" height="8" fill="white">
            <use xlink:href="#path-37"></use>
        </mask>
        <path d="M78,18 L114.214765,18 C114.214765,18 116,20.5970052 116,22 C116,23.2636719 114.214765,26 114.214765,26 L78,26 L78,18 Z" id="path-39"></path>
        <mask id="mask-40" maskContentUnits="userSpaceOnUse" maskUnits="objectBoundingBox" x="0" y="0" width="38" height="8" fill="white">
            <use xlink:href="#path-39"></use>
        </mask>
        <path d="M39,18 L75.2147651,18 C75.2147651,18 77,20.5970052 77,22 C77,23.2636719 75.2147651,26 75.2147651,26 L39,26 L39,18 Z" id="path-41"></path>
        <mask id="mask-42" maskContentUnits="userSpaceOnUse" maskUnits="objectBoundingBox" x="0" y="0" width="38" height="8" fill="white">
            <use xlink:href="#path-41"></use>
        </mask>
        <path d="M156,18 L192.214765,18 C192.214765,18 194,20.5970052 194,22 C194,23.2636719 192.214765,26 192.214765,26 L156,26 L156,18 Z" id="path-43"></path>
        <mask id="mask-44" maskContentUnits="userSpaceOnUse" maskUnits="objectBoundingBox" x="0" y="0" width="38" height="8" fill="white">
            <use xlink:href="#path-43"></use>
        </mask>
        <path d="M117,18 L153.214765,18 C153.214765,18 155,20.5970052 155,22 C155,23.2636719 153.214765,26 153.214765,26 L117,26 L117,18 Z" id="path-45"></path>
        <mask id="mask-46" maskContentUnits="userSpaceOnUse" maskUnits="objectBoundingBox" x="0" y="0" width="38" height="8" fill="white">
            <use xlink:href="#path-45"></use>
        </mask>
        <path d="M0,18 L36.2147651,18 C36.2147651,18 38,20.5970052 38,22 C38,23.2636719 36.2147651,26 36.2147651,26 L0,26 L0,18 Z" id="path-47"></path>
        <mask id="mask-48" maskContentUnits="userSpaceOnUse" maskUnits="objectBoundingBox" x="0" y="0" width="38" height="8" fill="white">
            <use xlink:href="#path-47"></use>
        </mask>
    </defs>
    <g id="Page-1" stroke="none" stroke-width="1" fill="none" fill-rule="evenodd">
        <g id="Group">
            <use id="Rectangle-2-Copy-3" stroke="#4990E2" mask="url(#mask-2)" stroke-width="2" fill="#4990E2" xlink:href="#path-1"></use>
            <use id="Rectangle-8" stroke="#979797" mask="url(#mask-4)" stroke-width="2" fill="#D8D8D8" xlink:href="#path-3"></use>
            <use id="Rectangle-8" stroke="#979797" mask="url(#mask-6)" stroke-width="2" fill="#D8D8D8" xlink:href="#path-5"></use>
            <use id="Rectangle-8" stroke="#979797" mask="url(#mask-8)" stroke-width="2" fill="#D8D8D8" xlink:href="#path-7"></use>
            <use id="Rectangle-8" stroke="#979797" mask="url(#mask-10)" stroke-width="2" fill="#D8D8D8" transform="translate(175.000000, 40.000000) scale(-1, 1) translate(-175.000000, -40.000000) " xlink:href="#path-9"></use>
            <use id="Rectangle-8" stroke="#979797" mask="url(#mask-12)" stroke-width="2" fill="#D8D8D8" transform="translate(136.000000, 40.000000) scale(-1, 1) translate(-136.000000, -40.000000) " xlink:href="#path-11"></use>
            <use id="Rectangle-8" stroke="#979797" mask="url(#mask-14)" stroke-width="2" fill="#D8D8D8" transform="translate(184.000000, 31.000000) scale(-1, 1) translate(-184.000000, -31.000000) " xlink:href="#path-13"></use>
            <use id="Rectangle-8" stroke="#979797" mask="url(#mask-16)" stroke-width="2" fill="#D8D8D8" xlink:href="#path-15"></use>
            <use id="Rectangle-8" stroke="#979797" mask="url(#mask-18)" stroke-width="2" fill="#D8D8D8" xlink:href="#path-17"></use>
            <use id="Rectangle-8" stroke="#979797" mask="url(#mask-20)" stroke-width="2" fill="#D8D8D8" transform="translate(145.000000, 31.000000) scale(-1, 1) translate(-145.000000, -31.000000) " xlink:href="#path-19"></use>
            <use id="Rectangle-8" stroke="#979797" mask="url(#mask-22)" stroke-width="2" fill="#D8D8D8" transform="translate(106.000000, 31.000000) scale(-1, 1) translate(-106.000000, -31.000000) " xlink:href="#path-21"></use>
            <use id="Rectangle-8" stroke="#979797" mask="url(#mask-24)" stroke-width="2" fill="#D8D8D8" transform="translate(164.000000, 13.000000) scale(-1, 1) translate(-164.000000, -13.000000) " xlink:href="#path-23"></use>
            <use id="Rectangle-8" stroke="#979797" mask="url(#mask-26)" stroke-width="2" fill="#D8D8D8" xlink:href="#path-25"></use>
            <use id="Rectangle-8" stroke="#979797" mask="url(#mask-28)" stroke-width="2" fill="#D8D8D8" transform="translate(125.000000, 13.000000) scale(-1, 1) translate(-125.000000, -13.000000) " xlink:href="#path-27"></use>
            <use id="Rectangle-8" stroke="#979797" mask="url(#mask-30)" stroke-width="2" fill="#D8D8D8" transform="translate(86.000000, 13.000000) scale(-1, 1) translate(-86.000000, -13.000000) " xlink:href="#path-29"></use>
            <use id="Rectangle-8" stroke="#979797" mask="url(#mask-32)" stroke-width="2" fill="#D8D8D8" transform="translate(147.000000, 4.000000) scale(-1, 1) translate(-147.000000, -4.000000) " xlink:href="#path-31"></use>
            <use id="Rectangle-8" stroke="#979797" mask="url(#mask-34)" stroke-width="2" fill="#D8D8D8" transform="translate(108.000000, 4.000000) scale(-1, 1) translate(-108.000000, -4.000000) " xlink:href="#path-33"></use>
            <use id="Rectangle-8" stroke="#979797" mask="url(#mask-36)" stroke-width="2" fill="#D8D8D8" transform="translate(69.000000, 4.000000) scale(-1, 1) translate(-69.000000, -4.000000) " xlink:href="#path-35"></use>
            <use id="Rectangle-8" stroke="#979797" mask="url(#mask-38)" stroke-width="2" fill="#D8D8D8" transform="translate(19.000000, 40.000000) scale(-1, 1) translate(-19.000000, -40.000000) " xlink:href="#path-37"></use>
            <use id="Rectangle-8" stroke="#979797" mask="url(#mask-40)" stroke-width="2" fill="#D8D8D8" xlink:href="#path-39"></use>
            <use id="Rectangle-8" stroke="#979797" mask="url(#mask-42)" stroke-width="2" fill="#D8D8D8" xlink:href="#path-41"></use>
            <use id="Rectangle-8" stroke="#979797" mask="url(#mask-44)" stroke-width="2" fill="#D8D8D8" transform="translate(175.000000, 22.000000) scale(-1, 1) translate(-175.000000, -22.000000) " xlink:href="#path-43"></use>
            <use id="Rectangle-8" stroke="#979797" mask="url(#mask-46)" stroke-width="2" fill="#D8D8D8" transform="translate(136.000000, 22.000000) scale(-1, 1) translate(-136.000000, -22.000000) " xlink:href="#path-45"></use>
            <use id="Rectangle-8" stroke="#979797" mask="url(#mask-48)" stroke-width="2" fill="#D8D8D8" transform="translate(19.000000, 22.000000) scale(-1, 1) translate(-19.000000, -22.000000) " xlink:href="#path-47"></use>
            <rect id="Rectangle-3" fill="#FF0000" transform="translate(138.000000, 40.000000) scale(-1, 1) translate(-138.000000, -40.000000) " x="136" y="36" width="4" height="8"></rect>
            <rect id="Rectangle-3" fill="#FF0000" transform="translate(138.000000, 31.000000) scale(-1, 1) translate(-138.000000, -31.000000) " x="136" y="27" width="4" height="8"></rect>
            <rect id="Rectangle-3" fill="#FF0000" transform="translate(138.000000, 22.000000) scale(-1, 1) translate(-138.000000, -22.000000) " x="136" y="18" width="4" height="8"></rect>
            <rect id="Rectangle-3" fill="#FF0000" transform="translate(138.000000, 13.000000) scale(-1, 1) translate(-138.000000, -13.000000) " x="136" y="9" width="4" height="8"></rect>
            <rect id="Rectangle-3" fill="#FF0000" transform="translate(138.000000, 4.000000) scale(-1, 1) translate(-138.000000, -4.000000) " x="136" y="0" width="4" height="8"></rect>
        </g>
    </g>
</svg>