<?xml version="1.0" encoding="UTF-8" standalone="no"?>
<svg width="491px" height="552px" viewBox="0 0 491 552" version="1.1" xmlns="http://www.w3.org/2000/svg" xmlns:xlink="http://www.w3.org/1999/xlink">
    <!-- Generator: Sketch 3.8.1 (29687) - http://www.bohemiancoding.com/sketch -->
    <title>Group 3</title>
    <desc>Created with Sketch.</desc>
    <defs>
        <path d="M290.822786,133.417496 C289.447663,135.631784 286.108654,135.995589 283.367817,134.231271 C280.625636,132.46832 279.519354,129.24331 280.894477,127.030389 L284.084279,121.897454 C285.460746,119.683166 288.798411,120.687049 291.539248,122.45 C294.281429,124.214318 295.389055,126.07164 294.012588,128.28456 L290.822786,133.417496 L290.822786,133.417496 Z" id="path-1"></path>
        <path d="M300.894791,138.926546 C299.75356,140.763352 296.605428,140.82353 293.863247,139.059212 C291.12241,137.294893 289.82525,134.376246 290.966482,132.53944 L293.614568,128.279089 C294.7558,126.442283 297.903931,126.383473 300.646113,128.146424 C303.38695,129.910742 304.684109,132.82939 303.541533,134.667563 L300.894791,138.926546 L300.894791,138.926546 Z" id="path-2"></path>
        <path d="M311.4577,143.913276 C310.395777,145.621519 307.312167,145.576386 304.57133,143.813435 C301.829149,142.049116 300.467468,139.234413 301.529391,137.52617 L303.991977,133.563975 C305.0539,131.855732 308.13751,131.900866 310.878347,133.663817 C313.620528,135.428135 314.982209,138.242839 313.920286,139.952449 L311.4577,143.913276 L311.4577,143.913276 Z" id="path-3"></path>
        <path d="M323.507704,149.127316 C322.445781,150.835559 319.362172,150.790425 316.621335,149.027475 C313.879153,147.263156 312.517472,144.448453 313.579395,142.740209 L316.041982,138.778015 C317.103905,137.069772 320.187514,137.114906 322.928351,138.877856 C325.670533,140.642175 327.032214,143.456878 325.970291,145.166489 L323.507704,149.127316 L323.507704,149.127316 Z" id="path-4"></path>
        <path d="M333.191771,151.120175 C332.391968,152.917318 330.129669,153.629884 328.137555,152.713532 C326.146785,151.795813 325.180301,149.595202 325.981448,147.796691 L327.835108,143.630712 C328.636255,141.833569 330.898555,141.119635 332.889325,142.037354 C334.881439,142.955073 335.846579,145.155685 335.046776,146.952828 L333.191771,151.120175 L333.191771,151.120175 Z" id="path-5"></path>
        <path d="M236.175953,93.4800274 C235.37615,95.2771704 233.113851,95.9897362 231.121737,95.0733847 C229.130967,94.1556656 228.164483,91.9550544 228.96563,90.1565437 L230.81929,85.9905638 C231.620437,84.1934208 233.882737,83.4794873 235.873507,84.3972064 C237.865621,85.3149256 238.830761,87.5155368 238.030958,89.3126798 L236.175953,93.4800274 L236.175953,93.4800274 Z" id="path-6"></path>
        <path d="M274.173848,122.926776 C272.798725,125.141064 269.459716,124.137181 266.718879,122.372862 C263.976697,120.609911 262.870415,118.75259 264.245539,116.53967 L267.435341,111.406734 C268.811808,109.192446 272.149473,108.828641 274.89031,110.591591 C277.632491,112.35591 278.740117,115.58092 277.36365,117.79384 L274.173848,122.926776 L274.173848,122.926776 Z" id="path-7"></path>
        <path d="M265.168471,115.05477 C264.016486,116.909356 260.858945,116.981844 258.118108,115.218893 C255.375927,113.454574 254.088177,110.520882 255.240162,108.667664 L257.912444,104.36765 C259.064429,102.514432 262.22197,102.440577 264.962807,104.204895 C267.704988,105.967846 268.992738,108.901538 267.840753,110.756124 L265.168471,115.05477 L265.168471,115.05477 Z" id="path-8"></path>
        <path d="M255.620303,108.889776 C254.468318,110.744362 251.310777,110.81685 248.56994,109.053899 C245.827759,107.289581 244.540009,104.355888 245.691994,102.50267 L248.364277,98.2026566 C249.516262,96.3494383 252.673803,96.2755831 255.41464,98.0399016 C258.156821,99.8028524 259.444571,102.736545 258.292586,104.591131 L255.620303,108.889776 L255.620303,108.889776 Z" id="path-9"></path>
        <path d="M245.692397,102.502123 C244.540412,104.356709 241.382871,104.429196 238.642034,102.666246 C235.899853,100.901927 234.612103,97.9682347 235.764088,96.1150165 L238.436371,91.8150031 C239.588356,89.9617848 242.745897,89.8879296 245.486734,91.6522481 C248.228915,93.4151989 249.516665,96.3488912 248.36468,98.2034772 L245.692397,102.502123 L245.692397,102.502123 Z" id="path-10"></path>
    </defs>
    <g id="Page-1" stroke="none" stroke-width="1" fill="none" fill-rule="evenodd">
        <g id="Group-3" transform="translate(-1.000000, -34.000000)">
            <g id="Group-+-e" transform="translate(4.000000, 0.000000)" fill="#000000">
                <g id="Group" transform="translate(0.000000, 34.000000)">
                    <g id="path3502-+-path3315-0-Clipped" transform="translate(0.000000, 69.000000)">
                        <path d="M243.879814,0.574692443 C179.300208,0.574692443 118.336189,25.7210831 72.1807477,71.3682379 C25.9896292,117.038955 0.522222222,177.433421 0.522222222,241.426646 C0.522222222,374.644709 109.692609,483.000001 243.879814,483.000001 C378.078912,483.000001 487.285923,374.644709 487.285923,241.426646 C487.285923,108.63276 378.078912,0.574692443 243.879814,0.574692443 L243.879814,0.574692443 Z M243.879814,10.5300348 C372.539783,10.5300348 477.243056,114.12363 477.243056,241.426646 C477.243056,369.165627 372.539783,473.092753 243.879814,473.092753 C115.231738,473.092753 10.5650894,369.153854 10.5650894,241.426646 C10.5650894,180.108155 34.9748572,122.235216 79.2641226,78.4379738 C123.529619,34.6643085 181.986581,10.5300348 243.879814,10.5300348 L243.879814,10.5300348 Z" id="path3502"></path>
                        <g id="path3315-0-Clipped" transform="translate(9.000000, 11.000000)">
                            <path d="M156.069846,19.1678456 C154.898674,19.1678456 153.610384,19.6498281 152.299571,20.3941984 C155.386287,19.4910442 156.837865,19.1678456 156.069846,19.1678456 L156.069846,19.1678456 Z M232.498994,34.072143 L233.261382,22.8953276 L221.467449,23.6329411 L223.023757,34.072143 L232.498994,34.072143 L232.498994,34.072143 Z M99.3479303,227.290847 C96.9684229,225.052106 98.5607672,215.344887 98.5607672,215.344887 C98.5607672,215.344887 63.1012645,196.713107 24.4987399,185.510391 C19.738599,184.130885 22.1440073,174.325693 26.8534725,170.611724 L25.2915337,160.142117 C24.5111273,154.937155 33.1800568,129.570007 41.8433557,127.349284 C50.5134113,125.097029 41.0494358,142.253581 41.0494358,142.253581 L32.3917676,147.475435 C32.3917676,147.475435 42.6305188,159.403377 45.0032694,159.403377 C47.3591282,159.403377 51.2994483,153.42364 51.2994483,153.42364 L40.2746601,145.986694 L50.5122852,141.495698 L51.1586823,137.566639 L52.8794052,137.018215 L69.8411376,111.332372 C81.5607465,106.537322 95.9661694,100.594747 97.7961266,99.7219979 C100.95604,98.2400141 123.006743,85.5677014 126.948189,82.5902202 C130.900897,79.5879643 139.546178,80.3514788 142.693704,80.3514788 C145.860374,80.3514788 150.576596,78.8503508 151.362633,70.6318723 C152.149797,62.432538 155.30408,60.9381668 157.67683,63.1825389 C160.04395,65.3976317 155.30408,69.1431318 160.825483,70.6318723 C166.335625,72.1330003 171.064234,75.8616084 175.011311,72.1330003 C177.890819,69.4055195 174.034958,66.2929031 171.441487,63.9449272 L215.187036,63.9449272 L219.922402,50.491082 L209.67802,49.0034676 L171.84464,45.2816162 L171.84464,40.7973765 L168.831123,41.3108906 C172.924597,18.8029803 197.250077,22.5135704 178.934739,9.48765359 C177.824377,8.68810306 161.802961,34.7331799 157.721875,34.2286748 C150.332227,33.2511961 140.797305,33.1723672 138.765771,35.5766494 C136.06757,38.7489505 144.805193,24.6667262 152.322094,20.3975768 C143.353615,23.0394719 127.283775,14.8761737 98.3085146,35.3446671 C88.5100793,42.2703512 63.9154547,70.328944 53.7949468,81.1161194 C11.0381379,131.595911 7.59106162,174.781774 7.59106162,176.697317 C7.59106162,180.424799 16.6451267,182.529531 17.4255331,187.020528 C18.2183268,191.468731 2.4592986,206.410191 2.4592986,213.866281 C2.4592986,217.294213 -5.42922453,254.53525 11.8973732,301.136658 C27.2656352,345.345045 57.0032841,384.333832 60.8219824,386.77415 L71.7735724,380.965584 C71.7735724,380.965584 53.6530548,348.886716 52.8726484,345.896848 C52.092242,342.915988 73.3546554,299.649044 83.6102985,301.159181 C93.8479236,302.611885 91.4864342,305.627655 97.7893699,301.891163 C104.097936,298.183952 108.032626,267.567923 115.122724,264.601704 C122.218454,261.602826 130.088959,257.879849 129.307426,250.421506 C128.486479,242.939515 101.702663,229.523958 99.3479303,227.290847 L99.3479303,227.290847 Z M270.315481,7.97188597 L249.045185,0.510165157 L252.986631,12.4561257 L270.315481,7.97188597 L270.315481,7.97188597 Z M190.736555,35.5743971 C193.109306,35.5743971 240.369499,4.25679135 235.647646,3.5011598 C230.931424,2.76354628 230.144261,3.5011598 217.514741,2.0067886 C204.928014,0.51804805 191.519214,19.913342 188.376192,22.9099673 C185.220783,25.8908268 186.282721,35.5743971 190.736555,35.5743971 L190.736555,35.5743971 Z M407.662496,260.496969 L413.766107,252.579166 L407.662496,250.433893 L403.088166,256.181648 L397.757078,264.087063 L402.317895,266.236841 L407.662496,260.496969 L407.662496,260.496969 Z M434.337078,286.392271 L432.810049,274.874239 L422.917019,274.874239 L422.149,283.499249 L412.983448,282.070193 L410.713175,272.723335 L406.137719,269.841575 L400.794244,276.311177 L395.46203,274.883248 L393.92374,279.896767 L400.03636,281.361859 L400.03636,328.072502 L421.611837,333.26958 C421.11071,334.124311 420.743593,334.85742 420.621971,335.24706 C419.085933,340.288733 426.709816,342.471168 432.045408,340.288733 C434.01951,339.494813 446.456462,334.712149 450.395656,325.330381 C455.890032,312.261672 459.43846,293.445207 460.39229,287.35511 L457.97562,282.070193 L442.722223,287.832588 L434.314555,286.391145 L434.337078,286.391145 L434.337078,286.392271 Z M426.698555,95.0846049 C391.813377,42.1870178 307.993455,7.61940806 307.993455,7.61940806 L286.410095,18.924602 L283.344776,13.9099563 L275.731028,11.0236915 L275.731028,17.502303 L282.590271,23.2624452 L278.026076,25.4156009 L260.478758,26.8435306 L220.826682,48.4178813 L224.634119,65.6724068 L220.04515,67.1183545 L217.776003,70.7061967 L230.739983,90.1014907 L231.495614,96.5868589 L220.82443,98.7411409 L220.82443,111.675841 L214.729828,113.109402 L215.492216,123.181486 L163.625036,159.147746 L165.150939,179.251374 C168.957249,184.290795 198.707286,214.491282 198.707286,214.491282 C198.707286,214.491282 233.013634,215.913581 240.640895,211.618531 C248.272662,207.304336 242.921304,215.932725 245.221982,218.091512 C247.492255,220.257055 248.272662,235.346037 250.541808,236.786354 C252.836856,238.217662 250.541808,246.83479 253.592488,249.739073 C256.644293,252.59268 256.644293,287.115245 256.644293,287.115245 C256.644293,287.115245 274.946118,318.021814 274.946118,325.930607 C274.946118,333.837148 274.176972,333.117553 288.672486,332.396831 C303.157864,331.689623 306.207417,325.930607 309.259222,323.783082 C312.309902,321.634431 312.309902,316.59501 315.359455,312.263924 C318.434909,307.94072 323.754736,291.431691 330.62524,285.685063 C337.469842,279.912533 355.786306,275.59496 357.298695,265.551029 C358.825724,255.473314 365.680462,247.564521 365.680462,247.564521 L398.651223,212.690604 L397.72442,217.376421 L396.968789,235.338154 L406.889972,231.749186 L406.133215,212.323487 L402.581408,208.558842 L403.083661,208.010418 C403.083661,208.010418 400.78974,203.696224 397.752574,203.696224 C394.698516,203.696224 376.38543,208.010418 373.347138,207.295327 C370.294207,206.570101 357.324596,172.056546 355.044188,170.641003 C352.748014,169.200686 338.277276,145.461919 338.277276,145.461919 C338.277276,145.461919 371.808848,185.722103 377.152323,201.537437 C380.2503,210.74916 391.892206,202.171447 401.360686,192.562201 L403.862941,198.675947 L409.951913,197.223243 L409.196281,190.037423 L416.052146,190.037423 L416.052146,200.817842 L413.772863,206.577984 L412.991331,215.913581 L419.105077,221.678228 L422.156883,216.656825 L432.039778,207.29758 L443.483485,201.54532 L446.547678,207.29758 L448.072455,215.210878 L445.021775,223.831384 L438.921543,228.865173 L435.87199,241.805505 L435.87199,248.272855 L429.012747,243.95303 L428.257115,230.306617 L418.347193,231.036347 L413.785251,243.245822 L420.642241,253.322411 L436.65127,255.484575 L449.609619,243.245822 L451.134396,219.547595 L456.908051,211.928216 C460.665939,221.585885 463.351753,231.689501 463.351753,241.110684 C463.351753,251.433895 471.526312,235.898966 467.526307,204.418072 C467.529686,204.416945 461.257156,129.640953 426.698555,95.0846049 L426.698555,95.0846049 Z M274.19499,126.058742 L233.022643,124.601533 L250.545187,110.233272 L259.697225,110.233272 L274.19499,120.287338 L274.19499,126.058742 L274.19499,126.058742 Z M324.539646,121.026078 L324.539646,127.493428 L307.006967,127.493428 L308.531744,131.818884 L297.841416,133.270462 L297.098172,136.83916 L289.472036,135.424744 L275.733281,132.532849 L278.028328,128.950637 L280.32225,124.619551 L287.94726,116.711883 L291.010326,122.472026 L302.431511,121.744547 L308.53287,115.26481 L332.180422,119.584635 L324.539646,121.026078 L324.539646,121.026078 Z M326.054288,111.673589 L316.901124,113.107149 L315.388734,106.628538 L326.811046,105.200608 L328.349336,98.733258 L336.74349,107.366151 L326.054288,111.661202 L326.054288,111.673589 L326.054288,111.673589 Z M370.298711,335.249312 L364.95411,339.570263 L365.71312,350.357439 L372.568984,350.357439 L372.568984,341.035355 L378.696244,333.104039 L378.696244,316.581497 L374.862906,315.836 L370.298711,335.249312 L370.298711,335.249312 L370.298711,335.249312 Z M319.207433,313.700863 C319.207433,313.700863 313.862832,315.090504 319.952929,317.287579 C326.054288,319.461005 350.459723,282.072446 350.459723,282.072446 L329.861725,295.008272 L319.195045,313.701989 L319.207433,313.701989 L319.207433,313.700863 Z M277.696121,451.489319 L273.133052,447.144719 L263.981014,445.693141 L262.468625,450.050128 L250.265907,448.610937 L249.499014,442.828272 L240.351481,442.828272 L230.443811,448.610937 L212.921267,448.610937 L211.395364,444.268589 L183.196006,441.351919 L178.62055,445.706654 L167.203869,442.828272 L165.673462,432.675107 L160.341248,431.930737 L154.239889,442.828272 L133.662161,442.096289 C137.346851,443.828274 168.066483,462.168386 215.197171,465.985958 C277.697247,471.038892 307.422508,455.860946 307.422508,455.860946 L305.1421,453.663871 L277.697247,451.503959 L277.697247,451.489319 L277.696121,451.489319 L277.696121,451.489319 Z" id="path3315-0"></path>
                        </g>
                    </g>
                    <path d="M112.932795,27 C113.070367,27.2950235 113.272288,27.7665571 113.538565,28.4146149 C113.804842,29.0626727 114.006763,29.5342063 114.144335,29.8292298 C115.066066,31.8058876 116.131316,33.8592524 117.340118,35.9893859 C118.54892,38.1195194 119.964138,40.4227359 121.585815,42.8991045 L117.555543,45.6943409 C115.033686,41.5186049 111.567946,38.9773261 107.158218,38.0704281 C102.74849,37.1635302 97.8589849,37.961972 92.4895564,40.4657777 C85.6450103,43.6574419 81.3359826,48.2617699 79.562344,54.2788997 C77.7887055,60.2960295 78.7178192,67.1988017 82.349713,74.9874231 C86.2705075,83.3955941 91.5248522,89.0985871 98.1129047,92.0965734 C104.700957,95.0945596 111.564665,94.9289372 118.704235,91.5997012 C123.188593,89.5086108 126.541851,86.7058283 128.764109,83.1912697 C130.986367,79.6767111 132.115927,75.378715 132.152823,70.2971524 L136.893176,70.2956003 C136.799899,73.1765732 136.830058,75.9370898 136.983654,78.5772327 C137.13725,81.2173757 137.413284,83.7734462 137.811766,86.2455211 C134.916082,89.3557544 131.939928,92.081462 128.883214,94.4227256 C125.8265,96.7639892 122.719814,98.6706012 119.563062,100.142619 C109.296243,104.930115 99.5597363,105.770883 90.35325,102.664948 C81.1467638,99.5590122 74.2599331,93.1087505 69.6925514,83.3139689 C65.1801985,73.6371967 64.8034696,64.1063286 68.5623534,54.7210785 C72.3212372,45.3358284 79.3339835,38.2495614 89.6008027,33.462065 C93.288597,31.7424183 97.0475263,30.3487697 100.877703,29.2810773 C104.707881,28.213385 108.726204,27.4530335 112.932795,27 L112.932795,27 Z" id="CENDR"></path>
                    <path d="M364.935574,108.488635 C365.195992,108.521187 365.448268,108.545601 365.69241,108.561877 C365.936551,108.578153 366.319035,108.586291 366.83987,108.586291 C369.509155,108.586291 371.307639,107.707394 372.235378,105.949572 C373.163117,104.191751 373.62698,99.5368498 373.62698,91.9847287 L373.62698,88.3714475 L373.62698,85.0023069 L373.62698,83.1956662 L373.822292,72.2581662 C373.854845,69.9469568 373.879258,67.6520578 373.895535,65.3734006 C373.911811,63.0947434 373.919949,60.3603957 373.919949,57.1702756 C373.919949,53.0686926 373.423534,50.4157243 372.430691,49.2112912 C371.437847,48.0068581 369.574259,47.4046506 366.83987,47.4046506 L365.81448,47.4046506 L365.81448,43.1077756 C369.29757,43.2705368 372.178401,43.3926059 374.457058,43.4739865 C376.735715,43.5553672 378.721372,43.5960569 380.414089,43.5960569 C382.822955,43.5960569 385.817717,43.5146775 389.398464,43.3519162 C392.979211,43.189155 395.388041,43.1077756 396.625027,43.1077756 C404.697984,43.1077756 411.061852,44.7841911 415.716824,48.1370725 C420.371795,51.4899538 422.699245,56.0471999 422.699245,61.8089475 C422.699245,65.6501125 421.53552,69.0354953 419.208035,71.9651975 C416.880549,74.8948996 413.389373,77.401385 408.734402,79.4847287 L418.304714,92.9612912 C422.862029,100.057681 426.190446,104.517272 428.290066,106.340197 C430.389686,108.163123 432.627619,109.074572 435.003933,109.074572 C435.134142,109.074572 435.321315,109.058297 435.565456,109.025744 C435.809598,108.993192 435.996771,108.976916 436.12698,108.976916 L436.12698,113.078479 C434.141293,113.24124 432.41605,113.363309 430.951199,113.44469 C429.486348,113.52607 428.200553,113.56676 427.093777,113.56676 C423.122403,113.56676 420.01371,113.127311 417.767605,112.248401 C415.5215,111.36949 413.503291,109.855833 411.712917,107.707385 C410.866559,106.698265 408.783246,103.451228 405.462917,97.966174 C402.142588,92.4811206 399.229206,87.7855295 396.722683,83.87926 C394.704444,83.9443645 392.914097,83.9931921 391.351589,84.0257444 C389.789081,84.0582966 388.275425,84.0745725 386.810574,84.0745725 L386.810574,97.0628537 C386.810574,102.043347 387.29885,105.176454 388.275417,106.462268 C389.251985,107.748082 391.172538,108.390979 394.037136,108.390979 L395.404324,108.390979 L395.404324,112.78551 C392.735039,112.622749 390.065795,112.50068 387.396511,112.419299 C384.727227,112.337918 381.992879,112.297229 379.193386,112.297229 C378.281923,112.297229 376.939163,112.321643 375.165066,112.370471 C373.390968,112.419299 369.981172,112.557644 364.935574,112.78551 L364.935574,108.488635 Z M386.810574,77.6780881 C388.535843,77.7757448 390.000672,77.8489863 391.205105,77.8978147 C392.409538,77.946643 393.418642,77.9710569 394.232449,77.9710569 C395.241568,77.9710569 396.315776,77.946643 397.455105,77.8978147 C398.594433,77.8489863 399.782573,77.7757448 401.019558,77.6780881 C403.851603,75.8551623 405.926778,73.7799878 407.245144,71.4525022 C408.56351,69.1250166 409.222683,66.3988069 409.222683,63.2737912 C409.222683,59.2047605 407.847371,55.908895 405.096706,53.3860959 C402.346042,50.8632968 398.692107,49.6019162 394.134792,49.6019162 C392.735046,49.6019162 391.457389,49.6507439 390.301785,49.7484006 C389.14618,49.8460573 388.015006,49.9925403 386.90823,50.1878537 C386.875678,53.7360486 386.851264,57.4469489 386.834988,61.3206662 C386.818712,65.1943835 386.810574,70.646803 386.810574,77.6780881 L386.810574,77.6780881 Z" id="Path" transform="translate(400.531277, 78.337268) rotate(33.000000) translate(-400.531277, -78.337268) "></path>
                    <path d="M294.517026,79.6859413 L294.517026,75.3737893 C294.731217,75.4057313 294.960704,75.4296875 295.205494,75.4456585 C295.450284,75.4616295 295.817463,75.4696149 296.307043,75.4696149 C298.846738,75.4696149 300.560241,74.583237 301.447604,72.8104545 C302.334967,71.0376721 302.778642,66.493987 302.778642,59.179263 L302.778642,55.7295415 L302.778642,50.6507847 L302.870438,39.2475384 C302.870438,38.7045239 302.885737,37.921956 302.916335,36.8998112 C303.008132,32.2043333 303.054029,28.9622663 303.054029,27.1735129 C303.054029,22.414151 302.618004,19.2838794 301.74594,17.7826041 C300.873876,16.2813289 299.244518,15.5307025 296.857817,15.5307025 C296.398836,15.5307025 296.046956,15.5386879 295.802167,15.5546589 C295.557377,15.57063 295.343189,15.5786153 295.159596,15.5786153 L295.159596,11.3143762 C297.791087,11.4740863 300.085957,11.5938671 302.044276,11.6737222 C304.002595,11.7535772 305.777294,11.7935042 307.368428,11.7935042 C310.21411,11.7935042 313.862954,11.6577526 318.315069,11.3862454 C322.767184,11.1147381 325.788763,10.9789866 327.379897,10.9789866 C339.191007,10.9789866 348.446983,14.0373897 355.148105,20.1542877 C361.849227,26.2711857 365.199737,34.6638272 365.199737,45.3324639 C365.199737,55.6816804 361.665637,64.0423803 354.597331,70.4148145 C347.529024,76.7872488 338.150654,79.9734181 326.46194,79.9734181 C325.513379,79.9734181 322.713637,79.8456519 318.062631,79.5901157 C313.411624,79.3345795 309.219661,79.2068133 305.486616,79.2068133 C304.599253,79.2068133 301.600622,79.3345795 296.490634,79.5901157 L294.517026,79.6859413 Z M313.219617,71.505257 C315.116738,71.9524453 316.990882,72.2798462 318.842105,72.4874694 C320.693328,72.6950925 322.582771,72.7989026 324.510491,72.7989026 C332.435562,72.7989026 338.539917,70.515082 342.823739,65.9473722 C347.107561,61.3796625 349.24944,54.8635869 349.24944,46.39895 C349.24944,37.1038204 346.95457,29.8930161 342.364761,24.7663209 C337.774951,19.6396257 331.349314,17.0763166 323.087658,17.0763166 C321.894307,17.0763166 320.540334,17.1322143 319.025697,17.2440114 C317.511059,17.3558085 315.698112,17.5554431 313.5868,17.8429214 C313.464405,25.6367757 313.37261,33.0232585 313.311412,40.0025912 C313.250215,46.9819239 313.219617,53.3303064 313.219617,59.0479291 L313.219617,71.505257 Z" id="Path" transform="translate(329.858382, 45.476202) rotate(12.000000) translate(-329.858382, -45.476202) "></path>
                    <path d="M204.097656,0.5 C205.334642,0.531217856 207.279609,0.617065674 209.932617,0.757546027 C212.585625,0.898026381 214.481765,0.968265504 215.621094,0.968265504 C216.630213,0.968265504 218.396146,0.898026381 220.918945,0.757546027 C223.441744,0.617065674 225.305333,0.531217856 226.509766,0.5 C226.965497,1.65506069 227.632808,2.88034317 228.511719,4.17588421 C229.390629,5.47142525 230.546217,6.93083814 231.978516,8.55416667 L267.867188,49.1527859 C267.834635,45.0944646 267.785808,39.6782477 267.720703,32.9039729 C267.590494,18.0130554 267.346356,9.8809258 266.988281,8.50734012 C266.53255,7.00888302 265.816411,5.98651356 264.839844,5.44020107 C263.863276,4.89388858 262.251964,4.62073644 260.005859,4.62073644 L258.394531,4.62073644 L258.394531,0.5 C261.942726,0.656089282 264.644522,0.773154487 266.5,0.851199128 C268.355478,0.929243769 269.885411,0.968265504 271.089844,0.968265504 C272.522143,0.968265504 274.247386,0.929243769 276.265625,0.851199128 C278.283864,0.773154487 280.822901,0.656089282 283.882812,0.5 L283.882812,4.62073644 L283.003906,4.62073644 C280.920562,4.62073644 279.39063,4.8470625 278.414062,5.29972142 C277.437495,5.75238034 276.737632,6.54061939 276.314453,7.66446222 C275.793617,9.16291932 275.419272,16.2024403 275.191406,28.7832365 L275.191406,29.5324613 L274.996094,39.6938227 C274.930989,43.5960548 274.882162,47.2562935 274.849609,50.6746488 C274.817057,54.0930041 274.800781,56.9571994 274.800781,59.2673208 C274.800781,60.7969957 274.857747,62.2798217 274.97168,63.7158431 C275.085613,65.1518645 275.744791,67.4785058 275.972656,68.8208736 L265.914062,67.8834061 C265.523436,67.1029597 264.95378,66.2132641 264.205078,65.2142927 C263.456376,64.2153213 262.024099,62.5139736 259.908203,60.1101987 L220.503906,15.9059351 C220.503906,30.6719812 220.585286,41.2624801 220.748047,47.6777496 C220.910808,54.093019 222.413735,59.7333953 222.739258,60.888456 C223.194989,62.3869131 225.449539,62.5342502 226.442383,63.1117806 C227.435226,63.6893109 231.28418,64.8687127 231.28418,64.8687127 L231.28418,68.5268029 C226.617188,67.6811154 224.952158,68.692257 223.047852,68.6298213 C221.143545,68.5673856 219.160813,68.9426226 217.923828,68.9426226 C216.882156,68.9426226 214.367197,69.4233749 212.560547,69.4858106 C210.753897,69.5482463 209.438822,70.4972632 205.5,70.6845703 L205.258789,64.8687127 C205.519207,64.8999306 205.787759,64.9233436 206.064453,64.9389526 C206.341147,64.9545615 206.739906,64.9623659 207.260742,64.9623659 C211.915713,64.9623659 213.033203,56.9728812 213.130859,44.7042636 C213.163412,41.9883101 213.179688,39.8811364 213.179688,38.3826793 L213.326172,28.4086241 C213.326172,26.3794634 213.358724,23.4684419 213.423828,19.6754724 C213.488933,15.8825029 213.521484,13.4553509 213.521484,12.3939438 C213.521484,9.36581174 212.968104,7.29765978 211.861328,6.18942588 C210.754552,5.08119198 208.768895,4.52708334 205.904297,4.52708334 C205.708983,4.52708334 205.40788,4.54269203 205.000977,4.57390989 C204.594073,4.60512774 204.29297,4.62073644 204.097656,4.62073644 L204.097656,0.5 Z" id="Path"></path>
                </g>
                <text id="e" transform="translate(167.000000, 74.500000) rotate(-14.000000) translate(-167.000000, -74.500000) " font-family="IowanOldStyle-Bold, Iowan Old Style" font-size="100" font-weight="bold">
                    <tspan x="140.510742" y="110">e</tspan>
                </text>
            </g>
            <g id="Page-1" transform="translate(0.000000, 248.000000)">
                <g id="Group-2" transform="translate(0.162879, 19.075000)">
                    <path d="M151.179357,20.5502137 L154.249525,22.1545125 C154.998248,22.8369892 155.760413,23.7588114 156.53602,24.762695 C158.274079,27.0152783 160.075316,28.3132149 161.9236,29.5988423 C174.149158,38.1086017 190.145215,41.165386 202.511915,50.4328449 C203.583247,51.2356782 204.791689,52.4283028 206.104979,53.8807882 C207.646784,55.5862961 209.333763,56.285185 211.116181,58.5049438 C214.960611,63.2904867 219.249974,68.7940662 223.489601,72.9477369 C229.062681,78.4089181 239.948065,81.4492901 246.912399,84.2038152 C258.283042,88.7021435 256.231783,91.9244182 262.804953,99.2128315 C263.396403,99.8679544 265.962494,98.8873215 266.709872,98.4250428 C267.906216,97.6837555 267.623933,94.8991412 267.660226,93.4740095 C267.781205,88.6556421 256.703599,79.6302641 241.928082,68.0185867 C230.101753,58.7251417 219.268793,48.7916184 208.52455,40.8207285 C201.300785,35.462124 194.117345,30.3729542 186.700014,25.5108207 C175.487988,18.1622291 163.738279,12.7024157 150.501877,6.25376327 C148.472126,5.26492431 141.405632,1.24802248 134.851281,0.947130958 C128.821171,0.669490144 123.225239,3.95741387 122.381078,6.33035383 C121.110803,9.89591838 121.778873,13.5914133 123.86777,17.3402482 C125.777888,20.7676762 128.876283,22.8725491 132.769105,26.335537 C137.196922,30.2758483 140.61255,32.016916 146.517649,35.9736396 C150.085173,38.3629918 155.855852,40.3734942 159.622318,42.8681585 C165.374178,46.6812747 171.210723,49.1691005 176.672234,52.8153587 C185.650189,58.8099384 193.619989,65.6100868 198.555915,69.3712309 C203.506628,73.1419487 208.356525,76.8989897 213.127113,80.6204708 C223.157582,88.445018 231.494351,96.1177519 241.035528,103.464976 C246.599199,107.751312 251.668202,111.589047 257.17676,115.618258 C258.514245,116.597523 262.987765,120.640411 264.32525,121.600528 C269.92387,125.622901 274.179628,128.252966 279.826639,132.105746 C283.853882,134.852065 287.903976,135.931171 291.993052,138.217947 C297.912938,141.529121 303.913475,143.140258 310.043057,146.223029 C312.789271,147.603027 324.748676,152.812553 328.007032,154.038002 C334.127205,156.338455 340.405993,157.420297 346.885068,159.638688 C356.720627,163.008673 367.015905,164.481673 377.914731,165.473248 C389.984361,166.571502 402.793304,167.989795 416.537816,166.828627 C424.039832,166.195387 431.777085,165.432217 438.707813,162.439714 C442.318352,160.879181 447.03114,155.925413 446.808002,152.384467 C446.247468,143.482181 432.356438,142.672509 429.452952,142.351102 C416.763642,140.946486 407.073258,140.447279 398.747243,139.602048 C392.707723,138.987955 387.676358,138.420365 383.479746,137.895172 C376.997982,137.082765 372.5043,135.116029 369.350791,134.652382 C361.508691,133.500788 366.662378,134.652382 358.063489,132.522891 C358.063489,132.522891 352.674566,131.090921 339.97047,126.689698 C333.893313,124.584825 325.426156,121.685325 315.181958,117.703983 C308.958282,115.28591 303.15131,111.043339 293.7338,107.867566 C291.076303,106.97173 287.613627,106.766576 285.354016,108.447466 C279.373642,112.89519 289.136613,113.222067 289.272378,113.239847 C303.979341,115.149141 307.932653,128.449914 321.439239,134.131293 C337.210814,140.764583 353.268705,146.19294 370.106235,149.175869 C370.106235,149.175869 377.241283,150.290535 384.452951,150.892318 C388.880767,151.261594 392.999416,152.519868 396.507795,152.68399 C398.627609,152.782464 401.432968,152.708609 404.371403,152.601929 C408.629849,152.448748 414.461017,149.132103 417.645442,149.640883 C420.829867,150.149663 423.076036,152.048015 419.341831,153.627696 C415.606281,155.207376 408.428218,154.739627 404.695357,155.119844 C398.603413,155.739407 393.811317,155.331836 384.452951,153.752155 C376.075856,152.337965 365.893492,152.231285 357.945199,149.948613 C347.332689,146.900035 338.248542,143.658612 333.754859,141.771202 C327.556723,139.169858 323.584593,138.620047 318.671518,136.552102 C310.778338,133.229986 302.472486,128.45812 293.7338,123.518028 C290.541309,121.714047 283.980237,117.719028 280.619721,115.618258 C278.810419,114.488547 273.316647,109.213372 271.515411,108.067248 C266.712561,105.007729 261.936595,101.897604 257.17676,98.7614942 C246.076303,91.4443594 235.513528,83.1479595 224.124067,76.4777416 C216.222821,71.8508506 213.550538,65.6716328 208.723493,61.3237503 C199.917596,53.389788 191.506896,47.9395483 184.609773,43.5848274 C170.752348,34.8343548 158.19746,31.1552721 150.581186,25.0690572 C149.137508,23.9174633 145.184197,22.6291005 144.119585,21.1355844 C143.674653,20.509183 144.212335,17.6725965 146.033735,17.5221508 C147.855135,17.3703373 151.179357,20.5502137 151.179357,20.5502137 L151.179357,20.5502137 Z" id="Stroke-3" stroke="#000000" stroke-width="3" fill-opacity="0.607846467" fill="#AA7CD3"></path>
                    <g id="Stroke-5">
                        <use fill="#D8D8D8" xlink:href="#path-1"></use>
                        <use stroke="#000000" stroke-width="3" fill="#761DC6" xlink:href="#path-1"></use>
                    </g>
                    <g id="Stroke-7">
                        <use fill="#D8D8D8" xlink:href="#path-2"></use>
                        <use stroke="#000000" stroke-width="3" fill="#761DC6" xlink:href="#path-2"></use>
                    </g>
                    <g id="Stroke-9">
                        <use fill="#D8D8D8" xlink:href="#path-3"></use>
                        <use stroke="#000000" stroke-width="3" fill="#761DC6" xlink:href="#path-3"></use>
                    </g>
                    <g id="Stroke-11">
                        <use fill="#D8D8D8" xlink:href="#path-4"></use>
                        <use stroke="#000000" stroke-width="3" fill="#761DC6" xlink:href="#path-4"></use>
                    </g>
                    <g id="Stroke-13">
                        <use fill="#D8D8D8" xlink:href="#path-5"></use>
                        <use stroke="#000000" stroke-width="3" fill="#761DC6" xlink:href="#path-5"></use>
                    </g>
                    <g id="Stroke-15">
                        <use fill="#D8D8D8" xlink:href="#path-6"></use>
                        <use stroke="#000000" stroke-width="3" fill="#761DC6" xlink:href="#path-6"></use>
                    </g>
                    <g id="Stroke-17">
                        <use fill="#D8D8D8" xlink:href="#path-7"></use>
                        <use stroke="#000000" stroke-width="3" fill="#761DC6" xlink:href="#path-7"></use>
                    </g>
                    <g id="Stroke-19">
                        <use fill="#D8D8D8" xlink:href="#path-8"></use>
                        <use stroke="#000000" stroke-width="3" fill="#761DC6" xlink:href="#path-8"></use>
                    </g>
                    <g id="Stroke-21">
                        <use fill="#D8D8D8" xlink:href="#path-9"></use>
                        <use stroke="#000000" stroke-width="3" fill="#761DC6" xlink:href="#path-9"></use>
                    </g>
                    <g id="Stroke-23">
                        <use fill="#D8D8D8" xlink:href="#path-10"></use>
                        <use stroke="#000000" stroke-width="3" fill="#761DC6" xlink:href="#path-10"></use>
                    </g>
                    <path d="M21.9992169,11.2160752 C21.9992169,7.6295378 24.5064358,4.72025522 27.5983572,4.72025522 C30.6912246,4.72025522 33.1974975,7.6295378 33.1974975,11.2160752 C33.1974975,14.8038262 30.6912246,17.7118951 27.5983572,17.7118951 C26.9436419,17.7118951 26.3154179,17.5820272 25.7307156,17.341711 L21.1997451,20.9488816 C21.1997451,22.7536806 19.7673189,24.207715 17.9999661,24.207715 C17.7331601,24.207715 17.4739232,24.1749446 17.2260396,24.1118313 L1.9755255,36.251441 L14.8673616,21.6224952 C14.8228939,21.4076671 14.800187,21.1867704 14.800187,20.9598051 C14.800187,19.1659295 16.2326132,17.7118951 17.9999661,17.7118951 C18.101201,17.7118951 18.2014897,17.71675 18.2998862,17.7264597 L22.2707534,13.2199239 C22.094775,12.5887905 21.9992169,11.9151769 21.9992169,11.2160752 Z" id="Stroke-1" stroke="#000000" stroke-width="3" fill="#D19FFE" transform="translate(17.586511, 20.485848) rotate(-4.000000) translate(-17.586511, -20.485848) "></path>
                </g>
                <path d="M103.574275,3.88075406 C104.297294,4.02347675 105.025189,4.16970451 105.757719,4.31939225 C123.967565,8.04045479 145.041547,18.6595209 165.267409,28.808984 C211.963798,52.2415952 253.737703,101.44283 302.72462,126.374428 C360.487076,155.771463 422.147482,173.02993 482.500016,155.499995 C486.89544,154.223304 486.316194,149.532476 487.000016,151.499995 C487.683645,153.466959 491.500016,159.88827 487.000016,163.499995 C486.046502,164.26529 484.41279,164.904276 483.122032,165.584214 C481.145072,166.625626 479.172334,167.632228 477.20271,168.603619 C422.715749,195.475827 370.61184,195.401778 297.417693,159.888273 C247.600372,135.717555 236.668215,123.584275 197.499996,91.5000012 C189.290703,84.7754365 123.000001,34.6179675 95.9999988,29.8089834 C81.768796,27.2742567 76.2887647,27.4922601 71.2133307,27.8040535 C66.65945,28.0838069 62.431286,28.2441041 52.5,29.8089841 C31.5000038,33.1179689 7.50161311,63.6658937 4.50000002,55.9999984 C1.49704273,48.3354707 15.0000006,21.9999996 25.5000004,14.4999998 C36.0000002,6.99999998 29.333272,5.96219428 59.9999988,2 C67.4753073,-0.319923804 83.6785119,-0.0466353522 103.574275,3.88075406 Z" id="Stroke-33" stroke="#020302" stroke-width="5" fill-opacity="0.6580899" fill="#F2E3FE"></path>
                <polygon id="Stroke-27" stroke="#221F20" stroke-width="2" fill="#000000" points="265.378531 140.979702 278.424055 145.394602 286.873737 154.588205"></polygon>
                <polygon id="Stroke-31" stroke="#221F20" stroke-width="2" fill="#000000" points="475.008608 169.411489 477.405328 165.910206 481.206744 166.692524"></polygon>
                <polygon id="Fill-29" stroke="#221F20" stroke-width="2" points="474.008608 169.411489 476.405328 165.910206 480.206744 166.692524"></polygon>
                <polygon id="Fill-25" fill="#000000" points="265.378531 140.979702 278.424055 145.394602 286.873737 154.588205"></polygon>
            </g>
        </g>
    </g>
</svg>