<?xml version="1.0" encoding="UTF-8" standalone="no"?>
<svg width="2606px" height="2251px" viewBox="0 0 2606 2251" version="1.1" xmlns="http://www.w3.org/2000/svg" xmlns:xlink="http://www.w3.org/1999/xlink">
    <!-- Generator: Sketch 3.7 (28169) - http://www.bohemiancoding.com/sketch -->
    <title>Group</title>
    <desc>Created with Sketch.</desc>
    <defs></defs>
    <g id="Page-1" stroke="none" stroke-width="1" fill="none" fill-rule="evenodd">
        <g id="Group" transform="translate(-402.000000, -449.000000)">
            <ellipse id="Oval-1" stroke="#131311" stroke-width="7" transform="translate(1705.228863, 1573.708100) rotate(330.000000) translate(-1705.228863, -1573.708100) " cx="1705.22886" cy="1573.7081" rx="1379.13987" ry="1020.1004"></ellipse>
            <path d="M2480.38037,2268.62612 C2396.40738,2341.59424 2302.87775,2408.61926 2200.67429,2467.62645 C1548.71063,2844.03785 790.672063,2751.64346 507.547769,2261.2578 C498.060745,2244.82579 489.227339,2228.15542 481.038929,2211.26694 L634.587424,2230.75297 L637.512131,2157.22158 L615.142696,2126.27015 L625.059279,2003.40206 L645.909237,2013.51299 C645.909237,2013.51299 637.560798,2058.03199 637.512138,2079.66901 C637.385621,2135.9261 645.383704,2247.19531 645.383704,2247.19531 L725.059104,2278.3884 L731.159859,2220.74837 C731.159859,2220.74837 759.79146,2105.73894 736.24383,2059.7758 C712.6962,2013.81265 726.967018,1920.7457 726.967018,1920.7457 L759.738335,1936.8014 C759.738335,1936.8014 759.738335,2003.40206 747.942639,2039.44761 C736.146943,2075.49316 736.243822,2291.91152 736.243822,2291.91152 L807.773458,2307.3969 L833.056174,2277.50877 L800.907253,2270.7327 L845.771792,2257.08392 L865.4793,2112.93069 C865.4793,2112.93069 865.4793,2054.52821 865.4793,2025.32697 C865.4793,2005.06263 865.4793,1980.54131 865.4793,1980.54131 L838.414328,1887.41637 L837.271864,1811.19775 L863.571373,1842.59383 L874.881761,1897.5273 C874.881761,1897.5273 865.023393,1947.24564 865.4793,1991.71559 C865.998295,2042.33928 877.806467,2182.80822 877.806467,2182.80822 L865.479287,2278.69772 L909.955389,2278.80405 L920.888764,2109.61515 L909.704047,2032.4299 L905.636877,1893.43846 L888.488501,1864.84561 L891.538878,1773.79892 L913.771217,1738.10134 L932.953178,1781.00029 L913.771229,1888.96298 L931.170935,2046.50401 L942.492748,2278.26274 L948.079394,2296.706 L979.085852,2295.8457 L1024.07606,2291.5442 L1002.73485,2271.01303 L968.552339,2273.48759 L985.700715,2252.20244 L1024.07606,2270.12371 L968.175326,2234.14583 L970.08324,2207.91155 L1067.53537,2270.25906 L1116.06722,2262.62269 L1143.63487,2217.57781 L1105.00817,2131.48027 L1108.30989,2102.78109 L1137.78545,2167.61283 C1137.78545,2167.61283 1139.91613,2120.54408 1140.98148,2097.00971 C1141.86594,2077.47114 1143.63486,2038.394 1143.63486,2038.394 L1160.01779,1974.76088 C1160.01779,1974.76088 1172.37598,2003.61907 1172.37597,2022.35764 C1172.37597,2038.58845 1160.01776,2079.66901 1160.01776,2079.66901 L1143.63487,2237.00706 L1188.85357,2273.50693 L1224.94399,2273.50693 L1216.30696,2067.5475 L1196.23388,2053.13507 L1193.43484,1933.81451 L1211.47434,1902.10912 L1225.45809,1950.05386 L1233.95802,2061.31275 L1242.73214,2241.79186 L1279.0739,2275.33385 L1342.98331,2270.17206 L1361.02281,2245.33939 L1376.14902,2269.86274 L1400.04936,2257.06458 L1439.43007,2285.44478 L1437.27082,2135.16313 L1424.95506,2093.99444 L1422.79581,1984.13717 L1448.60405,1967.25018 L1452.67122,2090.78524 C1452.67122,2090.78524 1445.80867,2124.93691 1445.02813,2146.28902 C1443.26097,2194.63078 1445.02814,2299.86687 1445.02814,2299.86687 L1571.72734,2275.45951 L1601.96835,2300.93983 L1624.07502,2290.72257 L1612.90172,2112.93068 L1644.15952,2133.46186 L1636.02518,1980.7153 L1624.07502,1917.32384 C1624.07502,1917.32384 1612.1249,1884.47472 1624.07502,1851.3596 C1636.02515,1818.24447 1643.90816,1790.938 1643.90816,1790.938 L1659.14864,1827.31144 C1659.14864,1827.31144 1645.65086,1932.51522 1643.90816,1973.53325 C1640.57071,2052.0871 1643.90818,2186.02709 1643.90818,2186.02709 L1668.04843,2257.4029 L1704.3902,2272.77229 L1772.36677,2235.14146 C1772.36677,2235.14146 1759.80552,2174.21688 1741.14667,2146.28902 C1727.48904,2125.84681 1675.41732,2090.03127 1675.41732,2090.03127 L1678.34203,2033.27087 L1756.34943,2163.22434 L1765.24922,2013.81265 C1765.24922,2013.81265 1776.1084,2105.89832 1781.56175,2146.28902 C1785.93358,2178.6693 1794.72478,2232.12558 1794.72478,2232.12558 L1831.95766,2262.12005 L1909.07395,2266.42154 C1909.07395,2266.42154 1944.804,2187.96522 1950.93564,2146.28902 C1955.43653,2115.69688 1940.97153,2049.61655 1940.97153,2049.61655 L1970.32141,1974.35489 L1968.93903,2043.14981 L1989.13779,2071.21102 L1962.20998,2146.28902 L1965.76298,2211.82639 L1938.44668,2247.20498 L1941.37139,2272.68529 L1968.43635,2272.68529 L1962.20992,2186.58774 L1994.11893,2268.50946 L2032.11726,2261.08576 L2088.78345,2220.77737 L2093.34188,2151.01583 L2111.64414,2041.15855 C2111.64414,2041.15855 2114.91498,2102.59223 2116.90154,2129.32471 C2118.38426,2149.27714 2122.05198,2181.21328 2122.05198,2181.21328 C2122.05198,2181.21328 2118.61836,2192.53585 2116.90155,2198.19713 C2112.90224,2211.38509 2104.90361,2237.76102 2104.90361,2237.76102 L2028.79269,2277.65376 L2104.77794,2279.37436 L2183.67646,2230.98496 L2138.7091,2203.26207 L2155.85748,2179.39602 L2214.16881,2237.00705 L2147.20903,2277.20911 L2233.09943,2270.23006 C2233.09943,2270.23006 2199.4985,2263.21394 2183.67648,2244.43076 C2168.58725,2226.51752 2140.36567,2160.14079 2140.36567,2160.14079 L2227.64988,2221.29935 L2247.72296,2205.82363 C2247.72296,2205.82363 2259.8003,2132.63044 2258.78208,2089.53828 C2258.37547,2072.32991 2245.43323,2064.63228 2241.87361,2039.44761 C2237.27787,2006.93232 2241.87355,1958.2702 2241.87355,1958.2702 L2268.05881,1938.28034 L2284.4484,1980.54131 L2268.05881,2086.7254 L2258.78201,2255.7113 L2330.44874,2248.83858 L2357.76504,2182.73089 L2366.90475,2244.43076 L2428.6549,2252.92742 L2380.8885,2207.56356 L2395.88905,2187.98935 C2395.88905,2187.98935 2420.56401,2235.41415 2428.65492,2244.43076 C2444.61668,2262.21874 2468.04704,2268.40313 2468.04704,2268.40313 L2480.38037,2268.62611 Z M2544.01937,2210.45209 C2546.44862,2208.11558 2548.86861,2205.77395 2551.27929,2203.42726 L2503.12067,2194.65908 L2544.01937,2210.45209 Z M2608.83811,2144.55634 C2609.21464,2144.1515 2609.59091,2143.74653 2609.96691,2143.34144 L2611.36908,2022.35764 L2627.63776,1962.79402 L2615.43625,1917.32384 L2583.28733,1921.41268 C2583.28733,1921.41268 2598.36932,1986.60152 2596.89405,2013.81265 C2596.25576,2025.58563 2576.94665,2038.365 2576.94665,2038.365 L2596.89407,2055.34865 C2596.89407,2055.34865 2606.46552,2108.92516 2608.83811,2144.55634 Z M2627.16724,2124.51703 C2628.88857,2122.60323 2630.60405,2120.68675 2632.31367,2118.76762 L2559.93537,2089.53828 L2557.01067,2051.81079 C2557.01067,2051.81079 2602.43336,2076.78299 2648.60749,2100.19206 C2653.8466,2094.12573 2659.02782,2088.03427 2664.1508,2081.91857 L2652.66913,1980.54131 L2642.75255,2098.14127 L2578.60323,2066.96752 L2575.42718,2097.60963 L2627.16724,2124.51703 Z" id="Oval-2" stroke="#131311" fill="#000000"></path>
            <text id="IBiS" font-family="Arial-ItalicMT, Arial" font-size="390.645738" font-style="italic" font-weight="normal" fill="#000000">
                <tspan x="2001.18489" y="1307.11751">IBiS</tspan>
            </text>
            <path d="M797.902574,1230.29299 C797.902574,1230.29299 813.13161,1197.06999 831.433876,1197.06999 C849.736142,1197.06999 886.706253,1173.09761 911.611961,1173.09761 C936.517668,1173.09761 967.021444,1161.92339 996.622666,1161.92339 C1026.22389,1161.92339 1078.69724,1156.00763 1097.76495,1176.53881 C1116.83267,1197.06999 1117.32393,1250.51485 1117.32393,1250.51485 L1109.96646,1372.51297 L1093.82346,1460.98843 L1088.73949,1508.3822 L1091.42428,1540.52258 L1108.57266,1576.6358 L1138.17389,1622.21231 L1224.4413,1692.17685 L1239.04198,1717.22218 L1267.50075,1751.41181 L1316.15827,1782.26658 L1364.69011,1805.37865 L1436.48252,1876.64813 L1343.09756,1944.67941 L1307.89826,1983.71185 L1303.59117,2009.29849 L1294.56571,2058.44186 L1275.62366,2081.96959 L1278.54837,2152.71709 L1305.62475,2180.88463 L1302.57438,2128.74472 L1313.74767,2095.64737 L1337.648,2075.31919 L1322.77313,2034.25683 L1330.90747,1998.45293 L1433.55781,1913.53466 L1454.52202,1889.87161 L1439.40722,1855.58531 L1393.91433,1810.22146 L1393.91433,1793.22814 C1393.91433,1793.22814 1392.65761,1781.39659 1416.03242,1795.80904 C1439.40723,1810.22148 1450.3406,1839.14297 1450.3406,1839.14297 L1460.74844,1861.28842 L1458.58919,1931.27228 L1479.80473,1970.83637 L1486.03116,2159.49315 L1498.97527,2274.92787 L1539.00719,2274.92787 L1508.64051,2142.27751 L1500.3805,1966.40921 L1518.43142,1947.90795 L1515.38104,1925.00853 L1566.59768,1910.49945 L1569.64806,1890.38392 L1607.14371,1876.07782 L1458.36069,1668.94878 L1489.61849,1646.59067 L1511.9765,1664.75361 L1538.16176,1664.75361 L1545.51923,1639.81461 L1569.54524,1635.51311 L1577.66815,1614.98194 L1605.87557,1603.36307 L1628.6106,1590.56491 L1628.6106,1557.24525 L1666.86027,1546.27402 L1675.76006,1520.90003 L1705.8754,1505.83997 L1714.00974,1467.45517 L1745.39321,1452.83976 L1747.42679,1421.12469 L1767.37421,1409.39949 L1767.37421,1364.89594 L1795.58163,1336.94106 L1818.19098,1316.84486 L1813.10702,1281.8046 L1839.04094,1267.4985 L1848.0664,1238.47066 L1863.18119,1200.1922 L1883.39137,1160.95676 L1843.87356,1150.63318 L1895.33011,1123.43227 L1895.58145,1087.21271 L1925.05701,1059.04517 L1909.02825,1014.54162 L1938.00112,994.861076 L1925.92528,952.078121 L1953.76712,898.217609 L1929.74111,888.763987 L1934.82507,864.994604 L1955.91495,834.246168 L1939.78336,812.10072 L1941.94262,788.128346 L1941.94262,751.473812 L1892.38256,768.563795 L1923.76603,713.842984 L1917.80237,687.396042 L1863.40968,721.692004 L1875.61119,684.921474 L1813.73537,745.761041 L1798.60916,677.391442 L1777.51928,727.917088 L1769.51061,775.446186 L1720.85309,844.782413 L1556.57828,1018.27281 L1517.06046,1026.8758 L1461.9366,1094.81041 L1450.11211,1135.87277 L1435.38575,1174.47022 L1400.70056,1224.9862 L1296.01664,1354.1857 L1241.63538,1409.56382 L1198.17607,1413.10168 L1184.19231,1384.2865 L1178.10298,1262.5977 L1198.42741,1211.42441 L1201.35212,1161.75907 L1176.96052,1124.23457 L1148.87877,1093.59246 L1108.72118,1088.64332 L1015.33622,1120.35839 L895.663171,1152.82742 L822.351292,1179.59335 L797.902574,1230.29299 Z" id="Path-1" stroke="#000000" fill="#131311"></path>
        </g>
    </g>
</svg>