<?xml version="1.0" encoding="UTF-8" standalone="no"?><!DOCTYPE svg PUBLIC "-//W3C//DTD SVG 1.1//EN" "http://www.w3.org/Graphics/SVG/1.1/DTD/svg11.dtd"><svg width="100%" height="100%" viewBox="0 0 3000 3000" version="1.1" xmlns="http://www.w3.org/2000/svg" xmlns:xlink="http://www.w3.org/1999/xlink" xml:space="preserve" xmlns:serif="http://www.serif.com/" style="fill-rule:evenodd;clip-rule:evenodd;stroke-linejoin:round;stroke-miterlimit:10;"><g><path d="M1180.72,842.743l54.038,30.733" style="fill:none;stroke:#231f20;stroke-width:2.26px;"/><path d="M1180.72,854.705l44.275,25.521" style="fill:none;stroke:#231f20;stroke-width:2.26px;"/><path d="M1180.72,967.238l54.038,-30.733" style="fill:none;stroke:#231f20;stroke-width:2.26px;"/><path d="M1180.72,955.247l44.275,-25.521" style="fill:none;stroke:#231f20;stroke-width:2.26px;"/><path d="M1127.39,874.163l53.329,-31.42" style="fill:none;stroke:#231f20;stroke-width:2.26px;"/><path d="M1127.55,936.101l53.163,31.137" style="fill:none;stroke:#231f20;stroke-width:2.26px;"/><path d="M1127.39,936.101l0,-61.938" style="fill:none;stroke:#231f20;stroke-width:2.26px;"/><path d="M1137.93,925.197l0,-45.725" style="fill:none;stroke:#231f20;stroke-width:2.26px;"/><path d="M1279.81,859.23l-45.054,14.929" style="fill:none;stroke:#231f20;stroke-width:2.26px;"/><path d="M1234.76,936.501l0,-62.342" style="fill:none;stroke:#231f20;stroke-width:2.26px;"/><path d="M1330.88,904.988l-24.754,-33.795" style="fill:none;stroke:#231f20;stroke-width:2.26px;"/><path d="M1279.81,950.747l-45.054,-14.246" style="fill:none;stroke:#231f20;stroke-width:2.26px;"/><path d="M1306.12,939.438l24.754,-34.45" style="fill:none;stroke:#231f20;stroke-width:2.26px;"/><path d="M1292.62,939.438l25.458,-34.45" style="fill:none;stroke:#231f20;stroke-width:2.26px;"/><g><path d="M1332.53,905.263l48.033,0" style="fill:#d7263d;fill-rule:nonzero;stroke:#d7263d;stroke-width:2.26px;"/><path d="M1404.6,922.446l21.787,36.825" style="fill:#d7263d;fill-rule:nonzero;stroke:#d7263d;stroke-width:2.26px;"/><path d="M1426.38,964.488l47.258,0" style="fill:#d7263d;fill-rule:nonzero;stroke:#d7263d;stroke-width:2.26px;"/><path d="M1426.38,953.963l47.258,0" style="fill:#d7263d;fill-rule:nonzero;stroke:#d7263d;stroke-width:2.26px;"/><path d="M1426.38,959.271l-22.567,38.196" style="fill:#d7263d;fill-rule:nonzero;stroke:#d7263d;stroke-width:2.26px;"/><path d="M1404.6,888.775l11.25,-20.333" style="fill:#d7263d;fill-rule:nonzero;stroke:#d7263d;stroke-width:2.26px;"/><path d="M1404.6,1029.77l12.72,21.8" style="fill:#d7263d;fill-rule:nonzero;stroke:#d7263d;stroke-width:2.26px;"/><text x="1383.59px" y="916.45px" style="font-family:'Arial-BoldMT', 'Arial', sans-serif;font-weight:700;font-size:31.602px;fill:#d7263d;stroke:#d7263d;stroke-width:1px;stroke-miterlimit:1.41421;">N</text><text x="1476.67px" y="970.455px" style="font-family:'Arial-BoldMT', 'Arial', sans-serif;font-weight:700;font-size:31.602px;fill:#d7263d;stroke:#d7263d;stroke-width:1px;stroke-miterlimit:1.41421;">O</text><text x="1382.81px" y="1024.49px" style="font-family:'ArialMT', 'Arial', sans-serif;font-size:31.602px;fill:#d7263d;stroke:#d7263d;stroke-width:1px;stroke-miterlimit:1.41421;">O</text><text x="1415.06px" y="862.446px" style="font-family:'Arial-BoldMT', 'Arial', sans-serif;font-weight:700;font-size:31.602px;fill:#d7263d;stroke:#d7263d;stroke-width:1px;stroke-miterlimit:1.41421;">H</text><g transform="matrix(4.16667,0,0,4.16667,870.426,388.825)"><g transform="matrix(1.00069,0,0,1,-0.0896168,0)"><text x="130.713px" y="165.536px" style="font-family:'ArialMT', 'Arial', sans-serif;font-size:7.585px;fill:#d7263d;stroke:#d7263d;stroke-width:0.24px;stroke-miterlimit:1.41421;">C</text></g><g transform="matrix(1.00069,0,0,1,-0.0933747,0)"><text x="136.194px" y="165.536px" style="font-family:'ArialMT', 'Arial', sans-serif;font-size:7.585px;fill:#d7263d;stroke:#d7263d;stroke-width:0.24px;stroke-miterlimit:1.41421;">H</text></g><g transform="matrix(1.00067,0,0,1,-0.0950567,0)"><text x="141.525px" y="167.686px" style="font-family:'ArialMT', 'Arial', sans-serif;font-size:5.955px;fill:#d7263d;stroke:#d7263d;stroke-width:0.24px;stroke-miterlimit:1.41421;">3</text></g></g></g><path d="M1127.39,936.101l-39.746,22.9" style="fill:none;stroke:#231f20;stroke-width:2.26px;"/><text x="1282.85px" y="865.921px" style="font-family:'ArialMT', 'Arial', sans-serif;font-size:31.602px;fill:#231f20;">N</text><text x="1282.85px" y="830.656px" style="font-family:'ArialMT', 'Arial', sans-serif;font-size:31.602px;fill:#231f20;">H</text><text x="1282.85px" y="966.463px" style="font-family:'ArialMT', 'Arial', sans-serif;font-size:31.602px;fill:#231f20;">N</text><text x="1062.11px" y="978.458px" style="font-family:'ArialMT', 'Arial', sans-serif;font-size:31.602px;fill:#2790f9;stroke:#2790f9;stroke-width:1px;stroke-miterlimit:1.41421;">R</text></g><g><g><path d="M881.602,916.512l-22.133,-31.775l-3.755,3.771l-3.837,3.771l29.725,24.233" style="fill:#2790f9;stroke:#2790f9;stroke-width:0.78px;"/><path d="M937.919,877.196l-9.15,-5.309" style="fill:#2790f9;fill-rule:nonzero;stroke:#2790f9;stroke-width:2.25px;"/><path d="M932.519,883.966l-7.588,-4.537" style="fill:#2790f9;fill-rule:nonzero;stroke:#2790f9;stroke-width:2.25px;"/><path d="M927.202,890.046l-6.1,-3.771" style="fill:#2790f9;fill-rule:nonzero;stroke:#2790f9;stroke-width:2.25px;"/><path d="M921.881,896.816l-4.533,-3.004" style="fill:#2790f9;fill-rule:nonzero;stroke:#2790f9;stroke-width:2.25px;"/><path d="M916.569,902.891l-3.05,-1.537" style="fill:#2790f9;fill-rule:nonzero;stroke:#2790f9;stroke-width:2.25px;"/><path d="M911.252,909.662l-1.488,-0.691" style="fill:#2790f9;fill-rule:nonzero;stroke:#2790f9;stroke-width:2.25px;"/><path d="M785.71,931.662l54.754,31.775" style="fill:#2790f9;fill-rule:nonzero;stroke:#2790f9;stroke-width:2.25px;"/><path d="M745.348,955.05l40.362,-23.388" style="fill:#2790f9;fill-rule:nonzero;stroke:#2790f9;stroke-width:2.25px;"/><path d="M908.977,939.2l41.062,24.237" style="fill:#2790f9;fill-rule:nonzero;stroke:#2790f9;stroke-width:2.25px;"/><path d="M840.46,963.437l41.142,-23.462" style="fill:#2790f9;fill-rule:nonzero;stroke:#2790f9;stroke-width:2.25px;"/><text x="884.571px" y="942.975px" style="font-family:'ArialMT', 'Arial', sans-serif;font-size:31.862px;fill:#2790f9;stroke:#2790f9;stroke-width:1px;stroke-miterlimit:1.41421;">S</text><text x="828.255px" y="883.199px" style="font-family:'ArialMT', 'Arial', sans-serif;font-size:31.862px;fill:#2790f9;stroke:#2790f9;stroke-width:1px;stroke-miterlimit:1.41421;">O</text><g transform="matrix(4.16667,0,0,4.16667,-1333.72,287.312)"><g transform="matrix(1.01386,0,0,1,-6.70906,0)"><text x="483.995px" y="164.985px" style="font-family:'ArialMT', 'Arial', sans-serif;font-size:7.647px;fill:#2790f9;stroke:#2790f9;stroke-width:0.24px;stroke-miterlimit:1.41421;">H</text></g><g transform="matrix(1.01386,0,0,1,-6.78405,0)"><text x="489.493px" y="167.164px" style="font-family:'ArialMT', 'Arial', sans-serif;font-size:6.018px;fill:#2790f9;stroke:#2790f9;stroke-width:0.24px;stroke-miterlimit:1.41421;">3</text></g><g transform="matrix(1.01386,0,0,1,-6.83089,0)"><text x="492.785px" y="164.985px" style="font-family:'ArialMT', 'Arial', sans-serif;font-size:7.647px;fill:#2790f9;stroke:#2790f9;stroke-width:0.24px;stroke-miterlimit:1.41421;">C</text></g></g><text x="940.89px" y="883.964px" style="font-family:'Arial-BoldMT', 'Arial', sans-serif;font-weight:700;font-size:40.966px;fill:#2790f9;stroke:#2790f9;stroke-width:1px;stroke-miterlimit:1.41421;">¨</text><g transform="matrix(4.16667,0,0,4.16667,-907.092,263.966)"><text x="330.707px" y="156.299px" style="font-family:'Montserrat-Bold', 'Montserrat';font-weight:700;font-size:6.376px;fill:#000f08;stroke:#000f08;stroke-width:0.24px;stroke-miterlimit:1.41421;">A<tspan x="336.191px 338.711px 343.71px 348.333px 353.339px 358.352px 362.886px 366.948px 371.724px 374.243px " y="156.299px 156.299px 156.299px 156.299px 156.299px 156.299px 156.299px 156.299px 156.299px 156.299px ">lbendazole</tspan></text><text x="330.707px" y="162.675px" style="font-family:'Montserrat-Bold', 'Montserrat';font-weight:700;font-size:6.376px;fill:#000f08;stroke:#000f08;stroke-width:0.24px;stroke-miterlimit:1.41421;">s<tspan x="334.693px 339.673px 342.193px 345.26px 350.036px 354.43px 356.949px 361.962px " y="162.675px 162.675px 162.675px 162.675px 162.675px 162.675px 162.675px 162.675px ">ulfoxide</tspan></text></g></g></g><g><g transform="matrix(4.16667,0,0,4.16667,-907.616,204.049)"><text x="330.707px" y="122.744px" style="font-family:'Montserrat-Bold', 'Montserrat';font-weight:700;font-size:6.376px;fill:#000f08;stroke:#000f08;stroke-width:0.24px;stroke-miterlimit:1.41421;">A</text><text x="335.891px" y="122.744px" style="font-family:'Montserrat-Bold', 'Montserrat';font-weight:700;font-size:6.376px;fill:#000f08;stroke:#000f08;stroke-width:0.24px;stroke-miterlimit:1.41421;">l</text><text x="338.36px" y="122.744px" style="font-family:'Montserrat-Bold', 'Montserrat';font-weight:700;font-size:6.376px;fill:#000f08;stroke:#000f08;stroke-width:0.24px;stroke-miterlimit:1.41421;">b</text><text x="343.06px" y="122.744px" style="font-family:'Montserrat-Bold', 'Montserrat';font-weight:700;font-size:6.376px;fill:#000f08;stroke:#000f08;stroke-width:0.24px;stroke-miterlimit:1.41421;">e</text><text x="346.983px" y="122.744px" style="font-family:'Montserrat-Bold', 'Montserrat';font-weight:700;font-size:6.376px;fill:#000f08;stroke:#000f08;stroke-width:0.24px;stroke-miterlimit:1.41421;">n</text><text x="351.939px" y="122.744px" style="font-family:'Montserrat-Bold', 'Montserrat';font-weight:700;font-size:6.376px;fill:#000f08;stroke:#000f08;stroke-width:0.24px;stroke-miterlimit:1.41421;">d</text><text x="356.751px" y="122.744px" style="font-family:'Montserrat-Bold', 'Montserrat';font-weight:700;font-size:6.376px;fill:#000f08;stroke:#000f08;stroke-width:0.24px;stroke-miterlimit:1.41421;">a</text><text x="360.585px" y="122.744px" style="font-family:'Montserrat-Bold', 'Montserrat';font-weight:700;font-size:6.376px;fill:#000f08;stroke:#000f08;stroke-width:0.24px;stroke-miterlimit:1.41421;">z</text><text x="364.048px" y="122.744px" style="font-family:'Montserrat-Bold', 'Montserrat';font-weight:700;font-size:6.376px;fill:#000f08;stroke:#000f08;stroke-width:0.24px;stroke-miterlimit:1.41421;">o</text><text x="368.524px" y="122.744px" style="font-family:'Montserrat-Bold', 'Montserrat';font-weight:700;font-size:6.376px;fill:#000f08;stroke:#000f08;stroke-width:0.24px;stroke-miterlimit:1.41421;">l</text><text x="370.993px" y="122.744px" style="font-family:'Montserrat-Bold', 'Montserrat';font-weight:700;font-size:6.376px;fill:#000f08;stroke:#000f08;stroke-width:0.24px;stroke-miterlimit:1.41421;">e</text></g><g transform="matrix(4.16667,0,0,4.16667,-1328.24,214.222)"><g transform="matrix(0.935229,0,0,1,31.3488,0)"><text x="483.996px" y="124.079px" style="font-family:'ArialMT', 'Arial', sans-serif;font-size:8.422px;fill:#2790f9;stroke:#2790f9;stroke-width:0.25px;stroke-miterlimit:1.41421;">H</text></g><g transform="matrix(0.935233,0,0,1,31.7004,0)"><text x="489.45px" y="126.483px" style="font-family:'ArialMT', 'Arial', sans-serif;font-size:6.613px;fill:#2790f9;stroke:#2790f9;stroke-width:0.25px;stroke-miterlimit:1.41421;">3</text></g><g transform="matrix(0.935229,0,0,1,31.9158,0)"><text x="492.75px" y="124.079px" style="font-family:'ArialMT', 'Arial', sans-serif;font-size:8.422px;fill:#2790f9;stroke:#2790f9;stroke-width:0.25px;stroke-miterlimit:1.41421;">C</text></g></g><text x="889.001px" y="696.219px" style="font-family:'ArialMT', 'Arial', sans-serif;font-size:35.092px;fill:#2790f9;stroke:#2790f9;stroke-width:1px;stroke-miterlimit:1.41421;">S</text><path d="M790.628,683.693l54.437,34.992" style="fill:#2790f9;fill-rule:nonzero;stroke:#2790f9;stroke-width:2.35px;"/><path d="M750.448,709.585l40.18,-25.892" style="fill:#2790f9;fill-rule:nonzero;stroke:#2790f9;stroke-width:2.35px;"/><path d="M913.203,692.881l40.891,25.804" style="fill:#2790f9;fill-rule:nonzero;stroke:#2790f9;stroke-width:2.35px;"/><path d="M845.065,718.689l40.888,-26.642" style="fill:#2790f9;fill-rule:nonzero;stroke:#2790f9;stroke-width:2.35px;"/></g><text x="1803.32px" y="914.265px" style="font-family:'Montserrat-Bold', 'Montserrat';font-weight:700;font-size:26.567px;fill:#000f08;stroke:#000f08;stroke-width:1px;stroke-miterlimit:1.41421;">T<tspan x="1820.98px 1840.59px 1849.84px 1867.48px 1887.06px 1905.08px 1924.68px 1944.32px 1961.96px 1977.63px 1996.29px 2005.53px " y="914.265px 914.265px 914.265px 914.265px 914.265px 914.265px 914.265px 914.265px 914.265px 914.265px 914.265px 914.265px ">hiabendazole</tspan></text><path d="M1684.52,868.593l0.7,-0.9l37.6,12.2l0.8,-2.2l-36.6,-11.9l-1.9,-0.6l-0.9,-0.3l-0.5,0.7l-33.4,46.1l-56.4,0l-2.1,1.2l2.1,1.2l56.4,0l18.9,26.1l2,-1.4l-18.8,-25.9l32.1,-44.3Z" style="fill:#d7263d;fill-rule:nonzero;stroke:#d7263d;stroke-width:0.42px;stroke-miterlimit:1.41421;"/><path d="M1688.58,876.583l-26.813,36.886l1.941,1.411l26.813,-36.886l-1.941,-1.411Z" style="fill:#d7263d;stroke:#d7263d;stroke-width:0.42px;stroke-miterlimit:1.41421;"/><path d="M1738.32,939.693l0,1.1l-1.1,0.4l-35.8,11.6l0.8,2.3l37.7,-12.2l0.8,-0.3l0,-0.9l0,-2l0,-34.6l-2.4,0l0,34.6Z" style="fill:#d7263d;fill-rule:nonzero;stroke:#d7263d;stroke-width:0.42px;stroke-miterlimit:1.41421;"/><path d="M1730.21,932.551l-31.953,10.386l0.741,2.282l31.954,-10.386l-0.742,-2.282Z" style="fill:#d7263d;stroke:#d7263d;stroke-width:0.42px;stroke-miterlimit:1.41421;"/><path d="M1749.62,886.093c-1,-1.6 -3.3,-2.7 -3.3,-2.7c-2.2,-1.1 -6.1,-2 -6.1,-2c-2.8,-0.6 -4.3,-1.2 -4.3,-1.2c-1.5,-0.5 -2.2,-1.4 -2.2,-1.4c-0.7,-0.8 -0.7,-2.2 -0.7,-2.2c0,-1.4 0.8,-2.4 0.8,-2.4c0.8,-1 2.2,-1.6 2.2,-1.6c1.4,-0.5 3.3,-0.5 3.3,-0.5c2.8,0 4.5,1.3 4.5,1.3c1.6,1.4 2.2,4.5 2.2,4.5l0.1,0l3.7,-0.8c-0.4,-2.6 -1.7,-4.4 -1.7,-4.4c-1.4,-1.9 -3.6,-2.8 -3.6,-2.8c-2.3,-1 -5.2,-1 -5.2,-1c-2.8,0 -5.1,1 -5.1,1c-2.2,1 -3.5,2.7 -3.5,2.7c-1.3,1.8 -1.3,3.9 -1.3,3.9c0,2 0.6,3.4 0.6,3.4c0.7,1.4 2.3,2.6 2.3,2.6c1.7,1.1 4.7,1.9 4.7,1.9c0.7,0.2 2.3,0.6 2.3,0.6c2.7,0.7 4.2,1.2 4.2,1.2c1.7,0.6 2.6,1.6 2.6,1.6c0.9,1 0.9,2.8 0.9,2.8c0,1.3 -0.9,2.4 -0.9,2.4c-0.9,1.1 -2.5,1.7 -2.5,1.7c-1.6,0.6 -3.4,0.6 -3.4,0.6c-3.6,0 -5.6,-1.8 -5.6,-1.8c-2,-1.8 -2.4,-5.3 -2.4,-5.3l-3.7,0.8c0.6,4.6 3.7,7 3.7,7c3.1,2.4 8.2,2.4 8.2,2.4c3,0 5.4,-1.1 5.4,-1.1c2.4,-1.1 3.7,-3.1 3.7,-3.1c1.4,-2 1.4,-4.4 1.4,-4.4c-0.2,-2.1 -1.3,-3.7 -1.3,-3.7Z" style="fill:#d7263d;fill-rule:nonzero;stroke:#d7263d;stroke-width:1px;stroke-miterlimit:1.41421;"/><path d="M1692.12,966.993l-0.1,0l-14.4,-22.3l-3.9,0l0,28.7l3.6,0l0,-22.4l0.1,0l14.4,22.4l3.9,0l0,-28.7l-3.6,0l0,22.3Z" style="fill:#d7263d;fill-rule:nonzero;stroke:#d7263d;stroke-width:1px;stroke-miterlimit:1.41421;"/><g><g transform="matrix(4.16667,0,0,4.16667,-909.536,-273.458)"><text x="330.707px" y="346.076px" style="font-family:'Montserrat-Bold', 'Montserrat';font-weight:700;font-size:6.376px;fill:#000f08;stroke:#000f08;stroke-width:0.24px;stroke-miterlimit:1.41421;">M</text><text x="337.096px" y="346.076px" style="font-family:'Montserrat-Bold', 'Montserrat';font-weight:700;font-size:6.376px;fill:#000f08;stroke:#000f08;stroke-width:0.24px;stroke-miterlimit:1.41421;">e</text><text x="341.02px" y="346.076px" style="font-family:'Montserrat-Bold', 'Montserrat';font-weight:700;font-size:6.376px;fill:#000f08;stroke:#000f08;stroke-width:0.24px;stroke-miterlimit:1.41421;">b</text><text x="345.719px" y="346.076px" style="font-family:'Montserrat-Bold', 'Montserrat';font-weight:700;font-size:6.376px;fill:#000f08;stroke:#000f08;stroke-width:0.24px;stroke-miterlimit:1.41421;">e</text><text x="349.643px" y="346.076px" style="font-family:'Montserrat-Bold', 'Montserrat';font-weight:700;font-size:6.376px;fill:#000f08;stroke:#000f08;stroke-width:0.24px;stroke-miterlimit:1.41421;">n</text><text x="354.599px" y="346.076px" style="font-family:'Montserrat-Bold', 'Montserrat';font-weight:700;font-size:6.376px;fill:#000f08;stroke:#000f08;stroke-width:0.24px;stroke-miterlimit:1.41421;">d</text><text x="359.411px" y="346.076px" style="font-family:'Montserrat-Bold', 'Montserrat';font-weight:700;font-size:6.376px;fill:#000f08;stroke:#000f08;stroke-width:0.24px;stroke-miterlimit:1.41421;">a</text><text x="363.245px" y="346.076px" style="font-family:'Montserrat-Bold', 'Montserrat';font-weight:700;font-size:6.376px;fill:#000f08;stroke:#000f08;stroke-width:0.24px;stroke-miterlimit:1.41421;">z</text><text x="366.807px" y="346.076px" style="font-family:'Montserrat-Bold', 'Montserrat';font-weight:700;font-size:6.376px;fill:#000f08;stroke:#000f08;stroke-width:0.24px;stroke-miterlimit:1.41421;">o</text><text x="371.233px" y="346.076px" style="font-family:'Montserrat-Bold', 'Montserrat';font-weight:700;font-size:6.376px;fill:#000f08;stroke:#000f08;stroke-width:0.24px;stroke-miterlimit:1.41421;">l</text><text x="373.703px" y="346.076px" style="font-family:'Montserrat-Bold', 'Montserrat';font-weight:700;font-size:6.376px;fill:#000f08;stroke:#000f08;stroke-width:0.24px;stroke-miterlimit:1.41421;">e</text></g><g><text x="890.695px" y="1085.52px" style="font-family:'ArialMT', 'Arial', sans-serif;font-size:30.535px;fill:#2790f9;stroke:#2790f9;stroke-width:1px;stroke-miterlimit:1.41421;">O</text><path d="M850.344,1225.37l0,-60.159" style="fill:#2790f9;fill-rule:nonzero;stroke:#2790f9;stroke-width:2.17px;"/><path d="M798.386,1134.76l51.958,30.454" style="fill:#2790f9;fill-rule:nonzero;stroke:#2790f9;stroke-width:2.17px;"/><path d="M797.711,1146.42l43.196,24.587" style="fill:#2790f9;fill-rule:nonzero;stroke:#2790f9;stroke-width:2.17px;"/><path d="M798.386,1255.07l51.958,-29.704" style="fill:#2790f9;fill-rule:nonzero;stroke:#2790f9;stroke-width:2.17px;"/><path d="M797.711,1243.49l43.196,-24.584" style="fill:#2790f9;fill-rule:nonzero;stroke:#2790f9;stroke-width:2.17px;"/><path d="M746.503,1165.21l51.883,-30.454" style="fill:#2790f9;fill-rule:nonzero;stroke:#2790f9;stroke-width:2.17px;"/><path d="M746.503,1225.37l51.883,29.704" style="fill:#2790f9;fill-rule:nonzero;stroke:#2790f9;stroke-width:2.17px;"/><g><clipPath id="_clip1"><rect x="745.419" y="1059.32" width="209.3" height="196.696" clip-rule="nonzero"/></clipPath><g clip-path="url(#_clip1)"><path d="M746.503,1225.37l0,-60.159" style="fill:#2790f9;fill-rule:nonzero;stroke:#2790f9;stroke-width:2.17px;"/><path d="M756.611,1220.32l0,-49.98" style="fill:#2790f9;fill-rule:nonzero;stroke:#2790f9;stroke-width:2.17px;"/><path d="M850.344,1165.21l51.879,-30.454" style="fill:#2790f9;fill-rule:nonzero;stroke:#2790f9;stroke-width:2.17px;"/><path d="M902.223,1134.76l51.963,29.784" style="fill:#2790f9;fill-rule:nonzero;stroke:#2790f9;stroke-width:2.17px;"/><path d="M907.311,1134.76l0,-44.191" style="fill:#2790f9;fill-rule:nonzero;stroke:#2790f9;stroke-width:2.17px;"/><path d="M897.203,1134.76l0,-44.191" style="fill:#2790f9;fill-rule:nonzero;stroke:#2790f9;stroke-width:2.17px;"/></g></g></g></g></svg>