<?xml version="1.0" encoding="UTF-8" standalone="no"?><!DOCTYPE svg PUBLIC "-//W3C//DTD SVG 1.1//EN" "http://www.w3.org/Graphics/SVG/1.1/DTD/svg11.dtd"><svg width="100%" height="100%" viewBox="0 0 4644 2772" version="1.1" xmlns="http://www.w3.org/2000/svg" xmlns:xlink="http://www.w3.org/1999/xlink" xml:space="preserve" xmlns:serif="http://www.serif.com/" style="fill-rule:evenodd;clip-rule:evenodd;"><path d="M1623.07,1420.24l11.962,0" style="fill:none;stroke:#1f1a17;stroke-width:0.45px;"/><path d="M1447.45,1384.53l11.957,0" style="fill:none;stroke:#1f1a17;stroke-width:0.45px;"/><g><g><path d="M503.907,1523.66c6.563,0.383 20.655,4.302 34.983,12.578c10.595,6.119 25.677,19.876 37.429,24.587c15.292,6.13 26.511,2.012 30.91,-2.256c1.152,-1.119 11.417,-11.686 2.556,-23.857c-8.163,-11.213 9.551,-30.031 19.044,-12.955c17.757,31.939 -13.069,55.283 -14.528,56.964c-36.971,28.933 -87.105,-32.244 -104.081,-33.008c-17.223,-3.117 -43.366,8.274 -66.669,17.587c-20.271,6.801 -38.756,-0.436 -50.215,-18.426c-8.592,-10.898 -18.536,-41.032 -18.536,-41.032c0,0 6.74,18.556 26.465,33.563c6.111,4.782 16.394,11.016 26.461,9.092c28.32,-5.414 46.632,-24.556 76.181,-22.837Z" style="fill:#fff;fill-rule:nonzero;stroke:#000;stroke-width:8.33px;stroke-linecap:round;stroke-linejoin:round;"/><path d="M739.98,1827.82c6.564,0.382 20.656,4.301 34.984,12.577c10.595,6.12 25.677,19.877 37.428,24.588c15.292,6.129 26.512,2.012 30.91,-2.256c1.153,-1.119 11.418,-11.687 2.557,-23.857c-8.164,-11.213 9.551,-30.031 19.044,-12.955c17.757,31.938 -13.07,55.283 -14.528,56.964c-36.971,28.933 -87.105,-32.244 -104.081,-33.008c-17.224,-3.117 -43.366,8.274 -66.669,17.587c-20.271,6.801 -38.756,-0.436 -50.215,-18.426c-8.592,-10.898 -18.536,-41.032 -18.536,-41.032c0,0 6.74,18.556 26.465,33.563c6.111,4.782 16.394,11.016 26.461,9.092c28.32,-5.414 46.631,-24.557 76.18,-22.837Z" style="fill:#fff;fill-rule:nonzero;stroke:#000;stroke-width:8.33px;stroke-linecap:round;stroke-linejoin:round;"/><path d="M659.447,1504.84c6.563,0.382 20.655,4.301 34.984,12.578c10.595,6.119 25.676,19.876 37.428,24.587c15.292,6.129 26.512,2.012 30.91,-2.256c1.152,-1.119 11.417,-11.687 2.556,-23.857c-8.163,-11.213 9.551,-30.031 19.044,-12.955c17.758,31.938 -13.069,55.283 -14.527,56.964c-36.972,28.933 -87.106,-32.244 -104.082,-33.008c-17.223,-3.117 -43.365,8.274 -66.669,17.587c-20.27,6.801 -38.756,-0.436 -50.214,-18.426c-8.592,-10.898 -18.537,-41.032 -18.537,-41.032c0,0 6.741,18.556 26.466,33.563c6.11,4.782 16.393,11.016 26.461,9.092c28.32,-5.414 46.631,-24.557 76.18,-22.837Z" style="fill:#fff;fill-rule:nonzero;stroke:#000;stroke-width:8.33px;stroke-linecap:round;stroke-linejoin:round;"/><path d="M560.298,1744.45c6.563,0.382 20.655,4.301 34.984,12.578c10.594,6.119 25.676,19.876 37.428,24.587c15.292,6.129 26.511,2.012 30.91,-2.256c1.152,-1.119 11.417,-11.687 2.556,-23.857c-8.163,-11.213 9.551,-30.031 19.044,-12.955c17.757,31.938 -13.069,55.283 -14.528,56.964c-36.971,28.933 -87.105,-32.244 -104.081,-33.008c-17.223,-3.117 -43.365,8.274 -66.669,17.587c-20.27,6.801 -38.756,-0.436 -50.214,-18.426c-8.593,-10.898 -18.537,-41.032 -18.537,-41.032c0,0 6.74,18.556 26.465,33.563c6.111,4.782 16.394,11.016 26.462,9.092c28.319,-5.414 46.631,-24.556 76.18,-22.837Z" style="fill:#fff;fill-rule:nonzero;stroke:#000;stroke-width:8.33px;stroke-linecap:round;stroke-linejoin:round;"/><path d="M833.471,1582.83c6.563,0.382 20.655,4.301 34.984,12.577c10.595,6.12 25.676,19.877 37.428,24.587c15.292,6.13 26.511,2.013 30.91,-2.256c1.152,-1.118 11.417,-11.686 2.556,-23.856c-8.163,-11.214 9.551,-30.031 19.044,-12.956c17.757,31.939 -13.069,55.283 -14.527,56.965c-36.972,28.933 -87.106,-32.245 -104.082,-33.008c-17.223,-3.117 -43.365,8.274 -66.669,17.587c-20.27,6.801 -38.756,-0.436 -50.214,-18.427c-8.593,-10.897 -18.537,-41.032 -18.537,-41.032c0,0 6.741,18.557 26.465,33.564c6.111,4.781 16.394,11.016 26.462,9.092c28.32,-5.415 46.631,-24.557 76.18,-22.837Z" style="fill:#fff;fill-rule:nonzero;stroke:#000;stroke-width:8.33px;stroke-linecap:round;stroke-linejoin:round;"/><path d="M659.447,1595.22c6.563,0.382 20.655,4.301 34.984,12.577c10.595,6.12 25.676,19.877 37.428,24.587c15.292,6.13 26.512,2.013 30.91,-2.256c1.152,-1.118 11.417,-11.686 2.556,-23.856c-8.163,-11.214 9.551,-30.031 19.044,-12.956c17.758,31.939 -13.069,55.283 -14.527,56.965c-36.972,28.933 -87.106,-32.245 -104.082,-33.008c-17.223,-3.117 -43.365,8.274 -66.669,17.587c-20.27,6.801 -38.756,-0.436 -50.214,-18.427c-8.592,-10.897 -18.537,-41.032 -18.537,-41.032c0,0 6.741,18.557 26.466,33.564c6.11,4.781 16.393,11.016 26.461,9.092c28.32,-5.415 46.631,-24.557 76.18,-22.837Z" style="fill:#fff;fill-rule:nonzero;stroke:#000;stroke-width:8.33px;stroke-linecap:round;stroke-linejoin:round;"/><path d="M774.232,1676.04c6.563,0.382 20.655,4.301 34.984,12.577c10.594,6.12 25.676,19.877 37.428,24.587c15.292,6.13 26.511,2.013 30.91,-2.256c1.152,-1.118 11.417,-11.686 2.556,-23.856c-8.163,-11.214 9.551,-30.031 19.044,-12.956c17.757,31.939 -13.069,55.283 -14.528,56.965c-36.971,28.933 -87.105,-32.245 -104.081,-33.008c-17.223,-3.117 -43.365,8.274 -66.669,17.587c-20.27,6.801 -38.756,-0.436 -50.214,-18.427c-8.593,-10.897 -18.537,-41.032 -18.537,-41.032c0,0 6.74,18.557 26.465,33.564c6.111,4.781 16.394,11.016 26.462,9.092c28.319,-5.415 46.631,-24.557 76.18,-22.837Z" style="fill:#fff;fill-rule:nonzero;stroke:#000;stroke-width:8.33px;stroke-linecap:round;stroke-linejoin:round;"/><path d="M820.453,1504.84c6.563,0.382 20.655,4.301 34.983,12.578c10.595,6.119 25.677,19.876 37.429,24.587c15.292,6.129 26.511,2.012 30.91,-2.256c1.152,-1.119 11.417,-11.687 2.556,-23.857c-8.163,-11.213 9.551,-30.031 19.044,-12.955c17.757,31.938 -13.069,55.283 -14.528,56.964c-36.971,28.933 -87.105,-32.244 -104.081,-33.008c-17.223,-3.117 -43.366,8.274 -66.669,17.587c-20.271,6.801 -38.756,-0.436 -50.215,-18.426c-8.592,-10.898 -18.536,-41.032 -18.536,-41.032c0,0 6.74,18.556 26.465,33.563c6.111,4.782 16.394,11.016 26.461,9.092c28.32,-5.414 46.632,-24.557 76.181,-22.837Z" style="fill:#fff;fill-rule:nonzero;stroke:#000;stroke-width:8.33px;stroke-linecap:round;stroke-linejoin:round;"/><path d="M622.573,1674.27c6.563,0.382 20.655,4.301 34.983,12.578c10.595,6.119 25.677,19.876 37.429,24.587c15.292,6.129 26.511,2.012 30.91,-2.256c1.152,-1.119 11.417,-11.687 2.556,-23.857c-8.163,-11.213 9.551,-30.031 19.044,-12.955c17.757,31.938 -13.069,55.283 -14.528,56.964c-36.971,28.933 -87.105,-32.244 -104.081,-33.008c-17.223,-3.117 -43.365,8.274 -66.669,17.587c-20.27,6.801 -38.756,-0.436 -50.214,-18.426c-8.593,-10.898 -18.537,-41.032 -18.537,-41.032c0,0 6.74,18.556 26.465,33.563c6.111,4.782 16.394,11.016 26.462,9.092c28.319,-5.414 46.631,-24.556 76.18,-22.837Z" style="fill:#fff;fill-rule:nonzero;stroke:#000;stroke-width:8.33px;stroke-linecap:round;stroke-linejoin:round;"/><path d="M774.232,1758.68c6.563,0.382 20.655,4.301 34.984,12.577c10.594,6.12 25.676,19.877 37.428,24.587c15.292,6.13 26.511,2.013 30.91,-2.256c1.152,-1.118 11.417,-11.686 2.556,-23.856c-8.163,-11.214 9.551,-30.031 19.044,-12.956c17.757,31.939 -13.069,55.283 -14.528,56.965c-36.971,28.933 -87.105,-32.245 -104.081,-33.008c-17.223,-3.117 -43.365,8.274 -66.669,17.587c-20.27,6.801 -38.756,-0.436 -50.214,-18.427c-8.593,-10.897 -18.537,-41.032 -18.537,-41.032c0,0 6.74,18.557 26.465,33.563c6.111,4.782 16.394,11.017 26.462,9.092c28.319,-5.414 46.631,-24.556 76.18,-22.836Z" style="fill:#fff;fill-rule:nonzero;stroke:#000;stroke-width:8.33px;stroke-linecap:round;stroke-linejoin:round;"/><path d="M529.684,1800.01c6.564,0.382 20.656,4.301 34.984,12.577c10.595,6.12 25.677,19.877 37.429,24.588c15.292,6.129 26.511,2.012 30.91,-2.256c1.152,-1.119 11.417,-11.687 2.556,-23.857c-8.164,-11.213 9.551,-30.031 19.044,-12.955c17.757,31.938 -13.069,55.283 -14.528,56.964c-36.971,28.933 -87.105,-32.244 -104.081,-33.008c-17.224,-3.117 -43.366,8.274 -66.669,17.587c-20.271,6.801 -38.756,-0.436 -50.215,-18.426c-8.592,-10.898 -18.536,-41.032 -18.536,-41.032c0,0 6.74,18.556 26.465,33.563c6.111,4.782 16.394,11.016 26.461,9.092c28.32,-5.414 46.631,-24.557 76.18,-22.837Z" style="fill:#d7263d;fill-rule:nonzero;stroke:#000;stroke-width:8.33px;stroke-linecap:round;stroke-linejoin:round;"/><path d="M480.455,1632.95c6.564,0.382 20.656,4.301 34.984,12.577c10.595,6.12 25.677,19.877 37.429,24.587c15.291,6.13 26.511,2.013 30.909,-2.256c1.153,-1.118 11.418,-11.686 2.557,-23.856c-8.164,-11.214 9.551,-30.031 19.044,-12.956c17.757,31.939 -13.07,55.283 -14.528,56.965c-36.971,28.933 -87.105,-32.245 -104.081,-33.008c-17.224,-3.117 -43.366,8.274 -66.669,17.587c-20.271,6.801 -38.756,-0.436 -50.215,-18.427c-8.592,-10.897 -18.536,-41.032 -18.536,-41.032c0,0 6.74,18.557 26.465,33.563c6.111,4.782 16.394,11.017 26.461,9.093c28.32,-5.415 46.631,-24.557 76.18,-22.837Z" style="fill:#d7263d;fill-rule:nonzero;stroke:#000;stroke-width:8.33px;stroke-linecap:round;stroke-linejoin:round;"/></g><g><path d="M991.184,2732.01l37.092,-160.746l30.91,-154.55l30.91,-154.55l6.182,-98.903l-12.364,-123.643l-6.182,-123.64l-49.456,-61.82l0,-92.73l-18.546,-166.914l43.274,-166.914l12.364,-123.64l2.061,-28.85l28.849,-4.121l-14.425,115.398l0,92.73l24.728,84.487" style="fill:none;stroke:#1f1a17;stroke-width:18.99px;"/><path d="M1300.28,1381.24l-15.455,-86.548l3.091,-74.184l15.455,-80.366l-24.728,-154.55l-21.637,-80.367l-46.365,-40.183l-77.275,-8.688l-86.548,-34.001l-55.638,-30.91l-49.456,-27.819l-52.547,-37.092l-46.365,-15.455l-11.676,-22.836l27.989,-79.844l47.264,3.636l45.446,-10.907l43.628,-16.361l0,-30.903l-10.338,0.726l1.786,-34.366c2.47,-0.037 5.395,2.51 7.408,-0.111c2.8,-12.151 7.235,-16.692 -6.55,-17.292c-6.897,-3.227 -16.369,-19.667 13.413,-20.164l1.927,-16.698l-7.065,-7.065l-5.781,-12.203l5.781,-3.854l24.405,-1.926l14.13,-16.699l-0.642,-12.203l-19.268,-21.837l-25.69,-28.901l-14.772,-17.983l-0.642,-24.406l7.707,-20.552l1.927,-18.626l-8.35,-28.259l-13.487,-53.307l-16.057,-26.975l-66.211,-52.096l-50.026,-29.802l-61.734,-25.545l-46.832,-3.193l-35.124,-5.322l-67.056,7.45l-67.056,19.159l-47.897,30.867l-34.06,37.253l-26.609,44.704l-9.58,47.897l-3.193,61.734l22.352,47.897l30.867,55.347l37.253,40.447l25.545,23.416l7.451,35.124l8.515,27.674l1.064,45.768l-9.579,60.533l-58.689,48.885l-34.06,37.253l-21.287,11.708l-31.931,13.837l-44.704,34.06l-68.12,39.382l-54.283,-10.309l-47.897,13.837l-42.575,20.223l-41.511,26.61l-24.481,32.995l-24.48,70.249l-12.773,59.605l-6.386,70.249l-1.065,65.991l12.773,42.575l4.257,41.511l-3.193,62.798l-5.322,43.64" style="fill:none;stroke:#1f1a17;stroke-width:18.99px;"/><path d="M294.07,2575.24l0,-65.247l-27.47,-127.045l-20.602,-151.077l17.169,-181.995l3.433,-116.746l51.506,-85.842l-3.434,-113.312l13.735,-92.709l10.301,-103.011l-61.807,-137.348l0.774,-43.857l-10.748,-75.237l-13.374,2.573l8.309,45.104l2.371,42.368l0.003,21.726l-1.796,70.228l-12.448,56.773" style="fill:none;stroke:#1f1a17;stroke-width:18.99px;"/></g><path d="M604.128,2620.28l-18.362,-115.055l55.087,-145.737l9.181,-253.121l44.555,4.426l-12.692,137.83l42.306,113.129l38.076,113.095l4.23,72.446l42.306,93.666l16.923,42.407" style="fill:none;stroke:#1f1a17;stroke-width:19.17px;"/></g><path d="M3988.86,1722.73c6.564,0.382 20.656,4.301 34.984,12.577c10.595,6.12 25.677,19.877 37.429,24.587c15.291,6.13 26.511,2.013 30.909,-2.256c1.153,-1.118 11.418,-11.686 2.557,-23.856c-8.164,-11.214 9.551,-30.031 19.044,-12.956c17.757,31.939 -13.07,55.283 -14.528,56.965c-36.971,28.933 -87.105,-32.245 -104.081,-33.008c-17.224,-3.117 -43.366,8.274 -66.669,17.587c-20.271,6.801 -38.756,-0.436 -50.215,-18.427c-8.592,-10.897 -18.536,-41.032 -18.536,-41.032c0,0 6.74,18.557 26.465,33.563c6.111,4.782 16.394,11.017 26.461,9.093c28.32,-5.415 46.631,-24.557 76.18,-22.837Z" style="fill:#d7263d;fill-rule:nonzero;stroke:#000;stroke-width:8.33px;stroke-linecap:round;stroke-linejoin:round;"/><path d="M3939.63,1555.67c6.564,0.383 20.656,4.302 34.984,12.578c10.595,6.119 25.677,19.876 37.428,24.587c15.292,6.13 26.512,2.012 30.91,-2.256c1.153,-1.119 11.418,-11.686 2.557,-23.857c-8.164,-11.213 9.551,-30.031 19.044,-12.955c17.757,31.939 -13.07,55.283 -14.528,56.964c-36.971,28.934 -87.105,-32.244 -104.081,-33.008c-17.224,-3.117 -43.366,8.274 -66.669,17.587c-20.271,6.801 -38.756,-0.435 -50.215,-18.426c-8.592,-10.898 -18.536,-41.032 -18.536,-41.032c0,0 6.74,18.556 26.465,33.563c6.111,4.782 16.394,11.016 26.461,9.092c28.32,-5.414 46.631,-24.556 76.18,-22.837Z" style="fill:#d7263d;fill-rule:nonzero;stroke:#000;stroke-width:8.33px;stroke-linecap:round;stroke-linejoin:round;"/><g><path d="M4292.61,2715.97l37.092,-160.745l30.91,-154.55l30.91,-154.551l6.182,-98.903l-12.364,-123.642l-6.182,-123.64l-49.456,-61.82l0,-92.73l-18.546,-166.914l43.274,-166.914l12.364,-123.641l2.061,-28.849l28.849,-4.121l-14.424,115.397l0,92.73l24.728,84.488" style="fill:none;stroke:#1f1a17;stroke-width:18.99px;"/><path d="M4601.71,1365.19l-15.455,-86.549l3.091,-74.184l15.455,-80.366l-24.728,-154.55l-21.637,-80.366l-46.365,-40.183l-77.276,-8.689l-86.548,-34.001l-55.638,-30.91l-49.456,-27.819l-52.547,-37.092l-46.365,-15.455l-11.676,-22.835l27.989,-79.844l47.264,3.635l45.446,-10.907l43.628,-16.36l0,-30.903l-10.337,0.726l1.786,-34.367c2.469,-0.036 5.394,2.51 7.407,-0.111c2.801,-12.151 7.235,-16.692 -6.549,-17.291c-6.897,-3.227 -16.37,-19.667 13.412,-20.164l1.927,-16.699l-7.065,-7.065l-5.78,-12.202l5.78,-3.854l24.406,-1.927l14.129,-16.698l-0.642,-12.203l-19.268,-21.837l-25.69,-28.902l-14.772,-17.983l-0.642,-24.405l7.707,-20.553l1.927,-18.625l-8.349,-28.259l-13.488,-53.308l-16.056,-26.975l-66.212,-52.095l-50.025,-29.802l-61.734,-25.546l-46.833,-3.193l-35.124,-5.322l-67.056,7.451l-67.056,19.159l-47.896,30.867l-34.06,37.253l-26.61,44.704l-9.579,47.897l-3.193,61.733l22.351,47.897l30.867,55.348l37.254,40.446l25.545,23.417l7.45,35.124l8.515,27.674l1.065,45.768l-9.58,60.533l-58.688,48.884l-34.06,37.254l-21.288,11.708l-31.931,13.837l-44.704,34.06l-68.12,39.382l-54.283,-10.309l-47.897,13.837l-42.575,20.223l-41.511,26.609l-24.48,32.996l-24.481,70.249l-12.773,59.605l-6.386,70.249l-1.064,65.991l12.772,42.575l4.258,41.511l-3.193,62.798l-5.322,43.639" style="fill:none;stroke:#1f1a17;stroke-width:18.99px;"/><path d="M3595.5,2559.2l0,-65.247l-27.469,-127.044l-20.602,-151.078l17.168,-181.994l3.434,-116.746l51.505,-85.842l-3.434,-113.312l13.735,-92.71l10.301,-103.01l-61.806,-137.348l0.774,-43.857l-10.749,-75.237l-13.373,2.573l8.308,45.103l2.372,42.369l0.002,21.725l-1.795,70.229l-12.448,56.773" style="fill:none;stroke:#1f1a17;stroke-width:18.99px;"/></g><path d="M3897.67,2604.24l-18.362,-115.055l55.087,-145.736l9.181,-253.122l44.555,4.427l-12.692,137.83l42.306,113.129l38.076,113.095l4.23,72.446l42.306,93.666l16.923,42.407" style="fill:none;stroke:#1f1a17;stroke-width:19.17px;"/><g><g><path d="M2209.41,1464.86c0,-61.991 -50.329,-112.32 -112.32,-112.32l-296.657,0c-61.991,0 -112.32,50.329 -112.32,112.32c0,61.991 50.329,112.32 112.32,112.32l296.657,0c61.991,0 112.32,-50.329 112.32,-112.32Z" style="fill:#b7353e;"/><path d="M2001.46,1379.38l95.795,0c46.45,2.306 83.373,40.034 83.373,85.22c0,45.187 -36.923,82.203 -83.373,84.508l-95.795,0l0,-169.728Z" style="fill:#fff;stroke:#000;stroke-width:1px;stroke-linecap:round;stroke-linejoin:round;stroke-miterlimit:1.5;"/><path d="M1834.07,1376.08c-13.202,-0.215 -47.706,-1.315 -76.801,16.463c-26.492,16.189 -34.037,37.984 -32.945,46.838c1.558,12.641 17.53,12.678 20.414,5.302c3.675,-9.4 4.141,-23.294 28.965,-36.616c22.845,-12.261 48.854,-8.705 60.367,-11.173c11.436,-2.452 8.261,-20.68 0,-20.814Z" style="fill:#fff;stroke:#000;stroke-width:1px;stroke-linecap:round;stroke-linejoin:round;stroke-miterlimit:1.5;"/></g><text x="1776.96px" y="1509.06px" style="font-family:'Montserrat-Black', 'Montserrat';font-weight:900;font-size:133.333px;fill:#fff;stroke:#000;stroke-width:3.75px;stroke-linejoin:round;stroke-miterlimit:1.41421;">BZ</text></g><g><g><path d="M2866.15,1464.86c0,-61.991 -50.329,-112.32 -112.32,-112.32l-296.656,0c-61.992,0 -112.321,50.329 -112.321,112.32c0,61.991 50.329,112.32 112.321,112.32l296.656,0c61.991,0 112.32,-50.329 112.32,-112.32Z" style="stroke:#000;stroke-width:1px;stroke-linecap:round;stroke-linejoin:round;stroke-miterlimit:1.5;"/><path d="M2658.2,1379.38l95.796,0c46.449,2.306 83.373,40.034 83.373,85.22c0,45.187 -36.924,82.203 -83.373,84.508l-95.796,0l0,-169.728Z" style="fill:#fff;stroke:#000;stroke-width:1px;stroke-linecap:round;stroke-linejoin:round;stroke-miterlimit:1.5;"/><path d="M2490.81,1376.08c-13.203,-0.215 -47.707,-1.315 -76.802,16.463c-26.492,16.189 -34.037,37.984 -32.945,46.838c1.558,12.641 17.53,12.678 20.414,5.302c3.676,-9.4 4.142,-23.294 28.965,-36.616c22.845,-12.261 48.854,-8.705 60.368,-11.173c11.435,-2.452 8.261,-20.68 0,-20.814Z" style="fill:#fff;stroke:#000;stroke-width:1px;stroke-linecap:round;stroke-linejoin:round;stroke-miterlimit:1.5;"/></g><text x="2433.7px" y="1509.06px" style="font-family:'Montserrat-Black', 'Montserrat';font-weight:900;font-size:133.333px;fill:#fff;stroke:#000;stroke-width:3.75px;stroke-linejoin:round;stroke-miterlimit:1.41421;">BZ</text></g></svg>