<?xml version="1.0" encoding="UTF-8" standalone="no"?><!DOCTYPE svg PUBLIC "-//W3C//DTD SVG 1.1//EN" "http://www.w3.org/Graphics/SVG/1.1/DTD/svg11.dtd"><svg width="100%" height="100%" viewBox="0 0 530 613" version="1.1" xmlns="http://www.w3.org/2000/svg" xmlns:xlink="http://www.w3.org/1999/xlink" xml:space="preserve" xmlns:serif="http://www.serif.com/" style="fill-rule:evenodd;clip-rule:evenodd;stroke-linecap:round;stroke-linejoin:round;stroke-miterlimit:1.5;"><path d="M264.653,6.25l258.402,150l0,300l-258.402,150l-258.403,-150l0,-300l258.403,-150Z" style="fill:#81b0f4;"/><path d="M264.653,6.25l258.402,150l0,300l-258.402,150l-258.403,-150l0,-300l258.403,-150Z" style="fill:none;stroke:#152494;stroke-width:12.5px;"/><path d="M166.495,201.031c0,0 69.543,-170.252 118.462,-101.629c68.866,96.603 115.196,101.629 115.196,101.629" style="fill:url(#_Linear1);"/><path id="Line" d="M383.48,441.364l5.288,-13.158l4.75,13.458" style="fill:none;stroke:#000;stroke-width:2.23px;stroke-linecap:square;stroke-linejoin:miter;stroke-miterlimit:4;"/><path id="Line1" serif:id="Line" d="M314.148,441.364l4.36,-13.158l3.915,13.458" style="fill:none;stroke:#000;stroke-width:2.23px;stroke-linecap:square;stroke-linejoin:miter;stroke-miterlimit:4;"/><path id="Line2" serif:id="Line" d="M359.978,441.364l4.359,-13.158l3.916,13.458" style="fill:none;stroke:#000;stroke-width:2.23px;stroke-linecap:square;stroke-linejoin:miter;stroke-miterlimit:4;"/><rect id="Rectangle-1" x="116.729" y="422.842" width="197.42" height="24.227" style="fill:#152494;stroke:#152494;stroke-width:1.83px;stroke-linecap:butt;stroke-linejoin:miter;stroke-miterlimit:4;"/><rect id="Rectangle-11" serif:id="Rectangle-1" x="322.374" y="422.842" width="37.604" height="24.227" style="fill:#152494;stroke:#152494;stroke-width:1.83px;stroke-linecap:butt;stroke-linejoin:miter;stroke-miterlimit:4;"/><rect id="Rectangle-12" serif:id="Rectangle-1" x="368.204" y="422.842" width="14.983" height="24.227" style="fill:#152494;stroke:#152494;stroke-width:1.83px;stroke-linecap:butt;stroke-linejoin:miter;stroke-miterlimit:4;"/><path id="Rectangle-13" serif:id="Rectangle-1" d="M392.881,422.842l14.102,0l5.594,12.114l-5.594,12.113l-14.102,0l0,-24.227Z" style="fill:#152494;stroke:#152494;stroke-width:1.83px;stroke-linecap:butt;stroke-linejoin:miter;stroke-miterlimit:4;"/><text x="98.754px" y="345.1px" style="font-family:'MarkerFelt-Thin', 'Marker Felt';font-size:100px;fill:#152494;stroke:#000;stroke-width:2.29px;stroke-linecap:butt;stroke-miterlimit:1.41421;">C<tspan x="147.954px 185.954px 234.954px 317.154px 381.354px " y="345.1px 345.1px 345.1px 345.1px 345.1px ">eGWAS</tspan></text><defs><linearGradient id="_Linear1" x1="0" y1="0" x2="1" y2="0" gradientUnits="userSpaceOnUse" gradientTransform="matrix(233.658,0,0,117.929,166.495,142.066)"><stop offset="0" style="stop-color:#152494;stop-opacity:1"/><stop offset="0.22" style="stop-color:#21349f;stop-opacity:1"/><stop offset="0.49" style="stop-color:#2438a2;stop-opacity:1"/><stop offset="0.75" style="stop-color:#6991df;stop-opacity:1"/><stop offset="1" style="stop-color:#81b0f4;stop-opacity:1"/></linearGradient></defs></svg>