<?xml version="1.0" encoding="UTF-8" standalone="no"?><!DOCTYPE svg PUBLIC "-//W3C//DTD SVG 1.1//EN" "http://www.w3.org/Graphics/SVG/1.1/DTD/svg11.dtd"><svg width="100%" height="100%" viewBox="0 0 2525 2024" version="1.1" xmlns="http://www.w3.org/2000/svg" xmlns:xlink="http://www.w3.org/1999/xlink" xml:space="preserve" xmlns:serif="http://www.serif.com/" style="fill-rule:evenodd;clip-rule:evenodd;stroke-miterlimit:10;"><g><path d="M1121.8,1348.84c1.143,-1.192 30.695,-37.852 70.681,-40.255c47.848,-2.876 62.648,17.473 102.941,19.092c30.422,1.222 61.972,-16.635 93.655,-15.954c32.68,0.702 73.766,23.58 103.026,23.168c26.705,-0.377 50.576,-18.584 83.51,-25.199c57.567,-11.562 70.912,4.8 70.912,4.8c0,0 -30.503,-7.777 -71.111,5.85c-28.349,9.514 -36.549,22.591 -82.603,31.204c-33.911,6.343 -86.653,-19.014 -106.562,-18.009c-31.854,1.608 -57.943,15.364 -89.111,15.936c-36.278,0.666 -48.069,-29.85 -103.051,-19.947c-27.881,5.021 -53.061,25.509 -66.644,26.04c-2.924,0.115 -8.022,-4.245 -5.643,-6.726Z" style="fill:none;stroke:#000;stroke-width:3.33px;"/><path d="M1830.14,179.205c185.463,96.69 335.195,252.654 423.999,442.698" style="fill:none;stroke:#000;stroke-width:12.5px;stroke-linecap:square;stroke-miterlimit:1;"/><path d="M2331.59,875.379c7.626,48.501 11.585,98.214 11.585,148.843c0,77.33 -9.236,152.519 -26.666,224.523" style="fill:none;stroke:#000;stroke-width:12.5px;stroke-linecap:square;stroke-miterlimit:1;"/><path d="M2225.21,1483.39c-110.015,199.327 -289.385,355.118 -505.474,434.739" style="fill:none;stroke:#000;stroke-width:12.5px;stroke-linecap:square;stroke-miterlimit:1;"/><path d="M1005.73,1895.32c-187.233,-82.988 -342.797,-224.594 -443.352,-401.477" style="fill:none;stroke:#000;stroke-width:12.5px;stroke-linecap:square;stroke-miterlimit:1;"/><path d="M484.357,1316.62c-29.738,-92.145 -45.804,-190.407 -45.804,-292.393c0,-26.827 1.112,-53.396 3.292,-79.664" style="fill:none;stroke:#000;stroke-width:12.5px;stroke-linecap:square;stroke-miterlimit:1;"/><path d="M510.069,661.757c73.909,-179.21 200.948,-331.003 361.45,-435.709" style="fill:none;stroke:#000;stroke-width:12.5px;stroke-linecap:square;stroke-miterlimit:1;"/><path d="M899.062,203.919l-35.989,69.308l-41.05,-56.515l77.039,-12.793Z" style="fill:#000f08;stroke:#000f08;stroke-width:12.5px;stroke-linecap:square;stroke-linejoin:round;stroke-miterlimit:1.5;"/><path d="M441.972,899.197l33.684,70.456l-69.839,-1.235l36.155,-69.221Z" style="fill:#000f08;stroke:#000f08;stroke-width:12.5px;stroke-linecap:square;stroke-linejoin:round;stroke-miterlimit:1.5;"/><path d="M1173.88,186.465c36.699,0.474 59.851,0.772 69.891,-4.455c3.841,-2 -0.539,0.018 -2.681,-8.531c-2.361,-9.419 3.404,-12.243 -3.86,-14.023c-11.658,-2.858 -8.993,8.485 -52.217,17.921c-38.884,8.488 -118.739,-63.066 -134.659,-69.858c-1.776,-0.759 -3.661,2.266 -3.673,3.239c-0.125,9.694 90.499,75.234 127.199,75.707Zm-46.829,-61.217c0.215,-16.619 -73.688,-60.883 -84.946,-61.028c-11.257,-0.145 -19.883,-0.989 -20.097,15.63c-0.214,16.618 104.829,62.016 105.043,45.398Z" style="fill:#575757;stroke:#000;stroke-width:3.33px;stroke-linejoin:round;stroke-miterlimit:1.41421;"/><path d="M1173.88,186.465c36.699,0.474 59.852,0.772 69.891,-4.455c3.841,-2 -0.538,0.018 -2.681,-8.531c-2.361,-9.419 3.403,-12.243 -3.86,-14.023c-11.657,-2.858 -8.993,8.485 -52.217,17.921c-38.884,8.488 -118.74,-63.066 -134.658,-69.858c-1.777,-0.759 -3.662,2.266 -3.674,3.239c-0.125,9.694 90.499,75.234 127.199,75.707Zm-46.829,-61.217c0.215,-16.619 -73.688,-60.882 -84.945,-61.028c-11.258,-0.145 -19.884,-0.989 -20.098,15.63c-0.214,16.618 104.829,62.016 105.043,45.398Z" style="fill:none;stroke:#000;stroke-width:3.33px;"/><path d="M1145.19,129.571c9.744,6.055 41.541,12.24 78.386,2.821c59.357,-15.174 129.585,-51.912 125.104,-53.011c-11.658,-2.858 -142.076,35.688 -190.305,27.403c-22.903,-3.934 -40.256,-12.916 -51.229,-21.794c-9.015,-7.294 -12.769,-14.681 -19.947,-17.744c-1.777,-0.758 -3.662,2.266 -3.675,3.239c-0.068,5.274 31.312,40.224 61.666,59.086Z" style="fill:#575757;stroke:#000;stroke-width:3.33px;stroke-linejoin:round;stroke-miterlimit:1.41421;"/><path d="M1145.19,129.571c9.744,6.055 41.541,12.24 78.385,2.821c59.358,-15.174 129.586,-51.912 125.104,-53.011c-11.657,-2.858 -142.075,35.688 -190.304,27.403c-22.903,-3.934 -40.256,-12.916 -51.23,-21.794c-9.015,-7.294 -12.767,-14.681 -19.947,-17.744c-1.776,-0.758 -3.661,2.266 -3.674,3.239c-0.068,5.274 31.312,40.224 61.666,59.086Z" style="fill:none;stroke:#000;stroke-width:3.33px;"/><path d="M1663.33,162.234c-19.828,3.203 -58.21,0.164 -94.799,-10.202c-58.947,-16.699 -159.526,-68.324 -155.016,-69.307c4.911,-1.071 10.154,-2.214 42.966,8.008c25.788,8.034 79.364,29.654 127.092,37.226c36.553,5.798 70.682,-1.055 80.226,-2.055c31.416,-3.291 62.783,-10.577 69.506,-8.152c6.743,2.433 18.701,12.08 12.995,19.162c-1.634,2.028 -61.361,38.761 -66.207,40.137c-1.009,0.286 -51.799,18.685 -67.068,20.433c-44.651,5.111 -78.186,-2.837 -78.085,-10.699c0.119,-9.235 -2.285,-17.231 22.426,-17.152c15.789,0.05 48.914,13.249 67.731,9.295c12.294,-2.584 31.952,-5.492 44.722,-9.835c31.265,-10.632 52.737,-24.544 52.985,-24.643c1.796,-0.712 -5.861,-5.086 -5.873,-4.113c-0.068,5.274 -35.927,19.041 -53.601,21.897Z" style="fill:#575757;stroke:#000;stroke-width:3.33px;stroke-linejoin:round;stroke-miterlimit:1.41421;"/><path d="M1663.33,162.234c-19.829,3.203 -58.211,0.164 -94.8,-10.202c-58.946,-16.699 -159.525,-68.324 -155.016,-69.307c4.911,-1.071 10.154,-2.214 42.966,8.008c25.788,8.034 79.364,29.654 127.092,37.226c36.553,5.798 70.682,-1.055 80.226,-2.055c31.416,-3.291 62.783,-10.577 69.505,-8.152c6.744,2.433 18.702,12.08 12.995,19.162c-1.633,2.028 -61.36,38.761 -66.206,40.137c-1.01,0.286 -51.798,18.685 -67.068,20.433c-44.651,5.111 -78.186,-2.837 -78.084,-10.699c0.119,-9.235 -2.286,-17.231 22.425,-17.152c15.789,0.05 48.914,13.249 67.73,9.295c12.296,-2.584 31.953,-5.492 44.723,-9.835c31.264,-10.632 52.737,-24.544 52.986,-24.643c1.795,-0.712 -5.862,-5.086 -5.874,-4.113c-0.068,5.274 -35.927,19.041 -53.6,21.897Z" style="fill:none;stroke:#000;stroke-width:3.33px;"/><path d="M1272.99,169.847c-4.844,-0.062 -8.69,-6.855 -8.583,-15.158c0.107,-8.304 4.127,-14.995 8.971,-14.933c4.844,0.063 8.689,6.855 8.582,15.159c-0.107,8.304 -4.126,14.995 -8.97,14.932Z" style="fill:#b1b1b1;stroke:#000;stroke-width:3.33px;"/><path d="M1290.61,165.058c-4.843,-0.062 -8.682,-7.416 -8.566,-16.412c0.116,-8.996 4.143,-16.248 8.987,-16.186c4.844,0.062 8.682,7.417 8.566,16.412c-0.116,8.996 -4.143,16.249 -8.987,16.186Z" style="fill:#b1b1b1;stroke:#000;stroke-width:3.33px;"/><path d="M1308.19,162.777c-4.844,-0.062 -8.668,-8.54 -8.534,-18.92c0.134,-10.38 4.175,-18.756 9.019,-18.693c4.844,0.062 8.667,8.54 8.534,18.919c-0.134,10.38 -4.175,18.756 -9.019,18.694Z" style="fill:#b1b1b1;stroke:#000;stroke-width:3.33px;"/><path d="M1345.97,150.724c-4.844,-0.062 -8.668,-8.54 -8.534,-18.92c0.134,-10.379 4.175,-18.756 9.019,-18.693c4.844,0.062 8.668,8.54 8.534,18.92c-0.134,10.379 -4.175,18.756 -9.019,18.693Z" style="fill:#b1b1b1;stroke:#000;stroke-width:3.33px;"/><path d="M1384.8,153.733c-5.536,-0.071 -9.9,-10.242 -9.74,-22.697c0.161,-12.456 4.786,-22.511 10.322,-22.439c5.535,0.071 9.899,10.242 9.739,22.697c-0.161,12.456 -4.785,22.51 -10.321,22.439Z" style="fill:#b1b1b1;stroke:#000;stroke-width:3.33px;"/><path d="M1364.77,150.967c-5.536,-0.072 -9.908,-9.68 -9.756,-21.444c0.152,-11.764 4.769,-21.256 10.305,-21.185c5.536,0.072 9.907,9.68 9.756,21.444c-0.152,11.763 -4.77,21.256 -10.305,21.185Z" style="fill:#b1b1b1;stroke:#000;stroke-width:3.33px;"/><path d="M1325.84,155.481c-4.844,-0.063 -8.668,-8.54 -8.534,-18.92c0.133,-10.38 4.175,-18.756 9.019,-18.694c4.843,0.063 8.667,8.54 8.534,18.92c-0.134,10.38 -4.176,18.756 -9.019,18.694Z" style="fill:#b1b1b1;stroke:#000;stroke-width:3.33px;"/><path d="M1403.58,156.483c-4.844,-0.063 -8.639,-10.787 -8.469,-23.935c0.169,-13.148 4.239,-23.771 9.083,-23.709c4.844,0.063 8.639,10.788 8.47,23.935c-0.17,13.148 -4.24,23.771 -9.084,23.709Z" style="fill:#b1b1b1;stroke:#000;stroke-width:3.33px;"/><clipPath id="_clip1"><path d="M1421,159.974c4.79,0.736 10.125,-8.1 11.914,-19.736c1.787,-11.635 -0.646,-21.665 -5.437,-22.402c-4.792,-0.736 -10.125,8.1 -11.914,19.735c-1.789,11.636 0.646,21.666 5.437,22.403Z"/></clipPath><g clip-path="url(#_clip1)"><path d="M1440.16,175.605l-42.137,-6.477l10.287,-66.923l42.138,6.477l-10.288,66.923Z" style="fill:#b1b1b1;stroke:#000;stroke-width:3.33px;stroke-linejoin:round;stroke-miterlimit:1.41421;"/></g><path d="M1421,159.973c-4.788,-0.735 -7.225,-10.774 -5.437,-22.402c1.787,-11.628 7.126,-20.471 11.914,-19.735c4.788,0.736 7.224,10.774 5.436,22.402c-1.787,11.628 -7.125,20.471 -11.913,19.735Z" style="fill:#b1b1b1;stroke:#000;stroke-width:3.33px;"/><clipPath id="_clip2"><path d="M1440.58,164.157c4.746,0.986 10.375,-6.786 12.572,-17.36c2.197,-10.574 0.131,-19.946 -4.615,-20.932c-4.746,-0.986 -10.375,6.786 -12.573,17.36c-2.197,10.574 -0.131,19.946 4.616,20.932Z"/></clipPath><g clip-path="url(#_clip2)"><path d="M1458.9,180.771l-41.741,-8.674l13.059,-62.846l41.741,8.674l-13.059,62.846Z" style="fill:#b1b1b1;stroke:#000;stroke-width:3.33px;stroke-linejoin:round;stroke-miterlimit:1.41421;"/></g><path d="M1440.58,164.157c-4.743,-0.985 -6.811,-10.365 -4.615,-20.932c2.196,-10.567 7.829,-18.346 12.572,-17.36c4.743,0.985 6.811,10.365 4.615,20.932c-2.195,10.567 -7.829,18.346 -12.572,17.36Z" style="fill:#b1b1b1;stroke:#000;stroke-width:3.33px;"/><clipPath id="_clip3"><path d="M1458.35,174.687c4.746,0.986 10.375,-6.786 12.573,-17.36c2.197,-10.574 0.131,-19.946 -4.615,-20.932c-4.747,-0.986 -10.376,6.786 -12.572,17.36c-2.198,10.574 -0.132,19.946 4.614,20.932Z"/></clipPath><g clip-path="url(#_clip3)"><path d="M1476.67,191.301l-41.741,-8.674l13.059,-62.845l41.741,8.673l-13.059,62.846Z" style="fill:#b1b1b1;stroke:#000;stroke-width:3.33px;stroke-linejoin:round;stroke-miterlimit:1.41421;"/></g><path d="M1458.36,174.687c-4.743,-0.985 -6.811,-10.365 -4.615,-20.932c2.196,-10.567 7.829,-18.346 12.572,-17.36c4.743,0.986 6.811,10.365 4.615,20.932c-2.196,10.567 -7.829,18.346 -12.572,17.36Z" style="fill:#b1b1b1;stroke:#000;stroke-width:3.33px;"/><clipPath id="_clip4"><path d="M1478.35,179.961c4.746,0.986 10.375,-6.786 12.573,-17.36c2.197,-10.575 0.131,-19.946 -4.616,-20.932c-4.746,-0.987 -10.375,6.786 -12.571,17.36c-2.198,10.574 -0.132,19.946 4.614,20.932Z"/></clipPath><g clip-path="url(#_clip4)"><path d="M1496.67,196.574l-41.741,-8.673l13.059,-62.846l41.741,8.674l-13.059,62.845Z" style="fill:#b1b1b1;stroke:#000;stroke-width:3.33px;stroke-linejoin:round;stroke-miterlimit:1.41421;"/></g><path d="M1478.35,179.961c-4.743,-0.986 -6.811,-10.365 -4.615,-20.932c2.196,-10.567 7.829,-18.346 12.572,-17.36c4.743,0.985 6.811,10.365 4.615,20.932c-2.196,10.567 -7.829,18.346 -12.572,17.36Z" style="fill:#b1b1b1;stroke:#000;stroke-width:3.33px;"/><clipPath id="_clip5"><path d="M1498.36,183.907c4.746,0.986 9.965,-4.81 11.655,-12.946c1.691,-8.137 -0.786,-15.532 -5.532,-16.518c-4.746,-0.986 -9.965,4.81 -11.655,12.946c-1.691,8.136 0.786,15.532 5.532,16.518Z"/></clipPath><g clip-path="url(#_clip5)"><path d="M1516.68,200.52l-41.741,-8.673l11.224,-54.017l41.742,8.673l-11.225,54.017Z" style="fill:#bfeaf2;stroke:#000;stroke-width:3.33px;stroke-linejoin:round;stroke-miterlimit:1.41421;"/></g><path d="M1498.36,183.907c-4.743,-0.986 -7.222,-8.387 -5.533,-16.518c1.69,-8.131 6.912,-13.932 11.655,-12.946c4.743,0.986 7.222,8.387 5.533,16.518c-1.69,8.13 -6.912,13.931 -11.655,12.946Z" style="fill:#b1b1b1;stroke:#000;stroke-width:3.33px;"/><clipPath id="_clip6"><path d="M1506.38,188.107c2.854,0.593 23.484,7.455 25.809,4.11c1.542,-2.218 2.758,-9.155 3.433,-12.399c0.671,-3.231 2.315,-10.094 1.791,-12.736c-0.796,-4.011 -17.719,-7.483 -20.581,-8.077c-4.746,-0.986 -2.208,6.149 -3.9,14.285c-1.69,8.136 -11.298,13.831 -6.552,14.817Z"/></clipPath><g clip-path="url(#_clip6)"><path d="M1542.33,209.233l-52.445,-10.898l11.5,-55.346l52.446,10.898l-11.501,55.346Z" style="fill:#909090;stroke:#000;stroke-width:3.33px;stroke-linejoin:round;stroke-miterlimit:1.41421;"/></g><path d="M1506.38,188.107c2.854,0.593 23.484,7.455 25.81,4.11c1.542,-2.218 2.757,-9.155 3.432,-12.399c0.671,-3.231 2.315,-10.094 1.791,-12.736c-0.796,-4.011 -17.719,-7.483 -20.581,-8.077c-4.746,-0.986 -2.208,6.149 -3.899,14.285c-1.69,8.136 -11.299,13.831 -6.553,14.817Z" style="fill:none;stroke:#000;stroke-width:3.33px;"/><clipPath id="_clip7"><path d="M1747.77,134.005c0.92,-0.807 13.783,-14.534 30.266,-26.553c22.79,-16.619 50.906,-32.978 49.638,-34.424c-1.177,-1.343 -34.362,2.644 -60.028,13.771c-21.754,9.431 -36.608,26.102 -37.616,26.986c-3.644,3.197 4.37,-0.177 9.849,6.07c5.481,6.246 4.247,17.347 7.891,14.15Z"/></clipPath><g clip-path="url(#_clip7)"><path d="M1845.6,74.456l-95.379,83.679l-39.375,-44.88l95.38,-83.678l39.374,44.879Z" style="fill:#e6e6e6;stroke:#000;stroke-width:3.33px;stroke-linejoin:round;stroke-miterlimit:1.41421;"/></g><path d="M1747.77,134.005c0.919,-0.807 13.784,-14.534 30.266,-26.553c22.79,-16.619 50.906,-32.978 49.638,-34.424c-1.178,-1.343 -34.362,2.644 -60.027,13.771c-21.755,9.431 -36.609,26.102 -37.617,26.986c-3.644,3.197 4.37,-0.177 9.85,6.07c5.48,6.246 4.246,17.347 7.89,14.15Z" style="fill:none;stroke:#000;stroke-width:3.33px;"/><clipPath id="_clip8"><path d="M1266.71,175.127c-2.248,0.407 -18.546,5.44 -20.32,2.667c-1.176,-1.839 -2.024,-7.497 -2.504,-10.145c-0.477,-2.638 -1.663,-8.246 -1.21,-10.376c0.686,-3.233 14.021,-5.61 16.276,-6.018c3.741,-0.677 1.64,5.044 2.842,11.686c1.203,6.642 8.657,11.509 4.916,12.186Z"/></clipPath><g clip-path="url(#_clip8)"><path d="M1226.9,144.314l46.66,-8.447l9.018,49.815l-46.66,8.447l-9.018,-49.815Z" style="fill:#909090;stroke:#000;stroke-width:3.33px;stroke-linejoin:round;stroke-miterlimit:1.41421;"/></g><path d="M1266.71,175.127c-2.248,0.407 -18.546,5.44 -20.32,2.667c-1.177,-1.84 -2.025,-7.497 -2.504,-10.145c-0.478,-2.638 -1.663,-8.246 -1.211,-10.376c0.686,-3.233 14.022,-5.61 16.277,-6.018c3.74,-0.677 1.639,5.044 2.842,11.686c1.202,6.642 8.657,11.509 4.916,12.186Z" style="fill:none;stroke:#000;stroke-width:3.33px;"/><path d="M929.314,36.611c3.471,-6.829 10.926,-11.501 19.501,-11.39c11.772,0.151 21.199,9.256 21.056,20.335c-0.143,11.079 -9.801,19.937 -21.573,19.786c-6.059,-0.079 -11.498,-2.529 -15.329,-6.399c-1.358,-1.373 -2.514,-2.923 -3.425,-4.61c-1.462,0.804 -3.238,1.236 -5.383,1.085c-5.6,-0.392 -16.344,7.018 -26.891,15.406c1.28,2.299 1.988,4.913 1.953,7.679c-0.116,9.001 -8.069,16.197 -17.763,16.072c-3.487,-0.044 -6.723,-1.03 -9.433,-2.693c-6.746,9.121 -18.341,21.282 -30.02,28.471c-12.422,7.645 -24.823,9.922 -26.758,7.378c-1.239,-1.628 -3.564,-3.409 0.166,-7.03c3.595,-3.491 14.008,-6.965 20.551,-13.177c4.954,-4.701 11.909,-9.672 17.839,-16.028c2.719,-2.912 7.744,-5.979 11.086,-8.441c-0.523,-1.581 -0.796,-3.263 -0.774,-5.005c0.116,-9.002 8.069,-16.198 17.763,-16.073c3.255,0.042 6.292,0.904 8.887,2.371c0.606,-0.638 1.094,-1.32 1.428,-2.056c2.788,-6.134 8.47,-10.749 15.438,-15.757c8.246,-5.927 18.879,-8.264 21.167,-9.632c0.177,-0.105 0.348,-0.203 0.514,-0.292Z" style="fill:#dc9292;stroke:#000;stroke-width:3.33px;stroke-linejoin:round;stroke-miterlimit:1.41421;"/><path d="M929.314,36.611c3.471,-6.829 10.925,-11.501 19.502,-11.39c11.771,0.151 21.198,9.256 21.056,20.335c-0.143,11.079 -9.802,19.937 -21.573,19.786c-6.06,-0.079 -11.498,-2.529 -15.329,-6.399c-1.359,-1.373 -2.515,-2.923 -3.426,-4.61c-1.461,0.804 -3.238,1.236 -5.382,1.085c-5.601,-0.392 -16.344,7.018 -26.891,15.406c1.28,2.299 1.988,4.913 1.952,7.679c-0.116,9.001 -8.069,16.197 -17.763,16.072c-3.486,-0.044 -6.723,-1.03 -9.433,-2.693c-6.745,9.121 -18.34,21.282 -30.02,28.471c-12.422,7.645 -24.822,9.922 -26.757,7.378c-1.239,-1.628 -3.564,-3.409 0.165,-7.03c3.596,-3.491 14.008,-6.965 20.552,-13.177c4.953,-4.701 11.907,-9.672 17.839,-16.028c2.718,-2.912 7.744,-5.979 11.086,-8.441c-0.524,-1.581 -0.797,-3.263 -0.775,-5.005c0.117,-9.002 8.069,-16.198 17.764,-16.073c3.254,0.042 6.292,0.904 8.887,2.371c0.605,-0.638 1.093,-1.32 1.428,-2.056c2.788,-6.134 8.469,-10.749 15.437,-15.757c8.247,-5.927 18.879,-8.264 21.168,-9.632c0.176,-0.105 0.348,-0.203 0.513,-0.292Z" style="fill:#ccc;fill-rule:nonzero;stroke:#000;stroke-width:3.33px;"/><path d="M1109.44,103.253c-7.499,-9.976 -14.971,-19.857 -21.258,-28.623c-4.495,-6.268 -20.52,-17.995 -26.087,-21.566c-15.183,-15.43 -76.857,-32.651 -93.19,-32.861c-18.697,-0.241 5.636,11.3 5.422,27.918c-0.21,16.304 -19.957,14.539 12.973,23.65c4.629,3.847 10.244,7.603 14.716,9.833c6.627,3.304 13.953,5.739 20.98,7.222c1.132,1.087 2.096,2.488 3.086,3.115c7.839,4.968 9.666,10.801 18.482,13.79c2.578,0.874 5.682,1.37 8.939,1.511c16.868,18.494 42.315,39.817 57.251,47.157c2.056,1.69 4.175,3.318 6.352,4.87c14.859,10.588 45.853,15.933 52.262,15.796c20.453,-0.435 33.625,-5.295 48.865,-11.688c17.626,-7.394 32.786,-14.148 59.031,-26.386c9.689,-4.517 29.731,-11.227 46.66,-21.555c12.46,-7.602 44.342,-11.3 70.431,-8.718c11.513,1.139 65.968,23.589 118.937,42.179c10.602,3.721 22.289,5.838 32.367,9.148c40.502,13.305 76.415,18.214 75.662,16.505c-0.173,-0.391 41.637,-3.707 44.589,-4.794c3.07,-1.13 63.93,-25.258 51.667,-27.373c-1.335,-0.23 -19.684,12.376 -43.827,18.704c-19.826,5.197 -27.894,3.477 -43.419,3.232c-15.523,-0.246 -44.846,-2.819 -52.715,-6.362c-8.919,-4.014 -21.33,-6.714 -33.002,-11.195c-13.085,-5.025 -25.569,-11.892 -37.67,-17.49c-17.916,-8.291 -37.511,-15.13 -53.903,-23.083c-9.849,-4.778 -23.722,-8.372 -32.111,-12.907c-8.583,-4.64 -11.658,-10.201 -19.481,-13.24c-18.077,-7.023 -29.403,-3.415 -33.397,-2.684c-12.323,2.256 -27.589,7.631 -51.558,18.601c-18.422,8.43 -37.987,20.853 -58.429,28.155c-37.836,13.515 -73.302,17.236 -81.603,16.137c-5.175,-0.686 -29.251,-5.491 -32.506,-7.905c-14.012,-10.395 -25.676,-20.896 -34.516,-29.093Z" style="fill:#e6e6e6;stroke:#000;stroke-width:3.33px;stroke-linejoin:round;stroke-miterlimit:1.41421;"/><path d="M1109.44,103.253c-7.498,-9.976 -14.97,-19.857 -21.257,-28.623c-4.496,-6.268 -20.521,-17.995 -26.087,-21.566c-15.183,-15.43 -76.858,-32.651 -93.191,-32.861c-18.696,-0.241 5.637,11.3 5.422,27.918c-0.21,16.304 -19.956,14.539 12.973,23.65c4.63,3.847 10.244,7.603 14.716,9.833c6.628,3.304 13.954,5.739 20.981,7.222c1.131,1.087 2.095,2.488 3.085,3.115c7.839,4.968 9.666,10.801 18.481,13.79c2.579,0.874 5.684,1.37 8.94,1.511c16.869,18.494 42.315,39.817 57.251,47.157c2.056,1.69 4.175,3.318 6.352,4.87c14.859,10.588 45.853,15.933 52.262,15.796c20.453,-0.435 33.626,-5.295 48.866,-11.688c17.625,-7.394 32.784,-14.148 59.031,-26.386c9.689,-4.517 29.73,-11.227 46.658,-21.555c12.461,-7.602 44.343,-11.3 70.432,-8.718c11.514,1.139 65.968,23.589 118.938,42.179c10.602,3.721 22.288,5.838 32.366,9.148c40.502,13.305 76.416,18.214 75.663,16.505c-0.173,-0.391 41.636,-3.707 44.588,-4.794c3.07,-1.13 63.931,-25.258 51.667,-27.373c-1.334,-0.23 -19.683,12.376 -43.827,18.704c-19.826,5.197 -27.893,3.477 -43.418,3.232c-15.524,-0.246 -44.846,-2.819 -52.716,-6.362c-8.918,-4.014 -21.33,-6.714 -33.001,-11.195c-13.086,-5.025 -25.57,-11.892 -37.67,-17.49c-17.917,-8.291 -37.511,-15.13 -53.904,-23.083c-9.848,-4.778 -23.721,-8.372 -32.111,-12.907c-8.583,-4.64 -11.657,-10.201 -19.481,-13.24c-18.077,-7.023 -29.403,-3.415 -33.396,-2.684c-12.324,2.256 -27.59,7.631 -51.559,18.601c-18.422,8.43 -37.987,20.853 -58.429,28.155c-37.836,13.515 -73.302,17.236 -81.603,16.137c-5.175,-0.686 -29.25,-5.491 -32.506,-7.905c-14.012,-10.395 -25.676,-20.896 -34.516,-29.093Z" style="fill:none;stroke:#000;stroke-width:3.33px;"/><path d="M1386.1,157.181c-1.203,1.962 -2.893,4.183 -4.301,4.017c-1.494,-0.177 -2.671,-3.044 -3.373,-5.309c-6.79,-1.009 -13.351,-1.61 -19.636,-1.691c-30.923,-0.399 -64.566,24.378 -131.105,33.162c-34.854,4.601 -58.222,-0.751 -80.355,-6.112c-23.224,-5.625 -86.905,-53.519 -132.729,-83.401c-22.051,-14.38 -57.503,-24.049 -66.155,-20.711c-42.802,-0.552 -67.779,28.197 -92.615,44.149c-17.474,11.224 -35.911,14.661 -35.911,14.661c0,0 -7.489,2.27 -13.76,-4.153c-1.511,-3.41 2.21,-15.052 2.21,-15.052c0,0 21.391,-15.894 48.078,-43.366c13.791,-14.197 55.948,-57.086 114.291,-56.621c38.887,0.309 84.65,27.117 123.144,54.782c40.866,38.594 106.514,47.634 251.872,3.248c111.96,-19.159 167.143,56.897 256.067,49.562c30.145,-2.487 66.04,-4.215 98.44,-17.658c39.849,-16.533 75.904,-45.76 107.619,-54.807c102.597,-29.266 161.925,-28.41 161.925,-28.41c0,0 -97.978,18.272 -162.393,64.74c-76.965,70.779 -156.714,111.867 -206.559,111.225c-62.246,13.586 -140.765,-25.548 -204.25,-40.065c-1.346,2.003 -3.492,4.722 -5.066,4.424c-1.62,-0.308 -2.634,-3.81 -3.139,-6.173c-0.769,-0.152 -1.535,-0.299 -2.299,-0.441Z" style="fill:none;stroke:#000;stroke-width:3.33px;"/><path d="M2116.3,1358.66c1.215,-2.747 4.07,-4.676 7.399,-4.676c4.431,0 8.024,3.419 8.024,7.637c0,4.218 -3.593,7.638 -8.024,7.638c-2.281,0 -4.34,-0.906 -5.801,-2.361c-0.482,-0.48 -0.899,-1.02 -1.238,-1.607c-0.555,0.327 -1.239,0.508 -2.075,0.455c-2.116,-0.133 -6.116,2.697 -10.038,5.9c0.475,0.857 0.744,1.83 0.744,2.863c0,3.427 -2.958,6.206 -6.608,6.206c-1.313,0 -2.536,-0.36 -3.565,-0.98c-2.488,3.474 -6.779,8.104 -11.135,10.857c-4.642,2.933 -9.314,3.831 -10.063,2.872c-0.479,-0.613 -1.371,-1.282 0.014,-2.665c1.335,-1.334 5.246,-2.68 7.677,-5.053c1.839,-1.796 4.433,-3.7 6.631,-6.126c1.009,-1.114 2.894,-2.293 4.14,-3.237c-0.199,-0.591 -0.307,-1.221 -0.307,-1.874c0,-3.427 2.959,-6.205 6.608,-6.205c1.237,0 2.394,0.319 3.384,0.874c0.205,-0.23 0.369,-0.474 0.483,-0.736c1.011,-2.333 3.127,-4.099 5.726,-6.017c3.076,-2.27 7.078,-3.185 7.934,-3.71c0.03,-0.019 0.06,-0.037 0.09,-0.055Z" style="fill:#dc9292;stroke:#000;stroke-width:3.33px;stroke-linejoin:round;stroke-miterlimit:1.41421;"/><path d="M2116.3,1358.66c1.215,-2.747 4.07,-4.676 7.399,-4.676c4.431,0 8.024,3.419 8.024,7.637c0,4.218 -3.593,7.638 -8.024,7.638c-2.281,0 -4.34,-0.906 -5.801,-2.361c-0.482,-0.48 -0.899,-1.02 -1.238,-1.607c-0.555,0.327 -1.239,0.508 -2.075,0.455c-2.116,-0.133 -6.116,2.697 -10.038,5.9c0.475,0.857 0.744,1.83 0.744,2.863c0,3.427 -2.958,6.206 -6.608,6.206c-1.313,0 -2.536,-0.36 -3.565,-0.98c-2.488,3.474 -6.779,8.104 -11.135,10.857c-4.642,2.933 -9.314,3.831 -10.063,2.872c-0.479,-0.613 -1.371,-1.282 0.014,-2.665c1.335,-1.334 5.246,-2.68 7.677,-5.053c1.839,-1.796 4.433,-3.7 6.631,-6.126c1.009,-1.114 2.894,-2.293 4.14,-3.237c-0.199,-0.591 -0.307,-1.221 -0.307,-1.874c0,-3.427 2.959,-6.205 6.608,-6.205c1.237,0 2.394,0.319 3.384,0.874c0.205,-0.23 0.369,-0.474 0.483,-0.736c1.011,-2.333 3.127,-4.099 5.726,-6.017c3.076,-2.27 7.078,-3.185 7.934,-3.71c0.03,-0.019 0.06,-0.037 0.09,-0.055Z" style="fill:#ccc;fill-rule:nonzero;stroke:#000;stroke-width:3.33px;"/><path d="M2185.95,1384.43c-3.222,-4.23 -6.503,-8.475 -9.21,-12.19c-1.705,-2.339 -7.711,-6.654 -9.862,-8.011c-5.615,-5.828 -29.151,-12.154 -35.336,-12.154c-7.039,0 2.176,4.274 2.176,10.601c0,6.207 -7.441,5.632 4.998,8.939c1.761,1.442 3.892,2.844 5.586,3.67c2.511,1.226 5.28,2.117 7.933,2.647c0.431,0.408 0.8,0.936 1.176,1.17c2.975,1.853 3.69,4.064 7.023,5.159c0.964,0.316 2.119,0.489 3.33,0.53c5.89,6.362 14.528,13.596 20.29,16.838c1.209,1.055 2.481,2.058 3.808,2.985c5.637,3.934 17.336,5.776 19.75,5.684c7.706,-0.291 12.652,-2.22 18.371,-4.745c1.727,-0.762 32.542,-15.562 68.071,-14.012c30.336,1.324 64.434,19.06 83.233,18.34c32.32,-1.237 58.29,-28.591 59.033,-28.808c5.11,-1.49 -30.368,11.571 -60.85,14.49c-17.631,1.689 -33.44,-4.3 -34.807,-4.62c-10.262,-2.401 -31.495,-12.609 -50.55,-12.666c-23.693,-0.072 -45.007,10.493 -49.262,12.102c-14.209,5.372 -27.559,7.005 -30.691,6.638c-1.953,-0.229 -11.042,-1.907 -12.277,-2.806c-4.718,-3.43 -8.739,-6.903 -11.933,-9.781Z" style="fill:#e6e6e6;stroke:#000;stroke-width:3.33px;stroke-linejoin:round;stroke-miterlimit:1.41421;"/><path d="M2089.16,1372.72c5.122,-5.472 20.781,-22.005 42.743,-22.114c14.639,-0.073 31.994,9.907 46.617,20.249c15.569,14.49 40.322,17.609 94.818,0c42.048,-7.843 63.187,20.838 96.622,17.609c11.334,-1.094 24.836,-1.928 36.967,-7.205c14.918,-6.489 28.347,-17.791 40.241,-21.39c38.474,-11.644 60.809,-11.609 60.809,-11.609c0,0 -36.79,7.436 -60.809,25.44c-28.626,27.321 -58.443,43.353 -77.208,43.353c-28.283,6.63 -65.917,-16.032 -91.33,-16.032c-11.642,0 -24.184,9.596 -49.186,13.266c-13.097,1.923 -21.918,0 -30.275,-1.932c-8.768,-2.027 -32.97,-19.946 -50.363,-31.096c-8.37,-5.365 -21.76,-8.872 -25.001,-7.559c-16.112,0 -25.374,11.066 -34.645,17.261c-6.523,4.358 -13.445,5.757 -13.445,5.757c0,0 -2.808,0.9 -5.199,-1.514c-0.586,-1.29 0.758,-5.74 0.758,-5.74c0,0 7.975,-6.155 17.886,-16.744Z" style="fill:none;stroke:#000;stroke-width:3.33px;"/><path d="M1514.15,1345.83c0,0 -27.699,-0.294 -53.791,-8.324c-17.214,-5.299 -48.686,-16.736 -62.065,-17.668c-33.742,-2.353 -74.254,16.092 -104.605,14.852c-26.858,-1.098 -58.278,-20.726 -77.499,-22.297c-30.492,-2.492 -50.454,6.346 -51.487,7.445c-3.865,4.112 9.491,3.782 4.008,6.939c-6.225,3.584 3,4.471 5.192,4.15c7.914,-1.156 17.501,-13.747 42.287,-11.089c42.163,4.52 50.272,24.955 77.499,25.992c30.351,1.157 71.262,-21.168 104.605,-19.053c14.071,0.892 42.095,12.175 62.065,16.039c23.031,4.458 53.791,3.014 53.791,3.014Z" style="fill:#e6e6e6;stroke:#000;stroke-width:2.08px;stroke-linejoin:round;stroke-miterlimit:1.41421;"/><path d="M203.558,1340.64c1.834,-5.369 7.018,-9.239 13.126,-9.239c7.642,0 13.837,6.057 13.837,13.528c0,7.472 -6.195,13.529 -13.837,13.529c-3.933,0 -7.483,-1.605 -10.002,-4.182c-0.688,-0.702 -1.298,-1.477 -1.818,-2.311c-0.996,0.641 -2.25,0.997 -3.815,0.878c-3.676,-0.28 -10.543,4.553 -17.279,10.056c0.751,1.465 1.172,3.115 1.172,4.86c0,6.07 -5.101,10.992 -11.395,10.992c-2.266,0 -4.378,-0.639 -6.153,-1.739c-4.265,6.026 -11.601,13.996 -19.094,18.703c-8.021,5.037 -16.139,6.506 -17.466,4.807c-0.849,-1.087 -2.417,-2.28 -0.036,-4.674c2.295,-2.308 9.079,-4.579 13.259,-8.685c3.164,-3.107 7.64,-6.387 11.414,-10.591c1.742,-1.941 5.024,-3.978 7.173,-5.609c-0.319,-1.014 -0.491,-2.09 -0.491,-3.204c0,-6.071 5.101,-10.992 11.394,-10.992c2.177,0 4.21,0.588 5.94,1.609c0.273,-0.34 0.496,-0.699 0.656,-1.081c1.709,-4.067 5.354,-7.115 9.839,-10.419c5.134,-3.783 11.808,-5.324 13.576,-6.236Z" style="fill:#dc9292;stroke:#000;stroke-width:3.33px;stroke-linejoin:round;stroke-miterlimit:1.41421;"/><path d="M203.558,1340.64c1.834,-5.369 7.018,-9.239 13.126,-9.239c7.642,0 13.837,6.057 13.837,13.528c0,7.472 -6.195,13.529 -13.837,13.529c-3.933,0 -7.483,-1.605 -10.003,-4.182c-0.687,-0.702 -1.297,-1.477 -1.817,-2.311c-0.997,0.641 -2.25,0.997 -3.815,0.878c-3.676,-0.28 -10.543,4.553 -17.279,10.056c0.75,1.465 1.172,3.115 1.172,4.86c0,6.07 -5.102,10.992 -11.395,10.992c-2.266,0 -4.378,-0.639 -6.153,-1.739c-4.265,6.026 -11.601,13.996 -19.094,18.703c-8.021,5.037 -16.139,6.505 -17.466,4.807c-0.849,-1.087 -2.417,-2.28 -0.037,-4.674c2.296,-2.308 9.08,-4.579 13.26,-8.685c3.164,-3.107 7.64,-6.387 11.414,-10.591c1.742,-1.941 5.024,-3.978 7.173,-5.609c-0.319,-1.014 -0.491,-2.09 -0.491,-3.204c0,-6.071 5.101,-10.992 11.394,-10.992c2.177,0 4.21,0.588 5.94,1.609c0.273,-0.34 0.496,-0.699 0.656,-1.081c1.709,-4.068 5.354,-7.115 9.839,-10.419c5.134,-3.783 11.807,-5.324 13.576,-6.236Z" style="fill:#ccc;fill-rule:nonzero;stroke:#000;stroke-width:3.33px;"/><path d="M328.676,1391.51c-6.879,-9.399 -14.422,-19.283 -20.352,-27.644c-2.886,-4.069 -13.04,-11.504 -16.831,-13.948c-9.035,-10.423 -50.476,-21.901 -61.271,-21.901c-12.136,0 3.754,7.57 3.754,18.777c0,10.995 -12.831,9.977 8.618,15.834c3.037,2.554 6.712,5.037 9.633,6.502c4.33,2.171 9.105,3.749 13.678,4.687c0.744,0.723 1.381,1.659 2.029,2.074c5.13,3.281 6.364,7.199 12.111,9.137c1.615,0.545 3.544,0.85 5.569,0.933c8.014,8.886 19.07,18.755 28.273,25.287c3.771,4.088 8.049,7.99 12.741,11.318c9.691,6.874 29.891,9.966 34.067,9.772c13.325,-0.622 21.903,-4.098 31.827,-8.638c2.996,-1.37 56.476,-27.946 117.88,-25.696c52.429,1.921 111.135,32.787 143.647,31.256c55.895,-2.633 101.171,-51.321 102.459,-51.714c8.855,-2.703 -52.663,20.862 -105.403,26.441c-30.505,3.228 -57.755,-7.137 -60.114,-7.683c-17.708,-4.102 -54.277,-21.844 -87.221,-21.682c-40.96,0.2 -77.957,19.161 -85.335,22.062c-24.639,9.688 -47.743,12.757 -53.153,12.152c-3.372,-0.377 -19.064,-3.218 -21.187,-4.788c-5.777,-4.271 -10.943,-8.586 -15.419,-12.538Z" style="fill:#e6e6e6;stroke:#000;stroke-width:3.33px;stroke-linejoin:round;stroke-miterlimit:1.41421;"/><path d="M328.676,1391.51c-6.879,-9.399 -14.422,-19.283 -20.352,-27.644c-2.886,-4.069 -13.04,-11.504 -16.831,-13.948c-9.035,-10.423 -50.476,-21.901 -61.271,-21.901c-12.136,0 3.754,7.57 3.754,18.777c0,10.995 -12.831,9.977 8.618,15.834c3.037,2.554 6.712,5.037 9.633,6.502c4.33,2.171 9.105,3.749 13.678,4.687c0.744,0.723 1.381,1.659 2.029,2.074c5.13,3.281 6.364,7.199 12.111,9.137c1.615,0.545 3.544,0.85 5.569,0.933c8.014,8.886 19.07,18.755 28.273,25.287c3.771,4.088 8.049,7.99 12.741,11.318c9.691,6.874 29.891,9.966 34.067,9.772c13.325,-0.622 21.903,-4.098 31.827,-8.638c2.996,-1.37 56.476,-27.946 117.88,-25.696c52.429,1.921 111.135,32.787 143.647,31.256c55.895,-2.633 101.171,-51.321 102.458,-51.714c8.856,-2.703 -52.662,20.862 -105.402,26.441c-30.505,3.228 -57.755,-7.137 -60.115,-7.683c-17.707,-4.102 -54.276,-21.844 -87.22,-21.682c-40.96,0.2 -77.957,19.161 -85.335,22.062c-24.639,9.688 -47.743,12.757 -53.153,12.152c-3.372,-0.377 -19.063,-3.218 -21.187,-4.788c-5.777,-4.271 -10.943,-8.586 -15.419,-12.538Z" style="fill:none;stroke:#000;stroke-width:3.33px;"/><path d="M157.136,1364.58c8.832,-9.692 35.835,-38.977 73.707,-39.172c25.242,-0.129 55.169,17.549 80.385,35.868c26.847,25.668 69.532,31.193 163.506,0c72.507,-13.891 108.96,36.912 166.615,31.193c19.545,-1.939 42.828,-3.417 63.745,-12.763c25.726,-11.494 48.883,-31.514 69.392,-37.89c66.346,-20.625 104.86,-20.564 104.86,-20.564c0,0 -63.44,13.172 -104.86,45.065c-49.362,48.393 -100.779,76.791 -133.137,76.791c-48.771,11.745 -113.667,-28.398 -157.491,-28.398c-20.074,0 -41.702,16.999 -84.816,23.5c-22.584,3.406 -37.795,0 -52.206,-3.422c-15.12,-3.591 -56.853,-35.331 -86.846,-55.082c-14.433,-9.504 -37.524,-15.715 -43.111,-13.389c-27.785,0 -43.756,19.602 -59.743,30.574c-11.248,7.719 -23.185,10.197 -23.185,10.197c0,0 -4.842,1.596 -8.966,-2.681c-1.009,-2.285 1.309,-10.168 1.309,-10.168c0,0 13.751,-10.903 30.842,-29.659Z" style="fill:none;stroke:#000;stroke-width:3.33px;"/><clipPath id="_clip9"><path d="M300.077,782.278c8.198,4.911 34.81,9.696 65.467,1.5c49.387,-13.204 -14.355,-14.168 -54.706,-20.516c-19.161,-3.015 -33.745,-10.269 -43.001,-17.506c-7.604,-5.946 -10.816,-12.025 -16.842,-14.486c-1.492,-0.608 -3.032,1.917 -3.032,2.723c0,4.369 26.571,32.985 52.114,48.285Z"/></clipPath><g clip-path="url(#_clip9)"><rect x="231.608" y="714.822" width="168.269" height="89.739" style="fill:#cc91b8;stroke:#000;stroke-width:3.33px;stroke-linejoin:round;stroke-miterlimit:1.41421;"/></g><path d="M300.077,782.278c8.199,4.911 34.811,9.696 65.467,1.5c49.388,-13.204 -14.354,-14.168 -54.705,-20.516c-19.162,-3.015 -33.745,-10.269 -43.001,-17.506c-7.605,-5.946 -10.817,-12.025 -16.843,-14.485c-1.492,-0.609 -3.032,1.916 -3.032,2.722c0,4.369 26.571,32.985 52.114,48.285Z" style="fill:#575757;fill-rule:nonzero;stroke:#000;stroke-width:3.33px;"/><path d="M732.966,803.8c-16.518,2.866 -48.591,0.758 -79.248,-7.437c-49.389,-13.204 -27.626,-25.864 12.299,-20.103c30.576,4.413 58.994,-1.628 66.949,-2.558c26.192,-3.062 52.299,-9.432 57.936,-7.495c5.657,1.943 15.743,9.806 11.054,15.734c-1.341,1.697 -66.645,47.617 -125.605,42.495c-34.176,-2.969 -118.747,-21.948 -137.208,-28.073c-5.693,-1.89 -38.111,-5.907 -69.635,0c-34.331,6.432 -69.049,23.111 -104.144,28.073c-32.114,4.54 -57.169,2.456 -64.053,0c-6.111,-2.181 -54.249,-27.054 -46.121,-28.073c16.572,-2.08 104.016,19.657 131.901,7.437c11.586,-5.078 62.098,-22.708 121.169,-18.71c84.302,5.705 183.757,34.991 192.968,32.947c10.236,-2.271 26.616,-4.891 37.23,-8.624c25.984,-9.141 43.76,-20.895 43.966,-20.979c1.491,-0.609 -4.948,-4.151 -4.948,-3.344c0,4.369 -29.786,16.156 -44.51,18.71Z" style="fill:#575757;stroke:#000;stroke-width:3.33px;stroke-linejoin:round;stroke-miterlimit:1.41421;"/><path d="M648.281,1435.04c-7.088,10.9 -122.674,-24.072 -156.772,-23.962c-34.928,0.113 -61.337,7.852 -83.929,17.266c-8.196,3.415 -28,8.822 -32.107,6.696c-7.358,-3.809 3.256,-0.341 22.918,-8.958c3.731,-1.635 13.42,-6.524 25.724,-10.285c25.899,-7.917 65.294,-17.997 104.601,-9.875c26.333,5.442 46.659,10.294 63.763,14.71c6.638,1.714 17.14,6.252 27.285,7.712c16.319,2.349 31.703,1.796 28.517,6.696Z" style="fill:#575757;stroke:#000;stroke-width:3.33px;stroke-linejoin:round;stroke-miterlimit:1.41421;"/><clipPath id="_clip10"><path d="M803.109,779.729c0.759,-0.684 11.358,-12.273 24.98,-22.493c18.836,-14.131 42.103,-28.12 41.039,-29.304c-0.992,-1.1 -28.569,2.676 -49.838,12.282c-18.027,8.142 -30.261,22.206 -31.091,22.955c-3.008,2.708 3.633,-0.208 8.239,4.908c4.607,5.116 3.663,14.36 6.671,11.652Z"/></clipPath><g clip-path="url(#_clip10)"><path d="M892.425,729.365l-87.471,78.759l-41.08,-45.624l87.471,-78.759l41.08,45.624Z" style="fill:#ccc3c3;stroke:#000;stroke-width:3.33px;stroke-linejoin:round;stroke-miterlimit:1.41421;"/></g><path d="M803.108,779.729c0.759,-0.684 11.358,-12.273 24.981,-22.493c18.834,-14.131 42.103,-28.12 41.037,-29.304c-0.99,-1.1 -28.567,2.676 -49.836,12.282c-18.028,8.142 -30.261,22.206 -31.093,22.955c-3.007,2.708 3.634,-0.208 8.241,4.908c4.606,5.116 3.662,14.36 6.67,11.652Z" style="fill:#e6e6e6;fill-rule:nonzero;stroke:#000;stroke-width:3.33px;"/><path d="M119.053,707.202c2.906,-5.489 8.962,-9.265 15.963,-9.265c9.828,0 17.796,7.441 17.796,16.62c0,9.179 -7.968,16.62 -17.796,16.62c-5.06,0 -9.626,-1.972 -12.866,-5.137c-1.204,-1.176 -2.224,-2.517 -3.019,-3.983c-1.197,0.663 -2.649,1.029 -4.399,0.936c-4.671,-0.249 -13.573,6.071 -22.298,13.196c1.12,1.908 1.755,4.092 1.755,6.414c0,7.458 -6.562,13.503 -14.656,13.503c-2.909,0 -5.621,-0.781 -7.901,-2.128c-5.542,7.673 -15.113,17.955 -24.793,24.097c-10.282,6.523 -20.587,8.586 -22.218,6.5c-1.043,-1.336 -2.991,-2.783 0.085,-5.843c2.967,-2.95 11.607,-5.98 17.007,-11.231c4.087,-3.974 9.839,-8.2 14.728,-13.563c2.237,-2.453 6.389,-5.067 9.152,-7.156c-0.465,-1.316 -0.715,-2.721 -0.715,-4.179c0,-7.458 6.562,-13.504 14.655,-13.504c2.701,0 5.229,0.673 7.401,1.846c0.531,-0.559 0.955,-1.156 1.241,-1.799c2.273,-5.135 6.967,-9.047 12.731,-13.304c6.818,-5.038 15.651,-7.127 17.545,-8.295c0.211,-0.129 0.41,-0.244 0.602,-0.345Z" style="fill:#ccc;stroke:#000;stroke-width:3.33px;stroke-linejoin:round;stroke-miterlimit:1.41421;"/><path d="M119.052,707.202c2.906,-5.49 8.962,-9.265 15.963,-9.265c9.829,0 17.796,7.441 17.796,16.62c0,9.179 -7.967,16.62 -17.796,16.62c-5.059,0 -9.625,-1.972 -12.865,-5.137c-1.204,-1.176 -2.225,-2.517 -3.02,-3.983c-1.197,0.663 -2.649,1.029 -4.4,0.936c-4.67,-0.249 -13.572,6.071 -22.297,13.196c1.12,1.908 1.756,4.092 1.756,6.414c0,7.458 -6.562,13.503 -14.656,13.503c-2.91,0 -5.622,-0.781 -7.902,-2.128c-5.542,7.673 -15.113,17.955 -24.793,24.097c-10.282,6.523 -20.586,8.586 -22.217,6.5c-1.043,-1.336 -2.992,-2.783 0.085,-5.843c2.966,-2.95 11.607,-5.98 17.007,-11.231c4.087,-3.974 9.838,-8.2 14.727,-13.563c2.237,-2.453 6.389,-5.067 9.153,-7.156c-0.465,-1.316 -0.716,-2.721 -0.716,-4.179c0,-7.458 6.562,-13.504 14.656,-13.504c2.7,0 5.229,0.673 7.401,1.846c0.53,-0.559 0.955,-1.156 1.24,-1.799c2.274,-5.135 6.968,-9.047 12.73,-13.304c6.819,-5.038 15.652,-7.127 17.547,-8.295c0.209,-0.129 0.41,-0.244 0.601,-0.345Z" style="fill:none;stroke:#000;stroke-width:3.33px;"/><path d="M268.185,758.628c-5.788,-7.437 -11.482,-14.745 -16.35,-21.299c-3.853,-5.19 -17.517,-14.86 -22.122,-17.704c-13.122,-12.572 -64.4,-26.059 -77.979,-26.059c-15.609,0 4.828,9.3 4.828,23.068c0,13.508 -16.504,12.256 11.085,19.452c3.905,3.137 8.632,6.188 12.39,7.988c5.569,2.666 11.71,4.605 17.593,5.758c0.955,0.889 1.776,2.038 2.608,2.548c6.598,4.031 8.186,8.843 15.578,11.225c2.179,0.702 4.8,1.08 7.543,1.158c15.134,16.049 38.274,34.612 50.385,39.447c1.119,0.847 2.255,1.671 3.413,2.469c12.528,8.647 38.45,12.805 43.794,12.636c17.057,-0.541 27.983,-4.685 40.614,-10.119c7.935,-3.414 67.85,-25.126 127.011,-29.713c31.113,-2.412 187.077,34.866 199.102,35.709c22.445,1.575 50.538,-3.369 51.135,-3.596c2.548,-0.964 49.276,-22.548 39.02,-24.193c-1.115,-0.179 -16.263,10.432 -36.322,15.89c-16.472,4.482 -23.223,3.128 -36.176,3.061c-1.595,-0.008 -6.395,-2.63 -8.282,-2.691c-13.46,-0.438 -29.976,0.395 -35.774,-2.12c-7.489,-3.249 -17.876,-5.377 -27.669,-8.99c-10.979,-4.05 -21.48,-9.633 -31.644,-14.168c-7.713,-3.441 -53.145,-32.829 -102.239,-33.22c-46.712,-0.371 -97.165,28.093 -105.432,31.132c-31.391,11.537 -60.929,14.933 -67.866,14.095c-4.326,-0.523 -24.47,-4.295 -27.216,-6.268c-12.832,-9.221 -23.358,-18.57 -31.028,-25.496Z" style="fill:#e6e6e6;stroke:#000;stroke-width:3.33px;stroke-linejoin:round;stroke-miterlimit:1.41421;"/><path d="M681.218,835.283c-59.221,10.642 -132.146,-29.485 -184.088,-30.488c-43.289,-0.836 -72.112,16.484 -127.564,24.471c-29.047,4.183 -48.612,0 -67.147,-4.204c-19.448,-4.412 -73.124,-43.405 -111.7,-67.668c-18.563,-11.675 -48.263,-19.306 -55.45,-16.449c-35.737,0 -56.278,24.081 -76.84,37.56c-14.466,9.484 -29.82,12.528 -29.82,12.528c0,0 -6.228,1.96 -11.532,-3.294c-1.298,-2.808 1.683,-12.491 1.683,-12.491c0,0 17.686,-13.395 39.669,-36.436c11.36,-11.907 46.091,-47.884 94.801,-48.123c32.466,-0.159 70.958,21.558 103.39,44.064c34.531,31.533 89.431,38.32 210.299,0c93.259,-17.066 140.144,45.346 214.299,38.32c25.138,-2.382 55.084,-4.197 81.988,-15.679c33.088,-14.12 62.872,-38.715 89.251,-46.548c85.333,-25.338 134.87,-25.262 134.87,-25.262c0,0 -81.596,16.181 -134.87,55.361c-63.489,59.451 -112.018,83.697 -171.239,94.338Z" style="fill:none;stroke:#000;stroke-width:3.33px;"/><path d="M2295.36,712.542c28.629,0 45.349,7.985 57.671,17.806c10.538,8.399 18.73,17.401 18.73,32.108c0,12.805 -6.671,23.078 -14.596,30.87c-11.822,11.623 -30.01,17.644 -61.805,17.644c-53.111,0 -88.765,-16.61 -88.765,-48.514c0,-16.406 11.344,-27.291 27.725,-35.789c15.475,-8.028 35.24,-14.125 61.04,-14.125Z" style="fill:none;stroke:#000;stroke-width:3.33px;stroke-linecap:square;stroke-miterlimit:1;"/><path d="M2295.32,776.237c27.743,1.453 29.381,-14.497 31.427,-9.5c0.405,0.989 3.458,9.479 4.903,11.971c2.911,5.022 6.888,7.163 9.42,10.273c2.254,2.768 -3.531,8.3 -6.419,11.059c-7.272,6.949 -21.118,10.93 -43.144,10.93c-23.376,0 -34.354,-4.437 -45.787,-10.93c-3.529,-2.005 -16.777,-13.102 -13.892,-12.212c0.575,0.178 6.067,1.992 10.305,3.183c5.966,1.676 13.955,0.912 18.037,-0.995c3.926,-1.836 10.134,-4.52 14.575,-8.5c2.556,-2.29 3.488,-6.151 6.649,-7.059c3.976,-1.141 8.47,1.494 13.926,1.78Z" style="fill:#e6e6e6;stroke:#000;stroke-width:3.33px;stroke-linecap:square;stroke-miterlimit:1;"/><path d="M2305.56,714.465c5.747,0 9.905,2.917 13.637,5.024c7.797,4.402 11.902,11.603 11.902,25.726c0,16.593 -7.458,28.937 -25.539,30.314c-10.101,0.769 -17.269,1.46 -24.389,-4.193c-4.724,-3.751 -2.744,-19.02 -4.162,-28.084c-1.224,-7.819 -10.351,-17.046 -7.258,-22.201c5.067,-8.449 24.782,-6.586 35.809,-6.586Z" style="fill:#e6e6e6;stroke:#000;stroke-width:3.33px;stroke-linecap:square;stroke-miterlimit:1;"/><path d="M2241.46,725.605c5.515,-2.254 19.484,-2.514 23.722,0c8.624,5.117 12.971,19.057 12.971,33.352c0,7.908 2.34,12.589 0,17.639c-3.969,8.564 -17.191,14.777 -28.786,14.777c-18.433,0 -30.807,-11.098 -30.807,-32.416c0,-10.344 3.639,-16.247 7.004,-21.012c3.569,-5.054 7.112,-8.75 15.896,-12.34Z" style="fill:#e6e6e6;stroke:#000;stroke-width:3.33px;stroke-linecap:square;stroke-miterlimit:1;"/><path d="M2351.36,731.096c8.554,7.608 17.443,14.211 17.443,26.774c0,12.562 -5.317,25.775 -17.443,25.775c-3.337,0 -7.992,5.948 -10.638,4.235c-4.654,-3.011 -12.176,-13.243 -13.477,-21.143c-0.648,-3.933 1.359,-6.923 2.384,-9.284c1.162,-2.677 2.267,-8.682 2.19,-14.906c-0.119,-9.524 -6.94,-17.395 -4.574,-19.304c3.48,-2.808 19.974,4.169 24.115,7.853Z" style="fill:#e6e6e6;stroke:#000;stroke-width:3.33px;stroke-linecap:square;stroke-miterlimit:1;"/><path d="M2249.48,744.204c6.947,0 9.994,4.49 9.994,12.444c0,7.954 -3.047,12.096 -9.994,12.096c-6.947,0 -11.611,-4.142 -11.611,-12.096c0,-7.954 4.664,-12.444 11.611,-12.444Z" style="fill:#b1b1b1;stroke:#000;stroke-width:3.33px;stroke-linecap:square;stroke-miterlimit:1;"/><path d="M2301.16,730.915c5.721,1.341 7.388,5.522 5.896,11.887c-1.492,6.366 -4.778,9.091 -10.499,7.75c-5.722,-1.341 -8.786,-5.555 -7.294,-11.92c1.492,-6.366 6.175,-9.059 11.897,-7.717Z" style="fill:#b1b1b1;stroke:#000;stroke-width:3.33px;stroke-linecap:square;stroke-miterlimit:1;"/><path d="M2350.52,748.157c5.444,1.276 7.049,5.176 5.662,11.094c-1.387,5.917 -4.497,8.438 -9.942,7.162c-5.444,-1.276 -8.377,-5.214 -6.99,-11.131c1.387,-5.918 5.825,-8.401 11.27,-7.125Z" style="fill:#b1b1b1;stroke:#000;stroke-width:3.33px;stroke-linecap:square;stroke-miterlimit:1;"/><path d="M2305.15,785.377c5.988,1.404 7.832,5.36 6.444,11.277c-1.387,5.917 -4.735,8.383 -10.724,6.979c-5.989,-1.404 -9.287,-5.427 -7.9,-11.345c1.387,-5.917 6.191,-8.315 12.18,-6.911Z" style="fill:#b1b1b1;stroke:#000;stroke-width:3.33px;stroke-linecap:square;stroke-miterlimit:1;"/><path d="M1132.34,1925.52c1.44,-4.119 5.441,-7.082 10.152,-7.082c5.923,0 10.724,4.683 10.724,10.46c0,5.777 -4.801,10.46 -10.724,10.46c-3.048,0 -5.8,-1.241 -7.752,-3.233c-0.542,-0.553 -1.023,-1.165 -1.431,-1.823c-0.77,0.491 -1.736,0.764 -2.94,0.673c-2.847,-0.213 -8.171,3.536 -13.393,7.802c0.586,1.136 0.915,2.417 0.915,3.772c0,4.694 -3.954,8.499 -8.831,8.499c-1.756,0 -3.393,-0.494 -4.768,-1.344c-3.308,4.667 -8.997,10.846 -14.806,14.496c-6.215,3.906 -12.502,5.049 -13.528,3.736c-0.657,-0.84 -1.87,-1.762 -0.025,-3.617c1.78,-1.788 7.035,-3.552 10.275,-6.733c2.453,-2.408 5.922,-4.95 8.848,-8.207c1.35,-1.503 3.891,-3.081 5.557,-4.344c-0.25,-0.787 -0.384,-1.621 -0.384,-2.486c0,-4.694 3.954,-8.499 8.831,-8.499c1.684,0 3.258,0.454 4.597,1.241c0.217,-0.268 0.394,-0.551 0.52,-0.851c1.327,-3.15 4.152,-5.511 7.627,-8.072c3.996,-2.945 9.193,-4.141 10.536,-4.848Z" style="fill:#dc9292;stroke:#000;stroke-width:3.33px;stroke-linejoin:round;stroke-miterlimit:1.41421;"/><path d="M1132.34,1925.52c1.44,-4.119 5.441,-7.082 10.152,-7.082c5.923,0 10.724,4.683 10.724,10.46c0,5.777 -4.801,10.46 -10.724,10.46c-3.048,0 -5.8,-1.241 -7.752,-3.233c-0.542,-0.553 -1.023,-1.165 -1.431,-1.823c-0.77,0.491 -1.736,0.764 -2.94,0.673c-2.847,-0.213 -8.171,3.536 -13.393,7.802c0.586,1.136 0.915,2.417 0.915,3.772c0,4.694 -3.953,8.499 -8.831,8.499c-1.756,0 -3.393,-0.494 -4.768,-1.344c-3.307,4.667 -8.997,10.846 -14.806,14.496c-6.215,3.906 -12.502,5.049 -13.528,3.736c-0.657,-0.84 -1.87,-1.762 -0.025,-3.617c1.78,-1.788 7.035,-3.552 10.275,-6.733c2.453,-2.408 5.922,-4.95 8.848,-8.207c1.35,-1.503 3.891,-3.081 5.557,-4.344c-0.249,-0.787 -0.384,-1.621 -0.384,-2.486c0,-4.694 3.954,-8.499 8.831,-8.499c1.684,0 3.258,0.454 4.597,1.241c0.217,-0.268 0.394,-0.551 0.52,-0.851c1.327,-3.15 4.152,-5.511 7.628,-8.072c3.996,-2.945 9.192,-4.141 10.535,-4.848Z" style="fill:#ccc;fill-rule:nonzero;stroke:#000;stroke-width:3.33px;"/><path d="M1229,1964.52c-5.256,-7.153 -10.978,-14.641 -15.494,-20.993c-2.239,-3.15 -10.118,-8.91 -13.053,-10.799c-7.044,-8.053 -39.108,-16.91 -47.465,-16.91c-9.407,0 2.909,5.853 2.909,14.518c0,8.501 -9.945,7.714 6.679,12.242c2.353,1.975 5.201,3.895 7.466,5.028c3.355,1.678 7.056,2.898 10.6,3.624c0.577,0.559 1.071,1.283 1.573,1.603c3.975,2.538 4.932,5.566 9.386,7.065c1.255,0.423 2.754,0.659 4.327,0.722c6.337,7.01 15.121,14.809 22.333,19.857c2.829,3.013 6.014,5.882 9.492,8.345c7.513,5.322 23.166,7.724 26.402,7.575c10.325,-0.473 16.969,-3.157 24.656,-6.662c2.321,-1.059 43.745,-21.582 91.325,-19.809c40.625,1.513 86.13,25.416 111.321,24.249c43.308,-2.006 78.364,-39.635 79.361,-39.939c6.86,-2.085 -40.794,16.106 -81.656,20.393c-23.635,2.479 -44.755,-5.551 -46.584,-5.975c-13.722,-3.181 -42.067,-16.922 -67.593,-16.815c-31.738,0.133 -60.394,14.777 -66.11,17.016c-19.086,7.479 -36.986,9.841 -41.178,9.37c-2.614,-0.294 -14.773,-2.499 -16.42,-3.714c-4.618,-3.41 -8.733,-6.855 -12.277,-9.991Z" style="fill:#d1b9b9;stroke:#000;stroke-width:3.33px;stroke-linejoin:round;stroke-miterlimit:1.41421;"/><path d="M1229,1964.52c-5.256,-7.153 -10.978,-14.641 -15.494,-20.993c-2.239,-3.15 -10.118,-8.91 -13.053,-10.799c-7.044,-8.053 -39.108,-16.91 -47.465,-16.91c-9.407,0 2.908,5.853 2.908,14.518c0,8.501 -9.944,7.714 6.68,12.242c2.353,1.975 5.202,3.895 7.466,5.028c3.355,1.678 7.056,2.898 10.6,3.624c0.577,0.559 1.07,1.283 1.573,1.603c3.975,2.538 4.932,5.566 9.386,7.065c1.255,0.423 2.754,0.659 4.328,0.722c6.336,7.01 15.12,14.809 22.332,19.857c2.829,3.013 6.014,5.882 9.492,8.345c7.513,5.322 23.166,7.724 26.402,7.575c10.325,-0.473 16.969,-3.157 24.656,-6.662c2.321,-1.059 43.745,-21.582 91.325,-19.809c40.625,1.513 86.13,25.416 111.321,24.249c43.308,-2.006 78.364,-39.635 79.361,-39.939c6.86,-2.085 -40.794,16.106 -81.656,20.393c-23.635,2.479 -44.755,-5.551 -46.584,-5.975c-13.722,-3.181 -42.067,-16.922 -67.593,-16.815c-31.738,0.133 -60.394,14.777 -66.11,17.016c-19.086,7.479 -36.986,9.841 -41.178,9.37c-2.614,-0.294 -14.774,-2.499 -16.42,-3.714c-4.618,-3.41 -8.733,-6.855 -12.277,-9.991Z" style="fill:#e6e6e6;fill-rule:nonzero;stroke:#000;stroke-width:3.33px;"/><path d="M1096.35,1944.09c6.845,-7.494 27.773,-30.137 57.124,-30.287c19.564,-0.1 42.758,13.568 62.3,27.733c20.807,19.845 53.889,24.117 126.72,0c56.195,-10.741 84.446,28.539 129.13,24.117c15.148,-1.499 33.193,-2.641 49.404,-9.867c19.938,-8.888 37.885,-24.367 53.78,-29.297c51.419,-15.947 81.268,-15.9 81.268,-15.9c0,0 -49.167,10.185 -81.268,34.844c-38.257,37.417 -78.106,59.374 -103.184,59.374c-37.798,9.081 -88.094,-21.957 -122.058,-21.957c-15.558,0 -32.32,13.143 -65.734,18.17c-17.503,2.633 -29.292,0 -40.461,-2.646c-11.718,-2.777 -44.062,-27.318 -67.307,-42.588c-11.186,-7.349 -29.082,-12.152 -33.412,-10.353c-21.534,0 -33.912,15.156 -46.302,23.639c-8.717,5.969 -17.969,7.885 -17.969,7.885c0,0 -3.752,1.233 -6.948,-2.073c-0.783,-1.767 1.014,-7.862 1.014,-7.862c0,0 10.657,-8.43 23.903,-22.932Z" style="fill:none;stroke:#000;stroke-width:3.33px;"/><path d="M885.592,864.557c97.196,120.317 249.971,301.006 412.203,420.353" style="fill:none;stroke:#000;stroke-width:12.5px;stroke-linecap:square;stroke-miterlimit:1;"/><path d="M1507.5,1402.78c212.983,92.465 485.648,157.44 636.262,193.331" style="fill:none;stroke:#000;stroke-width:12.5px;stroke-linecap:square;stroke-miterlimit:1;"/><path d="M546.85,1462.77l64.713,43.713l-60.856,34.286l-3.857,-77.999Z" style="fill:#000f08;stroke:#000f08;stroke-width:12.5px;stroke-linecap:square;stroke-linejoin:round;stroke-miterlimit:1.5;"/><path d="M1692.01,1923.21l55.389,-55.052l21.886,66.332l-77.275,-11.28Z" style="fill:#000f08;stroke:#000f08;stroke-width:12.5px;stroke-linecap:square;stroke-linejoin:round;stroke-miterlimit:1.5;"/><path d="M1467.79,1385.3l77.987,-4.093l-27.921,64.026l-50.066,-59.933Z" style="fill:#000f08;stroke:#000f08;stroke-width:12.5px;stroke-linecap:square;stroke-linejoin:round;stroke-miterlimit:1.5;"/><path d="M863.682,817.31l64.902,43.433l-60.708,34.549l-4.194,-77.982Z" style="fill:#000f08;stroke:#000f08;stroke-width:12.5px;stroke-linecap:square;stroke-linejoin:round;stroke-miterlimit:1.5;"/><path d="M2302.98,1308.75l-17.464,-76.116l67.879,16.475l-50.415,59.641Z" style="fill:#000f08;stroke:#000f08;stroke-width:12.5px;stroke-linecap:square;stroke-linejoin:round;stroke-miterlimit:1.5;"/><path d="M2274.83,684.227l-55.965,-54.466l65.959,-22.986l-9.994,77.452Z" style="fill:#000f08;stroke:#000f08;stroke-width:12.5px;stroke-linecap:square;stroke-linejoin:round;stroke-miterlimit:1.5;"/><path d="M1158.95,1324.63c0.982,-2.162 3.288,-3.681 5.976,-3.681c3.58,0 6.481,2.691 6.481,6.011c0,3.32 -2.901,6.011 -6.481,6.011c-1.842,0 -3.505,-0.713 -4.685,-1.858c-0.39,-0.378 -0.726,-0.803 -1,-1.264c-0.449,0.257 -1.001,0.399 -1.676,0.358c-1.709,-0.105 -4.94,2.122 -8.108,4.643c0.384,0.674 0.601,1.44 0.601,2.253c0,2.697 -2.389,4.884 -5.337,4.884c-1.061,0 -2.049,-0.283 -2.88,-0.771c-2.01,2.734 -5.475,6.378 -8.994,8.545c-3.749,2.308 -7.522,3.015 -8.127,2.26c-0.388,-0.483 -1.108,-1.009 0.011,-2.098c1.078,-1.049 4.237,-2.109 6.2,-3.976c1.486,-1.414 3.581,-2.912 5.357,-4.822c0.815,-0.876 2.337,-1.804 3.343,-2.547c-0.161,-0.465 -0.247,-0.961 -0.247,-1.475c0,-2.697 2.389,-4.884 5.337,-4.884c0.999,0 1.934,0.252 2.733,0.689c0.165,-0.181 0.298,-0.374 0.39,-0.58c0.817,-1.836 2.526,-3.226 4.625,-4.735c2.484,-1.786 5.717,-2.507 6.408,-2.92c0.025,-0.015 0.049,-0.029 0.073,-0.043Z" style="fill:#ccc;stroke:#000;stroke-width:2.08px;stroke-linejoin:round;stroke-miterlimit:1.41421;"/></g></svg>