<?xml version="1.0" encoding="UTF-8" standalone="no"?><!DOCTYPE svg PUBLIC "-//W3C//DTD SVG 1.1//EN" "http://www.w3.org/Graphics/SVG/1.1/DTD/svg11.dtd"><svg width="100%" height="100%" viewBox="0 0 5297 1582" version="1.1" xmlns="http://www.w3.org/2000/svg" xmlns:xlink="http://www.w3.org/1999/xlink" xml:space="preserve" xmlns:serif="http://www.serif.com/" style="fill-rule:evenodd;clip-rule:evenodd;stroke-linecap:round;stroke-linejoin:round;stroke-miterlimit:1.5;"><g><path d="M4546.63,194.514l64.541,-29.356" style="fill:none;stroke:#0096fc;stroke-width:20.83px;"/><path d="M5185.99,469.541l-49.199,66.186" style="fill:none;stroke:#0096fc;stroke-width:20.83px;"/><path d="M4920.72,357.389l215.88,48.643" style="fill:none;stroke:#0096fc;stroke-width:20.83px;"/><path d="M4921.46,357.587l-375.691,-162.766l0,114.088l375.691,189.341l215.556,37.287l0,-128.953l49.512,-69.894l-168.369,-81.628l-406.793,-90.098" style="fill:none;stroke:#0096fc;stroke-width:20.83px;"/><path d="M4920.59,358.313l0,139.435" style="fill:none;stroke:#0096fc;stroke-width:20.83px;"/><path d="M5186.8,337.345l0,131.407" style="fill:none;stroke:#0096fc;stroke-width:20.83px;"/></g><path d="M5286.18,687.134l0,182.899" style="fill:none;stroke:#0096fc;stroke-width:20.83px;"/><g><path d="M1.667,926.55l0,-295.932l4093.38,0l147.966,147.966l-147.966,147.966l-4093.38,0Z" style="fill:#d0d0d0;stroke:#231f20;stroke-width:3.33px;"/><path d="M3271.47,926.55l0,-295.932l823.578,0l147.966,147.966l-147.966,147.966l-823.578,0Z" style="fill:#ee3723;stroke:#231f20;stroke-width:3.33px;"/><rect x="2397.68" y="631.244" width="479.925" height="294.664" style="fill:#ee3723;stroke:#231f20;stroke-width:3.33px;"/><rect x="2071.78" y="631.244" width="208.324" height="294.664" style="fill:#ee3723;stroke:#231f20;stroke-width:3.33px;"/><rect x="880.137" y="631.244" width="463.155" height="294.664" style="fill:#ee3723;stroke:#231f20;stroke-width:3.33px;"/></g><g><path d="M478.003,352.333c1.18,0 2.337,0.097 3.463,0.284l2.117,0c11.604,0 70.51,67.739 81.023,84.098c4.35,6.77 -11.878,18.583 -17.946,14.057c-9.999,-7.458 -42.052,-58.807 -42.052,-58.807l0,23.726c0,11.603 -9.42,21.024 -21.025,21.024l-47.247,0c-1.18,0 -2.337,-0.097 -3.463,-0.284l-2.117,0c-11.604,0 -21.025,-9.421 -21.025,-21.025l0,-23.725c0,0 -32.053,51.348 -42.052,58.807c-6.068,4.526 -22.296,-7.288 -17.946,-14.057c10.513,-16.359 69.416,-84.095 81.023,-84.098l47.247,0Z" style="fill:#d0d0d0;stroke:#231f20;stroke-width:3.33px;"/><path d="M421.049,454.691c-4.551,-4.199 -11.655,-3.914 -15.854,0.638c0,0 -29.82,45.872 -25.268,50.071c0,0 39.944,46.762 51.94,51.262c11.995,4.501 22.001,-15.715 20.033,-24.259c-1.967,-8.544 -31.84,-27.003 -31.84,-27.003l11.807,-20.443c4.199,-4.551 10.225,-10.851 5.674,-15.05l-16.492,-15.216Z" style="fill:#d0d0d0;stroke:#231f20;stroke-width:3.33px;"/><path d="M494.92,454.691c4.551,-4.199 11.655,-3.914 15.854,0.638c0,0 29.82,45.872 25.269,50.071c0,0 -39.945,46.762 -51.94,51.262c-11.996,4.501 -22.002,-15.715 -20.034,-24.259c1.968,-8.544 31.841,-27.003 31.841,-27.003l-11.807,-20.443c-4.199,-4.551 -10.226,-10.851 -5.675,-15.05l16.492,-15.216Z" style="fill:#d0d0d0;stroke:#231f20;stroke-width:3.33px;"/><path d="M505.497,432.413c-5.487,-4.14 -24.752,-0.054 -46.679,0c-21.366,0.052 -45.405,-4.034 -50.752,0c-10.834,8.174 21.594,40.872 32.428,49.046c8.668,6.54 23.907,6.54 32.575,0c10.833,-8.174 43.261,-40.872 32.428,-49.046Z" style="fill:#fff;stroke:#231f20;stroke-width:3.33px;"/><ellipse cx="457.483" cy="312.72" rx="45.379" ry="44.024" style="fill:#d0d0d0;stroke:#231f20;stroke-width:3.33px;"/></g><g><path d="M1717.18,309.465c0,0 0,194.682 0,235.815c0,16.037 -44.614,16.037 -44.614,0c0,-64.809 0,-325.127 0,-391.476c0,-5.238 -15.142,-5.206 -15.712,0c-2.618,23.918 0,119.699 0,143.508c0,6.699 -19.33,6.655 -20.096,0c-3.349,-29.084 -10.9,-138.268 0,-174.504c7.511,-24.969 43.177,-35.817 65.401,-42.913c8.836,0.767 16.743,0.565 21.37,0.312l0,-0.312c0,0 0.765,0.08 2.14,0.178c1.374,-0.098 2.14,-0.178 2.14,-0.178l0,0.312c4.626,0.253 12.534,0.455 21.37,-0.312c22.224,7.096 57.89,17.944 65.401,42.913c10.9,36.236 3.349,145.42 0,174.504c-0.767,6.655 -20.097,6.699 -20.097,0c0,-23.809 2.619,-119.59 0,-143.508c-0.569,-5.206 -15.711,-5.238 -15.711,0c0,66.349 0,326.667 0,391.476c0,16.037 -44.614,16.037 -44.614,0c0,-41.133 0,-235.815 0,-235.815l-16.978,0Z" style="fill:#d0d0d0;stroke:#231f20;stroke-width:3.33px;"/><ellipse cx="1728.05" cy="45.69" rx="45.379" ry="44.024" style="fill:#d0d0d0;stroke:#231f20;stroke-width:3.33px;"/></g><g><g><path d="M3352.73,309.465c0,0 0,194.682 0,235.815c0,16.037 -44.614,16.037 -44.614,0c0,-64.809 0,-325.127 0,-391.476c0,-5.238 -15.141,-5.206 -15.711,0c-1.201,10.966 -6.915,35.455 0,61.883c8.296,31.704 -6.697,37.899 -20.096,9.635c-17.257,-36.399 -6.325,-81.488 0,-102.514c7.51,-24.969 43.177,-35.817 65.4,-42.913c8.836,0.767 16.744,0.565 21.37,0.312l0,-0.312c0,0 0.766,0.08 2.14,0.178c1.375,-0.098 2.141,-0.178 2.141,-0.178l0,0.312c4.626,0.253 12.534,0.455 21.37,-0.312c22.223,7.096 57.89,17.944 65.4,42.913c10.9,36.236 3.35,145.42 0,174.504c-0.766,6.655 -20.096,6.699 -20.096,0c0,-23.809 2.619,-119.59 0,-143.508c-0.57,-5.206 -15.711,-5.238 -15.711,0c0,66.349 0,326.667 0,391.476c0,16.037 -44.614,16.037 -44.614,0c0,-41.133 0,-235.815 0,-235.815l-16.979,0Z" style="fill:#ff2b06;stroke:#231f20;stroke-width:3.33px;"/><ellipse cx="3363.6" cy="45.69" rx="45.379" ry="44.024" style="fill:#ff2b06;stroke:#231f20;stroke-width:3.33px;"/><path d="M3290.25,236.424c-28.015,0 68.266,-31.398 68.266,0c0,31.398 -40.25,0 -68.266,0Z" style="fill:#ff2b06;stroke:#231f20;stroke-width:3.33px;"/><path d="M3334.54,248.896c8.215,16.084 -64.268,6.186 -66.423,-27.9c-1.953,-30.878 132.575,-138.394 132.575,-138.394l18.639,8.666c0,0 -104.782,118.488 -84.791,157.628Z" style="fill:#fff;stroke:#231f20;stroke-width:3.33px;"/></g></g><path d="M4244.71,778.584l1032.14,0" style="fill:none;stroke:#0096fc;stroke-width:20.83px;stroke-dasharray:20.83,104.17,83.33,0;"/><g transform="matrix(1,0,0,1,-2953.02,-6859.1)"><text x="6246.85px" y="7588.49px" style="font-family:'Montserrat-Bold', 'Montserrat';font-weight:700;font-size:116.667px;fill:#fff;">Dise<tspan x="6512.15px " y="7588.49px ">a</tspan>se</text><text x="6246.85px" y="7755.16px" style="font-family:'Montserrat-Bold', 'Montserrat';font-weight:700;font-size:116.667px;fill:#fff;">Disabilit<tspan x="6747.7px " y="7755.16px ">y</tspan></text></g><text x="78.055px" y="814.495px" style="font-family:'Montserrat-Bold', 'Montserrat';font-weight:700;font-size:116.667px;">He<tspan x="244.188px 316.172px 355.838px 406.588px 486.038px " y="814.495px 814.495px 814.495px 814.495px 814.495px ">althy</tspan></text><text x="64.338px" y="1581.24px" style="font-family:'Montserrat-Bold', 'Montserrat';font-weight:700;font-size:200px;">D<tspan x="227.538px 380.738px 487.138px " y="1581.24px 1581.24px 1581.24px ">ALY</tspan> =</text><text x="2033.02px" y="1581.24px" style="font-family:'Montserrat-Bold', 'Montserrat';font-weight:700;font-size:200px;fill:#ee3723;">Y<tspan x="2166.82px " y="1581.24px ">L</tspan>D</text><text x="4503.36px" y="1581.24px" style="font-family:'Montserrat-Bold', 'Montserrat';font-weight:700;font-size:200px;fill:#0096fc;">Y<tspan x="4637.16px " y="1581.24px ">L</tspan>L</text></svg>