<?xml version="1.0" encoding="UTF-8" standalone="no"?><!DOCTYPE svg PUBLIC "-//W3C//DTD SVG 1.1//EN" "http://www.w3.org/Graphics/SVG/1.1/DTD/svg11.dtd"><svg width="100%" height="100%" viewBox="0 0 251 1145" version="1.1" xmlns="http://www.w3.org/2000/svg" xmlns:xlink="http://www.w3.org/1999/xlink" xml:space="preserve" xmlns:serif="http://www.serif.com/" style="fill-rule:evenodd;clip-rule:evenodd;stroke-linecap:round;stroke-linejoin:round;stroke-miterlimit:1.5;"><g><path d="M107.747,248.816c-0.648,-0.145 -1.415,-0.737 -1.939,-1.151l-3.646,-14.929c-1.92,-5.759 -5.782,-16.822 -5.782,-16.822c0,0 -0.511,-6.877 -1.84,-9.551l-12.488,-9.145c0,0 13.52,5.703 14.328,6.341c1.667,2.92 5.461,19.792 8.356,29.177l2.983,5.576c0.418,0.331 1.052,2.181 1.478,4.001c0.68,-2.086 1.603,-3.862 2.953,-4.905c3.1,-2.396 7.495,-4.095 12.134,-4.542c-4.731,0.006 -10.146,-0.194 -16.45,-0.811c-5.161,-0.505 -6.63,-14.916 8.745,-19.304c-0.265,-0.102 -0.445,-0.246 -0.505,-0.437c-0.772,-2.448 -0.961,-3.865 -0.798,-4.61l-8.735,-3.983c3.842,0.105 7.004,1.052 8.949,3.505c0.914,-1.069 3.887,1.96 4.43,2.096c3.176,0.795 3.652,1.646 2.93,2.324c1.281,-0.108 2.64,-0.16 4.081,-0.151c-0.372,-0.631 0.327,-1.377 3.132,-2.08c0.588,-0.147 4.03,-3.69 4.614,-1.737c2.563,-2.469 5.618,-3.846 9.21,-4.029l-9.172,4.183c0.146,0.738 -0.037,2.104 -0.758,4.422c15.805,3.703 17.43,19.801 11.838,19.801c-4.719,0 -10.2,0.572 -17.384,0.755c4.15,0.298 8.249,1.703 11.566,4.598c1.526,1.332 3.008,3.403 4.221,5.776c0.395,-1.425 0.871,-2.674 1.207,-2.94l2.983,-5.576c2.895,-9.386 6.689,-26.257 8.356,-29.177c0.809,-0.639 14.329,-6.342 14.329,-6.342l-12.488,9.146c-1.33,2.674 -1.841,9.551 -1.841,9.551c0,0 -3.862,11.062 -5.781,16.822l-3.647,14.929c-0.189,0.149 -0.409,0.322 -0.644,0.488c0.281,1.343 0.432,2.659 0.418,3.884c-0.06,5.648 -1.723,11.347 -4.145,16.369c0.401,-0.009 19.128,0.891 19.128,0.891l17.247,7.259c1.027,0.076 21.927,1.211 21.851,2.238l33.854,14.442l-37.137,-12.841c-0.076,1.027 -19.589,0.076 -20.616,0l-15.199,-5.069l-14.451,0c-1.027,-0.076 -5.78,-2.458 -5.703,-3.485c0,0 -0.874,-3.858 1.66,8.149c0.664,-0.663 1.984,0.349 2.766,0.967l15.391,9.353l9.259,17.098c0.808,0.638 2.973,16.548 2.335,17.356l21.129,30.6l-25.88,-29.455c-0.639,0.808 -0.623,-15.83 -1.431,-16.468l-7.289,-14.886l-14.435,-5.92c-0.094,-0.074 0.701,6.141 1.349,10.342c2.48,16.102 -5.352,35.572 -18.021,35.574c-16.04,0.002 -22.902,-21.874 -21.749,-35.574c0.244,-2.896 0.726,-7.436 0.954,-9.524c0.069,-0.633 0.114,-1.041 0.123,-1.108c-0.107,0.129 -14.716,6.21 -14.716,6.21l-7.289,14.886c-0.808,0.638 -0.792,17.276 -1.43,16.468l-25.881,29.455l21.13,-30.6c-0.639,-0.808 1.526,-16.718 2.335,-17.356l9.258,-17.098l15.392,-9.353c0.743,-0.588 1.974,-1.532 2.663,-1.052c1.471,-5.724 2.548,-8.263 2.548,-8.263c-0.335,-0.103 -17.128,5.512 -16.532,7.152l-24.547,-3.515c-0.397,0.029 -14.631,-2.096 -14.631,-2.096l-28.937,-1.541l27.462,-1.196c-0.076,-1.027 17.551,1.273 18.579,1.196l19.406,2.434l15.833,-9.012c-1.842,-4.409 -2.73,-8.978 -1.87,-13.027c0.319,-1.503 0.585,-3.296 0.894,-5.153Z" style="fill:#000bff;stroke:#000;stroke-width:0.83px;"/><path d="M108.498,314.975c3.347,12.872 9.205,20.607 19.219,20.708c10.015,0.101 18.145,-9.178 18.145,-20.708c-5.211,1.543 -11.547,2.775 -18.145,2.709c-6.597,-0.067 -14.008,-1.06 -19.219,-2.709Z" style="stroke:#000;stroke-width:0.83px;"/><path d="M105.353,254.193c-1.519,-14.326 14.126,-23.09 21.862,-21.897c10.098,1.558 19.228,10.815 18.532,22.832c11.904,1.337 34.805,-7.769 54.746,-11.688c22.673,-4.457 44.503,-0.418 49.596,19.107c3.44,13.189 -18.796,22.409 -45.727,27.505c-20.982,3.97 -31.388,0.377 -38.58,-7.551c-1.71,-1.886 -1.218,-7.14 -3.153,-9.639c-1.318,-1.702 -5.444,-5.127 -8.688,-7.726c-1.318,-1.056 -11.025,1.961 -11.025,1.349c0,-0.3 -1.547,1.592 -2.475,2.937c-11.071,16.063 -16.05,13.442 -27.612,0c-2.023,-2.352 -5.144,-4.533 -5.144,-3.809c0,0.612 -9.707,-2.405 -11.025,-1.349c-3.243,2.599 -7.369,6.024 -8.687,7.726c-1.935,2.499 -1.443,7.753 -3.153,9.639c-7.192,7.928 -17.598,11.521 -38.58,7.551c-26.932,-5.096 -49.168,-14.316 -45.727,-27.504c5.093,-19.526 26.922,-23.565 49.596,-19.108c20.222,3.975 43.49,13.283 55.244,11.625Z" style="fill:#000bff;fill-opacity:0.247059;"/><path d="M128.115,232.554c4.637,0.529 10.354,1.878 13.807,5.096c7.361,6.859 8.993,20.791 0,33.289c-11.558,16.063 -17.649,13.57 -29.583,0c-11.36,-12.917 -8.673,-26.726 -1.838,-33.289c5.022,-4.823 13.367,-5.581 17.614,-5.096Z" style="fill:#000bff;stroke:#000;stroke-width:0.83px;"/><path d="M107.994,307.091c-0.018,1.098 8.614,2.134 19.266,2.313c10.651,0.179 19.313,-0.568 19.331,-1.665c-4.508,0.254 -11.61,0.402 -19.308,0.273c-7.699,-0.129 -14.791,-0.516 -19.289,-0.921Z" style="stroke:#000;stroke-width:0.83px;"/><path d="M107.862,299.077c-0.009,0.533 8.631,1.111 19.282,1.29c10.651,0.179 19.306,-0.109 19.315,-0.643c-4.506,0.085 -11.605,0.096 -19.303,-0.034c-7.699,-0.129 -14.794,-0.378 -19.294,-0.613Z" style="stroke:#000;stroke-width:0.83px;"/><path d="M116.007,264.554l5.446,20.318" style="fill:none;stroke:#000;stroke-width:0.83px;"/><path d="M135.711,264.554l-5.445,20.318" style="fill:none;stroke:#000;stroke-width:0.83px;"/><path d="M159.276,260.634c0,0 17.619,-2.077 32.546,-3.693c8.821,-0.955 17.529,0 22.536,0c10.468,0 28.255,1.807 28.255,1.807" style="fill:none;stroke:#000;stroke-width:0.83px;"/><path d="M159.72,260.281c0,0 28.161,-9.378 38.956,-11.771c10.49,-2.325 25.664,-4.202 25.423,-4.174" style="fill:none;stroke:#000;stroke-width:0.83px;"/><path d="M161.111,265.901c0,0 18.562,5.127 28.73,9.462c7.944,3.386 14.553,11.485 14.553,11.485" style="fill:none;stroke:#000;stroke-width:0.83px;"/><path d="M158.923,260.9c0,0 1.996,0.792 10.29,2.286c2.552,0.46 12.272,3.445 22.962,4.403c2.968,0.266 17.744,-0.589 30.288,0c6.352,0.299 12.102,2.289 15.517,2.289" style="fill:none;stroke:#000;stroke-width:0.83px;"/><path d="M191.854,267.788l0.106,8.698" style="fill:none;stroke:#000;stroke-width:0.83px;"/><path d="M175.808,259.456l0.06,4.913" style="fill:none;stroke:#000;stroke-width:0.83px;"/><path d="M86.997,259.881c0,0 -17.619,-2.077 -32.545,-3.693c-8.821,-0.955 -17.529,0 -22.537,0c-10.467,0 -28.254,1.808 -28.254,1.808" style="fill:none;stroke:#000;stroke-width:0.83px;"/><path d="M86.554,259.529c0,0 -28.161,-9.379 -38.956,-11.772c-10.491,-2.325 -25.664,-4.202 -25.423,-4.174" style="fill:none;stroke:#000;stroke-width:0.83px;"/><path d="M85.163,265.148c0,0 -18.562,5.127 -28.731,9.462c-7.943,3.386 -14.553,11.486 -14.553,11.486" style="fill:none;stroke:#000;stroke-width:0.83px;"/><path d="M148.514,255.767c-0.094,0.848 54.757,-12.632 59.058,-13.425c12.14,-2.241 19.011,-0.958 28.009,3.518c9.599,4.775 14.949,10.897 14.778,21.421c-0.099,6.124 -10.331,14.078 -26.512,18.178c-10.804,2.737 -31.429,9.756 -46.98,4.457c-4.125,-1.405 -8.247,-3.651 -10.695,-7.291c-1.35,-2.008 -1.368,-4.843 -2.534,-7.245c-1.091,-2.248 -7.744,-9.597 -9.682,-10.317c-4.298,-1.597 -8.611,1.48 -9.059,1.126" style="fill:none;stroke:#000;stroke-width:1.04px;"/><path d="M104.514,254.605c0,0 -10.031,-0.58 -13.665,-1.498c-13.459,-3.398 -45.47,-11.427 -48.825,-11.765c-12.288,-1.239 -18.543,-0.778 -27.541,3.698c-9.6,4.775 -14.128,10.341 -13.958,20.865c0.1,6.124 9.478,12.867 25.224,18.554c15.397,5.561 34.111,6.755 41.106,5.973c0.429,-0.048 10.691,-1.553 15.756,-5.973c3.57,-3.115 3.318,-6.722 4.598,-10.231c1.607,-4.403 3.858,-5.612 7.037,-8.323c3.817,-3.256 14.213,0.071 14.303,0" style="fill:none;stroke:#000;stroke-width:1.04px;"/><path d="M87.35,260.147c0,0 -1.996,0.793 -10.29,2.286c-2.552,0.46 -12.272,3.446 -22.961,4.404c-2.968,0.266 -17.744,-0.59 -30.288,0c-6.353,0.298 -12.102,2.289 -15.518,2.289" style="fill:none;stroke:#000;stroke-width:0.83px;"/><path d="M54.42,267.035l-0.106,8.698" style="fill:none;stroke:#000;stroke-width:0.83px;"/><path d="M70.465,258.704l-0.06,4.912" style="fill:none;stroke:#000;stroke-width:0.83px;"/><path d="M133.398,257.602l-5.445,20.318" style="fill:none;stroke:#000;stroke-width:0.83px;"/><path d="M118.911,257.602l5.445,20.318" style="fill:none;stroke:#000;stroke-width:0.83px;"/><path d="M115.711,214.507c-5.138,-2.099 -10.915,0.127 -12.893,4.968c-1.978,4.841 0.588,10.476 5.726,12.575c2.18,-1.668 4.52,-4.417 5.911,-7.821c1.39,-3.403 1.645,-7.004 1.256,-9.722Z" style="fill:#ff3700;stroke:#000;stroke-width:1.04px;"/><path d="M138.032,214.507c5.138,-2.099 10.915,0.127 12.893,4.968c1.978,4.841 -0.588,10.476 -5.726,12.575c-2.18,-1.668 -4.52,-4.417 -5.911,-7.821c-1.39,-3.403 -1.645,-7.004 -1.256,-9.722Z" style="fill:#ff3700;stroke:#000;stroke-width:1.04px;"/></g><g><path d="M107.747,445.617c-0.648,-0.145 -1.415,-0.737 -1.939,-1.151l-3.646,-14.929c-1.92,-5.759 -5.782,-16.822 -5.782,-16.822c0,0 -0.511,-6.877 -1.84,-9.551l-12.488,-9.145c0,0 13.52,5.703 14.328,6.341c1.667,2.92 5.461,19.792 8.356,29.177l2.983,5.576c0.418,0.331 1.052,2.181 1.478,4.001c0.68,-2.085 1.603,-3.861 2.953,-4.905c3.1,-2.396 7.495,-4.095 12.134,-4.542c-4.731,0.006 -10.146,-0.194 -16.45,-0.811c-5.161,-0.505 -6.63,-14.916 8.745,-19.304c-0.265,-0.102 -0.445,-0.246 -0.505,-0.437c-0.772,-2.448 -0.961,-3.865 -0.798,-4.61l-8.735,-3.983c3.842,0.105 7.004,1.052 8.949,3.505c0.914,-1.069 3.887,1.96 4.43,2.096c3.176,0.795 3.652,1.646 2.93,2.324c1.281,-0.108 2.64,-0.16 4.081,-0.151c-0.372,-0.631 0.327,-1.377 3.132,-2.08c0.588,-0.147 4.03,-3.69 4.614,-1.737c2.563,-2.469 5.618,-3.846 9.21,-4.029l-9.172,4.183c0.146,0.738 -0.037,2.104 -0.758,4.422c15.805,3.703 17.43,19.801 11.838,19.801c-4.719,0 -10.2,0.572 -17.384,0.755c4.15,0.298 8.249,1.703 11.566,4.598c1.526,1.332 3.008,3.403 4.221,5.776c0.395,-1.425 0.871,-2.674 1.207,-2.94l2.983,-5.576c2.895,-9.386 6.689,-26.257 8.356,-29.177c0.809,-0.639 14.329,-6.342 14.329,-6.342l-12.488,9.146c-1.33,2.674 -1.841,9.551 -1.841,9.551c0,0 -3.862,11.062 -5.781,16.822l-3.647,14.929c-0.189,0.149 -0.409,0.322 -0.644,0.488c0.281,1.343 0.432,2.659 0.418,3.884c-0.06,5.648 -1.723,11.347 -4.145,16.369c0.401,-0.009 19.128,0.891 19.128,0.891l17.247,7.259c1.027,0.076 21.927,1.211 21.851,2.238l33.854,14.442l-37.137,-12.841c-0.076,1.027 -19.589,0.076 -20.616,0l-15.199,-5.069l-14.451,0c-1.027,-0.076 -5.78,-2.458 -5.703,-3.485c0,0 -0.874,-3.858 1.66,8.15c0.664,-0.664 1.984,0.348 2.766,0.966l15.391,9.353l9.259,17.098c0.808,0.638 2.973,16.548 2.335,17.356l21.129,30.6l-25.88,-29.455c-0.639,0.808 -0.623,-15.83 -1.431,-16.468l-7.289,-14.886l-14.435,-5.92c-0.094,-0.074 0.701,6.141 1.349,10.342c2.48,16.102 -5.352,35.572 -18.021,35.574c-16.04,0.002 -22.902,-21.874 -21.749,-35.574c0.244,-2.896 0.726,-7.436 0.954,-9.524c0.069,-0.633 0.114,-1.041 0.123,-1.108c-0.107,0.129 -14.716,6.21 -14.716,6.21l-7.289,14.886c-0.808,0.638 -0.792,17.276 -1.43,16.468l-25.881,29.455l21.13,-30.6c-0.639,-0.808 1.526,-16.718 2.335,-17.356l9.258,-17.098l15.392,-9.353c0.743,-0.588 1.974,-1.532 2.663,-1.052c1.471,-5.724 2.548,-8.263 2.548,-8.263c-0.335,-0.103 -17.128,5.513 -16.532,7.152l-24.547,-3.515c-0.397,0.029 -14.631,-2.096 -14.631,-2.096l-28.937,-1.541l27.462,-1.196c-0.076,-1.027 17.551,1.273 18.579,1.196l19.406,2.434l15.833,-9.011c-1.842,-4.41 -2.73,-8.979 -1.87,-13.028c0.319,-1.503 0.585,-3.296 0.894,-5.153Z" style="fill:#ff9bf9;stroke:#000;stroke-width:0.83px;"/><path d="M108.498,511.776c3.347,12.873 9.205,20.607 19.219,20.708c10.015,0.101 18.145,-9.178 18.145,-20.708c-5.211,1.543 -11.547,2.775 -18.145,2.709c-6.597,-0.067 -14.008,-1.06 -19.219,-2.709Z" style="stroke:#000;stroke-width:0.83px;"/><path d="M105.353,450.994c-1.519,-14.326 14.126,-23.09 21.862,-21.897c10.098,1.558 19.228,10.815 18.532,22.832c11.904,1.337 34.805,-7.769 54.746,-11.688c22.673,-4.457 44.503,-0.418 49.596,19.108c3.44,13.188 -18.796,22.408 -45.727,27.504c-20.982,3.97 -31.388,0.377 -38.58,-7.551c-1.71,-1.886 -1.218,-7.14 -3.153,-9.639c-1.318,-1.702 -5.444,-5.127 -8.688,-7.726c-1.318,-1.056 -11.025,1.961 -11.025,1.349c0,-0.3 -1.547,1.592 -2.475,2.937c-11.071,16.063 -16.05,13.442 -27.612,0c-2.023,-2.352 -5.144,-4.533 -5.144,-3.809c0,0.612 -9.707,-2.405 -11.025,-1.349c-3.243,2.599 -7.369,6.024 -8.687,7.726c-1.935,2.499 -1.443,7.753 -3.153,9.639c-7.192,7.928 -17.598,11.521 -38.58,7.551c-26.932,-5.096 -49.168,-14.316 -45.727,-27.504c5.093,-19.526 26.922,-23.565 49.596,-19.108c20.222,3.975 43.49,13.283 55.244,11.625Z" style="fill:#ff9bf9;fill-opacity:0.25098;"/><path d="M128.115,429.355c4.637,0.529 10.354,1.878 13.807,5.096c7.361,6.859 8.993,20.791 0,33.29c-11.558,16.062 -17.649,13.569 -29.583,0c-11.36,-12.918 -8.673,-26.727 -1.838,-33.29c5.022,-4.823 13.367,-5.581 17.614,-5.096Z" style="fill:#ff9bf9;stroke:#000;stroke-width:0.83px;"/><path d="M107.994,503.892c-0.018,1.098 8.614,2.134 19.266,2.313c10.651,0.179 19.313,-0.568 19.331,-1.665c-4.508,0.254 -11.61,0.402 -19.308,0.273c-7.699,-0.129 -14.791,-0.516 -19.289,-0.921Z" style="stroke:#000;stroke-width:0.83px;"/><path d="M107.862,495.878c-0.009,0.533 8.631,1.111 19.282,1.29c10.651,0.179 19.306,-0.109 19.315,-0.643c-4.506,0.085 -11.605,0.096 -19.303,-0.034c-7.699,-0.129 -14.794,-0.378 -19.294,-0.613Z" style="stroke:#000;stroke-width:0.83px;"/><path d="M116.007,461.355l5.446,20.318" style="fill:none;stroke:#000;stroke-width:0.83px;"/><path d="M135.711,461.355l-5.445,20.318" style="fill:none;stroke:#000;stroke-width:0.83px;"/><path d="M159.276,457.435c0,0 17.619,-2.077 32.546,-3.693c8.821,-0.955 17.529,0 22.536,0c10.468,0 28.255,1.807 28.255,1.807" style="fill:none;stroke:#000;stroke-width:0.83px;"/><path d="M159.72,457.082c0,0 28.161,-9.378 38.956,-11.771c10.49,-2.325 25.664,-4.202 25.423,-4.174" style="fill:none;stroke:#000;stroke-width:0.83px;"/><path d="M161.111,462.702c0,0 18.562,5.127 28.73,9.462c7.944,3.386 14.553,11.485 14.553,11.485" style="fill:none;stroke:#000;stroke-width:0.83px;"/><path d="M158.923,457.701c0,0 1.996,0.792 10.29,2.286c2.552,0.46 12.272,3.445 22.962,4.403c2.968,0.266 17.744,-0.589 30.288,0c6.352,0.299 12.102,2.289 15.517,2.289" style="fill:none;stroke:#000;stroke-width:0.83px;"/><path d="M191.854,464.589l0.106,8.698" style="fill:none;stroke:#000;stroke-width:0.83px;"/><path d="M175.808,456.257l0.06,4.913" style="fill:none;stroke:#000;stroke-width:0.83px;"/><path d="M86.997,456.682c0,0 -17.619,-2.077 -32.545,-3.693c-8.821,-0.955 -17.529,0 -22.537,0c-10.467,0 -28.254,1.808 -28.254,1.808" style="fill:none;stroke:#000;stroke-width:0.83px;"/><path d="M86.554,456.33c0,0 -28.161,-9.379 -38.956,-11.772c-10.491,-2.325 -25.664,-4.202 -25.423,-4.173" style="fill:none;stroke:#000;stroke-width:0.83px;"/><path d="M85.163,461.949c0,0 -18.562,5.127 -28.731,9.462c-7.943,3.386 -14.553,11.486 -14.553,11.486" style="fill:none;stroke:#000;stroke-width:0.83px;"/><path d="M148.514,452.568c-0.094,0.848 54.757,-12.632 59.058,-13.425c12.14,-2.241 19.011,-0.958 28.009,3.518c9.599,4.775 14.949,10.897 14.778,21.421c-0.099,6.124 -10.331,14.078 -26.512,18.178c-10.804,2.737 -31.429,9.756 -46.98,4.457c-4.125,-1.405 -8.247,-3.651 -10.695,-7.291c-1.35,-2.008 -1.368,-4.843 -2.534,-7.245c-1.091,-2.248 -7.744,-9.597 -9.682,-10.317c-4.298,-1.597 -8.611,1.48 -9.059,1.126" style="fill:none;stroke:#000;stroke-width:1.04px;"/><path d="M104.514,451.406c0,0 -10.031,-0.58 -13.665,-1.498c-13.459,-3.398 -45.47,-11.427 -48.825,-11.765c-12.288,-1.239 -18.543,-0.778 -27.541,3.698c-9.6,4.775 -14.128,10.341 -13.958,20.865c0.1,6.124 9.478,12.867 25.224,18.554c15.397,5.561 34.111,6.755 41.106,5.973c0.429,-0.048 10.691,-1.553 15.756,-5.973c3.57,-3.115 3.318,-6.722 4.598,-10.231c1.607,-4.403 3.858,-5.612 7.037,-8.323c3.817,-3.256 14.213,0.071 14.303,0" style="fill:none;stroke:#000;stroke-width:1.04px;"/><path d="M87.35,456.948c0,0 -1.996,0.793 -10.29,2.286c-2.552,0.46 -12.272,3.446 -22.961,4.404c-2.968,0.266 -17.744,-0.59 -30.288,0c-6.353,0.298 -12.102,2.289 -15.518,2.289" style="fill:none;stroke:#000;stroke-width:0.83px;"/><path d="M54.42,463.836l-0.106,8.698" style="fill:none;stroke:#000;stroke-width:0.83px;"/><path d="M70.465,455.505l-0.06,4.912" style="fill:none;stroke:#000;stroke-width:0.83px;"/><path d="M133.398,454.403l-5.445,20.318" style="fill:none;stroke:#000;stroke-width:0.83px;"/><path d="M118.911,454.403l5.445,20.318" style="fill:none;stroke:#000;stroke-width:0.83px;"/><path d="M115.711,411.308c-5.138,-2.099 -10.915,0.127 -12.893,4.968c-1.978,4.841 0.588,10.476 5.726,12.575c2.18,-1.668 4.52,-4.417 5.911,-7.821c1.39,-3.403 1.645,-7.004 1.256,-9.722Z" style="fill:#ff3700;stroke:#000;stroke-width:1.04px;"/><path d="M138.032,411.308c5.138,-2.099 10.915,0.127 12.893,4.968c1.978,4.841 -0.588,10.476 -5.726,12.575c-2.18,-1.668 -4.52,-4.417 -5.911,-7.821c-1.39,-3.403 -1.645,-7.004 -1.256,-9.722Z" style="fill:#ff3700;stroke:#000;stroke-width:1.04px;"/></g><g><path d="M107.747,52.015c-0.648,-0.145 -1.415,-0.737 -1.939,-1.151l-3.646,-14.929c-1.92,-5.759 -5.782,-16.822 -5.782,-16.822c0,0 -0.511,-6.877 -1.84,-9.551l-12.488,-9.145c0,0 13.52,5.703 14.328,6.341c1.667,2.92 5.461,19.792 8.356,29.177l2.983,5.576c0.418,0.331 1.052,2.181 1.478,4.001c0.68,-2.086 1.603,-3.862 2.953,-4.905c3.1,-2.396 7.495,-4.095 12.134,-4.542c-4.731,0.006 -10.146,-0.194 -16.45,-0.811c-5.161,-0.505 -6.63,-14.916 8.745,-19.305c-0.265,-0.102 -0.445,-0.245 -0.505,-0.436c-0.772,-2.448 -0.961,-3.865 -0.798,-4.611l-8.735,-3.982c3.842,0.105 7.004,1.052 8.949,3.505c0.914,-1.069 3.887,1.96 4.43,2.096c3.176,0.795 3.652,1.646 2.93,2.324c1.281,-0.108 2.64,-0.16 4.081,-0.151c-0.372,-0.631 0.327,-1.377 3.132,-2.08c0.588,-0.147 4.03,-3.69 4.614,-1.737c2.563,-2.469 5.618,-3.846 9.21,-4.029l-9.172,4.183c0.146,0.738 -0.037,2.104 -0.758,4.422c15.805,3.703 17.43,19.801 11.838,19.801c-4.719,0 -10.2,0.572 -17.384,0.755c4.15,0.298 8.249,1.703 11.566,4.598c1.526,1.332 3.008,3.403 4.221,5.776c0.395,-1.425 0.871,-2.674 1.207,-2.94l2.983,-5.576c2.895,-9.386 6.689,-26.257 8.356,-29.177c0.809,-0.639 14.329,-6.342 14.329,-6.342l-12.488,9.146c-1.33,2.674 -1.841,9.551 -1.841,9.551c0,0 -3.862,11.062 -5.781,16.822l-3.647,14.929c-0.189,0.149 -0.409,0.322 -0.644,0.488c0.281,1.343 0.432,2.659 0.418,3.884c-0.06,5.648 -1.723,11.347 -4.145,16.369c0.401,-0.009 19.128,0.891 19.128,0.891l17.247,7.259c1.027,0.076 21.927,1.211 21.851,2.238l33.854,14.442l-37.137,-12.841c-0.076,1.027 -19.589,0.076 -20.616,0l-15.199,-5.069l-14.451,0c-1.027,-0.076 -5.78,-2.458 -5.703,-3.485c0,0 -0.874,-3.858 1.66,8.149c0.664,-0.663 1.984,0.349 2.766,0.966l15.391,9.354l9.259,17.098c0.808,0.638 2.973,16.548 2.335,17.356l21.129,30.6l-25.88,-29.455c-0.639,0.808 -0.623,-15.83 -1.431,-16.468l-7.289,-14.886l-14.435,-5.92c-0.094,-0.074 0.701,6.141 1.349,10.342c2.48,16.102 -5.352,35.572 -18.021,35.574c-16.04,0.002 -22.902,-21.874 -21.749,-35.574c0.244,-2.896 0.726,-7.436 0.954,-9.524c0.069,-0.633 0.114,-1.041 0.123,-1.108c-0.107,0.129 -14.716,6.21 -14.716,6.21l-7.289,14.886c-0.808,0.638 -0.792,17.276 -1.43,16.468l-25.881,29.455l21.13,-30.6c-0.639,-0.808 1.526,-16.718 2.335,-17.356l9.258,-17.098l15.392,-9.354c0.743,-0.587 1.974,-1.531 2.663,-1.051c1.471,-5.724 2.548,-8.263 2.548,-8.263c-0.335,-0.103 -17.128,5.512 -16.532,7.152l-24.547,-3.515c-0.397,0.029 -14.631,-2.096 -14.631,-2.096l-28.937,-1.541l27.462,-1.196c-0.076,-1.027 17.551,1.273 18.579,1.196l19.406,2.434l15.833,-9.012c-1.842,-4.409 -2.73,-8.978 -1.87,-13.027c0.319,-1.503 0.585,-3.296 0.894,-5.153Z" style="fill:#0ef;stroke:#000;stroke-width:0.83px;"/><path d="M108.498,118.174c3.347,12.872 9.205,20.607 19.219,20.708c10.015,0.101 18.145,-9.178 18.145,-20.708c-5.211,1.543 -11.547,2.775 -18.145,2.709c-6.597,-0.067 -14.008,-1.06 -19.219,-2.709Z" style="stroke:#000;stroke-width:0.83px;"/><path d="M105.353,57.392c-1.519,-14.326 14.126,-23.09 21.862,-21.897c10.098,1.558 19.228,10.815 18.532,22.832c11.904,1.337 34.805,-7.769 54.746,-11.688c22.673,-4.457 44.503,-0.418 49.596,19.107c3.44,13.189 -18.796,22.409 -45.727,27.505c-20.982,3.97 -31.388,0.377 -38.58,-7.551c-1.71,-1.886 -1.218,-7.14 -3.153,-9.639c-1.318,-1.702 -5.444,-5.127 -8.688,-7.726c-1.318,-1.056 -11.025,1.961 -11.025,1.349c0,-0.3 -1.547,1.591 -2.475,2.937c-11.071,16.063 -16.05,13.442 -27.612,0c-2.023,-2.352 -5.144,-4.533 -5.144,-3.809c0,0.612 -9.707,-2.405 -11.025,-1.349c-3.243,2.599 -7.369,6.024 -8.687,7.726c-1.935,2.499 -1.443,7.753 -3.153,9.639c-7.192,7.928 -17.598,11.521 -38.58,7.551c-26.932,-5.096 -49.168,-14.316 -45.727,-27.505c5.093,-19.525 26.922,-23.564 49.596,-19.107c20.222,3.975 43.49,13.283 55.244,11.625Z" style="fill:#0ef;fill-opacity:0.25098;"/><path d="M128.115,35.753c4.637,0.529 10.354,1.878 13.807,5.096c7.361,6.859 8.993,20.791 0,33.289c-11.558,16.063 -17.649,13.57 -29.583,0c-11.36,-12.917 -8.673,-26.726 -1.838,-33.289c5.022,-4.823 13.367,-5.581 17.614,-5.096Z" style="fill:#0ef;stroke:#000;stroke-width:0.83px;"/><path d="M107.994,110.29c-0.018,1.098 8.614,2.134 19.266,2.313c10.651,0.179 19.313,-0.568 19.331,-1.665c-4.508,0.254 -11.61,0.402 -19.308,0.273c-7.699,-0.129 -14.791,-0.516 -19.289,-0.921Z" style="stroke:#000;stroke-width:0.83px;"/><path d="M107.862,102.276c-0.009,0.533 8.631,1.111 19.282,1.29c10.651,0.179 19.306,-0.109 19.315,-0.643c-4.506,0.085 -11.605,0.096 -19.303,-0.034c-7.699,-0.129 -14.794,-0.378 -19.294,-0.613Z" style="stroke:#000;stroke-width:0.83px;"/><path d="M116.007,67.753l5.446,20.318" style="fill:none;stroke:#000;stroke-width:0.83px;"/><path d="M135.711,67.753l-5.445,20.318" style="fill:none;stroke:#000;stroke-width:0.83px;"/><path d="M159.276,63.833c0,0 17.619,-2.077 32.546,-3.693c8.821,-0.955 17.529,0 22.536,0c10.468,0 28.255,1.807 28.255,1.807" style="fill:none;stroke:#000;stroke-width:0.83px;"/><path d="M159.72,63.48c0,0 28.161,-9.378 38.956,-11.771c10.49,-2.325 25.664,-4.202 25.423,-4.174" style="fill:none;stroke:#000;stroke-width:0.83px;"/><path d="M161.111,69.1c0,0 18.562,5.127 28.73,9.462c7.944,3.386 14.553,11.485 14.553,11.485" style="fill:none;stroke:#000;stroke-width:0.83px;"/><path d="M158.923,64.099c0,0 1.996,0.792 10.29,2.286c2.552,0.46 12.272,3.445 22.962,4.403c2.968,0.266 17.744,-0.589 30.288,0c6.352,0.299 12.102,2.289 15.517,2.289" style="fill:none;stroke:#000;stroke-width:0.83px;"/><path d="M191.854,70.987l0.106,8.698" style="fill:none;stroke:#000;stroke-width:0.83px;"/><path d="M175.808,62.655l0.06,4.913" style="fill:none;stroke:#000;stroke-width:0.83px;"/><path d="M86.997,63.08c0,0 -17.619,-2.077 -32.545,-3.693c-8.821,-0.955 -17.529,0 -22.537,0c-10.467,0 -28.254,1.808 -28.254,1.808" style="fill:none;stroke:#000;stroke-width:0.83px;"/><path d="M86.554,62.728c0,0 -28.161,-9.379 -38.956,-11.772c-10.491,-2.325 -25.664,-4.202 -25.423,-4.174" style="fill:none;stroke:#000;stroke-width:0.83px;"/><path d="M85.163,68.347c0,0 -18.562,5.127 -28.731,9.462c-7.943,3.386 -14.553,11.486 -14.553,11.486" style="fill:none;stroke:#000;stroke-width:0.83px;"/><path d="M148.514,58.966c-0.094,0.848 54.757,-12.632 59.058,-13.425c12.14,-2.241 19.011,-0.958 28.009,3.518c9.599,4.775 14.949,10.897 14.778,21.421c-0.099,6.124 -10.331,14.078 -26.512,18.178c-10.804,2.737 -31.429,9.756 -46.98,4.457c-4.125,-1.405 -8.247,-3.651 -10.695,-7.291c-1.35,-2.008 -1.368,-4.843 -2.534,-7.245c-1.091,-2.248 -7.744,-9.597 -9.682,-10.317c-4.298,-1.597 -8.611,1.48 -9.059,1.126" style="fill:none;stroke:#000;stroke-width:1.04px;"/><path d="M104.514,57.804c0,0 -10.031,-0.58 -13.665,-1.498c-13.459,-3.398 -45.47,-11.427 -48.825,-11.765c-12.288,-1.239 -18.543,-0.778 -27.541,3.698c-9.6,4.775 -14.128,10.341 -13.958,20.865c0.1,6.124 9.478,12.867 25.224,18.554c15.397,5.561 34.111,6.755 41.106,5.973c0.429,-0.048 10.691,-1.553 15.756,-5.973c3.57,-3.115 3.318,-6.723 4.598,-10.231c1.607,-4.403 3.858,-5.612 7.037,-8.323c3.817,-3.256 14.213,0.071 14.303,0" style="fill:none;stroke:#000;stroke-width:1.04px;"/><path d="M87.35,63.346c0,0 -1.996,0.793 -10.29,2.286c-2.552,0.46 -12.272,3.445 -22.961,4.404c-2.968,0.266 -17.744,-0.59 -30.288,0c-6.353,0.298 -12.102,2.289 -15.518,2.289" style="fill:none;stroke:#000;stroke-width:0.83px;"/><path d="M54.42,70.234l-0.106,8.698" style="fill:none;stroke:#000;stroke-width:0.83px;"/><path d="M70.465,61.903l-0.06,4.912" style="fill:none;stroke:#000;stroke-width:0.83px;"/><path d="M133.398,60.801l-5.445,20.318" style="fill:#0ef;stroke:#000;stroke-width:0.83px;"/><path d="M118.911,60.801l5.445,20.318" style="fill:none;stroke:#000;stroke-width:0.83px;"/><path d="M115.711,17.706c-5.138,-2.099 -10.915,0.127 -12.893,4.968c-1.978,4.841 0.588,10.476 5.726,12.575c2.18,-1.668 4.52,-4.417 5.911,-7.821c1.39,-3.403 1.645,-7.004 1.256,-9.722Z" style="fill:#ff3700;stroke:#000;stroke-width:1.04px;"/><path d="M138.032,17.706c5.138,-2.099 10.915,0.127 12.893,4.968c1.978,4.841 -0.588,10.476 -5.726,12.575c-2.18,-1.668 -4.52,-4.417 -5.911,-7.821c-1.39,-3.403 -1.645,-7.004 -1.256,-9.722Z" style="fill:#ff3700;stroke:#000;stroke-width:1.04px;"/></g><g><path d="M107.747,642.418c-0.648,-0.145 -1.415,-0.737 -1.939,-1.151l-3.646,-14.929c-1.92,-5.759 -5.782,-16.822 -5.782,-16.822c0,0 -0.511,-6.877 -1.84,-9.551l-12.488,-9.145c0,0 13.52,5.703 14.328,6.341c1.667,2.92 5.461,19.792 8.356,29.177l2.983,5.576c0.418,0.331 1.052,2.181 1.478,4.001c0.68,-2.085 1.603,-3.861 2.953,-4.905c3.1,-2.396 7.495,-4.094 12.134,-4.542c-4.731,0.006 -10.146,-0.194 -16.45,-0.811c-5.161,-0.505 -6.63,-14.916 8.745,-19.304c-0.265,-0.102 -0.445,-0.246 -0.505,-0.437c-0.772,-2.448 -0.961,-3.865 -0.798,-4.61l-8.735,-3.983c3.842,0.105 7.004,1.052 8.949,3.505c0.914,-1.069 3.887,1.96 4.43,2.096c3.176,0.795 3.652,1.646 2.93,2.324c1.281,-0.107 2.64,-0.16 4.081,-0.151c-0.372,-0.631 0.327,-1.377 3.132,-2.08c0.588,-0.147 4.03,-3.69 4.614,-1.737c2.563,-2.468 5.618,-3.846 9.21,-4.029l-9.172,4.183c0.146,0.738 -0.037,2.104 -0.758,4.422c15.805,3.703 17.43,19.801 11.838,19.801c-4.719,0 -10.2,0.572 -17.384,0.755c4.15,0.298 8.249,1.703 11.566,4.598c1.526,1.332 3.008,3.403 4.221,5.776c0.395,-1.425 0.871,-2.674 1.207,-2.94l2.983,-5.576c2.895,-9.386 6.689,-26.257 8.356,-29.177c0.809,-0.639 14.329,-6.341 14.329,-6.341l-12.488,9.145c-1.33,2.674 -1.841,9.551 -1.841,9.551c0,0 -3.862,11.062 -5.781,16.822l-3.647,14.929c-0.189,0.149 -0.409,0.322 -0.644,0.488c0.281,1.343 0.432,2.659 0.418,3.884c-0.06,5.648 -1.723,11.347 -4.145,16.369c0.401,-0.009 19.128,0.891 19.128,0.891l17.247,7.259c1.027,0.076 21.927,1.211 21.851,2.238l33.854,14.442l-37.137,-12.841c-0.076,1.027 -19.589,0.076 -20.616,0l-15.199,-5.069l-14.451,0c-1.027,-0.076 -5.78,-2.458 -5.703,-3.485c0,0 -0.874,-3.858 1.66,8.15c0.664,-0.664 1.984,0.348 2.766,0.966l15.391,9.353l9.259,17.098c0.808,0.638 2.973,16.548 2.335,17.356l21.129,30.6l-25.88,-29.455c-0.639,0.808 -0.623,-15.83 -1.431,-16.468l-7.289,-14.886l-14.435,-5.92c-0.094,-0.074 0.701,6.141 1.349,10.342c2.48,16.102 -5.352,35.573 -18.021,35.574c-16.04,0.002 -22.902,-21.874 -21.749,-35.574c0.244,-2.896 0.726,-7.436 0.954,-9.524c0.069,-0.633 0.114,-1.041 0.123,-1.108c-0.107,0.129 -14.716,6.21 -14.716,6.21l-7.289,14.886c-0.808,0.638 -0.792,17.276 -1.43,16.468l-25.881,29.455l21.13,-30.6c-0.639,-0.808 1.526,-16.718 2.335,-17.356l9.258,-17.098l15.392,-9.353c0.743,-0.588 1.974,-1.532 2.663,-1.052c1.471,-5.724 2.548,-8.263 2.548,-8.263c-0.335,-0.103 -17.128,5.513 -16.532,7.152l-24.547,-3.515c-0.397,0.029 -14.631,-2.096 -14.631,-2.096l-28.937,-1.541l27.462,-1.196c-0.076,-1.027 17.551,1.273 18.579,1.196l19.406,2.434l15.833,-9.011c-1.842,-4.41 -2.73,-8.979 -1.87,-13.028c0.319,-1.503 0.585,-3.296 0.894,-5.153Z" style="fill:#00ff01;stroke:#000;stroke-width:0.83px;"/><path d="M108.498,708.577c3.347,12.873 9.205,20.607 19.219,20.708c10.015,0.101 18.145,-9.178 18.145,-20.708c-5.211,1.543 -11.547,2.775 -18.145,2.709c-6.597,-0.067 -14.008,-1.06 -19.219,-2.709Z" style="stroke:#000;stroke-width:0.83px;"/><path d="M105.353,647.795c-1.519,-14.326 14.126,-23.09 21.862,-21.896c10.098,1.557 19.228,10.814 18.532,22.831c11.904,1.337 34.805,-7.769 54.746,-11.688c22.673,-4.457 44.503,-0.418 49.596,19.108c3.44,13.188 -18.796,22.408 -45.727,27.504c-20.982,3.97 -31.388,0.377 -38.58,-7.551c-1.71,-1.886 -1.218,-7.14 -3.153,-9.639c-1.318,-1.702 -5.444,-5.127 -8.688,-7.726c-1.318,-1.056 -11.025,1.961 -11.025,1.349c0,-0.3 -1.547,1.592 -2.475,2.937c-11.071,16.063 -16.05,13.442 -27.612,0c-2.023,-2.352 -5.144,-4.533 -5.144,-3.809c0,0.612 -9.707,-2.405 -11.025,-1.349c-3.243,2.599 -7.369,6.024 -8.687,7.726c-1.935,2.499 -1.443,7.753 -3.153,9.639c-7.192,7.928 -17.598,11.521 -38.58,7.551c-26.932,-5.096 -49.168,-14.316 -45.727,-27.504c5.093,-19.526 26.922,-23.565 49.596,-19.108c20.222,3.975 43.49,13.283 55.244,11.625Z" style="fill:#00ff01;fill-opacity:0.25098;"/><path d="M128.115,626.156c4.637,0.529 10.354,1.878 13.807,5.096c7.361,6.859 8.993,20.791 0,33.29c-11.558,16.063 -17.649,13.569 -29.583,0c-11.36,-12.918 -8.673,-26.727 -1.838,-33.29c5.022,-4.822 13.367,-5.581 17.614,-5.096Z" style="fill:#00ff01;stroke:#000;stroke-width:0.83px;"/><path d="M107.994,700.693c-0.018,1.098 8.614,2.134 19.266,2.313c10.651,0.179 19.313,-0.567 19.331,-1.665c-4.508,0.254 -11.61,0.402 -19.308,0.273c-7.699,-0.129 -14.791,-0.516 -19.289,-0.921Z" style="stroke:#000;stroke-width:0.83px;"/><path d="M107.862,692.679c-0.009,0.533 8.631,1.111 19.282,1.29c10.651,0.179 19.306,-0.109 19.315,-0.643c-4.506,0.085 -11.605,0.096 -19.303,-0.033c-7.699,-0.13 -14.794,-0.379 -19.294,-0.614Z" style="stroke:#000;stroke-width:0.83px;"/><path d="M116.007,658.156l5.446,20.318" style="fill:none;stroke:#000;stroke-width:0.83px;"/><path d="M135.711,658.156l-5.445,20.318" style="fill:none;stroke:#000;stroke-width:0.83px;"/><path d="M159.276,654.236c0,0 17.619,-2.077 32.546,-3.693c8.821,-0.955 17.529,0 22.536,0c10.468,0 28.255,1.807 28.255,1.807" style="fill:none;stroke:#000;stroke-width:0.83px;"/><path d="M159.72,653.883c0,0 28.161,-9.378 38.956,-11.771c10.49,-2.325 25.664,-4.202 25.423,-4.174" style="fill:none;stroke:#000;stroke-width:0.83px;"/><path d="M161.111,659.503c0,0 18.562,5.127 28.73,9.462c7.944,3.386 14.553,11.485 14.553,11.485" style="fill:none;stroke:#000;stroke-width:0.83px;"/><path d="M158.923,654.502c0,0 1.996,0.792 10.29,2.286c2.552,0.46 12.272,3.445 22.962,4.403c2.968,0.266 17.744,-0.589 30.288,0c6.352,0.299 12.102,2.29 15.517,2.29" style="fill:none;stroke:#000;stroke-width:0.83px;"/><path d="M191.854,661.39l0.106,8.698" style="fill:none;stroke:#000;stroke-width:0.83px;"/><path d="M175.808,653.058l0.06,4.913" style="fill:none;stroke:#000;stroke-width:0.83px;"/><path d="M86.997,653.483c0,0 -17.619,-2.077 -32.545,-3.693c-8.821,-0.955 -17.529,0 -22.537,0c-10.467,0 -28.254,1.808 -28.254,1.808" style="fill:none;stroke:#000;stroke-width:0.83px;"/><path d="M86.554,653.131c0,0 -28.161,-9.379 -38.956,-11.772c-10.491,-2.325 -25.664,-4.202 -25.423,-4.173" style="fill:none;stroke:#000;stroke-width:0.83px;"/><path d="M85.163,658.75c0,0 -18.562,5.127 -28.731,9.462c-7.943,3.386 -14.553,11.486 -14.553,11.486" style="fill:none;stroke:#000;stroke-width:0.83px;"/><path d="M148.514,649.369c-0.094,0.848 54.757,-12.631 59.058,-13.425c12.14,-2.241 19.011,-0.958 28.009,3.518c9.599,4.775 14.949,10.897 14.778,21.421c-0.099,6.124 -10.331,14.078 -26.512,18.178c-10.804,2.737 -31.429,9.756 -46.98,4.457c-4.125,-1.405 -8.247,-3.651 -10.695,-7.291c-1.35,-2.008 -1.368,-4.842 -2.534,-7.245c-1.091,-2.248 -7.744,-9.597 -9.682,-10.317c-4.298,-1.597 -8.611,1.48 -9.059,1.126" style="fill:none;stroke:#000;stroke-width:1.04px;"/><path d="M104.514,648.207c0,0 -10.031,-0.58 -13.665,-1.498c-13.459,-3.398 -45.47,-11.427 -48.825,-11.765c-12.288,-1.239 -18.543,-0.778 -27.541,3.698c-9.6,4.775 -14.128,10.341 -13.958,20.865c0.1,6.124 9.478,12.867 25.224,18.554c15.397,5.561 34.111,6.755 41.106,5.973c0.429,-0.048 10.691,-1.553 15.756,-5.973c3.57,-3.115 3.318,-6.722 4.598,-10.231c1.607,-4.403 3.858,-5.612 7.037,-8.323c3.817,-3.256 14.213,0.071 14.303,0" style="fill:none;stroke:#000;stroke-width:1.04px;"/><path d="M87.35,653.749c0,0 -1.996,0.793 -10.29,2.286c-2.552,0.46 -12.272,3.446 -22.961,4.404c-2.968,0.266 -17.744,-0.59 -30.288,0c-6.353,0.298 -12.102,2.289 -15.518,2.289" style="fill:none;stroke:#000;stroke-width:0.83px;"/><path d="M54.42,660.637l-0.106,8.698" style="fill:none;stroke:#000;stroke-width:0.83px;"/><path d="M70.465,652.306l-0.06,4.912" style="fill:none;stroke:#000;stroke-width:0.83px;"/><path d="M133.398,651.204l-5.445,20.318" style="fill:none;stroke:#000;stroke-width:0.83px;"/><path d="M118.911,651.204l5.445,20.318" style="fill:none;stroke:#000;stroke-width:0.83px;"/><path d="M115.711,608.109c-5.138,-2.099 -10.915,0.127 -12.893,4.968c-1.978,4.841 0.588,10.476 5.726,12.575c2.18,-1.668 4.52,-4.417 5.911,-7.821c1.39,-3.403 1.645,-7.004 1.256,-9.722Z" style="fill:#ff3700;stroke:#000;stroke-width:1.04px;"/><path d="M138.032,608.109c5.138,-2.099 10.915,0.127 12.893,4.968c1.978,4.841 -0.588,10.476 -5.726,12.575c-2.18,-1.668 -4.52,-4.417 -5.911,-7.821c-1.39,-3.403 -1.645,-7.004 -1.256,-9.722Z" style="fill:#ff3700;stroke:#000;stroke-width:1.04px;"/></g><g><path d="M107.747,1036.02c-0.648,-0.145 -1.415,-0.737 -1.939,-1.151l-3.646,-14.929c-1.92,-5.759 -5.782,-16.822 -5.782,-16.822c0,0 -0.511,-6.877 -1.84,-9.551l-12.488,-9.145c0,0 13.52,5.703 14.328,6.341c1.667,2.92 5.461,19.792 8.356,29.177l2.983,5.576c0.418,0.331 1.052,2.181 1.478,4.001c0.68,-2.085 1.603,-3.861 2.953,-4.905c3.1,-2.396 7.495,-4.094 12.134,-4.542c-4.731,0.006 -10.146,-0.194 -16.45,-0.811c-5.161,-0.505 -6.63,-14.916 8.745,-19.304c-0.265,-0.102 -0.445,-0.246 -0.505,-0.437c-0.772,-2.448 -0.961,-3.864 -0.798,-4.61l-8.735,-3.983c3.842,0.105 7.004,1.052 8.949,3.505c0.914,-1.069 3.887,1.96 4.43,2.096c3.176,0.795 3.652,1.646 2.93,2.324c1.281,-0.107 2.64,-0.16 4.081,-0.151c-0.372,-0.631 0.327,-1.377 3.132,-2.079c0.588,-0.148 4.03,-3.691 4.614,-1.738c2.563,-2.468 5.618,-3.846 9.21,-4.029l-9.172,4.183c0.146,0.738 -0.037,2.104 -0.758,4.422c15.805,3.703 17.43,19.801 11.838,19.801c-4.719,0 -10.2,0.572 -17.384,0.756c4.15,0.297 8.249,1.702 11.566,4.597c1.526,1.332 3.008,3.403 4.221,5.776c0.395,-1.425 0.871,-2.674 1.207,-2.94l2.983,-5.576c2.895,-9.385 6.689,-26.257 8.356,-29.177c0.809,-0.638 14.329,-6.341 14.329,-6.341l-12.488,9.145c-1.33,2.674 -1.841,9.551 -1.841,9.551c0,0 -3.862,11.062 -5.781,16.822l-3.647,14.929c-0.189,0.149 -0.409,0.322 -0.644,0.488c0.281,1.343 0.432,2.659 0.418,3.885c-0.06,5.647 -1.723,11.347 -4.145,16.368c0.401,-0.009 19.128,0.891 19.128,0.891l17.247,7.259c1.027,0.076 21.927,1.211 21.851,2.239l33.854,14.441l-37.137,-12.841c-0.076,1.027 -19.589,0.076 -20.616,0l-15.199,-5.069l-14.451,0c-1.027,-0.076 -5.78,-2.458 -5.703,-3.485c0,0 -0.874,-3.858 1.66,8.15c0.664,-0.664 1.984,0.348 2.766,0.966l15.391,9.353l9.259,17.098c0.808,0.638 2.973,16.548 2.335,17.356l21.129,30.6l-25.88,-29.455c-0.639,0.808 -0.623,-15.83 -1.431,-16.468l-7.289,-14.886l-14.435,-5.92c-0.094,-0.074 0.701,6.141 1.349,10.342c2.48,16.102 -5.352,35.573 -18.021,35.574c-16.04,0.002 -22.902,-21.874 -21.749,-35.574c0.244,-2.896 0.726,-7.436 0.954,-9.523c0.069,-0.634 0.114,-1.042 0.123,-1.109c-0.107,0.129 -14.716,6.21 -14.716,6.21l-7.289,14.886c-0.808,0.638 -0.792,17.276 -1.43,16.468l-25.881,29.455l21.13,-30.6c-0.639,-0.808 1.526,-16.718 2.335,-17.356l9.258,-17.098l15.392,-9.353c0.743,-0.588 1.974,-1.532 2.663,-1.052c1.471,-5.723 2.548,-8.263 2.548,-8.263c-0.335,-0.103 -17.128,5.513 -16.532,7.153l-24.547,-3.516c-0.397,0.029 -14.631,-2.096 -14.631,-2.096l-28.937,-1.541l27.462,-1.196c-0.076,-1.027 17.551,1.273 18.579,1.196l19.406,2.434l15.833,-9.011c-1.842,-4.41 -2.73,-8.979 -1.87,-13.027c0.319,-1.504 0.585,-3.297 0.894,-5.154Z" style="fill:#ff9700;stroke:#000;stroke-width:0.83px;"/><path d="M108.498,1102.18c3.347,12.873 9.205,20.607 19.219,20.708c10.015,0.101 18.145,-9.178 18.145,-20.708c-5.211,1.543 -11.547,2.775 -18.145,2.709c-6.597,-0.067 -14.008,-1.06 -19.219,-2.709Z" style="stroke:#000;stroke-width:0.83px;"/><path d="M105.353,1041.4c-1.519,-14.326 14.126,-23.09 21.862,-21.896c10.098,1.557 19.228,10.814 18.532,22.831c11.904,1.337 34.805,-7.769 54.746,-11.688c22.673,-4.457 44.503,-0.418 49.596,19.108c3.44,13.188 -18.796,22.408 -45.727,27.504c-20.982,3.97 -31.388,0.377 -38.58,-7.551c-1.71,-1.886 -1.218,-7.14 -3.153,-9.639c-1.318,-1.701 -5.444,-5.127 -8.688,-7.726c-1.318,-1.056 -11.025,1.961 -11.025,1.349c0,-0.3 -1.547,1.592 -2.475,2.937c-11.071,16.063 -16.05,13.442 -27.612,0c-2.023,-2.352 -5.144,-4.532 -5.144,-3.809c0,0.612 -9.707,-2.405 -11.025,-1.349c-3.243,2.599 -7.369,6.025 -8.687,7.726c-1.935,2.499 -1.443,7.753 -3.153,9.639c-7.192,7.928 -17.598,11.521 -38.58,7.551c-26.932,-5.096 -49.168,-14.316 -45.727,-27.504c5.093,-19.526 26.922,-23.565 49.596,-19.108c20.222,3.975 43.49,13.283 55.244,11.625Z" style="fill:#ff9700;fill-opacity:0.25098;"/><path d="M128.115,1019.76c4.637,0.529 10.354,1.878 13.807,5.096c7.361,6.859 8.993,20.791 0,33.29c-11.558,16.063 -17.649,13.569 -29.583,0c-11.36,-12.918 -8.673,-26.727 -1.838,-33.29c5.022,-4.822 13.367,-5.581 17.614,-5.096Z" style="fill:#ff9700;stroke:#000;stroke-width:0.83px;"/><path d="M107.994,1094.3c-0.018,1.097 8.614,2.133 19.266,2.312c10.651,0.179 19.313,-0.567 19.331,-1.665c-4.508,0.254 -11.61,0.402 -19.308,0.273c-7.699,-0.129 -14.791,-0.516 -19.289,-0.92Z" style="stroke:#000;stroke-width:0.83px;"/><path d="M107.862,1086.28c-0.009,0.533 8.631,1.112 19.282,1.29c10.651,0.179 19.306,-0.109 19.315,-0.643c-4.506,0.085 -11.605,0.096 -19.303,-0.033c-7.699,-0.13 -14.794,-0.379 -19.294,-0.614Z" style="stroke:#000;stroke-width:0.83px;"/><path d="M116.007,1051.76l5.446,20.319" style="fill:none;stroke:#000;stroke-width:0.83px;"/><path d="M135.711,1051.76l-5.445,20.319" style="fill:none;stroke:#000;stroke-width:0.83px;"/><path d="M159.276,1047.84c0,0 17.619,-2.077 32.546,-3.693c8.821,-0.955 17.529,0 22.536,0c10.468,0 28.255,1.807 28.255,1.807" style="fill:none;stroke:#000;stroke-width:0.83px;"/><path d="M159.72,1047.49c0,0 28.161,-9.378 38.956,-11.771c10.49,-2.325 25.664,-4.202 25.423,-4.174" style="fill:none;stroke:#000;stroke-width:0.83px;"/><path d="M161.111,1053.11c0,0 18.562,5.127 28.73,9.462c7.944,3.386 14.553,11.485 14.553,11.485" style="fill:none;stroke:#000;stroke-width:0.83px;"/><path d="M158.923,1048.1c0,0 1.996,0.793 10.29,2.286c2.552,0.46 12.272,3.445 22.962,4.403c2.968,0.266 17.744,-0.589 30.288,0c6.352,0.299 12.102,2.29 15.517,2.29" style="fill:none;stroke:#000;stroke-width:0.83px;"/><path d="M191.854,1054.99l0.106,8.698" style="fill:none;stroke:#000;stroke-width:0.83px;"/><path d="M175.808,1046.66l0.06,4.912" style="fill:none;stroke:#000;stroke-width:0.83px;"/><path d="M86.997,1047.09c0,0 -17.619,-2.078 -32.545,-3.694c-8.821,-0.955 -17.529,0 -22.537,0c-10.467,0 -28.254,1.808 -28.254,1.808" style="fill:none;stroke:#000;stroke-width:0.83px;"/><path d="M86.554,1046.73c0,0 -28.161,-9.379 -38.956,-11.772c-10.491,-2.325 -25.664,-4.202 -25.423,-4.173" style="fill:none;stroke:#000;stroke-width:0.83px;"/><path d="M85.163,1052.35c0,0 -18.562,5.128 -28.731,9.462c-7.943,3.386 -14.553,11.486 -14.553,11.486" style="fill:none;stroke:#000;stroke-width:0.83px;"/><path d="M148.514,1042.97c-0.094,0.849 54.757,-12.631 59.058,-13.425c12.14,-2.241 19.011,-0.958 28.009,3.518c9.599,4.775 14.949,10.897 14.778,21.422c-0.099,6.123 -10.331,14.077 -26.512,18.177c-10.804,2.737 -31.429,9.756 -46.98,4.457c-4.125,-1.405 -8.247,-3.651 -10.695,-7.291c-1.35,-2.008 -1.368,-4.842 -2.534,-7.245c-1.091,-2.248 -7.744,-9.597 -9.682,-10.317c-4.298,-1.597 -8.611,1.48 -9.059,1.126" style="fill:none;stroke:#000;stroke-width:1.04px;"/><path d="M104.514,1041.81c0,0 -10.031,-0.58 -13.665,-1.498c-13.459,-3.398 -45.47,-11.427 -48.825,-11.765c-12.288,-1.238 -18.543,-0.778 -27.541,3.698c-9.6,4.775 -14.128,10.341 -13.958,20.865c0.1,6.124 9.478,12.867 25.224,18.554c15.397,5.561 34.111,6.756 41.106,5.973c0.429,-0.048 10.691,-1.553 15.756,-5.973c3.57,-3.115 3.318,-6.722 4.598,-10.231c1.607,-4.403 3.858,-5.612 7.037,-8.323c3.817,-3.256 14.213,0.071 14.303,0" style="fill:none;stroke:#000;stroke-width:1.04px;"/><path d="M87.35,1047.35c0,0 -1.996,0.792 -10.29,2.285c-2.552,0.46 -12.272,3.446 -22.961,4.404c-2.968,0.266 -17.744,-0.59 -30.288,0c-6.353,0.298 -12.102,2.289 -15.518,2.289" style="fill:none;stroke:#000;stroke-width:0.83px;"/><path d="M54.42,1054.24l-0.106,8.698" style="fill:none;stroke:#000;stroke-width:0.83px;"/><path d="M70.465,1045.91l-0.06,4.913" style="fill:none;stroke:#000;stroke-width:0.83px;"/><path d="M133.398,1044.81l-5.445,20.318" style="fill:none;stroke:#000;stroke-width:0.83px;"/><path d="M118.911,1044.81l5.445,20.318" style="fill:none;stroke:#000;stroke-width:0.83px;"/><path d="M115.711,1001.71c-5.138,-2.099 -10.915,0.127 -12.893,4.968c-1.978,4.842 0.588,10.476 5.726,12.575c2.18,-1.668 4.52,-4.417 5.911,-7.821c1.39,-3.403 1.645,-7.004 1.256,-9.722Z" style="fill:#ff3700;stroke:#000;stroke-width:1.04px;"/><path d="M138.032,1001.71c5.138,-2.099 10.915,0.127 12.893,4.968c1.978,4.842 -0.588,10.476 -5.726,12.575c-2.18,-1.668 -4.52,-4.417 -5.911,-7.821c-1.39,-3.403 -1.645,-7.004 -1.256,-9.722Z" style="fill:#ff3700;stroke:#000;stroke-width:1.04px;"/></g><g><path d="M107.747,839.219c-0.648,-0.145 -1.415,-0.737 -1.939,-1.151l-3.646,-14.929c-1.92,-5.759 -5.782,-16.822 -5.782,-16.822c0,0 -0.511,-6.877 -1.84,-9.551l-12.488,-9.145c0,0 13.52,5.703 14.328,6.341c1.667,2.92 5.461,19.792 8.356,29.177l2.983,5.576c0.418,0.331 1.052,2.181 1.478,4.001c0.68,-2.085 1.603,-3.861 2.953,-4.905c3.1,-2.396 7.495,-4.094 12.134,-4.542c-4.731,0.006 -10.146,-0.194 -16.45,-0.811c-5.161,-0.505 -6.63,-14.916 8.745,-19.304c-0.265,-0.102 -0.445,-0.246 -0.505,-0.437c-0.772,-2.448 -0.961,-3.864 -0.798,-4.61l-8.735,-3.983c3.842,0.105 7.004,1.052 8.949,3.505c0.914,-1.069 3.887,1.96 4.43,2.096c3.176,0.795 3.652,1.646 2.93,2.324c1.281,-0.107 2.64,-0.16 4.081,-0.151c-0.372,-0.631 0.327,-1.377 3.132,-2.08c0.588,-0.147 4.03,-3.69 4.614,-1.737c2.563,-2.468 5.618,-3.846 9.21,-4.029l-9.172,4.183c0.146,0.738 -0.037,2.104 -0.758,4.422c15.805,3.703 17.43,19.801 11.838,19.801c-4.719,0 -10.2,0.572 -17.384,0.756c4.15,0.297 8.249,1.702 11.566,4.597c1.526,1.332 3.008,3.403 4.221,5.776c0.395,-1.425 0.871,-2.674 1.207,-2.94l2.983,-5.576c2.895,-9.385 6.689,-26.257 8.356,-29.177c0.809,-0.639 14.329,-6.341 14.329,-6.341l-12.488,9.145c-1.33,2.674 -1.841,9.551 -1.841,9.551c0,0 -3.862,11.062 -5.781,16.822l-3.647,14.929c-0.189,0.149 -0.409,0.322 -0.644,0.488c0.281,1.343 0.432,2.659 0.418,3.885c-0.06,5.647 -1.723,11.346 -4.145,16.368c0.401,-0.009 19.128,0.891 19.128,0.891l17.247,7.259c1.027,0.076 21.927,1.211 21.851,2.239l33.854,14.441l-37.137,-12.841c-0.076,1.027 -19.589,0.076 -20.616,0l-15.199,-5.069l-14.451,0c-1.027,-0.076 -5.78,-2.458 -5.703,-3.485c0,0 -0.874,-3.858 1.66,8.15c0.664,-0.664 1.984,0.348 2.766,0.966l15.391,9.353l9.259,17.098c0.808,0.638 2.973,16.548 2.335,17.356l21.129,30.6l-25.88,-29.455c-0.639,0.808 -0.623,-15.83 -1.431,-16.468l-7.289,-14.886l-14.435,-5.92c-0.094,-0.074 0.701,6.141 1.349,10.342c2.48,16.102 -5.352,35.573 -18.021,35.574c-16.04,0.002 -22.902,-21.874 -21.749,-35.574c0.244,-2.896 0.726,-7.436 0.954,-9.524c0.069,-0.633 0.114,-1.041 0.123,-1.108c-0.107,0.129 -14.716,6.21 -14.716,6.21l-7.289,14.886c-0.808,0.638 -0.792,17.276 -1.43,16.468l-25.881,29.455l21.13,-30.6c-0.639,-0.808 1.526,-16.718 2.335,-17.356l9.258,-17.098l15.392,-9.353c0.743,-0.588 1.974,-1.532 2.663,-1.052c1.471,-5.723 2.548,-8.263 2.548,-8.263c-0.335,-0.103 -17.128,5.513 -16.532,7.153l-24.547,-3.516c-0.397,0.029 -14.631,-2.096 -14.631,-2.096l-28.937,-1.541l27.462,-1.196c-0.076,-1.027 17.551,1.273 18.579,1.196l19.406,2.434l15.833,-9.011c-1.842,-4.41 -2.73,-8.979 -1.87,-13.027c0.319,-1.504 0.585,-3.297 0.894,-5.154Z" style="fill:#ad8347;stroke:#000;stroke-width:0.83px;"/><path d="M108.498,905.378c3.347,12.873 9.205,20.607 19.219,20.708c10.015,0.101 18.145,-9.178 18.145,-20.708c-5.211,1.543 -11.547,2.775 -18.145,2.709c-6.597,-0.067 -14.008,-1.06 -19.219,-2.709Z" style="stroke:#000;stroke-width:0.83px;"/><path d="M105.353,844.596c-1.519,-14.326 14.126,-23.09 21.862,-21.896c10.098,1.557 19.228,10.814 18.532,22.831c11.904,1.337 34.805,-7.769 54.746,-11.688c22.673,-4.457 44.503,-0.418 49.596,19.108c3.44,13.188 -18.796,22.408 -45.727,27.504c-20.982,3.97 -31.388,0.377 -38.58,-7.551c-1.71,-1.886 -1.218,-7.14 -3.153,-9.639c-1.318,-1.702 -5.444,-5.127 -8.688,-7.726c-1.318,-1.056 -11.025,1.961 -11.025,1.349c0,-0.3 -1.547,1.592 -2.475,2.937c-11.071,16.063 -16.05,13.442 -27.612,0c-2.023,-2.352 -5.144,-4.532 -5.144,-3.809c0,0.612 -9.707,-2.405 -11.025,-1.349c-3.243,2.599 -7.369,6.024 -8.687,7.726c-1.935,2.499 -1.443,7.753 -3.153,9.639c-7.192,7.928 -17.598,11.521 -38.58,7.551c-26.932,-5.096 -49.168,-14.316 -45.727,-27.504c5.093,-19.526 26.922,-23.565 49.596,-19.108c20.222,3.975 43.49,13.283 55.244,11.625Z" style="fill:#ffee8c;fill-opacity:0.737255;"/><path d="M128.115,822.957c4.637,0.529 10.354,1.878 13.807,5.096c7.361,6.859 8.993,20.791 0,33.29c-11.558,16.063 -17.649,13.569 -29.583,0c-11.36,-12.918 -8.673,-26.727 -1.838,-33.29c5.022,-4.822 13.367,-5.581 17.614,-5.096Z" style="fill:#ad8347;stroke:#000;stroke-width:0.83px;"/><path d="M107.994,897.495c-0.018,1.097 8.614,2.133 19.266,2.312c10.651,0.179 19.313,-0.567 19.331,-1.665c-4.508,0.254 -11.61,0.402 -19.308,0.273c-7.699,-0.129 -14.791,-0.516 -19.289,-0.92Z" style="stroke:#000;stroke-width:0.83px;"/><path d="M107.862,889.48c-0.009,0.533 8.631,1.111 19.282,1.29c10.651,0.179 19.306,-0.109 19.315,-0.643c-4.506,0.085 -11.605,0.096 -19.303,-0.033c-7.699,-0.13 -14.794,-0.379 -19.294,-0.614Z" style="stroke:#000;stroke-width:0.83px;"/><path d="M116.007,854.957l5.446,20.318" style="fill:none;stroke:#000;stroke-width:0.83px;"/><path d="M135.711,854.957l-5.445,20.318" style="fill:none;stroke:#000;stroke-width:0.83px;"/><path d="M159.276,851.037c0,0 17.619,-2.077 32.546,-3.693c8.821,-0.955 17.529,0 22.536,0c10.468,0 28.255,1.807 28.255,1.807" style="fill:none;stroke:#000;stroke-width:0.83px;"/><path d="M159.72,850.684c0,0 28.161,-9.378 38.956,-11.771c10.49,-2.325 25.664,-4.202 25.423,-4.174" style="fill:none;stroke:#000;stroke-width:0.83px;"/><path d="M161.111,856.304c0,0 18.562,5.127 28.73,9.462c7.944,3.386 14.553,11.485 14.553,11.485" style="fill:none;stroke:#000;stroke-width:0.83px;"/><path d="M158.923,851.303c0,0 1.996,0.793 10.29,2.286c2.552,0.46 12.272,3.445 22.962,4.403c2.968,0.266 17.744,-0.589 30.288,0c6.352,0.299 12.102,2.29 15.517,2.29" style="fill:none;stroke:#000;stroke-width:0.83px;"/><path d="M191.854,858.191l0.106,8.698" style="fill:none;stroke:#000;stroke-width:0.83px;"/><path d="M175.808,849.859l0.06,4.913" style="fill:none;stroke:#000;stroke-width:0.83px;"/><path d="M86.997,850.284c0,0 -17.619,-2.077 -32.545,-3.693c-8.821,-0.955 -17.529,0 -22.537,0c-10.467,0 -28.254,1.808 -28.254,1.808" style="fill:none;stroke:#000;stroke-width:0.83px;"/><path d="M86.554,849.932c0,0 -28.161,-9.379 -38.956,-11.772c-10.491,-2.325 -25.664,-4.202 -25.423,-4.173" style="fill:none;stroke:#000;stroke-width:0.83px;"/><path d="M85.163,855.551c0,0 -18.562,5.127 -28.731,9.462c-7.943,3.386 -14.553,11.486 -14.553,11.486" style="fill:none;stroke:#000;stroke-width:0.83px;"/><path d="M148.514,846.17c-0.094,0.848 54.757,-12.631 59.058,-13.425c12.14,-2.241 19.011,-0.958 28.009,3.518c9.599,4.775 14.949,10.897 14.778,21.422c-0.099,6.123 -10.331,14.077 -26.512,18.177c-10.804,2.737 -31.429,9.756 -46.98,4.457c-4.125,-1.405 -8.247,-3.651 -10.695,-7.291c-1.35,-2.008 -1.368,-4.842 -2.534,-7.245c-1.091,-2.248 -7.744,-9.597 -9.682,-10.317c-4.298,-1.597 -8.611,1.48 -9.059,1.126" style="fill:none;stroke:#000;stroke-width:1.04px;"/><path d="M104.514,845.008c0,0 -10.031,-0.58 -13.665,-1.498c-13.459,-3.398 -45.47,-11.427 -48.825,-11.765c-12.288,-1.238 -18.543,-0.778 -27.541,3.698c-9.6,4.775 -14.128,10.341 -13.958,20.865c0.1,6.124 9.478,12.867 25.224,18.554c15.397,5.561 34.111,6.755 41.106,5.973c0.429,-0.048 10.691,-1.553 15.756,-5.973c3.57,-3.115 3.318,-6.722 4.598,-10.231c1.607,-4.403 3.858,-5.612 7.037,-8.323c3.817,-3.256 14.213,0.071 14.303,0" style="fill:none;stroke:#000;stroke-width:1.04px;"/><path d="M87.35,850.55c0,0 -1.996,0.793 -10.29,2.286c-2.552,0.46 -12.272,3.446 -22.961,4.404c-2.968,0.266 -17.744,-0.59 -30.288,0c-6.353,0.298 -12.102,2.289 -15.518,2.289" style="fill:none;stroke:#000;stroke-width:0.83px;"/><path d="M54.42,857.438l-0.106,8.698" style="fill:none;stroke:#000;stroke-width:0.83px;"/><path d="M70.465,849.107l-0.06,4.912" style="fill:none;stroke:#000;stroke-width:0.83px;"/><path d="M133.398,848.005l-5.445,20.318" style="fill:none;stroke:#000;stroke-width:0.83px;"/><path d="M118.911,848.005l5.445,20.318" style="fill:none;stroke:#000;stroke-width:0.83px;"/><path d="M115.711,804.91c-5.138,-2.099 -10.915,0.127 -12.893,4.968c-1.978,4.842 0.588,10.476 5.726,12.575c2.18,-1.668 4.52,-4.417 5.911,-7.821c1.39,-3.403 1.645,-7.004 1.256,-9.722Z" style="fill:#ff3700;stroke:#000;stroke-width:1.04px;"/><path d="M138.032,804.91c5.138,-2.099 10.915,0.127 12.893,4.968c1.978,4.842 -0.588,10.476 -5.726,12.575c-2.18,-1.668 -4.52,-4.417 -5.911,-7.821c-1.39,-3.403 -1.645,-7.004 -1.256,-9.722Z" style="fill:#ff3700;stroke:#000;stroke-width:1.04px;"/></g></svg>