<?xml version="1.0" encoding="UTF-8" standalone="no"?><!DOCTYPE svg PUBLIC "-//W3C//DTD SVG 1.1//EN" "http://www.w3.org/Graphics/SVG/1.1/DTD/svg11.dtd"><svg width="100%" height="100%" viewBox="0 0 2581 2145" version="1.1" xmlns="http://www.w3.org/2000/svg" xmlns:xlink="http://www.w3.org/1999/xlink" xml:space="preserve" xmlns:serif="http://www.serif.com/" style="fill-rule:evenodd;clip-rule:evenodd;"><g><g><path id="_116415184" d="M1136.85,1794.89l-7.823,1.521l-15.158,6.854l-11.246,12.94l-4.89,13.703l-1.956,18.65l1.956,17.128l10.757,19.79l10.757,9.138l9.291,6.086l7.823,0.382l9.29,-3.043l9.291,-9.897l6.356,-10.656l1.467,-14.466l0.489,-24.74l-1.467,-16.747l-4.4,-13.703l-9.291,-7.994l-11.246,-4.946Z" style="fill:#cdcdcd;fill-opacity:0.501961;stroke:#1f1a17;stroke-width:1.7px;"/><g><path id="_116414968" d="M1134.65,1809.29c0.689,0.2 1.511,-0.058 2.2,0.143c0.23,0.066 0.526,-0.096 0.756,-0.029l0.459,0.133l1.378,0.401c0.297,-0.163 0.067,-0.23 0.526,-0.096" style="fill:none;stroke:#1f1a17;stroke-width:1.85px;"/><path id="_116414896" d="M1122.27,1819.37l5.766,0.641" style="fill:none;stroke:#1f1a17;stroke-width:1.85px;"/><path id="_116414824" d="M1117.65,1810.68l5.093,2.708l2.149,2.391" style="fill:none;stroke:#1f1a17;stroke-width:1.85px;"/><path id="_116414752" d="M1129.9,1833.95l-0.238,11.96" style="fill:none;stroke:#1f1a17;stroke-width:1.85px;"/><path id="_116414680" d="M1133.84,1803.33l2.166,11.76" style="fill:none;stroke:#1f1a17;stroke-width:1.85px;"/><path id="_116414608" d="M1140.01,1849.73l11.952,-0.447" style="fill:none;stroke:#1f1a17;stroke-width:1.85px;"/><path id="_116414536" d="M1139.76,1871.98l-11.952,-0.447" style="fill:none;stroke:#1f1a17;stroke-width:1.85px;"/><path id="_116414464" d="M1107.07,1839.3l5.093,2.707l2.148,2.392" style="fill:none;stroke:#1f1a17;stroke-width:1.85px;"/><path id="_116405136" d="M1117.61,1853.04l5.093,2.707l2.148,2.392" style="fill:none;stroke:#1f1a17;stroke-width:1.85px;"/><path id="_116405064" d="M1122.16,1834.47l5.093,2.707l2.148,2.392" style="fill:none;stroke:#1f1a17;stroke-width:1.85px;"/><path id="_116404992" d="M1134.97,1850.65l5.093,2.707l2.148,2.392" style="fill:none;stroke:#1f1a17;stroke-width:1.85px;"/><path id="_116404920" d="M1144.8,1872.9l-5.093,2.707l-2.148,2.392" style="fill:none;stroke:#1f1a17;stroke-width:1.85px;"/><path id="_116404848" d="M1138.67,1866.93l5.093,2.702l2.149,2.392" style="fill:none;stroke:#1f1a17;stroke-width:1.85px;"/><path id="_116404776" d="M1141.1,1889.18l-5.093,2.702l-2.149,2.392" style="fill:none;stroke:#1f1a17;stroke-width:1.85px;"/><path id="_116404704" d="M1141.29,1882l5.093,2.702l2.148,2.392" style="fill:none;stroke:#1f1a17;stroke-width:1.85px;"/><path id="_116404632" d="M1111.96,1858.15l2.546,1.351l1.074,1.194" style="fill:none;stroke:#1f1a17;stroke-width:1.85px;"/><path id="_116404560" d="M1144.37,1860.93l0.971,0.736l0.41,0.647" style="fill:none;stroke:#1f1a17;stroke-width:1.85px;"/><path id="_116404488" d="M1135.41,1883.19l-0.971,0.736l-0.41,0.646" style="fill:none;stroke:#1f1a17;stroke-width:1.85px;"/><path id="_116404416" d="M1149.23,1877.45l0.971,0.731l0.41,0.652" style="fill:none;stroke:#1f1a17;stroke-width:1.85px;"/><path id="_116404344" d="M1130.55,1899.7l-0.971,0.73l-0.41,0.647" style="fill:none;stroke:#1f1a17;stroke-width:1.85px;"/><path id="_116404272" d="M1140.36,1839.96l0.971,0.731l0.41,0.651" style="fill:none;stroke:#1f1a17;stroke-width:1.85px;"/><path id="_116389216" d="M1139.42,1862.22l-0.971,0.731l-0.41,0.646" style="fill:none;stroke:#1f1a17;stroke-width:1.85px;"/><path id="_116389144" d="M1133.68,1819.93l0.971,0.731l0.409,0.652" style="fill:none;stroke:#1f1a17;stroke-width:1.85px;"/></g></g><g><path id="_1164151841" serif:id="_116415184" d="M1195.77,1797.47l-7.695,-2.073l-16.628,-0.508l-15.79,6.678l-10.416,10.158l-9.956,15.891l-5.773,16.244l0.961,22.503l5.645,12.937l5.668,9.552l6.859,3.782l9.682,1.351l12.696,-4.805l10.394,-6.776l7.677,-12.348l11.316,-22.006l6.045,-15.687l2.072,-14.242l-4.83,-11.264l-7.927,-9.387Z" style="fill:#cdcdcd;fill-opacity:0.501961;stroke:#1f1a17;stroke-width:1.7px;"/><g><path id="_1164149681" serif:id="_116414968" d="M1187.46,1809.43c0.531,0.483 1.383,0.612 1.914,1.095c0.177,0.161 0.514,0.146 0.691,0.307l0.354,0.321l1.062,0.966c0.337,-0.015 0.161,-0.176 0.514,0.145" style="fill:none;stroke:#1f1a17;stroke-width:1.85px;"/><path id="_1164148961" serif:id="_116414896" d="M1171.91,1813.04l4.897,3.111" style="fill:none;stroke:#1f1a17;stroke-width:1.85px;"/><path id="_1164148241" serif:id="_116414824" d="M1171.59,1803.22l3.384,4.671l0.879,3.092" style="fill:none;stroke:#1f1a17;stroke-width:1.85px;"/><path id="_1164147521" serif:id="_116414752" d="M1172.36,1829.51l-5.472,10.637" style="fill:none;stroke:#1f1a17;stroke-width:1.85px;"/><path id="_1164146801" serif:id="_116414680" d="M1189.36,1803.73l-3.224,11.514" style="fill:none;stroke:#1f1a17;stroke-width:1.85px;"/><path id="_1164146081" serif:id="_116414608" d="M1174.51,1848.11l10.931,4.853" style="fill:none;stroke:#1f1a17;stroke-width:1.85px;"/><path id="_1164145361" serif:id="_116414536" d="M1164.5,1867.99l-10.539,-5.656" style="fill:none;stroke:#1f1a17;stroke-width:1.85px;"/><path id="_1164144641" serif:id="_116414464" d="M1149.5,1824.27l3.384,4.671l0.878,3.093" style="fill:none;stroke:#1f1a17;stroke-width:1.85px;"/><path id="_1164051361" serif:id="_116405136" d="M1152.93,1841.24l3.384,4.671l0.878,3.093" style="fill:none;stroke:#1f1a17;stroke-width:1.85px;"/><path id="_1164050641" serif:id="_116405064" d="M1165.18,1826.56l3.384,4.67l0.879,3.093" style="fill:none;stroke:#1f1a17;stroke-width:1.85px;"/><path id="_1164049921" serif:id="_116404992" d="M1169.57,1846.73l3.384,4.67l0.878,3.093" style="fill:none;stroke:#1f1a17;stroke-width:1.85px;"/><path id="_1164049201" serif:id="_116404920" d="M1168.62,1871.04l-5.764,0.193l-2.982,1.204" style="fill:none;stroke:#1f1a17;stroke-width:1.85px;"/><path id="_1164048481" serif:id="_116404848" d="M1165.74,1862.97l3.386,4.666l0.878,3.092" style="fill:none;stroke:#1f1a17;stroke-width:1.85px;"/><path id="_1164047761" serif:id="_116404776" d="M1158.14,1884.03l-5.762,0.188l-2.981,1.204" style="fill:none;stroke:#1f1a17;stroke-width:1.85px;"/><path id="_1164047041" serif:id="_116404704" d="M1161.47,1877.67l3.386,4.665l0.878,3.093" style="fill:none;stroke:#1f1a17;stroke-width:1.85px;"/><path id="_1164046321" serif:id="_116404632" d="M1145.61,1843.34l1.694,2.333l0.44,1.544" style="fill:none;stroke:#1f1a17;stroke-width:1.85px;"/><path id="_1164045601" serif:id="_116404560" d="M1173.49,1860.09l0.549,1.088l0.083,0.761" style="fill:none;stroke:#1f1a17;stroke-width:1.85px;"/><path id="_1164044881" serif:id="_116404488" d="M1155.66,1876.14l-1.195,0.234l-0.653,0.401" style="fill:none;stroke:#1f1a17;stroke-width:1.85px;"/><path id="_1164044161" serif:id="_116404416" d="M1170.59,1877.07l0.55,1.084l0.082,0.765" style="fill:none;stroke:#1f1a17;stroke-width:1.85px;"/><path id="_1164043441" serif:id="_116404344" d="M1144.03,1888.84l-1.194,0.229l-0.652,0.401" style="fill:none;stroke:#1f1a17;stroke-width:1.85px;"/><path id="_1164042721" serif:id="_116404272" d="M1179.11,1839.5l0.551,1.083l0.081,0.766" style="fill:none;stroke:#1f1a17;stroke-width:1.85px;"/><path id="_1163892161" serif:id="_116389216" d="M1168.48,1859.07l-1.194,0.23l-0.652,0.4" style="fill:none;stroke:#1f1a17;stroke-width:1.85px;"/><path id="_1163891441" serif:id="_116389144" d="M1181.91,1818.57l0.551,1.083l0.081,0.765" style="fill:none;stroke:#1f1a17;stroke-width:1.85px;"/></g></g><g><path id="_1164151842" serif:id="_116415184" d="M1156.1,1866.31l-6.758,4.225l-11.693,11.833l-5.859,16.111l0.348,14.546l4.86,18.111l7.966,15.288l17.137,14.618l13.319,4.674l10.854,2.351l7.441,-2.449l7.581,-6.171l5.125,-12.57l2.114,-12.226l-3.817,-14.031l-8.413,-23.271l-7.373,-15.107l-9.021,-11.215l-11.539,-4.131l-12.272,-0.586Z" style="fill:#cdcdcd;fill-opacity:0.501961;stroke:#1f1a17;stroke-width:1.7px;"/><g><path id="_1164149682" serif:id="_116414968" d="M1159.2,1880.54c0.714,-0.06 1.389,-0.595 2.104,-0.655c0.239,-0.02 0.457,-0.278 0.696,-0.298l0.476,-0.04l1.43,-0.12c0.219,-0.258 -0.02,-0.238 0.457,-0.278" style="fill:none;stroke:#1f1a17;stroke-width:1.85px;"/><path id="_1164148962" serif:id="_116414896" d="M1151.26,1894.39l5.613,-1.468" style="fill:none;stroke:#1f1a17;stroke-width:1.85px;"/><path id="_1164148242" serif:id="_116414824" d="M1143.84,1887.94l5.725,0.701l2.863,1.463" style="fill:none;stroke:#1f1a17;stroke-width:1.85px;"/><path id="_1164147522" serif:id="_116414752" d="M1163.62,1905.27l4.065,11.25" style="fill:none;stroke:#1f1a17;stroke-width:1.85px;"/><path id="_1164146802" serif:id="_116414680" d="M1156.31,1875.27l6.238,10.202" style="fill:none;stroke:#1f1a17;stroke-width:1.85px;"/><path id="_1164146082" serif:id="_116414608" d="M1178.71,1916.37l10.998,-4.702" style="fill:none;stroke:#1f1a17;stroke-width:1.85px;"/><path id="_1164145362" serif:id="_116414536" d="M1186.45,1937.24l-11.318,3.868" style="fill:none;stroke:#1f1a17;stroke-width:1.85px;"/><path id="_1164144642" serif:id="_116414464" d="M1144.22,1918.45l5.724,0.701l2.864,1.463" style="fill:none;stroke:#1f1a17;stroke-width:1.85px;"/><path id="_1164051362" serif:id="_116405136" d="M1158.98,1927.5l5.725,0.701l2.863,1.463" style="fill:none;stroke:#1f1a17;stroke-width:1.85px;"/><path id="_1164050642" serif:id="_116405064" d="M1156.57,1908.53l5.725,0.701l2.863,1.463" style="fill:none;stroke:#1f1a17;stroke-width:1.85px;"/><path id="_1164049922" serif:id="_116404992" d="M1174.33,1919.04l5.725,0.702l2.863,1.462" style="fill:none;stroke:#1f1a17;stroke-width:1.85px;"/><path id="_1164049202" serif:id="_116404920" d="M1191.49,1936.29l-3.784,4.354l-1.148,3.003" style="fill:none;stroke:#1f1a17;stroke-width:1.85px;"/><path id="_1164048482" serif:id="_116404848" d="M1183.62,1932.91l5.723,0.696l2.863,1.463" style="fill:none;stroke:#1f1a17;stroke-width:1.85px;"/><path id="_1164047762" serif:id="_116404776" d="M1193.87,1952.81l-3.785,4.348l-1.148,3.003" style="fill:none;stroke:#1f1a17;stroke-width:1.85px;"/><path id="_1164047042" serif:id="_116404704" d="M1191.48,1946.04l5.723,0.697l2.863,1.463" style="fill:none;stroke:#1f1a17;stroke-width:1.85px;"/><path id="_1164046322" serif:id="_116404632" d="M1155.54,1934.29l2.861,0.348l1.431,0.729" style="fill:none;stroke:#1f1a17;stroke-width:1.85px;"/><path id="_1164045602" serif:id="_116404560" d="M1186.79,1925.27l1.17,0.339l0.614,0.457" style="fill:none;stroke:#1f1a17;stroke-width:1.85px;"/><path id="_1164044882" serif:id="_116404488" d="M1186.4,1949.26l-0.643,1.035l-0.15,0.751" style="fill:none;stroke:#1f1a17;stroke-width:1.85px;"/><path id="_1164044162" serif:id="_116404416" d="M1197.25,1938.95l1.168,0.335l0.616,0.461" style="fill:none;stroke:#1f1a17;stroke-width:1.85px;"/><path id="_1164043442" serif:id="_116404344" d="M1187.79,1966.42l-0.644,1.03l-0.151,0.75" style="fill:none;stroke:#1f1a17;stroke-width:1.85px;"/><path id="_1164042722" serif:id="_116404272" d="M1175.53,1907.14l1.168,0.334l0.616,0.462" style="fill:none;stroke:#1f1a17;stroke-width:1.85px;"/><path id="_1163892162" serif:id="_116389216" d="M1182.63,1928.25l-0.644,1.03l-0.151,0.751" style="fill:none;stroke:#1f1a17;stroke-width:1.85px;"/><path id="_1163891442" serif:id="_116389144" d="M1162.12,1890.83l1.168,0.335l0.616,0.461" style="fill:none;stroke:#1f1a17;stroke-width:1.85px;"/></g></g><g><path id="_1164151843" serif:id="_116415184" d="M1146.46,1885.97l-7.943,-0.652l-16.447,2.494l-14.33,9.413l-8.416,11.868l-6.931,17.424l-2.753,17.018l4.998,21.963l7.882,11.709l7.296,8.374l7.428,2.485l9.768,-0.415l11.622,-7.013l9.004,-8.537l5.328,-13.529l7.167,-23.684l3.121,-16.519l-0.527,-14.382l-6.78,-10.211l-9.487,-7.806Z" style="fill:#cdcdcd;fill-opacity:0.501961;stroke:#1f1a17;stroke-width:1.7px;"/><g><path id="_1164149683" serif:id="_116414968" d="M1140.44,1899.24c0.609,0.379 1.47,0.353 2.08,0.732c0.203,0.127 0.532,0.051 0.735,0.177l0.406,0.253l1.218,0.759c0.33,-0.076 0.127,-0.203 0.532,0.05" style="fill:none;stroke:#1f1a17;stroke-width:1.85px;"/><path id="_1164148963" serif:id="_116414896" d="M1125.79,1905.59l5.377,2.178" style="fill:none;stroke:#1f1a17;stroke-width:1.85px;"/><path id="_1164148243" serif:id="_116414824" d="M1123.7,1895.98l4.17,3.985l1.421,2.884" style="fill:none;stroke:#1f1a17;stroke-width:1.85px;"/><path id="_1164147523" serif:id="_116414752" d="M1129.2,1921.7l-3.467,11.448" style="fill:none;stroke:#1f1a17;stroke-width:1.85px;"/><path id="_1164146803" serif:id="_116414680" d="M1141.28,1893.28l-1.099,11.907" style="fill:none;stroke:#1f1a17;stroke-width:1.85px;"/><path id="_1164146083" serif:id="_116414608" d="M1134.66,1939.62l11.627,2.805" style="fill:none;stroke:#1f1a17;stroke-width:1.85px;"/><path id="_1164145363" serif:id="_116414536" d="M1128.39,1960.97l-11.384,-3.665" style="fill:none;stroke:#1f1a17;stroke-width:1.85px;"/><path id="_1164144643" serif:id="_116414464" d="M1105.77,1920.67l4.17,3.985l1.421,2.884" style="fill:none;stroke:#1f1a17;stroke-width:1.85px;"/><path id="_1164051363" serif:id="_116405136" d="M1112.2,1936.74l4.17,3.985l1.42,2.884" style="fill:none;stroke:#1f1a17;stroke-width:1.85px;"/><path id="_1164050643" serif:id="_116405064" d="M1121.6,1920.1l4.17,3.984l1.421,2.885" style="fill:none;stroke:#1f1a17;stroke-width:1.85px;"/><path id="_1164049923" serif:id="_116404992" d="M1129.56,1939.14l4.17,3.985l1.42,2.884" style="fill:none;stroke:#1f1a17;stroke-width:1.85px;"/><path id="_1164049203" serif:id="_116404920" d="M1133,1963.23l-5.635,1.228l-2.716,1.721" style="fill:none;stroke:#1f1a17;stroke-width:1.85px;"/><path id="_1164048483" serif:id="_116404848" d="M1128.71,1955.81l4.172,3.98l1.421,2.884" style="fill:none;stroke:#1f1a17;stroke-width:1.85px;"/><path id="_1164047763" serif:id="_116404776" d="M1125.03,1977.89l-5.635,1.222l-2.715,1.721" style="fill:none;stroke:#1f1a17;stroke-width:1.85px;"/><path id="_1164047043" serif:id="_116404704" d="M1127.16,1971.04l4.171,3.98l1.421,2.884" style="fill:none;stroke:#1f1a17;stroke-width:1.85px;"/><path id="_1164046323" serif:id="_116404632" d="M1105.37,1940.13l2.086,1.99l0.711,1.44" style="fill:none;stroke:#1f1a17;stroke-width:1.85px;"/><path id="_1164045603" serif:id="_116404560" d="M1135.82,1951.59l0.735,0.971l0.219,0.733" style="fill:none;stroke:#1f1a17;stroke-width:1.85px;"/><path id="_1164044883" serif:id="_116404488" d="M1121.17,1970.58l-1.134,0.446l-0.57,0.511" style="fill:none;stroke:#1f1a17;stroke-width:1.85px;"/><path id="_1164044163" serif:id="_116404416" d="M1136.03,1968.8l0.737,0.966l0.218,0.738" style="fill:none;stroke:#1f1a17;stroke-width:1.85px;"/><path id="_1164043443" serif:id="_116404344" d="M1112.02,1985.17l-1.132,0.44l-0.57,0.512" style="fill:none;stroke:#1f1a17;stroke-width:1.85px;"/><path id="_1164042723" serif:id="_116404272" d="M1137.63,1930.32l0.737,0.966l0.217,0.738" style="fill:none;stroke:#1f1a17;stroke-width:1.85px;"/><path id="_1163892163" serif:id="_116389216" d="M1130.7,1951.48l-1.133,0.44l-0.569,0.512" style="fill:none;stroke:#1f1a17;stroke-width:1.85px;"/><path id="_1163891443" serif:id="_116389144" d="M1136.63,1909.23l0.737,0.966l0.218,0.738" style="fill:none;stroke:#1f1a17;stroke-width:1.85px;"/><path id="_1164151844" serif:id="_116415184" d="M1166.59,2096.89l7.922,-0.878l15.666,-5.594l12.265,-11.979l5.992,-13.258l3.472,-18.428l-0.552,-17.23l-9.106,-20.602l-9.975,-9.986l-8.763,-6.824l-7.766,-1.019l-9.507,2.275l-10.068,9.105l-7.205,10.102l-2.643,14.298l-2.506,24.618l0.095,16.81l3.267,14.016l8.607,8.726l10.805,5.848Z" style="fill:#cdcdcd;fill-opacity:0.501961;stroke:#1f1a17;stroke-width:1.7px;"/><path id="_1164149684" serif:id="_116414968" d="M1169.96,2082.72c-0.67,-0.255 -1.511,-0.065 -2.181,-0.321c-0.224,-0.085 -0.533,0.052 -0.756,-0.033l-0.447,-0.171l-1.341,-0.511c-0.308,0.137 -0.085,0.223 -0.531,0.052" style="fill:none;stroke:#1f1a17;stroke-width:1.85px;"/><path id="_1164148964" serif:id="_116414896" d="M1183.12,2073.68l-5.695,-1.11" style="fill:none;stroke:#1f1a17;stroke-width:1.85px;"/><path id="_1164148244" serif:id="_116414824" d="M1187.01,2082.71l-4.855,-3.114l-1.946,-2.559" style="fill:none;stroke:#1f1a17;stroke-width:1.85px;"/><path id="_1164147524" serif:id="_116414752" d="M1176.7,2058.52l1.214,-11.899" style="fill:none;stroke:#1f1a17;stroke-width:1.85px;"/><path id="_1164146804" serif:id="_116414680" d="M1170.28,2088.72l-1.199,-11.898" style="fill:none;stroke:#1f1a17;stroke-width:1.85px;"/><path id="_1164146084" serif:id="_116414608" d="M1167.91,2041.98l-11.948,-0.531" style="fill:none;stroke:#1f1a17;stroke-width:1.85px;"/><path id="_1164145364" serif:id="_116414536" d="M1169.98,2019.82l11.875,1.421" style="fill:none;stroke:#1f1a17;stroke-width:1.85px;"/><path id="_1164144644" serif:id="_116414464" d="M1199.89,2055.05l-4.855,-3.114l-1.946,-2.559" style="fill:none;stroke:#1f1a17;stroke-width:1.85px;"/><path id="_1164051364" serif:id="_116405136" d="M1190.51,2040.5l-4.854,-3.113l-1.946,-2.56" style="fill:none;stroke:#1f1a17;stroke-width:1.85px;"/><path id="_1164050644" serif:id="_116405064" d="M1184.46,2058.64l-4.855,-3.114l-1.946,-2.559" style="fill:none;stroke:#1f1a17;stroke-width:1.85px;"/><path id="_1164049924" serif:id="_116404992" d="M1173.01,2041.47l-4.855,-3.114l-1.946,-2.559" style="fill:none;stroke:#1f1a17;stroke-width:1.85px;"/><path id="_1164049204" serif:id="_116404920" d="M1165.03,2018.49l5.297,-2.283l2.336,-2.208" style="fill:none;stroke:#1f1a17;stroke-width:1.85px;"/><path id="_1164048484" serif:id="_116404848" d="M1170.65,2024.94l-4.855,-3.108l-1.946,-2.56" style="fill:none;stroke:#1f1a17;stroke-width:1.85px;"/><path id="_1164047764" serif:id="_116404776" d="M1170.05,2002.57l5.296,-2.278l2.337,-2.208" style="fill:none;stroke:#1f1a17;stroke-width:1.85px;"/><path id="_1164047044" serif:id="_116404704" d="M1169.27,2009.7l-4.856,-3.109l-1.946,-2.559" style="fill:none;stroke:#1f1a17;stroke-width:1.85px;"/><path id="_1164046324" serif:id="_116404632" d="M1196.56,2035.87l-2.428,-1.554l-0.973,-1.277" style="fill:none;stroke:#1f1a17;stroke-width:1.85px;"/><path id="_1164045604" serif:id="_116404560" d="M1164.49,2030.45l-0.908,-0.813l-0.355,-0.678" style="fill:none;stroke:#1f1a17;stroke-width:1.85px;"/><path id="_1164044884" serif:id="_116404488" d="M1175.23,2009l1.027,-0.654l0.461,-0.611" style="fill:none;stroke:#1f1a17;stroke-width:1.85px;"/><path id="_1164044164" serif:id="_116404416" d="M1160.99,2013.59l-0.908,-0.807l-0.355,-0.683" style="fill:none;stroke:#1f1a17;stroke-width:1.85px;"/><path id="_1164043444" serif:id="_116404344" d="M1181.43,1992.94l1.027,-0.649l0.461,-0.611" style="fill:none;stroke:#1f1a17;stroke-width:1.85px;"/><path id="_1164042724" serif:id="_116404272" d="M1166.77,2051.68l-0.908,-0.808l-0.355,-0.683" style="fill:none;stroke:#1f1a17;stroke-width:1.85px;"/><path id="_1163892164" serif:id="_116389216" d="M1169.53,2029.58l1.027,-0.649l0.461,-0.611" style="fill:none;stroke:#1f1a17;stroke-width:1.85px;"/><path id="_1163891444" serif:id="_116389144" d="M1171.79,2072.18l-0.908,-0.808l-0.355,-0.683" style="fill:none;stroke:#1f1a17;stroke-width:1.85px;"/><path id="_1164151845" serif:id="_116415184" d="M1108.07,2089.51l7.501,2.694l16.53,1.864l16.283,-5.368l11.211,-9.274l11.219,-15.025l7.08,-15.718l0.879,-22.507l-4.57,-13.355l-4.87,-9.982l-6.527,-4.329l-9.54,-2.137l-13.045,3.753l-10.912,5.905l-8.66,11.68l-13.075,21.009l-7.305,15.14l-3.227,14.026l3.894,11.621l7.134,10.003Z" style="fill:#cdcdcd;fill-opacity:0.501961;stroke:#1f1a17;stroke-width:1.7px;"/><path id="_1164149685" serif:id="_116414968" d="M1117.33,2078.26c-0.49,-0.524 -1.328,-0.723 -1.818,-1.247c-0.163,-0.175 -0.501,-0.187 -0.664,-0.362l-0.326,-0.35l-0.98,-1.049c-0.338,-0.012 -0.174,0.163 -0.5,-0.186" style="fill:none;stroke:#1f1a17;stroke-width:1.85px;"/><path id="_1164148965" serif:id="_116414896" d="M1133.12,2075.93l-4.627,-3.501" style="fill:none;stroke:#1f1a17;stroke-width:1.85px;"/><path id="_1164148245" serif:id="_116414824" d="M1132.65,2085.76l-2.991,-4.931l-0.623,-3.154" style="fill:none;stroke:#1f1a17;stroke-width:1.85px;"/><path id="_1164147525" serif:id="_116414752" d="M1134.02,2059.49l6.322,-10.154" style="fill:none;stroke:#1f1a17;stroke-width:1.85px;"/><path id="_1164146805" serif:id="_116414680" d="M1114.98,2083.8l4.154,-11.212" style="fill:none;stroke:#1f1a17;stroke-width:1.85px;"/><path id="_1164146085" serif:id="_116414608" d="M1133.4,2040.77l-10.498,-5.729" style="fill:none;stroke:#1f1a17;stroke-width:1.85px;"/><path id="_1164145365" serif:id="_116414536" d="M1145,2021.78l10.042,6.497" style="fill:none;stroke:#1f1a17;stroke-width:1.85px;"/><path id="_1164144645" serif:id="_116414464" d="M1156.38,2066.58l-2.991,-4.931l-0.623,-3.154" style="fill:none;stroke:#1f1a17;stroke-width:1.85px;"/><path id="_1164051365" serif:id="_116405136" d="M1154.35,2049.38l-2.992,-4.932l-0.623,-3.154" style="fill:none;stroke:#1f1a17;stroke-width:1.85px;"/><path id="_1164050645" serif:id="_116405064" d="M1140.94,2063.01l-2.992,-4.931l-0.623,-3.154" style="fill:none;stroke:#1f1a17;stroke-width:1.85px;"/><path id="_1164049925" serif:id="_116404992" d="M1138.21,2042.55l-2.992,-4.931l-0.623,-3.155" style="fill:none;stroke:#1f1a17;stroke-width:1.85px;"/><path id="_1164049205" serif:id="_116404920" d="M1141.14,2018.4l5.761,0.279l3.069,-0.956" style="fill:none;stroke:#1f1a17;stroke-width:1.85px;"/><path id="_1164048485" serif:id="_116404848" d="M1143.35,2026.67l-2.994,-4.927l-0.623,-3.154" style="fill:none;stroke:#1f1a17;stroke-width:1.85px;"/><path id="_1164047765" serif:id="_116404776" d="M1152.64,2006.31l5.758,0.283l3.07,-0.956" style="fill:none;stroke:#1f1a17;stroke-width:1.85px;"/><path id="_1164047045" serif:id="_116404704" d="M1148.81,2012.38l-2.994,-4.927l-0.623,-3.154" style="fill:none;stroke:#1f1a17;stroke-width:1.85px;"/><path id="_1164046325" serif:id="_116404632" d="M1161.82,2047.88l-1.497,-2.463l-0.313,-1.575" style="fill:none;stroke:#1f1a17;stroke-width:1.85px;"/><path id="_1164045605" serif:id="_116404560" d="M1135.39,2028.91l-0.458,-1.129l-0.021,-0.765" style="fill:none;stroke:#1f1a17;stroke-width:1.85px;"/><path id="_1164044885" serif:id="_116404488" d="M1154.47,2014.37l1.211,-0.136l0.682,-0.346" style="fill:none;stroke:#1f1a17;stroke-width:1.85px;"/><path id="_1164044165" serif:id="_116404416" d="M1139.66,2012.23l-0.461,-1.124l-0.018,-0.77" style="fill:none;stroke:#1f1a17;stroke-width:1.85px;"/><path id="_1164043445" serif:id="_116404344" d="M1167.1,2002.67l1.208,-0.131l0.683,-0.346" style="fill:none;stroke:#1f1a17;stroke-width:1.85px;"/><path id="_1164042725" serif:id="_116404272" d="M1128.11,2048.98l-0.461,-1.124l-0.018,-0.77" style="fill:none;stroke:#1f1a17;stroke-width:1.85px;"/><path id="_1163892165" serif:id="_116389216" d="M1140.3,2030.34l1.208,-0.132l0.682,-0.346" style="fill:none;stroke:#1f1a17;stroke-width:1.85px;"/><path id="_1163891445" serif:id="_116389144" d="M1123.61,2069.61l-0.46,-1.124l-0.019,-0.77" style="fill:none;stroke:#1f1a17;stroke-width:1.85px;"/><path id="_1164151846" serif:id="_116415184" d="M1153.23,2024.13l7.08,-3.66l12.62,-10.838l7.155,-15.58l0.841,-14.525l-3.366,-18.447l-6.692,-15.888l-15.886,-15.967l-12.893,-5.746l-10.626,-3.23l-7.616,1.834l-8.06,5.532l-6.133,12.109l-3.105,12.013l2.659,14.295l6.485,23.88l6.116,15.659l8.075,11.914l11.163,5.059l12.183,1.586Z" style="fill:#cdcdcd;fill-opacity:0.501961;stroke:#1f1a17;stroke-width:1.7px;"/><path id="_1164149686" serif:id="_116414968" d="M1151.3,2009.7c-0.717,0.001 -1.434,0.48 -2.152,0.481c-0.239,0.001 -0.478,0.24 -0.717,0.241l-0.478,0l-1.435,0.004c-0.239,0.239 0,0.238 -0.478,0.239" style="fill:none;stroke:#1f1a17;stroke-width:1.85px;"/><path id="_1164148966" serif:id="_116414896" d="M1160.35,1996.54l-5.714,1.006" style="fill:none;stroke:#1f1a17;stroke-width:1.85px;"/><path id="_1164148246" serif:id="_116414824" d="M1167.22,2003.58l-5.648,-1.166l-2.735,-1.692" style="fill:none;stroke:#1f1a17;stroke-width:1.85px;"/><path id="_1164147526" serif:id="_116414752" d="M1148.92,1984.69l-3.133,-11.544" style="fill:none;stroke:#1f1a17;stroke-width:1.85px;"/><path id="_1164146806" serif:id="_116414680" d="M1153.75,2015.18l-5.384,-10.676" style="fill:none;stroke:#1f1a17;stroke-width:1.85px;"/><path id="_1164146086" serif:id="_116414608" d="M1134.78,1972.39l-11.345,3.789" style="fill:none;stroke:#1f1a17;stroke-width:1.85px;"/><path id="_1164145366" serif:id="_116414536" d="M1128.77,1950.97l11.595,-2.931" style="fill:none;stroke:#1f1a17;stroke-width:1.85px;"/><path id="_1164144646" serif:id="_116414464" d="M1169.33,1973.14l-5.648,-1.167l-2.735,-1.691" style="fill:none;stroke:#1f1a17;stroke-width:1.85px;"/><path id="_1164051366" serif:id="_116405136" d="M1155.35,1962.92l-5.649,-1.166l-2.734,-1.692" style="fill:none;stroke:#1f1a17;stroke-width:1.85px;"/><path id="_1164050646" serif:id="_116405064" d="M1156.21,1982.02l-5.648,-1.166l-2.734,-1.692" style="fill:none;stroke:#1f1a17;stroke-width:1.85px;"/><path id="_1164049926" serif:id="_116404992" d="M1139.36,1970.09l-5.648,-1.166l-2.734,-1.692" style="fill:none;stroke:#1f1a17;stroke-width:1.85px;"/><path id="_1164049206" serif:id="_116404920" d="M1123.67,1951.5l4.126,-4.03l1.39,-2.899" style="fill:none;stroke:#1f1a17;stroke-width:1.85px;"/><path id="_1164048486" serif:id="_116404848" d="M1131.24,1955.51l-5.647,-1.162l-2.734,-1.691" style="fill:none;stroke:#1f1a17;stroke-width:1.85px;"/><path id="_1164047766" serif:id="_116404776" d="M1122.65,1934.84l4.128,-4.025l1.389,-2.899" style="fill:none;stroke:#1f1a17;stroke-width:1.85px;"/><path id="_1164047046" serif:id="_116404704" d="M1124.48,1941.78l-5.647,-1.162l-2.734,-1.691" style="fill:none;stroke:#1f1a17;stroke-width:1.85px;"/><path id="_1164046326" serif:id="_116404632" d="M1159.34,1956.43l-2.824,-0.581l-1.366,-0.843" style="fill:none;stroke:#1f1a17;stroke-width:1.85px;"/><path id="_1164045606" serif:id="_116404560" d="M1127.46,1962.86l-1.139,-0.433l-0.575,-0.506" style="fill:none;stroke:#1f1a17;stroke-width:1.85px;"/><path id="_1164044886" serif:id="_116404488" d="M1129.8,1938.99l0.725,-0.979l0.212,-0.736" style="fill:none;stroke:#1f1a17;stroke-width:1.85px;"/><path id="_1164044166" serif:id="_116404416" d="M1118.15,1948.38l-1.137,-0.429l-0.577,-0.51" style="fill:none;stroke:#1f1a17;stroke-width:1.85px;"/><path id="_1164043446" serif:id="_116404344" d="M1129.82,1921.77l0.727,-0.974l0.211,-0.735" style="fill:none;stroke:#1f1a17;stroke-width:1.85px;"/><path id="_1164042726" serif:id="_116404272" d="M1137.2,1981.86l-1.137,-0.429l-0.577,-0.51" style="fill:none;stroke:#1f1a17;stroke-width:1.85px;"/><path id="_1163892166" serif:id="_116389216" d="M1131.85,1960.24l0.726,-0.974l0.212,-0.736" style="fill:none;stroke:#1f1a17;stroke-width:1.85px;"/><path id="_1163891446" serif:id="_116389144" d="M1149.24,1999.2l-1.137,-0.428l-0.576,-0.511" style="fill:none;stroke:#1f1a17;stroke-width:1.85px;"/><path id="_1164151847" serif:id="_116415184" d="M1164.44,2005.33l7.863,1.299l16.596,-1.144l15.05,-8.212l9.357,-11.142l8.33,-16.8l4.134,-16.736l-3.19,-22.297l-6.9,-12.314l-6.588,-8.941l-7.2,-3.083l-9.769,-0.384l-12.156,6.041l-9.67,7.773l-6.415,13.049l-9.077,23.02l-4.459,16.209l-0.648,14.378l5.923,10.729l8.819,8.555Z" style="fill:#cdcdcd;fill-opacity:0.501961;stroke:#1f1a17;stroke-width:1.7px;"/><path id="_1164149687" serif:id="_116414968" d="M1171.52,1992.6c-0.576,-0.428 -1.436,-0.472 -2.012,-0.9c-0.192,-0.143 -0.527,-0.094 -0.719,-0.236l-0.384,-0.285l-1.152,-0.856c-0.335,0.049 -0.143,0.192 -0.526,-0.093" style="fill:none;stroke:#1f1a17;stroke-width:1.85px;"/><path id="_1164148967" serif:id="_116414896" d="M1186.64,1987.46l-5.181,-2.61" style="fill:none;stroke:#1f1a17;stroke-width:1.85px;"/><path id="_1164148247" serif:id="_116414824" d="M1187.94,1997.21l-3.831,-4.312l-1.181,-2.991" style="fill:none;stroke:#1f1a17;stroke-width:1.85px;"/><path id="_1164147527" serif:id="_116414752" d="M1184.56,1971.12l4.389,-11.127" style="fill:none;stroke:#1f1a17;stroke-width:1.85px;"/><path id="_1164146807" serif:id="_116414680" d="M1170.21,1998.46l2.066,-11.778" style="fill:none;stroke:#1f1a17;stroke-width:1.85px;"/><path id="_1164146087" serif:id="_116414608" d="M1180.58,1952.82l-11.359,-3.745" style="fill:none;stroke:#1f1a17;stroke-width:1.85px;"/><path id="_1164145367" serif:id="_116414536" d="M1188.57,1932.05l11.048,4.582" style="fill:none;stroke:#1f1a17;stroke-width:1.85px;"/><path id="_1164144647" serif:id="_116414464" d="M1207.83,1974.07l-3.831,-4.312l-1.181,-2.99" style="fill:none;stroke:#1f1a17;stroke-width:1.85px;"/><path id="_1164051367" serif:id="_116405136" d="M1202.74,1957.52l-3.831,-4.312l-1.18,-2.99" style="fill:none;stroke:#1f1a17;stroke-width:1.85px;"/><path id="_1164050647" serif:id="_116405064" d="M1192,1973.34l-3.831,-4.311l-1.181,-2.991" style="fill:none;stroke:#1f1a17;stroke-width:1.85px;"/><path id="_1164049927" serif:id="_116404992" d="M1185.63,1953.71l-3.831,-4.312l-1.18,-2.991" style="fill:none;stroke:#1f1a17;stroke-width:1.85px;"/><path id="_1164049207" serif:id="_116404920" d="M1184.17,1929.43l5.717,-0.764l2.847,-1.494" style="fill:none;stroke:#1f1a17;stroke-width:1.85px;"/><path id="_1164048487" serif:id="_116404848" d="M1187.83,1937.16l-3.832,-4.307l-1.181,-2.991" style="fill:none;stroke:#1f1a17;stroke-width:1.85px;"/><path id="_1164047767" serif:id="_116404776" d="M1193.31,1915.46l5.715,-0.758l2.847,-1.494" style="fill:none;stroke:#1f1a17;stroke-width:1.85px;"/><path id="_1164047047" serif:id="_116404704" d="M1190.63,1922.12l-3.833,-4.307l-1.18,-2.991" style="fill:none;stroke:#1f1a17;stroke-width:1.85px;"/><path id="_1164046327" serif:id="_116404632" d="M1209.81,1954.7l-1.916,-2.153l-0.591,-1.493" style="fill:none;stroke:#1f1a17;stroke-width:1.85px;"/><path id="_1164045607" serif:id="_116404560" d="M1180.41,1940.8l-0.654,-1.028l-0.159,-0.749" style="fill:none;stroke:#1f1a17;stroke-width:1.85px;"/><path id="_1164044887" serif:id="_116404488" d="M1196.56,1923.06l1.167,-0.352l0.609,-0.463" style="fill:none;stroke:#1f1a17;stroke-width:1.85px;"/><path id="_1164044167" serif:id="_116404416" d="M1181.6,1923.62l-0.656,-1.023l-0.156,-0.754" style="fill:none;stroke:#1f1a17;stroke-width:1.85px;"/><path id="_1164043447" serif:id="_116404344" d="M1206.87,1909.27l1.164,-0.347l0.609,-0.463" style="fill:none;stroke:#1f1a17;stroke-width:1.85px;"/><path id="_1164042727" serif:id="_116404272" d="M1176.86,1961.85l-0.655,-1.023l-0.157,-0.754" style="fill:none;stroke:#1f1a17;stroke-width:1.85px;"/><path id="_1163892167" serif:id="_116389216" d="M1185.49,1941.32l1.164,-0.347l0.609,-0.463" style="fill:none;stroke:#1f1a17;stroke-width:1.85px;"/><path id="_1163891447" serif:id="_116389144" d="M1176.14,1982.95l-0.656,-1.024l-0.156,-0.753" style="fill:none;stroke:#1f1a17;stroke-width:1.85px;"/></g></g><path id="_116415040" d="M1212.14,1783.85l-17.652,-14.593l-21.436,-10.11l-17.652,-2.251l-21.435,13.486l-30.262,29.204l-12.609,19.094l-18.914,25.847l-8.826,32.58l-5.044,31.455l8.827,50.567l10.087,60.659l12.609,52.817l29.001,40.44l27.74,16.862l31.522,-1.126l30.262,-13.486l21.435,-35.956l10.087,-47.191l0,-48.298l-2.522,-44.941l-1.261,-64.053l-1.26,-42.69l-13.87,-35.956l-8.827,-12.36Z" style="fill:none;stroke:#1f1a17;stroke-width:7.08px;"/></g><path d="M1802.41,1403.92l-16.273,-70.524l-13.561,-67.806l-13.561,-67.806l-2.713,-43.392l5.425,-54.245l2.712,-54.245l21.698,-27.123l0,-40.683l8.137,-73.231l-18.986,-73.23l-5.424,-54.245l-0.905,-12.657l-12.657,-1.808l6.329,50.628l0,40.684l-10.849,37.067" style="fill:none;stroke:#1f1a17;stroke-width:7.03px;"/><path d="M1873.77,933.83l4.283,13.564l18.562,4.283l8.567,-3.569l-7.853,-12.85l-0.714,-13.565l4.283,-13.564l8.567,4.284l9.995,16.419l16.42,14.279l54.256,9.28l59.255,-37.123l8.566,-28.556l8.567,-24.273l0,-27.128l-5.711,-17.848l-17.848,-8.567l-25.7,-1.427l-17.134,2.141l-12.85,-5.711l-20.703,-46.404l-7.139,-32.125l-0.714,-205.605l-6.425,-11.422l-17.134,-19.99l-17.134,-22.845l-5.711,-18.561l-4.284,-25.701l-8.566,-25.7l-11.423,-18.562l-16.42,-11.422l-24.272,-4.997l-16.42,1.427l-12.851,4.284l-9.28,4.997l-10.709,-1.428l-2.002,4.66l9.141,3.907l-4.997,7.853l-2.142,7.853l16.42,-1.428l9.281,-11.422l14.278,-4.998l16.42,-0.713l19.989,8.566l9.281,21.417l7.853,29.271l7.139,24.986l13.564,29.984l17.134,17.848l13.564,17.847l2.141,210.602l14.279,48.546l7.853,40.692l2.141,56.399l-9.384,9.251l-2.962,8.886l-2.962,6.771l-5.502,-0.423l-2.962,-6.771l-7.194,-3.385l-13.541,0l-5.501,-9.31l-10.579,-5.924l-11.426,2.115l-8.886,2.963l-9.733,11.002l-6.347,18.196l1.316,18.744Z" style="fill:#000f08;fill-opacity:0.317647;stroke:#1f1a17;stroke-width:3.51px;"/><path d="M1666.8,811.295l6.781,-37.971l-1.356,-32.547l-6.781,-35.259l10.849,-67.806l9.493,-35.259l20.342,-17.63l33.903,-16.273l37.971,-14.918l24.41,-13.561l21.698,-12.205l23.054,-16.273l20.342,-6.781l5.123,-10.019l0,-25.521l-10.368,-15.153l-5.583,-21.534l-20.736,1.595l-19.938,-4.785l-19.141,-7.178l0,-13.558l4.535,0.319l-0.784,-15.078c-1.083,-0.016 -2.366,1.101 -3.25,-0.049c-1.228,-5.331 -3.174,-7.323 2.874,-7.586c3.026,-1.416 7.182,-8.629 -5.885,-8.847l-0.845,-7.326l3.1,-3.099l2.536,-5.354l-2.536,-1.691l-10.708,-0.845l-6.199,-7.326l0.282,-5.354l8.453,-9.581l11.271,-12.68l6.481,-7.889l0.282,-10.708l-3.381,-9.017l-0.846,-8.171l3.663,-12.399l5.918,-23.387l7.044,-11.835l29.049,-22.856l21.948,-13.075l27.085,-11.208l20.546,-1.401l15.411,-2.334l29.419,3.268l29.419,8.406l21.014,13.542l14.944,16.344l11.674,19.613l4.203,21.014l1.401,27.085l-9.807,21.014l-13.542,24.282l-16.344,17.745l-11.208,10.274l-3.268,15.41l-3.736,12.141l-0.467,20.08l4.203,21.481l13.542,32.221l15.877,21.481l14.943,16.344l9.34,5.137l14.009,6.071l19.613,14.943l29.886,17.278l23.816,7.939l21.014,6.07l18.679,8.873l18.212,11.674l10.74,14.477l10.741,30.82l5.603,26.151l2.802,30.82l0.467,28.952l-5.603,18.679l-1.868,18.212l1.401,27.552l2.335,19.146" style="fill:none;stroke:#1f1a17;stroke-width:7.03px;"/><path d="M1858.38,1053.52l12.71,0l5.636,-6.447l8.842,-4.716l7.663,-0.589l10.02,-1.179l9.431,2.358l5.305,8.841l-1.179,6.484l6.484,0l4.716,-5.894l11.789,-2.947l10.61,-1.769l12.378,4.716l12.378,13.557l8.842,2.358l14.147,-3.537l2.357,-9.431l-12.967,0l-10.021,-1.768l-5.894,-5.895l-3.537,-7.073l2.947,-9.431l12.968,-9.431l8.842,-2.948l1.768,-8.252l-12.378,2.947l-11.2,8.842l-15.325,5.895l-15.915,5.305l-20.631,3.536l-14.146,-4.715l-14.147,-1.769l-17.094,-14.146l-3.537,-11.789l6.484,-9.431l9.431,-7.663l17.094,-8.252l31.241,-27.704l1.388,-8.47l2.148,-10.982l8.842,-4.126l10.021,-4.126l12.378,4.715l11.199,11.789l0.908,10.513l-23.307,39.001l-8.841,7.662l-8.252,5.895l-31.83,0l-7.074,-1.179l-0.589,9.431l10.02,4.716l24.168,-2.358l15.915,-8.842l12.967,-4.126l12.379,-7.663l8.252,-4.126l11.199,-1.768l16.505,2.947l7.073,7.073l1.768,16.505l-5.894,12.378l-9.431,2.358l-2.358,5.894l14.147,3.537l12.378,8.252l-1.768,12.379l-10.61,15.325l-7.663,5.895l-7.663,4.715l-12.378,1.768l-24.757,-2.357l-10.61,-5.895l-6.484,-5.894l-8.252,-0.59l-5.305,8.253l-8.841,5.305l-8.253,2.947l-11.199,-1.179l-9.431,-1.179l-6.484,-8.252l2.947,-9.431l-11.199,-3.537l-13.558,-1.768l-9.431,0.589l-1.252,-10.057Z" style="fill:#d7263d;stroke:#1f1a17;stroke-width:3.51px;"/><path d="M1973.59,945.218l-11.774,7.18l-22.267,-0.513l-15.101,-3.59l-15.356,0.77l-6.353,-4.943l-8.492,-1.98l-7.934,-0.257l-6.144,-8.461l-13.308,0.512l-4.095,-6.923l-7.167,-3.59l-10.494,-0.513l-5.886,-2.821l-7.423,3.078l-11.005,4.359l-11.262,5.641l-2.559,9.231l0,12.051l4.863,6.155l1.791,5.384l-3.328,3.077l-3.07,4.872l0.255,3.846l4.096,1.795l0,5.385l-7.167,5.385l-0.512,8.975l4.351,1.795l1.28,5.128l-0.768,6.154l-5.375,0l-1.023,11.026l5.118,2.564l0.256,5.898l-5.118,1.795l-2.816,6.153l1.535,5.129l6.911,5.385l-1.023,6.41l-2.56,5.128l1.023,8.462l7.167,3.333l1.791,9.744l2.56,9.488l7.166,10.513l11.774,9.487l9.982,3.591l8.702,0.768l12.03,-3.333l7.934,-5.898l5.374,-11.539l2.304,-12.05l-3.839,-11.539l-5.887,-7.18l-5.886,-5.642l0.512,-6.575l-3.328,-5.732l-4.863,-2.821l0.768,-6.667l1.279,-7.436l-7.933,-8.462l-0.256,-10.513l-3.584,0l0,-7.18l5.119,-1.538l-1.535,-9.231l-4.351,-0.77l1.023,-6.41l4.607,-0.513l-0.256,-7.179l-5.118,-1.539l0.256,-11.026l10.493,-0.513l8.958,10.001l10.494,-1.026l12.288,10.024l16.634,-1.05l1.792,4.104l26.362,0l2.815,3.845l10.494,-0.769l3.071,-3.59l19.965,0.257l7.933,-7.693l16.381,1.283l6.654,-6.924l5.375,-4.615l7.679,0.769l8.958,-6.924l6.655,-1.025l3.071,8.718l-0.512,14.103l1.023,7.692l3.84,1.026l0,5.385l-4.607,1.539l0.256,7.949l4.095,1.282l0,8.974l-4.095,2.308l1.023,7.436l4.863,2.821l0,8.205l-5.375,3.334l0,10.256l4.096,1.795l0,6.154l-3.584,0.513l-4.607,5.385l-2.815,8.974l0.768,5.642l-6.654,2.564l-1.28,6.41l-3.584,1.282l0.513,8.461l-7.935,-0.768l-3.839,4.615l-2.56,2.821l-0.256,7.179l-6.398,0l-3.328,7.949l-1.279,8.462l-2.816,1.283l1.792,-8.463l-4.095,-3.846l-1.791,-9.487l-6.144,-6.667l-5.63,-6.154l-6.143,-3.847l-7.678,-1.538l-9.726,0.257l-7.935,3.077l-6.91,5.127l-5.375,8.463l-3.583,5.129l0,9.486l-0.512,13.59l4.607,2.564l0,13.592l-4.351,2.052l0.768,20.511l4.095,5.894l3.071,7.189l3.327,1.792l0,9.997l0.512,6.153l14.077,0.518l0,-13.591l2.304,-7.697l3.84,-4.102l0,-9.997l3.838,-2.31l0.256,-12.306l-6.143,-14.104l2.304,-2.051l6.91,11.794l10.494,6.412l28.667,-0.767l7.677,-8.204l-1.279,-3.082l5.63,-4.872l3.84,1.283l5.63,-7.949l-2.558,-6.154l5.118,-5.385l5.887,-2.308l5.375,-5.385l-0.512,-6.923l6.399,-3.077l3.327,-10l5.374,0.513l-1.023,-7.437l7.422,-6.41l3.84,-9.488l0.256,-13.077l3.583,-4.102l-1.28,-18.462l7.167,-5.898l0.256,-13.847l-4.096,-2.308l-0.767,-8.205l4.095,-0.256l-0.512,-7.18l-3.327,-0.77l0.255,-14.102l5.119,-1.282l0,-11.026l-4.863,0.256l0.256,-7.949l4.607,-0.512l0.512,-15.386l-5.375,-1.795l0.512,-6.666l4.863,-0.77l2.816,-8.718l-1.792,-7.18l-2.815,-2.821l1.023,-21.538l-5.886,-6.923l-5.119,-3.078l-6.757,-3.889l-7.064,1.325l-4.863,4.104l-6.143,4.102l-3.84,3.589l-3.582,4.872l-0.513,8.205l-4.094,1.283l-5.12,6.154l-5.119,3.334l0,4.872l-6.142,-0.513l-1.535,3.589l-6.4,0.257l-6.398,5.641l-3.583,4.103l-13.093,-1.248l-6.871,4.837Z" style="fill:#aeb3b1;stroke:#1f1a17;stroke-width:3.51px;"/><path d="M2108.26,1335.14l0,-28.626l12.052,-55.739l9.039,-66.282l-7.533,-79.847l-1.506,-51.22l-22.597,-37.662l1.506,-49.713l-6.025,-40.675l-4.52,-45.194l27.117,-60.258l-0.34,-19.242l4.716,-33.009l5.867,1.129l-3.645,19.789l-1.041,18.588l0,9.532l0.787,30.811l5.461,24.908" style="fill:none;stroke:#1f1a17;stroke-width:7.03px;"/><path d="M1937.26,1366.57l-2.261,-33.903l6.781,-42.943l1.13,-74.587l5.484,1.304l-1.562,40.614l5.207,33.336l4.687,33.325l0.521,21.348l5.207,27.6l2.083,12.496" style="fill:none;stroke:#1f1a17;stroke-width:7.03px;"/><g><g><path d="M2486.07,1376.06l9.33,-5.934l5.078,-11.869l-1.693,-12.704l-9.319,-9.32l-16.947,-5.088l-15.254,0.846l-11.858,7.627l-14.408,16.947l-6.78,22.881l5.088,27.112l6.78,20.342l11.271,11.639l20.043,8.842l22.981,0.587l20.63,-2.359l21.228,-7.657l15.911,-13.561l12.964,-17.684l7.079,-17.683l4.71,-15.911l-1.175,-19.456l-4.72,-18.858l-10.016,-22.99l-10.614,-20.631l-18.858,-23.577l-8.842,-12.974l-5.307,-15.324l-4.71,-11.201l3.535,-17.683l1.175,-18.859l-4.122,-15.323l-6.482,-15.329l-2.947,-5.894l-8.254,-1.179l-8.842,8.252l0.587,22.404l4.72,12.376l-1.185,12.377l-5.307,12.963l-2.947,20.631l10.614,24.175l17.683,27.113l12.964,20.63l13.561,22.393l4.122,24.175l-2.947,22.393l-7.657,18.271l-10.614,10.026l-22.99,5.895l-18.858,-1.185l-15.324,-5.895l-2.36,-10.016l0,-17.096l3.535,-12.376l8.842,-6.482l10.614,0.587l3.654,2.33l-0.667,7.348l3.305,0.936Z" style="fill:#c2c1c1;stroke:#1f1a17;stroke-width:3.51px;"/><path d="M2487.87,1232.11l9.747,1.086l5.955,-9.748l0.547,-12.466l1.075,-15.702l-3.783,-11.918l-2.708,-10.833l-3.256,-7.043l-5.417,0.542l-0.537,9.747l1.085,10.833l2.708,7.049l-1.085,12.456l-1.623,14.079l-2.708,11.918Z" style="fill:#605d5c;stroke:#1f1a17;stroke-width:3.51px;"/><path d="M2490.58,1356.15l-5.417,-8.125l-8.672,-4.341l-12.994,2.17l-14.626,5.954l-11.381,10.296l-7.039,13.541l1.623,21.666l8.672,21.666l14.627,15.712l17.324,5.417l20.591,-0.548l23.289,-5.417l16.787,-6.501l10.833,-13.542l12.456,-24.374l7.587,-20.033l0,-17.883l-3.016,-24.424l-4.78,-9.14l-9.538,-8.682l-11.919,-17.335l-11.908,-19.496l-9.21,-11.918l-4.879,-8.125l-2.161,-8.125l-9.21,-11.37l-4.879,-0.548l1.623,8.673l11.381,19.495l11.371,18.42l9.748,13.541l11.38,20.044l3.794,15.701l9.2,8.673l5.964,5.416l1.902,13.333l-2.45,15.373l-7.577,20.043l-12.456,20.581l-14.089,14.079l-25.459,2.17l-18.41,2.161l-16.798,-7.577l-15.164,-15.165l-11.371,-16.797l-0.258,-14.945l3.833,-8.364l7.647,-8.363l8.692,-6.263l11.829,-4.879l9.738,0.697l6.959,3.136l2.778,4.521l4.033,-0.199Z" style="fill:#fff;stroke:#1f1a17;stroke-width:3.51px;"/></g><path d="M2296.57,1487.69l0.856,33.515l3.654,16.08l10.545,57.959l12.038,36.133l18.071,35.377l17.315,19.575l13.541,14.298l30.867,20.322l22.582,10.544l27.102,6.024l30.856,4.51l16.559,-4.51l11.291,-6.781l-0.897,-3.365l-4.52,3.037l-6.064,3.385l-6.352,1.444l-6.611,0.846l-15.553,-1.902l-21.298,-3.226l-17.414,-4.52l-20.651,-10.963l-16.13,-10.972l-20.003,-16.777l-10.315,-20.641l-16.777,-40.654l-6.452,-32.907l-1.942,-53.548l3.873,-40.006l-29.512,-7.518l-18.659,-4.759Z" style="fill:#dededd;stroke:#1f1a17;stroke-width:3.51px;"/><path d="M2357.53,1144.36l-9.031,-3.764l-7.528,12.044l4.521,12.796l1.503,19.57l4.521,24.086l-4.521,24.842l-11.291,34.63l-12.794,40.644l-9.031,39.897l-8.284,45.164l8.284,-45.164l-14.308,62.479l-3.007,40.644l0,35.466l8.842,10.455l18.34,2.638l17.325,20.491l10.763,-63.245l7.1,-23.22l5.804,-29.034l5.158,-32.26l1.942,-37.428l10.325,-38.065l5.805,-25.161l-2.579,-39.359l-5.815,-24.514l-1.932,-18.718l-7.099,-20.644l-5.157,-12.259l-7.856,-13.011Z" style="fill:#aaa9a9;stroke:#1f1a17;stroke-width:3.51px;"/><path d="M2359.56,1217.76l7.458,0.677l6.78,-3.395l0.876,-16.369l-4.849,-14.835l-4.062,-12.972l-4.401,-9.113l-6.98,-13.579l-7.726,2.765l2.648,9.263l3.475,16.871l4.073,12.201l2.061,14.019l0.647,14.467Z" style="fill:#4d4948;stroke:#1f1a17;stroke-width:3.51px;"/><path d="M2349.26,1278.67l-6.452,1.295l-3.874,8.383l-9.031,25.161l-5.804,31.613l-9.678,46.459l-2.589,35.486l-5.805,30.328l-1.932,32.26l5.805,37.418l7.747,1.932l3.863,-23.219l-3.863,-14.846l0,-19.356l8.383,-19.356l1.295,-20.004l7.089,-36.123l14.846,-9.678l2.578,-20.65l-7.746,-3.226l-1.284,8.383l-7.747,-0.637l-0.647,-20.65l7.746,-25.161l7.747,-25.161l0.478,-9.439l2.33,-7.767l7.746,-1.553l5.038,-6.99l0.388,-8.931l-7.746,0.388l-8.881,13.641Z" style="fill:#fff;stroke:#1f1a17;stroke-width:3.51px;"/><path d="M2358.15,1224.18l-1.045,15.104l1.563,9.369l9.379,3.645l7.288,-8.334l-2.608,-20.302l-6.761,1.035l0.259,13.283" style="fill:none;stroke:#1f1a17;stroke-width:3.51px;"/><path d="M2347.74,1251.27l4.162,7.289l-2.599,6.77" style="fill:none;stroke:#1f1a17;stroke-width:3.51px;"/><path d="M2370.65,1285.63l-9.887,14.059l-8.862,15.105l-9.628,16.14l-3.983,6.123l12.058,1.693l9.887,-10.933l1.563,-9.897" style="fill:none;stroke:#1f1a17;stroke-width:3.51px;"/><path d="M2325.81,1495.15l1.613,-17.365l9.38,-14.059l2.081,-19.784l0.517,-18.231l0.528,-17.186l6.243,-5.725" style="fill:none;stroke:#1f1a17;stroke-width:3.51px;"/><path d="M2346.69,1419.46l6.77,-10.415l5.735,-11.45" style="fill:none;stroke:#1f1a17;stroke-width:3.51px;"/><path d="M2347.74,1438.21l5.725,-4.162l2.091,-11.461l3.117,-9.887" style="fill:none;stroke:#1f1a17;stroke-width:3.51px;"/></g><path d="M492.675,1579.21c12.332,-4.191 26.57,-7.752 38.494,-11.131c10.991,-3.114 23.977,-6.003 33.05,-9.143c7.446,-2.576 15.33,-5.212 21.389,-9.695c6.059,-4.482 10.211,-12.322 14.966,-17.201c4.236,-4.346 10.209,-8.23 13.566,-12.075c2.768,-3.171 3.177,-9.159 6.578,-10.996c3.401,-1.837 11.014,-1.684 13.828,-0.025c2.815,1.66 3.266,6.692 3.059,9.983c-0.253,4.003 -2.852,9.82 -4.575,14.036c-1.613,3.945 -3.682,7.619 -5.765,11.259c-2.75,4.804 -6.838,12.643 -10.736,17.569c-3.634,4.59 -8.786,7.619 -12.657,11.982c-4.516,5.092 -8.967,13.035 -14.444,18.571c-7.003,7.078 -19.235,18.456 -27.573,23.896c-6.666,4.349 -14.882,6.025 -22.458,8.745c-9.573,3.437 -23.818,6.873 -34.977,11.877c-15.864,7.114 -52.853,18.89 -83.473,33.583c-25.462,12.218 -45.337,27.699 -55.88,32.719c-0.011,0.005 0.026,0.031 0.016,0.036c-5.37,3.106 -22.104,11.478 -32.236,18.599c-11.794,8.289 -28.729,21.99 -38.529,31.137c-7.566,7.063 -14.53,14.935 -20.268,23.744c-6.599,10.132 -14.666,27.476 -19.33,37.049c-3.211,6.592 -7.347,12.857 -8.649,20.385c-1.357,7.856 0.035,18.932 0.503,26.751c0.4,6.697 1.158,13.441 2.304,20.166c1.258,7.381 3.047,17.144 5.242,24.122c1.923,6.11 4.993,11.945 7.931,17.744c3.224,6.364 11.943,19.457 11.41,20.436c-0.532,0.979 -10.783,-8.815 -14.607,-14.56c-4.617,-6.937 -9.778,-18.286 -13.094,-27.061c-3.157,-8.35 -5.229,-16.996 -6.806,-25.584c-1.952,-10.634 -4.4,-28.561 -4.91,-38.218c-0.358,-6.755 1.105,-13.185 1.844,-19.726c0.861,-7.61 0.936,-17.774 3.32,-25.933c2.982,-10.203 8.967,-24.334 14.57,-35.283c5.5,-10.748 11.792,-21.029 19.043,-30.411c9.213,-11.919 28.595,-32.244 36.229,-41.101c3.34,-3.874 5.835,-8.596 9.579,-12.041c5.655,-5.203 16.134,-12.91 24.347,-19.174c8.45,-6.445 17.273,-13.412 26.352,-19.496c9.75,-6.534 20.736,-14.314 32.149,-19.708c14.641,-6.919 40.499,-15.837 55.699,-21.808c11.843,-4.653 23.408,-9.909 35.499,-14.019Z" style="fill:none;stroke:#1f1a17;stroke-width:7.08px;"/><path d="M2006.39,1074.77l290.18,133.023" style="fill:none;stroke:#1f1a17;stroke-width:9px;"/><g><path d="M196.613,690.959c7.315,14.236 16.523,48.635 16.886,88.919c0.268,29.789 -9.931,78.429 -5.276,108.901c6.055,39.648 28.565,58.088 42.956,62.034c3.771,1.034 38.627,9.492 53.193,-24.143c13.418,-30.986 -9.993,-112.711 6.772,-160.954c24.202,-69.64 63.651,-119.839 97.872,-177.055c41.763,-69.824 95.981,-147.694 103.222,-126.607c2.221,6.468 21.333,3.931 9.082,25.763c-5.829,10.387 -117.534,190.003 -129.03,209.266c-16.415,27.506 -25.644,61.756 -36.671,91.715c-9.817,55.213 23.544,120.764 -0.526,161.789c-45.023,76.738 -132.101,40.958 -137.431,39.979c-106.399,-41.753 -40.098,-222.552 -59.49,-259.096c-14.764,-39.973 -70.982,-80.713 -119.332,-118.065c-39.33,-34.101 -47.013,-81.819 -23.454,-128.098c12.227,-31.496 63.127,-89.615 63.127,-89.615c0,0 -30.58,37.083 -37.659,97.01c-2.471,18.729 -2.829,48.001 13.656,66.734c46.377,52.699 109.167,67.428 142.103,131.523Z" style="fill:none;stroke:#000;stroke-width:4.17px;stroke-linecap:round;stroke-linejoin:round;stroke-miterlimit:1.5;"/><path d="M369.169,712.651c0.286,4.046 -19.972,15.936 -23.214,11.405c-2.882,-4.027 11.582,-19.223 14.681,-19.078c1.098,0.052 4.383,-1.104 5.514,-1.837c2.954,-1.916 103.71,-164.496 125.873,-202.289c4.528,-7.72 3.341,-17.237 7.105,-24.469c4.002,-7.69 9.6,-13.203 11.341,-12.892c1.115,0.2 2.825,0.059 2.02,2.904c-0.776,2.742 -5.01,8.003 -6.465,12.937c-1.101,3.735 -3.135,8.32 -4.237,13.086c-0.505,2.184 -131.696,218.524 -132.446,219.925c-0.058,0.108 -0.115,0.211 -0.172,0.308Z" style="fill:none;stroke:#000;stroke-width:4.17px;stroke-linejoin:miter;stroke-miterlimit:10;"/></g><path d="M1014.64,37.943c-2.196,-11.597 -132.492,-52.412 -120.744,-25.243c18.836,43.558 36.988,85.353 49.567,121.299c3.806,10.877 3.667,20.365 5.86,32.545c2.005,11.138 2.844,34.235 4.425,42.755c2.971,16.022 6.071,19.406 11.773,37.257c7.797,24.415 5.208,45.301 9.818,48.829c8.956,6.853 21.135,12.291 39.301,13.262c18.963,1.014 44.161,-2.625 64.912,-4.096c2.649,-0.187 -39.688,-8.952 -36.962,-9.166c6.294,-0.496 44.301,11.61 51.414,13.262c19.865,4.614 45.606,14.575 65.432,12.956c8.445,-0.689 33.145,-2.497 41.592,-11.709c-4.457,-3.525 1.506,1.079 -11.589,-11.591c-5.758,-5.572 6.82,15.225 25.735,15.837c16.577,8.644 32.453,7.668 41.093,4.569c4.115,-1.477 8.031,-9.355 10.293,-17.468c2.157,-10.793 -31.778,-28.533 -51.386,-27.384c-4.786,0.281 41.274,1.855 51.621,26.785c0.441,1.403 7.24,1.516 9.392,-5.754c-0.308,-12.026 -2.342,-21.238 -24.35,-25.636c5.538,2.692 22.892,-0.395 24.052,20.597c1.151,1.303 2.827,0.6 5.001,-0.964c11.255,-8.093 -0.777,-18.16 -5.001,-19.633c-8,-2.792 10.721,4.527 9.236,12.133c1.948,-2.854 6.843,0.971 8.537,-2.974c3.226,-7.512 -3.16,-11.705 -6.566,-13.754c-5.461,-3.285 -20.391,-5.985 -54.8,-5.552c-15.269,0.192 -28.599,-4.282 -42.857,-9.443c-18.635,-6.745 -37.003,-14.585 -41.673,-18.254c-19.018,-14.94 -50.843,-18.245 -73.983,-35.917c-22.362,-17.079 -56.782,-145.075 -59.143,-157.548Z" style="fill:none;stroke:#080700;stroke-width:7.08px;stroke-linecap:round;stroke-linejoin:round;stroke-miterlimit:1.5;"/><path d="M1917.43,1464.22c-117.455,247.184 -342.947,433.257 -615.29,497.036" style="fill:none;stroke:#000f08;stroke-width:12.5px;stroke-linecap:square;stroke-linejoin:round;stroke-miterlimit:1.5;"/><path d="M997.257,1980.14c-193.207,-20.395 -368.493,-101.269 -506.549,-223.316" style="fill:none;stroke:#000f08;stroke-width:12.5px;stroke-linecap:square;stroke-linejoin:round;stroke-miterlimit:1.5;"/><path d="M321.807,1558c-88.2,-140.289 -139.23,-306.263 -139.23,-484.061" style="fill:none;stroke:#000f08;stroke-width:12.5px;stroke-linecap:square;stroke-linejoin:round;stroke-miterlimit:1.5;"/><path d="M263.736,697.717c109.844,-241.744 322.221,-427.188 581.456,-500.659" style="fill:none;stroke:#d7263d;stroke-width:12.5px;stroke-linecap:square;stroke-linejoin:round;stroke-miterlimit:1.5;"/><path d="M917.655,194.735l-101.333,66.152l-12.389,-107.527l113.722,41.375Z" style="fill:#d7263d;stroke:#d7263d;stroke-width:12.5px;stroke-linecap:square;stroke-linejoin:round;stroke-miterlimit:1.5;"/><path d="M1734.36,435.489l-115.635,-35.682l74.799,-78.235l40.836,113.917Z" style="stroke:#000;stroke-width:12.5px;stroke-linecap:square;stroke-linejoin:round;stroke-miterlimit:1.5;"/><path d="M188.075,1029.75l48.552,110.848l-108.099,-5.497l59.547,-105.351Z" style="fill:#000f08;stroke:#000f08;stroke-width:12.5px;stroke-linecap:square;stroke-linejoin:round;stroke-miterlimit:1.5;"/><path d="M453.076,1725.87l118.607,24.018l-66.657,85.279l-51.95,-109.297Z" style="fill:#000f08;stroke:#000f08;stroke-width:12.5px;stroke-linecap:square;stroke-linejoin:round;stroke-miterlimit:1.5;"/><path d="M1275.86,1967.55l92.504,-78.024l25.417,105.212l-117.921,-27.188Z" style="fill:#000f08;stroke:#000f08;stroke-width:12.5px;stroke-linecap:square;stroke-linejoin:round;stroke-miterlimit:1.5;"/><path d="M1142.57,171.812c208.641,10.702 398.754,92.032 546.871,220.523" style="fill:none;stroke:#000;stroke-width:12.5px;stroke-linecap:square;stroke-miterlimit:1;"/></svg>