<?xml version="1.0" encoding="UTF-8" standalone="no"?><!DOCTYPE svg PUBLIC "-//W3C//DTD SVG 1.1//EN" "http://www.w3.org/Graphics/SVG/1.1/DTD/svg11.dtd"><svg width="100%" height="100%" viewBox="0 0 449 316" version="1.1" xmlns="http://www.w3.org/2000/svg" xmlns:xlink="http://www.w3.org/1999/xlink" xml:space="preserve" xmlns:serif="http://www.serif.com/" style="fill-rule:evenodd;clip-rule:evenodd;stroke-linecap:round;stroke-linejoin:round;stroke-miterlimit:1.5;"><g><path d="M401.659,167.667c0,-2.835 -15.523,-12.324 -18.358,-12.324l0,3.439c-2.835,0 9.54,13.263 9.54,16.098l11.135,37.145c3.64,-0.851 2.798,5.845 2.49,8.114c-0.357,2.633 -6.264,3.517 -8.309,6.934c-5.939,9.923 -17.78,22.745 -24.832,39.527c-3.166,7.534 -3.49,21.812 -5.935,28.119c-4.944,12.748 -5.701,20.594 -4.842,20.594l4.842,0c0.648,0 1.352,-9.312 5.935,-17.352c3.066,-5.378 0.531,-18.525 4.612,-25.492c4.042,-6.9 7.64,-13.165 12.466,-19.777c14.85,-20.346 28.092,-35.683 28.092,-37.006l-9.383,-28.951l0,-3.216l-7.453,-15.852Z" style="fill:#e7e8e9;stroke:#231f20;stroke-width:0.63px;"/><path d="M417.025,145.106c0,2.835 -29.161,8.159 -31.996,8.159l0,-3.439c-2.835,0 20.675,-7.704 20.675,-10.539l31.829,-20.138c3.641,0.851 -20.508,-48.68 -20.508,-48.68c0,-3.448 0,-11.679 0,-11.679c0,0 -0.029,-39.346 4.052,-32.379c2.514,4.292 1.853,19.87 2.388,28.945c0.325,5.514 2.254,6.886 2.254,6.886c0,0 5.015,17.971 5.015,19.293l17.575,43.392l-35.327,20.179l4.043,0Z" style="fill:#e7e8e9;stroke:#231f20;stroke-width:0.63px;"/><path d="M16.448,63.615c1.261,-1.739 15.15,11.535 15.15,11.535l7.937,10.439l-2.604,10.852l-12.9,-10.852c0,0 -8.844,-20.234 -7.583,-21.974Z" style="fill:#e7e8e9;stroke:#231f20;stroke-width:0.63px;"/><path d="M0.313,150.053c0,0 13.065,-3.228 19.492,-5.213c3.03,-0.935 3.933,-5.627 8.864,-7.286c8.505,-2.864 21.19,-2.801 21.19,-2.801l-12.999,12.474c0,0 -11.31,2.382 -17.055,2.826c-6.092,0.471 -19.492,0 -19.492,0Z" style="fill:#e7e8e9;stroke:#231f20;stroke-width:0.63px;"/><path d="M35.788,205.48c0,0 12.333,-7.416 18.759,-9.4c3.031,-0.936 9.274,-7.171 14.204,-8.831c8.506,-2.864 18.846,-6.372 18.846,-6.372l-15.994,15.203c0,0 -11.264,4.117 -17.056,5.637c-5.969,1.567 -18.759,3.763 -18.759,3.763Z" style="fill:#e7e8e9;stroke:#231f20;stroke-width:0.63px;"/><path d="M48.556,25.43c0,0 9.5,10.81 15.02,14.653c2.603,1.811 6.658,9.648 10.851,12.726c7.235,5.312 16.021,11.795 16.021,11.795l-10.622,-19.343c0,0 -9.482,-7.343 -14.538,-10.55c-5.212,-3.305 -16.732,-9.281 -16.732,-9.281Z" style="fill:#e7e8e9;stroke:#231f20;stroke-width:0.63px;"/><path d="M116.468,1.448c0,0 2.34,14.2 4.991,20.381c1.25,2.915 0.544,11.71 2.473,16.541c3.328,8.335 7.353,18.485 7.353,18.485l1.222,-22.033c0,0 -4.16,-11.248 -6.753,-16.645c-2.673,-5.562 -9.286,-16.729 -9.286,-16.729Z" style="fill:#e7e8e9;stroke:#231f20;stroke-width:0.63px;"/><path d="M164.705,0.313c0,0 3.997,13.824 7.358,19.65c1.585,2.747 1.921,11.564 4.406,16.134c4.288,7.885 9.481,17.49 9.481,17.49l-1.384,-22.024c0,0 -5.457,-10.679 -8.668,-15.733c-3.31,-5.208 -11.193,-15.517 -11.193,-15.517Z" style="fill:#e7e8e9;stroke:#231f20;stroke-width:0.63px;"/><path d="M265.134,7.725c0,0 -6.16,13.006 -7.499,19.597c-0.631,3.108 -6.218,9.937 -7.383,15.007c-2.008,8.748 -4.477,19.384 -4.477,19.384l13.547,-17.419c0,0 2.983,-11.616 3.923,-17.529c0.968,-6.095 1.889,-19.04 1.889,-19.04Z" style="fill:#e7e8e9;stroke:#231f20;stroke-width:0.63px;"/><path d="M346.921,31.739c0,0 -6.159,13.007 -7.498,19.598c-0.632,3.108 -6.219,9.937 -7.383,15.007c-2.008,8.747 -4.477,19.384 -4.477,19.384l13.547,-17.42c0,0 2.983,-11.615 3.923,-17.529c0.968,-6.095 1.888,-19.04 1.888,-19.04Z" style="fill:#e7e8e9;stroke:#231f20;stroke-width:0.63px;"/><path d="M171.871,247.051c0,0 -1.204,-14.341 -0.145,-20.983c0.499,-3.131 1.737,-9.361 2.426,-14.517c1.188,-8.896 6.112,13.062 5.108,17.993c-1.231,6.047 -7.389,17.507 -7.389,17.507Z" style="fill:#e7e8e9;stroke:#231f20;stroke-width:0.63px;"/><path d="M248.122,250.028c0,0 -1.204,-14.34 -0.146,-20.982c0.499,-3.132 1.737,-9.362 2.426,-14.518c1.189,-8.896 6.113,13.062 5.108,17.993c-1.231,6.047 -7.388,17.507 -7.388,17.507Z" style="fill:#e7e8e9;stroke:#231f20;stroke-width:0.63px;"/><path d="M304.573,250.091c0,0 -1.204,-14.341 -0.145,-20.983c0.499,-3.132 1.737,-9.361 2.426,-14.518c1.188,-8.895 6.112,13.062 5.108,17.994c-1.231,6.047 -7.389,17.507 -7.389,17.507Z" style="fill:#e7e8e9;stroke:#231f20;stroke-width:0.63px;"/><path d="M22.432,114.8l7.59,-5.524l7.524,5.524l-15.114,0Z" style="fill:#e7e8e9;stroke:#231f20;stroke-width:0.63px;"/><path d="M26.096,99.776l5.681,7.474l8.795,-3.126l-14.476,-4.348Z" style="fill:#e7e8e9;stroke:#231f20;stroke-width:0.63px;"/><path d="M70.33,51.043c-9.31,-2.495 -20.809,3.332 -20.809,3.332c0,0 13.769,7.225 17.37,20.732c2.916,10.938 -5.034,16.112 -4.514,28.767c0.811,19.77 -1.913,40.847 -2.704,43.809c-1.911,7.159 -23.73,16.246 -23.73,16.246c0,0 10.738,10.101 21.781,5.534c4.219,-1.744 16.082,-6.157 17.547,-15.661c1.411,-9.157 -3.942,-21.589 -2.793,-40.6c0.034,-0.568 3.867,-12.709 3.895,-18.72c0.003,-0.515 7.343,-18.357 7.019,-24.596c-0.376,-7.221 -9.244,-17.819 -13.062,-18.843Z" style="fill:#e7e8e9;stroke:#231f20;stroke-width:0.63px;"/><path d="M38.439,88.383c1.195,-1.631 0.343,-5.585 2.365,-5.585c2.784,0 14.343,5.585 14.343,5.585l-16.708,16.008c0,0 -6.49,-6.836 -6.49,-9.504c0,-2.668 5.015,-4.489 6.49,-6.504Z" style="fill:#e7e8e9;stroke:#231f20;stroke-width:0.63px;"/><path d="M24.478,108.443c0,0 10.589,-4.419 15.23,-7.713c5.31,-3.769 16.635,-14.9 16.635,-14.9l-5.692,48.951c0,0 -6.581,-12.742 -10.943,-17.132c-4.182,-4.208 -15.23,-9.206 -15.23,-9.206Z" style="fill:#e7e8e9;stroke:#231f20;stroke-width:0.63px;"/><path d="M2.618,145.19c0.512,2.087 18.383,-4.966 18.383,-4.966l11.289,-6.672l1.683,-11.033l-16.041,5.183c0,0 -15.825,15.401 -15.314,17.488Z" style="fill:#e7e8e9;stroke:#231f20;stroke-width:0.63px;"/><path d="M57.465,66.418c-3.717,-1.042 -7.648,-3.03 -10.623,-3.035c-5.182,-0.009 -8.292,4.134 -8.269,4.489c0,0 -0.172,3.131 4.132,5.839c4.188,2.635 10.461,3.467 12.392,8.493c3.171,8.253 -3.107,12.013 -2.542,21.561c0.883,14.917 -1.328,31.137 -3.428,32.287c-2.621,1.436 -5.377,4.999 -8.564,6.203c-7.531,2.847 -15.486,2.615 -15.486,2.615c-2.018,1.222 4.686,10.586 13.496,14.068c7.456,2.946 18.87,-6.036 22.631,-9.86c3.997,-4.065 3.419,-28.933 2.734,-45.313c-0.016,-0.401 6.51,-22.939 6.157,-27.646c-0.409,-5.448 -8.528,-8.551 -12.63,-9.701Z" style="fill:#e7e8e9;stroke:#231f20;stroke-width:0.63px;"/><path d="M31.689,129.855c0.5,1.959 -0.092,8.075 0.111,6.064c0.111,-1.096 5.421,2.365 8.625,1.839c5.163,-0.847 9.676,-4.639 9.676,-4.639l-12.162,-17.369c0,0 -8.805,3.298 -9.847,5.649c-1.042,2.351 2.979,6.036 3.597,8.456Z" style="fill:#e7e8e9;stroke:#231f20;stroke-width:0.63px;"/><path d="M112.212,84.458c-0.173,-5.885 0.932,-12.203 -1.869,-17.562c0,0 -15.345,-19.994 -22.564,-23.993c-6.051,-3.352 -20.565,0.317 -20.75,0c0,0 14.328,16.527 15.367,26.76c1.068,10.534 -6.032,17.29 -8.955,36.442c-2.474,16.216 -3.636,35.479 0,43.936c4.157,9.668 -29.276,28.028 -25.307,28.028c0,0 9.972,3.67 14.739,5.995c9.461,4.615 33.06,-10.306 39.945,-27.774c4.221,-10.709 7.929,-14.017 9.394,-25.896c1.945,-15.764 0.312,-35.353 0,-45.936Z" style="fill:#e7e8e9;stroke:#231f20;stroke-width:0.63px;"/><path d="M135.708,34.966c-8.718,-13.917 -52.88,2.458 -52.88,2.458c0,0 13.983,8.364 23.134,29.059c8.147,18.424 2.179,68.349 0,75.982c-7.83,27.435 -39.819,48.43 -39.819,48.43c0,0 39.428,25.866 52.376,14.043c6.594,-6.021 15.649,-13.272 19.908,-27.712c4.103,-13.914 3.494,-34.7 5.402,-57.271c1.946,-23.023 4.89,-46.772 3.205,-63.699c-1.092,-10.971 -8.371,-16.572 -11.326,-21.29Z" style="fill:#e7e8e9;stroke:#231f20;stroke-width:0.63px;"/><path d="M178.515,31.59c-8.718,-13.917 -47.799,-6.329 -47.799,-6.329c0,0 2.387,0.794 11.538,21.489c8.147,18.424 -3.183,130.502 -7.635,137.075c-16.993,25.086 -21.689,29.812 -21.689,29.812c0,0 38.105,11.824 51.053,0c6.594,-6.021 11.377,-11.08 11.934,-26.124c1.831,-49.515 0.69,-46.67 2.598,-69.241c1.946,-23.022 9.557,-48.067 7.872,-64.994c-1.092,-10.972 -4.917,-16.97 -7.872,-21.688Z" style="fill:#e7e8e9;stroke:#231f20;stroke-width:0.63px;"/><path d="M220.582,34.837c-8.717,-14.504 -47.799,-9.961 -47.799,-9.961c0,0 5.158,-0.149 11.538,22.394c3.161,11.169 -5.625,44.706 -8.259,70.973c-3.515,35.057 -2.554,69.404 -3.279,75.729c-1.95,17.025 -17.786,27.226 -17.786,27.226c0,0 33.342,12.322 46.289,0c6.594,-6.275 9.475,-8.337 10.032,-24.016c1.831,-51.604 0.967,-51.451 2.875,-74.974c1.946,-23.994 6.389,-52.903 6.389,-70.624c0,-10.503 2.955,-11.831 0,-16.747Z" style="fill:#e7e8e9;stroke:#231f20;stroke-width:0.63px;"/><path d="M259.474,34.401c-5.002,-10.831 -45.804,-8.008 -45.804,-8.008c0,0 7.882,9.278 7.419,13.172c-1.445,12.152 -4.785,57.574 -7.419,84.341c-3.515,35.723 -2.027,69.701 -2.752,76.146c-1.951,17.349 -17.786,27.744 -17.786,27.744c0,0 24.617,9.434 41.942,4.42c2.748,-0.795 19.809,-7.789 11.673,-32.164c-6.062,-18.164 0.828,-43.622 2.705,-70.405c1.986,-28.329 5.424,-50.482 7.55,-67.711c1.386,-11.241 7.704,-16.207 2.472,-27.535Z" style="fill:#e7e8e9;stroke:#231f20;stroke-width:0.63px;"/><path d="M302.789,41.022c-5.002,-10.831 -46.439,-11.978 -46.439,-11.978c0,0 6.743,5.092 7.889,11.978c0.589,3.536 -4.662,11.89 -7.889,20.122c-8.361,21.323 -8.841,56.199 -10.704,75.124c-1.712,17.399 -3.46,45.638 0,59.788c3.025,12.369 2.701,13.021 2.33,16.326c-1.951,17.35 -13.887,22.035 -13.887,22.035c0,0 24.725,5.014 42.051,0c2.747,-0.795 22.405,-3.642 14.27,-28.018c-6.062,-18.164 -1.878,-43.348 0,-70.131c1.986,-28.329 5.424,-50.482 7.549,-67.711c1.387,-11.241 10.062,-16.207 4.83,-27.535Z" style="fill:#e7e8e9;stroke:#231f20;stroke-width:0.63px;"/><path d="M346.183,60.43c-5.002,-10.83 -41.542,-23.34 -41.542,-23.34c0,0 6.405,10.351 0,17.501c-3.265,3.644 -9.249,5.017 -10.338,12.658c-3.595,25.231 -6.842,49.38 -8.705,68.305c-1.712,17.399 -3.46,45.638 0,59.788c3.025,12.369 6.439,21.629 5.916,24.914c-2.027,12.741 -5.916,13.447 -5.916,13.447c0,0 13.168,5.014 30.494,0c2.747,-0.795 22.405,-3.642 14.27,-28.018c-6.063,-18.164 -1.878,-40.864 0,-67.647c1.886,-26.911 6.622,-54.475 7.285,-55.037c8.151,-6.907 13.769,-11.242 8.536,-22.571Z" style="fill:#e7e8e9;stroke:#231f20;stroke-width:0.63px;"/><path d="M394.092,100.12c-4.028,-20.643 -45.983,-43.023 -45.983,-43.023c0,0 0.482,10.024 -2.472,18.25c-1.654,4.606 -12.799,5.378 -13.888,13.02c-3.594,25.23 -4.053,28.262 -5.916,47.187c-1.712,17.399 -3.46,45.638 0,59.788c1.334,5.454 6.157,10.137 5.916,16.499c-0.305,8.067 -5.916,17.295 -5.916,17.295c0,0 66.451,-12.814 58.315,-37.19c-2.025,-6.066 -18.851,-8.058 -21.071,-13.084c-4.427,-10.024 6.269,-23.028 7.52,-40.866c1.886,-26.911 -0.663,-31.178 0,-31.74c8.151,-6.906 25.884,6.112 23.495,-6.136Z" style="fill:#e7e8e9;stroke:#231f20;stroke-width:0.63px;"/><path d="M395.123,148.964c1.886,-26.911 -19.937,-51.247 -25.516,-45.837c-2.92,2.831 -1.439,21.859 -3.769,40.627c-2.121,17.09 -5.966,32.354 -4.118,35.992c3.876,7.634 32.153,-12.945 33.403,-30.782Z" style="fill:#e7e8e9;stroke:#231f20;stroke-width:0.63px;"/></g></svg>