<?xml version="1.0" encoding="UTF-8" standalone="no"?><!DOCTYPE svg PUBLIC "-//W3C//DTD SVG 1.1//EN" "http://www.w3.org/Graphics/SVG/1.1/DTD/svg11.dtd"><svg width="100%" height="100%" viewBox="0 0 2584 613" version="1.1" xmlns="http://www.w3.org/2000/svg" xmlns:xlink="http://www.w3.org/1999/xlink" xml:space="preserve" xmlns:serif="http://www.serif.com/" style="fill-rule:evenodd;clip-rule:evenodd;stroke-linecap:round;stroke-linejoin:round;stroke-miterlimit:1.5;"><g><text x="401.822px" y="161.838px" style="font-family:'Montserrat-Regular', 'Montserrat';font-size:50px;">...  C<tspan x="494.872px 531.172px " y="161.838px 161.838px ">AA</tspan>  A<tspan x="627.322px 655.522px " y="161.838px 161.838px ">TG</tspan>  T<tspan x="748.572px " y="161.838px ">G</tspan>G  ...</text><text x="490.319px" y="212.47px" style="font-family:'Montserrat-ExtraBold', 'Montserrat';font-weight:800;font-size:50px;fill:#d7263d;">Q</text><text x="614.689px" y="212.47px" style="font-family:'Montserrat-ExtraBold', 'Montserrat';font-weight:800;font-size:50px;fill:#d7263d;">M</text><text x="746.608px" y="212.47px" style="font-family:'Montserrat-ExtraBold', 'Montserrat';font-weight:800;font-size:50px;fill:#d7263d;">W</text><path d="M463.642,169.806l106.979,0" style="fill:none;stroke:#7f7f7f;stroke-width:2.71px;"/><path d="M588.012,169.806l106.979,0" style="fill:none;stroke:#7f7f7f;stroke-width:2.71px;"/><path d="M719.931,169.806l106.979,0" style="fill:none;stroke:#7f7f7f;stroke-width:2.71px;"/></g><g><g transform="matrix(1,0,0,1,-766.999,-437.219)"><text x="764.349px" y="741.135px" style="font-family:'Montserrat-Regular', 'Montserrat';font-size:50px;">...  C<tspan x="857.399px " y="741.135px ">A</tspan></text><text x="893.249px" y="741.135px" style="font-family:'Montserrat-Bold', 'Montserrat';font-weight:700;font-size:50px;">G</text><text x="957.999px" y="741.135px" style="font-family:'Montserrat-Regular', 'Montserrat';font-size:50px;">A<tspan x="992.099px 1020.3px " y="741.135px 741.135px ">TG</tspan>  T<tspan x="1113.35px " y="741.135px ">G</tspan>G  ...</text></g><text x="85.847px" y="354.548px" style="font-family:'Montserrat-ExtraBold', 'Montserrat';font-weight:800;font-size:50px;fill:#d7263d;">Q</text><text x="212.217px" y="354.548px" style="font-family:'Montserrat-ExtraBold', 'Montserrat';font-weight:800;font-size:50px;fill:#d7263d;">M</text><text x="343.136px" y="354.548px" style="font-family:'Montserrat-ExtraBold', 'Montserrat';font-weight:800;font-size:50px;fill:#d7263d;">W</text><path d="M59.171,311.884l106.979,0" style="fill:none;stroke:#7f7f7f;stroke-width:2.71px;"/><path d="M185.54,311.884l106.98,0" style="fill:none;stroke:#7f7f7f;stroke-width:2.71px;"/><path d="M316.46,311.884l106.979,0" style="fill:none;stroke:#7f7f7f;stroke-width:2.71px;"/></g><text x="1244.2px" y="37.1px" style="font-family:'Montserrat-Regular', 'Montserrat';font-size:50px;">...  T<tspan x="1330.4px 1365.9px " y="37.1px 37.1px ">CT</tspan>  A<tspan x="1456.15px 1491.35px " y="37.1px 37.1px ">CC</tspan>  GA<tspan x="1627.5px " y="37.1px ">G</tspan>  T<tspan x="1721.55px 1750.75px " y="37.1px 37.1px ">TT</tspan>  GC<tspan x="1879.8px " y="37.1px ">T</tspan>  A<tspan x="1971px 2005.1px " y="37.1px 37.1px ">AT</tspan>  ...</text><text x="2238.45px" y="37.1px" style="font-family:'Montserrat-Regular', 'Montserrat';font-size:50px;">(...  S<tspan x="2343.15px " y="37.1px ">T</tspan>EF<tspan x="2435.3px " y="37.1px ">A</tspan>N  ...)</text><g transform="matrix(1,0,0,1,479.851,-653.404)"><text x="764.349px" y="741.135px" style="font-family:'Montserrat-Regular', 'Montserrat';font-size:50px;">...  T<tspan x="850.549px 886.049px " y="741.135px 741.135px ">CT</tspan>  A<tspan x="976.299px " y="741.135px ">C</tspan></text><text x="1012.25px" y="741.135px" style="font-family:'Montserrat-Bold', 'Montserrat';font-weight:700;font-size:50px;fill:#2790f9;">T</text><text x="1069.35px" y="741.135px" style="font-family:'Montserrat-Regular', 'Montserrat';font-size:50px;">GA<tspan x="1143.35px " y="741.135px ">G</tspan>  T<tspan x="1237.4px 1266.6px " y="741.135px 741.135px ">TT</tspan>  GC<tspan x="1395.65px " y="741.135px ">T</tspan>  A<tspan x="1486.85px " y="741.135px ">A</tspan></text><text x="1522.7px" y="741.135px" style="font-family:'Montserrat-Bold', 'Montserrat';font-weight:700;font-size:50px;fill:#2790f9;">C</text><text x="1579px" y="741.135px" style="font-family:'Montserrat-Regular', 'Montserrat';font-size:50px;">...</text></g><text x="2238.45px" y="87.732px" style="font-family:'Montserrat-Regular', 'Montserrat';font-size:50px;">(...  S<tspan x="2343.15px " y="87.732px ">T</tspan>EF<tspan x="2435.3px " y="87.732px ">A</tspan>N  ...)</text><g transform="matrix(1,0,0,1,479.851,-602.772)"><text x="764.349px" y="741.135px" style="font-family:'Montserrat-Regular', 'Montserrat';font-size:50px;">...  T<tspan x="850.549px 886.049px " y="741.135px 741.135px ">CT</tspan>  A<tspan x="976.299px 1011.5px " y="741.135px 741.135px ">CC</tspan>  GA</text><text x="1148.15px" y="741.135px" style="font-family:'Montserrat-Bold', 'Montserrat';font-weight:700;font-size:50px;fill:#2790f9;">A</text><text x="1208.28px" y="741.135px" style="font-family:'Montserrat-Regular', 'Montserrat';font-size:50px;">T<tspan x="1237.48px 1266.68px " y="741.135px 741.135px ">TT</tspan>  GC</text><text x="1396.18px" y="741.135px" style="font-family:'Montserrat-Bold', 'Montserrat';font-weight:700;font-size:50px;fill:#2790f9;">T</text><text x="1453.28px" y="741.135px" style="font-family:'Montserrat-Regular', 'Montserrat';font-size:50px;">A<tspan x="1489.58px 1523.68px " y="741.135px 741.135px ">AT</tspan>  ...</text></g><text x="2238.45px" y="138.363px" style="font-family:'Montserrat-Regular', 'Montserrat';font-size:50px;">(...  S<tspan x="2343.15px " y="138.363px ">T</tspan>EF<tspan x="2435.3px " y="138.363px ">A</tspan>N  ...)</text><g transform="matrix(1,0,0,1,479.851,-552.14)"><text x="764.349px" y="741.135px" style="font-family:'Montserrat-Regular', 'Montserrat';font-size:50px;">...  T<tspan x="850.549px 886.049px " y="741.135px 741.135px ">CT</tspan>  A</text><text x="976.299px" y="741.135px" style="font-family:'Montserrat-Regular', 'Montserrat';font-size:50px;">C</text><text x="1011.5px" y="741.135px" style="font-family:'Montserrat-Regular', 'Montserrat';font-size:50px;">C  GA<tspan x="1147.65px " y="741.135px ">G</tspan>  T</text><text x="1241.2px" y="741.135px" style="font-family:'Montserrat-Bold', 'Montserrat';font-weight:700;font-size:50px;fill:#d7263d;stroke:#d7263d;stroke-width:1px;stroke-linecap:butt;stroke-miterlimit:1.41421;">C</text><text x="1277.85px" y="741.135px" style="font-family:'Montserrat-Regular', 'Montserrat';font-size:50px;">T</text><text x="1324.02px" y="741.135px" style="font-family:'Montserrat-Regular', 'Montserrat';font-size:50px;">GC<tspan x="1398.16px " y="741.135px ">T</tspan>  A<tspan x="1489.37px 1523.46px " y="741.135px 741.135px ">AT</tspan>  ...</text></g><g transform="matrix(1,0,0,1,1474.1,-552.14)"><text x="764.349px" y="741.135px" style="font-family:'Montserrat-Regular', 'Montserrat';font-size:50px;">(...</text><text x="838.799px" y="741.135px" style="font-family:'Montserrat-Regular', 'Montserrat';font-size:50px;">S<tspan x="869.149px " y="741.135px ">T</tspan>E</text><text x="931.499px" y="741.135px" style="font-family:'Montserrat-Bold', 'Montserrat';font-weight:700;font-size:50px;fill:#d7263d;">s</text><text x="959.149px" y="741.135px" style="font-family:'Montserrat-Regular', 'Montserrat';font-size:50px;">A</text><text x="996.099px" y="741.135px" style="font-family:'Montserrat-Regular', 'Montserrat';font-size:50px;">N</text><text x="1063.05px" y="741.135px" style="font-family:'Montserrat-Regular', 'Montserrat';font-size:50px;">..</text><text x="1084.25px" y="741.135px" style="font-family:'Montserrat-Regular', 'Montserrat';font-size:50px;">.<tspan x="1095.8px " y="741.135px ">)</tspan></text></g><text x="1244.2px" y="451.043px" style="font-family:'Montserrat-Regular', 'Montserrat';font-size:50px;">...  T<tspan x="1330.4px 1365.9px " y="451.043px 451.043px ">CT</tspan>  A<tspan x="1456.15px 1491.35px " y="451.043px 451.043px ">CC</tspan>  GA<tspan x="1627.5px " y="451.043px ">G</tspan>  T<tspan x="1721.55px 1750.75px " y="451.043px 451.043px ">TT</tspan>  GC<tspan x="1879.8px " y="451.043px ">T</tspan>  A<tspan x="1971px 2005.1px " y="451.043px 451.043px ">AT</tspan>  ...</text><text x="2238.45px" y="451.043px" style="font-family:'Montserrat-Regular', 'Montserrat';font-size:50px;">(...  S<tspan x="2343.15px " y="451.043px ">T</tspan>EF<tspan x="2435.3px " y="451.043px ">A</tspan>N  ...)</text><g transform="matrix(1,0,0,1,479.851,-239.461)"><text x="764.349px" y="741.135px" style="font-family:'Montserrat-Regular', 'Montserrat';font-size:50px;">...</text><text x="822.349px" y="741.135px" style="font-family:'Montserrat-Bold', 'Montserrat';font-weight:700;font-size:50px;fill:#d7263d;">C</text><text x="858.999px" y="741.135px" style="font-family:'Montserrat-Regular', 'Montserrat';font-size:50px;">C<tspan x="894.499px " y="741.135px ">T</tspan></text><text x="949.399px" y="741.135px" style="font-family:'Montserrat-Bold', 'Montserrat';font-weight:700;font-size:50px;fill:#d7263d;stroke:#d7263d;stroke-width:1px;stroke-linecap:butt;stroke-miterlimit:1.41421;">G</text><text x="987.949px" y="741.135px" style="font-family:'Montserrat-Regular', 'Montserrat';font-size:50px;">C</text><text x="1023.15px" y="741.135px" style="font-family:'Montserrat-Regular', 'Montserrat';font-size:50px;">C</text><text x="1085.3px" y="741.135px" style="font-family:'Montserrat-Regular', 'Montserrat';font-size:50px;">G</text><text x="1123.95px" y="741.135px" style="font-family:'Montserrat-Bold', 'Montserrat';font-weight:700;font-size:50px;fill:#d7263d;">T</text><text x="1154.85px" y="741.135px" style="font-family:'Montserrat-Regular', 'Montserrat';font-size:50px;">G  T<tspan x="1248.9px 1278.1px " y="741.135px 741.135px ">TT</tspan></text><text x="1324.27px" y="741.135px" style="font-family:'Montserrat-Regular', 'Montserrat';font-size:50px;">GC<tspan x="1398.41px " y="741.135px ">T</tspan>  A<tspan x="1489.62px " y="741.135px ">A</tspan></text><text x="1524.96px" y="741.135px" style="font-family:'Montserrat-Regular', 'Montserrat';font-size:50px;">C</text><text x="1580.57px" y="741.135px" style="font-family:'Montserrat-Regular', 'Montserrat';font-size:50px;">...</text></g><g transform="matrix(1,0,0,1,1474.1,-239.461)"><text x="764.349px" y="741.135px" style="font-family:'Montserrat-Regular', 'Montserrat';font-size:50px;">(...</text><text x="838.799px" y="741.135px" style="font-family:'Montserrat-Bold', 'Montserrat';font-weight:700;font-size:50px;fill:#d7263d;">p<tspan x="872.849px 903.199px " y="741.135px 741.135px ">av</tspan></text><text x="933.099px" y="741.135px" style="font-family:'Montserrat-Regular', 'Montserrat';font-size:50px;">F<tspan x="963.099px " y="741.135px ">A</tspan>N  ...)</text></g><g transform="matrix(1,0,0,1,479.851,-188.829)"><text x="764.349px" y="741.135px" style="font-family:'Montserrat-Regular', 'Montserrat';font-size:50px;">...  T<tspan x="850.549px 886.049px " y="741.135px 741.135px ">CT</tspan>  A<tspan x="976.299px 1011.5px " y="741.135px 741.135px ">CC</tspan>  GA</text><text x="1147.65px" y="741.135px" style="font-family:'Montserrat-Regular', 'Montserrat';font-size:50px;">G</text><text x="1208.13px" y="741.135px" style="font-family:'Montserrat-Regular', 'Montserrat';font-size:50px;">T<tspan x="1237.33px " y="741.135px ">T</tspan></text><text x="1266.03px" y="741.135px" style="font-family:'Montserrat-Bold', 'Montserrat';font-weight:700;font-size:50px;fill:#d7263d;stroke:#d7263d;stroke-width:1px;stroke-linecap:butt;stroke-miterlimit:1.41421;">A</text><text x="1322.89px" y="741.135px" style="font-family:'Montserrat-Regular', 'Montserrat';font-size:50px;">GC</text><text x="1397.49px" y="741.135px" style="font-family:'Montserrat-Bold', 'Montserrat';font-weight:700;font-size:50px;fill:#2790f9;">T</text><text x="1454.59px" y="741.135px" style="font-family:'Montserrat-Regular', 'Montserrat';font-size:50px;">A<tspan x="1490.89px " y="741.135px ">A</tspan></text><text x="1526.74px" y="741.135px" style="font-family:'Montserrat-Bold', 'Montserrat';font-weight:700;font-size:50px;fill:#d7263d;">A</text><text x="1582.51px" y="741.135px" style="font-family:'Montserrat-Regular', 'Montserrat';font-size:50px;">...</text></g><g transform="matrix(1,0,0,1,1474.1,-188.829)"><text x="764.349px" y="741.135px" style="font-family:'Montserrat-Regular', 'Montserrat';font-size:50px;">(...  S<tspan x="869.049px " y="741.135px ">T</tspan></text><text x="897.749px" y="741.135px" style="font-family:'Montserrat-Regular', 'Montserrat';font-size:50px;">E</text><text x="937.949px" y="741.135px" style="font-family:'Montserrat-Bold', 'Montserrat';font-weight:700;font-size:45.833px;fill:#d7263d;">l</text><text x="959.353px" y="741.135px" style="font-family:'Montserrat-Regular', 'Montserrat';font-size:50px;">A</text><text x="999.853px" y="741.135px" style="font-family:'Montserrat-Bold', 'Montserrat';font-weight:700;font-size:50px;fill:#d7263d;">k</text><text x="1065.74px" y="741.135px" style="font-family:'Montserrat-Regular', 'Montserrat';font-size:50px;">...)</text></g><g transform="matrix(1,0,0,1,479.851,-138.198)"><text x="764.349px" y="741.135px" style="font-family:'Montserrat-Regular', 'Montserrat';font-size:50px;">...  T<tspan x="850.549px 886.049px " y="741.135px 741.135px ">CT</tspan></text><text x="940.949px" y="741.135px" style="font-family:'Montserrat-Bold', 'Montserrat';font-weight:700;font-size:50px;fill:#d7263d;stroke:#d7263d;stroke-width:1px;stroke-linecap:butt;stroke-miterlimit:1.41421;">G</text><text x="979.499px" y="741.135px" style="font-family:'Montserrat-Regular', 'Montserrat';font-size:50px;">C</text><text x="1014.7px" y="741.135px" style="font-family:'Montserrat-Regular', 'Montserrat';font-size:50px;">C  GA<tspan x="1150.85px " y="741.135px ">G</tspan>  T</text><text x="1244.4px" y="741.135px" style="font-family:'Montserrat-Bold', 'Montserrat';font-weight:700;font-size:50px;fill:#d7263d;stroke:#d7263d;stroke-width:1px;stroke-linecap:butt;stroke-miterlimit:1.41421;">C</text><text x="1281.05px" y="741.135px" style="font-family:'Montserrat-Regular', 'Montserrat';font-size:50px;">T</text><text x="1327.21px" y="741.135px" style="font-family:'Montserrat-Regular', 'Montserrat';font-size:50px;">GC<tspan x="1401.37px " y="741.135px ">T</tspan>  A<tspan x="1492.57px 1526.66px " y="741.135px 741.135px ">AT</tspan>  ...</text></g><g transform="matrix(1,0,0,1,1474.1,-138.198)"><text x="764.349px" y="741.135px" style="font-family:'Montserrat-Regular', 'Montserrat';font-size:50px;">(...</text><text x="838.799px" y="741.135px" style="font-family:'Montserrat-Regular', 'Montserrat';font-size:50px;">S</text><text x="869.649px" y="741.135px" style="font-family:'Montserrat-Bold', 'Montserrat';font-weight:700;font-size:50px;fill:#d7263d;">a</text><text x="900.599px" y="741.135px" style="font-family:'Montserrat-Regular', 'Montserrat';font-size:50px;">E</text><text x="934.149px" y="741.135px" style="font-family:'Montserrat-Bold', 'Montserrat';font-weight:700;font-size:50px;fill:#d7263d;">s</text><text x="961.799px" y="741.135px" style="font-family:'Montserrat-Regular', 'Montserrat';font-size:50px;">A</text><text x="998.749px" y="741.135px" style="font-family:'Montserrat-Regular', 'Montserrat';font-size:50px;">N</text><text x="1065.7px" y="741.135px" style="font-family:'Montserrat-Regular', 'Montserrat';font-size:50px;">..</text><text x="1086.9px" y="741.135px" style="font-family:'Montserrat-Regular', 'Montserrat';font-size:50px;">.<tspan x="1098.45px " y="741.135px ">)</tspan></text></g><g><g transform="matrix(1,0,0,1,41.9444,-437.219)"><text x="764.349px" y="741.135px" style="font-family:'Montserrat-Regular', 'Montserrat';font-size:50px;">...  C<tspan x="857.399px 893.699px " y="741.135px 741.135px ">AA</tspan>  A<tspan x="989.849px " y="741.135px ">T</tspan></text><text x="1018.55px" y="741.135px" style="font-family:'Montserrat-Bold', 'Montserrat';font-weight:700;font-size:50px;">C</text><text x="1081.4px" y="741.135px" style="font-family:'Montserrat-Regular', 'Montserrat';font-size:50px;">T<tspan x="1109.6px " y="741.135px ">G</tspan>G  ...</text></g><text x="894.79px" y="354.548px" style="font-family:'Montserrat-ExtraBold', 'Montserrat';font-weight:800;font-size:50px;fill:#d7263d;">Q</text><text x="1038.32px" y="354.548px" style="font-family:'Montserrat-ExtraBold', 'Montserrat';font-weight:800;font-size:50px;fill:#d7263d;">I</text><text x="1151.08px" y="354.548px" style="font-family:'Montserrat-ExtraBold', 'Montserrat';font-weight:800;font-size:50px;fill:#d7263d;">W</text><path d="M868.114,311.884l106.979,0" style="fill:none;stroke:#7f7f7f;stroke-width:2.71px;"/><path d="M992.484,311.884l106.979,0" style="fill:none;stroke:#7f7f7f;stroke-width:2.71px;"/><path d="M1124.4,311.884l106.979,0" style="fill:none;stroke:#7f7f7f;stroke-width:2.71px;"/></g></svg>