<?xml version="1.0" encoding="UTF-8" standalone="no"?><!DOCTYPE svg PUBLIC "-//W3C//DTD SVG 1.1//EN" "http://www.w3.org/Graphics/SVG/1.1/DTD/svg11.dtd"><svg width="100%" height="100%" viewBox="0 0 5994 2434" version="1.1" xmlns="http://www.w3.org/2000/svg" xmlns:xlink="http://www.w3.org/1999/xlink" xml:space="preserve" xmlns:serif="http://www.serif.com/" style="fill-rule:evenodd;clip-rule:evenodd;stroke-linecap:round;stroke-linejoin:round;stroke-miterlimit:1.5;"><circle cx="208.102" cy="2225.43" r="204.977" style="fill:#2fe437;stroke:#000;stroke-width:6.25px;"/><g><circle cx="2268.84" cy="1608.76" r="204.977" style="fill:#2fe437;stroke:#000;stroke-width:6.25px;"/><circle cx="2342.53" cy="1813.74" r="204.977" style="fill:#2fe437;stroke:#000;stroke-width:6.25px;"/><circle cx="2623.95" cy="1940.52" r="204.977" style="fill:#2fe437;stroke:#000;stroke-width:6.25px;"/><circle cx="2925.89" cy="2067.3" r="204.977" style="fill:#2fe437;stroke:#000;stroke-width:6.25px;"/><circle cx="2268.84" cy="1238.31" r="204.977" style="fill:#95ffa6;stroke:#000;stroke-width:6.25px;"/><circle cx="2342.53" cy="1443.29" r="204.977" style="fill:#95ffa6;stroke:#000;stroke-width:6.25px;"/><circle cx="2623.95" cy="1570.06" r="204.977" style="fill:#95ffa6;stroke:#000;stroke-width:6.25px;"/><circle cx="2925.89" cy="1696.84" r="204.977" style="fill:#95ffa6;stroke:#000;stroke-width:6.25px;"/><circle cx="2268.84" cy="876.294" r="204.977" style="fill:#2fe437;stroke:#000;stroke-width:6.25px;"/><circle cx="2342.53" cy="1081.27" r="204.977" style="fill:#2fe437;stroke:#000;stroke-width:6.25px;"/><circle cx="2623.95" cy="1208.05" r="204.977" style="fill:#2fe437;stroke:#000;stroke-width:6.25px;"/><circle cx="2925.89" cy="1334.83" r="204.977" style="fill:#2fe437;stroke:#000;stroke-width:6.25px;"/><circle cx="2268.84" cy="521.685" r="204.977" style="fill:#95ffa6;stroke:#000;stroke-width:6.25px;"/><circle cx="2342.53" cy="726.662" r="204.977" style="fill:#95ffa6;stroke:#000;stroke-width:6.25px;"/><circle cx="2623.95" cy="853.439" r="204.977" style="fill:#95ffa6;stroke:#000;stroke-width:6.25px;"/><circle cx="2925.89" cy="980.216" r="204.977" style="fill:#95ffa6;stroke:#000;stroke-width:6.25px;"/></g><g><circle cx="3731.83" cy="1608.76" r="204.977" style="fill:#049d73;stroke:#000;stroke-width:6.25px;"/><circle cx="3805.52" cy="1813.74" r="204.977" style="fill:#049d73;stroke:#000;stroke-width:6.25px;"/><circle cx="4086.94" cy="1940.52" r="204.977" style="fill:#049d73;stroke:#000;stroke-width:6.25px;"/><circle cx="4388.88" cy="2067.3" r="204.977" style="fill:#049d73;stroke:#000;stroke-width:6.25px;"/><circle cx="3731.83" cy="1238.31" r="204.977" style="fill:#95ffa6;stroke:#000;stroke-width:6.25px;"/><circle cx="3805.52" cy="1443.29" r="204.977" style="fill:#95ffa6;stroke:#000;stroke-width:6.25px;"/><circle cx="4086.94" cy="1570.06" r="204.977" style="fill:#95ffa6;stroke:#000;stroke-width:6.25px;"/><circle cx="4388.88" cy="1696.84" r="204.977" style="fill:#95ffa6;stroke:#000;stroke-width:6.25px;"/><circle cx="3731.83" cy="876.294" r="204.977" style="fill:#049d73;stroke:#000;stroke-width:6.25px;"/><circle cx="3805.52" cy="1081.27" r="204.977" style="fill:#049d73;stroke:#000;stroke-width:6.25px;"/><circle cx="4086.94" cy="1208.05" r="204.977" style="fill:#049d73;stroke:#000;stroke-width:6.25px;"/><circle cx="4388.88" cy="1334.83" r="204.977" style="fill:#049d73;stroke:#000;stroke-width:6.25px;"/><circle cx="3731.83" cy="521.685" r="204.977" style="fill:#95ffa6;stroke:#000;stroke-width:6.25px;"/><circle cx="3805.52" cy="726.662" r="204.977" style="fill:#95ffa6;stroke:#000;stroke-width:6.25px;"/><circle cx="4086.94" cy="853.439" r="204.977" style="fill:#95ffa6;stroke:#000;stroke-width:6.25px;"/><circle cx="4388.88" cy="980.216" r="204.977" style="fill:#95ffa6;stroke:#000;stroke-width:6.25px;"/></g><circle cx="208.102" cy="208.102" r="204.977" style="fill:#95ffa6;stroke:#000;stroke-width:6.25px;"/><g><path d="M4997.82,1876.99c-47.72,-37.544 -78.387,-95.808 -78.387,-161.178c0,-113.129 91.847,-204.976 204.977,-204.976c113.13,0 204.977,91.847 204.977,204.976c0,15.031 -1.622,29.686 -4.699,43.799c32.578,25.631 57.208,60.918 69.558,101.531c25.971,-11.911 54.853,-18.552 85.274,-18.552c95.767,0 176.283,65.818 198.741,154.648c30.316,-17.716 65.58,-27.871 103.196,-27.871c113.13,0 204.977,91.847 204.977,204.977c0,113.13 -91.847,204.977 -204.977,204.977c-95.767,0 -176.282,-65.818 -198.741,-154.648c-30.316,17.716 -65.58,27.871 -103.196,27.871c-92.387,0 -170.58,-61.254 -196.148,-145.33c-25.971,11.911 -54.853,18.552 -85.274,18.552c-113.13,0 -204.977,-91.847 -204.977,-204.977c0,-15.03 1.622,-29.685 4.699,-43.799Z" style="fill:none;stroke:#e59f00;stroke-width:14.58px;stroke-dasharray:14.58,58.33,0,0;"/><circle cx="5124.41" cy="1345.36" r="204.977" style="fill:#95ffa6;stroke:#000;stroke-width:6.25px;"/><circle cx="5198.1" cy="1550.34" r="204.977" style="fill:#95ffa6;stroke:#000;stroke-width:6.25px;"/><circle cx="5479.52" cy="1677.11" r="204.977" style="fill:#95ffa6;stroke:#000;stroke-width:6.25px;"/><circle cx="5781.46" cy="1803.89" r="204.977" style="fill:#95ffa6;stroke:#000;stroke-width:6.25px;"/><path d="M4997.82,1144.52c-47.72,-37.544 -78.387,-95.808 -78.387,-161.178c0,-113.13 91.847,-204.977 204.977,-204.977c113.13,0 204.977,91.847 204.977,204.977c0,15.03 -1.622,29.685 -4.699,43.799c32.578,25.631 57.208,60.918 69.558,101.53c25.971,-11.91 54.853,-18.552 85.274,-18.552c95.767,0 176.283,65.818 198.741,154.648c30.316,-17.715 65.58,-27.87 103.196,-27.87c113.13,0 204.977,91.847 204.977,204.977c0,113.129 -91.847,204.977 -204.977,204.977c-95.767,0 -176.282,-65.818 -198.741,-154.648c-30.316,17.715 -65.58,27.87 -103.196,27.87c-92.387,0 -170.58,-61.254 -196.148,-145.329c-25.971,11.91 -54.853,18.552 -85.274,18.552c-113.13,0 -204.977,-91.847 -204.977,-204.977c0,-15.031 1.622,-29.686 4.699,-43.799Z" style="fill:none;stroke:#e59f00;stroke-width:14.58px;stroke-dasharray:14.58,58.33,0,0;"/><circle cx="5124.41" cy="628.733" r="204.977" style="fill:#95ffa6;stroke:#000;stroke-width:6.25px;"/><circle cx="5198.1" cy="833.71" r="204.977" style="fill:#95ffa6;stroke:#000;stroke-width:6.25px;"/><circle cx="5479.52" cy="960.488" r="204.977" style="fill:#95ffa6;stroke:#000;stroke-width:6.25px;"/><circle cx="5781.46" cy="1087.27" r="204.977" style="fill:#95ffa6;stroke:#000;stroke-width:6.25px;"/></g><circle cx="208.102" cy="880.546" r="204.977" style="fill:#049d73;stroke:#000;stroke-width:6.25px;"/><circle cx="208.102" cy="1552.99" r="204.977" style="fill:#e59f00;stroke:#000;stroke-width:6.25px;"/></svg>