<?xml version="1.0" encoding="UTF-8" standalone="no"?><!DOCTYPE svg PUBLIC "-//W3C//DTD SVG 1.1//EN" "http://www.w3.org/Graphics/SVG/1.1/DTD/svg11.dtd"><svg width="100%" height="100%" viewBox="0 0 15880 2569" version="1.1" xmlns="http://www.w3.org/2000/svg" xmlns:xlink="http://www.w3.org/1999/xlink" xml:space="preserve" xmlns:serif="http://www.serif.com/" style="fill-rule:evenodd;clip-rule:evenodd;stroke-linecap:round;stroke-linejoin:round;stroke-miterlimit:1.5;"><g><g><path d="M4612.07,10.417c703.138,0 1274,570.858 1274,1274c0,703.137 -570.859,1274 -1274,1274c-703.137,0 -1274,-570.859 -1274,-1274c0,-703.138 570.859,-1274 1274,-1274Zm0,318.499c527.354,0 955.498,428.144 955.498,955.497c0,527.353 -428.144,955.497 -955.498,955.497c-527.353,0 -955.497,-428.144 -955.497,-955.497c0,-527.353 428.144,-955.497 955.497,-955.497Z" style="fill:none;stroke:#080605;stroke-width:20.83px;stroke-dasharray:20.83,62.5,0,0;"/><path d="M5660.3,2008.48c147.019,-212.839 225.765,-465.39 225.765,-724.069c0,-337.885 -134.225,-661.931 -373.145,-900.852l-225.213,225.213c179.19,179.191 279.859,422.225 279.859,675.639c0,194.009 -59.059,383.422 -169.324,543.052l262.058,181.017Z" style="stroke:#080605;stroke-width:20.83px;"/></g><g><path d="M4648.85,691.808c-36.762,-9.491 -62.447,-42.651 -62.447,-80.618c0,-45.954 37.309,-83.263 83.262,-83.263c45.954,0 83.263,37.309 83.263,83.263c0,37.967 -25.685,71.127 -62.447,80.618l0,193.914l62.447,0l-83.263,83.262l-83.262,-83.262l62.447,0l0,-193.914Z" style="stroke:#080605;stroke-width:20.83px;"/><path d="M4648.85,1171.91c-36.762,-9.492 -62.447,-42.651 -62.447,-80.619c0,-45.953 37.309,-83.262 83.262,-83.262c45.954,0 83.263,37.309 83.263,83.262c0,37.968 -25.685,71.127 -62.447,80.619l0,193.913l62.447,0l-83.263,83.263l-83.262,-83.263l62.447,0l0,-193.913Z" style="stroke:#080605;stroke-width:20.83px;"/><path d="M4648.85,1652c-36.762,-9.492 -62.447,-42.651 -62.447,-80.619c0,-45.954 37.309,-83.262 83.262,-83.262c45.954,0 83.263,37.308 83.263,83.262c0,37.968 -25.685,71.127 -62.447,80.619l0,193.913l62.447,0l-83.263,83.263l-83.262,-83.263l62.447,0l0,-193.913Z" style="stroke:#080605;stroke-width:20.83px;"/><path d="M4462.96,1121.98l-146.808,0l0,430.766l213.887,0l0,66.73l-280.383,0l0,-11.206l-0.234,0l0,-551.742l0.234,0l0,-1.278l213.304,0l0,-37.405l66.73,0l0,37.405l0.349,0l0,66.73l-0.349,0l0,43.633l-66.73,0l0,-43.633Z" style="fill:#3dc7f3;stroke:#080605;stroke-width:4.17px;"/></g></g><g><g><path d="M7939.73,10.417c703.138,0 1274,570.858 1274,1274c0,703.137 -570.858,1274 -1274,1274c-703.137,0 -1274,-570.859 -1274,-1274c0,-703.138 570.859,-1274 1274,-1274Zm0,318.499c527.353,0 955.497,428.144 955.497,955.497c0,527.353 -428.144,955.497 -955.497,955.497c-527.353,0 -955.497,-428.144 -955.497,-955.497c0,-527.353 428.144,-955.497 955.497,-955.497Z" style="fill:none;stroke:#080605;stroke-width:20.83px;stroke-dasharray:20.83,62.5,0,0;"/><path d="M7697.22,2535.12c79.907,15.493 161.115,23.294 242.51,23.294c703.138,0 1274,-570.859 1274,-1274c0,-337.885 -134.224,-661.931 -373.145,-900.852l-225.212,225.213c179.19,179.191 279.858,422.225 279.858,675.639c0,527.353 -428.144,955.497 -955.497,955.497c-61.046,0 -121.952,-5.85 -181.882,-17.471l-60.628,312.676Z" style="stroke:#080605;stroke-width:20.83px;"/></g><g><path d="M7918.47,757.334c-36.762,-9.492 -62.447,-42.651 -62.447,-80.618c0,-45.954 37.309,-83.263 83.263,-83.263c45.954,0 83.262,37.309 83.262,83.263c0,37.967 -25.685,71.126 -62.446,80.618l0,193.914l62.446,0l-83.262,83.262l-83.263,-83.262l62.447,0l0,-193.914Z" style="stroke:#080605;stroke-width:20.83px;"/><path d="M7918.47,1237.43c-36.762,-9.492 -62.447,-42.651 -62.447,-80.619c0,-45.954 37.309,-83.262 83.263,-83.262c45.954,0 83.262,37.308 83.262,83.262c0,37.968 -25.685,71.127 -62.446,80.619l0,193.913l62.446,0l-83.262,83.263l-83.263,-83.263l62.447,0l0,-193.913Z" style="stroke:#080605;stroke-width:20.83px;"/><path d="M7918.47,1717.53c-36.762,-9.492 -62.447,-42.651 -62.447,-80.619c0,-45.954 37.309,-83.263 83.263,-83.263c45.954,0 83.262,37.309 83.262,83.263c0,37.968 -25.685,71.127 -62.446,80.619l0,193.913l62.446,0l-83.262,83.263l-83.263,-83.263l62.447,0l0,-193.913Z" style="stroke:#080605;stroke-width:20.83px;"/><path d="M7732.57,1187.51l-146.807,0l0,430.766l213.887,0l0,66.73l-280.384,0l0,-11.206l-0.233,0l0,-551.742l0.233,0l0,-1.278l213.304,0l0,-37.405l66.73,0l0,37.405l0.35,0l0,66.73l-0.35,0l0,43.633l-66.73,0l0,-43.633Z" style="fill:#3dc7f3;stroke:#080605;stroke-width:4.17px;"/><path d="M8146.89,678.255l146.808,0l0,430.766l-213.887,0l0,66.73l280.383,0l0,-11.205l0.234,0l0,-551.742l-0.234,0l0,-1.278l-213.304,0l0,-37.406l-66.73,0l0,37.406l-0.349,0l0,66.729l0.349,0l0,43.633l66.73,0l0,-43.633Z" style="fill:#f8981c;stroke:#080605;stroke-width:4.17px;"/></g></g><g><path d="M2478.55,840.443c-63.798,-171.597 -163.83,-327.429 -293.283,-456.882l-225.213,225.213c97.09,97.09 172.114,213.963 219.963,342.661l298.533,-110.992Z" style="stroke:#080605;stroke-width:20.83px;"/><path d="M1284.41,10.417c703.137,0 1274,570.858 1274,1274c0,703.137 -570.859,1274 -1274,1274c-703.138,0 -1274,-570.859 -1274,-1274c0,-703.138 570.858,-1274 1274,-1274Zm0,318.499c527.353,0 955.497,428.144 955.497,955.497c0,527.353 -428.144,955.497 -955.497,955.497c-527.353,0 -955.497,-428.144 -955.497,-955.497c0,-527.353 428.144,-955.497 955.497,-955.497Z" style="fill:none;stroke:#080605;stroke-width:20.83px;stroke-dasharray:20.83,62.5,0,0;"/><g><path d="M1293.3,748.706c-36.762,-9.491 -62.447,-42.651 -62.447,-80.618c0,-45.954 37.308,-83.263 83.262,-83.263c45.954,0 83.263,37.309 83.263,83.263c0,37.967 -25.685,71.127 -62.447,80.618l0,193.914l62.447,0l-83.263,83.262l-83.262,-83.262l62.447,0l0,-193.914Z" style="stroke:#080605;stroke-width:20.83px;"/><path d="M1293.3,1228.8c-36.762,-9.492 -62.447,-42.651 -62.447,-80.619c0,-45.953 37.308,-83.262 83.262,-83.262c45.954,0 83.263,37.309 83.263,83.262c0,37.968 -25.685,71.127 -62.447,80.619l0,193.913l62.447,0l-83.263,83.263l-83.262,-83.263l62.447,0l0,-193.913Z" style="stroke:#080605;stroke-width:20.83px;"/><path d="M1293.3,1708.9c-36.762,-9.492 -62.447,-42.651 -62.447,-80.619c0,-45.954 37.308,-83.262 83.262,-83.262c45.954,0 83.263,37.308 83.263,83.262c0,37.968 -25.685,71.127 -62.447,80.619l0,193.913l62.447,0l-83.263,83.263l-83.262,-83.263l62.447,0l0,-193.913Z" style="stroke:#080605;stroke-width:20.83px;"/></g></g><g><g><path d="M10027.4,1576.75c135.613,575.221 649.011,981.656 1240,981.656c703.137,0 1274,-570.859 1274,-1274c0,-337.885 -134.224,-661.931 -373.145,-900.852l-225.213,225.213c179.191,179.191 279.859,422.225 279.859,675.639c0,527.353 -428.144,955.497 -955.497,955.497c-443.243,0 -828.292,-304.827 -930.001,-736.242l-310.001,73.085Z" style="stroke:#080605;stroke-width:20.83px;"/><path d="M11267.4,10.417c703.137,0 1274,570.858 1274,1274c0,703.137 -570.859,1274 -1274,1274c-703.138,0 -1274,-570.859 -1274,-1274c0,-703.138 570.858,-1274 1274,-1274Zm0,318.499c527.353,0 955.497,428.144 955.497,955.497c0,527.353 -428.144,955.497 -955.497,955.497c-527.353,0 -955.497,-428.144 -955.497,-955.497c0,-527.353 428.144,-955.497 955.497,-955.497Z" style="fill:none;stroke:#080605;stroke-width:20.83px;stroke-dasharray:20.83,62.5,0,0;"/><path d="M11392.6,598.285l146.807,0l0,430.766l-213.886,0l0,66.73l280.383,0l0,-11.205l0.233,0l0,-551.742l-0.233,0l0,-1.279l-213.304,0l0,-37.405l-66.73,0l0,37.405l-0.349,0l0,66.73l0.349,0l0,43.633l66.73,0l0,-43.633Z" style="fill:#f8981c;stroke:#080605;stroke-width:4.17px;"/><path d="M11156.7,659.768c-36.762,-9.492 -62.447,-42.651 -62.447,-80.618c0,-45.954 37.309,-83.263 83.263,-83.263c45.954,0 83.263,37.309 83.263,83.263c0,37.967 -25.685,71.126 -62.447,80.618l0,193.914l62.447,0l-83.263,83.262l-83.263,-83.262l62.447,0l0,-193.914Z" style="stroke:#080605;stroke-width:20.83px;"/><path d="M11156.7,1139.87c-36.762,-9.492 -62.447,-42.651 -62.447,-80.619c0,-45.954 37.309,-83.262 83.263,-83.262c45.954,0 83.263,37.308 83.263,83.262c0,37.968 -25.685,71.127 -62.447,80.619l0,193.913l62.447,0l-83.263,83.263l-83.263,-83.263l62.447,0l0,-193.913Z" style="stroke:#080605;stroke-width:20.83px;"/><path d="M11156.7,1619.96c-36.762,-9.491 -62.447,-42.651 -62.447,-80.618c0,-45.954 37.309,-83.263 83.263,-83.263c45.954,0 83.263,37.309 83.263,83.263c0,37.967 -25.685,71.127 -62.447,80.618l0,193.914l62.447,0l-83.263,83.262l-83.263,-83.262l62.447,0l0,-193.914Z" style="stroke:#080605;stroke-width:20.83px;"/><path d="M11662.2,1619.96c-36.762,-9.491 -62.447,-42.651 -62.447,-80.618c0,-45.954 37.309,-83.263 83.263,-83.263c45.953,0 83.262,37.309 83.262,83.263c0,37.967 -25.685,71.127 -62.447,80.618l-41.631,0Z" style="stroke:#080605;stroke-width:20.83px;"/><path d="M10970.8,1089.94l-146.808,0l0,430.766l213.887,0l0,66.73l-280.384,0l0,-11.206l-0.233,0l0,-551.742l0.233,0l0,-1.278l213.305,0l0,-37.406l66.729,0l0,37.406l0.35,0l0,66.73l-0.35,0l0,43.633l-66.729,0l0,-43.633Z" style="fill:#3dc7f3;stroke:#080605;stroke-width:4.17px;"/><path d="M11753.5,1628.3c18.245,45.592 26.31,95.32 23.539,145.15c-9.729,174.959 -148.177,309.744 -308.977,300.802c-109.751,-6.103 -206.457,-78.795 -250.182,-188.054l66.953,-32.237c32.793,81.944 105.323,136.463 187.636,141.04c120.6,6.707 224.436,-94.382 231.733,-225.601c2.078,-37.373 -3.97,-74.669 -17.654,-108.863l66.952,-32.237Z" style="fill:#00df07;stroke:#582d89;stroke-width:8.33px;"/></g></g><path d="M14595,10.417c-703.608,0 -1274,570.387 -1274,1274c0,703.137 570.859,1274 1274,1274c703.138,0 1274,-570.859 1274,-1274c0,-337.885 -134.225,-661.931 -373.145,-900.852l-225.213,225.213c179.19,179.191 279.859,422.225 279.859,675.639c0,527.353 -428.144,955.497 -955.498,955.497c-527.353,0 -955.497,-428.144 -955.497,-955.497c0,-527.707 427.791,-955.497 955.497,-955.497l0,-318.499Z" style="stroke:#080605;stroke-width:20.83px;"/><path d="M14595,10.417c703.138,0 1274,570.858 1274,1274c0,703.137 -570.859,1274 -1274,1274c-703.137,0 -1274,-570.859 -1274,-1274c0,-703.138 570.859,-1274 1274,-1274Zm0,318.499c527.354,0 955.498,428.144 955.498,955.497c0,527.353 -428.144,955.497 -955.498,955.497c-527.353,0 -955.497,-428.144 -955.497,-955.497c0,-527.353 428.144,-955.497 955.497,-955.497Z" style="fill:none;stroke:#080605;stroke-width:20.83px;stroke-dasharray:20.83,62.5,0,0;"/><path d="M14715.4,590.995l146.808,0l0,430.766l-213.887,0l0,66.73l280.383,0l0,-11.206l0.234,0l0,-551.742l-0.234,0l0,-1.278l-213.304,0l0,-37.405l-66.73,0l0,37.405l-0.349,0l0,66.73l0.349,0l0,43.633l66.73,0l0,-43.633Z" style="fill:#f8981c;stroke:#080605;stroke-width:4.17px;"/><path d="M14479.5,652.478c-36.762,-9.492 -62.447,-42.651 -62.447,-80.619c0,-45.954 37.309,-83.263 83.262,-83.263c45.954,0 83.263,37.309 83.263,83.263c0,37.968 -25.685,71.127 -62.447,80.619l0,193.913l62.447,0l-83.263,83.263l-83.262,-83.263l62.447,0l0,-193.913Z" style="stroke:#080605;stroke-width:20.83px;"/><path d="M14479.5,1132.58c-36.762,-9.492 -62.447,-42.651 -62.447,-80.618c0,-45.954 37.309,-83.263 83.262,-83.263c45.954,0 83.263,37.309 83.263,83.263c0,37.967 -25.685,71.126 -62.447,80.618l0,193.914l62.447,0l-83.263,83.262l-83.262,-83.262l62.447,0l0,-193.914Z" style="stroke:#080605;stroke-width:20.83px;"/><path d="M14479.5,1612.67c-36.762,-9.492 -62.447,-42.651 -62.447,-80.619c0,-45.953 37.309,-83.262 83.262,-83.262c45.954,0 83.263,37.309 83.263,83.262c0,37.968 -25.685,71.127 -62.447,80.619l0,193.913l62.447,0l-83.263,83.263l-83.262,-83.263l62.447,0l0,-193.913Z" style="stroke:#080605;stroke-width:20.83px;"/><path d="M14985,1612.67c-36.762,-9.492 -62.447,-42.651 -62.447,-80.619c0,-45.953 37.309,-83.262 83.263,-83.262c45.954,0 83.262,37.309 83.262,83.262c0,37.968 -25.684,71.127 -62.446,80.619l-41.632,0Z" style="stroke:#080605;stroke-width:20.83px;"/><path d="M14293.6,1082.65l-146.808,0l0,430.766l213.887,0l0,66.73l-280.383,0l0,-11.205l-0.234,0l0,-551.743l0.234,0l0,-1.278l213.304,0l0,-37.405l66.73,0l0,37.405l0.349,0l0,66.73l-0.349,0l0,43.633l-66.73,0l0,-43.633Z" style="fill:#3dc7f3;stroke:#080605;stroke-width:4.17px;"/><path d="M15086,1635.59c18.245,45.592 26.31,95.321 23.539,145.151c-9.729,174.959 -148.177,309.743 -308.977,300.802c-109.751,-6.103 -206.457,-78.795 -250.182,-188.055l66.953,-32.237c32.793,81.945 105.323,136.464 187.636,141.041c120.6,6.706 224.436,-94.382 231.733,-225.602c2.078,-37.372 -3.97,-74.668 -17.654,-108.863l66.952,-32.237Z" style="fill:#00df07;stroke:#582d89;stroke-width:8.33px;"/><path d="M14888.2,1429.58l46.887,-56.341l-206.875,-172.164l43.539,-52.316l-147.47,13.505l13.505,147.469l43.539,-52.317l206.875,172.164Z" style="fill:#ff72a6;stroke:#582d89;stroke-width:8.33px;"/></svg>