<?xml version="1.0" encoding="UTF-8" standalone="no"?><!DOCTYPE svg PUBLIC "-//W3C//DTD SVG 1.1//EN" "http://www.w3.org/Graphics/SVG/1.1/DTD/svg11.dtd"><svg width="100%" height="100%" viewBox="0 0 992 842" version="1.1" xmlns="http://www.w3.org/2000/svg" xmlns:xlink="http://www.w3.org/1999/xlink" xml:space="preserve" xmlns:serif="http://www.serif.com/" style="fill-rule:evenodd;clip-rule:evenodd;stroke-linejoin:round;stroke-miterlimit:1.41421;"><path id="Page-1" d="M467.074,390.714c62.988,-13.389 80.102,-38.565 136.439,-101.129c18.772,29.306 41.514,58.531 67.028,70.014c46.633,20.982 162.343,69.646 214.692,59.979c52.331,-9.65 106.515,15.629 106.434,-56.665c-0.064,-44.551 -85.718,-79.153 -125.705,-82.387c-39.951,-3.216 -178.726,-1.039 -210.195,-13.699c-10.177,-4.067 -19.381,-9.3 -25.128,-14.59c2.931,-6.209 4.571,-13.251 5.039,-20.477c26.513,-8.484 134.718,-19.455 228.467,-13.878c30.324,1.832 99.818,-8.915 114.097,-31.994c14.279,-23.126 4.843,-86.402 -52.88,-102.56c-39.633,-11.091 -171.467,-6.106 -245.208,34.556c-23.115,12.804 -42.691,53.512 -60.35,71.358c-9.24,-8.099 -21.02,-10.707 -32.191,-6.347c-47.697,-68.957 -61.349,-95.678 -120.04,-118.493c-60.54,-23.574 -212.625,-12.034 -262.626,-41.909c-49.963,-29.857 -168.813,-32.873 -183.364,8.57c-14.551,41.398 9.013,88.941 32.919,118.103c23.905,29.249 128.521,13.539 176.99,27.991c48.501,14.429 116.237,-15.371 166.555,-7.513c47.425,7.387 136.313,23.734 163.484,51.776c-0.963,8.835 -0.013,18.134 3.253,26.785c0.582,1.585 1.272,3.056 1.963,4.48c-39.533,16.526 -116.592,17.583 -160.15,17.071c-52.912,-0.545 -119.73,-43.143 -171.452,-36.589c-51.704,6.491 -158.219,-27.824 -186.099,-1.792c-27.881,26.049 -57.433,71.111 -46.843,116.5c10.558,45.366 133.782,62.868 188.725,40.645c54.92,-22.23 210.999,16.054 276.146,2.194Z" style="fill:#ffad00;"/><path id="Page-11" serif:id="Page-1" d="M796.61,83.609l0,132.845c0,0 56.582,1.381 71.801,1.549c6.505,0.071 19.51,-0.543 19.51,-0.543l-0.046,-70.258l0,-68.67c0,0 -30.728,-0.847 -45.939,0c-15.18,0.844 -45.326,5.077 -45.326,5.077Z" style="fill:#003bff;"/><path id="Page-12" serif:id="Page-1" d="M796.907,278.28l-0.297,129.275c0,0 20.036,5.639 35.02,8.988c33.28,7.437 56.245,2.733 56.245,2.733l0,-69.252l0.046,-65.632c0,0 -6.181,-2.041 -19.448,-3.567c-7.043,-0.81 -16.158,-1.26 -27.295,-1.494c-6.633,-0.14 -15.238,-0.413 -23.132,-0.579c-11.482,-0.242 -21.139,-0.472 -21.139,-0.472Z" style="fill:#003bff;"/><path id="Page-13" serif:id="Page-1" d="M467.074,811.457c62.988,-13.389 80.102,-38.565 136.439,-101.129c18.772,29.306 41.514,58.532 67.028,70.014c46.633,20.983 162.343,69.646 214.692,59.979c52.331,-9.65 106.515,15.629 106.434,-56.665c-0.064,-44.55 -85.718,-79.152 -125.705,-82.386c-39.951,-3.217 -178.726,-1.04 -210.195,-13.7c-10.177,-4.067 -19.381,-9.299 -25.128,-14.59c2.931,-6.209 4.571,-13.251 5.039,-20.477c26.513,-8.484 134.718,-19.455 228.467,-13.878c30.324,1.833 99.818,-8.914 114.097,-31.994c14.279,-23.125 4.843,-86.401 -52.88,-102.559c-39.633,-11.092 -171.467,-6.106 -245.208,34.556c-23.115,12.803 -42.691,53.511 -60.35,71.358c-9.24,-8.099 -21.02,-10.707 -32.191,-6.347c-47.697,-68.957 -61.349,-95.679 -120.04,-118.494c-60.54,-23.573 -212.625,-12.034 -262.626,-41.908c-49.963,-29.858 -168.813,-32.873 -183.364,8.57c-14.551,41.397 9.013,88.94 32.919,118.103c23.905,29.248 128.521,13.538 176.99,27.99c48.501,14.429 116.237,-15.371 166.555,-7.513c47.425,7.387 136.313,23.734 163.484,51.777c-0.963,8.834 -0.013,18.134 3.253,26.784c0.582,1.585 1.272,3.056 1.963,4.48c-39.533,16.526 -116.592,17.583 -160.15,17.072c-52.912,-0.546 -119.73,-43.144 -171.452,-36.59c-51.704,6.491 -158.219,-27.824 -186.099,-1.792c-27.881,26.049 -57.433,71.111 -46.843,116.5c10.558,45.367 133.782,62.869 188.725,40.645c54.92,-22.229 210.999,16.055 276.146,2.194Z" style="fill:#ffad00;"/><path id="Page-14" serif:id="Page-1" d="M817.645,501.742l0,135.39c0,0 13.878,0.135 20.532,0.323c6.466,0.182 19.389,0.804 19.389,0.804l-0.081,-70.314l0.081,-68.756c0,0 -10.663,0.271 -15.984,0.611c-6.653,0.425 -23.937,1.942 -23.937,1.942Z" style="fill:#003bff;"/><path id="Page-15" serif:id="Page-1" d="M817.645,699.48l0,134.502c0,0 13.33,3.03 19.961,4.251c9.015,1.661 19.879,2.745 19.879,2.745l0,-75.925l0.081,-64.305c0,0 -10.651,-0.517 -15.98,-0.686c-6.653,-0.211 -23.941,-0.582 -23.941,-0.582Z" style="fill:#003bff;"/></svg>