<?xml version="1.0" encoding="UTF-8" standalone="no"?><!DOCTYPE svg PUBLIC "-//W3C//DTD SVG 1.1//EN" "http://www.w3.org/Graphics/SVG/1.1/DTD/svg11.dtd"><svg width="100%" height="100%" viewBox="0 0 523 226" version="1.1" xmlns="http://www.w3.org/2000/svg" xmlns:xlink="http://www.w3.org/1999/xlink" xml:space="preserve" xmlns:serif="http://www.serif.com/" style="fill-rule:evenodd;clip-rule:evenodd;stroke-linecap:round;stroke-linejoin:round;stroke-miterlimit:1.5;"><g><g><path d="M521.797,112.82c0,-61.991 -50.329,-112.32 -112.32,-112.32l-296.657,0c-61.991,0 -112.32,50.329 -112.32,112.32c0,61.992 50.329,112.321 112.32,112.321l296.657,0c61.991,0 112.32,-50.329 112.32,-112.321Z" style="stroke:#000;stroke-width:1px;"/><path d="M313.848,27.341l95.795,0c46.45,2.306 83.373,40.034 83.373,85.22c0,45.187 -36.923,82.203 -83.373,84.509l-95.795,0l0,-169.729Z" style="fill:#fff;stroke:#000;stroke-width:1px;"/><path d="M146.459,24.04c-13.202,-0.215 -47.706,-1.315 -76.801,16.464c-26.493,16.188 -34.037,37.983 -32.945,46.837c1.558,12.641 17.53,12.678 20.414,5.302c3.675,-9.4 4.141,-23.293 28.965,-36.616c22.845,-12.261 48.854,-8.705 60.367,-11.173c11.436,-2.451 8.261,-20.679 0,-20.814Z" style="fill:#fff;stroke:#000;stroke-width:1px;"/></g></g></svg>