<?xml version="1.0" encoding="UTF-8" standalone="no"?><!DOCTYPE svg PUBLIC "-//W3C//DTD SVG 1.1//EN" "http://www.w3.org/Graphics/SVG/1.1/DTD/svg11.dtd"><svg width="100%" height="100%" viewBox="0 0 26201 13718" version="1.1" xmlns="http://www.w3.org/2000/svg" xmlns:xlink="http://www.w3.org/1999/xlink" xml:space="preserve" xmlns:serif="http://www.serif.com/" style="fill-rule:evenodd;clip-rule:evenodd;stroke-linecap:round;stroke-linejoin:round;stroke-miterlimit:1.5;"><path d="M4962.47,3947.79l-3486.22,2487.78" style="stroke:#000;stroke-width:100px;stroke-dasharray:100,300,0,0;"/><path d="M4962.47,10402.6l-3486.22,-2487.78" style="stroke:#000;stroke-width:100px;stroke-dasharray:100,300,0,0;"/><path d="M25758,9976.85l300.443,-1702.49l51.166,9.029l-302.221,1712.57c17.705,12.704 31.521,30.897 38.716,52.735c18.234,55.342 -11.894,115.076 -67.236,133.31c-55.342,18.233 -115.076,-11.894 -133.309,-67.236c-15.065,-45.724 2.711,-95.849 43.217,-121.866l-64.406,-195.482c-49.697,7.13 -98.923,-22.166 -115.175,-71.496c-15.065,-45.724 2.71,-95.848 43.216,-121.866l-84.939,-257.805l50.137,-16.518l84.939,257.805c48.038,-3.155 92.127,26.587 107.192,72.311c14.485,43.964 -1.551,90.701 -36.502,117.2l65.674,199.332c6.454,-0.424 12.837,-0.254 19.088,0.469Z" style="fill:#ff448a;stroke:#231f20;stroke-width:33.33px;"/><path d="M25832.1,8542.74l-37.2,-37.452l192.584,-191.285c-24.31,-41.553 -17.43,-94.289 16.726,-128.215c41.341,-41.062 108.242,-40.836 149.305,0.505c41.062,41.341 40.835,108.242 -0.506,149.305c-34.156,33.926 -86.938,40.448 -128.326,15.858l-192.583,191.284Z" style="fill:#727272;stroke:#231f20;stroke-width:33.33px;"/><path d="M25545.3,8838.63l-37.2,-37.453l192.584,-191.284c-24.31,-41.553 -17.43,-94.29 16.727,-128.216c41.341,-41.062 108.242,-40.835 149.304,0.506c41.062,41.341 40.836,108.242 -0.505,149.304c-34.157,33.926 -86.939,40.449 -128.326,15.858l-192.584,191.285Z" style="fill:#727272;stroke:#231f20;stroke-width:33.33px;"/><path d="M25048.8,9359.98l52.787,0l0,271.437c46.613,12.035 79.181,54.08 79.181,102.222c0,58.268 -47.306,105.575 -105.575,105.575c-58.268,0 -105.574,-47.307 -105.574,-105.575c0,-48.142 32.568,-90.187 79.181,-102.222l0,-271.437Z" style="fill:#727272;stroke:#231f20;stroke-width:33.33px;"/><path d="M25065,8373.65l0,0c58.307,0 105.575,46.172 105.575,103.128c0,56.918 -47.307,103.128 -105.575,103.128c-58.268,0 -105.575,-46.21 -105.575,-103.128c0,-56.956 47.268,-103.128 105.575,-103.128l0,0Z" style="stroke:#231f20;stroke-width:1px;stroke-dasharray:1,1;"/><path d="M25040.5,8523.44l52.788,0l0,271.437c46.613,12.035 79.181,54.08 79.181,102.222c0,58.268 -47.307,105.575 -105.575,105.575c-58.268,0 -105.575,-47.307 -105.575,-105.575c0,-48.142 32.568,-90.187 79.181,-102.222l0,-271.437Z" style="stroke:#231f20;stroke-width:1px;stroke-dasharray:1,1;"/><path d="M25109,8928.19l0,-52.787l271.437,0c12.035,-46.613 54.08,-79.181 102.222,-79.181c58.268,0 105.575,47.306 105.575,105.575c0,58.268 -47.307,105.574 -105.575,105.574c-48.142,0 -90.187,-32.568 -102.222,-79.181l-271.437,0Z" style="stroke:#231f20;stroke-width:1px;stroke-dasharray:1,1;"/><path d="M25096.2,8540.71l37.327,-37.327l338.869,338.87l-37.326,37.326l-338.87,-338.869Z" style="stroke:#231f20;stroke-width:1px;stroke-dasharray:1,1;"/><path d="M25040.5,8931.97l52.788,0l0,271.437c46.613,12.035 79.181,54.08 79.181,102.222c0,58.268 -47.307,105.575 -105.575,105.575c-58.268,0 -105.575,-47.307 -105.575,-105.575c0,-48.142 32.568,-90.187 79.181,-102.222l0,-271.437Z" style="stroke:#231f20;stroke-width:1px;stroke-dasharray:1,1;"/><path d="M25454.3,8931.97l52.787,0l0,271.437c46.613,12.035 79.181,54.08 79.181,102.222c0,58.268 -47.306,105.575 -105.574,105.575c-58.269,0 -105.575,-47.307 -105.575,-105.575c0,-48.142 32.568,-90.187 79.181,-102.222l0,-271.437Z" style="stroke:#231f20;stroke-width:1px;stroke-dasharray:1,1;"/><path d="M25000.7,8879.3c-60.913,5.689 -117.056,35.341 -156.078,82.432c-81.204,97.998 -67.517,243.53 30.545,324.787c43.032,35.658 97.535,54.497 153.385,53.018l-1.563,-57.645c-41.888,1.11 -82.765,-13.019 -115.039,-39.763c-73.547,-60.942 -83.812,-170.091 -22.909,-243.59c29.266,-35.319 71.373,-57.558 117.058,-61.824l-5.399,-57.415Z" style="stroke:#231f20;stroke-width:1px;stroke-dasharray:1,1;"/><path d="M23181.5,8542.74l-37.2,-37.452l192.584,-191.285c-24.31,-41.553 -17.43,-94.289 16.726,-128.215c41.341,-41.062 108.242,-40.836 149.305,0.505c41.062,41.341 40.835,108.242 -0.506,149.305c-34.156,33.926 -86.938,40.448 -128.326,15.858l-192.583,191.284Z" style="fill:#727272;stroke:#231f20;stroke-width:33.33px;"/><path d="M22894.7,8838.63l-37.2,-37.453l192.584,-191.284c-24.31,-41.553 -17.43,-94.29 16.727,-128.216c41.341,-41.062 108.242,-40.835 149.304,0.506c41.062,41.341 40.836,108.242 -0.505,149.304c-34.157,33.926 -86.939,40.449 -128.326,15.858l-192.584,191.285Z" style="fill:#727272;stroke:#231f20;stroke-width:33.33px;"/><path d="M22398.2,9359.98l52.787,0l0,271.437c46.613,12.035 79.181,54.08 79.181,102.222c0,58.268 -47.306,105.575 -105.575,105.575c-58.268,0 -105.574,-47.307 -105.574,-105.575c0,-48.142 32.568,-90.187 79.181,-102.222l0,-271.437Z" style="fill:#727272;stroke:#231f20;stroke-width:33.33px;"/><path d="M22414.4,8373.65l0,0c58.307,0 105.575,46.172 105.575,103.128c0,56.918 -47.307,103.128 -105.575,103.128c-58.268,0 -105.575,-46.21 -105.575,-103.128c0,-56.956 47.268,-103.128 105.575,-103.128l0,0Z" style="stroke:#231f20;stroke-width:1px;stroke-dasharray:1,1;"/><path d="M22389.9,8523.44l52.788,0l0,271.437c46.613,12.035 79.181,54.08 79.181,102.222c0,58.268 -47.307,105.575 -105.575,105.575c-58.268,0 -105.575,-47.307 -105.575,-105.575c0,-48.142 32.568,-90.187 79.181,-102.222l0,-271.437Z" style="stroke:#231f20;stroke-width:1px;stroke-dasharray:1,1;"/><path d="M22458.4,8928.19l0,-52.787l271.437,0c12.035,-46.613 54.08,-79.181 102.222,-79.181c58.268,0 105.575,47.306 105.575,105.575c0,58.268 -47.307,105.574 -105.575,105.574c-48.142,0 -90.187,-32.568 -102.222,-79.181l-271.437,0Z" style="stroke:#231f20;stroke-width:1px;stroke-dasharray:1,1;"/><path d="M22445.6,8540.71l37.327,-37.327l338.869,338.87l-37.326,37.326l-338.87,-338.869Z" style="stroke:#231f20;stroke-width:1px;stroke-dasharray:1,1;"/><path d="M22389.9,8931.97l52.788,0l0,271.437c46.613,12.035 79.181,54.08 79.181,102.222c0,58.268 -47.307,105.575 -105.575,105.575c-58.268,0 -105.575,-47.307 -105.575,-105.575c0,-48.142 32.568,-90.187 79.181,-102.222l0,-271.437Z" style="stroke:#231f20;stroke-width:1px;stroke-dasharray:1,1;"/><path d="M22803.7,8931.97l52.787,0l0,271.437c46.613,12.035 79.181,54.08 79.181,102.222c0,58.268 -47.306,105.575 -105.574,105.575c-58.269,0 -105.575,-47.307 -105.575,-105.575c0,-48.142 32.568,-90.187 79.181,-102.222l0,-271.437Z" style="stroke:#231f20;stroke-width:1px;stroke-dasharray:1,1;"/><path d="M22350.1,8879.3c-60.913,5.689 -117.056,35.341 -156.078,82.432c-81.204,97.998 -67.517,243.53 30.545,324.787c43.032,35.658 97.535,54.497 153.385,53.018l-1.563,-57.645c-41.888,1.11 -82.765,-13.019 -115.039,-39.763c-73.547,-60.942 -83.812,-170.091 -22.909,-243.59c29.266,-35.319 71.373,-57.558 117.058,-61.824l-5.399,-57.415Z" style="stroke:#231f20;stroke-width:1px;stroke-dasharray:1,1;"/><path d="M19745.1,9359.98l52.787,0l0,271.437c46.613,12.035 79.181,54.08 79.181,102.222c0,58.268 -47.306,105.575 -105.574,105.575c-58.269,0 -105.575,-47.307 -105.575,-105.575c0,-48.142 32.568,-90.187 79.181,-102.222l0,-271.437Z" style="fill:#727272;stroke:#231f20;stroke-width:33.33px;"/><path d="M19761.3,8373.65l0,0c58.307,0 105.575,46.172 105.575,103.128c0,56.918 -47.307,103.128 -105.575,103.128c-58.268,0 -105.575,-46.21 -105.575,-103.128c0,-56.956 47.268,-103.128 105.575,-103.128l0,0Z" style="stroke:#231f20;stroke-width:1px;stroke-dasharray:1,1;"/><path d="M19736.8,8523.44l52.788,0l0,271.437c46.613,12.035 79.181,54.08 79.181,102.222c0,58.268 -47.307,105.575 -105.575,105.575c-58.268,0 -105.575,-47.307 -105.575,-105.575c0,-48.142 32.568,-90.187 79.181,-102.222l0,-271.437Z" style="stroke:#231f20;stroke-width:1px;stroke-dasharray:1,1;"/><path d="M19805.3,8928.19l0,-52.787l271.437,0c12.035,-46.613 54.08,-79.181 102.222,-79.181c58.268,0 105.575,47.306 105.575,105.575c0,58.268 -47.307,105.574 -105.575,105.574c-48.142,0 -90.187,-32.568 -102.222,-79.181l-271.437,0Z" style="stroke:#231f20;stroke-width:1px;stroke-dasharray:1,1;"/><path d="M19792.5,8540.71l37.327,-37.327l338.869,338.87l-37.326,37.326l-338.87,-338.869Z" style="stroke:#231f20;stroke-width:1px;stroke-dasharray:1,1;"/><path d="M19736.8,8931.97l52.788,0l0,271.437c46.613,12.035 79.181,54.08 79.181,102.222c0,58.268 -47.307,105.575 -105.575,105.575c-58.268,0 -105.575,-47.307 -105.575,-105.575c0,-48.142 32.568,-90.187 79.181,-102.222l0,-271.437Z" style="stroke:#231f20;stroke-width:1px;stroke-dasharray:1,1;"/><path d="M20150.6,8931.97l52.787,0l0,271.437c46.614,12.035 79.181,54.08 79.181,102.222c0,58.268 -47.306,105.575 -105.574,105.575c-58.269,0 -105.575,-47.307 -105.575,-105.575c0,-48.142 32.568,-90.187 79.181,-102.222l0,-271.437Z" style="stroke:#231f20;stroke-width:1px;stroke-dasharray:1,1;"/><path d="M19697,8879.3c-60.913,5.689 -117.056,35.341 -156.078,82.432c-81.203,97.998 -67.517,243.53 30.545,324.787c43.032,35.658 97.535,54.497 153.385,53.018l-1.563,-57.645c-41.888,1.11 -82.765,-13.019 -115.039,-39.763c-73.547,-60.942 -83.812,-170.091 -22.909,-243.59c29.266,-35.319 71.373,-57.558 117.058,-61.824l-5.399,-57.415Z" style="stroke:#231f20;stroke-width:1px;stroke-dasharray:1,1;"/><path d="M21765.2,8879.11l-945.432,0" style="stroke:#000;stroke-width:100px;stroke-dasharray:100,300,0,0;"/><path d="M24415.9,8879.11l-945.432,0" style="stroke:#000;stroke-width:100px;stroke-dasharray:100,300,0,0;"/><path d="M25110.3,10600.3l-52.788,0l0,-271.437c-46.613,-12.036 -79.181,-54.081 -79.181,-102.222c0,-58.269 47.307,-105.575 105.575,-105.575c58.268,0 105.575,47.306 105.575,105.575c0,8.746 -1.075,17.292 -3.115,25.493l243.847,275.637l-40.574,41.566l-233.582,-265.619c-12.591,11.796 -28.175,20.605 -45.757,25.145l0,271.437Z" style="fill:#ff9100;stroke:#231f20;stroke-width:33.33px;"/><path d="M25038.9,10613.3l0,-52.787l271.437,0c12.035,-46.613 54.08,-79.181 102.222,-79.181c58.268,0 105.575,47.306 105.575,105.574c0,58.269 -47.307,105.575 -105.575,105.575c-48.142,0 -90.187,-32.568 -102.222,-79.181l-271.437,0Z" style="fill:#727272;stroke:#231f20;stroke-width:33.33px;"/><path d="M25503,11043.2l0,-52.787l271.438,0c12.035,-46.613 54.08,-79.181 102.222,-79.181c58.268,0 105.575,47.306 105.575,105.574c0,58.269 -47.307,105.575 -105.575,105.575c-48.142,0 -90.187,-32.568 -102.222,-79.181l-271.438,0Z" style="fill:#727272;stroke:#231f20;stroke-width:33.33px;"/><path d="M25476.7,11442.3l52.788,0l0,271.437c46.613,12.036 79.181,54.081 79.181,102.222c0,58.269 -47.307,105.575 -105.575,105.575c-58.268,0 -105.575,-47.306 -105.575,-105.575c0,-48.141 32.568,-90.186 79.181,-102.222l0,-271.437Z" style="fill:#727272;stroke:#231f20;stroke-width:33.33px;"/><path d="M25070.1,10996.1l0,52.787l-271.438,0c-12.035,46.613 -54.08,79.181 -102.222,79.181c-58.268,0 -105.574,-47.306 -105.574,-105.575c0,-58.268 47.306,-105.574 105.574,-105.574c48.142,0 90.187,32.567 102.222,79.181l271.438,0Z" style="fill:#ff9100;stroke:#231f20;stroke-width:33.33px;"/><path d="M25087.1,10494.1l0,0c58.308,0 105.575,46.172 105.575,103.128c0,56.917 -47.306,103.128 -105.575,103.128c-58.268,0 -105.574,-46.211 -105.574,-103.128c0,-56.956 47.267,-103.128 105.574,-103.128l0,0Z" style="stroke:#231f20;stroke-width:1px;stroke-dasharray:1,1;"/><path d="M25062.6,10643.9l52.788,0l0,271.437c46.613,12.036 79.181,54.081 79.181,102.223c0,58.268 -47.307,105.574 -105.575,105.574c-58.268,0 -105.575,-47.306 -105.575,-105.574c0,-48.142 32.568,-90.187 79.181,-102.223l0,-271.437Z" style="stroke:#231f20;stroke-width:1px;stroke-dasharray:1,1;"/><path d="M25131.1,11048.7l0,-52.788l271.437,0c12.036,-46.613 54.08,-79.181 102.222,-79.181c58.269,0 105.575,47.307 105.575,105.575c0,58.268 -47.306,105.575 -105.575,105.575c-48.142,0 -90.186,-32.568 -102.222,-79.181l-271.437,0Z" style="stroke:#231f20;stroke-width:1px;stroke-dasharray:1,1;"/><path d="M25118.3,10661.2l37.326,-37.326l338.87,338.87l-37.327,37.326l-338.869,-338.87Z" style="stroke:#231f20;stroke-width:1px;stroke-dasharray:1,1;"/><path d="M25062.6,11052.4l52.788,0l0,271.437c46.613,12.036 79.181,54.081 79.181,102.222c0,58.269 -47.307,105.575 -105.575,105.575c-58.268,0 -105.575,-47.306 -105.575,-105.575c0,-48.141 32.568,-90.186 79.181,-102.222l0,-271.437Z" style="stroke:#231f20;stroke-width:1px;stroke-dasharray:1,1;"/><path d="M25476.4,11052.4l52.787,0l0,271.437c46.614,12.036 79.182,54.081 79.182,102.222c0,58.269 -47.307,105.575 -105.575,105.575c-58.268,0 -105.575,-47.306 -105.575,-105.575c0,-48.141 32.568,-90.186 79.181,-102.222l0,-271.437Z" style="stroke:#231f20;stroke-width:1px;stroke-dasharray:1,1;"/><path d="M25022.8,10999.8c-60.913,5.688 -117.056,35.34 -156.077,82.432c-81.204,97.998 -67.518,243.53 30.544,324.787c43.032,35.657 97.535,54.496 153.386,53.017l-1.564,-57.644c-41.888,1.109 -82.765,-13.02 -115.039,-39.763c-73.547,-60.943 -83.811,-170.092 -22.909,-243.59c29.267,-35.319 71.374,-57.558 117.058,-61.824l-5.399,-57.415Z" style="stroke:#231f20;stroke-width:1px;stroke-dasharray:1,1;"/><path d="M22388.3,10602.3l0,-52.787l271.437,0c12.035,-46.614 54.08,-79.181 102.222,-79.181c58.268,0 105.575,47.306 105.575,105.574c0,58.268 -47.307,105.575 -105.575,105.575c-48.142,0 -90.187,-32.568 -102.222,-79.181l-271.437,0Z" style="fill:#727272;stroke:#231f20;stroke-width:33.33px;"/><path d="M22893.7,11043.2l0,-52.787l271.437,0c12.035,-46.613 54.08,-79.181 102.222,-79.181c58.268,0 105.575,47.306 105.575,105.574c0,58.269 -47.307,105.575 -105.575,105.575c-48.142,0 -90.187,-32.568 -102.222,-79.181l-271.437,0Z" style="fill:#727272;stroke:#231f20;stroke-width:33.33px;"/><path d="M22826.1,11442.3l52.788,0l0,271.437c46.613,12.036 79.181,54.081 79.181,102.222c0,58.269 -47.307,105.575 -105.575,105.575c-58.268,0 -105.575,-47.306 -105.575,-105.575c0,-48.141 32.568,-90.186 79.181,-102.222l0,-271.437Z" style="fill:#727272;stroke:#231f20;stroke-width:33.33px;"/><path d="M22436.5,10494.1l0,0c58.308,0 105.575,46.172 105.575,103.128c0,56.917 -47.306,103.128 -105.575,103.128c-58.268,0 -105.574,-46.211 -105.574,-103.128c0,-56.956 47.267,-103.128 105.574,-103.128l0,0Z" style="stroke:#231f20;stroke-width:1px;stroke-dasharray:1,1;"/><path d="M22412,10643.9l52.788,0l0,271.437c46.613,12.036 79.181,54.081 79.181,102.223c0,58.268 -47.307,105.574 -105.575,105.574c-58.268,0 -105.575,-47.306 -105.575,-105.574c0,-48.142 32.568,-90.187 79.181,-102.223l0,-271.437Z" style="stroke:#231f20;stroke-width:1px;stroke-dasharray:1,1;"/><path d="M22480.5,11048.7l0,-52.788l271.437,0c12.035,-46.613 54.08,-79.181 102.222,-79.181c58.269,0 105.575,47.307 105.575,105.575c0,58.268 -47.306,105.575 -105.575,105.575c-48.142,0 -90.187,-32.568 -102.222,-79.181l-271.437,0Z" style="stroke:#231f20;stroke-width:1px;stroke-dasharray:1,1;"/><path d="M22467.7,10661.2l37.326,-37.326l338.87,338.87l-37.327,37.326l-338.869,-338.87Z" style="stroke:#231f20;stroke-width:1px;stroke-dasharray:1,1;"/><path d="M22412,11052.4l52.788,0l0,271.437c46.613,12.036 79.181,54.081 79.181,102.222c0,58.269 -47.307,105.575 -105.575,105.575c-58.268,0 -105.575,-47.306 -105.575,-105.575c0,-48.141 32.568,-90.186 79.181,-102.222l0,-271.437Z" style="stroke:#231f20;stroke-width:1px;stroke-dasharray:1,1;"/><path d="M22825.8,11052.4l52.787,0l0,271.437c46.614,12.036 79.182,54.081 79.182,102.222c0,58.269 -47.307,105.575 -105.575,105.575c-58.268,0 -105.575,-47.306 -105.575,-105.575c0,-48.141 32.568,-90.186 79.181,-102.222l0,-271.437Z" style="stroke:#231f20;stroke-width:1px;stroke-dasharray:1,1;"/><path d="M22372.2,10999.8c-60.913,5.688 -117.056,35.34 -156.078,82.432c-81.203,97.998 -67.517,243.53 30.545,324.787c43.032,35.657 97.535,54.496 153.386,53.017l-1.564,-57.644c-41.888,1.109 -82.765,-13.02 -115.039,-39.763c-73.547,-60.943 -83.811,-170.092 -22.909,-243.59c29.267,-35.319 71.374,-57.558 117.058,-61.824l-5.399,-57.415Z" style="stroke:#231f20;stroke-width:1px;stroke-dasharray:1,1;"/><path d="M20240.6,11043.2l0,-52.787l271.437,0c12.035,-46.613 54.08,-79.181 102.222,-79.181c58.268,0 105.575,47.306 105.575,105.574c0,58.269 -47.307,105.575 -105.575,105.575c-48.142,0 -90.187,-32.568 -102.222,-79.181l-271.437,0Z" style="fill:#727272;stroke:#231f20;stroke-width:33.33px;"/><path d="M20172.9,11442.3l52.788,0l0,271.437c46.613,12.036 79.181,54.081 79.181,102.222c0,58.269 -47.307,105.575 -105.575,105.575c-58.268,0 -105.575,-47.306 -105.575,-105.575c0,-48.141 32.568,-90.186 79.181,-102.222l0,-271.437Z" style="fill:#727272;stroke:#231f20;stroke-width:33.33px;"/><path d="M19783.4,10494.1l0,0c58.308,0 105.575,46.172 105.575,103.128c0,56.917 -47.306,103.128 -105.575,103.128c-58.268,0 -105.574,-46.211 -105.574,-103.128c0,-56.956 47.267,-103.128 105.574,-103.128l0,0Z" style="stroke:#231f20;stroke-width:1px;stroke-dasharray:1,1;"/><path d="M19758.8,10643.9l52.787,0l0,271.437c46.613,12.036 79.181,54.081 79.181,102.223c0,58.268 -47.307,105.574 -105.575,105.574c-58.268,0 -105.574,-47.306 -105.574,-105.574c0,-48.142 32.567,-90.187 79.181,-102.223l0,-271.437Z" style="stroke:#231f20;stroke-width:1px;stroke-dasharray:1,1;"/><path d="M19827.4,11048.7l0,-52.788l271.437,0c12.036,-46.613 54.08,-79.181 102.222,-79.181c58.269,0 105.575,47.307 105.575,105.575c0,58.268 -47.306,105.575 -105.575,105.575c-48.142,0 -90.186,-32.568 -102.222,-79.181l-271.437,0Z" style="stroke:#231f20;stroke-width:1px;stroke-dasharray:1,1;"/><path d="M19814.6,10661.2l37.326,-37.326l338.87,338.87l-37.327,37.326l-338.869,-338.87Z" style="stroke:#231f20;stroke-width:1px;stroke-dasharray:1,1;"/><path d="M19758.8,11052.4l52.787,0l0,271.437c46.613,12.036 79.181,54.081 79.181,102.222c0,58.269 -47.307,105.575 -105.575,105.575c-58.268,0 -105.574,-47.306 -105.574,-105.575c0,-48.141 32.567,-90.186 79.181,-102.222l0,-271.437Z" style="stroke:#231f20;stroke-width:1px;stroke-dasharray:1,1;"/><path d="M20172.6,11052.4l52.788,0l0,271.437c46.613,12.036 79.181,54.081 79.181,102.222c0,58.269 -47.307,105.575 -105.575,105.575c-58.268,0 -105.575,-47.306 -105.575,-105.575c0,-48.141 32.568,-90.186 79.181,-102.222l0,-271.437Z" style="stroke:#231f20;stroke-width:1px;stroke-dasharray:1,1;"/><path d="M19719.1,10999.8c-60.913,5.688 -117.056,35.34 -156.077,82.432c-81.204,97.998 -67.518,243.53 30.544,324.787c43.032,35.657 97.535,54.496 153.386,53.017l-1.564,-57.644c-41.888,1.109 -82.765,-13.02 -115.039,-39.763c-73.546,-60.943 -83.811,-170.092 -22.909,-243.59c29.267,-35.319 71.374,-57.558 117.058,-61.824l-5.399,-57.415Z" style="stroke:#231f20;stroke-width:1px;stroke-dasharray:1,1;"/><path d="M21787.3,11039.9l-945.432,0" style="stroke:#000;stroke-width:100px;stroke-dasharray:100,300,0,0;"/><path d="M24437.9,11039.9l-945.432,0" style="stroke:#000;stroke-width:100px;stroke-dasharray:100,300,0,0;"/><path d="M25167.6,13625c-10.38,47.397 -52.641,82.922 -103.135,82.922c-58.268,0 -105.574,-47.307 -105.574,-105.575c0,-48.142 32.568,-90.187 79.181,-102.222l0,-271.438l52.787,0l0,271.438c39.459,10.188 68.853,41.881 76.947,80.573l240.048,0l0,44.302l-240.254,0Z" style="fill:#00e1ff;stroke:#231f20;stroke-width:18.75px;"/><path d="M25449.6,13216.9l52.788,0l0,271.437c46.613,12.035 79.181,54.08 79.181,102.222c0,58.268 -47.307,105.575 -105.575,105.575c-58.268,0 -105.575,-47.307 -105.575,-105.575c0,-48.142 32.568,-90.187 79.181,-102.222l0,-271.437Z" style="fill:#727272;stroke:#231f20;stroke-width:33.33px;"/><path d="M25797.5,12704.8c-7.093,-5.129 -13.631,-11.205 -19.418,-18.185l-245.636,115.505l-22.462,-47.77l245.635,-115.504c-8.944,-47.304 15.246,-94.668 58.812,-115.153c52.729,-24.795 115.669,-2.116 140.464,50.614c24.795,52.729 2.116,115.669 -50.614,140.464c-18.063,8.494 -37.561,11.475 -56.388,9.413l-341.166,521.947l-44.185,-28.881l334.958,-512.45Z" style="fill:#727272;stroke:#231f20;stroke-width:33.33px;"/><path d="M25091.5,12400.7l0,-52.787l-271.438,0c-12.035,-46.614 -54.08,-79.181 -102.222,-79.181c-58.268,0 -105.574,47.306 -105.574,105.574c0,58.269 47.306,105.575 105.574,105.575c48.142,0 90.187,-32.568 102.222,-79.181l271.438,0Z" style="fill:#00fcff;stroke:#231f20;stroke-width:33.33px;"/><path d="M25065,12271.1l0,0c58.307,0 105.575,46.172 105.575,103.128c0,56.918 -47.307,103.128 -105.575,103.128c-58.268,0 -105.575,-46.21 -105.575,-103.128c0,-56.956 47.268,-103.128 105.575,-103.128l0,0Z" style="stroke:#231f20;stroke-width:1px;stroke-dasharray:1,1;"/><path d="M25040.5,12412.6l52.788,0l0,271.437c46.613,12.035 79.181,54.08 79.181,102.222c0,58.268 -47.307,105.575 -105.575,105.575c-58.268,0 -105.575,-47.307 -105.575,-105.575c0,-48.142 32.568,-90.187 79.181,-102.222l0,-271.437Z" style="stroke:#231f20;stroke-width:1px;stroke-dasharray:1,1;"/><path d="M25109,12817.3l0,-52.787l271.437,0c12.035,-46.613 54.08,-79.181 102.222,-79.181c58.268,0 105.575,47.306 105.575,105.574c0,58.269 -47.307,105.575 -105.575,105.575c-48.142,0 -90.187,-32.568 -102.222,-79.181l-271.437,0Z" style="stroke:#231f20;stroke-width:1px;stroke-dasharray:1,1;"/><path d="M25096.2,12429.8l37.327,-37.327l338.869,338.87l-37.326,37.326l-338.87,-338.869Z" style="stroke:#231f20;stroke-width:1px;stroke-dasharray:1,1;"/><path d="M25040.5,12821.1l52.788,0l0,271.438c46.613,12.035 79.181,54.08 79.181,102.222c0,58.268 -47.307,105.575 -105.575,105.575c-58.268,0 -105.575,-47.307 -105.575,-105.575c0,-48.142 32.568,-90.187 79.181,-102.222l0,-271.438Z" style="stroke:#231f20;stroke-width:1px;stroke-dasharray:1,1;"/><path d="M25454.3,12821.1l52.787,0l0,271.438c46.613,12.035 79.181,54.08 79.181,102.222c0,58.268 -47.306,105.575 -105.574,105.575c-58.269,0 -105.575,-47.307 -105.575,-105.575c0,-48.142 32.568,-90.187 79.181,-102.222l0,-271.438Z" style="stroke:#231f20;stroke-width:1px;stroke-dasharray:1,1;"/><path d="M25000.7,12768.4c-60.913,5.689 -117.056,35.34 -156.078,82.432c-81.204,97.998 -67.517,243.53 30.545,324.787c43.032,35.658 97.535,54.497 153.385,53.018l-1.563,-57.645c-41.888,1.109 -82.765,-13.02 -115.039,-39.763c-73.547,-60.943 -83.812,-170.092 -22.909,-243.59c29.266,-35.319 71.373,-57.558 117.058,-61.824l-5.399,-57.415Z" style="stroke:#231f20;stroke-width:1px;stroke-dasharray:1,1;"/><path d="M20493.8,12704.8c-7.093,-5.129 -13.631,-11.205 -19.418,-18.185l-245.636,115.505l-22.462,-47.77l245.635,-115.504c-8.944,-47.304 15.246,-94.668 58.812,-115.153c52.729,-24.795 115.669,-2.116 140.464,50.614c24.795,52.729 2.116,115.669 -50.614,140.464c-18.063,8.494 -37.561,11.475 -56.388,9.413l-341.166,521.947l-44.185,-28.881l334.958,-512.45Z" style="fill:#727272;stroke:#231f20;stroke-width:33.33px;"/><path d="M19761.3,12262.8l0,0c58.307,0 105.575,46.172 105.575,103.128c0,56.918 -47.307,103.128 -105.575,103.128c-58.268,0 -105.575,-46.21 -105.575,-103.128c0,-56.956 47.268,-103.128 105.575,-103.128l0,0Z" style="stroke:#231f20;stroke-width:1px;stroke-dasharray:1,1;"/><path d="M19736.8,12412.6l52.788,0l0,271.437c46.613,12.035 79.181,54.08 79.181,102.222c0,58.268 -47.307,105.575 -105.575,105.575c-58.268,0 -105.575,-47.307 -105.575,-105.575c0,-48.142 32.568,-90.187 79.181,-102.222l0,-271.437Z" style="stroke:#231f20;stroke-width:1px;stroke-dasharray:1,1;"/><path d="M19805.3,12817.3l0,-52.787l271.437,0c12.035,-46.613 54.08,-79.181 102.222,-79.181c58.268,0 105.575,47.306 105.575,105.574c0,58.269 -47.307,105.575 -105.575,105.575c-48.142,0 -90.187,-32.568 -102.222,-79.181l-271.437,0Z" style="stroke:#231f20;stroke-width:1px;stroke-dasharray:1,1;"/><path d="M19792.5,12429.8l37.327,-37.327l338.869,338.87l-37.326,37.326l-338.87,-338.869Z" style="stroke:#231f20;stroke-width:1px;stroke-dasharray:1,1;"/><path d="M19736.8,12821.1l52.788,0l0,271.438c46.613,12.035 79.181,54.08 79.181,102.222c0,58.268 -47.307,105.575 -105.575,105.575c-58.268,0 -105.575,-47.307 -105.575,-105.575c0,-48.142 32.568,-90.187 79.181,-102.222l0,-271.438Z" style="stroke:#231f20;stroke-width:1px;stroke-dasharray:1,1;"/><path d="M20150.6,12821.1l52.787,0l0,271.438c46.614,12.035 79.181,54.08 79.181,102.222c0,58.268 -47.306,105.575 -105.574,105.575c-58.269,0 -105.575,-47.307 -105.575,-105.575c0,-48.142 32.568,-90.187 79.181,-102.222l0,-271.438Z" style="stroke:#231f20;stroke-width:1px;stroke-dasharray:1,1;"/><path d="M19697,12768.4c-60.913,5.689 -117.056,35.34 -156.078,82.432c-81.203,97.998 -67.517,243.53 30.545,324.787c43.032,35.658 97.535,54.497 153.385,53.018l-1.563,-57.645c-41.888,1.109 -82.765,-13.02 -115.039,-39.763c-73.547,-60.943 -83.812,-170.092 -22.909,-243.59c29.266,-35.319 71.373,-57.558 117.058,-61.824l-5.399,-57.415Z" style="stroke:#231f20;stroke-width:1px;stroke-dasharray:1,1;"/><path d="M22799,13216.9l52.788,0l0,271.437c46.613,12.035 79.181,54.08 79.181,102.222c0,58.268 -47.307,105.575 -105.575,105.575c-58.268,0 -105.575,-47.307 -105.575,-105.575c0,-48.142 32.568,-90.187 79.181,-102.222l0,-271.437Z" style="fill:#727272;stroke:#231f20;stroke-width:33.33px;"/><path d="M23146.9,12704.8c-7.093,-5.129 -13.631,-11.205 -19.418,-18.185l-245.636,115.505l-22.462,-47.77l245.635,-115.504c-8.944,-47.304 15.246,-94.668 58.812,-115.153c52.729,-24.795 115.669,-2.116 140.464,50.614c24.795,52.729 2.116,115.669 -50.614,140.464c-18.063,8.494 -37.561,11.475 -56.388,9.413l-341.166,521.947l-44.185,-28.881l334.958,-512.45Z" style="fill:#727272;stroke:#231f20;stroke-width:33.33px;"/><path d="M22414.4,12262.8l0,0c58.307,0 105.575,46.172 105.575,103.128c0,56.918 -47.307,103.128 -105.575,103.128c-58.268,0 -105.575,-46.21 -105.575,-103.128c0,-56.956 47.268,-103.128 105.575,-103.128l0,0Z" style="stroke:#231f20;stroke-width:1px;stroke-dasharray:1,1;"/><path d="M22389.9,12412.6l52.788,0l0,271.437c46.613,12.035 79.181,54.08 79.181,102.222c0,58.268 -47.307,105.575 -105.575,105.575c-58.268,0 -105.575,-47.307 -105.575,-105.575c0,-48.142 32.568,-90.187 79.181,-102.222l0,-271.437Z" style="stroke:#231f20;stroke-width:1px;stroke-dasharray:1,1;"/><path d="M22458.4,12817.3l0,-52.787l271.437,0c12.035,-46.613 54.08,-79.181 102.222,-79.181c58.268,0 105.575,47.306 105.575,105.574c0,58.269 -47.307,105.575 -105.575,105.575c-48.142,0 -90.187,-32.568 -102.222,-79.181l-271.437,0Z" style="stroke:#231f20;stroke-width:1px;stroke-dasharray:1,1;"/><path d="M22445.6,12429.8l37.327,-37.327l338.869,338.87l-37.326,37.326l-338.87,-338.869Z" style="stroke:#231f20;stroke-width:1px;stroke-dasharray:1,1;"/><path d="M22389.9,12821.1l52.788,0l0,271.438c46.613,12.035 79.181,54.08 79.181,102.222c0,58.268 -47.307,105.575 -105.575,105.575c-58.268,0 -105.575,-47.307 -105.575,-105.575c0,-48.142 32.568,-90.187 79.181,-102.222l0,-271.438Z" style="stroke:#231f20;stroke-width:1px;stroke-dasharray:1,1;"/><path d="M22803.7,12821.1l52.787,0l0,271.438c46.613,12.035 79.181,54.08 79.181,102.222c0,58.268 -47.306,105.575 -105.574,105.575c-58.269,0 -105.575,-47.307 -105.575,-105.575c0,-48.142 32.568,-90.187 79.181,-102.222l0,-271.438Z" style="stroke:#231f20;stroke-width:1px;stroke-dasharray:1,1;"/><path d="M22350.1,12768.4c-60.913,5.689 -117.056,35.34 -156.078,82.432c-81.204,97.998 -67.517,243.53 30.545,324.787c43.032,35.658 97.535,54.497 153.385,53.018l-1.563,-57.645c-41.888,1.109 -82.765,-13.02 -115.039,-39.763c-73.547,-60.943 -83.812,-170.092 -22.909,-243.59c29.266,-35.319 71.373,-57.558 117.058,-61.824l-5.399,-57.415Z" style="stroke:#231f20;stroke-width:1px;stroke-dasharray:1,1;"/><path d="M21765.2,12819.6l-945.432,0" style="stroke:#000;stroke-width:100px;stroke-dasharray:100,300,0,0;"/><path d="M24415.9,12819.6l-945.432,0" style="stroke:#000;stroke-width:100px;stroke-dasharray:100,300,0,0;"/><path d="M8295.87,10095.7c530.297,0 960.83,430.534 960.83,960.831c0,530.297 -430.533,960.831 -960.83,960.831c-530.297,0 -960.831,-430.534 -960.831,-960.831c0,-530.297 430.534,-960.831 960.831,-960.831Zm0,240.208c397.722,0 720.623,322.9 720.623,720.623c0,397.723 -322.901,720.623 -720.623,720.623c-397.723,0 -720.623,-322.9 -720.623,-720.623c0,-397.723 322.9,-720.623 720.623,-720.623Z" style="fill:none;stroke:#080605;stroke-width:20.83px;stroke-dasharray:20.83,62.5,0,0;"/><path d="M9086.43,11602.6c110.88,-160.52 170.268,-350.99 170.268,-546.083c0,-254.828 -101.23,-499.219 -281.42,-679.41l-169.853,169.853c135.143,135.143 211.066,318.436 211.066,509.557c0,146.32 -44.542,289.172 -127.702,409.563l197.641,136.52Z" style="stroke:#080605;stroke-width:20.83px;"/><path d="M8272.99,10610.1l0,0c52.126,0 94.381,41.276 94.381,92.193c0,50.883 -42.29,92.194 -94.381,92.194c-52.09,0 -94.381,-41.311 -94.381,-92.194c0,-50.917 42.256,-92.193 94.381,-92.193l0,0Z" style="stroke:#231f20;stroke-width:1px;stroke-dasharray:1,1;"/><path d="M8251.05,10744l47.19,0l0,242.658c41.671,10.76 70.786,48.347 70.786,91.384c0,52.09 -42.291,94.381 -94.381,94.381c-52.09,0 -94.381,-42.291 -94.381,-94.381c0,-43.037 29.115,-80.624 70.786,-91.384l0,-242.658Z" style="stroke:#231f20;stroke-width:1px;stroke-dasharray:1,1;"/><path d="M8251.05,11109.2l47.19,0l0,242.657c41.671,10.76 70.786,48.347 70.786,91.384c0,52.091 -42.291,94.381 -94.381,94.381c-52.09,0 -94.381,-42.29 -94.381,-94.381c0,-43.037 29.115,-80.624 70.786,-91.384l0,-242.657Z" style="stroke:#231f20;stroke-width:1px;stroke-dasharray:1,1;"/><path d="M8194.07,11062.1c-54.454,5.086 -104.644,31.593 -139.529,73.692c-72.594,87.608 -60.358,217.71 27.306,290.351c38.47,31.877 87.194,48.718 137.123,47.396l-1.398,-51.532c-37.447,0.991 -73.99,-11.64 -102.842,-35.547c-65.748,-54.481 -74.925,-152.058 -20.479,-217.764c26.163,-31.574 63.805,-51.455 104.646,-55.269l-4.827,-51.327Z" style="stroke:#231f20;stroke-width:1px;stroke-dasharray:1,1;"/><path d="M10805.5,10095.7c530.297,0 960.831,430.534 960.831,960.831c0,530.297 -430.534,960.831 -960.831,960.831c-530.297,0 -960.831,-430.534 -960.831,-960.831c0,-530.297 430.534,-960.831 960.831,-960.831Zm0,240.208c397.723,0 720.623,322.9 720.623,720.623c0,397.723 -322.9,720.623 -720.623,720.623c-397.723,0 -720.623,-322.9 -720.623,-720.623c0,-397.723 322.9,-720.623 720.623,-720.623Z" style="fill:none;stroke:#080605;stroke-width:20.83px;stroke-dasharray:20.83,62.5,0,0;"/><path d="M10622.6,11999.7c60.265,11.685 121.511,17.568 182.898,17.568c530.297,0 960.831,-430.534 960.831,-960.831c0,-254.828 -101.23,-499.219 -281.421,-679.41l-169.852,169.853c135.143,135.143 211.065,318.436 211.065,509.557c0,397.723 -322.9,720.623 -720.623,720.623c-46.04,0 -91.975,-4.412 -137.173,-13.176l-45.725,235.816Z" style="stroke:#080605;stroke-width:20.83px;"/><path d="M10805.4,10610.1l0,0c52.126,0 94.381,41.276 94.381,92.193c0,50.883 -42.29,92.194 -94.381,92.194c-52.09,0 -94.381,-41.311 -94.381,-92.194c0,-50.917 42.256,-92.193 94.381,-92.193l0,0Z" style="stroke:#231f20;stroke-width:1px;stroke-dasharray:1,1;"/><path d="M10783.5,10744l47.19,0l0,242.658c41.671,10.76 70.786,48.347 70.786,91.384c0,52.09 -42.291,94.381 -94.381,94.381c-52.09,0 -94.381,-42.291 -94.381,-94.381c0,-43.037 29.115,-80.624 70.786,-91.384l0,-242.658Z" style="stroke:#231f20;stroke-width:1px;stroke-dasharray:1,1;"/><path d="M10844.7,11105.8l0,-47.19l242.658,0c10.759,-41.671 48.346,-70.786 91.384,-70.786c52.09,0 94.381,42.291 94.381,94.381c0,52.09 -42.291,94.381 -94.381,94.381c-43.038,0 -80.625,-29.115 -91.384,-70.786l-242.658,0Z" style="stroke:#231f20;stroke-width:1px;stroke-dasharray:1,1;"/><path d="M10783.5,11109.2l47.19,0l0,242.657c41.671,10.76 70.786,48.347 70.786,91.384c0,52.091 -42.291,94.381 -94.381,94.381c-52.09,0 -94.381,-42.29 -94.381,-94.381c0,-43.037 29.115,-80.624 70.786,-91.384l0,-242.657Z" style="stroke:#231f20;stroke-width:1px;stroke-dasharray:1,1;"/><path d="M10734.9,11062.1c-54.455,5.086 -104.645,31.593 -139.529,73.692c-72.594,87.608 -60.359,217.71 27.306,290.351c38.469,31.877 87.193,48.718 137.122,47.396l-1.397,-51.532c-37.447,0.991 -73.99,-11.64 -102.842,-35.547c-65.749,-54.481 -74.926,-152.058 -20.48,-217.764c26.163,-31.574 63.806,-51.455 104.647,-55.269l-4.827,-51.327Z" style="stroke:#231f20;stroke-width:1px;stroke-dasharray:1,1;"/><path d="M6686.79,10721.6c-48.116,-129.416 -123.559,-246.943 -221.19,-344.574l-169.852,169.853c73.223,73.223 129.805,161.368 165.892,258.43l225.15,-83.709Z" style="stroke:#080605;stroke-width:20.83px;"/><path d="M5786.19,10095.7c530.297,0 960.831,430.534 960.831,960.831c0,530.297 -430.534,960.831 -960.831,960.831c-530.297,0 -960.831,-430.534 -960.831,-960.831c0,-530.297 430.534,-960.831 960.831,-960.831Zm0,240.208c397.723,0 720.623,322.9 720.623,720.623c0,397.723 -322.9,720.623 -720.623,720.623c-397.723,0 -720.623,-322.9 -720.623,-720.623c0,-397.723 322.9,-720.623 720.623,-720.623Z" style="fill:none;stroke:#080605;stroke-width:20.83px;stroke-dasharray:20.83,62.5,0,0;"/><path d="M5765.11,10610.1l0,0c52.125,0 94.381,41.276 94.381,92.193c0,50.883 -42.291,92.194 -94.381,92.194c-52.091,0 -94.381,-41.311 -94.381,-92.194c0,-50.917 42.256,-92.193 94.381,-92.193l0,0Z" style="stroke:#231f20;stroke-width:1px;stroke-dasharray:1,1;"/><path d="M5743.18,10744l47.191,0l0,242.658c41.671,10.76 70.785,48.347 70.785,91.384c0,52.09 -42.29,94.381 -94.381,94.381c-52.09,0 -94.381,-42.291 -94.381,-94.381c0,-43.037 29.115,-80.624 70.786,-91.384l0,-242.658Z" style="stroke:#231f20;stroke-width:1px;stroke-dasharray:1,1;"/><path d="M5743.18,11109.2l47.191,0l0,242.657c41.671,10.76 70.785,48.347 70.785,91.384c0,52.091 -42.29,94.381 -94.381,94.381c-52.09,0 -94.381,-42.29 -94.381,-94.381c0,-43.037 29.115,-80.624 70.786,-91.384l0,-242.657Z" style="stroke:#231f20;stroke-width:1px;stroke-dasharray:1,1;"/><path d="M12380,11277c102.277,433.824 489.475,740.352 935.193,740.352c530.296,0 960.83,-430.534 960.83,-960.831c0,-254.828 -101.23,-499.219 -281.421,-679.41l-169.852,169.853c135.143,135.143 211.066,318.436 211.066,509.557c0,397.723 -322.901,720.623 -720.623,720.623c-334.288,0 -624.687,-229.896 -701.395,-555.264l-233.798,55.12Z" style="stroke:#080605;stroke-width:20.83px;"/><path d="M13315.2,10095.7c530.296,0 960.83,430.534 960.83,960.831c0,530.297 -430.534,960.831 -960.83,960.831c-530.297,0 -960.831,-430.534 -960.831,-960.831c0,-530.297 430.534,-960.831 960.831,-960.831Zm0,240.208c397.722,0 720.623,322.9 720.623,720.623c0,397.723 -322.901,720.623 -720.623,720.623c-397.723,0 -720.624,-322.9 -720.624,-720.623c0,-397.723 322.901,-720.623 720.624,-720.623Z" style="fill:none;stroke:#080605;stroke-width:20.83px;stroke-dasharray:20.83,62.5,0,0;"/><path d="M13257,10610.1l0,0c52.126,0 94.381,41.276 94.381,92.193c0,50.883 -42.29,92.194 -94.381,92.194c-52.09,0 -94.381,-41.311 -94.381,-92.194c0,-50.917 42.256,-92.193 94.381,-92.193l0,0Z" style="stroke:#231f20;stroke-width:1px;stroke-dasharray:1,1;"/><path d="M13235.1,10744l47.19,0l0,242.658c41.671,10.76 70.786,48.347 70.786,91.384c0,52.09 -42.291,94.381 -94.381,94.381c-52.09,0 -94.381,-42.291 -94.381,-94.381c0,-43.037 29.115,-80.624 70.786,-91.384l0,-242.658Z" style="stroke:#231f20;stroke-width:1px;stroke-dasharray:1,1;"/><path d="M13296.3,11105.8l0,-47.19l242.658,0c10.759,-41.671 48.346,-70.786 91.384,-70.786c52.09,0 94.381,42.291 94.381,94.381c0,52.09 -42.291,94.381 -94.381,94.381c-43.038,0 -80.625,-29.115 -91.384,-70.786l-242.658,0Z" style="stroke:#231f20;stroke-width:1px;stroke-dasharray:1,1;"/><path d="M13235.1,11109.2l47.19,0l0,242.657c41.671,10.76 70.786,48.347 70.786,91.384c0,52.091 -42.291,94.381 -94.381,94.381c-52.09,0 -94.381,-42.29 -94.381,-94.381c0,-43.037 29.115,-80.624 70.786,-91.384l0,-242.657Z" style="stroke:#231f20;stroke-width:1px;stroke-dasharray:1,1;"/><path d="M13605,11109.2l47.191,0l0,242.657c41.671,10.76 70.786,48.347 70.786,91.384c0,52.091 -42.291,94.381 -94.381,94.381c-52.091,0 -94.381,-42.29 -94.381,-94.381c0,-43.037 29.114,-80.624 70.785,-91.384l0,-242.657Z" style="stroke:#231f20;stroke-width:1px;stroke-dasharray:1,1;"/><path d="M13199.5,11062.1c-54.455,5.086 -104.645,31.593 -139.529,73.692c-72.594,87.608 -60.359,217.71 27.306,290.351c38.469,31.877 87.193,48.718 137.122,47.396l-1.398,-51.532c-37.446,0.991 -73.989,-11.64 -102.842,-35.547c-65.748,-54.481 -74.925,-152.058 -20.479,-217.764c26.163,-31.574 63.806,-51.455 104.647,-55.269l-4.827,-51.327Z" style="stroke:#231f20;stroke-width:1px;stroke-dasharray:1,1;"/><path d="M15824.9,10095.7c-530.652,0 -960.831,430.179 -960.831,960.831c0,530.297 430.534,960.831 960.831,960.831c530.297,0 960.831,-430.534 960.831,-960.831c0,-254.828 -101.23,-499.219 -281.421,-679.41l-169.853,169.853c135.143,135.143 211.066,318.436 211.066,509.557c0,397.723 -322.9,720.623 -720.623,720.623c-397.723,0 -720.623,-322.9 -720.623,-720.623c0,-397.989 322.634,-720.623 720.623,-720.623l0,-240.208Z" style="stroke:#080605;stroke-width:20.83px;"/><path d="M15824.9,10095.7c530.297,0 960.831,430.534 960.831,960.831c0,530.297 -430.534,960.831 -960.831,960.831c-530.297,0 -960.831,-430.534 -960.831,-960.831c0,-530.297 430.534,-960.831 960.831,-960.831Zm0,240.208c397.723,0 720.623,322.9 720.623,720.623c0,397.723 -322.9,720.623 -720.623,720.623c-397.723,0 -720.623,-322.9 -720.623,-720.623c0,-397.723 322.9,-720.623 720.623,-720.623Z" style="fill:none;stroke:#080605;stroke-width:20.83px;stroke-dasharray:20.83,62.5,0,0;"/><path d="M15687.8,10610.1l0,0c52.125,0 94.381,41.276 94.381,92.193c0,50.883 -42.29,92.194 -94.381,92.194c-52.09,0 -94.381,-41.311 -94.381,-92.194c0,-50.917 42.256,-92.193 94.381,-92.193l0,0Z" style="stroke:#231f20;stroke-width:1px;stroke-dasharray:1,1;"/><path d="M15665.9,10744l47.19,0l0,242.658c41.671,10.76 70.786,48.347 70.786,91.384c0,52.09 -42.291,94.381 -94.381,94.381c-52.09,0 -94.381,-42.291 -94.381,-94.381c0,-43.037 29.115,-80.624 70.786,-91.384l0,-242.658Z" style="stroke:#231f20;stroke-width:1px;stroke-dasharray:1,1;"/><path d="M15727.1,11105.8l0,-47.19l242.657,0c10.76,-41.671 48.347,-70.786 91.384,-70.786c52.091,0 94.381,42.291 94.381,94.381c0,52.09 -42.29,94.381 -94.381,94.381c-43.037,0 -80.624,-29.115 -91.384,-70.786l-242.657,0Z" style="stroke:#231f20;stroke-width:1px;stroke-dasharray:1,1;"/><path d="M15715.7,10759.4l33.369,-33.369l302.941,302.94l-33.369,33.369l-302.941,-302.94Z" style="stroke:#231f20;stroke-width:1px;stroke-dasharray:1,1;"/><path d="M15665.9,11109.2l47.19,0l0,242.657c41.671,10.76 70.786,48.347 70.786,91.384c0,52.091 -42.291,94.381 -94.381,94.381c-52.09,0 -94.381,-42.29 -94.381,-94.381c0,-43.037 29.115,-80.624 70.786,-91.384l0,-242.657Z" style="stroke:#231f20;stroke-width:1px;stroke-dasharray:1,1;"/><path d="M16035.8,11109.2l47.191,0l0,242.657c41.671,10.76 70.785,48.347 70.785,91.384c0,52.091 -42.29,94.381 -94.381,94.381c-52.09,0 -94.381,-42.29 -94.381,-94.381c0,-43.037 29.115,-80.624 70.786,-91.384l0,-242.657Z" style="stroke:#231f20;stroke-width:1px;stroke-dasharray:1,1;"/><path d="M15630.3,11062.1c-54.454,5.086 -104.644,31.593 -139.529,73.692c-72.594,87.608 -60.358,217.71 27.306,290.351c38.47,31.877 87.194,48.718 137.123,47.396l-1.398,-51.532c-37.447,0.991 -73.989,-11.64 -102.842,-35.547c-65.748,-54.481 -74.925,-152.058 -20.479,-217.764c26.163,-31.574 63.806,-51.455 104.647,-55.269l-4.828,-51.327Z" style="stroke:#231f20;stroke-width:1px;stroke-dasharray:1,1;"/><path d="M17227.8,11032.2l-718.635,0" style="stroke:#000;stroke-width:100px;stroke-dasharray:100,300,0,0;"/><path d="M14800.9,11032.2l-554.42,0" style="stroke:#000;stroke-width:100px;stroke-dasharray:100,300,0,0;"/><path d="M12284.4,11032.2l-497.661,0" style="stroke:#000;stroke-width:100px;stroke-dasharray:100,300,0,0;"/><path d="M9825.92,11032.2l-587.485,0" style="stroke:#000;stroke-width:100px;stroke-dasharray:100,300,0,0;"/><path d="M7280.12,11032.2l-458.988,0" style="stroke:#000;stroke-width:100px;stroke-dasharray:100,300,0,0;"/><path d="M18411.1,10317.1l-785.044,799.748" style="stroke:#000;stroke-width:100px;stroke-dasharray:100,300,0,0;"/><path d="M17322.4,10886.5l1262.58,0l0,-265.572l408.572,408.572l-408.572,408.572l0,-265.571l-1262.58,0l0,-286.001Z" style="stroke:#000;stroke-width:31.25px;"/><path d="M18152.3,10375.8l892.781,-892.781l-187.788,-187.787l577.809,0l0,577.808l-187.788,-187.788l-892.781,892.781l-202.233,-202.233Z" style="stroke:#000;stroke-width:31.25px;"/><path d="M18411.1,11839.2l-785.044,-799.749" style="stroke:#000;stroke-width:100px;stroke-dasharray:100,300,0,0;"/><path d="M18152.3,11780.5l892.781,892.781l-187.788,187.788l577.809,0l0,-577.808l-187.788,187.787l-892.781,-892.78l-202.233,202.232Z" style="stroke:#000;stroke-width:31.25px;"/><path d="M17227.8,3260.85l-718.635,0" style="stroke:#000;stroke-width:100px;stroke-dasharray:100,300,0,0;"/><path d="M18411.1,2545.82l-785.044,799.748" style="stroke:#000;stroke-width:100px;stroke-dasharray:100,300,0,0;"/><path d="M17322.4,3115.15l1262.58,0l0,-265.572l408.572,408.572l-408.572,408.572l0,-265.572l-1262.58,0l0,-286Z" style="stroke:#000;stroke-width:31.25px;"/><path d="M18152.3,2604.46l892.781,-892.781l-187.788,-187.788l577.809,0l0,577.809l-187.788,-187.788l-892.781,892.781l-202.233,-202.233Z" style="stroke:#000;stroke-width:31.25px;"/><path d="M18411.1,4067.85l-785.044,-799.748" style="stroke:#000;stroke-width:100px;stroke-dasharray:100,300,0,0;"/><path d="M18152.3,4009.2l892.781,892.781l-187.788,187.788l577.809,0l0,-577.809l-187.788,187.788l-892.781,-892.781l-202.233,202.233Z" style="stroke:#000;stroke-width:31.25px;"/><g><path d="M12067.1,3061.37l4.44,123.108" style="fill:none;stroke:#83c441;stroke-width:41.67px;"/><path d="M12507,3551.25l-122.411,13.817" style="fill:none;stroke:#83c441;stroke-width:41.67px;"/><path d="M12073.4,3828.96l63.749,-105.411" style="fill:none;stroke:#83c441;stroke-width:41.67px;"/><path d="M11934.2,3455.89l-13.507,-174.868l150.099,-95.914l158.113,82.033" style="fill:none;stroke:#83c441;stroke-width:41.67px;"/><path d="M11935.9,3458.51l153.189,85.407l149.9,-96.226l-8.384,-177.929" style="fill:none;stroke:#83c441;stroke-width:41.67px;"/><path d="M12179.8,3413.34c-27.879,53.733 -94.137,74.724 -147.871,46.846c-53.733,-27.878 -74.725,-94.137 -46.846,-147.87c27.878,-53.734 94.136,-74.725 147.87,-46.847c53.734,27.879 74.725,94.137 46.847,147.871Z" style="fill:none;stroke:#83c441;stroke-width:41.67px;"/><path d="M12321.8,3740.02l-182.246,-15.687l-50.659,-181.796l150.936,-96.669l143.943,122.051l-61.974,172.101Z" style="fill:none;stroke:#83c441;stroke-width:41.67px;"/></g><g><path d="M11046.4,2467.36l4.44,123.108" style="fill:none;stroke:#83c441;stroke-width:41.67px;"/><path d="M11486.4,2957.24l-122.411,13.817" style="fill:none;stroke:#83c441;stroke-width:41.67px;"/><path d="M11052.7,3234.95l63.748,-105.411" style="fill:none;stroke:#83c441;stroke-width:41.67px;"/><path d="M10913.6,2861.88l-13.508,-174.868l150.1,-95.913l158.113,82.033" style="fill:none;stroke:#83c441;stroke-width:41.67px;"/><path d="M10915.2,2864.49l153.189,85.407l149.9,-96.225l-8.384,-177.93" style="fill:none;stroke:#83c441;stroke-width:41.67px;"/><path d="M11159.1,2819.32c-27.878,53.733 -94.136,74.725 -147.87,46.846c-53.734,-27.878 -74.725,-94.136 -46.847,-147.87c27.879,-53.734 94.137,-74.725 147.871,-46.847c53.733,27.879 74.725,94.137 46.846,147.871Z" style="fill:none;stroke:#83c441;stroke-width:41.67px;"/><path d="M11301.1,3146.01l-182.246,-15.686l-50.66,-181.796l150.937,-96.67l143.943,122.051l-61.974,172.101Z" style="fill:none;stroke:#83c441;stroke-width:41.67px;"/></g><g><path d="M15358,3177l2.372,123.165" style="fill:none;stroke:#ff7d00;stroke-width:41.67px;"/><path d="M15789.6,3674.2l-122.626,11.759" style="fill:none;stroke:#ff7d00;stroke-width:41.67px;"/><path d="M15351.4,3944.58l65.51,-104.326" style="fill:none;stroke:#ff7d00;stroke-width:41.67px;"/><path d="M16011.2,3532.97l50.359,-112.425" style="fill:none;stroke:#ff7d00;stroke-width:41.67px;"/><path d="M15218.5,3569.23l-10.567,-175.07l151.689,-93.378l156.713,84.678" style="fill:none;stroke:#ff7d00;stroke-width:41.67px;"/><path d="M15220.1,3571.87l151.732,87.969l151.496,-93.693l-5.393,-178.046" style="fill:none;stroke:#ff7d00;stroke-width:41.67px;"/><path d="M15464.7,3530.81c-28.777,53.257 -95.379,73.132 -148.637,44.355c-53.257,-28.777 -73.132,-95.379 -44.355,-148.636c28.777,-53.258 95.379,-73.133 148.636,-44.356c53.258,28.777 73.133,95.379 44.356,148.637Z" style="fill:none;stroke:#ff7d00;stroke-width:41.67px;"/><path d="M15601.2,3859.83l-181.957,-18.746l-47.598,-182.622l152.539,-94.119l141.873,124.452l-64.857,171.035Z" style="fill:none;stroke:#ff7d00;stroke-width:41.67px;"/><path d="M15801.9,3663.68l65.51,-104.325" style="fill:none;stroke:#ff7d00;stroke-width:41.67px;"/><path d="M16240.2,3393.29l-122.626,11.759" style="fill:none;stroke:#ff7d00;stroke-width:41.67px;"/><path d="M16052.3,3578.58l64.857,-171.036l-141.873,-124.452l-152.539,94.12l47.598,182.621l181.957,18.747Z" style="fill:none;stroke:#ff7d00;stroke-width:41.67px;"/></g><g><path d="M14337.3,2466.14l2.372,123.165" style="fill:none;stroke:#ff7d00;stroke-width:41.67px;"/><path d="M14768.9,2963.34l-122.626,11.759" style="fill:none;stroke:#ff7d00;stroke-width:41.67px;"/><path d="M14330.7,3233.73l65.511,-104.325" style="fill:none;stroke:#ff7d00;stroke-width:41.67px;"/><path d="M14990.5,2822.12l50.359,-112.425" style="fill:none;stroke:#ff7d00;stroke-width:41.67px;"/><path d="M14197.8,2858.37l-10.568,-175.07l151.69,-93.378l156.713,84.678" style="fill:none;stroke:#ff7d00;stroke-width:41.67px;"/><path d="M14199.4,2861.02l151.732,87.969l151.495,-93.694l-5.393,-178.045" style="fill:none;stroke:#ff7d00;stroke-width:41.67px;"/><path d="M14444,2819.95c-28.777,53.257 -95.379,73.132 -148.637,44.355c-53.257,-28.777 -73.132,-95.379 -44.355,-148.636c28.777,-53.258 95.379,-73.133 148.636,-44.356c53.258,28.777 73.133,95.379 44.356,148.637Z" style="fill:none;stroke:#ff7d00;stroke-width:41.67px;"/><path d="M14580.6,3148.97l-181.957,-18.746l-47.598,-182.622l152.539,-94.12l141.873,124.453l-64.857,171.035Z" style="fill:none;stroke:#ff7d00;stroke-width:41.67px;"/><path d="M14781.3,2952.82l65.51,-104.325" style="fill:none;stroke:#ff7d00;stroke-width:41.67px;"/><path d="M15219.5,2682.43l-122.625,11.758" style="fill:none;stroke:#ff7d00;stroke-width:41.67px;"/><path d="M15031.7,2867.72l64.857,-171.036l-141.873,-124.452l-152.539,94.12l47.598,182.621l181.957,18.747Z" style="fill:none;stroke:#ff7d00;stroke-width:41.67px;"/></g><path d="M20645.6,3342.03l-97.254,-132.615l0,-127.47" style="fill:none;stroke:#ff7d00;stroke-width:41.67px;"/><path d="M19993.6,5926.1l72.452,159.725l177.743,11.688l98.994,-148.086" style="fill:none;stroke:#ff7d00;stroke-width:41.67px;"/><g><path d="M8166.06,3066.25c65.569,28.292 141.772,-1.973 170.064,-67.541c28.292,-65.569 -1.972,-141.772 -67.541,-170.064c-65.569,-28.292 -141.772,1.972 -170.064,67.541c-28.292,65.569 1.972,141.772 67.541,170.064Z" style="fill:none;stroke:#582d89;stroke-width:41.67px;"/><path d="M8076.37,3103.29l205.444,44.146l140.953,-155.847l-64.49,-199.993l-205.444,-44.145l-140.954,155.846l64.491,199.993Z" style="fill:none;stroke:#582d89;stroke-width:41.67px;"/><path d="M8416.35,2990.57l194.98,50.062" style="fill:none;stroke:#582d89;stroke-width:41.67px;"/><path d="M7853.36,2871.53l142.212,29.911" style="fill:none;stroke:#582d89;stroke-width:41.67px;"/></g><path d="M9169.1,3394.45c32.004,63.839 109.816,89.686 173.656,57.682c63.839,-32.004 89.686,-109.816 57.682,-173.655c-32.004,-63.84 -109.816,-89.686 -173.656,-57.683c-63.839,32.004 -89.686,109.817 -57.682,173.656Z" style="fill:none;stroke:#582d89;stroke-width:41.67px;"/><path d="M9076.6,3365.12l128.901,165.954l208.171,-28.655l79.27,-194.608l-128.901,-165.954l-208.171,28.654l-79.27,194.609Z" style="fill:none;stroke:#582d89;stroke-width:41.67px;"/><path d="M9409.42,3497.51l117.083,163.752" style="fill:none;stroke:#582d89;stroke-width:41.67px;"/><path d="M9054.94,3044.22l89.643,114.38" style="fill:none;stroke:#582d89;stroke-width:41.67px;"/><path d="M9143.21,2701.2c-19.968,-50.283 -0.917,-59.523 39.488,-144.55c34.592,-72.794 -136.838,-163.205 -122.114,-230.583c137.392,-628.717 648.516,-57.563 818.835,75.428c132.437,103.411 96.596,286.919 -4.246,421.65c115.976,119.045 187.48,281.776 187.48,461.108c0,364.441 -295.301,660.32 -659.029,660.32c-65.935,0 -208.114,16.57 -194.495,-29.411c19.327,-65.249 33.156,-121.298 47.781,-165.801c10.859,-33.046 -258.997,107.612 -252.76,-51.723c10.813,-276.256 353.055,23.129 439.901,-37.942c41.442,-29.143 72.185,76.465 99.98,37.942c20.547,-28.478 1.549,-74.539 0,-110.979c-2.707,-63.69 -2.211,-119.33 0,-153.141c5.615,-85.873 -47.534,-211.389 -140.407,-296.347c-50.035,-45.771 -120.209,-74.267 -146.714,-96.676c-16.57,-14.008 -62.961,53.134 -93.103,48.883c-31.557,-4.451 -59.778,-63.859 -92.826,-81.247c-39.33,-20.693 -70.367,71.318 -116.579,81.247c-77.352,16.619 390.489,490.557 -180.453,0c-58.856,-50.569 143.463,-269.459 369.261,-388.178Z" style="fill:#5200a5;stroke:#080605;stroke-width:37.5px;"/><path d="M6114.16,2845.28c-19.968,-50.284 -0.916,-59.524 39.489,-144.551c34.592,-72.794 -136.839,-163.205 -122.115,-230.583c137.392,-628.717 648.516,-57.562 818.835,75.428c132.437,103.411 96.596,286.919 -4.246,421.65c115.976,119.045 187.48,281.776 187.48,461.109c0,364.44 -295.301,660.319 -659.029,660.319c-65.935,0 -208.114,16.57 -194.495,-29.411c19.327,-65.248 33.156,-121.297 47.781,-165.801c10.859,-33.045 -258.997,107.612 -252.76,-51.723c10.813,-276.256 353.055,23.13 439.901,-37.942c41.442,-29.143 101.529,-36.597 99.98,-73.037c-2.707,-63.69 -2.211,-119.329 0,-153.141c5.615,-85.873 -543.417,-354.069 -589.629,-344.14c-77.352,16.62 390.489,490.557 -180.453,0c-58.856,-50.569 143.463,-269.459 369.261,-388.177Z" style="fill:#5200a5;stroke:#080605;stroke-width:37.5px;"/><path d="M12054.9,2735.23c-8.661,-36.011 10.322,-52.712 45.396,-126.52c34.591,-72.794 -136.839,-163.205 -122.115,-230.583c137.392,-628.717 648.516,-57.562 818.835,75.429c140.629,109.807 91.518,309.927 -23.68,446.06c102.584,116.429 164.862,269.334 164.862,436.698c0,364.44 -295.301,660.32 -659.029,660.32c-65.935,0 -160.334,168.64 -146.715,122.659c19.327,-65.249 -200.553,-107.567 -185.929,-152.071c10.86,-33.045 -73.067,-58.189 -66.83,-217.524c6.619,-169.107 39.259,97.873 159.656,145.448c76.286,30.144 352.43,-106.925 380.225,-145.448c6.872,-9.525 -23.542,-99.15 0,-119.263c46.841,-40.02 156.406,-24.942 142.09,-96.866c-5.365,-26.953 -136.728,-49.069 -206.188,-125.048c-32.718,-35.79 -45.005,-142.869 -76.309,-184.032c-110.349,-145.101 -223.835,-233.686 -239.818,-235.941c-17.996,-2.538 -21.052,-96.143 -209.404,419.973c-136.325,373.551 -58.983,-162.714 -180.454,-267.083c-61.981,-53.255 165.694,-293.188 405.407,-406.208Z" style="fill:#5200a5;stroke:#080605;stroke-width:37.5px;"/><path d="M15339.7,2842.6c-12.876,-41.087 6.224,-55.07 43.468,-133.444c34.592,-72.794 -136.839,-163.205 -122.115,-230.583c137.392,-628.718 648.516,-57.563 818.836,75.428c129.356,101.006 98.171,278.428 2.682,412.173c189.227,140.801 332.24,342.348 332.24,542.792c0,364.441 -472.762,588.113 -836.49,588.113c-65.935,0 -160.334,168.64 -146.715,122.659c19.327,-65.248 -200.553,-107.567 -185.928,-152.07c10.859,-33.046 -73.068,-58.189 -66.831,-217.524c6.619,-169.107 39.26,97.872 159.657,145.447c41.698,16.477 151.891,3.74 239.817,-63.783c72.932,-56.009 127.805,-165.639 140.407,-183.105c6.872,-9.526 254.581,-40.883 371.571,-113.152c51.85,-32.029 73.845,-103.638 116.081,-126.585c71.61,-38.905 133.566,-139.647 89.856,-190.968c-54.102,-63.524 -234.598,-74.639 -337.15,-76.115c-122.551,-1.762 -202.511,155.295 -240.358,170.06c-70.145,27.366 -49.948,-202.794 -140.407,-170.06c-139.512,50.486 -232.26,-151.823 -239.817,-152.889c-17.997,-2.539 -21.053,-96.143 -209.405,419.972c-136.324,373.551 -58.983,-162.714 -180.453,-267.083c-60.744,-52.191 156.711,-283.673 391.054,-399.283Z" style="fill:#572f92;stroke:#080605;stroke-width:37.5px;"/><path d="M22322.5,1006.73l2.371,123.165" style="fill:none;stroke:#ff7d00;stroke-width:41.67px;"/><path d="M22595.8,1128.86l-101.198,75.567" style="fill:none;stroke:#ff7d00;stroke-width:41.67px;"/><path d="M22792.5,1217.48l-99.31,-89.588" style="fill:none;stroke:#ff7d00;stroke-width:41.67px;"/><path d="M22060.1,1160.61l112.826,49.453" style="fill:none;stroke:#ff7d00;stroke-width:41.67px;"/><path d="M22754.1,1503.93l-122.626,11.758" style="fill:none;stroke:#ff7d00;stroke-width:41.67px;"/><path d="M22315.9,1774.32l65.511,-104.325" style="fill:none;stroke:#ff7d00;stroke-width:41.67px;"/><path d="M22975.7,1362.71l50.36,-112.424" style="fill:none;stroke:#ff7d00;stroke-width:41.67px;"/><path d="M22183,1398.96l-10.568,-175.07l151.69,-93.378l156.712,84.678" style="fill:none;stroke:#ff7d00;stroke-width:41.67px;"/><path d="M22184.6,1401.61l151.733,87.968l151.495,-93.693l-5.393,-178.046" style="fill:none;stroke:#ff7d00;stroke-width:41.67px;"/><path d="M22429.2,1360.54c-28.777,53.257 -95.379,73.132 -148.636,44.355c-53.258,-28.777 -73.133,-95.379 -44.356,-148.636c28.778,-53.258 95.379,-73.133 148.637,-44.356c53.258,28.777 73.133,95.379 44.355,148.637Z" style="fill:none;stroke:#ff7d00;stroke-width:41.67px;"/><path d="M22565.7,1689.56l-181.956,-18.747l-47.598,-182.622l152.539,-94.119l141.872,124.452l-64.857,171.036Z" style="fill:none;stroke:#ff7d00;stroke-width:41.67px;"/><path d="M22766.4,1493.41l65.511,-104.325" style="fill:none;stroke:#ff7d00;stroke-width:41.67px;"/><path d="M23204.7,1223.02l-122.626,11.759" style="fill:none;stroke:#ff7d00;stroke-width:41.67px;"/><path d="M23016.8,1408.32l64.857,-171.035l-141.872,-124.453l-152.539,94.12l47.598,182.622l181.956,18.746Z" style="fill:none;stroke:#ff7d00;stroke-width:41.67px;"/><path d="M22304.2,672.34c-12.876,-41.087 6.225,-55.07 43.468,-133.444c34.592,-72.794 -136.838,-163.205 -122.114,-230.583c137.391,-628.717 648.515,-57.563 818.835,75.428c129.357,101.006 98.172,278.428 2.682,412.173c189.228,140.801 332.241,342.348 332.241,542.792c0,364.441 -472.762,588.113 -836.49,588.113c-65.935,0 -160.335,168.64 -146.715,122.66c19.327,-65.249 -200.553,-107.568 -185.929,-152.071c10.859,-33.046 -73.067,-58.189 -66.831,-217.524c6.619,-169.107 39.26,97.872 159.657,145.447c41.698,16.478 151.891,3.74 239.818,-63.783c72.931,-56.009 127.805,-165.639 140.406,-183.105c6.873,-9.526 254.582,-40.883 371.572,-113.151c51.85,-32.03 73.845,-103.639 116.08,-126.586c71.61,-38.905 133.567,-139.647 89.857,-190.968c-54.103,-63.524 -234.599,-74.639 -337.151,-76.114c-122.551,-1.763 -20.204,-109.939 -142.318,-78.378c-72.898,18.84 -37.391,60.695 -131.952,78.378c-179.336,33.535 -255.685,-288.301 -465.86,0c-26.996,37.03 -112.465,-20.433 -172.78,0c-65.335,22.132 74.553,222.57 82.923,267.082c75.914,403.711 -143.464,-147.111 -180.453,-267.082c-23.595,-76.531 156.711,-283.674 391.054,-399.284Z" style="fill:#572f92;stroke:#080605;stroke-width:37.5px;"/><path d="M20182.2,1006.73l2.371,123.165" style="fill:none;stroke:#ff7d00;stroke-width:41.67px;"/><path d="M20438.7,1132.1l-84.36,72.326" style="fill:none;stroke:#ff7d00;stroke-width:41.67px;"/><path d="M19919.8,1160.61l112.826,49.453" style="fill:none;stroke:#ff7d00;stroke-width:41.67px;"/><path d="M20613.8,1503.93l-122.626,11.758" style="fill:none;stroke:#ff7d00;stroke-width:41.67px;"/><path d="M20175.6,1774.32l65.511,-104.325" style="fill:none;stroke:#ff7d00;stroke-width:41.67px;"/><path d="M20835.4,1362.71l50.36,-112.424" style="fill:none;stroke:#ff7d00;stroke-width:41.67px;"/><path d="M20042.7,1398.96l-10.568,-175.07l151.69,-93.378l156.712,84.678" style="fill:none;stroke:#ff7d00;stroke-width:41.67px;"/><path d="M20044.4,1401.61l151.732,87.968l151.495,-93.693l-5.393,-178.046" style="fill:none;stroke:#ff7d00;stroke-width:41.67px;"/><path d="M20289,1360.54c-28.778,53.257 -95.379,73.132 -148.637,44.355c-53.258,-28.777 -73.133,-95.379 -44.356,-148.636c28.778,-53.258 95.379,-73.133 148.637,-44.356c53.258,28.777 73.133,95.379 44.356,148.637Z" style="fill:none;stroke:#ff7d00;stroke-width:41.67px;"/><path d="M20425.5,1689.56l-181.956,-18.747l-47.598,-182.622l152.539,-94.119l141.872,124.452l-64.857,171.036Z" style="fill:none;stroke:#ff7d00;stroke-width:41.67px;"/><path d="M20626.2,1493.41l65.51,-104.325" style="fill:none;stroke:#ff7d00;stroke-width:41.67px;"/><path d="M21064.4,1223.02l-122.626,11.759" style="fill:none;stroke:#ff7d00;stroke-width:41.67px;"/><path d="M20876.6,1408.32l64.856,-171.035l-141.872,-124.453l-152.539,94.12l47.598,182.622l181.957,18.746Z" style="fill:none;stroke:#ff7d00;stroke-width:41.67px;"/><path d="M20163.9,672.34c-12.876,-41.087 6.225,-55.07 43.468,-133.444c34.592,-72.794 -136.838,-163.205 -122.114,-230.583c137.392,-628.717 648.515,-57.563 818.835,75.428c129.357,101.006 98.172,278.428 2.682,412.173c189.228,140.801 332.241,342.348 332.241,542.792c0,364.441 -472.762,588.113 -836.49,588.113c-65.935,0 -160.334,168.64 -146.715,122.66c19.327,-65.249 -200.553,-107.568 -185.929,-152.071c10.859,-33.046 -73.067,-58.189 -66.831,-217.524c6.62,-169.107 39.26,97.872 159.657,145.447c41.699,16.478 151.891,3.74 239.818,-63.783c72.931,-56.009 127.805,-165.639 140.406,-183.105c6.873,-9.526 254.582,-40.883 371.572,-113.151c51.85,-32.03 73.845,-103.639 116.081,-126.586c71.609,-38.905 133.566,-139.647 89.856,-190.968c-54.103,-63.524 -234.598,-74.639 -337.151,-76.114c-122.551,-1.763 -180.021,166.602 -302.135,198.163c-72.899,18.84 122.426,-215.846 27.865,-198.163c-179.336,33.535 -255.685,-288.301 -465.86,0c-26.996,37.03 -112.465,-20.433 -172.78,0c-65.335,22.132 74.553,222.57 82.923,267.082c75.914,403.711 -143.464,-147.111 -180.453,-267.082c-23.595,-76.531 156.711,-283.674 391.054,-399.284Z" style="fill:#747272;stroke:#080605;stroke-width:37.5px;"/><g><path d="M20177.7,3145.33l2.371,123.165" style="fill:none;stroke:#ff7d00;stroke-width:41.67px;"/><path d="M20609.4,3642.53l-122.625,11.759" style="fill:none;stroke:#ff7d00;stroke-width:41.67px;"/><path d="M20171.1,3912.92l65.51,-104.325" style="fill:none;stroke:#ff7d00;stroke-width:41.67px;"/><path d="M20831,3501.31l50.359,-112.424" style="fill:none;stroke:#ff7d00;stroke-width:41.67px;"/><path d="M20038.2,3537.56l-10.567,-175.069l151.689,-93.379l156.713,84.678" style="fill:none;stroke:#ff7d00;stroke-width:41.67px;"/><path d="M20039.9,3540.21l151.733,87.968l151.495,-93.693l-5.393,-178.045" style="fill:none;stroke:#ff7d00;stroke-width:41.67px;"/><path d="M20284.5,3499.14c-28.777,53.258 -95.379,73.133 -148.636,44.356c-53.258,-28.778 -73.133,-95.379 -44.356,-148.637c28.777,-53.258 95.379,-73.133 148.637,-44.356c53.257,28.778 73.132,95.379 44.355,148.637Z" style="fill:none;stroke:#ff7d00;stroke-width:41.67px;"/><path d="M20421,3828.16l-181.956,-18.747l-47.599,-182.621l152.539,-94.12l141.873,124.452l-64.857,171.036Z" style="fill:none;stroke:#ff7d00;stroke-width:41.67px;"/><path d="M20621.7,3632.01l65.511,-104.325" style="fill:none;stroke:#ff7d00;stroke-width:41.67px;"/><path d="M21059.9,3361.62l-122.626,11.759" style="fill:none;stroke:#ff7d00;stroke-width:41.67px;"/><path d="M20872.1,3546.91l64.857,-171.035l-141.872,-124.453l-152.54,94.12l47.599,182.622l181.956,18.746Z" style="fill:none;stroke:#ff7d00;stroke-width:41.67px;"/></g><path d="M20159.4,2810.94c-12.876,-41.087 6.225,-55.07 43.468,-133.444c34.592,-72.794 -136.839,-163.205 -122.115,-230.583c137.392,-628.717 648.516,-57.562 818.836,75.428c129.357,101.006 98.171,278.428 2.682,412.173c189.228,140.802 332.241,342.349 332.241,542.793c0,364.44 -472.763,588.112 -836.491,588.112c-65.935,0 -160.334,168.641 -146.714,122.66c19.327,-65.249 -200.553,-107.568 -185.929,-152.071c10.859,-33.046 -73.067,-58.189 -66.831,-217.524c6.619,-169.107 39.26,97.872 159.657,145.448c41.698,16.477 151.891,3.74 239.817,-63.784c72.932,-56.008 127.805,-165.639 140.407,-183.105c6.873,-9.525 254.582,-40.882 371.571,-113.151c51.85,-32.03 73.845,-103.639 116.081,-126.585c71.61,-38.906 133.566,-139.647 89.856,-190.969c-54.102,-63.523 -234.598,-74.639 -337.15,-76.114c-122.551,-1.763 -202.511,-167.655 -240.358,-152.89c-70.145,27.366 -49.948,120.155 -140.407,152.89c-139.511,50.485 -232.259,-151.824 -239.817,-152.89c-17.996,-2.538 -21.053,-96.143 -209.405,419.973c-136.324,373.55 -58.982,-162.715 -180.453,-267.083c-60.744,-52.191 156.711,-283.674 391.054,-399.284Z" style="fill:#747272;stroke:#080605;stroke-width:37.5px;"/><path d="M22920.1,3342.03l-97.253,-132.615l0,-127.47" style="fill:none;stroke:#ff7d00;stroke-width:41.67px;"/><path d="M22452.2,3145.33l2.371,123.165" style="fill:none;stroke:#ff7d00;stroke-width:41.67px;"/><path d="M22883.8,3642.53l-122.626,11.759" style="fill:none;stroke:#ff7d00;stroke-width:41.67px;"/><path d="M22445.6,3912.92l65.51,-104.325" style="fill:none;stroke:#ff7d00;stroke-width:41.67px;"/><path d="M22938.5,3791.63l-74.84,-145.327" style="fill:none;stroke:#ff7d00;stroke-width:41.67px;"/><path d="M22983.1,3772.5l-75.991,-147.56" style="fill:none;stroke:#ff7d00;stroke-width:41.67px;"/><path d="M23105.4,3501.31l50.36,-112.424" style="fill:none;stroke:#ff7d00;stroke-width:41.67px;"/><path d="M22312.7,3537.56l-10.568,-175.069l151.69,-93.379l156.712,84.678" style="fill:none;stroke:#ff7d00;stroke-width:41.67px;"/><path d="M22314.3,3540.21l151.733,87.968l151.495,-93.693l-5.393,-178.045" style="fill:none;stroke:#ff7d00;stroke-width:41.67px;"/><path d="M22558.9,3499.14c-28.777,53.258 -95.379,73.133 -148.636,44.356c-53.258,-28.778 -73.133,-95.379 -44.356,-148.637c28.777,-53.258 95.379,-73.133 148.637,-44.356c53.257,28.778 73.132,95.379 44.355,148.637Z" style="fill:none;stroke:#ff7d00;stroke-width:41.67px;"/><path d="M22695.4,3828.16l-181.956,-18.747l-47.599,-182.621l152.539,-94.12l141.873,124.452l-64.857,171.036Z" style="fill:none;stroke:#ff7d00;stroke-width:41.67px;"/><path d="M22896.1,3632.01l65.511,-104.325" style="fill:none;stroke:#ff7d00;stroke-width:41.67px;"/><path d="M23334.3,3361.62l-122.626,11.759" style="fill:none;stroke:#ff7d00;stroke-width:41.67px;"/><path d="M23146.5,3546.91l64.857,-171.035l-141.872,-124.453l-152.539,94.12l47.598,182.622l181.956,18.746Z" style="fill:none;stroke:#ff7d00;stroke-width:41.67px;"/><path d="M22433.8,2810.94c-12.876,-41.087 6.225,-55.07 43.468,-133.444c34.592,-72.794 -136.839,-163.205 -122.115,-230.583c137.392,-628.717 648.516,-57.562 818.836,75.428c129.357,101.006 98.171,278.428 2.682,412.173c189.228,140.802 332.241,342.349 332.241,542.793c0,364.44 -472.763,588.112 -836.491,588.112c-65.935,0 -160.334,168.641 -146.714,122.66c19.327,-65.249 -200.553,-107.568 -185.929,-152.071c10.859,-33.046 -73.067,-58.189 -66.831,-217.524c6.619,-169.107 39.26,97.872 159.657,145.448c41.698,16.477 151.891,3.74 239.817,-63.784c72.932,-56.008 228.71,-1.326 250.207,0c91.86,5.667 249.702,-205.232 261.771,-296.256c8.012,-60.417 73.846,-103.639 116.081,-126.585c71.61,-38.906 133.567,-139.647 89.856,-190.969c-54.102,-63.523 -234.598,-74.639 -337.15,-76.114c-122.551,-1.763 -202.511,-167.655 -240.358,-152.89c-70.145,27.366 -49.948,120.155 -140.407,152.89c-139.511,50.485 -232.259,-151.824 -239.817,-152.89c-17.996,-2.538 -21.053,-96.143 -209.405,419.973c-136.324,373.55 -58.982,-162.715 -180.453,-267.083c-60.743,-52.191 156.711,-283.674 391.054,-399.284Z" style="fill:#572f92;stroke:#080605;stroke-width:37.5px;"/><path d="M20153.2,2810.94c-12.876,-41.087 6.225,-55.07 43.468,-133.444c34.592,-72.794 -136.839,-163.205 -122.115,-230.583c137.392,-628.717 648.516,-57.562 818.836,75.428c129.357,101.006 98.171,278.428 2.682,412.173c189.227,140.802 332.241,342.349 332.241,542.793c0,364.44 -472.763,588.112 -836.491,588.112c-65.935,0 -160.334,168.641 -146.714,122.66c19.326,-65.249 -200.553,-107.568 -185.929,-152.071c10.859,-33.046 -73.068,-58.189 -66.831,-217.524c6.619,-169.107 39.26,97.872 159.657,145.448c41.698,16.477 151.891,3.74 239.817,-63.784c72.932,-56.008 228.71,-1.326 250.207,0c91.86,5.667 249.702,-205.232 261.771,-296.256c8.011,-60.417 73.845,-103.639 116.081,-126.585c71.61,-38.906 133.566,-139.647 89.856,-190.969c-54.102,-63.523 -234.598,-74.639 -337.15,-76.114c-122.551,-1.763 -202.511,-167.655 -240.358,-152.89c-70.145,27.366 -49.948,120.155 -140.407,152.89c-139.511,50.485 -232.259,-151.824 -239.817,-152.89c-17.996,-2.538 -21.053,-96.143 -209.405,419.973c-136.324,373.55 -58.982,-162.715 -180.453,-267.083c-60.744,-52.191 156.711,-283.674 391.054,-399.284Z" style="fill:#572f92;stroke:#080605;stroke-width:37.5px;"/><g><path d="M20300.4,5319.55l2.371,123.165" style="fill:none;stroke:#ff7d00;stroke-width:41.67px;"/><path d="M20732.1,5816.75l-122.625,11.759" style="fill:none;stroke:#ff7d00;stroke-width:41.67px;"/><path d="M20311.7,6096.05l65.51,-104.325" style="fill:none;stroke:#ff7d00;stroke-width:41.67px;"/><path d="M20953.6,5675.53l50.359,-112.424" style="fill:none;stroke:#ff7d00;stroke-width:41.67px;"/><path d="M20160.9,5711.78l-10.567,-175.07l151.689,-93.378l156.713,84.678" style="fill:none;stroke:#ff7d00;stroke-width:41.67px;"/><path d="M20162.6,5714.43l151.733,87.968l151.495,-93.693l-5.393,-178.046" style="fill:none;stroke:#ff7d00;stroke-width:41.67px;"/><path d="M20407.2,5673.36c-28.777,53.258 -95.379,73.133 -148.636,44.355c-53.258,-28.777 -73.133,-95.378 -44.356,-148.636c28.777,-53.258 95.379,-73.133 148.637,-44.356c53.257,28.778 73.132,95.379 44.355,148.637Z" style="fill:none;stroke:#ff7d00;stroke-width:41.67px;"/><path d="M20543.7,6002.38l-181.956,-18.747l-47.599,-182.621l152.539,-94.12l141.873,124.452l-64.857,171.036Z" style="fill:none;stroke:#ff7d00;stroke-width:41.67px;"/><path d="M20744.4,5806.23l65.511,-104.325" style="fill:none;stroke:#ff7d00;stroke-width:41.67px;"/><path d="M21182.6,5535.84l-122.626,11.759" style="fill:none;stroke:#ff7d00;stroke-width:41.67px;"/><path d="M20994.8,5721.14l64.857,-171.035l-141.873,-124.453l-152.539,94.12l47.599,182.622l181.956,18.746Z" style="fill:none;stroke:#ff7d00;stroke-width:41.67px;"/></g><path d="M20282.1,4985.16c-12.876,-41.087 6.225,-55.07 43.468,-133.444c34.592,-72.794 -136.839,-163.205 -122.115,-230.583c137.392,-628.717 648.516,-57.563 818.836,75.428c129.357,101.006 98.171,278.428 2.682,412.173c189.227,140.802 332.24,342.349 332.24,542.793c0,364.44 -472.762,588.112 -836.49,588.112c-65.935,0 -160.334,168.64 -146.714,122.66c19.326,-65.249 -200.553,-107.568 -185.929,-152.071c10.401,-31.652 -26.375,-91.494 94.022,-43.919c41.698,16.477 150.695,-24.417 238.621,-91.941c72.932,-56.008 127.805,-165.639 140.407,-183.105c6.873,-9.525 254.582,-40.882 371.571,-113.151c51.85,-32.03 73.845,-103.639 116.081,-126.585c71.61,-38.906 133.566,-139.648 89.856,-190.969c-54.102,-63.523 -234.598,-74.639 -337.15,-76.114c-122.551,-1.763 -202.511,155.294 -240.358,170.059c-70.145,27.366 -49.948,-202.794 -140.407,-170.059c-139.511,50.485 -232.259,-151.824 -239.817,-152.89c-17.996,-2.538 -21.053,-96.143 -209.405,419.973c-136.324,373.55 -58.982,-162.715 -180.453,-267.083c-60.744,-52.191 156.711,-283.674 391.054,-399.284Z" style="fill:#747272;stroke:#080605;stroke-width:37.5px;"/><path d="M22478.1,5319.55l2.371,123.165" style="fill:none;stroke:#ff7d00;stroke-width:41.67px;"/><path d="M22909.7,5816.75l-122.626,11.759" style="fill:none;stroke:#ff7d00;stroke-width:41.67px;"/><path d="M23131.3,5675.53l50.36,-112.424" style="fill:none;stroke:#ff7d00;stroke-width:41.67px;"/><path d="M22338.6,5711.78l-10.568,-175.07l151.69,-93.378l156.712,84.678" style="fill:none;stroke:#ff7d00;stroke-width:41.67px;"/><path d="M22340.2,5714.43l151.732,87.968l151.495,-93.693l-5.393,-178.046" style="fill:none;stroke:#ff7d00;stroke-width:41.67px;"/><path d="M22584.8,5673.36c-28.777,53.258 -95.378,73.133 -148.636,44.355c-53.258,-28.777 -73.133,-95.378 -44.356,-148.636c28.778,-53.258 95.379,-73.133 148.637,-44.356c53.258,28.778 73.133,95.379 44.355,148.637Z" style="fill:none;stroke:#ff7d00;stroke-width:41.67px;"/><path d="M22340.2,5714.43l151.732,87.968l151.495,-93.693l-5.393,-178.046" style="fill:none;stroke:#ff7d00;stroke-width:41.67px;"/><path d="M22584.8,5673.36c-28.777,53.258 -95.378,73.133 -148.636,44.355c-53.258,-28.777 -73.133,-95.378 -44.356,-148.636c28.778,-53.258 95.379,-73.133 148.637,-44.356c53.258,28.778 73.133,95.379 44.355,148.637Z" style="fill:none;stroke:#ff7d00;stroke-width:41.67px;"/><path d="M22447.7,6142.83l97.348,-145.892l177.291,17.232l73.722,162.155" style="fill:none;stroke:#ff7d00;stroke-width:41.67px;"/><path d="M22447.4,6145.93l67.765,161.769l213.535,15.391l67.06,-143.664" style="fill:none;stroke:#ff7d00;stroke-width:41.67px;"/><path d="M22667.1,6260.98c-55.107,25.053 -120.188,0.654 -145.242,-54.453c-25.053,-55.108 -0.654,-120.188 54.453,-145.242c55.108,-25.054 120.188,-0.654 145.242,54.453c25.054,55.107 0.654,120.188 -54.453,145.242Z" style="fill:none;stroke:#ff7d00;stroke-width:41.67px;"/><path d="M22721.3,6002.38l-181.956,-18.747l-47.598,-182.621l152.539,-94.12l141.872,124.452l-64.857,171.036Z" style="fill:none;stroke:#ff7d00;stroke-width:41.67px;"/><path d="M22922,5806.23l65.51,-104.325" style="fill:none;stroke:#ff7d00;stroke-width:41.67px;"/><path d="M23360.2,5535.84l-122.626,11.759" style="fill:none;stroke:#ff7d00;stroke-width:41.67px;"/><path d="M23172.4,5721.14l64.856,-171.035l-141.872,-124.453l-152.539,94.12l47.598,182.622l181.957,18.746Z" style="fill:none;stroke:#ff7d00;stroke-width:41.67px;"/><path d="M20273.5,4985.16c-12.876,-41.087 6.225,-55.07 43.468,-133.444c34.592,-72.794 -136.838,-163.205 -122.114,-230.583c137.391,-628.717 648.515,-57.563 818.835,75.428c129.357,101.006 98.172,278.428 2.682,412.173c189.228,140.802 522.315,479.158 332.241,542.793c-520.36,174.21 -473.457,1148.55 -836.491,820.943c-41.986,-37.889 102.363,-81.817 140.407,-201.434c44.659,-140.413 -10.948,-357.406 0,-379.773c5.164,-10.55 254.582,-40.882 371.571,-113.151c51.851,-32.03 73.846,-103.639 116.081,-126.585c71.61,-38.906 133.567,-139.648 89.857,-190.969c-54.103,-63.523 -234.599,-74.639 -337.151,-76.114c-122.551,-1.763 -202.511,155.294 -240.358,170.059c-70.145,27.366 -49.948,-202.794 -140.407,-170.059c-139.511,50.485 -232.259,-151.824 -239.817,-152.89c-17.996,-2.538 -21.053,-96.143 -209.405,419.973c-136.324,373.55 -58.982,-162.715 -180.453,-267.083c-60.743,-52.191 156.711,-283.674 391.054,-399.284Z" style="fill:#572f92;stroke:#080605;stroke-width:37.5px;"/><path d="M22465.7,4985.16c-12.876,-41.087 6.224,-55.07 43.468,-133.444c34.591,-72.794 -136.839,-163.205 -122.115,-230.583c137.392,-628.717 648.516,-57.563 818.835,75.428c129.357,101.006 98.172,278.428 2.683,412.173c189.227,140.802 522.315,479.158 332.24,542.793c-520.359,174.21 -473.457,1148.55 -836.49,820.943c-41.987,-37.889 102.362,-81.817 140.406,-201.434c44.659,-140.413 -10.948,-357.406 0,-379.773c5.165,-10.55 254.582,-40.882 371.572,-113.151c51.85,-32.03 73.845,-103.639 116.081,-126.585c71.609,-38.906 133.566,-139.648 89.856,-190.969c-54.102,-63.523 -234.598,-74.639 -337.151,-76.114c-122.551,-1.763 -202.511,155.294 -240.358,170.059c-70.144,27.366 -49.947,-202.794 -140.406,-170.059c-139.512,50.485 -232.26,-151.824 -239.818,-152.89c-17.996,-2.538 -21.052,-96.143 -209.404,419.973c-136.325,373.55 -58.983,-162.715 -180.454,-267.083c-60.743,-52.191 156.711,-283.674 391.055,-399.284Z" style="fill:#572f92;stroke:#080605;stroke-width:37.5px;"/><path d="M24252.6,1006.73l2.372,123.165" style="fill:none;stroke:#ff7d00;stroke-width:41.67px;"/><path d="M24525.9,1128.86l-101.198,75.567" style="fill:none;stroke:#ff7d00;stroke-width:41.67px;"/><path d="M24722.7,1217.48l-99.31,-89.588" style="fill:none;stroke:#ff7d00;stroke-width:41.67px;"/><path d="M23990.2,1160.61l112.826,49.453" style="fill:none;stroke:#ff7d00;stroke-width:41.67px;"/><path d="M24684.3,1503.93l-122.626,11.758" style="fill:none;stroke:#ff7d00;stroke-width:41.67px;"/><path d="M24246,1774.32l65.51,-104.325" style="fill:none;stroke:#ff7d00;stroke-width:41.67px;"/><path d="M24905.9,1362.71l50.359,-112.424" style="fill:none;stroke:#ff7d00;stroke-width:41.67px;"/><path d="M24113.1,1398.96l-10.567,-175.07l151.689,-93.378l156.713,84.678" style="fill:none;stroke:#ff7d00;stroke-width:41.67px;"/><path d="M24114.8,1401.61l151.732,87.968l151.496,-93.693l-5.393,-178.046" style="fill:none;stroke:#ff7d00;stroke-width:41.67px;"/><path d="M24359.4,1360.54c-28.777,53.257 -95.379,73.132 -148.637,44.355c-53.257,-28.777 -73.132,-95.379 -44.355,-148.636c28.777,-53.258 95.379,-73.133 148.636,-44.356c53.258,28.777 73.133,95.379 44.356,148.637Z" style="fill:none;stroke:#ff7d00;stroke-width:41.67px;"/><path d="M24495.9,1689.56l-181.957,-18.747l-47.598,-182.622l152.539,-94.119l141.873,124.452l-64.857,171.036Z" style="fill:none;stroke:#ff7d00;stroke-width:41.67px;"/><path d="M24696.6,1493.41l65.51,-104.325" style="fill:none;stroke:#ff7d00;stroke-width:41.67px;"/><path d="M25134.8,1223.02l-122.626,11.759" style="fill:none;stroke:#ff7d00;stroke-width:41.67px;"/><path d="M24947,1408.32l64.857,-171.035l-141.873,-124.453l-152.539,94.12l47.599,182.622l181.956,18.746Z" style="fill:none;stroke:#ff7d00;stroke-width:41.67px;"/><path d="M24234.3,672.34c-12.876,-41.087 6.225,-55.07 43.468,-133.444c34.592,-72.794 -136.839,-163.205 -122.115,-230.583c137.392,-628.717 648.516,-57.563 818.836,75.428c129.356,101.006 98.171,278.428 2.682,412.173c189.227,140.801 332.24,342.348 332.24,542.792c0,364.441 -472.762,588.113 -836.49,588.113c-65.935,0 -160.334,168.64 -146.715,122.66c19.327,-65.249 -200.553,-107.568 -185.928,-152.071c10.859,-33.046 -73.068,-58.189 -66.831,-217.524c6.619,-169.107 39.26,97.872 159.657,145.447c41.698,16.478 151.891,3.74 239.817,-63.783c72.932,-56.009 127.805,-165.639 140.407,-183.105c6.872,-9.526 254.581,-40.883 371.571,-113.151c51.85,-32.03 73.845,-103.639 116.081,-126.586c71.61,-38.905 133.566,-139.647 89.856,-190.968c-54.102,-63.524 -234.598,-74.639 -337.15,-76.114c-122.551,-1.763 -20.204,-109.939 -142.318,-78.378c-72.899,18.84 -37.391,60.695 -131.952,78.378c-179.336,33.535 -255.685,-288.301 -465.86,0c-26.996,37.03 -112.466,-20.433 -172.781,0c-65.335,22.132 74.554,222.57 82.924,267.082c75.913,403.711 -143.465,-147.111 -180.453,-267.082c-23.596,-76.531 156.711,-283.674 391.054,-399.284Z" style="fill:#572f92;stroke:#080605;stroke-width:37.5px;"/><path d="M24850.2,3342.03l-97.253,-132.615l0,-127.47" style="fill:none;stroke:#ff7d00;stroke-width:41.67px;"/><path d="M24382.3,3145.33l2.372,123.165" style="fill:none;stroke:#ff7d00;stroke-width:41.67px;"/><path d="M24813.9,3642.53l-122.626,11.759" style="fill:none;stroke:#ff7d00;stroke-width:41.67px;"/><path d="M24375.7,3912.92l65.511,-104.325" style="fill:none;stroke:#ff7d00;stroke-width:41.67px;"/><path d="M24868.7,3791.63l-74.841,-145.327" style="fill:none;stroke:#ff7d00;stroke-width:41.67px;"/><path d="M24913.3,3772.5l-75.991,-147.56" style="fill:none;stroke:#ff7d00;stroke-width:41.67px;"/><path d="M25035.5,3501.31l50.359,-112.424" style="fill:none;stroke:#ff7d00;stroke-width:41.67px;"/><path d="M24242.8,3537.56l-10.568,-175.069l151.69,-93.379l156.713,84.678" style="fill:none;stroke:#ff7d00;stroke-width:41.67px;"/><path d="M24244.5,3540.21l151.732,87.968l151.496,-93.693l-5.393,-178.045" style="fill:none;stroke:#ff7d00;stroke-width:41.67px;"/><path d="M24489.1,3499.14c-28.777,53.258 -95.379,73.133 -148.637,44.356c-53.257,-28.778 -73.132,-95.379 -44.355,-148.637c28.777,-53.258 95.379,-73.133 148.636,-44.356c53.258,28.778 73.133,95.379 44.356,148.637Z" style="fill:none;stroke:#ff7d00;stroke-width:41.67px;"/><path d="M24625.6,3828.16l-181.957,-18.747l-47.598,-182.621l152.539,-94.12l141.873,124.452l-64.857,171.036Z" style="fill:none;stroke:#ff7d00;stroke-width:41.67px;"/><path d="M24826.3,3632.01l65.51,-104.325" style="fill:none;stroke:#ff7d00;stroke-width:41.67px;"/><path d="M25264.5,3361.62l-122.625,11.759" style="fill:none;stroke:#ff7d00;stroke-width:41.67px;"/><path d="M25076.7,3546.91l64.857,-171.035l-141.873,-124.453l-152.539,94.12l47.598,182.622l181.957,18.746Z" style="fill:none;stroke:#ff7d00;stroke-width:41.67px;"/><path d="M24364,2810.94c-12.876,-41.087 6.224,-55.07 43.468,-133.444c34.592,-72.794 -136.839,-163.205 -122.115,-230.583c137.392,-628.717 648.516,-57.562 818.835,75.428c129.357,101.006 98.172,278.428 2.683,412.173c189.227,140.802 332.24,342.349 332.24,542.793c0,364.44 -472.762,588.112 -836.49,588.112c-65.935,0 -160.334,168.641 -146.715,122.66c19.327,-65.249 -200.553,-107.568 -185.928,-152.071c10.859,-33.046 -73.068,-58.189 -66.831,-217.524c6.619,-169.107 39.259,97.872 159.656,145.448c41.699,16.477 151.891,3.74 239.818,-63.784c72.932,-56.008 228.71,-1.326 250.206,0c91.861,5.667 249.702,-205.232 261.772,-296.256c8.011,-60.417 73.845,-103.639 116.081,-126.585c71.61,-38.906 133.566,-139.647 89.856,-190.969c-54.102,-63.523 -234.598,-74.639 -337.151,-76.114c-122.55,-1.763 -202.51,-167.655 -240.357,-152.89c-70.145,27.366 -49.948,120.155 -140.407,152.89c-139.512,50.485 -232.26,-151.824 -239.818,-152.89c-17.996,-2.538 -21.052,-96.143 -209.404,419.973c-136.325,373.55 -58.983,-162.715 -180.454,-267.083c-60.743,-52.191 156.712,-283.674 391.055,-399.284Z" style="fill:#572f92;stroke:#080605;stroke-width:37.5px;"/><path d="M24408.2,5319.55l2.372,123.165" style="fill:none;stroke:#ff7d00;stroke-width:41.67px;"/><path d="M24839.8,5816.75l-122.626,11.759" style="fill:none;stroke:#ff7d00;stroke-width:41.67px;"/><path d="M25061.4,5675.53l50.359,-112.424" style="fill:none;stroke:#ff7d00;stroke-width:41.67px;"/><path d="M24268.7,5711.78l-10.567,-175.07l151.689,-93.378l156.713,84.678" style="fill:none;stroke:#ff7d00;stroke-width:41.67px;"/><path d="M24270.4,5714.43l151.732,87.968l151.496,-93.693l-5.393,-178.046" style="fill:none;stroke:#ff7d00;stroke-width:41.67px;"/><path d="M24515,5673.36c-28.777,53.258 -95.379,73.133 -148.637,44.355c-53.257,-28.777 -73.132,-95.378 -44.355,-148.636c28.777,-53.258 95.379,-73.133 148.636,-44.356c53.258,28.778 73.133,95.379 44.356,148.637Z" style="fill:none;stroke:#ff7d00;stroke-width:41.67px;"/><path d="M24270.4,5714.43l151.732,87.968l151.496,-93.693l-5.393,-178.046" style="fill:none;stroke:#ff7d00;stroke-width:41.67px;"/><path d="M24515,5673.36c-28.777,53.258 -95.379,73.133 -148.637,44.355c-53.257,-28.777 -73.132,-95.378 -44.355,-148.636c28.777,-53.258 95.379,-73.133 148.636,-44.356c53.258,28.778 73.133,95.379 44.356,148.637Z" style="fill:none;stroke:#ff7d00;stroke-width:41.67px;"/><path d="M24377.9,6142.83l97.347,-145.892l177.292,17.232l73.721,162.155" style="fill:none;stroke:#ff7d00;stroke-width:41.67px;"/><path d="M24377.6,6145.93l67.765,161.769l213.535,15.391l67.061,-143.664" style="fill:none;stroke:#ff7d00;stroke-width:41.67px;"/><path d="M24597.3,6260.98c-55.108,25.053 -120.188,0.654 -145.242,-54.453c-25.054,-55.108 -0.654,-120.188 54.453,-145.242c55.107,-25.054 120.188,-0.654 145.242,54.453c25.053,55.107 0.654,120.188 -54.453,145.242Z" style="fill:none;stroke:#ff7d00;stroke-width:41.67px;"/><path d="M24651.5,6002.38l-181.957,-18.747l-47.598,-182.621l152.539,-94.12l141.873,124.452l-64.857,171.036Z" style="fill:none;stroke:#ff7d00;stroke-width:41.67px;"/><path d="M24852.2,5806.23l65.51,-104.325" style="fill:none;stroke:#ff7d00;stroke-width:41.67px;"/><path d="M25290.4,5535.84l-122.626,11.759" style="fill:none;stroke:#ff7d00;stroke-width:41.67px;"/><path d="M25102.6,5721.14l64.857,-171.035l-141.873,-124.453l-152.539,94.12l47.599,182.622l181.956,18.746Z" style="fill:none;stroke:#ff7d00;stroke-width:41.67px;"/><path d="M24395.9,4985.16c-12.876,-41.087 6.225,-55.07 43.468,-133.444c34.592,-72.794 -136.839,-163.205 -122.115,-230.583c137.392,-628.717 648.516,-57.563 818.836,75.428c129.357,101.006 98.171,278.428 2.682,412.173c189.227,140.802 522.315,479.158 332.24,542.793c-520.359,174.21 -473.457,1148.55 -836.49,820.943c-41.986,-37.889 102.363,-81.817 140.407,-201.434c44.658,-140.413 -10.948,-357.406 0,-379.773c5.164,-10.55 254.582,-40.882 371.571,-113.151c51.85,-32.03 73.845,-103.639 116.081,-126.585c71.61,-38.906 133.566,-139.648 89.856,-190.969c-54.102,-63.523 -234.598,-74.639 -337.15,-76.114c-122.551,-1.763 -202.511,155.294 -240.358,170.059c-70.145,27.366 -49.948,-202.794 -140.407,-170.059c-139.511,50.485 -232.259,-151.824 -239.817,-152.89c-17.996,-2.538 -21.053,-96.143 -209.405,419.973c-136.324,373.55 -58.982,-162.715 -180.453,-267.083c-60.744,-52.191 156.711,-283.674 391.054,-399.284Z" style="fill:#572f92;stroke:#080605;stroke-width:37.5px;"/><text x="6813.78px" y="13055.9px" style="font-family:'Arial-BoldMT', 'Arial', sans-serif;font-weight:700;font-size:625px;stroke:#000;stroke-width:29.17px;stroke-linecap:butt;stroke-miterlimit:1.41421;">T<tspan x="7149.16px 7530.94px " y="13055.9px 13055.9px ">ol</tspan>erated Genetic Perturbations</text><g><path d="M19143.9,7294.41l-2544.64,0" style="stroke:#000;stroke-width:100px;stroke-dasharray:100,300,0,0;"/><path d="M25192.4,7284.45l-816.79,-486.914l0,987.31l816.79,-500.396l-5849.34,0" style="stroke:#000;stroke-width:100px;"/><path d="M16865.9,7088.67l-258.217,426.483" style="stroke:#000;stroke-width:100px;"/><path d="M19463.3,7088.67l-258.217,426.483" style="stroke:#000;stroke-width:100px;"/><path d="M16677.8,7301.91l-7814.77,0" style="stroke:#000;stroke-width:100px;"/><path d="M6435.63,7301.91l-1339.75,0" style="stroke:#000;stroke-width:100px;"/><text x="6591.69px" y="7525.62px" style="font-family:'Arial-BoldMT', 'Arial', sans-serif;font-weight:700;font-size:833.333px;stroke:#000;stroke-width:29.17px;stroke-linecap:butt;stroke-miterlimit:1.41421;">T<tspan x="7085.67px 7317.2px " y="7525.62px 7525.62px ">im</tspan>e</text></g><text x="5820.01px" y="4961.42px" style="font-family:'Arial-BoldMT', 'Arial', sans-serif;font-weight:700;font-size:625px;stroke:#000;stroke-width:29.17px;stroke-linecap:butt;stroke-miterlimit:1.41421;">Emergence of Xenobiotic Resistance</text><g transform="matrix(0.47371,0,0,0.47371,-2090.87,134.772)"><text x="4444.61px" y="14775.2px" style="font-family:'Arial-BoldMT', 'Arial', sans-serif;font-weight:700;font-size:1255.42px;stroke:#000;stroke-width:61.57px;stroke-linecap:butt;stroke-miterlimit:1.41421;">Ancestral</text><text x="5770.52px" y="16071.7px" style="font-family:'Arial-BoldMT', 'Arial', sans-serif;font-weight:700;font-size:1255.42px;stroke:#000;stroke-width:61.57px;stroke-linecap:butt;stroke-miterlimit:1.41421;">State</text></g><path d="M20158.6,672.34c-12.876,-41.087 6.224,-55.07 43.468,-133.444c34.592,-72.794 -136.839,-163.205 -122.115,-230.583c137.392,-628.717 648.516,-57.563 818.836,75.428c129.356,101.006 98.171,278.428 2.682,412.173c189.227,140.801 332.24,342.348 332.24,542.792c0,364.441 -472.762,588.113 -836.49,588.113c-65.935,0 -160.334,168.64 -146.715,122.66c19.327,-65.249 -200.553,-107.568 -185.928,-152.071c10.859,-33.046 -73.068,-58.189 -66.831,-217.524c6.619,-169.107 39.26,97.872 159.657,145.447c41.698,16.478 151.891,3.74 239.817,-63.783c72.932,-56.009 127.805,-165.639 140.407,-183.105c6.872,-9.526 254.581,-40.883 371.571,-113.151c51.85,-32.03 73.845,-103.639 116.081,-126.586c71.61,-38.905 133.566,-139.647 89.856,-190.968c-54.102,-63.524 -234.598,-74.639 -337.15,-76.114c-122.551,-1.763 -20.204,-109.939 -142.318,-78.378c-72.899,18.84 -37.392,60.695 -131.952,78.378c-179.336,33.535 -255.685,-288.301 -465.86,0c-26.996,37.03 -112.466,-20.433 -172.781,0c-65.335,22.132 74.554,222.57 82.924,267.082c75.913,403.711 -143.465,-147.111 -180.453,-267.082c-23.596,-76.531 156.711,-283.674 391.054,-399.284Z" style="fill:#572f92;stroke:#080605;stroke-width:37.5px;"/></svg>