<?xml version="1.0" encoding="UTF-8" standalone="no"?><!DOCTYPE svg PUBLIC "-//W3C//DTD SVG 1.1//EN" "http://www.w3.org/Graphics/SVG/1.1/DTD/svg11.dtd"><svg width="100%" height="100%" viewBox="0 0 1742 392" version="1.1" xmlns="http://www.w3.org/2000/svg" xmlns:xlink="http://www.w3.org/1999/xlink" xml:space="preserve" xmlns:serif="http://www.serif.com/" style="fill-rule:evenodd;clip-rule:evenodd;stroke-linejoin:round;stroke-miterlimit:1.41421;"><path d="M79.236,167.215c22.595,-1.71 82.212,23.332 141.168,12.898c22.871,-4.048 32.749,-17.811 37.645,-24.01c4.895,-6.199 18.004,-37.322 18.004,-37.322c0,0 -13.346,29.116 -29.891,37.322c-7.028,3.485 -33.275,6.309 -50.128,5.261c-22.822,-1.419 -41.986,-7.055 -52.221,-9.667c-24.325,-6.206 -44.672,-9.923 -58.429,-7.568c-40.254,6.893 -78.056,45.17 -78.056,45.17c0,0 49.313,-20.375 71.908,-22.084Z" style="fill:#ffb100;stroke:#000;stroke-width:1.46px;"/><path d="M79.236,167.215c22.595,-1.71 82.212,23.332 141.168,12.898c22.871,-4.048 32.749,-17.811 37.645,-24.01c4.895,-6.199 18.004,-37.322 18.004,-37.322c0,0 -13.346,29.116 -29.891,37.322c-7.028,3.485 -33.275,6.309 -50.128,5.261c-22.822,-1.419 -41.986,-7.055 -52.221,-9.667c-24.325,-6.206 -44.672,-9.923 -58.429,-7.568c-40.254,6.893 -78.056,45.17 -78.056,45.17c0,0 49.313,-20.375 71.908,-22.084Z" style="fill:none;stroke:#000;stroke-width:1.46px;stroke-linecap:square;stroke-linejoin:miter;stroke-miterlimit:10;"/><path d="M79.236,337.08c22.595,-1.71 82.212,23.332 141.168,12.898c22.871,-4.048 32.749,-17.811 37.645,-24.01c4.895,-6.199 18.004,-37.322 18.004,-37.322c0,0 -13.346,29.116 -29.891,37.322c-7.028,3.485 -33.275,6.308 -50.128,5.261c-22.822,-1.419 -41.986,-7.056 -52.221,-9.667c-24.325,-6.207 -44.672,-9.924 -58.429,-7.568c-40.254,6.892 -78.056,45.17 -78.056,45.17c0,0 49.313,-20.375 71.908,-22.084Z" style="fill:#4785c5;stroke:#000;stroke-width:1.46px;"/><path d="M79.236,337.079c22.595,-1.709 82.212,23.333 141.168,12.899c22.871,-4.048 32.749,-17.811 37.645,-24.01c4.895,-6.199 18.004,-37.322 18.004,-37.322c0,0 -13.346,29.116 -29.891,37.322c-7.028,3.485 -33.275,6.308 -50.128,5.261c-22.822,-1.419 -41.986,-7.056 -52.221,-9.667c-24.325,-6.207 -44.672,-9.924 -58.429,-7.568c-40.254,6.892 -78.056,45.17 -78.056,45.17c0,0 49.313,-20.375 71.908,-22.085Z" style="fill:none;stroke:#000;stroke-width:1.46px;stroke-linecap:square;stroke-linejoin:miter;stroke-miterlimit:10;"/><path d="M426.124,166.771c22.595,-1.709 82.211,23.333 141.167,12.898c22.872,-4.047 32.75,-17.81 37.645,-24.009c4.896,-6.199 18.004,-37.322 18.004,-37.322c0,0 -13.345,29.116 -29.89,37.322c-7.028,3.485 -33.275,6.308 -50.128,5.26c-22.823,-1.418 -41.987,-7.055 -52.221,-9.666c-24.326,-6.207 -44.672,-9.924 -58.43,-7.568c-40.254,6.892 -78.056,45.17 -78.056,45.17c0,0 49.314,-20.375 71.909,-22.085Z" style="fill:#ffb100;stroke:#000;stroke-width:1.46px;"/><path d="M426.124,166.771c22.595,-1.709 82.211,23.333 141.168,12.899c22.871,-4.048 32.748,-17.812 37.644,-24.011c4.896,-6.199 18.004,-37.321 18.004,-37.321c0,0 -13.345,29.116 -29.89,37.321c-7.028,3.486 -33.275,6.309 -50.128,5.262c-22.823,-1.419 -41.987,-7.056 -52.221,-9.667c-24.326,-6.207 -44.672,-9.924 -58.43,-7.568c-40.254,6.892 -78.056,45.17 -78.056,45.17c0,0 49.314,-20.375 71.909,-22.085Z" style="fill:none;stroke:#000;stroke-width:1.46px;stroke-linecap:square;stroke-linejoin:miter;stroke-miterlimit:10;"/><path d="M426.124,166.771c22.595,-1.709 82.211,23.333 141.167,12.898c22.872,-4.047 32.75,-17.81 37.645,-24.009c4.896,-6.199 18.004,-37.322 18.004,-37.322c0,0 -11.565,34.377 -28.11,42.582c-7.028,3.486 -29.998,11.243 -46.851,10.195c-22.822,-1.418 -44.508,-1.732 -54.743,-4.344c-24.325,-6.206 -44.584,-13.467 -58.342,-11.111c-40.254,6.892 -80.679,33.196 -80.679,33.196c0,0 49.314,-20.375 71.909,-22.085Z" style="fill:#4785c5;stroke:#000;stroke-width:1.46px;stroke-linecap:square;stroke-linejoin:miter;stroke-miterlimit:10;"/><path d="M426.124,337.08c22.595,-1.71 82.211,23.332 141.167,12.898c22.872,-4.048 32.75,-17.811 37.645,-24.01c4.896,-6.199 18.004,-37.322 18.004,-37.322c0,0 -13.345,29.116 -29.89,37.322c-7.028,3.485 -33.275,6.308 -50.128,5.261c-22.823,-1.419 -41.987,-7.056 -52.221,-9.667c-24.326,-6.207 -44.672,-9.924 -58.43,-7.568c-40.254,6.892 -78.056,45.17 -78.056,45.17c0,0 49.314,-20.375 71.909,-22.084Z" style="fill:#ffb100;stroke:#000;stroke-width:1.46px;"/><path d="M426.124,337.079c22.595,-1.709 82.211,23.333 141.168,12.899c22.871,-4.048 32.748,-17.811 37.644,-24.01c4.896,-6.199 18.004,-37.322 18.004,-37.322c0,0 -13.345,29.116 -29.89,37.322c-7.028,3.485 -33.275,6.308 -50.128,5.261c-22.823,-1.419 -41.987,-7.056 -52.221,-9.667c-24.326,-6.207 -44.672,-9.924 -58.43,-7.568c-40.254,6.892 -78.056,45.17 -78.056,45.17c0,0 49.314,-20.375 71.909,-22.085Z" style="fill:none;stroke:#000;stroke-width:1.46px;stroke-linecap:square;stroke-linejoin:miter;stroke-miterlimit:10;"/><path d="M426.124,337.08c22.595,-1.71 82.211,23.332 141.167,12.898c22.872,-4.048 32.75,-17.811 37.645,-24.01c4.896,-6.199 18.004,-37.322 18.004,-37.322c0,0 -11.565,34.377 -28.11,42.583c-7.028,3.485 -29.998,11.242 -46.851,10.195c-22.822,-1.419 -44.508,-1.733 -54.743,-4.344c-24.325,-6.207 -44.584,-13.468 -58.342,-11.112c-40.254,6.892 -80.679,33.196 -80.679,33.196c0,0 49.314,-20.375 71.909,-22.084Z" style="fill:#4785c5;stroke:#000;stroke-width:1.46px;stroke-linecap:square;stroke-linejoin:miter;stroke-miterlimit:10;"/><path d="M1451,166.693c22.592,-1.707 82.199,23.295 141.145,12.878c22.868,-4.042 32.744,-17.783 37.639,-23.972c4.895,-6.189 18.002,-37.261 18.002,-37.261c0,0 -13.344,29.069 -29.886,37.261c-7.027,3.48 -33.27,6.299 -50.12,5.253c-22.819,-1.416 -41.98,-7.044 -52.213,-9.651c-24.322,-6.197 -44.665,-9.908 -58.42,-7.556c-40.248,6.881 -78.044,45.097 -78.044,45.097c0,0 49.305,-20.342 71.897,-22.049Z" style="fill:#ffb100;stroke:#000;stroke-width:1.46px;"/><path d="M1451,166.693c22.591,-1.707 82.198,23.295 141.145,12.877c22.868,-4.041 32.744,-17.782 37.639,-23.971c4.895,-6.189 18.002,-37.261 18.002,-37.261c0,0 -13.344,29.069 -29.887,37.261c-7.026,3.48 -33.269,6.299 -50.119,5.253c-22.819,-1.417 -41.98,-7.044 -52.213,-9.651c-24.322,-6.197 -44.665,-9.908 -58.42,-7.556c-40.248,6.881 -78.044,45.097 -78.044,45.097c0,0 49.305,-20.342 71.897,-22.049Z" style="fill:none;stroke:#000;stroke-width:1.46px;stroke-linecap:square;stroke-linejoin:miter;stroke-miterlimit:10;"/><clipPath id="_clip1"><path d="M1459.5,142.795l8.84,0l0,25.28l-8.84,-1.838l0,-23.442Z"/></clipPath><g clip-path="url(#_clip1)"><path d="M1459.5,142.795l8.84,0l0,25.28l-8.84,-1.838l0,-23.442Z" style="fill:#01eaff;fill-rule:nonzero;stroke:#000;stroke-width:1.46px;"/></g><clipPath id="_clip2"><path d="M1459.5,142.795l8.84,0l0,25.28l-8.84,-1.838l0,-23.442Z"/></clipPath><g clip-path="url(#_clip2)"><path d="M1459.5,142.795l8.84,0l0,25.28l-8.84,-1.838l0,-23.442Z" style="fill:#4785c5;fill-rule:nonzero;stroke:#0b0a0a;stroke-width:1.46px;stroke-linejoin:miter;stroke-miterlimit:10;"/></g><clipPath id="_clip3"><path d="M1538.74,156.923l12.784,2.661l-1.818,21.732l-13.259,0l2.293,-24.393Z"/></clipPath><g clip-path="url(#_clip3)"><path d="M1538.74,156.923l12.784,2.661l-1.818,21.732l-13.259,0l2.293,-24.393Z" style="fill:#4785c5;fill-rule:nonzero;stroke:#000;stroke-width:1.46px;"/></g><clipPath id="_clip4"><path d="M1538.74,156.923l12.784,2.661l-1.818,21.732l-13.259,0l2.293,-24.393Z"/></clipPath><g clip-path="url(#_clip4)"><path d="M1538.74,156.923l12.785,2.661l-1.819,21.732l-13.259,0l2.293,-24.393Z" style="fill:none;stroke:#0b0a0a;stroke-width:1.46px;stroke-linejoin:miter;stroke-miterlimit:10;"/></g><clipPath id="_clip5"><path d="M1415.96,160.471l17.238,-9.757l12.375,15.504c0,0 -15.545,3.567 -22.743,5.785c-9.484,2.921 -26.368,10.652 -35.376,13.748c-4.229,1.454 -5.728,0 -5.728,0l34.234,-25.28Z"/></clipPath><g clip-path="url(#_clip5)"><path d="M1415.96,160.471l17.238,-9.757l12.375,15.504c0,0 -15.545,3.567 -22.743,5.785c-9.484,2.921 -26.368,10.652 -35.376,13.748c-4.229,1.454 -5.728,0 -5.728,0l34.234,-25.28Z" style="fill:#01eaff;fill-rule:nonzero;stroke:#000;stroke-width:1.46px;"/></g><clipPath id="_clip6"><path d="M1415.96,160.471l17.238,-9.757l12.375,15.504c0,0 -15.545,3.567 -22.743,5.785c-9.484,2.921 -26.368,10.652 -35.376,13.748c-4.229,1.454 -5.728,0 -5.728,0l34.234,-25.28Z"/></clipPath><g clip-path="url(#_clip6)"><path d="M1415.96,160.471l17.238,-9.757l12.375,15.504c0,0 -15.545,3.567 -22.743,5.785c-9.484,2.921 -26.368,10.652 -35.376,13.748c-4.229,1.454 -5.728,0 -5.728,0l34.234,-25.28Z" style="fill:#4785c5;fill-rule:nonzero;stroke:#0b0a0a;stroke-width:1.46px;stroke-linejoin:miter;stroke-miterlimit:10;"/></g><path d="M1451,237.49c22.592,-1.707 82.199,23.295 141.145,12.877c22.868,-4.041 32.744,-17.782 37.639,-23.971c4.895,-6.189 18.002,-37.262 18.002,-37.262c0,0 -13.344,29.07 -29.886,37.262c-7.027,3.48 -33.27,6.299 -50.12,5.253c-22.819,-1.417 -41.98,-7.044 -52.213,-9.651c-24.322,-6.197 -44.665,-9.908 -58.42,-7.556c-40.248,6.881 -78.044,45.097 -78.044,45.097c0,0 49.305,-20.342 71.897,-22.049Z" style="fill:#ffb100;stroke:#000;stroke-width:1.46px;"/><path d="M1451,237.49c22.591,-1.707 82.198,23.295 141.145,12.878c22.868,-4.042 32.744,-17.783 37.639,-23.972c4.895,-6.189 18.002,-37.261 18.002,-37.261c0,0 -13.344,29.069 -29.887,37.261c-7.026,3.48 -33.269,6.299 -50.119,5.253c-22.819,-1.417 -41.98,-7.044 -52.213,-9.651c-24.322,-6.197 -44.665,-9.908 -58.42,-7.556c-40.248,6.881 -78.044,45.097 -78.044,45.097c0,0 49.305,-20.342 71.897,-22.049Z" style="fill:none;stroke:#000;stroke-width:1.46px;stroke-linecap:square;stroke-linejoin:miter;stroke-miterlimit:10;"/><clipPath id="_clip7"><path d="M1479.11,214.415l28.834,6.218l-1.377,25.811l-29.345,-5.84l1.888,-26.189Z"/></clipPath><g clip-path="url(#_clip7)"><path d="M1479.11,214.415l28.834,6.218l-1.377,25.811l-29.345,-5.84l1.888,-26.189Z" style="fill:#4785c5;fill-rule:nonzero;stroke:#000;stroke-width:1.46px;"/></g><clipPath id="_clip8"><path d="M1479.11,214.415l28.834,6.218l-1.377,25.811l-29.345,-5.84l1.888,-26.189Z"/></clipPath><g clip-path="url(#_clip8)"><path d="M1479.11,214.415l28.834,6.218l-1.378,25.811l-29.344,-5.84l1.888,-26.189Z" style="fill:none;stroke:#0b0a0a;stroke-width:1.46px;stroke-linejoin:miter;stroke-miterlimit:10;"/></g><clipPath id="_clip9"><path d="M1538.74,227.72l12.784,2.661l-1.818,21.732l-13.259,0l2.293,-24.393Z"/></clipPath><g clip-path="url(#_clip9)"><path d="M1538.74,227.72l12.784,2.661l-1.818,21.732l-13.259,0l2.293,-24.393Z" style="fill:#01eaff;fill-rule:nonzero;stroke:#000;stroke-width:1.46px;"/></g><clipPath id="_clip10"><path d="M1538.74,227.72l12.784,2.661l-1.818,21.732l-13.259,0l2.293,-24.393Z"/></clipPath><g clip-path="url(#_clip10)"><path d="M1538.74,227.72l12.785,2.661l-1.819,21.732l-13.259,0l2.293,-24.393Z" style="fill:#4785c5;fill-rule:nonzero;stroke:#0b0a0a;stroke-width:1.46px;stroke-linejoin:miter;stroke-miterlimit:10;"/></g><clipPath id="_clip11"><path d="M1437.89,220.171l22.73,-5.756l4.231,23.94l-13.481,-2.218l-13.48,-15.966Z"/></clipPath><g clip-path="url(#_clip11)"><path d="M1437.89,220.171l22.73,-5.756l4.231,23.94l-13.481,-2.218l-13.48,-15.966Z" style="fill:#01eaff;fill-rule:nonzero;stroke:#000;stroke-width:1.46px;"/></g><clipPath id="_clip12"><path d="M1437.89,220.171l22.73,-5.756l4.231,23.94l-13.481,-2.218l-13.48,-15.966Z"/></clipPath><g clip-path="url(#_clip12)"><path d="M1437.89,220.171l22.73,-5.756l4.231,23.94l-13.481,-2.218l-13.48,-15.966Z" style="fill:none;stroke:#0b0a0a;stroke-width:1.46px;stroke-linejoin:miter;stroke-miterlimit:10;"/></g><clipPath id="_clip13"><path d="M1437.89,220.171l22.73,-5.756l4.231,23.94l-13.481,-2.218l-13.48,-15.966Z"/></clipPath><g clip-path="url(#_clip13)"><path d="M1437.89,220.171l22.73,-5.756l4.231,23.94l-13.481,-2.218l-13.48,-15.966Z" style="fill:#01eaff;fill-rule:nonzero;stroke:#000;stroke-width:1.46px;"/></g><clipPath id="_clip14"><path d="M1437.89,220.171l22.73,-5.756l4.231,23.94l-13.481,-2.218l-13.48,-15.966Z"/></clipPath><g clip-path="url(#_clip14)"><path d="M1437.89,220.171l22.73,-5.756l4.231,23.94l-13.481,-2.218l-13.48,-15.966Z" style="fill:#4785c5;fill-rule:nonzero;stroke:#0b0a0a;stroke-width:1.46px;stroke-linejoin:miter;stroke-miterlimit:10;"/></g><path d="M1451,308.173c22.592,-1.707 82.199,23.295 141.145,12.878c22.868,-4.042 32.744,-17.783 37.639,-23.972c4.895,-6.189 18.002,-37.261 18.002,-37.261c0,0 -13.344,29.069 -29.886,37.261c-7.027,3.48 -33.27,6.299 -50.12,5.253c-22.819,-1.416 -41.98,-7.044 -52.213,-9.651c-24.322,-6.197 -44.665,-9.908 -58.42,-7.556c-40.248,6.881 -78.044,45.097 -78.044,45.097c0,0 49.305,-20.342 71.897,-22.049Z" style="fill:#ffb100;stroke:#000;stroke-width:1.46px;"/><path d="M1451,308.173c22.591,-1.707 82.198,23.295 141.145,12.877c22.868,-4.041 32.744,-17.782 37.639,-23.971c4.895,-6.189 18.002,-37.261 18.002,-37.261c0,0 -13.344,29.069 -29.887,37.261c-7.026,3.48 -33.269,6.299 -50.119,5.253c-22.819,-1.417 -41.98,-7.044 -52.213,-9.651c-24.322,-6.197 -44.665,-9.908 -58.42,-7.556c-40.248,6.881 -78.044,45.097 -78.044,45.097c0,0 49.305,-20.342 71.897,-22.049Z" style="fill:none;stroke:#000;stroke-width:1.46px;stroke-linecap:square;stroke-linejoin:miter;stroke-miterlimit:10;"/><clipPath id="_clip15"><path d="M1538.74,298.403l12.784,2.661l-1.818,21.732l-13.259,0l2.293,-24.393Z"/></clipPath><g clip-path="url(#_clip15)"><path d="M1538.74,298.403l12.784,2.661l-1.818,21.732l-13.259,0l2.293,-24.393Z" style="fill:#4785c5;fill-rule:nonzero;stroke:#000;stroke-width:1.46px;"/></g><clipPath id="_clip16"><path d="M1538.74,298.403l12.784,2.661l-1.818,21.732l-13.259,0l2.293,-24.393Z"/></clipPath><g clip-path="url(#_clip16)"><path d="M1538.74,298.403l12.785,2.661l-1.819,21.732l-13.259,0l2.293,-24.393Z" style="fill:none;stroke:#0b0a0a;stroke-width:1.46px;stroke-linejoin:miter;stroke-miterlimit:10;"/></g><clipPath id="_clip17"><path d="M1437.89,290.854l22.73,-5.756l4.231,23.94l-13.481,-2.217l-13.48,-15.967Z"/></clipPath><g clip-path="url(#_clip17)"><path d="M1437.89,290.854l22.73,-5.756l4.231,23.94l-13.481,-2.217l-13.48,-15.967Z" style="fill:#01eaff;fill-rule:nonzero;stroke:#000;stroke-width:1.46px;"/></g><clipPath id="_clip18"><path d="M1437.89,290.854l22.73,-5.756l4.231,23.94l-13.481,-2.217l-13.48,-15.967Z"/></clipPath><g clip-path="url(#_clip18)"><path d="M1437.89,290.854l22.73,-5.756l4.231,23.94l-13.481,-2.218l-13.48,-15.966Z" style="fill:none;stroke:#0b0a0a;stroke-width:1.46px;stroke-linejoin:miter;stroke-miterlimit:10;"/></g><clipPath id="_clip19"><path d="M1437.89,290.854l22.73,-5.756l4.231,23.94l-13.481,-2.217l-13.48,-15.967Z"/></clipPath><g clip-path="url(#_clip19)"><path d="M1437.89,290.854l22.73,-5.756l4.231,23.94l-13.481,-2.217l-13.48,-15.967Z" style="fill:#01eaff;fill-rule:nonzero;stroke:#000;stroke-width:1.46px;"/></g><clipPath id="_clip20"><path d="M1437.89,290.854l22.73,-5.756l4.231,23.94l-13.481,-2.217l-13.48,-15.967Z"/></clipPath><g clip-path="url(#_clip20)"><path d="M1437.89,290.854l22.73,-5.756l4.231,23.94l-13.481,-2.218l-13.48,-15.966Z" style="fill:#4785c5;fill-rule:nonzero;stroke:#0b0a0a;stroke-width:1.46px;stroke-linejoin:miter;stroke-miterlimit:10;"/></g><path d="M1263.3,55.684c22.592,-1.707 82.199,23.294 141.146,12.877c22.868,-4.041 32.744,-17.783 37.639,-23.971c4.895,-6.189 18.001,-37.262 18.001,-37.262c0,0 -13.343,29.069 -29.886,37.262c-7.027,3.48 -33.27,6.298 -50.12,5.252c-22.819,-1.416 -41.98,-7.044 -52.213,-9.651c-24.321,-6.196 -44.665,-9.908 -58.42,-7.556c-40.248,6.881 -78.044,45.097 -78.044,45.097c0,0 49.306,-20.342 71.897,-22.048Z" style="fill:#ffb100;stroke:#000;stroke-width:1.46px;"/><path d="M1263.3,55.683c22.592,-1.706 82.199,23.295 141.146,12.878c22.867,-4.041 32.744,-17.782 37.639,-23.971c4.894,-6.189 18.001,-37.262 18.001,-37.262c0,0 -13.344,29.069 -29.886,37.262c-7.027,3.479 -33.27,6.298 -50.12,5.252c-22.819,-1.416 -41.98,-7.044 -52.213,-9.651c-24.322,-6.196 -44.665,-9.908 -58.42,-7.556c-40.248,6.881 -78.044,45.097 -78.044,45.097c0,0 49.306,-20.342 71.897,-22.049Z" style="fill:none;stroke:#000;stroke-width:1.46px;stroke-linecap:square;stroke-linejoin:miter;stroke-miterlimit:10;"/><clipPath id="_clip21"><path d="M1271.8,31.786l8.839,0l0,25.28l-8.839,-1.839l0,-23.441Z"/></clipPath><g clip-path="url(#_clip21)"><path d="M1271.8,31.786l8.839,0l0,25.28l-8.839,-1.839l0,-23.441Z" style="fill:#01eaff;fill-rule:nonzero;stroke:#000;stroke-width:1.46px;"/></g><clipPath id="_clip22"><path d="M1271.8,31.786l8.839,0l0,25.28l-8.839,-1.839l0,-23.441Z"/></clipPath><g clip-path="url(#_clip22)"><path d="M1271.8,31.786l8.839,0l0,25.28l-8.839,-1.838l0,-23.442Z" style="fill:#4785c5;fill-rule:nonzero;stroke:#0b0a0a;stroke-width:1.46px;stroke-linejoin:miter;stroke-miterlimit:10;"/></g><clipPath id="_clip23"><path d="M1351.04,45.914l12.785,2.661l-1.819,21.732l-13.259,0l2.293,-24.393Z"/></clipPath><g clip-path="url(#_clip23)"><path d="M1351.04,45.914l12.785,2.661l-1.819,21.732l-13.259,0l2.293,-24.393Z" style="fill:#4785c5;fill-rule:nonzero;stroke:#000;stroke-width:1.46px;"/></g><clipPath id="_clip24"><path d="M1351.04,45.914l12.785,2.661l-1.819,21.732l-13.259,0l2.293,-24.393Z"/></clipPath><g clip-path="url(#_clip24)"><path d="M1351.04,45.914l12.784,2.661l-1.819,21.732l-13.259,0l2.294,-24.393Z" style="fill:none;stroke:#0b0a0a;stroke-width:1.46px;stroke-linejoin:miter;stroke-miterlimit:10;"/></g><clipPath id="_clip25"><path d="M1228.26,49.462l17.237,-9.758l12.376,15.504c0,0 -15.545,3.567 -22.743,5.785c-9.484,2.922 -26.369,10.653 -35.376,13.749c-4.23,1.454 -5.729,0 -5.729,0l34.235,-25.28Z"/></clipPath><g clip-path="url(#_clip25)"><path d="M1228.26,49.462l17.237,-9.758l12.376,15.504c0,0 -15.545,3.567 -22.743,5.785c-9.484,2.922 -26.369,10.653 -35.376,13.749c-4.23,1.454 -5.729,0 -5.729,0l34.235,-25.28Z" style="fill:#01eaff;fill-rule:nonzero;stroke:#000;stroke-width:1.46px;"/></g><clipPath id="_clip26"><path d="M1228.26,49.462l17.237,-9.758l12.376,15.504c0,0 -15.545,3.567 -22.743,5.785c-9.484,2.922 -26.369,10.653 -35.376,13.749c-4.23,1.454 -5.729,0 -5.729,0l34.235,-25.28Z"/></clipPath><g clip-path="url(#_clip26)"><path d="M1228.26,49.462l17.237,-9.758l12.376,15.504c0,0 -15.546,3.568 -22.743,5.785c-9.484,2.922 -26.369,10.653 -35.376,13.749c-4.23,1.454 -5.729,0 -5.729,0l34.235,-25.28Z" style="fill:#4785c5;fill-rule:nonzero;stroke:#0b0a0a;stroke-width:1.46px;stroke-linejoin:miter;stroke-miterlimit:10;"/></g><path d="M1263.3,126.48c22.592,-1.706 82.199,23.295 141.146,12.878c22.868,-4.041 32.744,-17.782 37.639,-23.971c4.895,-6.189 18.001,-37.262 18.001,-37.262c0,0 -13.343,29.069 -29.886,37.262c-7.027,3.479 -33.27,6.298 -50.12,5.252c-22.819,-1.416 -41.98,-7.044 -52.213,-9.651c-24.321,-6.197 -44.665,-9.908 -58.42,-7.556c-40.248,6.882 -78.044,45.098 -78.044,45.098c0,0 49.306,-20.343 71.897,-22.05Z" style="fill:#ffb100;stroke:#000;stroke-width:1.46px;"/><path d="M1263.3,126.481c22.592,-1.707 82.199,23.294 141.146,12.877c22.867,-4.041 32.744,-17.782 37.639,-23.971c4.894,-6.189 18.001,-37.262 18.001,-37.262c0,0 -13.344,29.069 -29.886,37.262c-7.027,3.48 -33.27,6.298 -50.12,5.252c-22.819,-1.416 -41.98,-7.044 -52.213,-9.651c-24.322,-6.196 -44.665,-9.908 -58.42,-7.556c-40.248,6.882 -78.044,45.098 -78.044,45.098c0,0 49.306,-20.343 71.897,-22.049Z" style="fill:none;stroke:#000;stroke-width:1.46px;stroke-linecap:square;stroke-linejoin:miter;stroke-miterlimit:10;"/><clipPath id="_clip27"><path d="M1291.41,103.405l28.835,6.219l-1.378,25.81l-29.345,-5.839l1.888,-26.19Z"/></clipPath><g clip-path="url(#_clip27)"><path d="M1291.41,103.405l28.835,6.219l-1.378,25.81l-29.345,-5.839l1.888,-26.19Z" style="fill:#4785c5;fill-rule:nonzero;stroke:#000;stroke-width:1.46px;"/></g><clipPath id="_clip28"><path d="M1291.41,103.405l28.835,6.219l-1.378,25.81l-29.345,-5.839l1.888,-26.19Z"/></clipPath><g clip-path="url(#_clip28)"><path d="M1291.41,103.405l28.835,6.219l-1.378,25.81l-29.345,-5.839l1.888,-26.19Z" style="fill:none;stroke:#0b0a0a;stroke-width:1.46px;stroke-linejoin:miter;stroke-miterlimit:10;"/></g><clipPath id="_clip29"><path d="M1351.04,116.71l12.785,2.661l-1.819,21.732l-13.259,0l2.293,-24.393Z"/></clipPath><g clip-path="url(#_clip29)"><path d="M1351.04,116.71l12.785,2.661l-1.819,21.732l-13.259,0l2.293,-24.393Z" style="fill:#01eaff;fill-rule:nonzero;stroke:#000;stroke-width:1.46px;"/></g><clipPath id="_clip30"><path d="M1351.04,116.71l12.785,2.661l-1.819,21.732l-13.259,0l2.293,-24.393Z"/></clipPath><g clip-path="url(#_clip30)"><path d="M1351.04,116.71l12.784,2.661l-1.819,21.732l-13.259,0l2.294,-24.393Z" style="fill:#4785c5;fill-rule:nonzero;stroke:#0b0a0a;stroke-width:1.46px;stroke-linejoin:miter;stroke-miterlimit:10;"/></g><clipPath id="_clip31"><path d="M1250.19,109.161l22.73,-5.756l4.231,23.94l-13.481,-2.217l-13.48,-15.967Z"/></clipPath><g clip-path="url(#_clip31)"><path d="M1250.19,109.161l22.73,-5.756l4.231,23.94l-13.481,-2.217l-13.48,-15.967Z" style="fill:#01eaff;fill-rule:nonzero;stroke:#000;stroke-width:1.46px;"/></g><clipPath id="_clip32"><path d="M1250.19,109.161l22.73,-5.756l4.231,23.94l-13.481,-2.217l-13.48,-15.967Z"/></clipPath><g clip-path="url(#_clip32)"><path d="M1250.19,109.161l22.73,-5.756l4.231,23.94l-13.481,-2.217l-13.48,-15.967Z" style="fill:none;stroke:#0b0a0a;stroke-width:1.46px;stroke-linejoin:miter;stroke-miterlimit:10;"/></g><clipPath id="_clip33"><path d="M1250.19,109.161l22.73,-5.756l4.231,23.94l-13.481,-2.217l-13.48,-15.967Z"/></clipPath><g clip-path="url(#_clip33)"><path d="M1250.19,109.161l22.73,-5.756l4.231,23.94l-13.481,-2.217l-13.48,-15.967Z" style="fill:#01eaff;fill-rule:nonzero;stroke:#000;stroke-width:1.46px;"/></g><clipPath id="_clip34"><path d="M1250.19,109.161l22.73,-5.756l4.231,23.94l-13.481,-2.217l-13.48,-15.967Z"/></clipPath><g clip-path="url(#_clip34)"><path d="M1250.19,109.161l22.73,-5.756l4.231,23.94l-13.481,-2.217l-13.48,-15.967Z" style="fill:#4785c5;fill-rule:nonzero;stroke:#0b0a0a;stroke-width:1.46px;stroke-linejoin:miter;stroke-miterlimit:10;"/></g><path d="M1263.3,197.164c22.592,-1.707 82.199,23.294 141.146,12.877c22.868,-4.041 32.744,-17.782 37.639,-23.971c4.895,-6.189 18.001,-37.262 18.001,-37.262c0,0 -13.343,29.069 -29.886,37.262c-7.027,3.48 -33.27,6.298 -50.12,5.252c-22.819,-1.416 -41.98,-7.044 -52.213,-9.651c-24.321,-6.196 -44.665,-9.908 -58.42,-7.556c-40.248,6.881 -78.044,45.097 -78.044,45.097c0,0 49.306,-20.342 71.897,-22.048Z" style="fill:#ffb100;stroke:#000;stroke-width:1.46px;"/><path d="M1263.3,197.163c22.592,-1.706 82.199,23.295 141.146,12.878c22.867,-4.041 32.744,-17.782 37.639,-23.971c4.894,-6.189 18.001,-37.262 18.001,-37.262c0,0 -13.344,29.069 -29.886,37.262c-7.027,3.479 -33.27,6.298 -50.12,5.252c-22.819,-1.416 -41.98,-7.044 -52.213,-9.651c-24.322,-6.196 -44.665,-9.908 -58.42,-7.556c-40.248,6.881 -78.044,45.097 -78.044,45.097c0,0 49.306,-20.342 71.897,-22.049Z" style="fill:none;stroke:#000;stroke-width:1.46px;stroke-linecap:square;stroke-linejoin:miter;stroke-miterlimit:10;"/><clipPath id="_clip35"><path d="M1351.04,187.394l12.785,2.661l-1.819,21.732l-13.259,0l2.293,-24.393Z"/></clipPath><g clip-path="url(#_clip35)"><path d="M1351.04,187.394l12.785,2.661l-1.819,21.732l-13.259,0l2.293,-24.393Z" style="fill:#4785c5;fill-rule:nonzero;stroke:#000;stroke-width:1.46px;"/></g><clipPath id="_clip36"><path d="M1351.04,187.394l12.785,2.661l-1.819,21.732l-13.259,0l2.293,-24.393Z"/></clipPath><g clip-path="url(#_clip36)"><path d="M1351.04,187.394l12.784,2.661l-1.819,21.732l-13.259,0l2.294,-24.393Z" style="fill:none;stroke:#0b0a0a;stroke-width:1.46px;stroke-linejoin:miter;stroke-miterlimit:10;"/></g><clipPath id="_clip37"><path d="M1250.19,179.845l22.73,-5.757l4.231,23.941l-13.481,-2.218l-13.48,-15.966Z"/></clipPath><g clip-path="url(#_clip37)"><path d="M1250.19,179.845l22.73,-5.757l4.231,23.941l-13.481,-2.218l-13.48,-15.966Z" style="fill:#01eaff;fill-rule:nonzero;stroke:#000;stroke-width:1.46px;"/></g><clipPath id="_clip38"><path d="M1250.19,179.845l22.73,-5.757l4.231,23.941l-13.481,-2.218l-13.48,-15.966Z"/></clipPath><g clip-path="url(#_clip38)"><path d="M1250.19,179.844l22.73,-5.756l4.231,23.94l-13.481,-2.217l-13.48,-15.967Z" style="fill:none;stroke:#0b0a0a;stroke-width:1.46px;stroke-linejoin:miter;stroke-miterlimit:10;"/></g><clipPath id="_clip39"><path d="M1250.19,179.845l22.73,-5.757l4.231,23.941l-13.481,-2.218l-13.48,-15.966Z"/></clipPath><g clip-path="url(#_clip39)"><path d="M1250.19,179.845l22.73,-5.757l4.231,23.941l-13.481,-2.218l-13.48,-15.966Z" style="fill:#01eaff;fill-rule:nonzero;stroke:#000;stroke-width:1.46px;"/></g><clipPath id="_clip40"><path d="M1250.19,179.845l22.73,-5.757l4.231,23.941l-13.481,-2.218l-13.48,-15.966Z"/></clipPath><g clip-path="url(#_clip40)"><path d="M1250.19,179.844l22.73,-5.756l4.231,23.94l-13.481,-2.217l-13.48,-15.967Z" style="fill:#4785c5;fill-rule:nonzero;stroke:#0b0a0a;stroke-width:1.46px;stroke-linejoin:miter;stroke-miterlimit:10;"/></g><path d="M1537.63,60.162c22.591,-1.707 82.198,23.295 141.145,12.878c22.868,-4.042 32.744,-17.783 37.639,-23.972c4.895,-6.189 18.001,-37.261 18.001,-37.261c0,0 -13.343,29.069 -29.886,37.261c-7.027,3.48 -33.269,6.299 -50.119,5.253c-22.819,-1.416 -41.98,-7.044 -52.214,-9.651c-24.321,-6.197 -44.664,-9.908 -58.419,-7.556c-40.249,6.881 -78.044,45.097 -78.044,45.097c0,0 49.305,-20.342 71.897,-22.049Z" style="fill:#ffb100;stroke:#000;stroke-width:1.46px;"/><path d="M1537.63,60.162c22.591,-1.707 82.198,23.295 141.145,12.878c22.868,-4.042 32.744,-17.783 37.639,-23.972c4.895,-6.189 18.001,-37.261 18.001,-37.261c0,0 -13.343,29.069 -29.886,37.261c-7.027,3.48 -33.27,6.299 -50.12,5.253c-22.819,-1.417 -41.98,-7.044 -52.213,-9.651c-24.321,-6.197 -44.664,-9.908 -58.42,-7.556c-40.248,6.881 -78.043,45.097 -78.043,45.097c0,0 49.305,-20.342 71.897,-22.049Z" style="fill:none;stroke:#000;stroke-width:1.46px;stroke-linecap:square;stroke-linejoin:miter;stroke-miterlimit:10;"/><clipPath id="_clip41"><path d="M1546.13,36.264l8.84,0l0,25.28l-8.84,-1.838l0,-23.442Z"/></clipPath><g clip-path="url(#_clip41)"><path d="M1546.13,36.264l8.84,0l0,25.28l-8.84,-1.838l0,-23.442Z" style="fill:#01eaff;fill-rule:nonzero;stroke:#000;stroke-width:1.46px;"/></g><clipPath id="_clip42"><path d="M1546.13,36.264l8.84,0l0,25.28l-8.84,-1.838l0,-23.442Z"/></clipPath><g clip-path="url(#_clip42)"><path d="M1546.13,36.264l8.84,0l0,25.28l-8.84,-1.838l0,-23.442Z" style="fill:#4785c5;fill-rule:nonzero;stroke:#0b0a0a;stroke-width:1.46px;stroke-linejoin:miter;stroke-miterlimit:10;"/></g><clipPath id="_clip43"><path d="M1625.37,50.392l12.784,2.661l-1.818,21.732l-13.26,0l2.294,-24.393Z"/></clipPath><g clip-path="url(#_clip43)"><path d="M1625.37,50.392l12.784,2.661l-1.818,21.732l-13.26,0l2.294,-24.393Z" style="fill:#4785c5;fill-rule:nonzero;stroke:#000;stroke-width:1.46px;"/></g><clipPath id="_clip44"><path d="M1625.37,50.392l12.784,2.661l-1.818,21.732l-13.26,0l2.294,-24.393Z"/></clipPath><g clip-path="url(#_clip44)"><path d="M1625.37,50.392l12.784,2.661l-1.818,21.732l-13.26,0l2.294,-24.393Z" style="fill:none;stroke:#0b0a0a;stroke-width:1.46px;stroke-linejoin:miter;stroke-miterlimit:10;"/></g><clipPath id="_clip45"><path d="M1502.59,53.94l17.237,-9.757l12.376,15.504c0,0 -15.545,3.567 -22.743,5.785c-9.484,2.922 -26.368,10.652 -35.376,13.749c-4.229,1.453 -5.728,0 -5.728,0l34.234,-25.281Z"/></clipPath><g clip-path="url(#_clip45)"><path d="M1502.59,53.94l17.237,-9.757l12.376,15.504c0,0 -15.545,3.567 -22.743,5.785c-9.484,2.922 -26.368,10.652 -35.376,13.749c-4.229,1.453 -5.728,0 -5.728,0l34.234,-25.281Z" style="fill:#01eaff;fill-rule:nonzero;stroke:#000;stroke-width:1.46px;"/></g><clipPath id="_clip46"><path d="M1502.59,53.94l17.237,-9.757l12.376,15.504c0,0 -15.545,3.567 -22.743,5.785c-9.484,2.922 -26.368,10.652 -35.376,13.749c-4.229,1.453 -5.728,0 -5.728,0l34.234,-25.281Z"/></clipPath><g clip-path="url(#_clip46)"><path d="M1502.59,53.94l17.237,-9.757l12.376,15.504c0,0 -15.545,3.567 -22.743,5.785c-9.484,2.921 -26.369,10.652 -35.376,13.749c-4.229,1.453 -5.728,0 -5.728,0l34.234,-25.281Z" style="fill:#4785c5;fill-rule:nonzero;stroke:#0b0a0a;stroke-width:1.46px;stroke-linejoin:miter;stroke-miterlimit:10;"/></g><path d="M1537.63,130.959c22.591,-1.706 82.198,23.295 141.145,12.878c22.868,-4.042 32.744,-17.783 37.639,-23.972c4.895,-6.189 18.001,-37.261 18.001,-37.261c0,0 -13.343,29.069 -29.886,37.261c-7.027,3.48 -33.269,6.299 -50.119,5.253c-22.819,-1.416 -41.98,-7.044 -52.214,-9.651c-24.321,-6.197 -44.664,-9.908 -58.419,-7.556c-40.249,6.881 -78.044,45.097 -78.044,45.097c0,0 49.305,-20.342 71.897,-22.049Z" style="fill:#ffb100;stroke:#000;stroke-width:1.46px;"/><path d="M1537.63,130.959c22.591,-1.706 82.198,23.295 141.145,12.878c22.868,-4.041 32.744,-17.783 37.639,-23.972c4.895,-6.189 18.001,-37.261 18.001,-37.261c0,0 -13.343,29.069 -29.886,37.261c-7.027,3.48 -33.27,6.299 -50.12,5.253c-22.819,-1.416 -41.98,-7.044 -52.213,-9.651c-24.321,-6.197 -44.664,-9.908 -58.42,-7.556c-40.248,6.881 -78.043,45.097 -78.043,45.097c0,0 49.305,-20.342 71.897,-22.049Z" style="fill:none;stroke:#000;stroke-width:1.46px;stroke-linecap:square;stroke-linejoin:miter;stroke-miterlimit:10;"/><clipPath id="_clip47"><path d="M1565.74,107.884l28.835,6.219l-1.378,25.81l-29.344,-5.839l1.887,-26.19Z"/></clipPath><g clip-path="url(#_clip47)"><path d="M1565.74,107.884l28.835,6.219l-1.378,25.81l-29.344,-5.839l1.887,-26.19Z" style="fill:#4785c5;fill-rule:nonzero;stroke:#000;stroke-width:1.46px;"/></g><clipPath id="_clip48"><path d="M1565.74,107.884l28.835,6.219l-1.378,25.81l-29.344,-5.839l1.887,-26.19Z"/></clipPath><g clip-path="url(#_clip48)"><path d="M1565.74,107.884l28.834,6.218l-1.378,25.811l-29.344,-5.84l1.888,-26.189Z" style="fill:none;stroke:#0b0a0a;stroke-width:1.46px;stroke-linejoin:miter;stroke-miterlimit:10;"/></g><clipPath id="_clip49"><path d="M1625.37,121.189l12.784,2.661l-1.818,21.732l-13.26,0l2.294,-24.393Z"/></clipPath><g clip-path="url(#_clip49)"><path d="M1625.37,121.189l12.784,2.661l-1.818,21.732l-13.26,0l2.294,-24.393Z" style="fill:#01eaff;fill-rule:nonzero;stroke:#000;stroke-width:1.46px;"/></g><clipPath id="_clip50"><path d="M1625.37,121.189l12.784,2.661l-1.818,21.732l-13.26,0l2.294,-24.393Z"/></clipPath><g clip-path="url(#_clip50)"><path d="M1625.37,121.189l12.784,2.661l-1.818,21.732l-13.26,0l2.294,-24.393Z" style="fill:#4785c5;fill-rule:nonzero;stroke:#0b0a0a;stroke-width:1.46px;stroke-linejoin:miter;stroke-miterlimit:10;"/></g><clipPath id="_clip51"><path d="M1524.52,113.64l22.731,-5.756l4.23,23.94l-13.48,-2.218l-13.481,-15.966Z"/></clipPath><g clip-path="url(#_clip51)"><path d="M1524.52,113.64l22.731,-5.756l4.23,23.94l-13.48,-2.218l-13.481,-15.966Z" style="fill:#01eaff;fill-rule:nonzero;stroke:#000;stroke-width:1.46px;"/></g><clipPath id="_clip52"><path d="M1524.52,113.64l22.731,-5.756l4.23,23.94l-13.48,-2.218l-13.481,-15.966Z"/></clipPath><g clip-path="url(#_clip52)"><path d="M1524.52,113.64l22.731,-5.756l4.23,23.94l-13.48,-2.218l-13.481,-15.966Z" style="fill:none;stroke:#0b0a0a;stroke-width:1.46px;stroke-linejoin:miter;stroke-miterlimit:10;"/></g><clipPath id="_clip53"><path d="M1524.52,113.64l22.731,-5.756l4.23,23.94l-13.48,-2.218l-13.481,-15.966Z"/></clipPath><g clip-path="url(#_clip53)"><path d="M1524.52,113.64l22.731,-5.756l4.23,23.94l-13.48,-2.218l-13.481,-15.966Z" style="fill:#01eaff;fill-rule:nonzero;stroke:#000;stroke-width:1.46px;"/></g><clipPath id="_clip54"><path d="M1524.52,113.64l22.731,-5.756l4.23,23.94l-13.48,-2.218l-13.481,-15.966Z"/></clipPath><g clip-path="url(#_clip54)"><path d="M1524.52,113.64l22.731,-5.756l4.23,23.94l-13.48,-2.218l-13.481,-15.966Z" style="fill:#4785c5;fill-rule:nonzero;stroke:#0b0a0a;stroke-width:1.46px;stroke-linejoin:miter;stroke-miterlimit:10;"/></g><path d="M1537.63,201.642c22.591,-1.707 82.198,23.295 141.145,12.878c22.868,-4.042 32.744,-17.783 37.639,-23.972c4.895,-6.189 18.001,-37.261 18.001,-37.261c0,0 -13.343,29.069 -29.886,37.261c-7.027,3.48 -33.269,6.299 -50.119,5.253c-22.819,-1.416 -41.98,-7.044 -52.214,-9.651c-24.321,-6.197 -44.664,-9.908 -58.419,-7.556c-40.249,6.881 -78.044,45.097 -78.044,45.097c0,0 49.305,-20.342 71.897,-22.049Z" style="fill:#ffb100;stroke:#000;stroke-width:1.46px;"/><path d="M1537.63,201.642c22.591,-1.707 82.198,23.295 141.145,12.878c22.868,-4.042 32.744,-17.783 37.639,-23.972c4.895,-6.189 18.001,-37.261 18.001,-37.261c0,0 -13.343,29.069 -29.886,37.261c-7.027,3.48 -33.27,6.299 -50.12,5.253c-22.819,-1.417 -41.98,-7.044 -52.213,-9.651c-24.321,-6.197 -44.664,-9.908 -58.42,-7.556c-40.248,6.881 -78.043,45.097 -78.043,45.097c0,0 49.305,-20.342 71.897,-22.049Z" style="fill:none;stroke:#000;stroke-width:1.46px;stroke-linecap:square;stroke-linejoin:miter;stroke-miterlimit:10;"/><clipPath id="_clip55"><path d="M1625.37,191.872l12.784,2.661l-1.818,21.732l-13.26,0l2.294,-24.393Z"/></clipPath><g clip-path="url(#_clip55)"><path d="M1625.37,191.872l12.784,2.661l-1.818,21.732l-13.26,0l2.294,-24.393Z" style="fill:#4785c5;fill-rule:nonzero;stroke:#000;stroke-width:1.46px;"/></g><clipPath id="_clip56"><path d="M1625.37,191.872l12.784,2.661l-1.818,21.732l-13.26,0l2.294,-24.393Z"/></clipPath><g clip-path="url(#_clip56)"><path d="M1625.37,191.872l12.784,2.661l-1.818,21.732l-13.26,0l2.294,-24.393Z" style="fill:none;stroke:#0b0a0a;stroke-width:1.46px;stroke-linejoin:miter;stroke-miterlimit:10;"/></g><clipPath id="_clip57"><path d="M1524.52,184.323l22.731,-5.756l4.23,23.94l-13.48,-2.217l-13.481,-15.967Z"/></clipPath><g clip-path="url(#_clip57)"><path d="M1524.52,184.323l22.731,-5.756l4.23,23.94l-13.48,-2.217l-13.481,-15.967Z" style="fill:#01eaff;fill-rule:nonzero;stroke:#000;stroke-width:1.46px;"/></g><clipPath id="_clip58"><path d="M1524.52,184.323l22.731,-5.756l4.23,23.94l-13.48,-2.217l-13.481,-15.967Z"/></clipPath><g clip-path="url(#_clip58)"><path d="M1524.52,184.323l22.731,-5.756l4.23,23.94l-13.48,-2.218l-13.481,-15.966Z" style="fill:none;stroke:#0b0a0a;stroke-width:1.46px;stroke-linejoin:miter;stroke-miterlimit:10;"/></g><clipPath id="_clip59"><path d="M1524.52,184.323l22.731,-5.756l4.23,23.94l-13.48,-2.217l-13.481,-15.967Z"/></clipPath><g clip-path="url(#_clip59)"><path d="M1524.52,184.323l22.731,-5.756l4.23,23.94l-13.48,-2.217l-13.481,-15.967Z" style="fill:#01eaff;fill-rule:nonzero;stroke:#000;stroke-width:1.46px;"/></g><clipPath id="_clip60"><path d="M1524.52,184.323l22.731,-5.756l4.23,23.94l-13.48,-2.217l-13.481,-15.967Z"/></clipPath><g clip-path="url(#_clip60)"><path d="M1524.52,184.323l22.731,-5.756l4.23,23.94l-13.48,-2.218l-13.481,-15.966Z" style="fill:#4785c5;fill-rule:nonzero;stroke:#0b0a0a;stroke-width:1.46px;stroke-linejoin:miter;stroke-miterlimit:10;"/></g><path d="M1304.92,221.143c22.592,-1.707 82.199,23.295 141.145,12.877c22.868,-4.041 32.744,-17.782 37.639,-23.971c4.895,-6.189 18.002,-37.261 18.002,-37.261c0,0 -13.344,29.069 -29.886,37.261c-7.027,3.48 -33.27,6.299 -50.12,5.253c-22.819,-1.416 -41.98,-7.044 -52.213,-9.651c-24.322,-6.197 -44.665,-9.908 -58.42,-7.556c-40.248,6.881 -78.044,45.097 -78.044,45.097c0,0 49.305,-20.342 71.897,-22.049Z" style="fill:#ffb100;stroke:#000;stroke-width:1.46px;"/><path d="M1304.92,221.143c22.591,-1.707 82.198,23.295 141.145,12.877c22.868,-4.041 32.744,-17.782 37.639,-23.971c4.895,-6.189 18.002,-37.262 18.002,-37.262c0,0 -13.344,29.07 -29.887,37.262c-7.026,3.48 -33.269,6.299 -50.119,5.253c-22.819,-1.417 -41.98,-7.044 -52.213,-9.652c-24.322,-6.196 -44.665,-9.907 -58.42,-7.556c-40.248,6.882 -78.044,45.098 -78.044,45.098c0,0 49.305,-20.342 71.897,-22.049Z" style="fill:none;stroke:#000;stroke-width:1.46px;stroke-linecap:square;stroke-linejoin:miter;stroke-miterlimit:10;"/><clipPath id="_clip61"><path d="M1313.42,197.245l8.839,0l0,25.28l-8.839,-1.838l0,-23.442Z"/></clipPath><g clip-path="url(#_clip61)"><path d="M1313.42,197.245l8.839,0l0,25.28l-8.839,-1.838l0,-23.442Z" style="fill:#01eaff;fill-rule:nonzero;stroke:#000;stroke-width:1.46px;"/></g><clipPath id="_clip62"><path d="M1313.42,197.245l8.839,0l0,25.28l-8.839,-1.838l0,-23.442Z"/></clipPath><g clip-path="url(#_clip62)"><path d="M1313.42,197.245l8.839,0l0,25.28l-8.839,-1.838l0,-23.442Z" style="fill:#4785c5;fill-rule:nonzero;stroke:#0b0a0a;stroke-width:1.46px;stroke-linejoin:miter;stroke-miterlimit:10;"/></g><clipPath id="_clip63"><path d="M1392.66,211.373l12.784,2.661l-1.818,21.732l-13.259,0l2.293,-24.393Z"/></clipPath><g clip-path="url(#_clip63)"><path d="M1392.66,211.373l12.784,2.661l-1.818,21.732l-13.259,0l2.293,-24.393Z" style="fill:#4785c5;fill-rule:nonzero;stroke:#000;stroke-width:1.46px;"/></g><clipPath id="_clip64"><path d="M1392.66,211.373l12.784,2.661l-1.818,21.732l-13.259,0l2.293,-24.393Z"/></clipPath><g clip-path="url(#_clip64)"><path d="M1392.66,211.373l12.785,2.661l-1.819,21.732l-13.259,0l2.293,-24.393Z" style="fill:none;stroke:#0b0a0a;stroke-width:1.46px;stroke-linejoin:miter;stroke-miterlimit:10;"/></g><clipPath id="_clip65"><path d="M1269.88,214.921l17.237,-9.757l12.375,15.504c0,0 -15.545,3.567 -22.743,5.784c-9.484,2.922 -26.368,10.653 -35.376,13.749c-4.229,1.454 -5.728,0 -5.728,0l34.235,-25.28Z"/></clipPath><g clip-path="url(#_clip65)"><path d="M1269.88,214.921l17.237,-9.757l12.375,15.504c0,0 -15.545,3.567 -22.743,5.784c-9.484,2.922 -26.368,10.653 -35.376,13.749c-4.229,1.454 -5.728,0 -5.728,0l34.235,-25.28Z" style="fill:#01eaff;fill-rule:nonzero;stroke:#000;stroke-width:1.46px;"/></g><clipPath id="_clip66"><path d="M1269.88,214.921l17.237,-9.757l12.375,15.504c0,0 -15.545,3.567 -22.743,5.784c-9.484,2.922 -26.368,10.653 -35.376,13.749c-4.229,1.454 -5.728,0 -5.728,0l34.235,-25.28Z"/></clipPath><g clip-path="url(#_clip66)"><path d="M1269.88,214.921l17.237,-9.757l12.375,15.504c0,0 -15.545,3.567 -22.743,5.784c-9.484,2.922 -26.368,10.653 -35.376,13.749c-4.229,1.454 -5.728,0 -5.728,0l34.235,-25.28Z" style="fill:#4785c5;fill-rule:nonzero;stroke:#0b0a0a;stroke-width:1.46px;stroke-linejoin:miter;stroke-miterlimit:10;"/></g><path d="M1304.92,291.94c22.592,-1.707 82.199,23.294 141.145,12.877c22.868,-4.041 32.744,-17.782 37.639,-23.971c4.895,-6.189 18.002,-37.262 18.002,-37.262c0,0 -13.344,29.07 -29.886,37.262c-7.027,3.48 -33.27,6.299 -50.12,5.253c-22.819,-1.417 -41.98,-7.044 -52.213,-9.651c-24.322,-6.197 -44.665,-9.908 -58.42,-7.556c-40.248,6.881 -78.044,45.097 -78.044,45.097c0,0 49.305,-20.342 71.897,-22.049Z" style="fill:#ffb100;stroke:#000;stroke-width:1.46px;"/><path d="M1304.92,291.94c22.591,-1.707 82.198,23.295 141.145,12.877c22.868,-4.041 32.744,-17.782 37.639,-23.971c4.895,-6.189 18.002,-37.261 18.002,-37.261c0,0 -13.344,29.069 -29.887,37.261c-7.026,3.48 -33.269,6.299 -50.119,5.253c-22.819,-1.417 -41.98,-7.044 -52.213,-9.651c-24.322,-6.197 -44.665,-9.908 -58.42,-7.556c-40.248,6.881 -78.044,45.097 -78.044,45.097c0,0 49.305,-20.342 71.897,-22.049Z" style="fill:none;stroke:#000;stroke-width:1.46px;stroke-linecap:square;stroke-linejoin:miter;stroke-miterlimit:10;"/><clipPath id="_clip67"><path d="M1333.03,268.864l28.834,6.219l-1.377,25.81l-29.345,-5.839l1.888,-26.19Z"/></clipPath><g clip-path="url(#_clip67)"><path d="M1333.03,268.864l28.834,6.219l-1.377,25.81l-29.345,-5.839l1.888,-26.19Z" style="fill:#4785c5;fill-rule:nonzero;stroke:#000;stroke-width:1.46px;"/></g><clipPath id="_clip68"><path d="M1333.03,268.864l28.834,6.219l-1.377,25.81l-29.345,-5.839l1.888,-26.19Z"/></clipPath><g clip-path="url(#_clip68)"><path d="M1333.03,268.864l28.834,6.219l-1.378,25.81l-29.344,-5.839l1.888,-26.19Z" style="fill:none;stroke:#0b0a0a;stroke-width:1.46px;stroke-linejoin:miter;stroke-miterlimit:10;"/></g><clipPath id="_clip69"><path d="M1392.66,282.17l12.784,2.661l-1.818,21.732l-13.259,0l2.293,-24.393Z"/></clipPath><g clip-path="url(#_clip69)"><path d="M1392.66,282.17l12.784,2.661l-1.818,21.732l-13.259,0l2.293,-24.393Z" style="fill:#01eaff;fill-rule:nonzero;stroke:#000;stroke-width:1.46px;"/></g><clipPath id="_clip70"><path d="M1392.66,282.17l12.784,2.661l-1.818,21.732l-13.259,0l2.293,-24.393Z"/></clipPath><g clip-path="url(#_clip70)"><path d="M1392.66,282.17l12.785,2.661l-1.819,21.732l-13.259,0l2.293,-24.393Z" style="fill:#4785c5;fill-rule:nonzero;stroke:#0b0a0a;stroke-width:1.46px;stroke-linejoin:miter;stroke-miterlimit:10;"/></g><clipPath id="_clip71"><path d="M1291.81,274.621l22.73,-5.757l4.231,23.941l-13.481,-2.218l-13.48,-15.966Z"/></clipPath><g clip-path="url(#_clip71)"><path d="M1291.81,274.621l22.73,-5.757l4.231,23.941l-13.481,-2.218l-13.48,-15.966Z" style="fill:#01eaff;fill-rule:nonzero;stroke:#000;stroke-width:1.46px;"/></g><clipPath id="_clip72"><path d="M1291.81,274.621l22.73,-5.757l4.231,23.941l-13.481,-2.218l-13.48,-15.966Z"/></clipPath><g clip-path="url(#_clip72)"><path d="M1291.81,274.621l22.73,-5.757l4.231,23.941l-13.481,-2.218l-13.48,-15.966Z" style="fill:none;stroke:#0b0a0a;stroke-width:1.46px;stroke-linejoin:miter;stroke-miterlimit:10;"/></g><clipPath id="_clip73"><path d="M1291.81,274.621l22.73,-5.757l4.231,23.941l-13.481,-2.218l-13.48,-15.966Z"/></clipPath><g clip-path="url(#_clip73)"><path d="M1291.81,274.621l22.73,-5.757l4.231,23.941l-13.481,-2.218l-13.48,-15.966Z" style="fill:#01eaff;fill-rule:nonzero;stroke:#000;stroke-width:1.46px;"/></g><clipPath id="_clip74"><path d="M1291.81,274.621l22.73,-5.757l4.231,23.941l-13.481,-2.218l-13.48,-15.966Z"/></clipPath><g clip-path="url(#_clip74)"><path d="M1291.81,274.621l22.73,-5.757l4.231,23.941l-13.481,-2.218l-13.48,-15.966Z" style="fill:#4785c5;fill-rule:nonzero;stroke:#0b0a0a;stroke-width:1.46px;stroke-linejoin:miter;stroke-miterlimit:10;"/></g><path d="M1304.92,362.623c22.592,-1.707 82.199,23.295 141.145,12.877c22.868,-4.041 32.744,-17.782 37.639,-23.971c4.895,-6.189 18.002,-37.261 18.002,-37.261c0,0 -13.344,29.069 -29.886,37.261c-7.027,3.48 -33.27,6.299 -50.12,5.253c-22.819,-1.416 -41.98,-7.044 -52.213,-9.651c-24.322,-6.197 -44.665,-9.908 -58.42,-7.556c-40.248,6.881 -78.044,45.097 -78.044,45.097c0,0 49.305,-20.342 71.897,-22.049Z" style="fill:#ffb100;stroke:#000;stroke-width:1.46px;"/><path d="M1304.92,362.623c22.591,-1.707 82.198,23.295 141.145,12.877c22.868,-4.041 32.744,-17.782 37.639,-23.971c4.895,-6.189 18.002,-37.262 18.002,-37.262c0,0 -13.344,29.07 -29.887,37.262c-7.026,3.48 -33.269,6.299 -50.119,5.253c-22.819,-1.417 -41.98,-7.044 -52.213,-9.652c-24.322,-6.196 -44.665,-9.907 -58.42,-7.556c-40.248,6.882 -78.044,45.098 -78.044,45.098c0,0 49.305,-20.342 71.897,-22.049Z" style="fill:none;stroke:#000;stroke-width:1.46px;stroke-linecap:square;stroke-linejoin:miter;stroke-miterlimit:10;"/><clipPath id="_clip75"><path d="M1392.66,352.853l12.784,2.661l-1.818,21.732l-13.259,0l2.293,-24.393Z"/></clipPath><g clip-path="url(#_clip75)"><path d="M1392.66,352.853l12.784,2.661l-1.818,21.732l-13.259,0l2.293,-24.393Z" style="fill:#4785c5;fill-rule:nonzero;stroke:#000;stroke-width:1.46px;"/></g><clipPath id="_clip76"><path d="M1392.66,352.853l12.784,2.661l-1.818,21.732l-13.259,0l2.293,-24.393Z"/></clipPath><g clip-path="url(#_clip76)"><path d="M1392.66,352.853l12.785,2.661l-1.819,21.732l-13.259,0l2.293,-24.393Z" style="fill:none;stroke:#0b0a0a;stroke-width:1.46px;stroke-linejoin:miter;stroke-miterlimit:10;"/></g><clipPath id="_clip77"><path d="M1291.81,345.304l22.73,-5.756l4.231,23.94l-13.481,-2.218l-13.48,-15.966Z"/></clipPath><g clip-path="url(#_clip77)"><path d="M1291.81,345.304l22.73,-5.756l4.231,23.94l-13.481,-2.218l-13.48,-15.966Z" style="fill:#01eaff;fill-rule:nonzero;stroke:#000;stroke-width:1.46px;"/></g><clipPath id="_clip78"><path d="M1291.81,345.304l22.73,-5.756l4.231,23.94l-13.481,-2.218l-13.48,-15.966Z"/></clipPath><g clip-path="url(#_clip78)"><path d="M1291.81,345.304l22.73,-5.756l4.231,23.94l-13.481,-2.218l-13.48,-15.966Z" style="fill:none;stroke:#0b0a0a;stroke-width:1.46px;stroke-linejoin:miter;stroke-miterlimit:10;"/></g><clipPath id="_clip79"><path d="M1291.81,345.304l22.73,-5.756l4.231,23.94l-13.481,-2.218l-13.48,-15.966Z"/></clipPath><g clip-path="url(#_clip79)"><path d="M1291.81,345.304l22.73,-5.756l4.231,23.94l-13.481,-2.218l-13.48,-15.966Z" style="fill:#01eaff;fill-rule:nonzero;stroke:#000;stroke-width:1.46px;"/></g><clipPath id="_clip80"><path d="M1291.81,345.304l22.73,-5.756l4.231,23.94l-13.481,-2.218l-13.48,-15.966Z"/></clipPath><g clip-path="url(#_clip80)"><path d="M1291.81,345.304l22.73,-5.756l4.231,23.94l-13.481,-2.218l-13.48,-15.966Z" style="fill:#4785c5;fill-rule:nonzero;stroke:#0b0a0a;stroke-width:1.46px;stroke-linejoin:miter;stroke-miterlimit:10;"/></g><path d="M281.448,257.023l0,-27.75l31.197,0l0,-25.769l39.643,39.644l-39.643,39.644l0,-25.769l-31.197,0Z" style="stroke:#000;stroke-width:1.46px;stroke-linecap:square;stroke-linejoin:miter;stroke-miterlimit:10;stroke-dasharray:1.46,1.46,1.46,0;"/><path d="M706.279,260.153l0,-39.643l62.664,0l0,-19.822l39.643,39.644l-39.643,39.643l0,-19.822l-62.664,0Z" style="stroke:#000;stroke-width:1.46px;stroke-linecap:square;stroke-linejoin:miter;stroke-miterlimit:10;stroke-dasharray:1.46,1.46,1.46,0;"/><path d="M995.737,260.153l0,-39.643l62.663,0l0,-19.822l39.644,39.644l-39.644,39.643l0,-19.822l-62.663,0Z" style="stroke:#000;stroke-width:1.46px;stroke-linecap:square;stroke-linejoin:miter;stroke-miterlimit:10;stroke-dasharray:1.46,1.46,1.46,0;"/><path d="M172.622,204.946l14.382,12.734l-28.764,25.468l28.764,25.468l-14.382,12.734l-28.764,-25.468l-28.765,25.468l-14.382,-12.734l28.764,-25.468l-28.764,-25.468l14.382,-12.734l28.765,25.468l28.764,-25.468Z" style="stroke:#000;stroke-width:1.46px;stroke-linecap:square;stroke-linejoin:miter;stroke-miterlimit:10;stroke-dasharray:1.46,1.46,1.46,0;"/><path d="M533.658,204.946l14.383,12.734l-28.765,25.468l28.765,25.468l-14.383,12.734l-28.764,-25.468l-28.764,25.468l-14.383,-12.734l28.765,-25.468l-28.765,-25.468l14.383,-12.734l28.764,25.468l28.764,-25.468Z" style="stroke:#000;stroke-width:1.46px;stroke-linecap:square;stroke-linejoin:miter;stroke-miterlimit:10;stroke-dasharray:1.46,1.46,1.46,0;"/><text x="705.834px" y="182.133px" style="font-family:'ArialMT', 'Arial', sans-serif;font-size:50px;fill:#231f20;">10 Generations</text></svg>