<?xml version="1.0" encoding="UTF-8" standalone="no"?>
<svg width="1151px" height="165px" viewBox="0 0 1151 165" version="1.1" xmlns="http://www.w3.org/2000/svg" xmlns:xlink="http://www.w3.org/1999/xlink">
    <!-- Generator: Sketch 3.7.2 (28276) - http://www.bohemiancoding.com/sketch -->
    <title>Read-depth</title>
    <desc>Created with Sketch.</desc>
    <defs>
        <path d="M276,94 L519,94 L519,108 L276,108 L33,108 L33,94 L276,94 Z" id="path-1"></path>
        <mask id="mask-2" maskContentUnits="userSpaceOnUse" maskUnits="objectBoundingBox" x="0" y="0" width="486" height="14" fill="white">
            <use xlink:href="#path-1"></use>
        </mask>
        <path d="M278.029412,135.908497 L522.816176,135.908497 L522.816176,150 L278.029412,150 L33.2426471,150 L33.2426471,135.908497 L278.029412,135.908497 Z" id="path-3"></path>
        <mask id="mask-4" maskContentUnits="userSpaceOnUse" maskUnits="objectBoundingBox" x="0" y="0" width="489.573529" height="14.0915033" fill="white">
            <use xlink:href="#path-3"></use>
        </mask>
    </defs>
    <g id="Page-1" stroke="none" stroke-width="1" fill="none" fill-rule="evenodd">
        <g id="Group" transform="translate(15.000000, 46.000000)">
            <use id="Rectangle-2-Copy-4" stroke="#979797" mask="url(#mask-2)" stroke-width="2" fill="#D8D8D8" xlink:href="#path-1"></use>
            <path d="M36.5,86 L86.5,86" id="Line-Copy-176" stroke="#9B9B9B" stroke-width="8" stroke-linecap="square"></path>
            <path d="M36.5,86 L86.5,86" id="Line-Copy-177" stroke="#9B9B9B" stroke-width="8" stroke-linecap="square"></path>
            <path d="M98.5,86 L148.5,86" id="Line-Copy-178" stroke="#9B9B9B" stroke-width="8" stroke-linecap="square"></path>
            <path d="M159.5,86 L209.5,86" id="Line-Copy-179" stroke="#9B9B9B" stroke-width="8" stroke-linecap="square"></path>
            <path d="M159.5,86 L209.5,86" id="Line-Copy-180" stroke="#9B9B9B" stroke-width="8" stroke-linecap="square"></path>
            <path d="M345.5,86 L395.5,86" id="Line-Copy-184" stroke="#9B9B9B" stroke-width="8" stroke-linecap="square"></path>
            <path d="M406.5,86 L456.5,86" id="Line-Copy-185" stroke="#9B9B9B" stroke-width="8" stroke-linecap="square"></path>
            <path d="M406.5,86 L456.5,86" id="Line-Copy-186" stroke="#9B9B9B" stroke-width="8" stroke-linecap="square"></path>
            <path d="M468.5,86 L518.5,86" id="Line-Copy-187" stroke="#9B9B9B" stroke-width="8" stroke-linecap="square"></path>
            <path d="M61.5,75 L111.5,75" id="Line-Copy-188" stroke="#9B9B9B" stroke-width="8" stroke-linecap="square"></path>
            <path d="M61.5,75 L111.5,75" id="Line-Copy-189" stroke="#9B9B9B" stroke-width="8" stroke-linecap="square"></path>
            <path d="M123.5,75 L173.5,75" id="Line-Copy-190" stroke="#9B9B9B" stroke-width="8" stroke-linecap="square"></path>
            <path d="M184.5,75 L234.5,75" id="Line-Copy-191" stroke="#9B9B9B" stroke-width="8" stroke-linecap="square"></path>
            <path d="M184.5,75 L234.5,75" id="Line-Copy-192" stroke="#9B9B9B" stroke-width="8" stroke-linecap="square"></path>
            <path d="M308.5,75 L358.5,75" id="Line-Copy-194" stroke="#9B9B9B" stroke-width="8" stroke-linecap="square"></path>
            <path d="M370.5,75 L420.5,75" id="Line-Copy-196" stroke="#9B9B9B" stroke-width="8" stroke-linecap="square"></path>
            <path d="M431.5,75 L481.5,75" id="Line-Copy-197" stroke="#9B9B9B" stroke-width="8" stroke-linecap="square"></path>
            <path d="M431.5,75 L481.5,75" id="Line-Copy-198" stroke="#9B9B9B" stroke-width="8" stroke-linecap="square"></path>
            <path d="M493.5,75 L543.5,75" id="Line-Copy-199" stroke="#9B9B9B" stroke-width="8" stroke-linecap="square"></path>
            <path d="M32.5,64 L82.5,64" id="Line-Copy-200" stroke="#9B9B9B" stroke-width="8" stroke-linecap="square"></path>
            <path d="M32.5,64 L82.5,64" id="Line-Copy-201" stroke="#9B9B9B" stroke-width="8" stroke-linecap="square"></path>
            <path d="M94.5,64 L144.5,64" id="Line-Copy-202" stroke="#9B9B9B" stroke-width="8" stroke-linecap="square"></path>
            <path d="M155.5,64 L205.5,64" id="Line-Copy-203" stroke="#9B9B9B" stroke-width="8" stroke-linecap="square"></path>
            <path d="M155.5,64 L205.5,64" id="Line-Copy-204" stroke="#9B9B9B" stroke-width="8" stroke-linecap="square"></path>
            <path d="M341.5,64 L391.5,64" id="Line-Copy-208" stroke="#9B9B9B" stroke-width="8" stroke-linecap="square"></path>
            <path d="M402.5,64 L452.5,64" id="Line-Copy-209" stroke="#9B9B9B" stroke-width="8" stroke-linecap="square"></path>
            <path d="M402.5,64 L452.5,64" id="Line-Copy-210" stroke="#9B9B9B" stroke-width="8" stroke-linecap="square"></path>
            <path d="M464.5,64 L514.5,64" id="Line-Copy-211" stroke="#9B9B9B" stroke-width="8" stroke-linecap="square"></path>
            <path d="M0.5,53 L50.5,53" id="Line-Copy-212" stroke="#9B9B9B" stroke-width="8" stroke-linecap="square"></path>
            <path d="M0.5,53 L50.5,53" id="Line-Copy-213" stroke="#9B9B9B" stroke-width="8" stroke-linecap="square"></path>
            <path d="M62.5,53 L112.5,53" id="Line-Copy-214" stroke="#9B9B9B" stroke-width="8" stroke-linecap="square"></path>
            <path d="M123.5,53 L173.5,53" id="Line-Copy-215" stroke="#9B9B9B" stroke-width="8" stroke-linecap="square"></path>
            <path d="M123.5,53 L173.5,53" id="Line-Copy-216" stroke="#9B9B9B" stroke-width="8" stroke-linecap="square"></path>
            <path d="M185.5,53 L235.5,53" id="Line-Copy-217" stroke="#9B9B9B" stroke-width="8" stroke-linecap="square"></path>
            <path d="M370.5,53 L420.5,53" id="Line-Copy-231" stroke="#9B9B9B" stroke-width="8" stroke-linecap="square"></path>
            <path d="M370.5,53 L420.5,53" id="Line-Copy-232" stroke="#9B9B9B" stroke-width="8" stroke-linecap="square"></path>
            <path d="M432.5,53 L482.5,53" id="Line-Copy-233" stroke="#9B9B9B" stroke-width="8" stroke-linecap="square"></path>
            <text id="deletion-copy" font-family="Helvetica" font-size="32" font-weight="normal" fill="#000000">
                <tspan x="232" y="31">deletion</tspan>
            </text>
        </g>
        <g id="Group" transform="translate(575.000000, 4.000000)">
            <use id="Rectangle-2-Copy-3" stroke="#979797" mask="url(#mask-4)" stroke-width="2" fill="#D8D8D8" xlink:href="#path-3"></use>
            <path d="M36.7683824,127.856209 L87.1360294,127.856209" id="Line-Copy-154" stroke="#9B9B9B" stroke-width="8" stroke-linecap="square"></path>
            <path d="M36.7683824,127.856209 L87.1360294,127.856209" id="Line-Copy-155" stroke="#9B9B9B" stroke-width="8" stroke-linecap="square"></path>
            <path d="M99.2242647,127.856209 L149.591912,127.856209" id="Line-Copy-156" stroke="#9B9B9B" stroke-width="8" stroke-linecap="square"></path>
            <path d="M160.672794,127.856209 L211.040441,127.856209" id="Line-Copy-159" stroke="#9B9B9B" stroke-width="8" stroke-linecap="square"></path>
            <path d="M160.672794,127.856209 L211.040441,127.856209" id="Line-Copy-157" stroke="#9B9B9B" stroke-width="8" stroke-linecap="square"></path>
            <path d="M223.128676,127.856209 L273.496324,127.856209" id="Line-Copy-158" stroke="#F6A623" stroke-width="8" stroke-linecap="square"></path>
            <path d="M285.584559,127.856209 L335.952206,127.856209" id="Line-Copy-165" stroke="#9B9B9B" stroke-width="8" stroke-linecap="square"></path>
            <path d="M285.584559,127.856209 L335.952206,127.856209" id="Line-Copy-160" stroke="#F6A623" stroke-width="8" stroke-linecap="square"></path>
            <path d="M348.040441,127.856209 L398.408088,127.856209" id="Line-Copy-161" stroke="#9B9B9B" stroke-width="8" stroke-linecap="square"></path>
            <path d="M409.488971,127.856209 L459.856618,127.856209" id="Line-Copy-162" stroke="#9B9B9B" stroke-width="8" stroke-linecap="square"></path>
            <path d="M409.488971,127.856209 L459.856618,127.856209" id="Line-Copy-163" stroke="#9B9B9B" stroke-width="8" stroke-linecap="square"></path>
            <path d="M471.944853,127.856209 L522.3125,127.856209" id="Line-Copy-164" stroke="#9B9B9B" stroke-width="8" stroke-linecap="square"></path>
            <path d="M61.9522059,116.784314 L112.319853,116.784314" id="Line-Copy-154" stroke="#9B9B9B" stroke-width="8" stroke-linecap="square"></path>
            <path d="M61.9522059,116.784314 L112.319853,116.784314" id="Line-Copy-155" stroke="#9B9B9B" stroke-width="8" stroke-linecap="square"></path>
            <path d="M124.408088,116.784314 L174.775735,116.784314" id="Line-Copy-156" stroke="#9B9B9B" stroke-width="8" stroke-linecap="square"></path>
            <path d="M185.856618,116.784314 L236.224265,116.784314" id="Line-Copy-159" stroke="#9B9B9B" stroke-width="8" stroke-linecap="square"></path>
            <path d="M185.856618,116.784314 L236.224265,116.784314" id="Line-Copy-157" stroke="#9B9B9B" stroke-width="8" stroke-linecap="square"></path>
            <path d="M248.3125,116.784314 L298.680147,116.784314" id="Line-Copy-158" stroke="#F6A623" stroke-width="8" stroke-linecap="square"></path>
            <path d="M310.768382,116.784314 L361.136029,116.784314" id="Line-Copy-165" stroke="#9B9B9B" stroke-width="8" stroke-linecap="square"></path>
            <path d="M310.768382,116.784314 L361.136029,116.784314" id="Line-Copy-160" stroke="#F6A623" stroke-width="8" stroke-linecap="square"></path>
            <path d="M373.224265,116.784314 L423.591912,116.784314" id="Line-Copy-161" stroke="#9B9B9B" stroke-width="8" stroke-linecap="square"></path>
            <path d="M434.672794,116.784314 L485.040441,116.784314" id="Line-Copy-162" stroke="#9B9B9B" stroke-width="8" stroke-linecap="square"></path>
            <path d="M434.672794,116.784314 L485.040441,116.784314" id="Line-Copy-163" stroke="#9B9B9B" stroke-width="8" stroke-linecap="square"></path>
            <path d="M497.128676,116.784314 L547.496324,116.784314" id="Line-Copy-164" stroke="#9B9B9B" stroke-width="8" stroke-linecap="square"></path>
            <path d="M32.7389706,105.712418 L83.1066176,105.712418" id="Line-Copy-154" stroke="#9B9B9B" stroke-width="8" stroke-linecap="square"></path>
            <path d="M32.7389706,105.712418 L83.1066176,105.712418" id="Line-Copy-155" stroke="#9B9B9B" stroke-width="8" stroke-linecap="square"></path>
            <path d="M95.1948529,105.712418 L145.5625,105.712418" id="Line-Copy-156" stroke="#9B9B9B" stroke-width="8" stroke-linecap="square"></path>
            <path d="M156.643382,105.712418 L207.011029,105.712418" id="Line-Copy-159" stroke="#9B9B9B" stroke-width="8" stroke-linecap="square"></path>
            <path d="M156.643382,105.712418 L207.011029,105.712418" id="Line-Copy-157" stroke="#9B9B9B" stroke-width="8" stroke-linecap="square"></path>
            <path d="M219.099265,105.712418 L269.466912,105.712418" id="Line-Copy-158" stroke="#F6A623" stroke-width="8" stroke-linecap="square"></path>
            <path d="M281.555147,105.712418 L331.922794,105.712418" id="Line-Copy-165" stroke="#9B9B9B" stroke-width="8" stroke-linecap="square"></path>
            <path d="M281.555147,105.712418 L331.922794,105.712418" id="Line-Copy-160" stroke="#F6A623" stroke-width="8" stroke-linecap="square"></path>
            <path d="M344.011029,105.712418 L394.378676,105.712418" id="Line-Copy-161" stroke="#9B9B9B" stroke-width="8" stroke-linecap="square"></path>
            <path d="M405.459559,105.712418 L455.827206,105.712418" id="Line-Copy-162" stroke="#9B9B9B" stroke-width="8" stroke-linecap="square"></path>
            <path d="M405.459559,105.712418 L455.827206,105.712418" id="Line-Copy-163" stroke="#9B9B9B" stroke-width="8" stroke-linecap="square"></path>
            <path d="M467.915441,105.712418 L518.283088,105.712418" id="Line-Copy-164" stroke="#9B9B9B" stroke-width="8" stroke-linecap="square"></path>
            <path d="M0.503676471,94.6405229 L50.8713235,94.6405229" id="Line-Copy-154" stroke="#9B9B9B" stroke-width="8" stroke-linecap="square"></path>
            <path d="M0.503676471,94.6405229 L50.8713235,94.6405229" id="Line-Copy-155" stroke="#9B9B9B" stroke-width="8" stroke-linecap="square"></path>
            <path d="M62.9595588,94.6405229 L113.327206,94.6405229" id="Line-Copy-156" stroke="#9B9B9B" stroke-width="8" stroke-linecap="square"></path>
            <path d="M124.408088,94.6405229 L174.775735,94.6405229" id="Line-Copy-159" stroke="#9B9B9B" stroke-width="8" stroke-linecap="square"></path>
            <path d="M124.408088,94.6405229 L174.775735,94.6405229" id="Line-Copy-157" stroke="#9B9B9B" stroke-width="8" stroke-linecap="square"></path>
            <path d="M186.863971,94.6405229 L237.231618,94.6405229" id="Line-Copy-158" stroke="#9B9B9B" stroke-width="8" stroke-linecap="square"></path>
            <path d="M249.319853,94.6405229 L299.6875,94.6405229" id="Line-Copy-165" stroke="#9B9B9B" stroke-width="8" stroke-linecap="square"></path>
            <path d="M249.319853,94.6405229 L299.6875,94.6405229" id="Line-Copy-160" stroke="#F6A623" stroke-width="8" stroke-linecap="square"></path>
            <path d="M220.106618,82.5620915 L270.474265,82.5620915" id="Line-Copy-166" stroke="#F6A623" stroke-width="8" stroke-linecap="square"></path>
            <path d="M281.555147,82.5620915 L331.922794,82.5620915" id="Line-Copy-167" stroke="#F6A623" stroke-width="8" stroke-linecap="square"></path>
            <path d="M343.003676,82.5620915 L393.371324,82.5620915" id="Line-Copy-168" stroke="#F6A623" stroke-width="8" stroke-linecap="square"></path>
            <path d="M250.327206,70.4836601 L300.694853,70.4836601" id="Line-Copy-170" stroke="#F6A623" stroke-width="8" stroke-linecap="square"></path>
            <path d="M311.775735,70.4836601 L362.143382,70.4836601" id="Line-Copy-169" stroke="#F6A623" stroke-width="8" stroke-linecap="square"></path>
            <path d="M223.128676,58.4052288 L273.496324,58.4052288" id="Line-Copy-175" stroke="#F6A623" stroke-width="8" stroke-linecap="square"></path>
            <path d="M284.577206,58.4052288 L334.944853,58.4052288" id="Line-Copy-171" stroke="#F6A623" stroke-width="8" stroke-linecap="square"></path>
            <path d="M346.025735,58.4052288 L396.393382,58.4052288" id="Line-Copy-172" stroke="#F6A623" stroke-width="8" stroke-linecap="square"></path>
            <path d="M253.349265,46.3267974 L303.716912,46.3267974" id="Line-Copy-173" stroke="#F6A623" stroke-width="8" stroke-linecap="square"></path>
            <path d="M314.797794,46.3267974 L365.165441,46.3267974" id="Line-Copy-174" stroke="#F6A623" stroke-width="8" stroke-linecap="square"></path>
            <path d="M311.775735,94.6405229 L362.143382,94.6405229" id="Line-Copy-161" stroke="#F6A623" stroke-width="8" stroke-linecap="square"></path>
            <path d="M373.224265,94.6405229 L423.591912,94.6405229" id="Line-Copy-162" stroke="#9B9B9B" stroke-width="8" stroke-linecap="square"></path>
            <path d="M373.224265,94.6405229 L423.591912,94.6405229" id="Line-Copy-163" stroke="#9B9B9B" stroke-width="8" stroke-linecap="square"></path>
            <path d="M435.680147,94.6405229 L486.047794,94.6405229" id="Line-Copy-164" stroke="#9B9B9B" stroke-width="8" stroke-linecap="square"></path>
            <text id="duplication" font-family="Helvetica" font-size="32" font-weight="normal" fill="#000000">
                <tspan x="212.551471" y="31.1111111">duplication</tspan>
            </text>
        </g>
    </g>
</svg>